<svg xmlns="http://www.w3.org/2000/svg" xmlns:xlink="http://www.w3.org/1999/xlink" version="1.1" x="0px" y="0px" viewBox="0 0 100 100" enable-background="new 0 0 100 100" xml:space="preserve"><path fill="#143F5B" d="M67.6,68.1c-0.1,0-0.3,0-0.4,0c-6.1,0-11-4.7-11.2-10.8c-0.2-6.2,4.6-11.4,10.8-11.6c6.2-0.2,11.4,4.6,11.6,10.8  C78.6,62.7,73.7,67.9,67.6,68.1z M72.4,45.1l0.1,0c2.3-0.1,4-2,3.9-4.2c-0.1-2.2-1.9-3.9-4.1-3.9l-0.1,0c-1.1,0-2.1,0.5-2.8,1.3  s-1.1,1.8-1.1,2.9C68.4,43.4,70.2,45.1,72.4,45.1z M25,72.6c-0.7,1.6-2.3,2.7-4.1,2.7c-0.6,0-1.2-0.1-1.8-0.4  c-1.1-0.5-1.9-1.4-2.4-2.5c-0.4-1.1-0.4-2.3,0.1-3.4c0.7-1.6,2.3-2.7,4.1-2.7c0.6,0,1.2,0.1,1.8,0.4c1.1,0.5,1.9,1.4,2.4,2.5  C25.5,70.3,25.5,71.5,25,72.6z M23.2,69.9c-0.2-0.6-0.7-1.1-1.3-1.4c-0.3-0.1-0.6-0.2-1-0.2c-1,0-1.9,0.6-2.3,1.5  c-0.3,0.6-0.3,1.3,0,1.9s0.7,1.1,1.3,1.4c1.2,0.5,2.7-0.1,3.2-1.3C23.5,71.2,23.5,70.5,23.2,69.9z M83.2,39.6l-0.2,0  c-3.6,0.1-6.5,3.2-6.4,6.8c0.1,3.6,3,6.4,6.6,6.4l0.2,0c1.8-0.1,3.4-0.8,4.6-2.1c1.2-1.3,1.8-3,1.8-4.7  C89.6,42.4,86.8,39.6,83.2,39.6z M27.5,18.8c-0.2-1.2,0.1-2.4,0.8-3.4c0.7-1,1.7-1.6,2.9-1.9c2.5-0.4,4.8,1.3,5.2,3.7  c0.4,2.5-1.2,4.8-3.7,5.2c-0.3,0-0.5,0.1-0.8,0.1C29.7,22.6,27.8,21,27.5,18.8z M34.4,17.6c0-0.2-0.1-0.4-0.2-0.6l-3.3,3.3  c0.4,0.2,0.9,0.3,1.4,0.2C33.7,20.3,34.7,19,34.4,17.6z M29.4,18.5c0.1,0.3,0.2,0.6,0.3,0.9l3.5-3.5c-0.4-0.2-0.8-0.4-1.3-0.4  c-0.1,0-0.3,0-0.4,0c-0.7,0.1-1.2,0.5-1.6,1C29.5,17.1,29.3,17.8,29.4,18.5z M17.6,30.6c-0.7-4,2-7.9,6-8.5C24,22,24.5,22,24.9,22  c3.6,0,6.7,2.6,7.3,6.1c0.3,1.9-0.1,3.9-1.2,5.5c-1.1,1.6-2.8,2.7-4.8,3c-0.4,0.1-0.8,0.1-1.3,0.1C21.3,36.8,18.2,34.2,17.6,30.6z   M30.2,28.4c0-0.1-0.1-0.2-0.1-0.3l-6.5,6.5c0.4,0.1,0.8,0.2,1.2,0.2c0.3,0,0.6,0,0.9-0.1c1.4-0.2,2.7-1,3.5-2.2  C30.1,31.3,30.5,29.9,30.2,28.4z M27.4,24.6l-7.2,7.2c0.5,0.9,1.2,1.7,2,2.2l7.4-7.4C29,25.7,28.3,25,27.4,24.6z M19.6,30.2l6.2-6.2  c-0.3,0-0.6-0.1-0.9-0.1c-0.3,0-0.6,0-0.9,0.1C21.1,24.5,19.1,27.3,19.6,30.2z M38.1,73.4c1,1.6,1.2,3.5,0.8,5.3  c-0.8,3.1-3.6,5.3-6.8,5.3c-0.6,0-1.1-0.1-1.7-0.2c-3.7-0.9-6-4.7-5.1-8.5c0.8-3.1,3.6-5.3,6.8-5.3c0.6,0,1.1,0.1,1.7,0.2  C35.6,70.6,37.1,71.8,38.1,73.4z M36.4,74.4c-0.7-1.1-1.8-1.9-3.1-2.3C32.9,72,32.5,72,32.1,72c-2.3,0-4.3,1.6-4.8,3.8  c-0.7,2.7,1,5.4,3.7,6c0.4,0.1,0.8,0.1,1.2,0.1c2.3,0,4.3-1.6,4.8-3.8C37.3,76.9,37.1,75.5,36.4,74.4z M76.5,66.8l-0.2,0  c-2.8,0.1-5,2.4-4.9,5.2c0.1,2.7,2.3,4.9,5,4.9l0.2,0c2.8-0.1,5-2.4,4.9-5.2C81.5,68.9,79.3,66.8,76.5,66.8z M49.1,66.3  c0.5,1.4,0.5,2.9-0.1,4.2c-0.9,2-2.9,3.3-5.1,3.3c-0.8,0-1.5-0.2-2.2-0.5c-1.4-0.6-2.4-1.7-2.9-3.1c-0.5-1.4-0.5-2.9,0.1-4.2  c0.9-2,2.9-3.3,5.1-3.3c0.8,0,1.5,0.2,2.2,0.5C47.6,63.9,48.6,65,49.1,66.3z M47.3,67.1c-0.3-0.9-1-1.6-1.9-2  c-0.5-0.2-0.9-0.3-1.4-0.3c-1.4,0-2.7,0.8-3.2,2.1c-0.4,0.9-0.4,1.8-0.1,2.7c0.3,0.9,1,1.6,1.9,2c0.5,0.2,0.9,0.3,1.4,0.3  c1.4,0,2.7-0.8,3.2-2.1C47.6,68.9,47.6,68,47.3,67.1z M30.7,47c1.4,0,2.8,0.3,4.1,0.9c2.5,1.1,4.5,3.1,5.5,5.7  c1,2.6,0.9,5.4-0.2,7.9c-1.6,3.7-5.3,6.2-9.4,6.2c-1.4,0-2.8-0.3-4.1-0.9c-5.2-2.3-7.6-8.4-5.3-13.6C22.9,49.4,26.6,47,30.7,47z   M34,49.7C33,49.2,31.9,49,30.7,49c-3.3,0-6.3,1.9-7.6,5c-1.8,4.2,0.1,9.1,4.3,10.9c1.1,0.5,2.2,0.7,3.3,0.7c3.3,0,6.3-1.9,7.6-5  c0.9-2,0.9-4.3,0.1-6.3S36.1,50.5,34,49.7z M47.2,42c-7,0-12.7-5.7-12.7-12.7c0-7,5.7-12.7,12.7-12.7c7,0,12.7,5.7,12.7,12.7  C59.9,36.3,54.2,42,47.2,42z M47.3,40l10.6-10.6c0,0,0-0.1,0-0.1c0-1.1-0.2-2.2-0.5-3.3L43.9,39.5C44.9,39.9,46,40,47.3,40  C47.2,40,47.2,40,47.3,40z M55,22.1L39.9,37.2c0.7,0.7,1.6,1.3,2.5,1.7l14.3-14.3C56.3,23.7,55.7,22.8,55,22.1z M53.9,21.1  c-0.7-0.6-1.4-1-2.2-1.4L37.5,33.8c0.4,0.8,0.8,1.6,1.4,2.2L53.9,21.1z M47.2,18.7c-0.2,0-0.4,0-0.6,0L36.5,28.8c0,0.2,0,0.4,0,0.6  c0,1,0.2,2,0.4,2.9l13.2-13.2C49.2,18.8,48.2,18.7,47.2,18.7z M37,26.2l7.1-7.1C40.7,20.2,38,22.8,37,26.2z M57.5,31.9l-7.9,7.9  C53.6,38.8,56.6,35.7,57.5,31.9z M94.2,50c0,24.4-19.8,44.2-44.2,44.2S5.8,74.4,5.8,50S25.6,5.8,50,5.8S94.2,25.6,94.2,50z M92.2,50  C92.2,26.7,73.3,7.8,50,7.8S7.8,26.7,7.8,50S26.7,92.2,50,92.2S92.2,73.3,92.2,50z"></path></svg>