<svg xmlns="http://www.w3.org/2000/svg" data-name="Layer 1" viewBox="0 0 100 100" x="0px" y="0px"><title>Artboard 9</title>

<path fill="#143F5B" d="M56.33,1.09A37.61,37.61,0,0,0,27.8,11.19a38,38,0,0,0-12,27.71,12.61,12.61,0,0,1-1.1,5.16L9,56.69a6.8,6.8,0,0,0,4.07,9.22l2.65.88V77a10,10,0,0,0,10,10H36l1.94,6.81a7.24,7.24,0,0,0,9,5L82.17,88.65a7.25,7.25,0,0,0,5-9L82.52,63.46A37.89,37.89,0,0,0,56.33,1.09Z"></path>

<path fill="#FFF" d="M75.47,59.81,73.94,61.4l5.7,20L45.21,91.21l-3.41-12H25.72A2.28,2.28,0,0,1,23.44,77V65.21A5.5,5.5,0,0,0,19.66,60l-3.21-1.06L21.67,47.2a20.24,20.24,0,0,0,1.76-8.29A30.22,30.22,0,0,1,55.8,8.76a30.28,30.28,0,0,1,28,27.89A29.94,29.94,0,0,1,75.47,59.81Z"></path>

<path fill="#2c9e76" d="M66.33,22.73H41.26a6.08,6.08,0,0,0-6.07,6.07V47.69a6.08,6.08,0,0,0,6.07,6.07h7.68v3.9A2.38,2.38,0,0,0,53,59.35l5.59-5.59h7.74a6.08,6.08,0,0,0,6.07-6.07V28.8A6.08,6.08,0,0,0,66.33,22.73Z"></path>

<path fill="#fff" d="M45.15,41.24a3,3,0,1,1,3-3A3,3,0,0,1,45.15,41.24Zm8.64,0a3,3,0,1,1,3-3A3,3,0,0,1,53.8,41.24Zm8.64,0a3,3,0,1,1,3-3A3,3,0,0,1,62.44,41.24Z"></path>
</svg>