<svg xmlns="http://www.w3.org/2000/svg" data-name="Layer 1" viewBox="0 0 100 100" x="0px" y="0px"><title>Outlier</title><path d="M91.05,73.13h0a1,1,0,0,0-1.31-.54l-4,1.52a11.08,11.08,0,0,0-2.46-11.28,11,11,0,0,0-12.76-2.24,1,1,0,1,0,.88,1.79,9,9,0,0,1,12.06,12,1,1,0,0,1-.28-.41l-1.46-5.38a1,1,0,1,0-1.9.63L82,76.65a1,1,0,0,0,1.33.61l7.17-2.82A1,1,0,0,0,91.05,73.13Z" fill="#143F5B"/><path d="M52,87H45a1,1,0,0,1-1-1V33a1,1,0,0,1,1-1h7a1,1,0,0,1,1,1V86A1,1,0,0,1,52,87Zm-6-2h5V34H46Z" fill="#2c9e76"/><path d="M74,87H67a1,1,0,0,1-1-1V75a1,1,0,0,1,1-1h7a1,1,0,0,1,1,1V86A1,1,0,0,1,74,87Zm-6-2h5V76H68Z" fill="#2c9e76"/><path d="M84,87H77a1,1,0,0,1-1-1V82a1,1,0,0,1,1-1h7a1,1,0,0,1,1,1v4A1,1,0,0,1,84,87Z" fill="#ecaf42"/><path d="M63,87H56a1,1,0,0,1-1-1V50a1,1,0,0,1,1-1h7a1,1,0,0,1,1,1V86A1,1,0,0,1,63,87Zm-6-2h5V51H57Z" fill="#2c9e76"/><path d="M41,87H34a1,1,0,0,1-1-1V47a1,1,0,0,1,1-1h7a1,1,0,0,1,1,1V86A1,1,0,0,1,41,87Zm-6-2h5V48H35Z" fill="#2c9e76"/><path d="M30,87H23a1,1,0,0,1-1-1V71a1,1,0,0,1,1-1h7a1,1,0,0,1,1,1V86A1,1,0,0,1,30,87Zm-6-2h5V72H24Z" fill="#2c9e76"/><path d="M89.5,90.5H9.5V10a1,1,0,0,1,2,0V88.5h78a1,1,0,0,1,0,2Z" fill="#143F5B"/></svg>