<svg xmlns="http://www.w3.org/2000/svg" xmlns:xlink="http://www.w3.org/1999/xlink" version="1.1" x="0px" y="0px" viewBox="0 0 100 100" enable-background="new 0 0 100 100" xml:space="preserve"><polygon fill="#2c9e76" points="72.036,5.53 79.241,20.129 95.353,22.471 83.693,33.834 86.445,49.88 72.036,42.304 57.625,49.88 60.378,33.834   48.72,22.471 64.831,20.129 "></polygon><g><path fill="#143F5B" d="M25.833,48.704c-11.579,0-20.999-9.42-20.999-20.999s9.42-20.999,20.999-20.999s20.999,9.42,20.999,20.999   S37.412,48.704,25.833,48.704z M25.833,10.706c-9.373,0-16.999,7.626-16.999,16.999s7.626,16.999,16.999,16.999   s16.999-7.626,16.999-16.999S35.206,10.706,25.833,10.706z"></path></g><g><path fill="#143F5B" d="M25.999,95C14.42,95,5,85.58,5,74.002c0-11.579,9.42-21,20.999-21s20.999,9.421,20.999,21   C46.998,85.58,37.578,95,25.999,95z M25.999,57.002c-9.373,0-16.999,7.626-16.999,17C9,83.375,16.626,91,25.999,91   s16.999-7.625,16.999-16.998C42.998,64.628,35.372,57.002,25.999,57.002z"></path></g><g><path fill="#143F5B" d="M71.591,95c-11.579,0-21-9.42-21-20.998c0-11.579,9.421-21,21-21c11.578,0,20.998,9.421,20.998,21   C92.589,85.58,83.169,95,71.591,95z M71.591,57.002c-9.374,0-17,7.626-17,17c0,9.373,7.626,16.998,17,16.998   c9.373,0,16.998-7.625,16.998-16.998C88.589,64.628,80.964,57.002,71.591,57.002z"></path></g></svg>