<svg xmlns="http://www.w3.org/2000/svg" xmlns:xlink="http://www.w3.org/1999/xlink" version="1.1" x="0px" y="0px" viewBox="0 0 64 64" style="enable-background:new 0 0 64 64;" xml:space="preserve"><g><text transform="matrix(1 0 0 1 -280.8999 -213.0002)"><tspan x="0" y="0" style="" font-family="'Montserrat-Regular'" font-size="10px">HOSPI</tspan><tspan x="31.979" y="0" style="" font-family="'Montserrat-Regular'" font-size="10px">T</tspan><tspan x="37.08" y="0" style="" font-family="'Montserrat-Regular'" font-size="10px">AL</tspan></text><text transform="matrix(1 0 0 1 -181.48 -213.0002)"><tspan x="0" y="0" style="" font-family="'Montserrat-Regular'" font-size="10px">DO</tspan><tspan x="15.29" y="0" style="" font-family="'Montserrat-Regular'" font-size="10px">C</tspan><tspan x="22.26" y="0" style="" font-family="'Montserrat-Regular'" font-size="10px">T</tspan><tspan x="27.63" y="0" style="" font-family="'Montserrat-Regular'" font-size="10px">OR</tspan></text><text transform="matrix(1 0 0 1 -174.8198 -117.0002)"><tspan x="0" y="0" style="" font-family="'Montserrat-Regular'" font-size="10px">BONE</tspan><tspan x="-6.995" y="12" style="" font-family="'Montserrat-Regular'" font-size="10px">DENSITY</tspan></text><text transform="matrix(1 0 0 1 -86.575 -213.0002)" style="" font-family="'Montserrat-Regular'" font-size="10px">ELDERLY</text><text transform="matrix(1 0 0 1 13.9653 -213.0002)"><tspan x="0" y="0" style="" font-family="'Montserrat-Regular'" font-size="10px">BL</tspan><tspan x="12.4" y="0" style="" font-family="'Montserrat-Regular'" font-size="10px">O</tspan><tspan x="20.22" y="0" style="" font-family="'Montserrat-Regular'" font-size="10px">OD</tspan><tspan x="-9.16" y="12" style="" font-family="'Montserrat-Regular'" font-size="10px">PRESSURE</tspan></text><text transform="matrix(1 0 0 1 113.375 -213.0002)"><tspan x="0" y="0" style="" font-family="'Montserrat-Regular'" font-size="10px">BO</tspan><tspan x="15.16" y="0" style="" font-family="'Montserrat-Regular'" font-size="10px">D</tspan><tspan x="22.88" y="0" style="" font-family="'Montserrat-Regular'" font-size="10px">Y</tspan><tspan x="-5.94" y="12" style="" font-family="'Montserrat-Regular'" font-size="10px">WEIGHT</tspan></text><text transform="matrix(1 0 0 1 204.6602 -213.0002)" style="" font-family="'Montserrat-Regular'" font-size="10px">HEIGHT</text><text transform="matrix(1 0 0 1 -282.0898 -117.0002)" style="" font-family="'Montserrat-Regular'" font-size="10px">EYE EXAM</text><text transform="matrix(1 0 0 1 -82.0347 -117.0002)"><tspan x="0" y="0" style="" font-family="'Montserrat-Regular'" font-size="10px">BL</tspan><tspan x="12.4" y="0" style="" font-family="'Montserrat-Regular'" font-size="10px">O</tspan><tspan x="20.22" y="0" style="" font-family="'Montserrat-Regular'" font-size="10px">OD</tspan><tspan x="5.855" y="12" style="" font-family="'Montserrat-Regular'" font-size="10px">TEST</tspan></text><text transform="matrix(1 0 0 1 13.9653 -117.0002)"><tspan x="0" y="0" style="" font-family="'Montserrat-Regular'" font-size="10px">BL</tspan><tspan x="12.4" y="0" style="" font-family="'Montserrat-Regular'" font-size="10px">O</tspan><tspan x="20.22" y="0" style="" font-family="'Montserrat-Regular'" font-size="10px">OD</tspan><tspan x="-9.775" y="12" style="" font-family="'Montserrat-Regular'" font-size="10px">GROUPING</tspan></text><text transform="matrix(1 0 0 1 103.0552 -117.0002)"><tspan x="0" y="0" style="" font-family="'Montserrat-Regular'" font-size="10px">PHYSI</tspan><tspan x="30.25" y="0" style="" font-family="'Montserrat-Regular'" font-size="10px">C</tspan><tspan x="37.169" y="0" style="" font-family="'Montserrat-Regular'" font-size="10px">AL</tspan><tspan x="-11.34" y="12" style="" font-family="'Montserrat-Regular'" font-size="10px">EXAMIN</tspan><tspan x="29.709" y="12" style="" font-family="'Montserrat-Regular'" font-size="10px">A</tspan><tspan x="36.399" y="12" style="" font-family="'Montserrat-Regular'" font-size="10px">TION</tspan></text><text transform="matrix(1 0 0 1 196.5151 -117.0002)"><tspan x="0" y="0" style="" font-family="'Montserrat-Regular'" font-size="10px">VI</tspan><tspan x="9.92" y="0" style="" font-family="'Montserrat-Regular'" font-size="10px">T</tspan><tspan x="15.02" y="0" style="" font-family="'Montserrat-Regular'" font-size="10px">AL SIGN</tspan></text><text transform="matrix(1 0 0 1 -283.5747 -21.0002)"><tspan x="0" y="0" style="" font-family="'Montserrat-Regular'" font-size="10px">C</tspan><tspan x="6.82" y="0" style="" font-family="'Montserrat-Regular'" font-size="10px">OMPLETE</tspan><tspan x="-9.885" y="12" style="" font-family="'Montserrat-Regular'" font-size="10px">BL</tspan><tspan x="2.515" y="12" style="" font-family="'Montserrat-Regular'" font-size="10px">O</tspan><tspan x="10.334" y="12" style="" font-family="'Montserrat-Regular'" font-size="10px">OD </tspan><tspan x="28.765" y="12" style="" font-family="'Montserrat-Regular'" font-size="10px">C</tspan><tspan x="35.584" y="12" style="" font-family="'Montserrat-Regular'" font-size="10px">OUNT</tspan></text><text transform="matrix(1 0 0 1 -181.6147 -21.0002)"><tspan x="0" y="0" style="" font-family="'Montserrat-Regular'" font-size="10px">F</tspan><tspan x="5.47" y="0" style="" font-family="'Montserrat-Regular'" font-size="10px">A</tspan><tspan x="12.79" y="0" style="" font-family="'Montserrat-Regular'" font-size="10px">STING</tspan><tspan x="-15.69" y="12" style="" font-family="'Montserrat-Regular'" font-size="10px">BL</tspan><tspan x="-3.29" y="12" style="" font-family="'Montserrat-Regular'" font-size="10px">O</tspan><tspan x="4.53" y="12" style="" font-family="'Montserrat-Regular'" font-size="10px">OD SUGAR</tspan></text><text transform="matrix(1 0 0 1 -80.5947 -21.0002)"><tspan x="0" y="0" style="" font-family="'Montserrat-Regular'" font-size="10px">HBA1C</tspan><tspan x="4.415" y="12" style="" font-family="'Montserrat-Regular'" font-size="10px">TEST</tspan></text><text transform="matrix(1 0 0 1 6.7754 -21.0002)"><tspan x="0" y="0" style="" font-family="'Montserrat-Regular'" font-size="10px">LIPID(</tspan><tspan x="29.049" y="0" style="" font-family="'Montserrat-Regular'" font-size="10px">F</tspan><tspan x="34.52" y="0" style="" font-family="'Montserrat-Regular'" font-size="10px">A</tspan><tspan x="41.209" y="0" style="" font-family="'Montserrat-Regular'" font-size="10px">T)</tspan><tspan x="3.86" y="12" style="" font-family="'Montserrat-Regular'" font-size="10px">PROFILE</tspan></text><text transform="matrix(1 0 0 1 113.4902 -21.0002)" style="" font-family="'Montserrat-Regular'" font-size="10px">GOUT</text><text transform="matrix(1 0 0 1 204.6001 -21.0002)" style="" font-family="'Montserrat-Regular'" font-size="10px">KIDNEY</text><text transform="matrix(1 0 0 1 -270.5249 74.9998)" style="" font-family="'Montserrat-Regular'" font-size="10px">LIVER</text><text transform="matrix(1 0 0 1 -183.085 74.9998)" style="" font-family="'Montserrat-Regular'" font-size="10px">THYROID</text><text transform="matrix(1 0 0 1 -89.6445 74.9998)"><tspan x="0" y="0" style="" font-family="'Montserrat-Regular'" font-size="10px">HE</tspan><tspan x="14.47" y="0" style="" font-family="'Montserrat-Regular'" font-size="10px">P</tspan><tspan x="20.76" y="0" style="" font-family="'Montserrat-Regular'" font-size="10px">A</tspan><tspan x="27.45" y="0" style="" font-family="'Montserrat-Regular'" font-size="10px">TITIS</tspan></text><text transform="matrix(1 0 0 1 10.5103 74.9998)"><tspan x="0" y="0" style="" font-family="'Montserrat-Regular'" font-size="10px">C</tspan><tspan x="6.92" y="0" style="" font-family="'Montserrat-Regular'" font-size="10px">ANCER</tspan><tspan x="-8.455" y="12" style="" font-family="'Montserrat-Regular'" font-size="10px">SCREENING</tspan></text><text transform="matrix(1 0 0 1 111.8154 74.9998)"><tspan x="0" y="0" style="" font-family="'Montserrat-Regular'" font-size="10px">URINE</tspan><tspan x="-20.1" y="12" style="" font-family="'Montserrat-Regular'" font-size="10px">EXAMIN</tspan><tspan x="20.949" y="12" style="" font-family="'Montserrat-Regular'" font-size="10px">A</tspan><tspan x="27.639" y="12" style="" font-family="'Montserrat-Regular'" font-size="10px">TION</tspan></text><text transform="matrix(1 0 0 1 207.5752 74.9998)"><tspan x="0" y="0" style="" font-family="'Montserrat-Regular'" font-size="10px">S</tspan><tspan x="6.22" y="0" style="" font-family="'Montserrat-Regular'" font-size="10px">T</tspan><tspan x="11.59" y="0" style="" font-family="'Montserrat-Regular'" font-size="10px">O</tspan><tspan x="19.41" y="0" style="" font-family="'Montserrat-Regular'" font-size="10px">OL</tspan><tspan x="-19.86" y="12" style="" font-family="'Montserrat-Regular'" font-size="10px">EXAMIN</tspan><tspan x="21.189" y="12" style="" font-family="'Montserrat-Regular'" font-size="10px">A</tspan><tspan x="27.879" y="12" style="" font-family="'Montserrat-Regular'" font-size="10px">TION</tspan></text><text transform="matrix(1 0 0 1 -314.8696 170.9998)"><tspan x="0" y="0" style="" font-family="'Montserrat-Regular'" font-size="10px">ELECTR</tspan><tspan x="38.45" y="0" style="" font-family="'Montserrat-Regular'" font-size="10px">O</tspan><tspan x="46.27" y="0" style="" font-family="'Montserrat-Regular'" font-size="10px">C</tspan><tspan x="53.189" y="0" style="" font-family="'Montserrat-Regular'" font-size="10px">ARDI</tspan><tspan x="78.569" y="0" style="" font-family="'Montserrat-Regular'" font-size="10px">O</tspan><tspan x="86.389" y="0" style="" font-family="'Montserrat-Regular'" font-size="10px">GRAM</tspan></text><text transform="matrix(1 0 0 1 -185.0195 170.9998)"><tspan x="0" y="0" style="" font-family="'Montserrat-Regular'" font-size="10px">EXERCISE</tspan><tspan x="-7.57" y="12" style="" font-family="'Montserrat-Regular'" font-size="10px">STRESS TEST</tspan></text><text transform="matrix(1 0 0 1 -80.7246 170.9998)"><tspan x="0" y="0" style="" font-family="'Montserrat-Regular'" font-size="10px">CHEST</tspan><tspan x="1.18" y="12" style="" font-family="'Montserrat-Regular'" font-size="10px">X-R</tspan><tspan x="19.009" y="12" style="" font-family="'Montserrat-Regular'" font-size="10px">A</tspan><tspan x="25.899" y="12" style="" font-family="'Montserrat-Regular'" font-size="10px">Y</tspan></text><text transform="matrix(1 0 0 1 -3.4746 170.9998)"><tspan x="0" y="0" style="" font-family="'Montserrat-Regular'" font-size="10px">ULTR</tspan><tspan x="26" y="0" style="" font-family="'Montserrat-Regular'" font-size="10px">A</tspan><tspan x="33.32" y="0" style="" font-family="'Montserrat-Regular'" font-size="10px">SOUND</tspan></text><text transform="matrix(1 0 0 1 108.4502 170.9998)"><tspan x="0" y="0" style="" font-family="'Montserrat-Regular'" font-size="10px">DIGI</tspan><tspan x="21.28" y="0" style="" font-family="'Montserrat-Regular'" font-size="10px">T</tspan><tspan x="26.38" y="0" style="" font-family="'Montserrat-Regular'" font-size="10px">AL</tspan><tspan x="-17.6" y="12" style="" font-family="'Montserrat-Regular'" font-size="10px">MAMM</tspan><tspan x="17.53" y="12" style="" font-family="'Montserrat-Regular'" font-size="10px">O</tspan><tspan x="25.35" y="12" style="" font-family="'Montserrat-Regular'" font-size="10px">GRAM</tspan></text><text transform="matrix(1 0 0 1 192.5352 170.9998)"><tspan x="0" y="0" style="" font-family="'Montserrat-Regular'" font-size="10px">P</tspan><tspan x="6.29" y="0" style="" font-family="'Montserrat-Regular'" font-size="10px">AP SMEAR/</tspan><tspan x="-2.64" y="12" style="" font-family="'Montserrat-Regular'" font-size="10px">PELVIC EXAM</tspan></text><text transform="matrix(1 0 0 1 -281.1699 266.9998)"><tspan x="0" y="0" style="" font-family="'Montserrat-Regular'" font-size="10px">DIABETES</tspan><tspan x="-4.775" y="12" style="" font-family="'Montserrat-Regular'" font-size="10px">SCREENING</tspan></text><text transform="matrix(1 0 0 1 -187.5 266.9998)"><tspan x="0" y="0" style="" font-family="'Montserrat-Regular'" font-size="10px">PROS</tspan><tspan x="28.28" y="0" style="" font-family="'Montserrat-Regular'" font-size="10px">TA</tspan><tspan x="40.07" y="0" style="" font-family="'Montserrat-Regular'" font-size="10px">TE </tspan><tspan x="9.705" y="12" style="" font-family="'Montserrat-Regular'" font-size="10px">CHECK</tspan></text><text transform="matrix(1 0 0 1 -85.5596 266.9998)" style="" font-family="'Montserrat-Regular'" font-size="10px">OBESITY</text><text transform="matrix(1 0 0 1 -13.7544 266.9998)"><tspan x="0" y="0" style="" font-family="'Montserrat-Regular'" font-size="10px">C</tspan><tspan x="6.82" y="0" style="" font-family="'Montserrat-Regular'" font-size="10px">OLON &amp; RECTUM</tspan><tspan x="30.7" y="12" style="" font-family="'Montserrat-Regular'" font-size="10px">EXAM</tspan></text><text transform="matrix(1 0 0 1 110.5654 266.9998)" style="" font-family="'Montserrat-Regular'" font-size="10px">HEART</text><text transform="matrix(1 0 0 1 203.9751 266.9998)"><tspan x="0" y="0" style="" font-family="'Montserrat-Regular'" font-size="10px">DEN</tspan><tspan x="22.23" y="0" style="" font-family="'Montserrat-Regular'" font-size="10px">T</tspan><tspan x="27.33" y="0" style="" font-family="'Montserrat-Regular'" font-size="10px">AL</tspan></text></g><path d="M30,36c0.732,0,1.409-0.212,2-0.556C32.591,35.788,33.268,36,34,36c2.206,0,4-1.794,4-4s-1.794-4-4-4  c-0.732,0-1.409,0.212-2,0.556C31.409,28.212,30.732,28,30,28c-2.206,0-4,1.794-4,4S27.794,36,30,36z M36,32c0,1.103-0.897,2-2,2  c-0.179,0-0.35-0.031-0.515-0.076C33.803,33.351,34,32.701,34,32s-0.197-1.351-0.515-1.924C33.65,30.031,33.821,30,34,30  C35.103,30,36,30.897,36,32z M30,30c0.179,0,0.35,0.031,0.515,0.076C30.197,30.649,30,31.299,30,32s0.197,1.351,0.515,1.924  C30.35,33.969,30.179,34,30,34c-1.103,0-2-0.897-2-2S28.897,30,30,30z"/><path d="M50,28c-2.206,0-4,1.794-4,4s1.794,4,4,4s4-1.794,4-4S52.206,28,50,28z M50,34c-1.103,0-2-0.897-2-2s0.897-2,2-2  s2,0.897,2,2S51.103,34,50,34z" fill="#2c9e76"/><path d="M4.515,37.874L13,42.588V52c0,0.363,0.197,0.698,0.515,0.874l9,5C22.665,57.958,22.833,58,23,58s0.335-0.042,0.485-0.126  L32,53.144l8.515,4.73C40.665,57.958,40.833,58,41,58s0.335-0.042,0.485-0.126l9-5C50.803,52.698,51,52.363,51,52v-9.412  l8.485-4.714C59.803,37.698,60,37.363,60,37V27c0-0.363-0.197-0.698-0.515-0.874L51,21.412V12c0-0.363-0.197-0.698-0.515-0.874l-9-5  c-0.301-0.168-0.67-0.168-0.971,0L32,10.856l-8.515-4.73c-0.301-0.168-0.67-0.168-0.971,0l-9,5C13.197,11.302,13,11.637,13,12v9.412  l-8.485,4.714C4.197,26.302,4,26.637,4,27v10C4,37.363,4.197,37.698,4.515,37.874z M23,55.856l-8-4.445v-8.822l7-3.89l1-0.556  l1,0.556l7,3.89v8.822L23,55.856z M32,23.144l1,0.556l7,3.89v8.822l-7,3.89l-1,0.556l-1-0.556l-7-3.89v-8.822l7-3.89L32,23.144z   M49,51.411l-8,4.445l-8-4.445v-8.822l7-3.89l1-0.556l1,0.556l7,3.89V51.411z M58,36.411l-8,4.445l-1-0.556l-7-3.89v-8.822l7-3.89  l1-0.556l8,4.445V36.411z M41,8.144l8,4.445v8.822l-7,3.89l-1,0.556l-1-0.556l-7-3.89v-8.822L41,8.144z M15,12.589l8-4.445l8,4.445  v8.822l-7,3.89l-1,0.556l-1-0.556l-7-3.89V12.589z M6,27.589l8-4.445l1,0.556l7,3.89v8.822l-7,3.89l-1,0.556l-8-4.445V27.589z" fill="#143F5B"/><path d="M14,36c2.206,0,4-1.794,4-4s-1.794-4-4-4s-4,1.794-4,4S11.794,36,14,36z M14,30c1.103,0,2,0.897,2,2s-0.897,2-2,2  s-2-0.897-2-2S12.897,30,14,30z" fill="#2c9e76"/><path d="M23,21c2.206,0,4-1.794,4-4s-1.794-4-4-4s-4,1.794-4,4S20.794,21,23,21z M23,15c1.103,0,2,0.897,2,2s-0.897,2-2,2  s-2-0.897-2-2S21.897,15,23,15z" fill="#2c9e76"/><path d="M41,21c2.206,0,4-1.794,4-4s-1.794-4-4-4s-4,1.794-4,4S38.794,21,41,21z M41,15c1.103,0,2,0.897,2,2s-0.897,2-2,2  s-2-0.897-2-2S39.897,15,41,15z" fill="#2c9e76"/><path d="M23,43c-2.206,0-4,1.794-4,4s1.794,4,4,4s4-1.794,4-4S25.206,43,23,43z M23,49c-1.103,0-2-0.897-2-2s0.897-2,2-2  s2,0.897,2,2S24.103,49,23,49z" fill="#2c9e76"/><path d="M41,43c-2.206,0-4,1.794-4,4s1.794,4,4,4s4-1.794,4-4S43.206,43,41,43z M41,49c-1.103,0-2-0.897-2-2s0.897-2,2-2  s2,0.897,2,2S42.103,49,41,49z" fill="#2c9e76"/></svg>