<svg xmlns="http://www.w3.org/2000/svg" xmlns:xlink="http://www.w3.org/1999/xlink" version="1.1" x="0px" y="0px" viewBox="0 0 100 100" enable-background="new 0 0 100 100" xml:space="preserve"><path fill="#143F5B" d="M93.8,10.6c0,3.1-2.5,5.6-5.6,5.6s-5.6-2.5-5.6-5.6S85,5,88.1,5S93.8,7.5,93.8,10.6z M67.9,16.3c-3.1,0-5.6,2.5-5.6,5.6  s2.5,5.6,5.6,5.6s5.6-2.5,5.6-5.6S71,16.3,67.9,16.3z M15.6,45c-3.1,0-5.6,2.5-5.6,5.6s2.5,5.6,5.6,5.6s5.6-2.5,5.6-5.6  S18.7,45,15.6,45z M26.9,62.5c-3.1,0-5.6,2.5-5.6,5.6s2.5,5.6,5.6,5.6s5.6-2.5,5.6-5.6S30,62.5,26.9,62.5z M38.1,45  c-3.1,0-5.6,2.5-5.6,5.6s2.5,5.6,5.6,5.6s5.6-2.5,5.6-5.6S41.2,45,38.1,45z M10.6,75.5C7.5,75.5,5,78,5,81.1s2.5,5.6,5.6,5.6  s5.6-2.5,5.6-5.6S13.7,75.5,10.6,75.5z M20.6,40c-3.1,0-5.6,2.5-5.6,5.6s2.5,5.6,5.6,5.6s5.6-2.5,5.6-5.6S23.7,40,20.6,40z M26.9,10  c-3.1,0-5.6,2.5-5.6,5.6s2.5,5.6,5.6,5.6s5.6-2.5,5.6-5.6S30,10,26.9,10z M65.6,33.8c-3.1,0-5.6,2.5-5.6,5.6s2.5,5.6,5.6,5.6  c3.1,0,5.6-2.5,5.6-5.6S68.7,33.8,65.6,33.8z M66.9,56.3c-3.1,0-5.6,2.5-5.6,5.6c0,3.1,2.5,5.6,5.6,5.6c3.1,0,5.6-2.5,5.6-5.6  C72.5,58.8,70,56.3,66.9,56.3z M78.1,21.3c-3.1,0-5.6,2.5-5.6,5.6s2.5,5.6,5.6,5.6s5.6-2.5,5.6-5.6S81.2,21.3,78.1,21.3z M95,90H5v5  h90V90z"></path></svg>