<svg xmlns="http://www.w3.org/2000/svg" xmlns:xlink="http://www.w3.org/1999/xlink" version="1.1" x="0px" y="0px" viewBox="0 0 64 64" style="enable-background:new 0 0 64 64;" xml:space="preserve"><path d="M24,23c0,1.654,1.346,3,3,3s3-1.346,3-3s-1.346-3-3-3S24,21.346,24,23z M28,23c0,0.552-0.448,1-1,1s-1-0.448-1-1  s0.448-1,1-1S28,22.448,28,23z" fill="#2c9e76"/><path d="M31,4c-1.654,0-3,1.346-3,3s1.346,3,3,3s3-1.346,3-3S32.654,4,31,4z M31,8c-0.552,0-1-0.448-1-1s0.448-1,1-1s1,0.448,1,1  S31.552,8,31,8z" fill="#2c9e76"/><path d="M42,12c0-1.654-1.346-3-3-3s-3,1.346-3,3s1.346,3,3,3S42,13.654,42,12z M38,12c0-0.552,0.448-1,1-1s1,0.448,1,1  s-0.448,1-1,1S38,12.552,38,12z" fill="#ecaf42"/><path d="M29,17c0,1.654,1.346,3,3,3s3-1.346,3-3s-1.346-3-3-3S29,15.346,29,17z M33,17c0,0.552-0.448,1-1,1s-1-0.448-1-1  s0.448-1,1-1S33,16.448,33,17z" fill="#2c9e76"/><path d="M18,23c1.654,0,3-1.346,3-3s-1.346-3-3-3s-3,1.346-3,3S16.346,23,18,23z M18,19c0.552,0,1,0.448,1,1s-0.448,1-1,1  s-1-0.448-1-1S17.448,19,18,19z" fill="#ecaf42"/><path d="M10,30c1.654,0,3-1.346,3-3s-1.346-3-3-3s-3,1.346-3,3S8.346,30,10,30z M10,26c0.552,0,1,0.448,1,1s-0.448,1-1,1  s-1-0.448-1-1S9.448,26,10,26z" fill="#2c9e76"/><path d="M25,10c-1.654,0-3,1.346-3,3s1.346,3,3,3s3-1.346,3-3S26.654,10,25,10z M25,14c-0.552,0-1-0.448-1-1s0.448-1,1-1  s1,0.448,1,1S25.552,14,25,14z" fill="#ecaf42"/><path d="M11,36c0,1.654,1.346,3,3,3s3-1.346,3-3s-1.346-3-3-3S11,34.346,11,36z M15,36c0,0.552-0.448,1-1,1s-1-0.448-1-1  s0.448-1,1-1S15,35.448,15,36z" fill="#2c9e76"/><path d="M18,31c0,1.654,1.346,3,3,3s3-1.346,3-3s-1.346-3-3-3S18,29.346,18,31z M22,31c0,0.552-0.448,1-1,1s-1-0.448-1-1  s0.448-1,1-1S22,30.448,22,31z" fill="#ecaf42"/><path d="M18,12c1.654,0,3-1.346,3-3s-1.346-3-3-3s-3,1.346-3,3S16.346,12,18,12z M18,8c0.552,0,1,0.448,1,1s-0.448,1-1,1  s-1-0.448-1-1S17.448,8,18,8z" fill="#2c9e76"/><path d="M10,21c1.654,0,3-1.346,3-3s-1.346-3-3-3s-3,1.346-3,3S8.346,21,10,21z M10,17c0.552,0,1,0.448,1,1s-0.448,1-1,1  s-1-0.448-1-1S9.448,17,10,17z" fill="#ecaf42"/><path d="M56.344,19.939c0.366-0.135,0.62-0.469,0.652-0.856l1-12c0.024-0.293-0.081-0.582-0.289-0.79s-0.497-0.32-0.79-0.289l-12,1  c-0.388,0.032-0.722,0.286-0.856,0.652c-0.134,0.365-0.043,0.775,0.232,1.051L47.586,12L11.293,48.293  c-0.391,0.391-0.391,1.023,0,1.414l3,3C14.488,52.902,14.744,53,15,53s0.512-0.098,0.707-0.293L52,16.414l3.293,3.293  C55.568,19.983,55.978,20.075,56.344,19.939z M55.183,16.769l-2.476-2.476c-0.391-0.391-1.023-0.391-1.414,0L15,50.586L13.414,49  l36.293-36.293c0.391-0.391,0.391-1.023,0-1.414l-2.476-2.476l8.674-0.723L55.183,16.769z" fill="#143F5B"/><path d="M10,9c1.654,0,3-1.346,3-3s-1.346-3-3-3S7,4.346,7,6S8.346,9,10,9z M10,5c0.552,0,1,0.448,1,1s-0.448,1-1,1S9,6.552,9,6  S9.448,5,10,5z" fill="#2c9e76"/><path d="M46,56c1.654,0,3-1.346,3-3s-1.346-3-3-3s-3,1.346-3,3S44.346,56,46,56z M46,52c0.552,0,1,0.448,1,1s-0.448,1-1,1  s-1-0.448-1-1S45.448,52,46,52z" fill="#ecaf42"/><path d="M50,40c1.654,0,3-1.346,3-3s-1.346-3-3-3s-3,1.346-3,3S48.346,40,50,40z M50,36c0.552,0,1,0.448,1,1s-0.448,1-1,1  s-1-0.448-1-1S49.448,36,50,36z" fill="#2c9e76"/><path d="M54,47c0-1.654-1.346-3-3-3s-3,1.346-3,3s1.346,3,3,3S54,48.654,54,47z M50,47c0-0.552,0.448-1,1-1s1,0.448,1,1  s-0.448,1-1,1S50,47.552,50,47z" fill="#ecaf42"/><path d="M37,47c-1.654,0-3,1.346-3,3s1.346,3,3,3s3-1.346,3-3S38.654,47,37,47z M37,51c-0.552,0-1-0.448-1-1s0.448-1,1-1  s1,0.448,1,1S37.552,51,37,51z" fill="#2c9e76"/><path d="M41,43c0,1.654,1.346,3,3,3s3-1.346,3-3s-1.346-3-3-3S41,41.346,41,43z M44,42c0.552,0,1,0.448,1,1s-0.448,1-1,1  s-1-0.448-1-1S43.448,42,44,42z" fill="#ecaf42"/><path d="M37,36c-1.654,0-3,1.346-3,3s1.346,3,3,3s3-1.346,3-3S38.654,36,37,36z M37,40c-0.552,0-1-0.448-1-1s0.448-1,1-1  s1,0.448,1,1S37.552,40,37,40z" fill="#2c9e76"/><path d="M26,48c0,1.654,1.346,3,3,3s3-1.346,3-3s-1.346-3-3-3S26,46.346,26,48z M30,48c0,0.552-0.448,1-1,1s-1-0.448-1-1  s0.448-1,1-1S30,47.448,30,48z" fill="#2c9e76"/><path d="M45,28c-1.654,0-3,1.346-3,3s1.346,3,3,3s3-1.346,3-3S46.654,28,45,28z M45,32c-0.552,0-1-0.448-1-1s0.448-1,1-1  s1,0.448,1,1S45.552,32,45,32z" fill="#ecaf42"/><path d="M56,27c0-1.654-1.346-3-3-3s-3,1.346-3,3s1.346,3,3,3S56,28.654,56,27z M53,28c-0.552,0-1-0.448-1-1s0.448-1,1-1  s1,0.448,1,1S53.552,28,53,28z" fill="#2c9e76"/><path d="M4,2H2v59c0,0.553,0.447,1,1,1h59v-2H4V2z" fill="#143F5B"/></svg>