<svg width="24" height="24" viewBox="0 0 24 24" fill="none" xmlns="http://www.w3.org/2000/svg">
<g id="average2" clip-path="url(#clip0)">
<rect width="24" height="24" fill="white"/>
<path id="Vector" d="M17.1429 3H6.85714C6.38384 3 6 3.29854 6 3.66667V4.33333C6 4.70146 6.38384 5 6.85714 5H17.1429C17.6162 5 18 4.70146 18 4.33333V3.66667C18 3.29854 17.6162 3 17.1429 3Z" fill="black"/>
<path id="x" d="M10.2002 7.74316C10.6787 8.25098 11.04 8.75879 11.2842 9.2666C11.46 9.61816 11.748 10.541 12.1484 12.0352L13.4375 10.1016C13.7793 9.63281 14.1943 9.18848 14.6826 8.76855C15.1709 8.33887 15.6006 8.0459 15.9717 7.88965C16.2061 7.79199 16.4648 7.74316 16.748 7.74316C17.168 7.74316 17.5 7.85547 17.7441 8.08008C17.998 8.30469 18.125 8.57812 18.125 8.90039C18.125 9.27148 18.0518 9.52539 17.9053 9.66211C17.6318 9.90625 17.3193 10.0283 16.9678 10.0283C16.7627 10.0283 16.543 9.98438 16.3086 9.89648C15.8496 9.74023 15.542 9.66211 15.3857 9.66211C15.1514 9.66211 14.873 9.79883 14.5508 10.0723C13.9453 10.5801 13.2227 11.5615 12.3828 13.0166L13.584 18.0557C13.7695 18.8271 13.9258 19.291 14.0527 19.4473C14.1797 19.5938 14.3066 19.667 14.4336 19.667C14.6387 19.667 14.8779 19.5547 15.1514 19.3301C15.6885 18.8809 16.1475 18.2949 16.5283 17.5723L17.041 17.8359C16.4258 18.9883 15.6445 19.9453 14.6973 20.707C14.1602 21.1367 13.7061 21.3516 13.335 21.3516C12.7881 21.3516 12.3535 21.0439 12.0312 20.4287C11.8262 20.0479 11.4014 18.4072 10.7568 15.5068C9.2334 18.1533 8.0127 19.8574 7.09473 20.6191C6.49902 21.1074 5.92285 21.3516 5.36621 21.3516C4.97559 21.3516 4.61914 21.21 4.29688 20.9268C4.0625 20.7119 3.94531 20.4238 3.94531 20.0625C3.94531 19.7402 4.05273 19.4717 4.26758 19.2568C4.48242 19.042 4.74609 18.9346 5.05859 18.9346C5.37109 18.9346 5.70312 19.0908 6.05469 19.4033C6.30859 19.6279 6.50391 19.7402 6.64062 19.7402C6.75781 19.7402 6.90918 19.6621 7.09473 19.5059C7.55371 19.1348 8.17871 18.334 8.96973 17.1035C9.76074 15.873 10.2783 14.9844 10.5225 14.4375C9.91699 12.0645 9.58984 10.8096 9.54102 10.6729C9.31641 10.0381 9.02344 9.58887 8.66211 9.3252C8.30078 9.06152 7.76855 8.92969 7.06543 8.92969C6.84082 8.92969 6.58203 8.93945 6.28906 8.95898V8.43164L10.2002 7.74316Z" fill="black"/>
</g>
<defs>
<clipPath id="clip0">
<rect width="24" height="24" fill="white"/>
</clipPath>
</defs>
</svg>
