<svg height='100px' width='100px' xmlns="http://www.w3.org/2000/svg" xmlns:xlink="http://www.w3.org/1999/xlink" version="1.1" x="0px" y="0px" viewBox="0 0 100 100" enable-background="new 0 0 100 100" xml:space="preserve"><path fill="#143F5B" d="M83.605,47.492l-10.902-4.33l-0.229,0.151l3.502,5.759H50.928V24.023l5.758,3.502l0.152-0.229l-4.33-10.902  C51.672,12.597,50.836,8.798,50,5c-0.835,3.798-1.671,7.597-2.507,11.395l-4.33,10.902l0.114,0.229l5.795-3.506v25.053H24.023  l3.502-5.759l-0.229-0.151l-10.902,4.33C12.597,48.328,8.798,49.163,5,50c3.798,0.835,7.597,1.67,11.395,2.507l10.902,4.33  l0.229-0.114l-3.505-5.795h25.052v25.052l-5.795-3.505l-0.114,0.229l4.33,10.901C48.329,87.402,49.165,91.201,50,95  c0.836-3.799,1.672-7.598,2.508-11.396l4.33-10.901l-0.152-0.229l-5.758,3.502V50.928H75.98l-3.506,5.795l0.229,0.114l10.902-4.33  C87.403,51.67,91.201,50.835,95,50C91.201,49.163,87.403,48.328,83.605,47.492z"></path></svg>