<svg xmlns="http://www.w3.org/2000/svg" xmlns:xlink="http://www.w3.org/1999/xlink" version="1.1" x="0px" y="0px" viewBox="0 0 100 100" enable-background="new 0 0 100 100" xml:space="preserve"><g><g><path d="M34.3,81c-17.1,0-31-13.9-31-31s13.9-31,31-31c5.8,0,11.5,1.6,16.4,4.7l1.7,1.1l-1.7,1.1C42.3,31.2,37.3,40.2,37.3,50    s5,18.8,13.3,24.1l1.7,1.1l-1.7,1.1C45.8,79.3,40.1,81,34.3,81z M34.3,21.6C18.6,21.6,5.9,34.3,5.9,50s12.7,28.4,28.4,28.4    c4.7,0,9.2-1.1,13.3-3.3C39.5,69.3,34.8,60,34.8,50s4.8-19.3,12.8-25.1C43.5,22.7,38.9,21.6,34.3,21.6z"></path></g><g><path d="M65.7,81c-5.8,0-11.5-1.6-16.4-4.7l-1.7-1.1l1.7-1.1c8.4-5.2,13.3-14.2,13.3-24.1s-5-18.8-13.3-24.1l-1.7-1.1l1.7-1.1    c4.9-3.1,10.6-4.7,16.4-4.7c17.1,0,31,13.9,31,31S82.8,81,65.7,81z M52.4,75.1c4.1,2.2,8.6,3.3,13.3,3.3    c15.7,0,28.4-12.7,28.4-28.4S81.4,21.6,65.7,21.6c-4.7,0-9.2,1.1-13.3,3.3C60.5,30.7,65.2,40,65.2,50S60.5,69.3,52.4,75.1z"></path></g><g><defs><path id="b" d="M64,50c0-10.6-5.6-19.9-13.9-25.2c-8.4,5.2-14,14.6-14,25.2s5.6,19.9,14,25.2C58.4,69.9,64,60.6,64,50z"></path></defs><clipPath id="a"><use xlink:href="#b" overflow="visible"></use></clipPath><g clip-path="url(#a)"><line fill="none" stroke="#000000" stroke-width="3" stroke-miterlimit="10" x1="39.5" y1="12.4" x2="14.7" y2="37.2"></line><line fill="none" stroke="#000000" stroke-width="3" stroke-miterlimit="10" x1="44.3" y1="17.3" x2="19.1" y2="42.5"></line><line fill="none" stroke="#000000" stroke-width="3" stroke-miterlimit="10" x1="49" y1="22.2" x2="23.5" y2="47.8"></line><line fill="none" stroke="#000000" stroke-width="3" stroke-miterlimit="10" x1="53.7" y1="27.2" x2="27.8" y2="53.1"></line><line fill="none" stroke="#000000" stroke-width="3" stroke-miterlimit="10" x1="58.4" y1="32.1" x2="32.2" y2="58.4"></line><line fill="none" stroke="#000000" stroke-width="3" stroke-miterlimit="10" x1="63.2" y1="37.1" x2="36.6" y2="63.7"></line><line fill="none" stroke="#000000" stroke-width="3" stroke-miterlimit="10" x1="67.9" y1="42" x2="41" y2="68.9"></line><line fill="none" stroke="#000000" stroke-width="3" stroke-miterlimit="10" x1="72.6" y1="47" x2="45.4" y2="74.2"></line><line fill="none" stroke="#000000" stroke-width="3" stroke-miterlimit="10" x1="77.3" y1="51.9" x2="49.8" y2="79.5"></line><line fill="none" stroke="#000000" stroke-width="3" stroke-miterlimit="10" x1="82.1" y1="56.9" x2="54.1" y2="84.8"></line></g></g></g></svg>