<svg width="36" height="36" viewBox="0 0 36 36" fill="none" xmlns="http://www.w3.org/2000/svg">
<line x1="3" y1="5.5" x2="12" y2="5.5" stroke="#17C1C1"/>
<line x1="24" y1="10.5" x2="33" y2="10.5" stroke="#17C1C1"/>
<line x1="14" y1="6.5" x2="23" y2="6.5" stroke="#17C1C1"/>
<line x1="3" y1="31.5" x2="12" y2="31.5" stroke="#17C1C1"/>
<line x1="24" y1="31.5" x2="33" y2="31.5" stroke="#17C1C1"/>
<line x1="14" y1="23.5" x2="23" y2="23.5" stroke="#17C1C1"/>
<line x1="7.5" y1="5" x2="7.5" y2="13" stroke="#17C1C1"/>
<line x1="28.5" y1="10" x2="28.5" y2="18" stroke="#17C1C1"/>
<line x1="18.5" y1="7" x2="18.5" y2="11" stroke="#17C1C1"/>
<line x1="7.5" y1="24" x2="7.5" y2="32" stroke="#17C1C1"/>
<line x1="28.5" y1="24" x2="28.5" y2="32" stroke="#17C1C1"/>
<line x1="18.5" y1="18" x2="18.5" y2="23" stroke="#17C1C1"/>
<rect x="4.5" y="13.5" width="6" height="11" fill="#17C1C1" fill-opacity="0.3" stroke="#17C1C1"/>
<rect x="25.5" y="18.5" width="6" height="6" fill="#17C1C1" fill-opacity="0.3" stroke="#17C1C1"/>
<rect x="15.5" y="11.5" width="6" height="6" fill="#17C1C1" fill-opacity="0.3" stroke="#17C1C1"/>
<line x1="4" y1="16.5" x2="11" y2="16.5" stroke="#17C1C1"/>
<line x1="25" y1="22.5" x2="32" y2="22.5" stroke="#17C1C1"/>
<line x1="15" y1="14.5" x2="22" y2="14.5" stroke="#17C1C1"/>
</svg>
