<svg xmlns:dc="http://purl.org/dc/elements/1.1/" xmlns:cc="http://creativecommons.org/ns#" xmlns:rdf="http://www.w3.org/1999/02/22-rdf-syntax-ns#" xmlns:svg="http://www.w3.org/2000/svg" xmlns="http://www.w3.org/2000/svg" version="1.1" viewBox="0 0 100 100" x="0px" y="0px"><g transform="translate(0,-952.36216)"><path d="m 61.474203,966.81107 a 1.3744241,1.3744241 0 0 0 -1.196581,0.69957 l -16.675971,0.62145 a 1.3744241,1.3744241 0 0 0 -1.025788,-0.46206 1.3744241,1.3744241 0 0 0 -1.277778,0.87111 l -21.756911,10.03342 a 1.3744241,1.3744241 0 0 0 -0.526817,-0.1054 1.3744241,1.3744241 0 0 0 -1.371397,1.31464 l -6.188266,6.62384 -1.23853,1.17243 a 1.3744241,1.3744241 0 0 0 -0.2828707,-0.0297 1.3744241,1.3744241 0 0 0 -1.3744213,1.37449 1.3744241,1.3744241 0 0 0 0.4224613,0.98919 L 5.6815091,1001.7292 A 1.3744241,1.3744241 0 0 0 5,1002.9144 a 1.3744241,1.3744241 0 0 0 1.1214125,1.35 l 4.9510865,12.0238 a 1.3744241,1.3744241 0 0 0 -0.304678,0.8613 1.3744241,1.3744241 0 0 0 1.374421,1.3745 1.3744241,1.3744241 0 0 0 1.089201,-0.5393 l 11.662138,2.6596 a 1.3744241,1.3744241 0 0 0 1.361002,1.1929 1.3744241,1.3744241 0 0 0 1.102629,-0.5563 l 8.456265,2.3488 a 1.3744241,1.3744241 0 0 0 1.240203,0.7846 1.3744241,1.3744241 0 0 0 1.374422,-1.3744 1.3744241,1.3744241 0 0 0 -0.009,-0.139 l 3.774296,-3.3025 a 1.3744241,1.3744241 0 0 0 0.627491,0.1527 1.3744241,1.3744241 0 0 0 1.121413,-0.5812 l 4.551107,1.5443 a 1.3744241,1.3744241 0 0 0 1.32241,1.0002 1.3744241,1.3744241 0 0 0 0.293608,-0.033 l 8.907921,9.2187 a 1.3744241,1.3744241 0 0 0 -0.0225,0.2392 1.3744241,1.3744241 0 0 0 1.374422,1.3744 1.3744241,1.3744241 0 0 0 0.282871,-0.031 l 4.276957,3.7186 a 1.3744241,1.3744241 0 0 0 -0.04365,0.3376 1.3744241,1.3744241 0 0 0 1.374421,1.3744 1.3744241,1.3744241 0 0 0 1.370398,-1.2992 l 3.913887,-0.8443 a 1.3744241,1.3744241 0 0 0 1.096924,0.548 1.3744241,1.3744241 0 0 0 1.374421,-1.3745 1.3744241,1.3744241 0 0 0 -1.374421,-1.3744 1.3744241,1.3744241 0 0 0 -0.498962,0.094 l -2.405248,-5.0787 a 1.3744241,1.3744241 0 0 0 0.228852,-0.7583 1.3744241,1.3744241 0 0 0 -0.03393,-0.2959 l 1.54958,-2.3244 a 1.3744241,1.3744241 0 0 0 0.423136,0.067 1.3744241,1.3744241 0 0 0 1.138531,-0.6051 l 4.956108,0.3699 a 1.3744241,1.3744241 0 0 0 1.268392,0.8489 1.3744241,1.3744241 0 0 0 1.374421,-1.3744 1.3744241,1.3744241 0 0 0 -0.0063,-0.1218 l 2.782071,-4.4128 a 1.3744241,1.3744241 0 0 0 0.807006,-0.4477 l 2.616308,0 a 1.3744241,1.3744241 0 0 0 1.262344,0.8345 1.3744241,1.3744241 0 0 0 1.374421,-1.3744 1.3744241,1.3744241 0 0 0 -0.456689,-1.0211 l 4.75881,-7.1868 A 1.3744241,1.3744241 0 0 0 95,1009.4177 a 1.3744241,1.3744241 0 0 0 -1.03719,-1.3305 l -1.36201,-8.89715 a 1.3744241,1.3744241 0 0 0 0.681167,-1.1852 1.3744241,1.3744241 0 0 0 -1.374422,-1.3744 1.3744241,1.3744241 0 0 0 -0.15435,0.011 l -9.112942,-15.94743 a 1.3744241,1.3744241 0 0 0 0.210726,-0.72819 1.3744241,1.3744241 0 0 0 -1.37443,-1.37439 1.3744241,1.3744241 0 0 0 -0.696602,0.19161 l -17.965154,-10.8909 a 1.3744241,1.3744241 0 0 0 -1.340869,-1.08081 z m -1.325776,1.7361 a 1.3744241,1.3744241 0 0 0 1.159672,1.00135 l 2.070699,9.12999 -19.442598,-9.44985 a 1.3744241,1.3744241 0 0 0 0.009,-0.0783 l 16.203506,-0.60364 z m 2.454578,0.42184 16.747431,10.15311 -13.583508,0.098 a 1.3744241,1.3744241 0 0 0 -1.224768,-0.75097 1.3744241,1.3744241 0 0 0 -0.151669,0.01 l -2.086134,-9.19955 a 1.3744241,1.3744241 0 0 0 0.298648,-0.31041 z m -21.25794,0.6858 a 1.3744241,1.3744241 0 0 0 0.31105,0.40905 l -7.13083,11.0478 a 1.3744241,1.3744241 0 0 0 -0.417089,-0.0657 1.3744241,1.3744241 0 0 0 -1.219063,0.74251 L 20.358584,979.5651 a 1.3744241,1.3744241 0 0 0 -0.05868,-0.20601 l 21.045198,-9.70455 z m 2.117337,0.4896 18.162795,8.82804 -14.576077,1.59993 -3.586718,-10.42797 z m -0.930828,0.46377 3.466928,10.07967 -10.639032,1.16767 a 1.3744241,1.3744241 0 0 0 -0.03726,-0.0774 l 7.209346,-11.16984 z m 20.423755,9.25554 -13.118774,7.91462 a 1.3744241,1.3744241 0 0 0 -0.368101,-0.17109 l -2.075731,-6.0356 15.562606,-1.70793 z m 17.160839,0.28386 a 1.3744241,1.3744241 0 0 0 0.314074,0.70704 l -2.771325,7.25798 -11.8071,-7.85396 a 1.3744241,1.3744241 0 0 0 0.0027,-0.009 l 14.261336,-0.10269 z m -59.943147,0.43182 12.621486,2.23984 a 1.3744241,1.3744241 0 0 0 0.191935,0.39258 l -10.169258,10.48035 a 1.3744241,1.3744241 0 0 0 -0.121473,-0.009 1.3744241,1.3744241 0 0 0 -0.258715,0.0261 c -0.0756,-0.39303 -0.146475,-0.765 -0.249652,-1.28475 -0.299512,-1.50913 -0.698321,-3.47329 -1.097256,-5.42189 -0.521111,-2.54548 -0.951069,-4.62313 -1.249933,-6.06449 a 1.3744241,1.3744241 0 0 0 0.332866,-0.36099 z m 43.051417,0.32553 -6.1245,18.58892 a 1.3744241,1.3744241 0 0 0 -0.384212,0.1581 l -6.649652,-9.77264 a 1.3744241,1.3744241 0 0 0 0.388234,-0.95463 1.3744241,1.3744241 0 0 0 -0.03393,-0.29502 l 12.804015,-7.72473 z m 1.963663,0.1503 12.093652,8.04495 -3.625643,9.49607 a 1.3744241,1.3744241 0 0 0 -0.03321,0 1.3744241,1.3744241 0 0 0 -0.496289,0.093 l -7.960317,-17.61949 a 1.3744241,1.3744241 0 0 0 0.02178,-0.0126 z m -46.657603,0.0729 a 1.3744241,1.3744241 0 0 0 0.312058,0.0774 c 0.301033,1.45243 0.725933,3.50713 1.237522,6.00599 0.398719,1.94761 0.797519,3.91069 1.096248,5.41586 0.08514,0.42912 0.138799,0.71352 0.205363,1.05696 l -10.094774,-4.99672 a 1.3744241,1.3744241 0 0 0 -0.152343,-0.4275 l 1.051959,-1.12573 6.343967,-6.00644 z m 63.269476,0.17253 8.819334,15.43339 -12.080575,-8.03581 2.8116,-7.36374 a 1.3744241,1.3744241 0 0 0 0.126504,0.009 1.3744241,1.3744241 0 0 0 0.323137,-0.0396 z m -17.637328,0.0504 8.175743,18.09499 -13.624782,0.90835 a 1.3744241,1.3744241 0 0 0 -0.580844,-0.70265 l 6.029883,-18.30069 z m -17.820532,0.33552 2.075731,6.03497 a 1.3744241,1.3744241 0 0 0 -0.398981,0.33012 l -12.218816,-5.20813 10.542066,-1.15696 z m -11.476241,1.87948 12.802341,5.45636 -7.168414,3.99277 a 1.3744241,1.3744241 0 0 0 -0.869079,-0.31104 1.3744241,1.3744241 0 0 0 -0.09764,0 l -4.669889,-9.13944 a 1.3744241,1.3744241 0 0 0 0.0027,0 z m -1.032502,0.25263 4.774587,9.34383 a 1.3744241,1.3744241 0 0 0 -0.351658,0.91602 1.3744241,1.3744241 0 0 0 0.289576,0.84322 l -6.688569,10.67154 a 1.3744241,1.3744241 0 0 0 -0.08055,0 1.3744241,1.3744241 0 0 0 -0.527825,0.1067 l -7.519739,-9.73127 a 1.3744241,1.3744241 0 0 0 0.340921,-0.90468 1.3744241,1.3744241 0 0 0 -0.306019,-0.86365 l 10.069258,-10.37766 z m 44.32854,5.86649 12.286937,8.17337 -15.79414,1.0123 3.507203,-9.18567 z m -67.110553,0.036 9.873975,4.88701 -13.7002831,7.22781 a 1.3744241,1.3744241 0 0 0 -0.4382294,-0.233 l 3.1572098,-11.30465 a 1.3744241,1.3744241 0 0 0 1.1073277,-0.57717 z m 37.098709,0.21276 a 1.3744241,1.3744241 0 0 0 0.92982,0.36477 1.3744241,1.3744241 0 0 0 0.02448,0 l 6.974463,10.25109 a 1.3744241,1.3744241 0 0 0 -0.02889,0.2788 1.3744241,1.3744241 0 0 0 0.04158,0.3298 l -4.686332,7.1316 a 1.3744241,1.3744241 0 0 0 -0.338572,0.045 L 40.79132,994.81223 a 1.3744241,1.3744241 0 0 0 0.213742,-0.73252 1.3744241,1.3744241 0 0 0 -0.01107,-0.15867 l 7.156003,-3.98575 z m -8.196209,5.47859 10.2857,13.53617 a 1.3744241,1.3744241 0 0 0 -0.02817,0.046 l -17.108495,-2.3905 a 1.3744241,1.3744241 0 0 0 -0.309709,-0.5634 l 6.645954,-10.6027 a 1.3744241,1.3744241 0 0 0 0.191601,0.0153 1.3744241,1.3744241 0 0 0 0.323137,-0.0405 z m -18.598008,0.13392 -5.012152,10.94535 a 1.3744241,1.3744241 0 0 0 -0.600302,0.3285 l -7.9958855,-3.9501 a 1.3744241,1.3744241 0 0 0 -0.01242,-0.138 L 21.35585,995.54645 Z m 0.692912,0.9626 2.529395,16.96895 -6.664404,-5.0478 a 1.3744241,1.3744241 0 0 0 0.143271,-0.6077 1.3744241,1.3744241 0 0 0 -0.653987,-1.1686 l 4.645725,-10.14485 z m 1.100955,0.3916 7.361348,9.52665 a 1.3744241,1.3744241 0 0 0 -0.10872,0.5363 1.3744241,1.3744241 0 0 0 1.165377,1.3566 l 4.742034,13.5631 a 1.3744241,1.3744241 0 0 0 -0.294949,0.2569 l -10.261877,-7.7723 -2.603213,-17.46725 z m 67.627299,1.97 -2.995479,7.57645 -12.788248,-6.3943 a 1.3744241,1.3744241 0 0 0 0.0036,-0.084 1.3744241,1.3744241 0 0 0 -0.0027,-0.086 l 15.782728,-1.0114 z m 0.837543,0.685 1.326775,8.67185 a 1.3744241,1.3744241 0 0 0 -0.52481,0.5373 l -3.709533,-1.855 2.907568,-7.35415 z m -19.428847,0.93375 -1.826744,11.6728 -11.688652,-10.7574 a 1.3744241,1.3744241 0 0 0 0.0072,-0.014 l 13.508349,-0.9007 z m 0.925455,0.754 a 1.3744241,1.3744241 0 0 0 0.511724,0.1 1.3744241,1.3744241 0 0 0 0.397963,-0.06 l 7.487186,9.8961 -9.744447,1.5549 a 1.3744241,1.3744241 0 0 0 -0.407368,-0.2774 l 1.754942,-11.2132 z m 2.302567,0.1721 11.987281,5.9936 -1.193898,3.02 -3.546119,0.5657 -7.247264,-9.5793 z m -17.49807,0.6952 11.755422,10.8196 a 1.3744241,1.3744241 0 0 0 -0.244953,0.7826 1.3744241,1.3744241 0 0 0 0.0018,0.042 l -9.37064,5.6825 a 1.3744241,1.3744241 0 0 0 -0.58286,-0.3077 l -1.859334,-16.9428 a 1.3744241,1.3744241 0 0 0 0.300997,-0.077 z m -1.328116,0.1695 1.81131,16.5022 -5.833918,-8.3744 a 1.3744241,1.3744241 0 0 0 0.220789,-0.745 1.3744241,1.3744241 0 0 0 -0.408367,-0.976 l 4.210186,-6.4068 z m -49.2014336,1.5617 7.9254246,3.9146 a 1.3744241,1.3744241 0 0 0 -0.0036,0.066 1.3744241,1.3744241 0 0 0 0.3322,0.8932 l -3.577997,7.0614 a 1.3744241,1.3744241 0 0 0 -0.08154,0.01 l -4.83297,-11.7373 a 1.3744241,1.3744241 0 0 0 0.2382487,-0.2063 z m 25.5936136,3.7854 16.94743,2.3683 -6.62717,7.0939 a 1.3744241,1.3744241 0 0 0 -0.478829,-0.088 1.3744241,1.3744241 0 0 0 -0.907338,0.3443 l -8.936442,-9.7149 a 1.3744241,1.3744241 0 0 0 0.0027,0 z m 55.346742,0.2445 3.364256,1.6822 -4.300448,0.6862 0.936192,-2.3684 z m -55.391364,1.2356 8.512298,9.2545 a 1.3744241,1.3744241 0 0 0 -6.84e-4,0.014 1.3744241,1.3744241 0 0 0 0.07452,0.4402 l -3.605177,3.1546 a 1.3744241,1.3744241 0 0 0 -0.580169,-0.2762 l -4.40077,-12.5873 z m -15.813931,0.016 7.674422,5.8124 0.657686,4.4122 a 1.3744241,1.3744241 0 0 0 -0.301996,0.2973 l -11.645694,-2.6559 a 1.3744241,1.3744241 0 0 0 -0.459037,-0.8738 l 3.508535,-6.9251 a 1.3744241,1.3744241 0 0 0 0.127512,0.01 1.3744241,1.3744241 0 0 0 0.438572,-0.074 z m 75.583926,1.313 a 1.3744241,1.3744241 0 0 0 0.0423,0.039 l -4.730631,7.1439 a 1.3744241,1.3744241 0 0 0 -0.303337,0.054 l -2.142168,-2.8314 1.378453,-3.4868 5.755401,-0.9183 z m -42.222938,0.4754 -1.34221,8.2332 a 1.3744241,1.3744241 0 0 0 -0.521786,0.5224 l -4.440038,-1.5066 a 1.3744241,1.3744241 0 0 0 -0.117441,-0.3755 l 6.421475,-6.8735 z m 1.239196,0.089 6.117463,8.7815 -6.685554,0.2476 a 1.3744241,1.3744241 0 0 0 -0.948612,-1.0077 l 1.301953,-7.9878 a 1.3744241,1.3744241 0 0 0 0.21475,-0.033 z m 34.045179,0.5427 -0.923438,2.3357 -1.477103,-1.9525 2.400541,-0.3832 z m -3.553841,0.5673 2.1868,2.8905 -0.901632,2.2811 a 1.3744241,1.3744241 0 0 0 -0.302995,-0.035 1.3744241,1.3744241 0 0 0 -1.043904,0.4812 l -9.131401,-4.1508 9.193132,-1.4667 z m -9.789078,2.3284 9.399845,4.2727 a 1.3744241,1.3744241 0 0 0 0.541244,1.0032 l -2.312629,3.6686 a 1.3744241,1.3744241 0 0 0 -0.784191,-0.2459 1.3744241,1.3744241 0 0 0 -0.21609,0.018 l -6.628179,-8.7163 z m -2.572685,0.2652 a 1.3744241,1.3744241 0 0 0 0.570107,0.3285 l 0.702983,7.7365 a 1.3744241,1.3744241 0 0 0 -0.593597,1.1291 1.3744241,1.3744241 0 0 0 0.15805,0.6378 l -1.402943,2.1043 a 1.3744241,1.3744241 0 0 0 -0.693929,-0.1896 1.3744241,1.3744241 0 0 0 -0.774452,0.2407 l -7.383506,-5.7631 a 1.3744241,1.3744241 0 0 0 0.08325,-0.4662 1.3744241,1.3744241 0 0 0 -0.0036,-0.096 l 9.33743,-5.6617 z m 1.631462,0.2003 6.683205,8.7891 a 1.3744241,1.3744241 0 0 0 -0.173143,0.3098 l -4.736327,-0.3537 a 1.3744241,1.3744241 0 0 0 -1.117057,-1.1043 l -0.692921,-7.6204 a 1.3744241,1.3744241 0 0 0 0.03627,-0.021 z m -45.512367,0.9211 8.339498,6.3161 -6.694275,-1.8593 a 1.3744241,1.3744241 0 0 0 -1.156314,-1.1775 l -0.488909,-3.2793 z m 59.157615,0.1378 1.779441,2.3517 a 1.3744241,1.3744241 0 0 0 -0.08559,0.1838 l -2.258611,0 a 1.3744241,1.3744241 0 0 0 -0.200323,-0.6006 l 0.765056,-1.9349 z m -27.312987,4.8511 a 1.3744241,1.3744241 0 0 0 1.135182,1.0071 l 0.526484,8.0687 -8.507942,-8.8043 a 1.3744241,1.3744241 0 0 0 0.01143,-0.019 l 6.834873,-0.253 z m 2.172372,1.0731 7.257668,5.6646 a 1.3744241,1.3744241 0 0 0 -0.02754,0.2732 1.3744241,1.3744241 0 0 0 0.0036,0.098 l -5.828886,2.2985 a 1.3744241,1.3744241 0 0 0 -0.890553,-0.4513 l -0.514073,-7.8832 z m 7.691541,6.9635 a 1.3744241,1.3744241 0 0 0 0.161731,0.1239 l -0.941556,2.5109 a 1.3744241,1.3744241 0 0 0 -1.019748,0.5725 l -4.146088,-0.754 a 1.3744241,1.3744241 0 0 0 0.0081,-0.1121 l 5.937264,-2.3412 z m 1.194898,0.3178 2.149216,4.537 -2.65959,-0.9828 a 1.3744241,1.3744241 0 0 0 -0.48286,-0.9191 l 0.98787,-2.6338 a 1.3744241,1.3744241 0 0 0 0.0054,0 z m -6.708702,3.2619 3.473642,0.6315 a 1.3744241,1.3744241 0 0 0 0.536546,0.8942 l -0.158716,1.2295 a 1.3744241,1.3744241 0 0 0 -0.47413,0.1815 l -3.377342,-2.9368 z m 5.904388,1.2828 2.991789,1.1057 -3.769599,0.8131 a 1.3744241,1.3744241 0 0 0 -0.26308,-0.2333 l 0.152344,-1.1819 a 1.3744241,1.3744241 0 0 0 0.888546,-0.5036 z" style="opacity:1;fill:#000000;fill-opacity:1;stroke:none;stroke-width:10;stroke-linecap:round;stroke-linejoin:round;stroke-miterlimit:4;stroke-dasharray:none;stroke-dashoffset:0;stroke-opacity:1"></path></g></svg>