<svg version="1.1" id="Capa_1" xmlns="http://www.w3.org/2000/svg" xmlns:xlink="http://www.w3.org/1999/xlink" x="0px" y="0px"
	 viewBox="0 0 303.996 303.996" style="enable-background:new 0 0 303.996 303.996;" xml:space="preserve">
<path d="M298.066,5.929c-7.907-7.906-20.772-7.905-28.68,0.002l-80.793,80.794L140.567,38.7c-12.164-12.165-31.888-12.165-44.053,0
	L61.927,73.287l4.312,4.312L6.449,115.883c-3.569,2.286-5.91,6.066-6.367,10.279c-0.457,4.214,1.021,8.408,4.018,11.405
	l162.33,162.33c2.639,2.639,6.204,4.099,9.895,4.099c0.501,0,1.005-0.027,1.509-0.081c4.213-0.456,7.993-2.797,10.278-6.367
	l38.284-59.791l4.312,4.312l34.587-34.587c12.165-12.165,12.165-31.889-0.001-44.055l-48.023-48.024l80.794-80.794
	C305.972,26.701,305.972,13.837,298.066,5.929z M173.921,267.802l-27.801-27.801l27.292-40.69l-40.69,27.292l-23.399-23.398
	l17.376-25.906l-25.906,17.376l-26.541-26.541l21.084-31.435l-31.434,21.084l-27.707-27.707l50.309-32.213l119.631,119.632
	L173.921,267.802z"/>
</svg>