<svg xmlns="http://www.w3.org/2000/svg" data-name="Layer 1" viewBox="0 0 100 100" x="0px" y="0px"><title>41 all</title>

<path d="M80.25,36.27h-3a27.24,27.24,0,0,0-54.49,0h-3a2,2,0,0,0-2,2V48.73a2,2,0,0,0,2,2h2.3l9.37,37a4,4,0,0,0,3.88,3H64.69a4,4,0,0,0,3.88-3l9.38-37h2.3a2,2,0,0,0,2-2V38.27A2,2,0,0,0,80.25,36.27Z" fill="#143F5B"/>

<path d="M50,13.27a23.27,23.27,0,0,1,23.24,23H26.76A23.27,23.27,0,0,1,50,13.27Z" fill="#2c9e76"/>

<path d="M64.69,86.73H35.31l-9.13-36H73.82Zm13.56-40H21.75V40.27h56.5Z" fill="#2c9e76"/>

</svg>