<svg width="36" height="36" viewBox="0 0 36 36" fill="none" xmlns="http://www.w3.org/2000/svg">
<rect y="11" width="36" height="14" rx="2" fill="#40A0FF"/>
<path d="M5.67543 21H8.03054C9.36293 21 10.0163 20.321 10.0163 19.4148C10.0163 18.5341 9.39134 18.017 8.77202 17.9858V17.929C9.3402 17.7955 9.78906 17.3977 9.78906 16.6903C9.78906 15.8239 9.16406 15.1818 7.9027 15.1818H5.67543V21ZM6.7294 20.1193V18.4148H7.89134C8.5419 18.4148 8.94531 18.8125 8.94531 19.3324C8.94531 19.7955 8.62713 20.1193 7.86293 20.1193H6.7294ZM6.7294 17.6562V16.0511H7.79474C8.41406 16.0511 8.73509 16.3778 8.73509 16.8267C8.73509 17.3381 8.32031 17.6562 7.77202 17.6562H6.7294ZM13.669 19.1648C13.669 19.8295 13.1946 20.1591 12.7401 20.1591C12.2457 20.1591 11.9162 19.8097 11.9162 19.2557V16.6364H10.8878V19.4148C10.8878 20.4631 11.4844 21.0568 12.3423 21.0568C12.9957 21.0568 13.456 20.7131 13.6548 20.2244H13.7003V21H14.6974V16.6364H13.669V19.1648ZM17.9339 16.6364H17.0732V15.5909H16.0447V16.6364H15.4254V17.4318H16.0447V19.858C16.0391 20.679 16.6357 21.0824 17.4084 21.0597C17.701 21.0511 17.9027 20.9943 18.0135 20.9574L17.8402 20.1534C17.7834 20.1676 17.6669 20.1932 17.5391 20.1932C17.2805 20.1932 17.0732 20.1023 17.0732 19.6875V17.4318H17.9339V16.6364ZM20.973 16.6364H20.1122V15.5909H19.0838V16.6364H18.4645V17.4318H19.0838V19.858C19.0781 20.679 19.6747 21.0824 20.4474 21.0597C20.7401 21.0511 20.9418 20.9943 21.0526 20.9574L20.8793 20.1534C20.8224 20.1676 20.706 20.1932 20.5781 20.1932C20.3196 20.1932 20.1122 20.1023 20.1122 19.6875V17.4318H20.973V16.6364ZM23.6896 21.0852C24.968 21.0852 25.7805 20.1847 25.7805 18.8352C25.7805 17.483 24.968 16.5795 23.6896 16.5795C22.4112 16.5795 21.5987 17.483 21.5987 18.8352C21.5987 20.1847 22.4112 21.0852 23.6896 21.0852ZM23.6953 20.2614C22.9879 20.2614 22.6413 19.6307 22.6413 18.8324C22.6413 18.0341 22.9879 17.3949 23.6953 17.3949C24.3913 17.3949 24.7379 18.0341 24.7379 18.8324C24.7379 19.6307 24.3913 20.2614 23.6953 20.2614ZM27.6818 18.4432C27.6818 17.8125 28.0625 17.4489 28.6051 17.4489C29.1364 17.4489 29.4545 17.7983 29.4545 18.3807V21H30.483V18.2216C30.4858 17.1761 29.8892 16.5795 28.9886 16.5795C28.3352 16.5795 27.8864 16.892 27.6875 17.3778H27.6364V16.6364H26.6534V21H27.6818V18.4432Z" fill="white"/>
</svg>
