<svg height='100px' width='100px'  fill="#000000" xmlns="http://www.w3.org/2000/svg" data-name="Layer 1" viewBox="0 0 100 100" x="0px" y="0px"><title>iconen_UI_UX-111</title><polygon points="29.3 30.1 37.9 30.1 37.9 21.4 29.3 30.1" style="" fill="none"></polygon><path d="M43.9,33.1a3,3,0,0,1-3,3H25V82.8H75V17.2H43.9ZM70.2,71a3,3,0,0,1-3,3H33.9a2.9,2.9,0,0,1-3-3V47.4a3,3,0,0,1,6,0V68H67.2A3.1,3.1,0,0,1,70.2,71ZM49.9,49.6a3.2,3.2,0,0,1,1.9-1.5,3.1,3.1,0,0,1,2.3.3L59,51.3l2.7-4.2a2.9,2.9,0,0,1,4.1-.9,3,3,0,0,1,1,4.1L62.5,57a3.1,3.1,0,0,1-4.1,1l-4.6-2.8L50,62.5a2.9,2.9,0,0,1-2.7,1.6H42.9a3,3,0,0,1,0-6h2.6Z" style="" fill="none"></path><path d="M22,88.8H78a3,3,0,0,0,3-3V14.2a3,3,0,0,0-3-3H39.8l-.3.2h-.3l-.4.4L19.9,30.9l-.4.5c0,.1-.1.1-.1.2l-.2.3v.3a.4.4,0,0,0-.1.3,1.3,1.3,0,0,0-.1.6h0V85.8A3,3,0,0,0,22,88.8Zm53-6H25V36.1H40.9a3,3,0,0,0,3-3V17.2H75ZM29.3,30.1l8.6-8.7v8.7Z"></path><path d="M36.9,68V47.4a3,3,0,0,0-6,0V71a2.9,2.9,0,0,0,3,3H67.2a3,3,0,0,0,3-3,3.1,3.1,0,0,0-3-3Z"></path><path d="M39.9,61.1a2.9,2.9,0,0,0,3,3h4.4A2.9,2.9,0,0,0,50,62.5l3.8-7.3L58.4,58a3.1,3.1,0,0,0,4.1-1l4.3-6.7a3,3,0,0,0-1-4.1,2.9,2.9,0,0,0-4.1.9L59,51.3l-4.9-2.9a3.1,3.1,0,0,0-2.3-.3,3.2,3.2,0,0,0-1.9,1.5l-4.4,8.5H42.9A2.9,2.9,0,0,0,39.9,61.1Z"></path></svg>