<svg xmlns="http://www.w3.org/2000/svg" xmlns:xlink="http://www.w3.org/1999/xlink" width="100" height="100" viewBox="0 0 100 100"><g><g transform="translate(50 50) scale(0.69 0.69) rotate(0) translate(-50 -50)" style="fill:#1A1A1A"><svg xmlns="http://www.w3.org/2000/svg" xmlns:xlink="http://www.w3.org/1999/xlink" fill="#1A1A1A" version="1.2" baseProfile="tiny" x="0px" y="0px" viewBox="0 0 100 100" xml:space="preserve"><path d="M60,37.5H40c-1.381,0-2.5,1.119-2.5,2.5v20c0,1.381,1.119,2.5,2.5,2.5h20c1.381,0,2.5-1.119,2.5-2.5V40   C62.5,38.619,61.381,37.5,60,37.5z M57.5,57.5h-15v-15h15V57.5z"/><path d="M60,7.5H40c-1.381,0-2.5,1.119-2.5,2.5v20c0,1.381,1.119,2.5,2.5,2.5h20c1.381,0,2.5-1.119,2.5-2.5V10   C62.5,8.619,61.381,7.5,60,7.5z M57.5,27.5h-15v-15h15V27.5z"/><path d="M60,67.5H40c-1.381,0-2.5,1.119-2.5,2.5v20c0,1.381,1.119,2.5,2.5,2.5h20c1.381,0,2.5-1.119,2.5-2.5V70   C62.5,68.619,61.381,67.5,60,67.5z M57.5,87.5h-15v-15h15V87.5z"/><path d="M30,67.5H10c-1.381,0-2.5,1.119-2.5,2.5v20c0,1.381,1.119,2.5,2.5,2.5h20c1.381,0,2.5-1.119,2.5-2.5V70   C32.5,68.619,31.381,67.5,30,67.5z M27.5,87.5h-15v-15h15V87.5z"/><path d="M30,37.5H10c-1.381,0-2.5,1.119-2.5,2.5v20c0,1.381,1.119,2.5,2.5,2.5h20c1.381,0,2.5-1.119,2.5-2.5V40   C32.5,38.619,31.381,37.5,30,37.5z M27.5,57.5h-15v-15h15V57.5z"/><path d="M30,7.5H10c-1.381,0-2.5,1.119-2.5,2.5v20c0,1.381,1.119,2.5,2.5,2.5h20c1.381,0,2.5-1.119,2.5-2.5V10   C32.5,8.619,31.381,7.5,30,7.5z M27.5,27.5h-15v-15h15V27.5z"/><path d="M90,7.5H70c-1.381,0-2.5,1.119-2.5,2.5v20c0,1.381,1.119,2.5,2.5,2.5h20c1.381,0,2.5-1.119,2.5-2.5V10   C92.5,8.619,91.381,7.5,90,7.5z M87.5,27.5h-15v-15h15V27.5z"/><path d="M90,37.5H70c-1.381,0-2.5,1.119-2.5,2.5v20c0,1.381,1.119,2.5,2.5,2.5h20c1.381,0,2.5-1.119,2.5-2.5V40   C92.5,38.619,91.381,37.5,90,37.5z M87.5,57.5h-15v-15h15V57.5z"/><path d="M90,67.5H70c-1.381,0-2.5,1.119-2.5,2.5v20c0,1.381,1.119,2.5,2.5,2.5h20c1.381,0,2.5-1.119,2.5-2.5V70   C92.5,68.619,91.381,67.5,90,67.5z M87.5,87.5h-15v-15h15V87.5z"/></svg></g></g></svg>