<svg xmlns:dc="http://purl.org/dc/elements/1.1/" xmlns:cc="http://creativecommons.org/ns#" xmlns:rdf="http://www.w3.org/1999/02/22-rdf-syntax-ns#" xmlns:svg="http://www.w3.org/2000/svg" xmlns="http://www.w3.org/2000/svg" xmlns:sodipodi="http://sodipodi.sourceforge.net/DTD/sodipodi-0.dtd" xmlns:inkscape="http://www.inkscape.org/namespaces/inkscape" version="1.1" x="0px" y="0px" viewBox="0 0 100 100"><g transform="translate(0,-952.36218)"><path style="text-indent:0;text-transform:none;direction:ltr;block-progression:tb;baseline-shift:baseline;color:#000000;enable-background:accumulate;" d="m 50,961.36217 c -22.60806,0 -41,18.39194 -41,41.00003 0,22.608 18.39194,41 41,41 22.60807,0 41,-18.392 41,-41 0,-22.60809 -18.39194,-41.00003 -41,-41.00003 z m 0,6 c 19.36538,0 35,15.63462 35,35.00003 0,19.3654 -15.63461,35 -35,35 -19.36538,0 -35,-15.6346 -35,-35 0,-19.36541 15.63462,-35.00003 35,-35.00003 z m 0,5 c -1.6568,0 -3,1.3432 -3,3 l 0,27.00003 c 0,0.8284 0.3321,1.5821 0.875,2.125 l 17.6875,17.6875 c 1.17153,1.1715 3.07838,1.1716 4.25,0 1.17152,-1.1716 1.17153,-3.0785 0,-4.25 L 53,1001.1122 53,975.36217 c 0,-1.6568 -1.3431,-3 -3,-3 z" fill="#143F5B" fill-opacity="1" stroke="none" marker="none" visibility="visible" display="inline" overflow="visible"></path></g></svg>