<?xml version="1.0" encoding="utf-8"?>
<!-- Generator: Adobe Illustrator 19.2.1, SVG Export Plug-In . SVG Version: 6.00 Build 0)  -->
<svg version="1.1" id="Layer_1" xmlns="http://www.w3.org/2000/svg" xmlns:xlink="http://www.w3.org/1999/xlink" x="0px" y="0px"
	 viewBox="0 0 558.4 613.5" style="enable-background:new 0 0 558.4 613.5;" xml:space="preserve">
<style type="text/css">
	.st0{fill:none;stroke:#000000;stroke-width:7;stroke-miterlimit:10;}
	.st1{fill:#143F5B;}
	.st2{fill:#6AA0C4;}
	.st3{fill:#1D90EF;}
</style>
<path class="st0" d="M149.5,259.1c-18,8.7-44.4,24-70,50.2c-29.5,30.1-45,61.3-53,80.9"/>
<line class="st0" x1="149.5" y1="390.2" x2="26.5" y2="390.2"/>
<path class="st0" d="M149.5,521.3c-14.5-4.1-32.6-11.3-51-24c-50.7-35.2-67.1-88.2-72-107.1"/>
<ellipse cx="26.5" cy="390.2" rx="14.7" ry="12"/>
<path class="st0" d="M494.7,171.2c-8.7-18-24-44.4-50.2-70c-30.1-29.5-61.3-45-80.9-53"/>
<line class="st0" x1="361.6" y1="172.2" x2="361.6" y2="49.2"/>
<path class="st0" d="M228.5,172.2c4.1-14.5,11.3-32.6,24-51c35.2-50.7,88.2-67.1,107.1-72"/>
<ellipse cx="149.5" cy="259.1" rx="14.7" ry="12"/>
<ellipse cx="149.5" cy="390.2" rx="14.7" ry="12"/>
<ellipse cx="149.5" cy="521.3" rx="14.7" ry="12"/>
<ellipse cx="361.6" cy="172.2" rx="12" ry="14.7"/>
<ellipse cx="228.5" cy="171.2" rx="12" ry="14.7"/>
<ellipse cx="492.7" cy="171.2" rx="12" ry="14.7"/>
<ellipse cx="361.6" cy="49.2" rx="12" ry="14.7"/>
<rect x="177.9" y="202.1" class="st1" width="110.7" height="110.7"/>
<rect x="302.7" y="202.1" class="st2" width="110.7" height="110.7"/>
<rect x="177.9" y="327.6" class="st3" width="110.7" height="110.7"/>
<rect x="302.7" y="327.6" class="st1" width="110.7" height="110.7"/>
<rect x="302.7" y="453.1" class="st3" width="110.7" height="110.7"/>
<rect x="177.9" y="453.1" class="st2" width="110.7" height="110.7"/>
<rect x="427.5" y="327.6" class="st1" width="110.7" height="110.7"/>
<rect x="428.3" y="202.1" class="st3" width="110.7" height="110.7"/>
<rect x="428.3" y="453.1" class="st2" width="110.7" height="110.7"/>
</svg>
