<svg xmlns="http://www.w3.org/2000/svg" xmlns:xlink="http://www.w3.org/1999/xlink" version="1.1" x="0px" y="0px" viewBox="0 0 52 52" style="enable-background:new 0 0 52 52;" xml:space="preserve"><g><path d="M24.3652954,8.9342041c7.5004883-1.8603516,14.4609375,1.3574219,17.3149414,8.0078125l1.1106567,2.586853   l-4.6282349-1.2763062c-0.5366211-0.1455078-1.0834961,0.1660156-1.2299805,0.6982422   c-0.1469727,0.5322266,0.1655273,1.0830078,0.6977539,1.2294922l6.6342773,1.8300781   c0.0888672,0.0244141,0.1782227,0.0361328,0.2666016,0.0361328c0.1231079,0,0.2406006-0.0296631,0.3530273-0.0726318   c0.0134888-0.0050659,0.0276489-0.0027466,0.0410156-0.0084229c0.0206909-0.0089111,0.0335693-0.0267944,0.0533447-0.0368652   c0.0791626-0.0402222,0.1507568-0.0898438,0.217041-0.1499634c0.0261841-0.0238647,0.0534058-0.0444946,0.0766602-0.0706787   c0.0678711-0.0759888,0.1241455-0.1623535,0.1671753-0.2595825c0.0057373-0.0129395,0.0157471-0.0232544,0.0209351-0.036438   c0.0007324-0.0018921,0.0021973-0.0031738,0.0029297-0.0050659l2.7714844-7.1689453   c0.1992188-0.5146484-0.0571289-1.09375-0.5722656-1.2929688c-0.5117188-0.1992188-1.0932617,0.0576172-1.2929688,0.5722656   l-1.8873901,4.8813477l-0.9641724-2.2456055C40.3145142,8.6881104,32.241272,4.9215088,23.8838501,6.9927979   c-0.5361328,0.1328125-0.862793,0.6757813-0.7299805,1.2109375C23.2866821,8.7408447,23.828186,9.0621338,24.3652954,8.9342041z"></path><path d="M29.6734009,40.3843994c-0.0952148-0.5439453-0.605957-0.9042969-1.1572266-0.8134766   c-7.0947266,1.2421875-13.4140625-2.0039063-16.1015625-8.2636719l-1.1104126-2.5869141l4.628479,1.2763672   c0.5341797,0.1455078,1.0834961-0.1660156,1.2299805-0.6982422c0.1469727-0.5322266-0.1655273-1.0830078-0.6977539-1.2294922   l-6.6342773-1.8300781c-0.0479736-0.0131226-0.0952759-0.0057983-0.1433105-0.0117188   c-0.05896-0.0075073-0.1152344-0.0176392-0.1754761-0.0144043C9.432373,26.217041,9.3588257,26.237793,9.2838135,26.2601318   c-0.0378418,0.0111084-0.0765991,0.0078125-0.1138306,0.0236816c-0.0095215,0.0040894-0.0151978,0.0126343-0.0245361,0.0169678   c-0.0831299,0.0385132-0.1543579,0.0950317-0.2242432,0.1549683c-0.0266113,0.0230103-0.0602417,0.0380249-0.0841064,0.0634766   c-0.0561523,0.0596313-0.0940552,0.135498-0.1347656,0.2093506c-0.020752,0.0377808-0.0519409,0.0692749-0.067627,0.109314   c-0.0006714,0.001709-0.0021362,0.0028076-0.0028076,0.0045166l-2.7714844,7.1689453   c-0.1992188,0.5146484,0.0571289,1.09375,0.5722656,1.2929688c0.1181641,0.0458984,0.2402344,0.0673828,0.3603516,0.0673828   c0.4008789,0,0.7792969-0.2431641,0.9326172-0.6396484l1.8873291-4.8810425l0.9637451,2.2453003   c2.6054688,6.0693359,8.4326172,9.7275391,15.0688477,9.7275391c1.0541992,0,2.1298828-0.0927734,3.215332-0.2822266   C29.4048462,41.4459229,29.7686157,40.9283447,29.6734009,40.3843994z"></path><path d="M50.4899902,49.289978c-0.0751953-4.1027222-2.4008789-7.6654053-5.7911377-9.5097656   c-1.3199463,1.5740356-3.1569214,2.6598511-5.2588501,2.6598511c-1.2148438,0-2.3837891-0.3564453-3.4741211-1.0595703   c-0.6535034-0.4035645-1.2661133-0.9505615-1.8052979-1.6032715c-3.4467773,1.875-5.7905884,5.52948-5.7905884,9.7227783   c0,0.5599976,0.4500122,1,1,1h20.1199951c0.0100098,0,0.0200195,0,0.0200195,0c0.5599976,0,1-0.4400024,1-1   C50.5100098,49.4299927,50.5100098,49.3599854,50.4899902,49.289978z"></path><path d="M39.4400024,28.6599731c-2.9899902,0-5.4299927,2.4299927-5.4299927,5.4199829c0,1.4299927,0.5700073,3,1.5100098,4.210022   c0.0200195,0.0200195,0.039978,0.039978,0.0599976,0.0700073c0.4199829,0.539978,0.9199829,1,1.4699707,1.3399658   c0.7600098,0.4899902,1.5600586,0.7399902,2.3900146,0.7399902c3.0400391,0,5.4100342-3.4199829,5.4100342-6.3599854   C44.8500366,31.0899658,42.4200439,28.6599731,39.4400024,28.6599731z"></path><path d="M22.6400146,23.3499756c0.5499878,0,1-0.4500122,1-1c0-0.0700073-0.0100098-0.1400146-0.0200195-0.210022   c-0.0820313-4.1031494-2.4057007-7.6661987-5.7943115-9.510376c-0.5418701,0.6508179-1.1777344,1.2140503-1.8549194,1.6327515   c-1.0336914,0.6650391-2.2236328,1.0273438-3.4106445,1.0273438c-2.1082153,0-3.9506836-1.0861816-5.274353-2.6608887   c-3.4482422,1.8754272-5.7957764,5.5289917-5.7957764,9.7211914c0,0.5499878,0.4500122,1,1,1h20.1300049   C22.6199951,23.3499756,22.6300049,23.3499756,22.6400146,23.3499756z"></path><path d="M12.5599976,13.289978c0.8099976,0,1.6300049-0.2600098,2.3600464-0.7299805   c0.5499878-0.3400269,1.0599976-0.8099976,1.4699707-1.3300171c0.0300293-0.0300293,0.0599976-0.0599976,0.0900269-0.1000366   c0.9400024-1.2199707,1.5-2.789978,1.5-4.1999512C17.9800415,3.9399414,15.5499878,1.5,12.5599976,1.5   S7.1300049,3.9399414,7.1300049,6.9299927C7.1300049,9.8699951,9.5,13.289978,12.5599976,13.289978z"></path></g></svg>