<svg xmlns="http://www.w3.org/2000/svg" xmlns:xlink="http://www.w3.org/1999/xlink" viewBox="0 0 16 18" version="1.1" x="0px" y="0px"><title>Combined Shape</title><desc>Created with Sketch.</desc><g stroke="none" stroke-width="1"><g transform="translate(-140.000000, -107.000000)"><g transform="translate(136.000000, 104.000000)">

<path fill="#143F5B" d="M15.3486892,7.0258893 L9.62250093,3.71987298 L4.62250093,12.380127 L11.3774991,16.280127 L15.4864299,9.16324998 L17.9617126,8.5 L15.3636364,7 L15.3486892,7.0258893 Z"></path>

<path fill="#143F5B" d="M4,19.5 C4,18.6715729 4.66712976,18 5.50524116,18 L18.4947588,18 C19.3260806,18 20,18.6657972 20,19.5 C20,20.3284271 19.3328702,21 18.4947588,21 L5.50524116,21 C4.67391942,21 4,20.3342028 4,19.5 Z"></path>

<path fill="#2c9e76" d="M17,16 C18.1045695,16 19,15.0443852 19,14 C19,12.6867641 17,10 17,10 C17,10 15,12.6867641 15,14 C15,15.0443852 15.8954305,16 17,16 Z"></path>

<path fill="#143F5B" d="M6.00719851,4.78176045 L8.25886456,6.08176045 L7.34977365,7.65635209 L5.0981076,6.35635209 L6.00719851,4.78176045 Z"></path>

<path fill="#2c9e76" d="M10.2145207,6.16113129 L6.96452072,11.7902964 L12.080385,11.9293595 L14.111635,8.41113129 L10.2145207,6.16113129 Z"></path></g></g></g></svg>