<svg fill="#376A95" xmlns="http://www.w3.org/2000/svg" data-name="Layer 2" viewBox="0 0 84.6 61.86" x="0px" y="0px"><title>wordprocessor-icons-liny-export</title><path d="M36.62,5H2.5a2.5,2.5,0,0,1,0-5H36.62a2.5,2.5,0,0,1,0,5Z"></path><path d="M36.62,16.37H2.5a2.5,2.5,0,0,1,0-5H36.62a2.5,2.5,0,0,1,0,5Z"></path><path d="M36.62,27.74H2.5a2.5,2.5,0,0,1,0-5H36.62a2.5,2.5,0,0,1,0,5Z"></path><path d="M36.62,39.12H2.5a2.5,2.5,0,0,1,0-5H36.62a2.5,2.5,0,0,1,0,5Z"></path><path d="M82.1,16.37H48a2.5,2.5,0,1,1,0-5H82.1a2.5,2.5,0,0,1,0,5Z"></path><path d="M82.1,27.74H48a2.5,2.5,0,0,1,0-5H82.1a2.5,2.5,0,0,1,0,5Z"></path><path d="M82.1,39.12H48a2.5,2.5,0,0,1,0-5H82.1a2.5,2.5,0,0,1,0,5Z"></path><path d="M82.1,50.49H48a2.5,2.5,0,0,1,0-5H82.1a2.5,2.5,0,0,1,0,5Z"></path><path d="M13.87,50.49H2.5a2.5,2.5,0,0,1,0-5H13.87a2.5,2.5,0,0,1,0,5Z"></path><path d="M59.36,61.86H48a2.5,2.5,0,0,1,0-5H59.36a2.5,2.5,0,0,1,0,5Z"></path></svg>