<svg width="36" height="36" viewBox="0 0 36 36" fill="none" xmlns="http://www.w3.org/2000/svg">
<path d="M6.78826 6.01831L5.29492 7.49998L15.0833 17.265L15.6316 18H15.6666V24.8483C15.6199 25.1866 15.7366 25.5483 16.0049 25.8166L18.3499 28.1616C18.8049 28.6166 19.5399 28.6166 19.9949 28.1616C20.2633 27.9166 20.3799 27.5433 20.3333 27.1933V22.5383L28.3133 30.5183L29.7949 29.0366L20.3333 19.575L14.9783 14.22L8.84159 8.08331L6.78826 6.01831ZM11.2449 7.49998L20.9633 17.23L27.0883 9.38998C27.4849 8.88831 27.3916 8.15331 26.8899 7.75664C26.6683 7.59331 26.4233 7.49998 26.1666 7.49998H11.2449Z" fill="#975FE4"/>
</svg>
