<svg xmlns="http://www.w3.org/2000/svg" xmlns:xlink="http://www.w3.org/1999/xlink" xmlns:sketch="http://www.bohemiancoding.com/sketch/ns" version="1.1" x="0px" y="0px" viewBox="0 0 100 100" enable-background="new 0 0 100 100" xml:space="preserve"><title>Date Range</title><desc>Created with Sketch.</desc><g stroke="none" stroke-width="1" fill="none" fill-rule="evenodd" sketch:type="MSPage"><g sketch:type="MSArtboardGroup" fill="#000000"><path d="M36.9986071,49 L36.9986071,45.007484 C36.9986071,44.4489202 36.6551127,44.2862896 36.2313909,44.6394458 L28.7672162,50.8605542 C28.3417678,51.2151494 28.3434944,51.7862896 28.7672162,52.1394458 L36.2313909,58.3605542 C36.6568392,58.7151494 36.9986071,58.5489341 36.9986071,57.992516 L36.9986071,54 L51,54 L51,57.992516 C51,58.5489341 51.3418207,58.7151494 51.7673349,58.3605542 L59.2326651,52.1394458 C59.6564524,51.7862896 59.6581793,51.2151494 59.2326651,50.8605542 L51.7673349,44.6394458 C51.3435476,44.2862896 51,44.4489202 51,45.007484 L51,49 L36.9986071,49 Z M62,21 L66.0059907,21 C68.2118211,21 70,22.7940525 70,25.0098932 L70,64.9901068 C70,67.2047097 68.2100423,69 66.0059907,69 L21.9940093,69 C19.7881789,69 18,67.2059475 18,64.9901068 L18,25.0098932 C18,22.7952903 19.7899577,21 21.9940093,21 L26,21 L26,25.9927643 C26,28.212833 27.795232,30 30.009763,30 L31.990237,30 C34.2122004,30 36,28.2058994 36,25.9927643 L36,21 L52,21 L52,25.9927643 C52,28.212833 53.795232,30 56.009763,30 L57.990237,30 C60.2122004,30 62,28.2058994 62,25.9927643 L62,21 L62,21 Z M21,37.9982456 C21,37.4469298 21.4552782,37 22.0035552,37 L65.9964448,37 C66.550693,37 67,37.4555207 67,37.9982456 L67,65.0017544 C67,65.5530702 66.5447218,66 65.9964448,66 L22.0035552,66 C21.449307,66 21,65.5444793 21,65.0017544 L21,37.9982456 Z M28,18.0085302 C28,16.8992496 28.8982606,16 29.9979131,16 L32.0020869,16 C33.1055038,16 34,16.9019504 34,18.0085302 L34,25.9914698 C34,27.1007504 33.1017394,28 32.0020869,28 L29.9979131,28 C28.8944962,28 28,27.0980496 28,25.9914698 L28,18.0085302 Z M54,18.0085302 C54,16.8992496 54.8982606,16 55.9979131,16 L58.0020869,16 C59.1055038,16 60,16.9019504 60,18.0085302 L60,25.9914698 C60,27.1007504 59.1017394,28 58.0020869,28 L55.9979131,28 C54.8944962,28 54,27.0980496 54,25.9914698 L54,18.0085302 Z" sketch:type="MSShapeGroup"/></g></g></svg>