<svg width="36" height="36" viewBox="0 0 36 36" fill="none" xmlns="http://www.w3.org/2000/svg">
<rect x="3" y="24" width="15" height="2" transform="rotate(-90 3 24)" fill="#40A0FF"/>
<rect x="11.0024" y="14.9996" width="9.99955" height="2" transform="rotate(-90 11.0024 14.9996)" fill="#40A0FF"/>
<rect x="12.0005" y="5" width="21" height="2" fill="#40A0FF"/>
<rect x="12.0005" y="13" width="7" height="2" fill="#40A0FF"/>
<rect x="19.0005" y="17" width="6" height="2" transform="rotate(-90 19.0005 17)" fill="#40A0FF"/>
<rect x="19.0005" y="11" width="14" height="2" fill="#40A0FF"/>
<rect x="19.0005" y="15" width="14" height="2" fill="#40A0FF"/>
<rect x="11" y="29.9999" width="9.99955" height="2" transform="rotate(-90 11 29.9999)" fill="#40A0FF"/>
<rect x="11" y="20" width="22" height="2" fill="#40A0FF"/>
<rect x="11" y="28" width="22" height="2" fill="#40A0FF"/>
<rect x="3" y="9" width="8" height="2" fill="#40A0FF"/>
<rect x="3" y="24" width="8" height="2" fill="#40A0FF"/>
</svg>
