<svg width="220" height="220" viewBox="0 0 220 220" fill="none" xmlns="http://www.w3.org/2000/svg">
<path fill-rule="evenodd" clip-rule="evenodd" d="M1.5 3C2.32843 3 3 2.32843 3 1.5C3 0.671573 2.32843 0 1.5 0C0.671573 0 0 0.671573 0 1.5C0 2.32843 0.671573 3 1.5 3Z" fill="#6E758B" fill-opacity="0.6"/>
<path fill-rule="evenodd" clip-rule="evenodd" d="M1.5 65C2.32843 65 3 64.3284 3 63.5C3 62.6716 2.32843 62 1.5 62C0.671573 62 0 62.6716 0 63.5C0 64.3284 0.671573 65 1.5 65Z" fill="#6E758B" fill-opacity="0.6"/>
<path fill-rule="evenodd" clip-rule="evenodd" d="M94.5 3C95.3284 3 96 2.32843 96 1.5C96 0.671573 95.3284 0 94.5 0C93.6716 0 93 0.671573 93 1.5C93 2.32843 93.6716 3 94.5 3Z" fill="#6E758B" fill-opacity="0.6"/>
<path fill-rule="evenodd" clip-rule="evenodd" d="M94.5 65C95.3284 65 96 64.3284 96 63.5C96 62.6716 95.3284 62 94.5 62C93.6716 62 93 62.6716 93 63.5C93 64.3284 93.6716 65 94.5 65Z" fill="#6E758B" fill-opacity="0.6"/>
<path fill-rule="evenodd" clip-rule="evenodd" d="M1.5 34C2.32843 34 3 33.3284 3 32.5C3 31.6716 2.32843 31 1.5 31C0.671573 31 0 31.6716 0 32.5C0 33.3284 0.671573 34 1.5 34Z" fill="#6E758B" fill-opacity="0.6"/>
<path fill-rule="evenodd" clip-rule="evenodd" d="M1.5 96C2.32843 96 3 95.3284 3 94.5C3 93.6716 2.32843 93 1.5 93C0.671573 93 0 93.6716 0 94.5C0 95.3284 0.671573 96 1.5 96Z" fill="#6E758B" fill-opacity="0.6"/>
<path fill-rule="evenodd" clip-rule="evenodd" d="M94.5 34C95.3284 34 96 33.3284 96 32.5C96 31.6716 95.3284 31 94.5 31C93.6716 31 93 31.6716 93 32.5C93 33.3284 93.6716 34 94.5 34Z" fill="#6E758B" fill-opacity="0.6"/>
<path fill-rule="evenodd" clip-rule="evenodd" d="M94.5 96C95.3284 96 96 95.3284 96 94.5C96 93.6716 95.3284 93 94.5 93C93.6716 93 93 93.6716 93 94.5C93 95.3284 93.6716 96 94.5 96Z" fill="#6E758B" fill-opacity="0.6"/>
<path fill-rule="evenodd" clip-rule="evenodd" d="M32.5 3C33.3284 3 34 2.32843 34 1.5C34 0.671573 33.3284 0 32.5 0C31.6716 0 31 0.671573 31 1.5C31 2.32843 31.6716 3 32.5 3Z" fill="#6E758B" fill-opacity="0.6"/>
<path fill-rule="evenodd" clip-rule="evenodd" d="M32.5 65C33.3284 65 34 64.3284 34 63.5C34 62.6716 33.3284 62 32.5 62C31.6716 62 31 62.6716 31 63.5C31 64.3284 31.6716 65 32.5 65Z" fill="#00A8BF"/>
<path fill-rule="evenodd" clip-rule="evenodd" d="M125.5 3C126.328 3 127 2.32843 127 1.5C127 0.671573 126.328 0 125.5 0C124.672 0 124 0.671573 124 1.5C124 2.32843 124.672 3 125.5 3Z" fill="#6E758B" fill-opacity="0.6"/>
<path fill-rule="evenodd" clip-rule="evenodd" d="M125.5 65C126.328 65 127 64.3284 127 63.5C127 62.6716 126.328 62 125.5 62C124.672 62 124 62.6716 124 63.5C124 64.3284 124.672 65 125.5 65Z" fill="#6E758B" fill-opacity="0.6"/>
<path fill-rule="evenodd" clip-rule="evenodd" d="M187.5 3C188.328 3 189 2.32843 189 1.5C189 0.671573 188.328 0 187.5 0C186.672 0 186 0.671573 186 1.5C186 2.32843 186.672 3 187.5 3Z" fill="#6E758B" fill-opacity="0.6"/>
<path fill-rule="evenodd" clip-rule="evenodd" d="M187.5 65C188.328 65 189 64.3284 189 63.5C189 62.6716 188.328 62 187.5 62C186.672 62 186 62.6716 186 63.5C186 64.3284 186.672 65 187.5 65Z" fill="#6E758B" fill-opacity="0.6"/>
<path fill-rule="evenodd" clip-rule="evenodd" d="M63.5 3C64.3284 3 65 2.32843 65 1.5C65 0.671573 64.3284 0 63.5 0C62.6716 0 62 0.671573 62 1.5C62 2.32843 62.6716 3 63.5 3Z" fill="#6E758B" fill-opacity="0.6"/>
<path fill-rule="evenodd" clip-rule="evenodd" d="M63.5 65C64.3284 65 65 64.3284 65 63.5C65 62.6716 64.3284 62 63.5 62C62.6716 62 62 62.6716 62 63.5C62 64.3284 62.6716 65 63.5 65Z" fill="#6E758B" fill-opacity="0.6"/>
<path fill-rule="evenodd" clip-rule="evenodd" d="M156.5 3C157.328 3 158 2.32843 158 1.5C158 0.671573 157.328 0 156.5 0C155.672 0 155 0.671573 155 1.5C155 2.32843 155.672 3 156.5 3Z" fill="#6E758B" fill-opacity="0.6"/>
<path fill-rule="evenodd" clip-rule="evenodd" d="M156.5 65C157.328 65 158 64.3284 158 63.5C158 62.6716 157.328 62 156.5 62C155.672 62 155 62.6716 155 63.5C155 64.3284 155.672 65 156.5 65Z" fill="#6E758B" fill-opacity="0.6"/>
<path fill-rule="evenodd" clip-rule="evenodd" d="M218.5 3C219.328 3 220 2.32843 220 1.5C220 0.671573 219.328 0 218.5 0C217.672 0 217 0.671573 217 1.5C217 2.32843 217.672 3 218.5 3Z" fill="#6E758B" fill-opacity="0.6"/>
<path fill-rule="evenodd" clip-rule="evenodd" d="M218.5 65C219.328 65 220 64.3284 220 63.5C220 62.6716 219.328 62 218.5 62C217.672 62 217 62.6716 217 63.5C217 64.3284 217.672 65 218.5 65Z" fill="#6E758B" fill-opacity="0.6"/>
<path fill-rule="evenodd" clip-rule="evenodd" d="M32.5 34C33.3284 34 34 33.3284 34 32.5C34 31.6716 33.3284 31 32.5 31C31.6716 31 31 31.6716 31 32.5C31 33.3284 31.6716 34 32.5 34Z" fill="#6E758B" fill-opacity="0.6"/>
<path fill-rule="evenodd" clip-rule="evenodd" d="M32.5 96C33.3284 96 34 95.3284 34 94.5C34 93.6716 33.3284 93 32.5 93C31.6716 93 31 93.6716 31 94.5C31 95.3284 31.6716 96 32.5 96Z" fill="#6E758B" fill-opacity="0.6"/>
<path fill-rule="evenodd" clip-rule="evenodd" d="M156.5 34C157.328 34 158 33.3284 158 32.5C158 31.6716 157.328 31 156.5 31C155.672 31 155 31.6716 155 32.5C155 33.3284 155.672 34 156.5 34Z" fill="#6E758B" fill-opacity="0.6"/>
<path fill-rule="evenodd" clip-rule="evenodd" d="M156.5 96C157.328 96 158 95.3284 158 94.5C158 93.6716 157.328 93 156.5 93C155.672 93 155 93.6716 155 94.5C155 95.3284 155.672 96 156.5 96Z" fill="#6E758B" fill-opacity="0.6"/>
<path fill-rule="evenodd" clip-rule="evenodd" d="M218.5 34C219.328 34 220 33.3284 220 32.5C220 31.6716 219.328 31 218.5 31C217.672 31 217 31.6716 217 32.5C217 33.3284 217.672 34 218.5 34Z" fill="#6E758B" fill-opacity="0.6"/>
<path fill-rule="evenodd" clip-rule="evenodd" d="M218.5 96C219.328 96 220 95.3284 220 94.5C220 93.6716 219.328 93 218.5 93C217.672 93 217 93.6716 217 94.5C217 95.3284 217.672 96 218.5 96Z" fill="#6E758B" fill-opacity="0.6"/>
<path fill-rule="evenodd" clip-rule="evenodd" d="M63.5 34C64.3284 34 65 33.3284 65 32.5C65 31.6716 64.3284 31 63.5 31C62.6716 31 62 31.6716 62 32.5C62 33.3284 62.6716 34 63.5 34Z" fill="#6E758B" fill-opacity="0.6"/>
<path fill-rule="evenodd" clip-rule="evenodd" d="M63.5 96C64.3284 96 65 95.3284 65 94.5C65 93.6716 64.3284 93 63.5 93C62.6716 93 62 93.6716 62 94.5C62 95.3284 62.6716 96 63.5 96Z" fill="#6E758B" fill-opacity="0.6"/>
<path fill-rule="evenodd" clip-rule="evenodd" d="M125.5 34C126.328 34 127 33.3284 127 32.5C127 31.6716 126.328 31 125.5 31C124.672 31 124 31.6716 124 32.5C124 33.3284 124.672 34 125.5 34Z" fill="#6E758B" fill-opacity="0.6"/>
<path fill-rule="evenodd" clip-rule="evenodd" d="M125.5 96C126.328 96 127 95.3284 127 94.5C127 93.6716 126.328 93 125.5 93C124.672 93 124 93.6716 124 94.5C124 95.3284 124.672 96 125.5 96Z" fill="#6E758B" fill-opacity="0.6"/>
<path fill-rule="evenodd" clip-rule="evenodd" d="M187.5 34C188.328 34 189 33.3284 189 32.5C189 31.6716 188.328 31 187.5 31C186.672 31 186 31.6716 186 32.5C186 33.3284 186.672 34 187.5 34Z" fill="#00A8BF"/>
<path fill-rule="evenodd" clip-rule="evenodd" d="M187.5 96C188.328 96 189 95.3284 189 94.5C189 93.6716 188.328 93 187.5 93C186.672 93 186 93.6716 186 94.5C186 95.3284 186.672 96 187.5 96Z" fill="#6E758B" fill-opacity="0.6"/>
<path fill-rule="evenodd" clip-rule="evenodd" d="M1.5 127C2.32843 127 3 126.328 3 125.5C3 124.672 2.32843 124 1.5 124C0.671573 124 0 124.672 0 125.5C0 126.328 0.671573 127 1.5 127Z" fill="#6E758B" fill-opacity="0.6"/>
<path fill-rule="evenodd" clip-rule="evenodd" d="M94.5 127C95.3284 127 96 126.328 96 125.5C96 124.672 95.3284 124 94.5 124C93.6716 124 93 124.672 93 125.5C93 126.328 93.6716 127 94.5 127Z" fill="#6E758B" fill-opacity="0.6"/>
<path fill-rule="evenodd" clip-rule="evenodd" d="M1.5 158C2.32843 158 3 157.328 3 156.5C3 155.672 2.32843 155 1.5 155C0.671573 155 0 155.672 0 156.5C0 157.328 0.671573 158 1.5 158Z" fill="#6E758B" fill-opacity="0.6"/>
<path fill-rule="evenodd" clip-rule="evenodd" d="M94.5 158C95.3284 158 96 157.328 96 156.5C96 155.672 95.3284 155 94.5 155C93.6716 155 93 155.672 93 156.5C93 157.328 93.6716 158 94.5 158Z" fill="#6E758B" fill-opacity="0.6"/>
<path fill-rule="evenodd" clip-rule="evenodd" d="M32.5 127C33.3284 127 34 126.328 34 125.5C34 124.672 33.3284 124 32.5 124C31.6716 124 31 124.672 31 125.5C31 126.328 31.6716 127 32.5 127Z" fill="#6E758B" fill-opacity="0.6"/>
<path fill-rule="evenodd" clip-rule="evenodd" d="M125.5 127C126.328 127 127 126.328 127 125.5C127 124.672 126.328 124 125.5 124C124.672 124 124 124.672 124 125.5C124 126.328 124.672 127 125.5 127Z" fill="#6E758B" fill-opacity="0.6"/>
<path fill-rule="evenodd" clip-rule="evenodd" d="M187.5 127C188.328 127 189 126.328 189 125.5C189 124.672 188.328 124 187.5 124C186.672 124 186 124.672 186 125.5C186 126.328 186.672 127 187.5 127Z" fill="#6E758B" fill-opacity="0.6"/>
<path fill-rule="evenodd" clip-rule="evenodd" d="M63.5 127C64.3284 127 65 126.328 65 125.5C65 124.672 64.3284 124 63.5 124C62.6716 124 62 124.672 62 125.5C62 126.328 62.6716 127 63.5 127Z" fill="#6E758B" fill-opacity="0.6"/>
<path fill-rule="evenodd" clip-rule="evenodd" d="M156.5 127C157.328 127 158 126.328 158 125.5C158 124.672 157.328 124 156.5 124C155.672 124 155 124.672 155 125.5C155 126.328 155.672 127 156.5 127Z" fill="#6E758B" fill-opacity="0.6"/>
<path fill-rule="evenodd" clip-rule="evenodd" d="M218.5 127C219.328 127 220 126.328 220 125.5C220 124.672 219.328 124 218.5 124C217.672 124 217 124.672 217 125.5C217 126.328 217.672 127 218.5 127Z" fill="#6E758B" fill-opacity="0.6"/>
<path fill-rule="evenodd" clip-rule="evenodd" d="M32.5 158C33.3284 158 34 157.328 34 156.5C34 155.672 33.3284 155 32.5 155C31.6716 155 31 155.672 31 156.5C31 157.328 31.6716 158 32.5 158Z" fill="#6E758B" fill-opacity="0.6"/>
<path fill-rule="evenodd" clip-rule="evenodd" d="M156.5 158C157.328 158 158 157.328 158 156.5C158 155.672 157.328 155 156.5 155C155.672 155 155 155.672 155 156.5C155 157.328 155.672 158 156.5 158Z" fill="#6E758B" fill-opacity="0.6"/>
<path fill-rule="evenodd" clip-rule="evenodd" d="M218.5 158C219.328 158 220 157.328 220 156.5C220 155.672 219.328 155 218.5 155C217.672 155 217 155.672 217 156.5C217 157.328 217.672 158 218.5 158Z" fill="#6E758B" fill-opacity="0.6"/>
<path fill-rule="evenodd" clip-rule="evenodd" d="M63.5 158C64.3284 158 65 157.328 65 156.5C65 155.672 64.3284 155 63.5 155C62.6716 155 62 155.672 62 156.5C62 157.328 62.6716 158 63.5 158Z" fill="#00A8BF"/>
<path fill-rule="evenodd" clip-rule="evenodd" d="M125.5 158C126.328 158 127 157.328 127 156.5C127 155.672 126.328 155 125.5 155C124.672 155 124 155.672 124 156.5C124 157.328 124.672 158 125.5 158Z" fill="#6E758B" fill-opacity="0.6"/>
<path fill-rule="evenodd" clip-rule="evenodd" d="M187.5 158C188.328 158 189 157.328 189 156.5C189 155.672 188.328 155 187.5 155C186.672 155 186 155.672 186 156.5C186 157.328 186.672 158 187.5 158Z" fill="#6E758B" fill-opacity="0.6"/>
<path fill-rule="evenodd" clip-rule="evenodd" d="M1.5 189C2.32843 189 3 188.328 3 187.5C3 186.672 2.32843 186 1.5 186C0.671573 186 0 186.672 0 187.5C0 188.328 0.671573 189 1.5 189Z" fill="#6E758B" fill-opacity="0.6"/>
<path fill-rule="evenodd" clip-rule="evenodd" d="M94.5 189C95.3284 189 96 188.328 96 187.5C96 186.672 95.3284 186 94.5 186C93.6716 186 93 186.672 93 187.5C93 188.328 93.6716 189 94.5 189Z" fill="#6E758B" fill-opacity="0.6"/>
<path fill-rule="evenodd" clip-rule="evenodd" d="M1.5 220C2.32843 220 3 219.328 3 218.5C3 217.672 2.32843 217 1.5 217C0.671573 217 0 217.672 0 218.5C0 219.328 0.671573 220 1.5 220Z" fill="#6E758B" fill-opacity="0.6"/>
<path fill-rule="evenodd" clip-rule="evenodd" d="M94.5 220C95.3284 220 96 219.328 96 218.5C96 217.672 95.3284 217 94.5 217C93.6716 217 93 217.672 93 218.5C93 219.328 93.6716 220 94.5 220Z" fill="#6E758B" fill-opacity="0.6"/>
<path fill-rule="evenodd" clip-rule="evenodd" d="M32.5 189C33.3284 189 34 188.328 34 187.5C34 186.672 33.3284 186 32.5 186C31.6716 186 31 186.672 31 187.5C31 188.328 31.6716 189 32.5 189Z" fill="#6E758B" fill-opacity="0.6"/>
<path fill-rule="evenodd" clip-rule="evenodd" d="M125.5 189C126.328 189 127 188.328 127 187.5C127 186.672 126.328 186 125.5 186C124.672 186 124 186.672 124 187.5C124 188.328 124.672 189 125.5 189Z" fill="#6E758B" fill-opacity="0.6"/>
<path fill-rule="evenodd" clip-rule="evenodd" d="M187.5 189C188.328 189 189 188.328 189 187.5C189 186.672 188.328 186 187.5 186C186.672 186 186 186.672 186 187.5C186 188.328 186.672 189 187.5 189Z" fill="#00A8BF"/>
<path fill-rule="evenodd" clip-rule="evenodd" d="M63.5 189C64.3284 189 65 188.328 65 187.5C65 186.672 64.3284 186 63.5 186C62.6716 186 62 186.672 62 187.5C62 188.328 62.6716 189 63.5 189Z" fill="#6E758B" fill-opacity="0.6"/>
<path fill-rule="evenodd" clip-rule="evenodd" d="M156.5 189C157.328 189 158 188.328 158 187.5C158 186.672 157.328 186 156.5 186C155.672 186 155 186.672 155 187.5C155 188.328 155.672 189 156.5 189Z" fill="#6E758B" fill-opacity="0.6"/>
<path fill-rule="evenodd" clip-rule="evenodd" d="M218.5 189C219.328 189 220 188.328 220 187.5C220 186.672 219.328 186 218.5 186C217.672 186 217 186.672 217 187.5C217 188.328 217.672 189 218.5 189Z" fill="#6E758B" fill-opacity="0.6"/>
<path fill-rule="evenodd" clip-rule="evenodd" d="M32.5 220C33.3284 220 34 219.328 34 218.5C34 217.672 33.3284 217 32.5 217C31.6716 217 31 217.672 31 218.5C31 219.328 31.6716 220 32.5 220Z" fill="#6E758B" fill-opacity="0.6"/>
<path fill-rule="evenodd" clip-rule="evenodd" d="M156.5 220C157.328 220 158 219.328 158 218.5C158 217.672 157.328 217 156.5 217C155.672 217 155 217.672 155 218.5C155 219.328 155.672 220 156.5 220Z" fill="#6E758B" fill-opacity="0.6"/>
<path fill-rule="evenodd" clip-rule="evenodd" d="M218.5 220C219.328 220 220 219.328 220 218.5C220 217.672 219.328 217 218.5 217C217.672 217 217 217.672 217 218.5C217 219.328 217.672 220 218.5 220Z" fill="#6E758B" fill-opacity="0.6"/>
<path fill-rule="evenodd" clip-rule="evenodd" d="M63.5 220C64.3284 220 65 219.328 65 218.5C65 217.672 64.3284 217 63.5 217C62.6716 217 62 217.672 62 218.5C62 219.328 62.6716 220 63.5 220Z" fill="#6E758B" fill-opacity="0.6"/>
<path fill-rule="evenodd" clip-rule="evenodd" d="M125.5 220C126.328 220 127 219.328 127 218.5C127 217.672 126.328 217 125.5 217C124.672 217 124 217.672 124 218.5C124 219.328 124.672 220 125.5 220Z" fill="#6E758B" fill-opacity="0.6"/>
<path fill-rule="evenodd" clip-rule="evenodd" d="M187.5 220C188.328 220 189 219.328 189 218.5C189 217.672 188.328 217 187.5 217C186.672 217 186 217.672 186 218.5C186 219.328 186.672 220 187.5 220Z" fill="#6E758B" fill-opacity="0.6"/>
</svg>
