
<svg version="1.1" id="Layer_1" xmlns="http://www.w3.org/2000/svg" xmlns:xlink="http://www.w3.org/1999/xlink" x="0px" y="0px" viewBox="0 0 116.32 122.88" style="enable-background:new 0 0 116.32 122.88" xml:space="preserve"><g><path d="M102.67,23.25v-9.59H24.32l42.55,42.77c2.65,2.67,2.64,6.98-0.03,9.63l-43.5,43.17h79.32V99.9h13.65v16.15 c0,3.77-3.06,6.83-6.83,6.83H6.81v-0.02c-1.75,0-3.5-0.67-4.83-2.01c-2.65-2.67-2.64-6.98,0.03-9.63L52.42,61.2L3.47,11.99 C2.02,10.74,1.1,8.89,1.1,6.83C1.1,3.06,4.16,0,7.93,0H109.5c3.77,0,6.83,3.06,6.83,6.83v16.42H102.67L102.67,23.25z"/></g></svg>