<svg xmlns="http://www.w3.org/2000/svg" xmlns:xlink="http://www.w3.org/1999/xlink" width="100" height="100" viewBox="0 0 100 100"><g><g transform="translate(50 50) scale(0.69 0.69) rotate(0) translate(-50 -50)" style="fill:#143f5b"><svg fill="#143f5b" xmlns="http://www.w3.org/2000/svg" viewBox="0 0 24 24" x="0px" y="0px"><title>ORDER LIST</title><g data-name="Layer 23"><path d="M20.71,20.29l-4-4a6.52,6.52,0,1,0-1.41,1.41l4,4a1,1,0,0,0,1.42,0A1,1,0,0,0,20.71,20.29ZM11.5,17A4.5,4.5,0,1,1,16,12.5,4.51,4.51,0,0,1,11.5,17Z"></path><path d="M16,20H4V5H16V6a1,1,0,0,0,2,0V4a1,1,0,0,0-1-1H14a1,1,0,0,0-1-1H7A1,1,0,0,0,6,3H3A1,1,0,0,0,2,4V21a1,1,0,0,0,1,1H16a1,1,0,0,0,0-2Z"></path><path d="M14,10H9a1,1,0,0,0,0,2h5a1,1,0,0,0,0-2Z"></path><path d="M13,13H9a1,1,0,0,0,0,2h4a1,1,0,0,0,0-2Z"></path></g></svg></g></g></svg>