<svg xmlns="http://www.w3.org/2000/svg" xmlns:xlink="http://www.w3.org/1999/xlink" version="1.1" x="0px" y="0px" viewBox="0 0 100 100" enable-background="new 0 0 100 100" xml:space="preserve"><path fill="#143F5B" d="M35.251,36.006H5.754C5.338,36.006,5,35.668,5,35.252V5.754C5,5.338,5.338,5,5.754,5h29.497  c0.417,0,0.754,0.338,0.754,0.754v29.498C36.006,35.668,35.668,36.006,35.251,36.006z M6.508,34.498h27.989V6.508H6.508V34.498z"></path><path fill="#143F5B" d="M64.749,36.006H35.251c-0.417,0-0.754-0.338-0.754-0.754V5.754C34.497,5.338,34.834,5,35.251,5h29.498  c0.417,0,0.754,0.338,0.754,0.754v29.498C65.502,35.668,65.165,36.006,64.749,36.006z M36.005,34.498h27.989V6.508H36.005V34.498z"></path><path fill="#143F5B" d="M94.246,36.006H64.749c-0.417,0-0.754-0.338-0.754-0.754V5.754C63.994,5.338,64.332,5,64.749,5h29.497  C94.662,5,95,5.338,95,5.754v29.498C95,35.668,94.662,36.006,94.246,36.006z M65.502,34.498h27.989V6.508H65.502V34.498z"></path><path fill="#143F5B" d="M35.251,65.503H5.754C5.338,65.503,5,65.166,5,64.748V35.252c0-0.418,0.338-0.755,0.754-0.755h29.497  c0.417,0,0.754,0.337,0.754,0.755v29.496C36.006,65.166,35.668,65.503,35.251,65.503z M6.508,63.994h27.989V36.006H6.508V63.994z"></path><path fill="#143F5B" d="M64.749,65.503H35.251c-0.417,0-0.754-0.337-0.754-0.755V35.252c0-0.418,0.337-0.755,0.754-0.755h29.498  c0.417,0,0.754,0.337,0.754,0.755v29.496C65.502,65.166,65.165,65.503,64.749,65.503z M36.005,63.994h27.989V36.006H36.005V63.994z"></path><path fill="#143F5B" d="M94.246,65.503H64.749c-0.417,0-0.754-0.337-0.754-0.755V35.252c0-0.418,0.338-0.755,0.754-0.755h29.497  c0.417,0,0.754,0.337,0.754,0.755v29.496C95,65.166,94.662,65.503,94.246,65.503z M65.502,63.994h27.989V36.006H65.502V63.994z"></path><path fill="#143F5B" d="M35.251,95H5.754C5.338,95,5,94.662,5,94.246V64.748c0-0.416,0.338-0.754,0.754-0.754h29.497  c0.417,0,0.754,0.338,0.754,0.754v29.498C36.006,94.662,35.668,95,35.251,95z M6.508,93.492h27.989v-27.99H6.508V93.492z"></path><path fill="#143F5B" d="M64.749,95H35.251c-0.417,0-0.754-0.338-0.754-0.754V64.748c0-0.416,0.337-0.754,0.754-0.754h29.498  c0.417,0,0.754,0.338,0.754,0.754v29.498C65.502,94.662,65.165,95,64.749,95z M36.005,93.492h27.989v-27.99H36.005V93.492z"></path><path fill="#143F5B" d="M94.246,95H64.749c-0.417,0-0.754-0.338-0.754-0.754V64.748c0-0.416,0.338-0.754,0.754-0.754h29.497  c0.417,0,0.754,0.338,0.754,0.754v29.498C95,94.662,94.662,95,94.246,95z M65.502,93.492h27.989v-27.99H65.502V93.492z"></path></svg>