<svg xmlns="http://www.w3.org/2000/svg" xmlns:xlink="http://www.w3.org/1999/xlink" version="1.1" x="0px" y="0px" viewBox="0 0 161.492 162.732" enable-background="new 0 0 161.492 162.732" xml:space="preserve"><g><path d="M57.251,55.755c0-8.825,2.218-17.132,6.102-24.41H23.359c-2.723,0-4.933,2.207-4.933,4.931v102.764   c0,2.724,2.21,4.934,4.933,4.934h102.762c2.724,0,4.933-2.211,4.933-4.934v-36.205c-6.648,3.093-14.037,4.869-21.854,4.869   C80.51,107.703,57.251,84.445,57.251,55.755z" style="&#10;    fill: #143F5B;&#10;"/><path d="M144.365,23.368V20.65c0-1.39-1.123-2.517-2.514-2.517h-3.09c0,0,0,0.001,0.002,0.001H89.439   c-1.389-0.001-2.518,1.126-2.514,2.516l13.633,13.637l0,0l5.139,5.139l-33.06,33.059c-0.982,0.981-0.982,2.578,0,3.56   l13.821,13.818c0.979,0.981,2.574,0.981,3.557,0L123.072,56.8l0,0l5.143,5.14l13.64,13.637c1.388,0,2.515-1.126,2.515-2.519V23.37   C144.365,23.369,144.365,23.368,144.365,23.368z" style="&#10;    fill: #2c9e76;&#10;"/></g></svg>