<svg fill="#143F5B" xmlns="http://www.w3.org/2000/svg" xmlns:xlink="http://www.w3.org/1999/xlink" viewBox="0 0 20 20" version="1.1" x="0px" y="0px"><title>Group</title><desc>Created with Sketch.</desc><g stroke="none" stroke-width="1" fill="none" fill-rule="evenodd"><g transform="translate(-260.000000, -50.000000)" fill="#143F5B"><g transform="translate(20.000000, 50.000000)"><path d="M242,3.00087166 C242,2.4481055 242.444631,2 243.000872,2 L256.999128,2 C257.551894,2 258,2.44463086 258,3.00087166 L258,16.9991283 C258,17.5518945 257.555369,18 256.999128,18 L243.000872,18 C242.448106,18 242,17.5553691 242,16.9991283 L242,3.00087166 Z M243,3 L257,3 L257,17 L243,17 L243,3 Z M254,14 L254,8 L255,8 L255,15 L248,15 L248,14 L254,14 Z M245,5 L253,5 L253,13 L245,13 L245,5 Z M247,7 L251,7 L251,11 L247,11 L247,7 Z"></path></g></g></g></svg>