<svg xmlns="http://www.w3.org/2000/svg" xmlns:xlink="http://www.w3.org/1999/xlink" width="100" height="100" viewBox="0 0 100 100"><g><g transform="translate(50 50) scale(0.69 0.69) rotate(0) translate(-50 -50)" style="fill:#143f5b"><svg fill="#143f5b" xmlns="http://www.w3.org/2000/svg" xmlns:xlink="http://www.w3.org/1999/xlink" version="1.1" x="0px" y="0px" viewBox="0 0 100 100" style="enable-background:new 0 0 100 100;" xml:space="preserve"><path d="M92,19H66V7c0-1.1-0.9-2-2-2H8C6.9,5,6,5.9,6,7v72c0,1.1,0.9,2,2,2h26v12c0,0,0,0,0,0.1c0,0.1,0,0.1,0,0.2  c0,0.1,0,0.1,0,0.2c0,0.1,0,0.1,0.1,0.2c0,0.1,0,0.1,0.1,0.2c0,0,0,0,0,0.1c0,0,0,0,0,0.1c0.1,0.1,0.1,0.2,0.2,0.3  c0,0,0,0.1,0.1,0.1c0.1,0.1,0.2,0.2,0.4,0.3c0,0,0.1,0,0.1,0.1c0.1,0.1,0.2,0.1,0.4,0.2c0,0,0.1,0,0.1,0c0.2,0,0.3,0.1,0.5,0.1h56  c1.1,0,2-0.9,2-2V21C94,19.9,93.1,19,92,19z M10,9h52v68H10V9z M55.5,81L38,89.8V81H55.5z M90,91H44.5l20.4-10.2c0,0,0.1,0,0.1-0.1  c0.1,0,0.1-0.1,0.2-0.1c0.1,0,0.1-0.1,0.2-0.1c0,0,0.1-0.1,0.1-0.1c0-0.1,0.1-0.1,0.1-0.2c0,0,0.1-0.1,0.1-0.1  c0-0.1,0.1-0.1,0.1-0.2c0-0.1,0.1-0.1,0.1-0.2c0-0.1,0-0.1,0.1-0.2c0-0.1,0-0.1,0-0.2c0-0.1,0-0.1,0-0.2c0,0,0-0.1,0-0.1V23h24V91z   M37.4,66.4l12.7-13.2C53.9,49.4,56,44.3,56,39c0-5.3-2.1-10.4-5.9-14.1c-7.8-7.8-20.5-7.8-28.3,0c-7.8,7.8-7.8,20.5,0,28.3  l12.7,13.3c0.4,0.4,0.9,0.6,1.4,0.6S37.1,66.8,37.4,66.4z M24.7,50.3C24.7,50.3,24.7,50.3,24.7,50.3c-6.3-6.3-6.3-16.4,0-22.7  C27.8,24.6,31.9,23,36,23c4.1,0,8.2,1.6,11.3,4.7c3,3,4.7,7,4.7,11.3s-1.7,8.3-4.7,11.3L36,62.1L24.7,50.3z M46,39  c0-5.5-4.5-10-10-10s-10,4.5-10,10s4.5,10,10,10S46,44.5,46,39z M30,39c0-3.3,2.7-6,6-6s6,2.7,6,6s-2.7,6-6,6S30,42.3,30,39z"></path></svg></g></g></svg>