<svg fill="#2C9E76" xmlns="http://www.w3.org/2000/svg" xmlns:xlink="http://www.w3.org/1999/xlink" version="1.1" x="0px" y="0px" viewBox="0 0 30 30" xml:space="preserve"><g transform="translate(-90 -500)"><g xmlns="http://www.w3.org/2000/svg" xmlns:xlink="http://www.w3.org/1999/xlink"><path d="M119.115,523.838c-0.325-0.07-0.611-0.176-0.857-0.316c-0.326-0.193-0.577-0.398-0.753-0.613    c-0.177-0.217-0.321-0.455-0.437-0.721c-0.687-1.619-1.518-3.66-2.495-6.125c-0.978-2.465-2.329-5.818-4.054-10.063h-2.641    c-1.241,2.994-2.375,5.73-3.399,8.213c-1.026,2.482-2.049,4.961-3.07,7.434c-0.167,0.422-0.376,0.789-0.627,1.096    c-0.251,0.309-0.557,0.568-0.917,0.779c-0.212,0.133-0.5,0.236-0.865,0.31c-0.365,0.074-0.693,0.121-0.984,0.139V525h7.686v-1.029    c-0.995-0.088-1.707-0.231-2.133-0.43c-0.428-0.197-0.641-0.438-0.641-0.719c0-0.088,0.015-0.242,0.047-0.463    c0.029-0.219,0.129-0.576,0.297-1.068c0.132-0.379,0.288-0.81,0.469-1.295c0.139-0.371,0.265-0.697,0.385-0.996h6.691l1.486,3.611    c0.061,0.148,0.099,0.268,0.111,0.355c0.014,0.088,0.021,0.168,0.021,0.238c0,0.203-0.321,0.371-0.964,0.508    s-0.995,0.223-1.471,0.258V525h10v-1.029C119.736,523.953,119.44,523.91,119.115,523.838z M109.994,517h-5.064l2.514-6.365    L109.994,517z"></path><path d="M106.547,524.144c-0.24-0.053-0.451-0.129-0.633-0.234c-0.24-0.143-0.425-0.293-0.555-0.451    c-0.129-0.16-0.236-0.336-0.32-0.531c-0.506-1.193-1.119-2.697-1.84-4.514c-0.719-1.816-1.715-4.287-2.986-7.414h-1.945    c-0.914,2.205-1.75,4.223-2.506,6.053c-0.756,1.828-1.51,3.654-2.262,5.477c-0.123,0.31-0.277,0.58-0.462,0.809    c-0.185,0.227-0.41,0.418-0.676,0.572c-0.156,0.098-0.368,0.174-0.638,0.23c-0.27,0.055-0.512,0.088-0.725,0.102V525h5.662v-0.758    c-0.732-0.065-1.257-0.17-1.571-0.316c-0.313-0.146-0.472-0.322-0.472-0.531c0-0.064,0.012-0.178,0.035-0.34    c0.021-0.162,0.094-0.424,0.218-0.787c0.097-0.279,0.212-0.598,0.346-0.955c0.034-0.092,0.237-0.607,0.516-1.313h4.479l1.314,3.24    c0.045,0.109,0.072,0.197,0.082,0.262c0.01,0.064,0.016,0.123,0.016,0.176c0,0.148-0.238,0.273-0.711,0.375    c-0.475,0.1-0.886,0.164-1.236,0.19V525H107v-0.758C107,524.242,106.787,524.197,106.547,524.144z M96.129,519    c0.795-2.008,1.817-4.584,1.817-4.584l1.86,4.584H96.129z"></path></g></g></svg>