<svg height='100px' width='100px'  fill="#000000" xmlns="http://www.w3.org/2000/svg" xmlns:xlink="http://www.w3.org/1999/xlink" version="1.1" x="0px" y="0px" viewBox="0 0 100 100" style="enable-background:new 0 0 100 100;" xml:space="preserve"><g><g><path d="M65.9,89.6H24.6c-5.2,0-9.5-4.3-9.5-9.5V19.8c0-5.2,4.3-9.5,9.5-9.5h41.2c5.2,0,9.5,4.3,9.5,9.5v60.3    C75.4,85.4,71.1,89.6,65.9,89.6z M24.6,15.3c-2.5,0-4.5,2-4.5,4.5v60.3c0,2.5,2,4.5,4.5,4.5h41.2c2.5,0,4.5-2,4.5-4.5V19.8    c0-2.5-2-4.5-4.5-4.5H24.6z"></path></g><g><path d="M61.1,35.7H28.4c-1.4,0-2.5-1.1-2.5-2.5s1.1-2.5,2.5-2.5h32.7c1.4,0,2.5,1.1,2.5,2.5S62.5,35.7,61.1,35.7z"></path></g><g><path d="M61.1,48.7H28.4c-1.4,0-2.5-1.1-2.5-2.5s1.1-2.5,2.5-2.5h32.7c1.4,0,2.5,1.1,2.5,2.5S62.5,48.7,61.1,48.7z"></path></g><g><path d="M61.1,61.7H28.4c-1.4,0-2.5-1.1-2.5-2.5s1.1-2.5,2.5-2.5h32.7c1.4,0,2.5,1.1,2.5,2.5S62.5,61.7,61.1,61.7z"></path></g><g><g><path d="M74.7,57.5l5.5,5.5L66.3,76.8l-5.5-5.5L74.7,57.5z M84.3,56.1l-2.4-2.4c-0.9-0.9-2.5-0.9-3.4,0L76.1,56l5.5,5.5l2.7-2.7     C85,58,85,56.9,84.3,56.1z M58,79c-0.1,0.4,0.3,0.8,0.8,0.7l6.1-1.5l-5.5-5.5L58,79z"></path></g></g></g></svg>