<svg xmlns="http://www.w3.org/2000/svg" xmlns:xlink="http://www.w3.org/1999/xlink" version="1.1" x="0px" y="0px" viewBox="0 0 24 24" enable-background="new 0 0 24 24" xml:space="preserve"><g><path d="M15.385,23.663H6.552c-0.359,0-0.65-0.291-0.65-0.65V0.987c0-0.359,0.291-0.65,0.65-0.65h8.833   c0.359,0,0.65,0.291,0.65,0.65v9.096c0,0.359-0.291,0.65-0.65,0.65s-0.65-0.291-0.65-0.65V1.637H7.202v20.726h7.533v-0.988   c0-0.359,0.291-0.65,0.65-0.65s0.65,0.291,0.65,0.65v1.638C16.035,23.372,15.744,23.663,15.385,23.663z"></path><g><path d="M15.385,18.692c-0.359,0-0.65-0.291-0.65-0.65v-4.125c0-0.359,0.291-0.65,0.65-0.65s0.65,0.291,0.65,0.65v4.125    C16.035,18.401,15.744,18.692,15.385,18.692z"></path><path d="M15.385,18.692c-0.359,0-0.65-0.291-0.65-0.65v-4.125c0-0.359,0.291-0.65,0.65-0.65s0.65,0.291,0.65,0.65v4.125    C16.035,18.401,15.744,18.692,15.385,18.692z"></path><path d="M17.448,16.629h-4.125c-0.359,0-0.65-0.291-0.65-0.65s0.291-0.65,0.65-0.65h4.125c0.359,0,0.65,0.291,0.65,0.65    S17.807,16.629,17.448,16.629z"></path></g></g></svg>