<svg xmlns="http://www.w3.org/2000/svg" xmlns:xlink="http://www.w3.org/1999/xlink" viewBox="0 0 75 75" version="1.1" x="0px" y="0px"><g><path style="" d="M 73 12.5 C 73 7.429688 68.890625 3.320312 63.820312 3.320312 C 58.75 3.320312 54.640625 7.429688 54.640625 12.5 C 54.640625 15.972656 56.570312 18.992188 59.414062 20.554688 L 54.496094 40.4375 C 52.171875 40.472656 50.058594 41.375 48.460938 42.835938 L 30.359375 31.160156 C 30.648438 30.265625 30.8125 29.3125 30.8125 28.320312 C 30.8125 23.25 26.703125 19.140625 21.632812 19.140625 C 16.5625 19.140625 12.453125 23.25 12.453125 28.320312 C 12.453125 31.746094 14.335938 34.730469 17.117188 36.304688 L 12.433594 54.179688 C 7.375 54.1875 3.273438 58.292969 3.273438 63.359375 C 3.273438 68.425781 7.382812 72.539062 12.453125 72.539062 C 17.523438 72.539062 21.632812 68.425781 21.632812 63.359375 C 21.632812 59.929688 19.75 56.945312 16.96875 55.371094 L 21.648438 37.5 C 24.027344 37.496094 26.183594 36.582031 27.8125 35.09375 L 45.914062 46.769531 C 45.621094 47.664062 45.460938 48.617188 45.460938 49.609375 C 45.460938 54.679688 49.570312 58.789062 54.640625 58.789062 C 59.710938 58.789062 63.820312 54.679688 63.820312 49.609375 C 63.820312 46.136719 61.890625 43.117188 59.046875 41.554688 L 63.960938 21.671875 C 68.96875 21.59375 73 17.519531 73 12.5 Z M 73 12.5 " stroke="none" fill-rule="nonzero" fill="rgb(0%,0%,0%)" fill-opacity="1"></path></g></svg>