<svg fill="#143F5B" xmlns="http://www.w3.org/2000/svg" viewBox="0 0 40 40" x="0px" y="0px"><path fill="#143F5B" d="M427,13 L429.004911,13 C430.106768,13 431,13.8926228 431,14.9950893 L431,29.0049107 C431,30.1067681 430.107377,31 429.004911,31 L414.995089,31 C413.893232,31 413,30.1073772 413,29.0049107 L413,27 L410.995089,27 C409.893232,27 409,26.1073772 409,25.0049107 L409,10.9950893 C409,9.8932319 409.892623,9 410.995089,9 L425.004911,9 C426.106768,9 427,9.8926228 427,10.9950893 L427,13 Z M427,15 L427,25.0049107 C427,26.1067681 426.107377,27 425.004911,27 L415,27 L415,28.5017326 C415,28.7800934 415.223082,29 415.498267,29 L428.501733,29 C428.780093,29 429,28.7769181 429,28.5017326 L429,15.4982674 C429,15.2199066 428.776918,15 428.501733,15 L427,15 Z M407,5 L433,5 L433,4 L436,4 L436,7 L435,7 L435,33 L436,33 L436,36 L433,36 L433,35 L407,35 L407,36 L404,36 L404,33 L405,33 L405,7 L404,7 L404,4 L407,4 L407,5 Z M407,6 L407,7 L406,7 L406,33 L407,33 L407,34 L433,34 L433,33 L434,33 L434,7 L433,7 L433,6 L407,6 Z M434,35 L435,35 L435,34 L434,34 L434,35 Z M405,35 L406,35 L406,34 L405,34 L405,35 Z M434,6 L435,6 L435,5 L434,5 L434,6 Z M405,6 L406,6 L406,5 L405,5 L405,6 Z M411,11.4982674 L411,24.5017326 C411,24.7800934 411.223082,25 411.498267,25 L424.501733,25 C424.780093,25 425,24.7769181 425,24.5017326 L425,11.4982674 C425,11.2199066 424.776918,11 424.501733,11 L411.498267,11 C411.219907,11 411,11.2230819 411,11.4982674 Z" transform="translate(-400)"></path></svg>