<?xml version="1.0" encoding="utf-8"?>
<!-- Generator: Adobe Illustrator 16.0.3, SVG Export Plug-In . SVG Version: 6.00 Build 0)  -->
<!DOCTYPE svg PUBLIC "-//W3C//DTD SVG 1.1//EN" "http://www.w3.org/Graphics/SVG/1.1/DTD/svg11.dtd">
<svg version="1.1" id="Layer_1" xmlns="http://www.w3.org/2000/svg" xmlns:xlink="http://www.w3.org/1999/xlink" x="0px" y="0px"
	 width="612px" height="572.971px" viewBox="0 0 612 572.971" enable-background="new 0 0 612 572.971" xml:space="preserve">
<path fill="#15B994" d="M584.744,98.339c-73.466,75.433-114.79,188.912-230.237,188.912
	c-81.994,6.561-136.438,61.66-184.321,122.662c-40.013,40.014-99.048,47.23-133.813,92.488h548.373L584.744,98.339L584.744,98.339z"
	/>
<path fill="#0C4BA2" d="M164.281,398.106c47.884-61.66,102.328-116.104,184.321-123.319c114.791,0,156.116-114.135,230.238-188.913
	v-4.591H29.813v409.313h0.656C64.577,445.335,123.612,438.12,164.281,398.106z"/>
<line fill="none" stroke="#CDCCCC" stroke-width="8" stroke-miterlimit="10" x1="310.558" y1="289.22" x2="310.558" y2="386.956"/>
<ellipse fill="#1C3A4C" cx="310.558" cy="251.173" rx="57.724" ry="56.412"/>
<g>
	<path fill="#FFFFFF" d="M347.947,240.678c0,0-0.655-0.656-1.312-1.969c-0.656-0.654-1.313-1.312-1.313-1.968
		c0-0.655-0.655-0.655-0.655-1.312c0-0.657,0-0.656-0.656-1.313c0-0.656-0.655-1.969-0.655-2.624c0-1.313-0.656-1.968-1.312-3.28
		c-0.656-1.312-0.656-2.623-1.97-3.278l-2.623-3.28c-0.655-1.313-1.969-1.968-2.624-2.624c-0.656-0.655-1.968-1.312-3.279-1.967
		c-1.313-0.656-1.968-1.313-3.279-1.968c-1.313,0-1.969-0.656-3.279-1.313c-0.656,0-1.969-0.655-2.624-1.312
		c-0.655-0.656-1.312-1.313-1.968-1.313c-1.313-0.656-1.969-1.312-1.969-1.312s0.656-0.656,1.969-1.313
		c0.656,0,1.313-0.655,2.623-1.312c0.656,0,1.313-0.656,1.969-0.656c0.655,0,1.313,0.656,1.967,0.656
		c1.313,0.656,2.625,0.656,3.938,1.312c1.313,0.656,2.624,1.313,3.936,1.968c1.313,0.656,2.624,1.313,3.937,2.624
		c1.312,1.311,2.624,1.968,3.28,3.28c1.312,1.312,1.967,2.623,3.278,3.936c1.313,1.313,1.313,2.623,1.968,3.937
		c0.656,1.312,1.313,2.623,1.969,3.937c0.656,1.313,0.656,2.623,1.313,3.936c0,0.656,0.656,1.313,0.656,1.968
		c0,0.656-0.656,1.313-0.656,1.313c-0.656,0.654-0.656,1.968-1.313,2.624C347.947,240.023,347.947,240.678,347.947,240.678z"/>
</g>
</svg>
