<svg height='100px' width='100px'  fill="#000000" xmlns="http://www.w3.org/2000/svg" xmlns:xlink="http://www.w3.org/1999/xlink" viewBox="0 0 100 100" version="1.1" x="0px" y="0px"><title>tool-7 copy 2</title><desc>Created with Sketch.</desc><g stroke="none" stroke-width="1" fill="none" fill-rule="evenodd"><path d="M5,83.2179065 L95.0004663,83.2179065 L95.0004663,17 L5,17 L5,83.2179065 Z M8.73074392,79.4871626 L91.2692561,79.4871626 L91.2692561,20.7307439 L8.73074392,20.7307439 L8.73074392,79.4871626 Z M40.6421284,28.2090201 L40.6421284,34.3848003 L15.1798011,34.3848003 L15.1798011,58.0540388 L28.2028955,58.0540388 L28.2028955,73.679327 L65.0775684,73.679327 L65.0775684,60.5293874 L86.0448156,60.5293874 L86.0448156,28.2090201 L40.6421284,28.2090201 Z M44.3728723,56.7986435 L82.3140716,56.7986435 L82.3140716,31.9392977 L44.3728723,31.9392977 L44.3728723,56.7986435 Z M18.9105451,38.1150779 L40.6421284,38.1150779 L40.6421284,47.4293464 L28.2028955,47.4293464 L28.2028955,54.3232949 L18.9105451,54.3232949 L18.9105451,38.1150779 Z M31.9336394,51.1600904 L40.6421284,51.1600904 L40.6421284,60.5293874 L61.3468245,60.5293874 L61.3468245,69.9485831 L31.9336394,69.9485831 L31.9336394,51.1600904 Z" fill="#000000"></path></g></svg>