<svg xmlns="http://www.w3.org/2000/svg" xmlns:xlink="http://www.w3.org/1999/xlink" version="1.1" x="0px" y="0px" viewBox="0 0 64 64" style="enable-background:new 0 0 64 64;" xml:space="preserve"><path d="M62,28h-9V11c0-0.552-0.447-1-1-1h-9V3c0-0.552-0.447-1-1-1H32c-0.553,0-1,0.448-1,1v18h-9c-0.553,0-1,0.448-1,1v12h-9  c-0.553,0-1,0.448-1,1v13H2c-0.553,0-1,0.448-1,1v12c0,0.552,0.447,1,1,1h10h10h10h10h10h10c0.553,0,1-0.448,1-1V29  C63,28.448,62.553,28,62,28z M3,50h8v10H3V50z M13,49V36h8v24h-8V49z M23,35V23h8v37h-8V35z M33,22V4h8v7v49h-8V22z M43,12h8v17v31  h-8V12z M61,60h-8V30h8V60z"></path></svg>