<svg height='100px' width='100px'  fill="#000000" xmlns="http://www.w3.org/2000/svg" data-name="Layer 1" viewBox="0 0 100 100" x="0px" y="0px"><title>04</title><g data-name="Group"><path data-name="Compound Path" d="M95.7,19.8a12,12,0,0,0-12-12H16.3a12,12,0,0,0-12,12V80.2a12,12,0,0,0,12,12H83.7a12,12,0,0,0,12-12Zm-79.4-8H83.7a8,8,0,0,1,8,8V32.17H8.3V19.8A8,8,0,0,1,16.3,11.8ZM83.7,88.2H16.3a8,8,0,0,1-8-8v-44H91.7v44A8,8,0,0,1,83.7,88.2Z"></path><path data-name="Path" d="M18,23.32h7a2,2,0,0,0,0-4H18a2,2,0,0,0,0,4Z"></path><path data-name="Path" d="M37.83,23.32h7a2,2,0,0,0,0-4h-7a2,2,0,0,0,0,4Z"></path><path data-name="Path" d="M37.17,48.77a2,2,0,0,0-2.83.07L23.63,60.11a2,2,0,0,0,0,2.75L34.34,74.16a2,2,0,1,0,2.9-2.75l-9.4-9.92,9.4-9.89A2,2,0,0,0,37.17,48.77Z"></path><path data-name="Path" d="M65.66,48.84a2,2,0,0,0-2.9,2.76l9.4,9.89-9.4,9.92a2,2,0,1,0,2.9,2.75L76.37,62.86a2,2,0,0,0,0-2.75Z"></path><path data-name="Path" d="M55.49,43.68A2,2,0,0,0,53,45l-9.8,31.83A2,2,0,1,0,47,78l9.8-31.83A2,2,0,0,0,55.49,43.68Z"></path></g></svg>