<svg height='100px' width='100px'  fill="#000000" xmlns="http://www.w3.org/2000/svg" xmlns:xlink="http://www.w3.org/1999/xlink" version="1.1" x="0px" y="0px" viewBox="0 0 100 100" enable-background="new 0 0 100 100" xml:space="preserve"><path d="M83,21.33v0.006L68.664,7h0.006l-2-2h-1.639H15v70v20h70V75V24.969V23.33L83,21.33z M67.031,8.195l14.773,14.773H67.031  V8.195z M47.781,87.209c0,3.043-1.496,3.978-3.468,3.978c-0.544,0-1.207-0.118-1.581-0.271l0.221-1.207  c0.306,0.119,0.748,0.221,1.241,0.221c1.326,0,2.108-0.595,2.108-2.838v-7.548h1.479V87.209z M52.592,91.17  c-1.104,0-2.312-0.323-2.923-0.73l0.374-1.241c0.663,0.408,1.631,0.748,2.652,0.748c1.513,0,2.396-0.799,2.396-1.955  c0-1.071-0.612-1.683-2.159-2.277c-1.869-0.663-3.025-1.632-3.025-3.247c0-1.785,1.479-3.11,3.706-3.11  c1.173,0,2.022,0.271,2.532,0.561l-0.408,1.207c-0.373-0.204-1.139-0.544-2.176-0.544c-1.563,0-2.158,0.935-2.158,1.717  c0,1.071,0.697,1.598,2.277,2.21c1.938,0.748,2.924,1.683,2.924,3.365C56.604,89.641,55.295,91.17,52.592,91.17z M83,75H17V7h48.031  v17.969H83V75z"></path><path d="M25.378,49.457L42.18,41.65v3.71l-12.707,5.565v0.07l12.707,5.566v3.71l-16.802-7.806V49.457z"></path><path d="M44.768,61.673l7.49-25.378h3.536l-7.491,25.378H44.768z"></path><path d="M74.624,52.572l-16.802,7.7v-3.71l12.986-5.566v-0.07l-12.986-5.565v-3.71l16.802,7.701V52.572z"></path></svg>