<svg width="36" height="36" viewBox="0 0 36 36" fill="none" xmlns="http://www.w3.org/2000/svg">
<g clip-path="url(#clip0)">
<path d="M3.57386 15H4.62784V13.267L5.27273 12.5057L7.00852 15H8.27557L6.00568 11.7926L8.25568 9.18182H6.96875L4.69886 11.8551H4.62784V9.18182H3.57386V15ZM9.13793 15H10.1919V13.0341H11.3055C12.6493 13.0341 13.3709 12.2273 13.3709 11.108C13.3709 9.99716 12.6578 9.18182 11.3197 9.18182H9.13793V15ZM10.1919 12.1676V10.0625H11.1578C11.9476 10.0625 12.297 10.4886 12.297 11.108C12.297 11.7273 11.9476 12.1676 11.1635 12.1676H10.1919ZM15.4903 9.18182H14.4364V15H15.4903V9.18182Z" fill="#40A0FF"/>
<path d="M6.05859 19H4.67969L2.69141 20.2773V21.6055L4.5625 20.4102H4.60938V27H6.05859V19ZM10.8932 25.9062H9.64316L9.61582 26.3437C9.54941 27.4023 9.27207 28.4805 9.15879 28.9531H10.1119C10.2994 28.4609 10.733 27.3203 10.8424 26.3359L10.8932 25.9062ZM12.8615 27H18.3459V25.7891H14.8615V25.7344L16.2404 24.332C17.7951 22.8398 18.2248 22.1133 18.2248 21.2109C18.2248 19.8711 17.135 18.8906 15.5256 18.8906C13.9396 18.8906 12.8146 19.875 12.8146 21.3945H14.1936C14.1936 20.5781 14.7092 20.0664 15.5061 20.0664C16.2678 20.0664 16.8342 20.5312 16.8342 21.2852C16.8342 21.9531 16.4279 22.4297 15.6389 23.2305L12.8615 25.9531V27ZM23.0984 27.1094C24.8094 27.1094 26.0555 26.1289 26.0516 24.7773C26.0555 23.7773 25.4305 23.0586 24.3094 22.8984V22.8359C25.1766 22.6484 25.7586 22.0039 25.7547 21.1055C25.7586 19.8867 24.7195 18.8906 23.1219 18.8906C21.5672 18.8906 20.3641 19.8164 20.3328 21.1562H21.7273C21.7508 20.4844 22.3758 20.0664 23.1141 20.0664C23.8602 20.0664 24.3563 20.5195 24.3523 21.1914C24.3563 21.8906 23.7781 22.3555 22.95 22.3555H22.243V23.4727H22.95C23.9617 23.4727 24.5633 23.9805 24.5594 24.7031C24.5633 25.4102 23.95 25.8945 23.0945 25.8945C22.2898 25.8945 21.6688 25.4766 21.6336 24.8242H20.1648C20.2039 26.1758 21.4109 27.1094 23.0984 27.1094ZM27.5385 25.5156H31.3549V27H32.7377V25.5156H33.7611V24.3242H32.7377V19H30.933L27.5385 24.3633V25.5156ZM31.3705 24.3242H29.0229V24.2617L31.308 20.6406H31.3705V24.3242Z" fill="#975FE4"/>
</g>
<defs>
<clipPath id="clip0">
<rect width="36" height="36" fill="white"/>
</clipPath>
</defs>
</svg>
