<svg xmlns="http://www.w3.org/2000/svg" xmlns:xlink="http://www.w3.org/1999/xlink" version="1.1" x="0px" y="0px" viewBox="0 0 100 100" enable-background="new 0 0 100 100" xml:space="preserve"><path d="M88.3,30.9c0.6,0.7,1.2,1.5,1.7,2.3C89.5,32.4,88.9,31.7,88.3,30.9z"></path><path  d="M90,33.2c-0.5-0.8-1.1-1.6-1.7-2.3c-0.3-0.4-0.6-0.7-0.9-1.1c-0.6-0.7-1.3-1.4-2-2c-1.1-1-2.2-1.9-3.4-2.7  c-0.8-0.5-1.6-1-2.5-1.5c-0.9-0.5-1.7-0.9-2.6-1.3c-1.3-0.6-2.7-1-4.2-1.4c-1-0.2-1.9-0.4-2.9-0.6c-1.5-0.2-3-0.3-4.6-0.3  c-5.5,0-10.6,1.5-15,4c-4.4-2.6-9.5-4-15-4c-16.6,0-30,13.4-30,30s13.4,30,30,30c5.5,0,10.6-1.5,15-4c4.4,2.6,9.5,4,15,4  c1.6,0,3.1-0.1,4.6-0.3c1-0.2,2-0.4,2.9-0.6c1.4-0.4,2.8-0.8,4.2-1.4c0.9-0.4,1.8-0.8,2.6-1.3c0.9-0.5,1.7-1,2.5-1.5  c1.2-0.8,2.3-1.7,3.4-2.7c0.7-0.6,1.4-1.3,2-2c0.3-0.4,0.6-0.7,0.9-1.1c0.6-0.7,1.2-1.5,1.7-2.3c3.2-4.8,5.1-10.6,5.1-16.8  S93.3,38,90,33.2z M65.2,74c-3.4,0-6.7-0.7-9.6-2c5.9-5.5,9.6-13.3,9.6-22s-3.7-16.5-9.6-22  c2.9-1.3,6.2-2,9.6-2c13.2,0,24,10.8,24,24S78.4,74,65.2,74z"></path></svg>