<svg height='100px' width='100px'  fill="#000000" xmlns="http://www.w3.org/2000/svg" xmlns:xlink="http://www.w3.org/1999/xlink" version="1.1" x="0px" y="0px" viewBox="0 0 161.492 162.732" enable-background="new 0 0 161.492 162.732" xml:space="preserve"><g><path d="M134.321,64.321l-50.126,0.124c-0.676,0-1.219,0.59-1.219,1.322v9.193c0,0.731,0.543,1.321,1.219,1.321h5.509V87.01h-5.509   c-0.676,0-1.219,0.59-1.219,1.321v9.191c0,0.731,0.543,1.321,1.219,1.321h5.509v11.762h-5.509c-0.676,0-1.219,0.591-1.219,1.322   v9.193c0,0.731,0.543,1.321,1.219,1.321l50.126-0.131c5.03,0,9.11-4.08,9.11-9.114V73.431   C143.431,68.399,139.351,64.321,134.321,64.321z M114.698,113.68c0,1.206-0.902,2.182-2.015,2.182H98.681   c-1.112,0-2.015-0.976-2.015-2.182V98.489c0-1.206,0.902-2.182,2.015-2.182h14.002c1.112,0,2.015,0.976,2.015,2.182V113.68z    M114.698,89.182c0,1.21-0.902,2.186-2.015,2.186H98.681c-1.112,0-2.015-0.976-2.015-2.186V73.996c0-1.208,0.902-2.184,2.015-2.184   h14.002c1.112,0,2.015,0.975,2.015,2.184V89.182z M137.806,113.68c0,1.206-0.902,2.182-2.014,2.182H121.79   c-1.112,0-2.011-0.976-2.011-2.182V98.489c0-1.206,0.898-2.182,2.011-2.182h14.003c1.111,0,2.014,0.976,2.014,2.182V113.68z    M137.806,89.182c0,1.21-0.902,2.186-2.014,2.186H121.79c-1.112,0-2.011-0.976-2.011-2.186V73.996c0-1.208,0.898-2.184,2.011-2.184   h14.003c1.111,0,2.014,0.975,2.014,2.184V89.182z"></path><path d="M79.874,75.247l-6.896-0.002V64.308h6.031c0.671,0.002,1.217-0.588,1.217-1.322V42.039c0-0.734-0.545-1.324-1.219-1.322   l-50.644,0.051c-5.032,0-9.112,4.08-9.112,9.114v63.346c0,5.03,4.081,9.11,9.114,9.11h35.503c5.034,0,9.112-4.08,9.11-9.11v-2.393   h6.896c0.674,0,1.219-0.591,1.219-1.321v-9.191c0-0.731-0.545-1.322-1.217-1.322h-6.899V87.078l6.896,0.004   c0.674,0,1.219-0.59,1.219-1.321v-9.192C81.093,75.837,80.547,75.244,79.874,75.247z M42.906,113.576   c0,1.206-0.902,2.186-2.015,2.186H26.888c-1.112,0-2.014-0.976-2.01-2.186l-0.004-15.188c0-1.206,0.902-2.182,2.014-2.182h14.003   c1.112,0.003,2.013,0.976,2.015,2.186V113.576z M42.906,89.082c0,1.21-0.902,2.186-2.015,2.186H26.888   c-1.114,0-2.014-0.976-2.014-2.184V73.894c0-1.206,0.902-2.184,2.014-2.182h14.003c1.112,0,2.013,0.973,2.015,2.182V89.082z    M42.904,64.59c0.002,1.208-0.9,2.181-2.013,2.179H26.888c-1.112,0.002-2.014-0.971-2.012-2.179L24.874,49.4   c0-1.206,0.902-2.186,2.014-2.186h14.003c1.112,0,2.015,0.979,2.015,2.186L42.904,64.59z M66.014,113.576   c0,1.208-0.902,2.186-2.015,2.186H50.001c-1.117,0-2.017-0.978-2.015-2.186V98.392c-0.002-1.21,0.898-2.186,2.012-2.183l14-0.003   c1.114,0,2.017,0.976,2.015,2.184V113.576z M66.014,89.082c0,1.21-0.898,2.186-2.012,2.186H49.999   c-1.114,0-2.012-0.976-2.014-2.184l0.002-15.189c-0.002-1.208,0.898-2.182,2.015-2.182L64,71.711   c1.112-0.002,2.015,0.978,2.015,2.184V89.082z M66.012,64.59c0.002,1.208-0.9,2.183-2.013,2.183l-14-0.002   c-1.114-0.002-2.014-0.975-2.014-2.181l0.002-15.19c0-1.206,0.898-2.186,2.012-2.186h14.003c1.114,0,2.012,0.979,2.012,2.186   L66.012,64.59z"></path></g></svg>