<svg xmlns="http://www.w3.org/2000/svg" xmlns:xlink="http://www.w3.org/1999/xlink" version="1.1" x="0px" y="0px" viewBox="0 0 100 100" enable-background="new 0 0 100 100" xml:space="preserve"><path d="M46.5,46.5L33.688,46.5c-1.934,0-3.501,1.567-3.5,3.5c-0.001,1.933,1.566,3.5,3.5,3.5H46.5h7h12.812  c1.934,0,3.5-1.566,3.5-3.5s-1.566-3.5-3.5-3.5l-12.812,0L46.5,46.5z"></path><g><g><path d="M50,94.375C25.531,94.375,5.625,74.468,5.625,50C5.625,25.531,25.531,5.625,50,5.625    c24.468,0,44.375,19.906,44.375,44.375C94.375,74.468,74.468,94.375,50,94.375z M50,14.918c-19.344,0-35.082,15.738-35.082,35.082    c0,19.344,15.738,35.082,35.082,35.082c19.344,0,35.082-15.738,35.082-35.082C85.082,30.656,69.344,14.918,50,14.918z"></path></g></g></svg>