<?xml version="1.0" encoding="iso-8859-1"?>
<!-- Generator: Adobe Illustrator 19.0.0, SVG Export Plug-In . SVG Version: 6.00 Build 0)  -->
<svg version="1.1" id="Layer_1" xmlns="http://www.w3.org/2000/svg" xmlns:xlink="http://www.w3.org/1999/xlink" x="0px" y="0px"
	 viewBox="0 0 512 512" style="enable-background:new 0 0 512 512;" xml:space="preserve">
<path style="fill:#894BA2;" d="M10.352,511.99c-1.139,0-1.815-0.045-1.959-0.055c-4.648-0.347-8.135-4.394-7.79-9.042
	c0.345-4.63,4.34-8.113,8.988-7.793c0.358,0.02,17.032,0.783,35.994-12.094c25.769-17.499,44.185-52.15,53.252-100.204
	c5.027-26.638,8.971-54.02,12.785-80.499c7.035-48.836,13.678-94.962,26.074-129.243c14.691-40.628,36.541-60.377,66.799-60.377
	c25.198,0,44.758,13.367,59.801,40.867c12.733,23.278,21.534,54.962,30.851,88.504c13.421,48.318,28.633,103.085,58.967,144.712
	c34.285,47.049,82.979,69.92,148.866,69.92c4.662,0,8.439,3.778,8.439,8.439s-3.777,8.439-8.439,8.439
	c-71.664,0-124.821-25.14-162.507-76.858c-32.137-44.101-47.784-100.433-61.589-150.135c-18.159-65.374-32.501-117.01-74.389-117.01
	c-50.939,0-62.63,81.166-76.167,175.149c-3.839,26.658-7.81,54.223-12.905,81.223c-10.2,54.051-30.904,91.676-61.535,111.826
	C34.049,510.805,16.178,511.99,10.352,511.99z"/>
<path style="fill:#F77935;" d="M11.602,511.998c-1.678,0-2.678-0.033-2.893-0.04c-4.658-0.171-8.295-4.086-8.124-8.744
	c0.172-4.655,4.052-8.292,8.736-8.123l0,0c0.308,0.013,30.978,0.933,64.786-10.485c44.258-14.947,72.908-43.055,85.156-83.542
	c8.303-27.447,14.854-57.795,21.19-87.143c18.345-84.977,35.673-165.242,93.547-165.242c51.763,0,69.661,58.632,88.612,120.706
	c11.976,39.226,24.358,79.787,45.58,110.591c23.645,34.323,53.706,49.949,94.636,49.205c4.657-0.123,8.508,3.621,8.593,8.281
	s-3.623,8.508-8.283,8.593c-46.498,0.863-82.064-17.629-108.845-56.505c-22.702-32.956-35.472-74.785-47.822-115.239
	c-17.816-58.357-33.202-108.756-72.47-108.756c-44.25,0-60.181,73.796-77.049,151.927c-6.407,29.677-13.032,60.366-21.533,88.468
	c-13.774,45.531-47.12,78.321-96.434,94.822C48.166,511.084,20.454,511.998,11.602,511.998z"/>
<path style="fill:#FFDB56;" d="M12.655,512c-2.24,0-3.575-0.032-3.864-0.039c-4.659-0.125-8.334-4.003-8.209-8.663
	c0.125-4.659,4.061-8.334,8.662-8.209c0.597,0.012,43.289,0.953,90.437-10.604c27.399-6.715,50.913-16.273,69.892-28.406
	c23.201-14.832,39.635-33.609,48.847-55.807c14.583-35.14,23.796-86.269,33.549-140.401
	c19.035-105.633,38.717-214.863,104.566-214.863c54.883,0,71.302,86.231,88.686,177.524
	c14.086,73.975,28.651,150.469,62.794,175.837c3.741,2.779,4.521,8.065,1.742,11.807c-2.779,3.74-8.065,4.522-11.807,1.741
	c-39.427-29.293-54.618-109.074-69.309-186.226c-15.334-80.532-31.191-163.804-72.106-163.804
	c-22.377,0-40.481,19.657-55.347,60.094c-14.158,38.509-23.537,90.554-32.606,140.884c-9.92,55.054-19.29,107.054-34.572,143.877
	c-10.583,25.504-29.263,46.925-55.52,63.668c-20.599,13.136-45.887,23.418-75.163,30.557C61.773,511.103,24.521,512,12.655,512z"/>
<path style="fill:#808080;" d="M502.981,511.966H9.018c-4.662,0-8.439-3.778-8.439-8.439V8.439C0.579,3.778,4.356,0,9.018,0
	s8.439,3.778,8.439,8.439v486.649h485.524c4.662,0,8.439,3.778,8.439,8.439S507.643,511.966,502.981,511.966z"/>
<g>
</g>
<g>
</g>
<g>
</g>
<g>
</g>
<g>
</g>
<g>
</g>
<g>
</g>
<g>
</g>
<g>
</g>
<g>
</g>
<g>
</g>
<g>
</g>
<g>
</g>
<g>
</g>
<g>
</g>
</svg>
