<svg xmlns="http://www.w3.org/2000/svg" xmlns:xlink="http://www.w3.org/1999/xlink" width="100" height="100" viewBox="0 0 100 100"><g transform="translate(50 50) scale(-0.69 0.69) rotate(0) translate(-50 -50)" style="fill:#143f5b"><svg fill="#143f5b" xmlns="http://www.w3.org/2000/svg" xmlns:xlink="http://www.w3.org/1999/xlink" version="1.1" x="0px" y="0px" viewBox="0 0 100 100" enable-background="new 0 0 100 100" xml:space="preserve"><path d="M49.952,5C25.18,5,5.002,25.178,5.002,49.95c0,21.876,15.583,39.956,36.16,44.051c0.4-0.899,0.899-1.998,1.099-3.097  c-0.2-1.099-0.3-2.198-0.599-3.097c-0.999-3.196-2.198-6.393-3.396-9.589c-0.599-1.798-2.198-1.798-3.896-1.598  c-2.597,0.2-5.394,0.599-7.991,0.3c-3.996-0.4-4.895-2.098-4.795-6.093c0.1-1.099-0.2-2.697-0.899-3.496  c-1.398-1.398-0.899-2.397,0-3.596c-0.2,0-0.499-0.1-0.699-0.1c-0.1-0.999-0.599-2.098-0.4-2.997c0.4-2.198,0-2.997-2.198-3.796  c-0.699-0.2-1.299-0.4-1.998-0.799c-1.798-0.999-2.198-2.098-1.099-3.996c1.798-3.196,3.896-6.393,5.694-9.689  c0.599-0.999,0.4-2.597,0.4-3.896c0-1.398-0.699-2.997-0.4-4.395c0.799-2.797,1.698-5.594,2.897-8.191  c2.797-6.293,7.991-10.089,14.384-11.787c7.292-1.998,14.983-2.797,22.275-0.699c9.689,2.797,20.277,11.287,20.277,23.274  c0,3.996-0.899,8.291-2.597,11.887c-4.895,10.388-5.794,15.183-3.097,26.271c0,0,0,0.999,1.698,3.696c0,0,1.798,2.098,4.195,4.895  C89.107,75.222,95,63.235,95,49.95C94.902,25.178,74.725,5,49.952,5z M37.965,44.756l1.398-2.897c0.599,0,1.099,0,1.698,0  c0.599-0.1,1.099-0.2,1.598-0.3l1.898,2.597c1.199-0.499,2.497-0.999,3.496-1.898l-1.099-2.997c0.899-0.799,1.598-1.598,2.198-2.597  l3.196,0.599c0.599-1.199,0.899-2.497,1.199-3.796l-2.897-1.398c0-0.599,0-1.099,0-1.698c-0.1-0.599-0.2-1.099-0.3-1.598  l2.597-1.898c-0.499-1.199-0.999-2.497-1.898-3.496l-2.997,1.099c-0.799-0.899-1.598-1.598-2.597-2.198l0.599-3.196  c-1.199-0.599-2.497-0.899-3.796-1.199l-1.398,2.897c-0.599,0-1.099,0-1.698,0c-0.599,0.1-1.099,0.2-1.598,0.3l-1.898-2.597  c-1.199,0.499-2.497,0.999-3.496,1.898l1.099,2.997c-0.899,0.799-1.598,1.598-2.198,2.597l-3.196-0.599  c-0.599,1.199-0.899,2.497-1.199,3.796l2.897,1.398c0,0.599,0,1.099,0,1.698c0.1,0.599,0.2,1.099,0.3,1.598l-2.597,1.898  c0.499,1.199,0.999,2.497,1.898,3.496l2.997-1.099c0.799,0.899,1.598,1.598,2.597,2.198l-0.599,3.097  C35.268,44.157,36.667,44.556,37.965,44.756z M33.57,31.97c-0.3-3.496,2.297-6.693,5.893-6.992c3.496-0.3,6.693,2.297,6.992,5.893  c0.3,3.496-2.297,6.693-5.893,6.992C37.066,38.064,33.97,35.467,33.57,31.97z M47.954,40.761l3.296,3.596  c-0.1,0.3-0.2,0.499-0.3,0.799s-0.2,0.599-0.2,0.899l-4.695,1.099c-0.1,1.299,0.1,2.597,0.499,3.996l4.895,0.1  c0.2,0.499,0.499,0.999,0.799,1.398l-2.497,4.195c0.899,0.899,1.898,1.798,3.097,2.497l3.596-3.296c0.3,0.1,0.499,0.2,0.799,0.3  s0.599,0.2,0.899,0.2l1.199,4.695c1.299,0.1,2.597-0.1,3.996-0.499l0.1-4.895c0.499-0.2,0.999-0.499,1.398-0.799l4.195,2.497  c0.899-0.899,1.798-1.898,2.497-3.097l-3.496-3.596c0.1-0.3,0.2-0.499,0.3-0.799s0.2-0.599,0.2-0.899l4.695-1.199  c0.1-1.299-0.1-2.597-0.499-3.996l-4.895-0.1c-0.2-0.499-0.499-0.999-0.799-1.398l2.497-4.195c-0.899-0.899-1.898-1.798-3.097-2.497  l-3.596,3.296c-0.3-0.1-0.499-0.2-0.799-0.3s-0.599-0.2-0.899-0.2l-1.199-4.695c-1.299-0.1-2.597,0.1-3.996,0.499v5.094  c-0.499,0.2-0.999,0.499-1.398,0.799l-4.195-2.497C49.453,38.563,48.653,39.662,47.954,40.761z M54.547,46.055  c0.899-2.797,3.796-4.395,6.493-3.596c2.797,0.899,4.395,3.796,3.596,6.493c-0.899,2.797-3.796,4.395-6.493,3.596  C55.446,51.848,53.848,48.852,54.547,46.055z M54.547,23.879c-0.2,0.799-0.3,1.598-0.3,2.497l2.897,0.799c0,0.2,0.1,0.4,0.1,0.499  c0.1,0.2,0.1,0.4,0.2,0.499l-2.098,2.297c0.499,0.799,0.899,1.398,1.598,1.998l2.597-1.598c0.3,0.2,0.599,0.4,0.899,0.499l0.1,2.997  c0.799,0.2,1.598,0.3,2.497,0.3l0.799-2.897c0.2,0,0.4-0.1,0.499-0.1c0.2-0.1,0.4-0.1,0.499-0.2l2.297,2.098  c0.799-0.499,1.398-0.899,1.998-1.598l-1.598-2.597c0.2-0.3,0.4-0.599,0.499-0.899l2.997-0.1c0.2-0.799,0.3-1.598,0.3-2.497  l-2.897-0.699c0-0.2-0.1-0.4-0.1-0.499c-0.1-0.2-0.1-0.4-0.2-0.499l2.098-2.297c-0.499-0.799-0.899-1.398-1.598-1.998l-2.597,1.598  c-0.3-0.2-0.599-0.4-0.899-0.499l-0.1-2.997c-0.799-0.2-1.598-0.3-2.497-0.3l-0.799,2.897c-0.2,0-0.4,0.1-0.499,0.1  c-0.2,0.1-0.4,0.1-0.499,0.2l-2.198-2.098c-0.799,0.499-1.398,0.899-1.998,1.598l1.598,2.597c-0.2,0.3-0.4,0.599-0.499,0.899  L54.547,23.879z M61.839,22.781c1.798-0.499,3.596,0.499,4.095,2.297s-0.499,3.596-2.297,4.095  c-1.798,0.499-3.596-0.499-4.095-2.297C59.142,25.178,60.141,23.28,61.839,22.781z"></path></svg></g></svg>