<?xml version="1.0" standalone="no"?>
<!DOCTYPE svg PUBLIC "-//W3C//DTD SVG 20010904//EN"
 "http://www.w3.org/TR/2001/REC-SVG-20010904/DTD/svg10.dtd">
<svg version="1.0" xmlns="http://www.w3.org/2000/svg"
 width="251.000000pt" height="254.000000pt" viewBox="0 0 251.000000 254.000000"
 preserveAspectRatio="xMidYMid meet">
<metadata>
Created by potrace 1.15, written by Peter Selinger 2001-2017
</metadata>
<g transform="translate(0.000000,254.000000) scale(0.100000,-0.100000)"
fill="#000000" stroke="none">
<path d="M750 2025 l0 -325 -325 0 -325 0 0 -90 0 -90 325 0 325 0 0 -280 0
-280 -325 0 -325 0 0 -90 0 -90 325 0 325 0 0 -325 0 -325 90 0 90 0 0 325 0
325 280 0 280 0 0 -325 0 -325 90 0 90 0 0 325 0 325 325 0 325 0 0 90 0 90
-325 0 -325 0 0 280 0 280 325 0 325 0 0 90 0 90 -325 0 -325 0 0 325 0 325
-90 0 -90 0 0 -325 0 -325 -280 0 -280 0 0 325 0 325 -90 0 -90 0 0 -325z
m740 -785 l0 -280 -280 0 -280 0 0 280 0 280 280 0 280 0 0 -280z"/>
</g>
</svg>
