<svg width="36" height="36" viewBox="0 0 36 36" fill="none" xmlns="http://www.w3.org/2000/svg">
<circle cx="18" cy="18" r="15" fill="#FFDCD1"/>
<path d="M19.0002 21.8334C19.5473 21.8334 20.0892 21.9411 20.5947 22.1505C21.1002 22.3599 21.5595 22.6669 21.9464 23.0538C22.3334 23.4407 22.6403 23.9 22.8497 24.4055C23.0591 24.911 23.1668 25.4529 23.1668 26C23.1668 27.1051 22.7278 28.1649 21.9464 28.9463C21.165 29.7277 20.1052 30.1667 19.0002 30.1667C18.453 30.1667 17.9112 30.0589 17.4056 29.8495C16.9001 29.6401 16.4408 29.3332 16.0539 28.9463C15.2725 28.1649 14.8335 27.1051 14.8335 26C14.8335 24.895 15.2725 23.8352 16.0539 23.0538C16.8353 22.2724 17.8951 21.8334 19.0002 21.8334ZM19.2085 25.5834C19.0427 25.5834 18.8838 25.6492 18.7666 25.7664C18.6493 25.8836 18.5835 26.0426 18.5835 26.2084C18.5835 26.3741 18.6493 26.5331 18.7666 26.6503C18.8838 26.7675 19.0427 26.8334 19.2085 26.8334C19.3743 26.8334 19.5332 26.7675 19.6504 26.6503C19.7676 26.5331 19.8335 26.3741 19.8335 26.2084C19.8335 26.0426 19.7676 25.8836 19.6504 25.7664C19.5332 25.6492 19.3743 25.5834 19.2085 25.5834ZM19.0002 23.0834C18.7791 23.0834 18.5672 23.1712 18.4109 23.3275C18.2546 23.4837 18.1668 23.6957 18.1668 23.9167C18.1668 24.1377 18.2546 24.3497 18.4109 24.506C18.5672 24.6622 18.7791 24.75 19.0002 24.75C19.2212 24.75 19.4331 24.6622 19.5894 24.506C19.7457 24.3497 19.8335 24.1377 19.8335 23.9167C19.8335 23.6957 19.7457 23.4837 19.5894 23.3275C19.4331 23.1712 19.2212 23.0834 19.0002 23.0834ZM16.471 24.5417C16.2418 24.9375 16.3793 25.4459 16.7752 25.675C17.1752 25.9084 17.6835 25.7709 17.9168 25.375C18.146 24.9709 18.0085 24.4625 17.6085 24.2334C17.2127 24.0042 16.7085 24.1375 16.471 24.5417Z" fill="#FF8A65"/>
<path d="M7 17C7 16.3434 7.12933 15.6932 7.3806 15.0866C7.63188 14.48 8.00017 13.9288 8.46447 13.4645C8.92876 13.0002 9.47995 12.6319 10.0866 12.3806C10.6932 12.1293 11.3434 12 12 12C13.3261 12 14.5979 12.5268 15.5355 13.4645C16.4732 14.4021 17 15.6739 17 17C17 17.6566 16.8707 18.3068 16.6194 18.9134C16.3681 19.52 15.9998 20.0712 15.5355 20.5355C14.5979 21.4732 13.3261 22 12 22C10.6739 22 9.40215 21.4732 8.46447 20.5355C7.52678 19.5979 7 18.3261 7 17ZM11.5 16.75C11.5 16.9489 11.579 17.1397 11.7197 17.2803C11.8603 17.421 12.0511 17.5 12.25 17.5C12.4489 17.5 12.6397 17.421 12.7803 17.2803C12.921 17.1397 13 16.9489 13 16.75C13 16.5511 12.921 16.3603 12.7803 16.2197C12.6397 16.079 12.4489 16 12.25 16C12.0511 16 11.8603 16.079 11.7197 16.2197C11.579 16.3603 11.5 16.5511 11.5 16.75ZM8.5 17C8.5 17.2652 8.60536 17.5196 8.79289 17.7071C8.98043 17.8946 9.23478 18 9.5 18C9.76522 18 10.0196 17.8946 10.2071 17.7071C10.3946 17.5196 10.5 17.2652 10.5 17C10.5 16.7348 10.3946 16.4804 10.2071 16.2929C10.0196 16.1054 9.76522 16 9.5 16C9.23478 16 8.98043 16.1054 8.79289 16.2929C8.60536 16.4804 8.5 16.7348 8.5 17ZM10.25 20.035C10.725 20.31 11.335 20.145 11.61 19.67C11.89 19.19 11.725 18.58 11.25 18.3C10.765 18.025 10.155 18.19 9.88 18.67C9.605 19.145 9.765 19.75 10.25 20.035Z" fill="#FFA184"/>
<g clip-path="url(#clip0)">
<path d="M28.3296 15.4999C28.0013 16.0686 27.5642 16.567 27.0433 16.9667C26.5223 17.3664 25.9278 17.6596 25.2936 17.8296C24.6593 17.9995 23.9978 18.0429 23.3468 17.9572C22.6958 17.8714 22.0681 17.6584 21.4995 17.3301C20.351 16.667 19.513 15.5749 19.1698 14.294C18.8266 13.0131 19.0063 11.6483 19.6693 10.4999C19.9976 9.93129 20.4347 9.43288 20.9557 9.03316C21.4766 8.63344 22.0711 8.34024 22.7054 8.1703C23.9863 7.82708 25.351 8.00676 26.4995 8.6698C27.6479 9.33284 28.4859 10.4249 28.8291 11.7058C29.1723 12.9867 28.9926 14.3515 28.3296 15.4999ZM24.3075 13.4664C24.4069 13.2942 24.4339 13.0895 24.3824 12.8973C24.3309 12.7052 24.2052 12.5414 24.033 12.4419C23.8607 12.3425 23.656 12.3155 23.4638 12.367C23.2717 12.4185 23.1079 12.5442 23.0084 12.7164C22.909 12.8887 22.882 13.0934 22.9335 13.2855C22.985 13.4777 23.1107 13.6415 23.283 13.741C23.4552 13.8404 23.6599 13.8674 23.8521 13.8159C24.0442 13.7644 24.208 13.6387 24.3075 13.4664ZM27.0306 14.7499C27.1632 14.5202 27.1991 14.2473 27.1305 13.9911C27.0618 13.7349 26.8942 13.5165 26.6645 13.3839C26.4348 13.2513 26.1619 13.2154 25.9057 13.284C25.6495 13.3526 25.4311 13.5202 25.2985 13.7499C25.1659 13.9796 25.13 14.2526 25.1986 14.5087C25.2672 14.7649 25.4348 14.9833 25.6645 15.116C25.8942 15.2486 26.1672 15.2845 26.4233 15.2159C26.6795 15.1472 26.8979 14.9796 27.0306 14.7499ZM27.0325 11.2465C26.7586 10.7709 26.1479 10.6088 25.6722 10.8826C25.1897 11.1583 25.0276 11.7691 25.299 12.2491C25.5815 12.7298 26.1923 12.8919 26.6704 12.6137C27.1461 12.3398 27.31 11.7359 27.0325 11.2465Z" fill="#FFA184"/>
</g>
<defs>
<clipPath id="clip0">
<rect width="12" height="12" fill="white" transform="translate(32.1958 10.8038) rotate(120)"/>
</clipPath>
</defs>
</svg>
