<?xml version="1.0" encoding="utf-8"?>
<!-- Generator: Adobe Illustrator 16.0.3, SVG Export Plug-In . SVG Version: 6.00 Build 0)  -->
<!DOCTYPE svg PUBLIC "-//W3C//DTD SVG 1.1//EN" "http://www.w3.org/Graphics/SVG/1.1/DTD/svg11.dtd">
<svg version="1.1" id="Layer_1" xmlns="http://www.w3.org/2000/svg" xmlns:xlink="http://www.w3.org/1999/xlink" x="0px" y="0px"
	 width="612px" height="505.475px" viewBox="0 109.105 612 505.475" enable-background="new 0 109.105 612 505.475"
	 xml:space="preserve">
<path opacity="0.6" fill="#15B994" enable-background="new    " d="M354.328,159.224c0,0.656,0,1.313,0,1.968l0,0l0,0
	c0,13.775-0.656,32.798-6.559,32.798c-4.592,1.968-9.184,3.936-13.775,6.56c-5.248,7.871-10.495,13.119-19.022,13.119
	c-3.28,0-5.903,0.655-9.184,1.312c-120.694,67.563-194.161,179.073-210.56,314.199c0.656,11.808,0.656,23.614,0,34.765h13.775
	c-5.248-106.264,72.154-185.633,127.254-271.563c3.28,11.808,1.968,24.271-0.656,35.422
	c-4.591,89.209-28.206,192.849-102.984,236.141h131.19c6.56-24.926,19.678-49.852,38.045-74.777
	c45.917-65.595,118.071-111.512,150.868-190.226c0,85.273-39.357,163.987-85.273,236.142c-9.839,9.84-8.527,19.022-5.248,28.861
	h7.216c24.927-44.604,44.604-89.209,70.187-133.813c6.56,50.508-17.711,101.016-54.443,133.813h182.354V159.88L354.328,159.224
	L354.328,159.224z"/>
<path opacity="0.6" fill="#0C4BA2" enable-background="new    " d="M332.026,451.121c-22.958-94.457-28.206-192.193-24.927-291.897
	H186.406c24.27,47.229,41.325,99.048,51.82,152.181c0.656-6.56,0-12.463-1.968-19.022c1.312,6.56,1.968,12.463,1.968,19.022
	c15.087,78.058,13.119,159.395-8.527,234.829c-0.656,5.903-1.968,11.808-2.624,17.711h26.894c1.968-7.216,4.592-14.431,6.56-21.646
	c1.312-9.183,4.591-19.022,7.215-28.206c2.624-12.463,4.592-25.582,5.248-38.7c-1.312-5.248-1.968-11.151-1.968-17.055
	c-0.656-4.592-1.312-9.84-1.312-15.087c0.656,0.656,0.656,1.968,1.312,2.623c0-0.655,0-1.967,0-2.623c0,1.312,0,2.623,0.656,3.936
	c1.312,1.968,1.968,4.592,2.624,6.56c6.56,15.743,13.119,30.829,20.334,46.572c2.624-3.936,5.248-7.216,7.872-11.151
	C311.036,475.391,321.531,462.928,332.026,451.121z"/>
<path opacity="0.6" fill="#0C4BA2" enable-background="new    " d="M48,159.224v404.064h38.701
	c11.807-137.093,7.872-278.778,83.962-404.064C170.007,159.224,48,159.224,48,159.224z"/>
<line fill="none" stroke="#CCCCCC" stroke-miterlimit="10" x1="48" y1="154.632" x2="322.188" y2="154.632"/>
<line fill="none" stroke="#CCCCCC" stroke-miterlimit="10" x1="353.017" y1="154.632" x2="568.168" y2="154.632"/>
<line fill="none" stroke="#CCCCCC" stroke-miterlimit="10" x1="48" y1="292.381" x2="219.203" y2="292.381"/>
<line fill="none" stroke="#CCCCCC" stroke-miterlimit="10" x1="235.602" y1="292.381" x2="568.168" y2="292.381"/>
<line fill="none" stroke="#CCCCCC" stroke-miterlimit="10" x1="48" y1="426.195" x2="105.068" y2="426.195"/>
<line fill="none" stroke="#CCCCCC" stroke-miterlimit="10" x1="118.843" y1="426.195" x2="568.168" y2="426.195"/>
<line fill="none" stroke="#CCCCCC" stroke-miterlimit="10" x1="48" y1="567.224" x2="118.843" y2="567.224"/>
<line fill="none" stroke="#CCCCCC" stroke-miterlimit="10" x1="377.942" y1="567.224" x2="568.168" y2="567.224"/>
<line fill="none" stroke="#CCCCCC" stroke-miterlimit="10" x1="128.682" y1="567.224" x2="263.151" y2="567.224"/>
<line fill="none" stroke="#CCCCCC" stroke-miterlimit="10" x1="271.679" y1="567.224" x2="370.071" y2="567.224"/>
<path opacity="0.6" fill="#4EAD56" enable-background="new    " d="M259.872,541.642c2.624-9.183,5.247-19.022,7.215-28.206
	C264.463,522.619,261.84,531.803,259.872,541.642z"/>
<path opacity="0.6" fill="#4EAD56" enable-background="new    " d="M362.855,563.288h3.936v-4.592
	c-1.967-4.592-3.936-9.839-5.903-14.431C358.92,550.825,360.232,556.729,362.855,563.288z"/>
<path opacity="0.6" fill="#2A95D3" enable-background="new    " d="M301.853,488.51c-2.624,3.936-5.248,7.216-7.872,11.151
	c9.839,20.99,19.679,42.637,30.83,63.627h37.389c-2.623-6.56-3.936-12.463-1.312-19.022c-11.807-30.83-21.646-61.659-28.861-93.145
	C321.531,462.928,311.036,475.391,301.853,488.51z"/>
<path opacity="0.6" fill="#4EAD56" enable-background="new    " d="M270.367,445.217c-0.656-0.655-0.656-1.967-1.312-2.623
	C269.711,443.905,270.367,444.562,270.367,445.217C270.367,445.873,270.367,445.873,270.367,445.217z"/>
<path opacity="0.6" fill="#4EAD56" enable-background="new    " d="M270.367,445.873c-0.656-1.312-0.656-1.968-1.312-3.279
	c0,5.247,0.656,9.839,1.312,15.086C270.367,453.744,270.367,449.809,270.367,445.873z"/>
<path opacity="0.6" fill="#15B994" enable-background="new    " d="M347.77,193.333c5.902,0,6.559-19.022,6.559-32.798
	c-7.871,11.808-13.119,28.206-20.334,39.357C338.586,197.925,343.178,195.301,347.77,193.333z"/>
<path opacity="0.6" fill="#15B994" enable-background="new    " d="M333.994,199.893c7.215-11.151,12.463-27.55,20.334-39.357
	c0-0.655,0-1.312,0-1.967h-0.656c-9.839,25.581-27.549,42.636-48.54,55.1h0.656C314.972,209.076,324.154,204.484,333.994,199.893z"
	/>
<path opacity="0.6" fill="#15B994" enable-background="new    " d="M314.972,213.012c7.871,0,13.774-5.248,19.022-13.119
	c-9.84,4.592-19.022,9.184-27.55,14.431C309.068,213.668,312.348,213.668,314.972,213.012z"/>
<path opacity="0.6" fill="#0EA996" enable-background="new    " d="M236.258,291.726c0,11.151,0,23.614-0.656,35.421
	C238.226,315.995,239.537,304.188,236.258,291.726z"/>
</svg>
