<svg xmlns="http://www.w3.org/2000/svg" xmlns:xlink="http://www.w3.org/1999/xlink" version="1.1" x="0px" y="0px" viewBox="0 0 100 100" enable-background="new 0 0 100 100" xml:space="preserve"><g><path d="M79.079,21.158H67.657v-2.474c0-1.104-0.895-2-2-2H58.71V14.21c0-1.104-0.895-2-2-2H43.289c-1.104,0-2,0.895-2,2v2.474   h-6.947c-1.104,0-2,0.895-2,2v2.474H20.921c-1.104,0-2,0.895-2,2V85.79c0,1.104,0.895,2,2,2h58.158c1.104,0,2-0.895,2-2V23.158   C81.079,22.054,80.183,21.158,79.079,21.158z M45.289,16.21h9.422v2.474v2.474h-9.422v-2.474V16.21z M77.079,83.79H22.921V25.158   h9.422v6.947c0,1.104,0.895,2,2,2h31.315c1.104,0,2-0.895,2-2v-6.947h9.422V83.79z"></path></g></svg>