<svg xmlns="http://www.w3.org/2000/svg" xmlns:xlink="http://www.w3.org/1999/xlink" version="1.1" x="0px" y="0px" viewBox="0 0 90 90" style="enable-background:new 0 0 90 90;" xml:space="preserve"><g><g><path fill="#143F5B" d="M13.1,17.1v41c0,1.9,1.5,3.4,3.4,3.4h13.6v13.6c0,1.9,1.5,3.4,3.4,3.4h41c1.9,0,3.4-1.5,3.4-3.4V48c0-1.9-1.5-3.4-3.4-3.4    H47.2V17.1c0-1.9-1.5-3.4-3.4-3.4H16.5C14.7,13.7,13.1,15.3,13.1,17.1z M35.8,50.3h36.5v22.7H35.8V50.3z M18.8,19.4h22.7v25.1    h-7.9c-1.9,0-3.4,1.5-3.4,3.4v7.9H18.8V19.4z M68.5,39.3l9.5-9.5h-6.9c0-8.9-7.2-16.1-16.1-16.1v5.4c5.9,0,10.7,4.8,10.7,10.7    h-6.6L68.5,39.3z"></path></g></g></svg>