<svg xmlns="http://www.w3.org/2000/svg" xmlns:xlink="http://www.w3.org/1999/xlink" version="1.1" x="0px" y="0px" viewBox="0 0 100 100" style="enable-background:new 0 0 100 100;" xml:space="preserve"><path d="M84.5,22.5c4.1,0,7.4,3.3,7.4,7.4v41.4c0,4.1-3.3,7.4-7.4,7.4H15.9c-4.1,0-7.4-3.3-7.4-7.4V29.9c0-4.1,3.3-7.4,7.4-7.4H84.5   M84.5,19.2H15.9C10,19.2,5.2,24,5.2,29.9v41.4C5.2,77.2,10,82,15.9,82h68.6c5.9,0,10.7-4.8,10.7-10.7V29.9  C95.2,24,90.4,19.2,84.5,19.2L84.5,19.2z" fill="#143F5B"/><path d="M84,81.9H16.3c-6.1,0-11.1-5-11.1-11.1V30.4c0-6.1,5-11.1,11.1-11.1H84c6.1,0,11.1,5,11.1,11.1v40.4  C95.1,76.9,90.1,81.9,84,81.9z M16.3,22.5c-4.3,0-7.9,3.5-7.9,7.9v40.4c0,4.3,3.5,7.9,7.9,7.9H84c4.3,0,7.9-3.5,7.9-7.9V30.4  c0-4.3-3.5-7.9-7.9-7.9H16.3z" fill="#143F5B"/><path d="M42.9,42v17.2c0,0.9,1,1.4,1.7,0.9L57,51.2c0.7-0.5,0.7-1.6-0.1-2.1l-12.3-8C43.8,40.6,42.9,41.1,42.9,42z" fill="#2c9e76"/></svg>