<svg width="36" height="36" viewBox="0 0 36 36" fill="none" xmlns="http://www.w3.org/2000/svg">
<path d="M2.39535 14.5922L17.5 3.61803L32.6046 14.5922L26.8352 32.3488H8.16481L2.39535 14.5922Z" fill="#ECF6FF" stroke="#ECF6FF"/>
<line x1="17.4069" y1="18.7094" x2="27.4069" y2="32.7094" stroke="#C6E3FF"/>
<line x1="17.5" y1="19" x2="17.5" y2="3" stroke="#C6E3FF"/>
<line x1="16.8787" y1="18.5149" x2="32.8787" y2="14.5149" stroke="#C6E3FF"/>
<line x1="16.8712" y1="18.4831" x2="1.87117" y2="14.4831" stroke="#C6E3FF"/>
<line x1="17.4206" y1="18.2704" x2="8.42059" y2="32.2704" stroke="#C6E3FF"/>
<path d="M17.5 9L2.5 14.5L12.5 25L21 23V17.5L17.5 9Z" fill="#40A0FF" fill-opacity="0.5"/>
<path d="M25.5 29.5H10L8.5 16L17.5 12.5L30 15L25.5 29.5Z" fill="#40A0FF" fill-opacity="0.5"/>
<path d="M26 16L17.5 7.5L9.5 16.5L13.5 24.5L23 26L26 16Z" fill="#40A0FF" fill-opacity="0.5"/>
</svg>
