<svg height='100px' width='100px'  fill="#143f5b" xmlns="http://www.w3.org/2000/svg" xmlns:xlink="http://www.w3.org/1999/xlink" version="1.1" x="0px" y="0px" viewBox="0 0 48 48" style="enable-background:new 0 0 48 48;" xml:space="preserve"><path d="M24,5.6660156C13.890625,5.6660156,5.6660156,13.890625,5.6660156,24S13.890625,42.3339844,24,42.3339844  S42.3339844,34.109375,42.3339844,24S34.109375,5.6660156,24,5.6660156z M24,40.3339844  c-9.0063477,0-16.3339844-7.3271484-16.3339844-16.3339844c0-9.0063477,7.3276367-16.3339844,16.3339844-16.3339844  c9.0068359,0,16.3339844,7.3276367,16.3339844,16.3339844C40.3339844,33.0068359,33.0068359,40.3339844,24,40.3339844z   M38.0410156,23.2929688l-4.3339844-4.3339844c-0.390625-0.390625-1.0234375-0.390625-1.4140625,0s-0.390625,1.0234375,0,1.4140625  L34.9199219,23h-7.9296875C26.5683594,21.7456055,25.3945312,20.8330078,24,20.8330078  c-1.7460938,0-3.1669922,1.4208984-3.1669922,3.1669922S22.2539062,27.1669922,24,27.1669922  c1.3945312,0,2.5683594-0.9121094,2.9902344-2.1669922h7.9296875l-2.6269531,2.6269531  c-0.390625,0.390625-0.390625,1.0234375,0,1.4140625C32.4882812,29.2363281,32.7441406,29.3339844,33,29.3339844  s0.5117188-0.0976562,0.7070312-0.2929688l4.3339844-4.3339844C38.4316406,24.3164062,38.4316406,23.6835938,38.0410156,23.2929688z   M24,25.1669922c-0.6435547,0-1.1669922-0.5234375-1.1669922-1.1669922S23.3564453,22.8330078,24,22.8330078  S25.1669922,23.3564453,25.1669922,24S24.6435547,25.1669922,24,25.1669922z"></path></svg>