<?xml version="1.0" encoding="utf-8"?>
<!-- Generator: Adobe Illustrator 19.1.1, SVG Export Plug-In . SVG Version: 6.00 Build 0)  -->
<svg version="1.1" id="Layer_1" xmlns="http://www.w3.org/2000/svg" xmlns:xlink="http://www.w3.org/1999/xlink" x="0px" y="0px"
	 viewBox="290 -306 612 645" style="enable-background:new 290 -306 612 645;" xml:space="preserve">
<style type="text/css">
	.st0{fill:none;stroke:#000000;stroke-width:2;stroke-miterlimit:10;}
	.st1{clip-path:url(#SVGID_2_);fill:none;}
	.st2{clip-path:url(#SVGID_4_);fill:#15B994;}
	.st3{clip-path:url(#SVGID_6_);fill:none;}
	.st4{clip-path:url(#SVGID_8_);fill:none;}
	.st5{clip-path:url(#SVGID_10_);fill:#0C4BA2;}
	.st6{clip-path:url(#SVGID_12_);fill:none;}
	.st7{clip-path:url(#SVGID_14_);fill:#05142A;}
	.st8{clip-path:url(#SVGID_16_);fill:none;}
	.st9{clip-path:url(#SVGID_18_);fill:none;}
	.st10{clip-path:url(#SVGID_20_);fill:#5BE8C3;}
	.st11{clip-path:url(#SVGID_22_);fill:none;}
	.st12{clip-path:url(#SVGID_24_);fill:#1C3A4C;}
	.st13{clip-path:url(#SVGID_26_);fill:none;}
	.st14{clip-path:url(#SVGID_28_);fill:none;}
	.st15{clip-path:url(#SVGID_30_);fill:#239DF9;}
	.st16{clip-path:url(#SVGID_32_);fill:none;}
	.st17{clip-path:url(#SVGID_34_);fill:#94D9F8;}
	.st18{clip-path:url(#SVGID_36_);fill:none;}
	.st19{clip-path:url(#SVGID_38_);fill:none;}
	.st20{clip-path:url(#SVGID_40_);fill:#307EC2;}
	.st21{fill:none;stroke:#000000;stroke-width:5;stroke-miterlimit:10;}
</style>
<circle class="st0" cx="602.2" cy="6.1" r="214.8"/>
<g>
	<g>
		<g>
			<defs>
				<circle id="SVGID_1_" cx="596.6" cy="6.5" r="305.4"/>
			</defs>
			<clipPath id="SVGID_2_">
				<use xlink:href="#SVGID_1_"  style="overflow:visible;"/>
			</clipPath>
			<line class="st1" x1="914.6" y1="-329.8" x2="914.6" y2="6.5"/>
		</g>
		<g>
			<defs>
				<circle id="SVGID_3_" cx="596.6" cy="6.5" r="305.4"/>
			</defs>
			<clipPath id="SVGID_4_">
				<use xlink:href="#SVGID_3_"  style="overflow:visible;"/>
			</clipPath>
			<polyline class="st2" points="596.6,6.5 596.6,-329.8 914.6,-329.8 			"/>
		</g>
	</g>
	<g>
		<g>
			<g>
				<defs>
					<circle id="SVGID_5_" cx="595.4" cy="6.5" r="305.4"/>
				</defs>
				<clipPath id="SVGID_6_">
					<use xlink:href="#SVGID_5_"  style="overflow:visible;"/>
				</clipPath>
				<line class="st3" x1="271.7" y1="337" x2="277.5" y2="0.9"/>
			</g>
		</g>
		<g>
			<g>
				<g>
					<defs>
						<circle id="SVGID_7_" cx="595.4" cy="7.7" r="273.8"/>
					</defs>
					<clipPath id="SVGID_8_">
						<use xlink:href="#SVGID_7_"  style="overflow:visible;"/>
					</clipPath>
					<line class="st4" x1="1009.7" y1="-16.2" x2="802.9" y2="203.3"/>
				</g>
				<g>
					<defs>
						<circle id="SVGID_9_" cx="595.4" cy="7.7" r="273.8"/>
					</defs>
					<clipPath id="SVGID_10_">
						<use xlink:href="#SVGID_9_"  style="overflow:visible;"/>
					</clipPath>
					<polyline class="st5" points="595.4,7.7 802.2,-211.7 1009.7,-16.2 					"/>
				</g>
			</g>
		</g>
	</g>
</g>
<g>
	<g>
		<g>
			<defs>
				<circle id="SVGID_11_" cx="596.6" cy="6.9" r="220.2"/>
			</defs>
			<clipPath id="SVGID_12_">
				<use xlink:href="#SVGID_11_"  style="overflow:visible;"/>
			</clipPath>
			<line class="st6" x1="853.5" y1="220.2" x2="611.4" y2="235.8"/>
		</g>
		<g>
			<defs>
				<circle id="SVGID_13_" cx="596.6" cy="6.9" r="220.2"/>
			</defs>
			<clipPath id="SVGID_14_">
				<use xlink:href="#SVGID_13_"  style="overflow:visible;"/>
			</clipPath>
			<polyline class="st7" points="596.6,6.9 838.8,-8.6 853.5,220.2 			"/>
		</g>
	</g>
	<g>
		<g>
			<g>
				<defs>
					<path id="SVGID_15_" d="M373.7,13.5c-4.8-121.6,91.2-223.9,214.3-228.7s226.7,90,231.6,211.6s-91.2,223.9-214.3,228.7
						C482.2,229.8,378.6,135.1,373.7,13.5z"/>
				</defs>
				<clipPath id="SVGID_16_">
					<use xlink:href="#SVGID_15_"  style="overflow:visible;"/>
				</clipPath>
				<line class="st8" x1="342.1" y1="-214.9" x2="587.6" y2="-224.2"/>
			</g>
		</g>
		<g>
			<g>
				<g>
					<defs>
						<path id="SVGID_17_" d="M748.6,132.2c-71.1,83.5-197.4,94.2-282,23.9s-95.5-194.9-24.4-278.4s197.4-94.2,282-23.9
							S819.7,48.7,748.6,132.2z"/>
					</defs>
					<clipPath id="SVGID_18_">
						<use xlink:href="#SVGID_17_"  style="overflow:visible;"/>
					</clipPath>
					<line class="st9" x1="629.9" y1="302.5" x2="461.3" y2="162.4"/>
				</g>
				<g>
					<defs>
						<path id="SVGID_19_" d="M748.6,132.2c-71.1,83.5-197.4,94.2-282,23.9s-95.5-194.9-24.4-278.4s197.4-94.2,282-23.9
							S819.7,48.7,748.6,132.2z"/>
					</defs>
					<clipPath id="SVGID_20_">
						<use xlink:href="#SVGID_19_"  style="overflow:visible;"/>
					</clipPath>
					<polyline class="st10" points="595.5,4.9 764.1,145 629.9,302.5 					"/>
				</g>
			</g>
		</g>
	</g>
</g>
<g>
	<g>
		<g>
			<defs>
				<circle id="SVGID_21_" cx="596" cy="7" r="140.7"/>
			</defs>
			<clipPath id="SVGID_22_">
				<use xlink:href="#SVGID_21_"  style="overflow:visible;"/>
			</clipPath>
			<line class="st11" x1="468.7" y1="177.7" x2="450.6" y2="24"/>
		</g>
		<g>
			<defs>
				<circle id="SVGID_23_" cx="596" cy="7" r="140.7"/>
			</defs>
			<clipPath id="SVGID_24_">
				<use xlink:href="#SVGID_23_"  style="overflow:visible;"/>
			</clipPath>
			<polyline class="st12" points="596,7 614.1,160.7 468.7,177.7 			"/>
		</g>
	</g>
	<g>
		<g>
			<g>
				<defs>
					<path id="SVGID_25_" d="M584.4-135c77.4-7,145.9,50.7,152.9,129c7.1,78.3-49.8,147.6-127.1,154.7s-145.9-50.6-152.9-129
						C450.1-58.5,507.1-127.8,584.4-135z"/>
				</defs>
				<clipPath id="SVGID_26_">
					<use xlink:href="#SVGID_25_"  style="overflow:visible;"/>
				</clipPath>
				<line class="st13" x1="729" y1="-162.7" x2="743.2" y2="-6.5"/>
			</g>
		</g>
		<g>
			<g>
				<g>
					<defs>
						<path id="SVGID_27_" d="M521.3,108c-55.7-42.6-66.7-122.7-24.7-179s121.1-67.4,176.7-24.8c55.5,42.6,66.6,122.7,24.6,179
							C656,139.4,576.8,150.6,521.3,108z"/>
					</defs>
					<clipPath id="SVGID_28_">
						<use xlink:href="#SVGID_27_"  style="overflow:visible;"/>
					</clipPath>
					<line class="st14" x1="408.8" y1="38.1" x2="492.4" y2="-74.1"/>
				</g>
				<g>
					<defs>
						<path id="SVGID_29_" d="M521.3,108c-55.7-42.6-66.7-122.7-24.7-179s121.1-67.4,176.7-24.8c55.5,42.6,66.6,122.7,24.6,179
							C656,139.4,576.8,150.6,521.3,108z"/>
					</defs>
					<clipPath id="SVGID_30_">
						<use xlink:href="#SVGID_29_"  style="overflow:visible;"/>
					</clipPath>
					<polyline class="st15" points="597.2,6.1 513.6,118.3 408.8,38.1 					"/>
				</g>
			</g>
		</g>
	</g>
</g>
<g>
	<g>
		<g>
			<defs>
				<circle id="SVGID_31_" cx="597.2" cy="6.8" r="87.7"/>
			</defs>
			<clipPath id="SVGID_32_">
				<use xlink:href="#SVGID_31_"  style="overflow:visible;"/>
			</clipPath>
			<line class="st16" x1="487" y1="-67.4" x2="582.2" y2="-83.2"/>
		</g>
		<g>
			<defs>
				<circle id="SVGID_33_" cx="597.2" cy="6.8" r="87.7"/>
			</defs>
			<clipPath id="SVGID_34_">
				<use xlink:href="#SVGID_33_"  style="overflow:visible;"/>
			</clipPath>
			<polyline class="st17" points="597.2,6.8 502,22.7 487,-67.4 			"/>
		</g>
	</g>
	<g>
		<g>
			<g>
				<defs>
					<path id="SVGID_35_" d="M685.2-4.7c6.8,48-27.1,92.4-75.7,99.1c-48.6,6.8-93.4-26.5-100.2-74.5c-6.8-48,27.1-92.4,75.7-99.1
						C633.6-86,678.5-52.7,685.2-4.7z"/>
				</defs>
				<clipPath id="SVGID_36_">
					<use xlink:href="#SVGID_35_"  style="overflow:visible;"/>
				</clipPath>
				<line class="st18" x1="706.9" y1="84.4" x2="610.1" y2="97.9"/>
			</g>
		</g>
		<g>
			<g>
				<g>
					<defs>
						<path id="SVGID_37_" d="M532.1-36.8c24.8-35.9,74.4-45.2,110.7-20.8s45.6,73.4,20.8,109.3S589.2,97,552.9,72.5
							C516.6,48,507.2-0.8,532.1-36.8z"/>
					</defs>
					<clipPath id="SVGID_38_">
						<use xlink:href="#SVGID_37_"  style="overflow:visible;"/>
					</clipPath>
					<line class="st19" x1="572.2" y1="-108.9" x2="644.6" y2="-60.1"/>
				</g>
				<g>
					<defs>
						<path id="SVGID_39_" d="M532.1-36.8c24.8-35.9,74.4-45.2,110.7-20.8s45.6,73.4,20.8,109.3S589.2,97,552.9,72.5
							C516.6,48,507.2-0.8,532.1-36.8z"/>
					</defs>
					<clipPath id="SVGID_40_">
						<use xlink:href="#SVGID_39_"  style="overflow:visible;"/>
					</clipPath>
					<polyline class="st20" points="597.8,7.5 525.4,-41.2 572.2,-108.9 					"/>
				</g>
			</g>
		</g>
	</g>
</g>
<circle class="st21" cx="596.6" cy="6.5" r="305.4"/>
</svg>
