<svg width="512" height="512" xmlns="http://www.w3.org/2000/svg">

 <g>
  <title>background</title>
  <rect fill="none" id="canvas_background" height="402" width="582" y="-1" x="-1"/>
 </g>
 <g>
  <title>Layer 1</title>
  <g id="svg_1">
   <path id="svg_3" d="m320.40159,133.5375l0,0l99.024,0l-95.999,-96.45l-3.025,-3.032m-5.08,-17.397l0.048,0l0.108,0l0.036,0l0.048,0l0.032,0l0.036,0l0.116,0l0.017,0.018l0.096,0.021l0,0l0.088,0l0,0l0.097,0.017l0.017,0l0.088,0.021l0,0l0,0l0.04,0l0.024,0l0.04,0l0.056,0.028l0.068,0.01l0.036,0l0.024,0l0.056,0.02l0.081,0.028l0.016,0l0.02,0l0.076,0.028l0.057,0l0.02,0.03l0.037,0l0.128,0.039l0.017,0.018l0.096,0.04l0,0l0.057,0l0.023,0.018l0.036,0.018l0.036,0l0.024,0l0.056,0.048l0.017,0l0.032,0.008l0.048,0.02l0.032,0l0.036,0.052l0.028,0l0.04,0.018l0.048,0.021l0,0l0.016,0.018l0.097,0.056l0.04,0l0.016,0.02l0.068,0.018l0,0.02l0.097,0.058l0,0l0.048,0.038l0.021,0l0.017,0l0.115,0.076l0.021,0.02l0.048,0.02l0.017,0.038l0.021,0l0.02,0l0.048,0.036l0.021,0l0.008,0.038l0.036,0.021l0.024,0l0,0.018l0.056,0.04l0.165,0.114l0.027,0.048l0.049,0.03l0,0l0.088,0.056l0.016,0.028l0.049,0.028l0.04,0.05l0.008,0.038l0.028,0.03l0.04,0.038l116.332,116.839l0,0.02l0.056,0.066l0.021,0l0.027,0.03l0.032,0.046l0,0l0.036,0.05l0.021,0.03l0.04,0l0.036,0.084l0.044,0.03l0.024,0.018l0.016,0.03l0.04,0.038l0,0.018l0.04,0.04l0,0.018l0.024,0.038l0.048,0.038l0,0l0.04,0.076l0.04,0.038l0.032,0.038l0.009,0l0.016,0.038l0.02,0.04l0,0.018l0.037,0.058l0,0l0.04,0.038l0.02,0.038l0.048,0.076l0.013,0.02l0,0.018l0.044,0.06l0,0.018l0.028,0.048l0,0.03l0.04,0.028l0,0.039l0,0.018l0.16,0.278l0,0.038l0,0.02l0.04,0.058l0,0.018l0.021,0.038l0.02,0.056l0,0l0.017,0.058l0,0.02l0.012,0.038l0.044,0.114l0,0l0.024,0.06l0.036,0.132l0.02,0.05l0,0.038l0,0.008l0.049,0.066l0,0.02l0,0.058l0,0.048l0,0l0.064,0.438l0,0.058l0.048,0.346l0,0.047l0,0.152l0,351.069c0,2.806 -2.264,5.052 -5.076,5.052l-348.841,0c-2.813,0 -5.106,-2.246 -5.106,-5.052l0,-467.946c0,-2.812 2.293,-5.066 5.106,-5.066l232.501,0zm-121.527,445.575l-12.303,0l-25.206,0l-12.287,0l49.796,0zm17.18,-159.593l0,0c-1.555,0 -3.136,-0.563 -4.378,-1.73l-57.74,-54.663c-0.066,-0.058 -0.145,-0.116 -0.183,-0.174c-0.51,-0.523 -0.923,-1.107 -1.2,-1.71c-0.441,-0.861 -0.634,-1.804 -0.634,-2.724c-0.02,-0.955 0.193,-1.912 0.634,-2.781c0.307,-0.622 0.69,-1.215 1.2,-1.711c0.086,-0.058 0.116,-0.116 0.183,-0.154l57.74,-54.681c2.556,-2.4 6.567,-2.314 8.997,0.228c2.417,2.524 2.323,6.541 -0.241,8.95l-52.925,50.131l52.925,50.113c2.564,2.406 2.658,6.41 0.241,8.949c-1.258,1.298 -2.927,1.957 -4.619,1.957zm92.465,0c-1.682,0 -3.351,-0.659 -4.599,-1.957c-2.428,-2.539 -2.303,-6.543 0.232,-8.949l52.939,-50.113l-52.939,-50.131c-2.535,-2.41 -2.66,-6.426 -0.232,-8.95c2.42,-2.542 6.461,-2.627 8.996,-0.228l57.751,54.681c0.048,0.038 0.097,0.096 0.156,0.154c0.518,0.496 0.938,1.089 1.244,1.711c0.394,0.869 0.634,1.826 0.614,2.781c0,0.919 -0.221,1.862 -0.614,2.724c-0.306,0.604 -0.706,1.188 -1.22,1.71c-0.064,0.058 -0.113,0.096 -0.181,0.174l-57.751,54.663c-1.23,1.168 -2.811,1.73 -4.396,1.73zm123.104,-158.972l-111.222,0c-2.81,0 -5.089,-2.274 -5.089,-5.075l0,-111.794l-222.344,0l0,457.795l338.656,0l0,-340.926l-0.001,0z"/>
   <rect id="svg_4" height="81.818091" width="265.454252" y="334.593651" x="519.181496" fill-opacity="null" stroke-opacity="null" stroke-width="null" stroke="null" fill="null"/>
   <path id="svg_5" d="m193.344251,396.559362" opacity="0.5" fill-opacity="null" stroke-opacity="null" stroke-width="null" stroke="null" fill="null"/>
  </g>
  <text font-weight="bold" stroke="null" transform="matrix(4.0065581582207495,0,0,3.9483611520936983,-647.0715474865973,-1165.1805598334224) " xml:space="preserve" text-anchor="start" font-family="Helvetica, Arial, sans-serif" font-size="24" id="svg_7" y="408.11439" x="200.732825" fill-opacity="null" stroke-opacity="null" stroke-width="0" fill="#000000">RDF</text>
 </g>
</svg>