<svg xmlns="http://www.w3.org/2000/svg" xmlns:xlink="http://www.w3.org/1999/xlink" width="100" height="100" viewBox="0 0 100 100"><g><g transform="translate(50 50) scale(0.69 0.69) rotate(0) translate(-50 -50)" style="fill:#143f5b"><svg fill="#143f5b" xmlns="http://www.w3.org/2000/svg" xmlns:xlink="http://www.w3.org/1999/xlink" version="1.1" x="0px" y="0px" viewBox="0 0 48 48" enable-background="new 0 0 48 48" xml:space="preserve"><path d="M39.167,20.668c-1.746,0-3.167-1.421-3.167-3.167s1.421-3.167,3.167-3.167s3.167,1.421,3.167,3.167  S40.913,20.668,39.167,20.668z M39.167,16.334c-0.644,0-1.167,0.523-1.167,1.167s0.523,1.167,1.167,1.167s1.167-0.523,1.167-1.167  S39.811,16.334,39.167,16.334z M26.167,40.167C24.421,40.167,23,38.746,23,37s1.421-3.167,3.167-3.167s3.167,1.421,3.167,3.167  S27.913,40.167,26.167,40.167z M26.167,35.833C25.523,35.833,25,36.356,25,37s0.523,1.167,1.167,1.167s1.167-0.523,1.167-1.167  S26.811,35.833,26.167,35.833z M17.499,22.833c-1.746,0-3.167-1.421-3.167-3.167s1.421-3.167,3.167-3.167s3.167,1.421,3.167,3.167  S19.245,22.833,17.499,22.833z M17.499,18.499c-0.644,0-1.167,0.523-1.167,1.167s0.523,1.167,1.167,1.167s1.167-0.523,1.167-1.167  S18.143,18.499,17.499,18.499z M30.499,12c-1.746,0-3.167-1.421-3.167-3.167s1.421-3.167,3.167-3.167s3.167,1.421,3.167,3.167  S32.245,12,30.499,12z M30.499,7.666c-0.644,0-1.167,0.523-1.167,1.167S29.855,10,30.499,10s1.167-0.523,1.167-1.167  S31.143,7.666,30.499,7.666z M32.666,27.167c-1.746,0-3.167-1.421-3.167-3.167s1.421-3.167,3.167-3.167s3.167,1.421,3.167,3.167  S34.412,27.167,32.666,27.167z M32.666,22.833c-0.644,0-1.167,0.523-1.167,1.167s0.523,1.167,1.167,1.167s1.167-0.523,1.167-1.167  S33.31,22.833,32.666,22.833z M11,31.501c-1.746,0-3.167-1.421-3.167-3.167S9.254,25.167,11,25.167s3.167,1.421,3.167,3.167  S12.746,31.501,11,31.501z M11,27.167c-0.644,0-1.167,0.523-1.167,1.167s0.523,1.167,1.167,1.167s1.167-0.523,1.167-1.167  S11.644,27.167,11,27.167z M17.499,42.334c-1.746,0-3.167-1.421-3.167-3.167S15.753,36,17.499,36s3.167,1.421,3.167,3.167  S19.245,42.334,17.499,42.334z M17.499,38c-0.644,0-1.167,0.523-1.167,1.167s0.523,1.167,1.167,1.167s1.167-0.523,1.167-1.167  S18.143,38,17.499,38z M7.373,42.041L42.041,7.373c0.391-0.391,0.391-1.023,0-1.414s-1.023-0.391-1.414,0L5.959,40.627  c-0.391,0.391-0.391,1.023,0,1.414c0.195,0.195,0.451,0.293,0.707,0.293S7.178,42.236,7.373,42.041z"></path></svg></g></g></svg>