<svg xmlns="http://www.w3.org/2000/svg" xmlns:xlink="http://www.w3.org/1999/xlink" version="1.1" x="0px" y="0px" viewBox="0 0 512 512" enable-background="new 0 0 512 512" xml:space="preserve"><g><path d="M246.5,174.4c4.2,7.2,14.8,7.2,19,0l90.6-156.2c4.2-7.2-1.1-16.1-9.5-16.1H165.4c-8.4,0-13.7,8.9-9.5,16.1L246.5,174.4z" style="&#10;    fill: #143F5B;&#10;"/><path d="M265.5,337.6c-4.2-7.2-14.8-7.2-19,0l-90.6,156.2c-4.2,7.2,1.1,16.1,9.5,16.1h181.2c8.4,0,13.7-8.9,9.5-16.1L265.5,337.6z" style="&#10;    fill:  #143F5B;&#10;"/><path d="M484.5,230.6H27.5c-14,0-25.4,11.4-25.4,25.4s11.4,25.4,25.4,25.4h457.1c14,0,25.4-11.4,25.4-25.4S498.6,230.6,484.5,230.6   z" style="&#10;    fill: #2c9e76;&#10;"/></g></svg>