<svg xmlns="http://www.w3.org/2000/svg" xmlns:xlink="http://www.w3.org/1999/xlink" version="1.1" x="0px" y="0px" viewBox="0 0 100 100" enable-background="new 0 0 100 100" xml:space="preserve"><path d="M67.6,25.5l3.9-6.7l-5.2-3l-3.8,6.7c-3.8-1.7-8-2.7-12.4-2.7c-16.6,0-30.2,13.5-30.2,30.2c0,10.1,5,19,12.6,24.5l-3.9,6.7  l5.2,3l3.8-6.7c3.8,1.7,8,2.7,12.4,2.7c16.6,0,30.2-13.5,30.2-30.2C80.2,39.9,75.2,31,67.6,25.5z M25.8,50  c0-13.3,10.8-24.2,24.2-24.2c3.3,0,6.5,0.7,9.4,1.9l-24,41.5C29.6,64.8,25.8,57.9,25.8,50z M50,74.2c-3.3,0-6.5-0.7-9.4-1.9l24-41.5  c5.8,4.4,9.6,11.4,9.6,19.3C74.2,63.3,63.3,74.2,50,74.2z"></path></svg>