<svg xmlns="http://www.w3.org/2000/svg" xmlns:xlink="http://www.w3.org/1999/xlink" viewBox="0 0 100 100"><g><rect width="100%" height="100%" fill="#FFFFFF"></rect><g transform="translate(50 50) rotate(180) translate(-50 -50)" style="fill:#1A1A1A"><svg fill="#1A1A1A" xmlns="http://www.w3.org/2000/svg" xmlns:xlink="http://www.w3.org/1999/xlink" version="1.1" x="0px" y="0px" viewBox="0 0 110 110" enable-background="new 0 0 110 110" xml:space="preserve"><path d="M70.854,21C65.129,21,59.738,22.41,55,24.888C50.261,22.41,44.87,21,39.146,21C20.288,21,5,36.223,5,55s15.288,34,34.146,34  C44.87,89,50.261,87.591,55,85.111C59.738,87.591,65.129,89,70.854,89C89.713,89,105,73.777,105,55S89.713,21,70.854,21z   M70.854,84.208c-3.903,0-7.627-0.769-11.037-2.15C68.004,75.847,73.293,66.04,73.293,55s-5.289-20.847-13.477-27.058  c3.41-1.382,7.134-2.15,11.037-2.15c16.187,0,29.354,13.103,29.354,29.208S87.04,84.208,70.854,84.208z"></path></svg></g></g></svg>