<svg width="512" height="512" viewBox="0 0 512 512" fill="none" xmlns="http://www.w3.org/2000/svg">
<g clip-path="url(#clip0)">
<path fill-rule="evenodd" clip-rule="evenodd" d="M405.33 342.97L505.04 442.66C514.34 452.06 514.34 467.25 504.94 476.65L476.64 504.95C467.34 514.35 452.14 514.35 442.74 504.95L343.03 405.26C338.53 400.76 336.03 394.66 336.03 388.26V371.96C300.73 399.56 256.32 415.96 208.02 415.96C93.11 415.96 0 322.87 0 207.98C0 93.09 93.12 0 208.02 0C322.92 0 416.03 93.09 416.03 207.98C416.03 256.28 399.63 300.67 372.03 335.97H388.33C394.73 335.97 400.83 338.47 405.33 342.97ZM64.02 207.98C64.02 287.62 128.48 351.96 208.02 351.96C287.67 351.96 352.02 287.51 352.02 207.98C352.02 128.34 287.56 64 208.02 64C128.37 64 64.02 128.45 64.02 207.98Z" fill="black"/>
<mask id="mask0" mask-type="alpha" maskUnits="userSpaceOnUse" x="83" y="124" width="239" height="166">
<rect x="83" y="124" width="239" height="166" fill="#C4C4C4"/>
</mask>
<g mask="url(#mask0)">
<path d="M219.539 269.119H241.495C245.154 269.119 248.813 265.779 248.813 262.438V192.279C248.813 188.938 245.154 185.597 241.495 185.597H219.539C215.879 185.597 212.22 188.938 212.22 192.279V262.438C212.22 265.779 215.879 269.119 219.539 269.119ZM274.429 269.119H296.385C300.044 269.119 303.703 265.779 303.703 262.438V142.166C303.703 138.825 300.044 135.484 296.385 135.484H274.429C270.769 135.484 267.11 138.825 267.11 142.166V262.438C267.11 265.779 270.769 269.119 274.429 269.119ZM109.759 269.119H131.715C135.374 269.119 139.033 265.779 139.033 262.438V225.688C139.033 222.347 135.374 219.006 131.715 219.006H109.759C106.099 219.006 102.44 222.347 102.44 225.688V262.438C102.44 265.779 106.099 269.119 109.759 269.119ZM164.649 269.119H186.605C190.264 269.119 193.923 265.779 193.923 262.438V158.87C193.923 155.53 190.264 152.189 186.605 152.189H164.649C160.989 152.189 157.33 155.53 157.33 158.87V262.438C157.33 265.779 160.989 269.119 164.649 269.119ZM312.851 302.528H65.8467V143.836C65.8467 139.222 61.7528 135.484 56.6984 135.484H38.4017C33.3473 135.484 29.2534 139.222 29.2534 143.836V319.233C29.2534 328.457 37.4469 335.937 47.5501 335.937H312.851C317.906 335.937 322 332.199 322 327.585V310.88C322 306.266 317.906 302.528 312.851 302.528Z" fill="black"/>
</g>
</g>
<defs>
<clipPath id="clip0">
<rect width="512" height="512" fill="white"/>
</clipPath>
</defs>
</svg>
