<svg xmlns="http://www.w3.org/2000/svg" xmlns:xlink="http://www.w3.org/1999/xlink" xml:space="preserve" version="1.1" style="shape-rendering:geometricPrecision;text-rendering:geometricPrecision;image-rendering:optimizeQuality;" viewBox="0 0 333 333" x="0px" y="0px" fill-rule="evenodd" clip-rule="evenodd"><defs><style type="text/css">
   
    .fil0 {fill:black;fill-rule:nonzero}
   
  </style></defs><g><path class="fil0" d="M126 193l0 55c10,1 18,10 18,21 0,12 -9,21 -21,21 -12,0 -22,-9 -22,-21 0,-11 8,-20 18,-21l0 -55c-4,-1 -8,-3 -11,-5l-35 35c3,3 4,7 4,11 0,11 -9,19 -20,19 -10,0 -19,-8 -19,-19 0,-15 18,-25 30,-16l35 -34c-12,-13 -12,-32 0,-44 1,-1 3,-2 4,-3l-18 -18c-3,2 -6,3 -10,3 -10,0 -17,-8 -17,-17 0,-10 7,-18 17,-18 10,0 18,8 18,18 0,3 -1,7 -3,9l19 20c10,-5 22,-3 31,3l60 -60c-2,-3 -4,-8 -4,-12 0,-12 10,-22 22,-22 12,0 22,10 22,22 0,11 -10,21 -22,21 -5,0 -9,-1 -13,-4l-60 60c4,5 7,10 7,17l90 0c1,-13 12,-22 24,-22 14,0 25,11 25,25 0,14 -11,25 -25,25 -12,0 -23,-9 -24,-21l-90 0c0,4 -2,9 -4,12l41 41c6,-4 15,-3 21,2 7,7 7,18 0,24 -7,7 -17,7 -24,0 -6,-5 -7,-14 -2,-21l-40 -40c-6,6 -14,9 -22,9z"></path></g></svg>