<svg fill="#143F5B" xmlns="http://www.w3.org/2000/svg" xmlns:xlink="http://www.w3.org/1999/xlink" version="1.1" x="0px" y="0px" viewBox="0 0 100 100" enable-background="new 0 0 100 100" xml:space="preserve"><path fill="none" d="M66.54,26.22c-2.55,0-4.67-1.89-5.02-4.34H38.47c-0.35,2.45-2.47,4.34-5.02,4.34c-2.56,0-4.68-1.89-5.03-4.34  h-7.18v6.48h57.52v-6.48h-7.2C71.21,24.33,69.1,26.22,66.54,26.22z"></path><path fill="none" d="M33.45,22.13c0.53,0,0.98-0.45,0.98-0.99V11.3c0-0.54-0.45-0.99-0.98-0.99c-0.54,0-0.99,0.45-0.99,0.99v9.84  C32.46,21.68,32.91,22.13,33.45,22.13z"></path><path fill="none" d="M25.885,89.721h48.23c2.712,0,4.918-2.207,4.918-4.918V39.677H20.966v45.125  C20.966,87.514,23.173,89.721,25.885,89.721z M41.214,71.173h3.293V48.766c0-0.866,0.702-1.568,1.568-1.568h7.538  c0.866,0,1.568,0.702,1.568,1.568v22.406h3.293c1.148,0,1.723,1.388,0.911,2.2l-8.321,8.321c-0.674,0.674-1.767,0.674-2.442,0  l-8.321-8.321C39.491,72.561,40.066,71.173,41.214,71.173z"></path><path fill="none" d="M66.54,22.13c0.54,0,0.99-0.45,0.99-0.99V11.3c0-0.54-0.45-0.99-0.99-0.99c-0.53,0-0.98,0.45-0.98,0.99v9.84  C65.56,21.68,66.01,22.13,66.54,22.13z"></path><path d="M25.885,93.753h48.23c4.936,0,8.951-4.015,8.951-8.951V37.661c0-1.113-0.903-2.016-2.016-2.016h-62.1  c-1.113,0-2.016,0.903-2.016,2.016v47.141C16.934,89.738,20.949,93.753,25.885,93.753z M20.966,39.677h58.067v45.125  c0,2.712-2.207,4.918-4.918,4.918h-48.23c-2.712,0-4.918-2.207-4.918-4.918V39.677z"></path><path d="M81.05,17.3h-9.43v-6c0-2.8-2.27-5.08-5.08-5.08c-2.8,0-5.08,2.28-5.08,5.08v6H38.53v-6c0-2.8-2.28-5.08-5.08-5.08  c-2.81,0-5.09,2.28-5.09,5.08v6h-9.41c-1.27,0-2.29,1.02-2.29,2.29v11.06c0,1.27,1.02,2.29,2.29,2.29h62.1  c1.27,0,2.29-1.02,2.29-2.29V19.59C83.34,18.32,82.32,17.3,81.05,17.3z M65.56,11.3c0-0.54,0.45-0.99,0.98-0.99  c0.54,0,0.99,0.45,0.99,0.99v9.84c0,0.54-0.45,0.99-0.99,0.99c-0.53,0-0.98-0.45-0.98-0.99V11.3z M32.46,11.3  c0-0.54,0.45-0.99,0.99-0.99c0.53,0,0.98,0.45,0.98,0.99v9.84c0,0.54-0.45,0.99-0.98,0.99c-0.54,0-0.99-0.45-0.99-0.99V11.3z   M78.76,28.36H21.24v-6.48h7.18c0.35,2.45,2.47,4.34,5.03,4.34c2.55,0,4.67-1.89,5.02-4.34h23.05c0.35,2.45,2.47,4.34,5.02,4.34  c2.56,0,4.67-1.89,5.02-4.34h7.2V28.36z"></path><path d="M48.624,81.694c0.674,0.674,1.768,0.674,2.442,0l8.321-8.321c0.812-0.812,0.237-2.2-0.911-2.2h-3.293V48.766  c0-0.866-0.702-1.568-1.568-1.568h-7.538c-0.866,0-1.568,0.702-1.568,1.568v22.406h-3.293c-1.148,0-1.723,1.388-0.911,2.2  L48.624,81.694z"></path></svg>