<svg xmlns="http://www.w3.org/2000/svg" data-name="Layer 2" viewBox="0 0 100 100" x="0px" y="0px"><title>Artboard 80</title><path fill="#143F5B" d="M21.5,41.5h7.18a6.51,6.51,0,0,0,6.32,5H85a6.5,6.5,0,0,0,0-13H35a6.51,6.51,0,0,0-6.32,5H21.5v-12H85a6.5,6.5,0,0,0,0-13H15a6.5,6.5,0,0,0,0,13h3.5V80A1.5,1.5,0,0,0,20,81.5h8.68a6.51,6.51,0,0,0,6.32,5H85a6.5,6.5,0,0,0,0-13H35a6.51,6.51,0,0,0-6.32,5H21.5v-17h7.18a6.51,6.51,0,0,0,6.32,5H85a6.5,6.5,0,0,0,0-13H35a6.51,6.51,0,0,0-6.32,5H21.5Zm13.5-5H85a3.5,3.5,0,0,1,0,7H35a3.5,3.5,0,0,1,0-7ZM11.5,20A3.5,3.5,0,0,1,15,16.5H85a3.5,3.5,0,0,1,0,7H15A3.5,3.5,0,0,1,11.5,20ZM35,76.5H85a3.5,3.5,0,0,1,0,7H35a3.5,3.5,0,0,1,0-7Zm0-20H85a3.5,3.5,0,0,1,0,7H35a3.5,3.5,0,0,1,0-7Z"></path></svg>