<svg xmlns="http://www.w3.org/2000/svg" width="1792" height="1792" viewBox="0 0 1792 1792">

<path fill="#143F5B" d="M736 1440q0 12-10 24l-319 319q-10 9-23 9-12 0-23-9l-320-320q-15-16-7-35 8-20 30-20h192v-1376q0-14 9-23t23-9h192q14 0 23 9t9 23v1376h192q14 0 23 9t9 23z"/>

<path fill="#2c9e76" d="M1700 1536v192q0 14-9 23t-23 9h-832q-14 0-23-9t-9-23v-192q0-14 9-23t23-9h832q14 0 23 9t9 23z"/>

<path fill="#2c9e76" d="M1505 1024v192q0 14-9 23t-23 9h-640q-14 0-23-9t-9-23v-192q0-14 9-23t23-9h640q14 0 23 9t9 23z"/>

<path fill="#ecaf42" d="M1315 512v192q0 14-9 23t-23 9h-448q-14 0-23-9t-9-23v-192q0-14 9-23t23-9h448q14 0 23 9t9 23z"/>

<path fill="#ecaf42" d="M1122 128v192q0 14-9 23t-23 9h-256q-14 0-23-9t-9-23v-192q0-14 9-23t23-9h256q14 0 23 9t9 23z"/>

</svg>