<svg xmlns="http://www.w3.org/2000/svg" xmlns:xlink="http://www.w3.org/1999/xlink" version="1.1" x="0px" y="0px" viewBox="0 0 100 100" style="enable-background:new 0 0 100 100;" xml:space="preserve"><g><path fill="#143F5B" d="M94.1,35l5.5-31.5c0.1-0.6-0.4-1.1-1-1L67.1,8c-0.7,0.1-0.9,1-0.5,1.5l5.4,5.4c0.3,0.3,0.3,0.9,0,1.2   L51.9,36.3c-0.3,0.3-0.9,0.3-1.2,0L30.7,16.4c-0.3-0.3-0.3-0.9,0-1.2l4.6-4.6c0.5-0.5,0.2-1.3-0.5-1.5L3.4,3.7   c-0.6-0.1-1.1,0.4-1,1l5.5,31.5c0.1,0.7,1,0.9,1.5,0.5l6-6c0.3-0.3,0.9-0.3,1.2,0l24.2,24.2c0.2,0.2,0.3,0.4,0.3,0.6v41.1   c0,0.5,0.4,0.9,0.9,0.9h18.3c0.5,0,0.9-0.4,0.9-0.9V55.8c0-0.2,0.1-0.4,0.3-0.6l25-25c0.3-0.3,0.9-0.3,1.2,0l5.2,5.2   C93.2,35.9,94,35.6,94.1,35z"></path></g></svg>