<svg xmlns="http://www.w3.org/2000/svg" xmlns:xlink="http://www.w3.org/1999/xlink" version="1.1" x="0px" y="0px" viewBox="0 0 24 24" enable-background="new 0 0 24 24" xml:space="preserve"><g><path d="M21.333,23.833H2.667c-1.378,0-2.5-1.121-2.5-2.5V2.667c0-1.379,1.122-2.5,2.5-2.5h18.667c1.378,0,2.5,1.121,2.5,2.5   v18.667C23.833,22.712,22.712,23.833,21.333,23.833z M2.667,1.167c-0.827,0-1.5,0.673-1.5,1.5v18.667c0,0.827,0.673,1.5,1.5,1.5   h18.667c0.827,0,1.5-0.673,1.5-1.5V2.667c0-0.827-0.673-1.5-1.5-1.5H2.667z"></path><g><g><path d="M18.913,15.495c-0.128,0-0.256-0.049-0.354-0.146c-0.195-0.195-0.195-0.512,0-0.707L21.201,12L18.56,9.36     c-0.195-0.195-0.195-0.512,0-0.707s0.512-0.195,0.707,0l2.995,2.994c0.094,0.094,0.146,0.221,0.146,0.354     s-0.053,0.26-0.146,0.354l-2.995,2.994C19.169,15.446,19.041,15.495,18.913,15.495z"></path><path d="M21.908,12.5h-8.346c-0.276,0-0.5-0.224-0.5-0.5s0.224-0.5,0.5-0.5h8.346c0.276,0,0.5,0.224,0.5,0.5     S22.184,12.5,21.908,12.5z"></path></g><g><path d="M5.087,15.495c-0.128,0-0.256-0.049-0.354-0.146l-2.994-2.994c-0.195-0.195-0.195-0.512,0-0.707l2.994-2.994     c0.195-0.195,0.512-0.195,0.707,0s0.195,0.512,0,0.707L2.8,12l2.641,2.641c0.195,0.195,0.195,0.512,0,0.707     C5.343,15.446,5.215,15.495,5.087,15.495z"></path><path d="M10.438,12.5H2.093c-0.276,0-0.5-0.224-0.5-0.5s0.224-0.5,0.5-0.5h8.346c0.276,0,0.5,0.224,0.5,0.5     S10.715,12.5,10.438,12.5z"></path></g><g><path d="M12,22.408c-0.128,0-0.256-0.049-0.354-0.146l-2.995-2.994c-0.195-0.195-0.195-0.512,0-0.707s0.512-0.195,0.707,0     L12,21.201l2.641-2.641c0.195-0.195,0.512-0.195,0.707,0s0.195,0.512,0,0.707l-2.994,2.994     C12.256,22.359,12.128,22.408,12,22.408z"></path><path d="M12,22.408c-0.276,0-0.5-0.224-0.5-0.5v-8.346c0-0.276,0.224-0.5,0.5-0.5s0.5,0.224,0.5,0.5v8.346     C12.5,22.184,12.277,22.408,12,22.408z"></path></g><g><path d="M14.994,5.587c-0.128,0-0.256-0.049-0.354-0.146L12,2.799L9.359,5.441c-0.195,0.195-0.512,0.195-0.707,0     s-0.195-0.512,0-0.707l2.995-2.995C11.74,1.645,11.867,1.592,12,1.592l0,0c0.133,0,0.26,0.053,0.354,0.146l2.994,2.995     c0.195,0.195,0.195,0.512,0,0.707C15.25,5.539,15.122,5.587,14.994,5.587z"></path><path d="M12,10.938c-0.276,0-0.5-0.224-0.5-0.5V2.092c0-0.276,0.224-0.5,0.5-0.5s0.5,0.224,0.5,0.5v8.346     C12.5,10.714,12.277,10.938,12,10.938z"></path></g></g></g></svg>