<svg xmlns="http://www.w3.org/2000/svg" xmlns:xlink="http://www.w3.org/1999/xlink" xmlns:sketch="http://www.bohemiancoding.com/sketch/ns" viewBox="0 0 16 16" version="1.1" x="0px" y="0px"><title>code</title><desc>Created with Sketch.</desc><g stroke="none" stroke-width="1" fill="none" fill-rule="evenodd" sketch:type="MSPage"><g sketch:type="MSArtboardGroup" fill="#000000"><path d="M6.20196672,10.2566777 L2.81164902,10.2566777 L2.47125567,11.2768755 L2.81164902,11.2768755 C3.14750546,11.2768755 3.38691305,11.3544098 3.52987897,11.5094806 C3.67284489,11.6645515 3.74432678,11.8672288 3.74432678,12.1175185 C3.74432678,12.3623673 3.67284489,12.562324 3.52987897,12.7173949 C3.38691305,12.8724657 3.14750546,12.95 2.81164902,12.95 L0.932677761,12.95 C0.596821316,12.95 0.357413725,12.8724657 0.214447806,12.7173949 C0.0714818873,12.562324 0,12.3596468 0,12.109357 C0,11.8590672 0.0748857867,11.6550296 0.224659607,11.4972383 C0.374433427,11.3394469 0.621783449,11.2659934 0.966717095,11.2768755 L3.15885023,4.73128607 L2.24659607,4.73128607 C1.91073962,4.73128607 1.67133203,4.65375181 1.52836611,4.49868096 C1.38540019,4.34361011 1.31391831,4.14093283 1.31391831,3.89064303 C1.31391831,3.64035324 1.38540019,3.43767596 1.52836611,3.28260511 C1.67133203,3.12753426 1.91073962,3.05 2.24659607,3.05 L5.26248109,3.05816158 L8.04009077,11.2768755 C8.36687002,11.2768755 8.58245031,11.3204035 8.68683812,11.4074608 C8.89561375,11.5870166 9,11.8237001 9,12.1175185 C9,12.3623673 8.92965275,12.562324 8.78895613,12.7173949 C8.64825951,12.8724657 8.40998655,12.95 8.07413011,12.95 L6.19515885,12.95 C5.85930241,12.95 5.61989481,12.8724657 5.4769289,12.7173949 C5.33396298,12.562324 5.26248109,12.3596468 5.26248109,12.109357 C5.26248109,11.8645083 5.33396298,11.6645515 5.4769289,11.5094806 C5.61989481,11.3544098 5.85930241,11.2768755 6.19515885,11.2768755 L6.53555219,11.2768755 L6.20196672,10.2566777 Z M5.62329803,8.58355317 L4.5,5.26995054 L3.3698941,8.58355317 L5.62329803,8.58355317 Z" sketch:type="MSShapeGroup"></path><path d="M13.5722171,12.6800722 L13.5722171,12.2989976 C13.241642,12.5159995 12.8767269,12.6787485 12.4774609,12.7872494 C12.0781949,12.8957503 11.7154263,12.95 11.3891444,12.95 C10.6807692,12.95 10.1054913,12.7184466 9.66329347,12.2553328 C9.22109561,11.792219 9,11.2801552 9,10.7191259 C9,10.0363639 9.28227255,9.40256908 9.84682613,8.81772253 C10.4113797,8.23287599 11.191654,7.9404571 12.1876725,7.9404571 C12.5869385,7.9404571 13.0484488,7.99338359 13.5722171,8.09923817 L13.5722171,7.71022454 C13.5722171,7.46675901 13.487428,7.26828465 13.3178473,7.11479551 C13.1482666,6.96130637 12.8252094,6.88456295 12.3486661,6.88456295 C11.9579864,6.88456295 11.4513984,6.97983064 10.8288868,7.17036889 C10.597055,7.23917436 10.416744,7.27357658 10.2879485,7.27357658 C10.111928,7.27357658 9.9627421,7.19551 9.84038638,7.0393745 C9.71803067,6.88323899 9.65685373,6.68344147 9.65685373,6.43997594 C9.65685373,6.30236499 9.67831932,6.18328037 9.72125115,6.08271852 C9.76418298,5.98215667 9.82428664,5.90144377 9.90156394,5.84057739 C9.97884123,5.779711 10.1398332,5.70693707 10.3845446,5.62225341 C10.7108265,5.5111061 11.0435432,5.42245422 11.3827047,5.35629511 C11.7218662,5.290136 12.0288241,5.25705694 12.3035879,5.25705694 C13.1235858,5.25705694 13.7600407,5.47537873 14.2129715,5.91202887 C14.6659023,6.34867901 14.8923643,6.94542525 14.8923643,7.70228549 L14.8923643,11.0525662 L15.1177553,11.0525662 C15.4354508,11.0525662 15.6619128,11.1279864 15.7971481,11.2788292 C15.9323834,11.429672 16,11.6268232 16,11.8702887 C16,12.1084615 15.9323834,12.3029664 15.7971481,12.4538091 C15.6619128,12.6046519 15.4354508,12.6800722 15.1177553,12.6800722 L13.5722171,12.6800722 Z M13.5722171,9.76643945 C13.0441556,9.63941396 12.5568866,9.57590217 12.1103956,9.57590217 C11.5737477,9.57590217 11.1122374,9.73732798 10.725851,10.0601844 C10.4854327,10.2666009 10.3652254,10.4756605 10.3652254,10.6873697 C10.3652254,10.8408588 10.4231825,10.9652361 10.5390984,11.0605052 C10.7537576,11.2351653 11.0478362,11.322494 11.4213431,11.322494 C11.7390387,11.322494 12.0985874,11.2457506 12.5,11.0922614 C12.9014126,10.9387723 13.2588147,10.7297126 13.5722171,10.4650762 L13.5722171,9.76643945 Z" sketch:type="MSShapeGroup"></path></g></g></svg>