<svg height='100px' width='100px'  fill="#000000" xmlns="http://www.w3.org/2000/svg" xmlns:xlink="http://www.w3.org/1999/xlink" version="1.1" x="0px" y="0px" viewBox="0 0 24 24" style="enable-background:new 0 0 24 24;" xml:space="preserve"><path d="M22,3.5H2c-1.1,0-2,0.9-2,2v7c0,1.1,0.9,2,2,2h9v7.411l3.021-1.511l1.578,3.444l3.637-1.666L17.6,18.611l2.79-1.395  L17.285,14.5H22c1.1,0,2-0.9,2-2v-7C24,4.4,23.1,3.5,22,3.5z M18.61,16.988l-2.317,1.172l1.616,3.525l-1.818,0.834l-1.577-3.441  L12,20.293v-9.089L18.61,16.988z M23,12.5c0,0.551-0.448,1-1,1h-5.857L11,9v4.5H2c-0.552,0-1-0.449-1-1v-7c0-0.551,0.448-1,1-1h20  c0.552,0,1,0.449,1,1V12.5z"></path></svg>