<?xml version="1.0" encoding="utf-8"?>
<!-- Generator: Adobe Illustrator 16.0.3, SVG Export Plug-In . SVG Version: 6.00 Build 0)  -->
<!DOCTYPE svg PUBLIC "-//W3C//DTD SVG 1.1//EN" "http://www.w3.org/Graphics/SVG/1.1/DTD/svg11.dtd">
<svg version="1.1" id="Layer_1" xmlns="http://www.w3.org/2000/svg" xmlns:xlink="http://www.w3.org/1999/xlink" x="0px" y="0px"
	 width="612px" height="572.971px" viewBox="0 0 612 572.971" enable-background="new 0 0 612 572.971" xml:space="preserve">
<g>
	<defs>
		<polygon id="SVGID_1_" points="-176.307,286.485 64.847,-131.205 306,286.485 		"/>
	</defs>
	<clipPath id="SVGID_2_">
		<use xlink:href="#SVGID_1_"  overflow="visible"/>
	</clipPath>
	<path clip-path="url(#SVGID_2_)" fill="#1C3A4C" d="M308.573,42.289c-144.235,0-261.161,114.267-261.161,255.224
		c0,140.96,116.925,255.223,261.161,255.223c144.234,0,261.159-114.263,261.159-255.223
		C569.732,156.556,452.808,42.289,308.573,42.289z M306,449.513c-83.947,0-152-68.053-152-152c0-3.521,0.13-7.013,0.366-10.475
		c-2.95-1.67-3.134-6.32-0.567-8.377c-1.181-1.45-1.434-3.59-0.767-5.34c-0.379-0.992-0.454-2.106-0.24-3.151
		c-0.596-2.825,0.971-6.185,4.709-6.185c0.079,0,0.153,0.008,0.23,0.011c15.265-67.818,75.841-118.484,148.27-118.484
		c83.947,0,152,68.053,152,152S389.947,449.513,306,449.513z"/>
</g>
<g>
	<defs>
		<polygon id="SVGID_3_" points="297.22,298.984 44.841,-112.02 526.971,-125.084 		"/>
	</defs>
	<clipPath id="SVGID_4_">
		<use xlink:href="#SVGID_3_"  overflow="visible"/>
	</clipPath>
	<path clip-path="url(#SVGID_4_)" fill="#0C4BA2" d="M306.001,43.762c144.234,0,261.159,114.267,261.159,255.224
		c0,140.96-116.925,255.223-261.159,255.223c-144.235,0-261.16-114.263-261.16-255.223
		C44.841,158.029,161.766,43.762,306.001,43.762z M303.428,146.985c-83.947,0-152,68.053-152,152s68.053,152,152,152
		s152-68.053,152-152S387.375,146.985,303.428,146.985z"/>
</g>
<g>
	<defs>
		<polygon id="SVGID_5_" points="739.409,452.633 293.188,305.303 924.812,-858.296 		"/>
	</defs>
	<clipPath id="SVGID_6_">
		<use xlink:href="#SVGID_5_"  overflow="visible"/>
	</clipPath>
	<path clip-path="url(#SVGID_6_)" fill="#15B994" d="M308,44.761c144.234,0,261.159,114.268,261.159,255.224
		c0,140.96-116.925,255.223-261.159,255.223c-144.235,0-261.16-114.263-261.16-255.223C46.84,159.028,163.765,44.761,308,44.761z
		 M305.427,147.984c-83.947,0-152,68.053-152,152s68.053,152,152,152s152-68.053,152-152S389.374,147.984,305.427,147.984z"/>
</g>
<g>
	<defs>
		<polygon id="SVGID_7_" points="756.638,456.907 -15.294,657.483 303.579,298.985 		"/>
	</defs>
	<clipPath id="SVGID_8_">
		<use xlink:href="#SVGID_7_"  overflow="visible"/>
	</clipPath>
	<path clip-path="url(#SVGID_8_)" fill="#05142A" d="M308.473,43.761c-144.235,0-261.16,114.268-261.16,255.224
		c0,140.96,116.925,255.223,261.16,255.223c144.234,0,261.159-114.263,261.159-255.223
		C569.632,158.028,452.707,43.761,308.473,43.761z M305.899,450.984c-36.733,0-70.393-13.066-96.667-34.758
		c-0.273-0.137-0.512-0.309-0.735-0.495c-0.474-0.254-0.87-0.591-1.206-0.975c-0.609-0.293-1.111-0.707-1.508-1.2
		c-0.079-0.065-0.163-0.126-0.235-0.197c-0.115-0.091-0.236-0.176-0.34-0.276c-0.244-0.115-0.476-0.244-0.686-0.395
		c-0.505,0.177-1.056,0.297-1.688,0.297c-3.964,0-5.487-3.776-4.578-6.688c-27.409-27.493-44.356-65.423-44.356-107.313
		c0-83.947,68.053-152,152-152s152,68.053,152,152S389.847,450.984,305.899,450.984z"/>
</g>
<g>
	<defs>
		<polygon id="SVGID_9_" points="311,300.526 -192.93,832.388 -401.57,130.042 		"/>
	</defs>
	<clipPath id="SVGID_10_">
		<use xlink:href="#SVGID_9_"  overflow="visible"/>
	</clipPath>
	<path clip-path="url(#SVGID_10_)" fill="#5BE8C3" d="M308,43.762c144.234,0,261.16,114.268,261.16,255.223
		c0,140.961-116.926,255.223-261.16,255.223c-144.235,0-261.16-114.262-261.16-255.223C46.84,158.03,163.765,43.762,308,43.762z
		 M305.427,146.986c-83.947,0-152,68.053-152,152c0,83.947,68.053,152,152,152c83.948,0,152-68.053,152-152
		C457.428,215.039,389.375,146.986,305.427,146.986z"/>
</g>
</svg>
