<svg fill="#143F5B" xmlns="http://www.w3.org/2000/svg" xmlns:xlink="http://www.w3.org/1999/xlink" version="1.1" x="0px" y="0px" viewBox="0 0 100 100" enable-background="new 0 0 100 100" xml:space="preserve"><g><path d="M86.669,1.169L75.677,12.162l-3.029,12.253l-0.299-0.299l-1.574,1.574L53.602,42.863C52.519,42.315,51.297,42,50,42   c-4.419,0-8,3.582-8,8c0,4.418,3.581,8,8,8s8-3.582,8-8c0-1.297-0.315-2.518-0.863-3.602l6.503-6.502l0,0l5.717-5.717l0,0   l6.527-6.528l-0.298-0.297l6.263-1.549l0,0l5.99-1.482l10.992-10.992l-12.16-0.001L86.669,1.169z"></path><path d="M50,33c1.917,0,3.753,0.333,5.474,0.921l6.086-6.087C58.103,26.027,54.172,25,50,25c-13.809,0-25,11.191-25,25   s11.191,25,25,25s25-11.191,25-25c0-4.172-1.027-8.102-2.834-11.56l-6.087,6.086C66.667,46.247,67,48.083,67,50   c0,9.374-7.626,17-17,17s-17-7.626-17-17S40.626,33,50,33z"></path><path d="M78.929,31.678l-1.636,1.636C80.276,38.176,82,43.89,82,50c0,17.645-14.355,32-32,32S18,67.645,18,50   c0-17.645,14.355-32,32-32c6.11,0,11.825,1.724,16.687,4.708l1.638-1.638l1.443-5.84C63.937,11.908,57.193,10,50,10   c-22.094,0-40,17.906-40,40s17.906,40,40,40s40-17.906,40-40c0-7.193-1.907-13.936-5.229-19.767L78.929,31.678z"></path></g></svg>