<svg xmlns="http://www.w3.org/2000/svg" xmlns:xlink="http://www.w3.org/1999/xlink" viewBox="0 -25 100 125" version="1.1" x="0px" y="0px"><g stroke="none" stroke-width="1" fill="none" fill-rule="evenodd"><g fill="#000000" fill-rule="nonzero"><path d="M15,5 L85,5 C90.5228475,5 95,9.4771525 95,15 L95,85 C95,90.5228475 90.5228475,95 85,95 L15,95 C9.4771525,95 5,90.5228475 5,85 L5,15 C5,9.4771525 9.4771525,5 15,5 Z M13,87 L87,87 L87,13 L13,13 L13,87 Z M82,85 L78,85 L85,78 L85,82 L82,85 Z M75,85 L71,85 L85,71 L85,75 L75,85 Z M68,85 L64,85 L85,64 L85,68 L68,85 Z"/></g></g></svg>