<svg width="43" height="19" viewBox="0 0 43 19" fill="none" xmlns="http://www.w3.org/2000/svg">
<path d="M1.77185 7L2.3727 5.26776H4.92952L5.52718 7H6.57547L4.22 0.454545H3.07902L0.723554 7H1.77185ZM2.66034 4.43679L3.62554 1.64347H3.67668L4.64188 4.43679H2.66034ZM9.33385 7.09588C10.2287 7.09588 10.5803 6.54936 10.7529 6.23615H10.8328V7H11.766V0.454545H10.8104V2.88672H10.7529C10.5803 2.5831 10.2543 2.02699 9.34024 2.02699C8.15452 2.02699 7.28201 2.96342 7.28201 4.55504C7.28201 6.14347 8.14174 7.09588 9.33385 7.09588ZM9.54479 6.28089C8.69145 6.28089 8.2472 5.52983 8.2472 4.54545C8.2472 3.57067 8.68186 2.83878 9.54479 2.83878C10.379 2.83878 10.8264 3.51953 10.8264 4.54545C10.8264 5.57777 10.3694 6.28089 9.54479 6.28089ZM15.0989 7.09588C15.9938 7.09588 16.3453 6.54936 16.5179 6.23615H16.5978V7H17.5311V0.454545H16.5755V2.88672H16.5179C16.3453 2.5831 16.0193 2.02699 15.1053 2.02699C13.9196 2.02699 13.047 2.96342 13.047 4.55504C13.047 6.14347 13.9068 7.09588 15.0989 7.09588ZM15.3098 6.28089C14.4565 6.28089 14.0122 5.52983 14.0122 4.54545C14.0122 3.57067 14.4469 2.83878 15.3098 2.83878C16.144 2.83878 16.5914 3.51953 16.5914 4.54545C16.5914 5.57777 16.1344 6.28089 15.3098 6.28089ZM21.616 7H22.5492V6.23615H22.6291C22.8017 6.54936 23.1533 7.09588 24.0482 7.09588C25.2371 7.09588 26.1 6.14347 26.1 4.55504C26.1 2.96342 25.2243 2.02699 24.0386 2.02699C23.1277 2.02699 22.7985 2.5831 22.6291 2.88672H22.5716V0.454545H21.616V7ZM22.5524 4.54545C22.5524 3.51953 22.9999 2.83878 23.834 2.83878C24.7002 2.83878 25.1348 3.57067 25.1348 4.54545C25.1348 5.52983 24.6874 6.28089 23.834 6.28089C23.0127 6.28089 22.5524 5.57777 22.5524 4.54545ZM29.3722 7.09908C30.756 7.09908 31.6605 6.08594 31.6605 4.56783C31.6605 3.04013 30.756 2.02699 29.3722 2.02699C27.9883 2.02699 27.0838 3.04013 27.0838 4.56783C27.0838 6.08594 27.9883 7.09908 29.3722 7.09908ZM29.3754 6.29688C28.4709 6.29688 28.049 5.50746 28.049 4.56463C28.049 3.625 28.4709 2.82599 29.3754 2.82599C30.2734 2.82599 30.6953 3.625 30.6953 4.56463C30.6953 5.50746 30.2734 6.29688 29.3754 6.29688ZM34.6962 7.09588C35.591 7.09588 35.9426 6.54936 36.1152 6.23615H36.1951V7H37.1283V0.454545H36.1727V2.88672H36.1152C35.9426 2.5831 35.6166 2.02699 34.7025 2.02699C33.5168 2.02699 32.6443 2.96342 32.6443 4.55504C32.6443 6.14347 33.504 7.09588 34.6962 7.09588ZM34.9071 6.28089C34.0538 6.28089 33.6095 5.52983 33.6095 4.54545C33.6095 3.57067 34.0442 2.83878 34.9071 2.83878C35.7413 2.83878 36.1887 3.51953 36.1887 4.54545C36.1887 5.57777 35.7317 6.28089 34.9071 6.28089ZM39.2275 8.84091C40.0169 8.84091 40.5155 8.42862 40.8 7.65518L42.8294 2.1005L41.7971 2.09091L40.5539 5.90057H40.5027L39.2595 2.09091H38.2368L40.0329 7.06392L39.9147 7.38991C39.6718 8.0419 39.3298 8.09624 38.8057 7.95241L38.5755 8.73544C38.6906 8.78658 38.9399 8.84091 39.2275 8.84091ZM16.2116 13.0909H15.2049V11.9148H14.2493V13.0909H13.5301V13.858H14.2493V16.7567C14.2461 17.6484 14.9268 18.0799 15.6811 18.0639C15.9847 18.0607 16.1892 18.0032 16.3011 17.9616L16.1285 17.1722C16.0646 17.185 15.9463 17.2138 15.7929 17.2138C15.4829 17.2138 15.2049 17.1115 15.2049 16.5586V13.858H16.2116V13.0909ZM19.463 18.0991C20.5336 18.0991 21.2911 17.5717 21.5084 16.7727L20.604 16.6097C20.4314 17.0732 20.0159 17.3097 19.4726 17.3097C18.6544 17.3097 18.1047 16.7791 18.0791 15.8331H21.5692V15.4943C21.5692 13.7205 20.5081 13.027 19.3959 13.027C18.028 13.027 17.1267 14.0689 17.1267 15.5774C17.1267 17.1019 18.0152 18.0991 19.463 18.0991ZM18.0823 15.1172C18.1207 14.4205 18.6256 13.8164 19.4023 13.8164C20.1437 13.8164 20.6295 14.3661 20.6327 15.1172H18.0823ZM23.4007 13.0909H22.3524L23.8609 15.5455L22.3332 18H23.3815L24.4841 16.1655L25.59 18H26.6351L25.0914 15.5455L26.6223 13.0909H25.5772L24.4841 15.0021L23.4007 13.0909ZM30.0263 13.0909H29.0195V11.9148H28.0639V13.0909H27.3448V13.858H28.0639V16.7567C28.0607 17.6484 28.7415 18.0799 29.4957 18.0639C29.7993 18.0607 30.0039 18.0032 30.1157 17.9616L29.9432 17.1722C29.8792 17.185 29.761 17.2138 29.6076 17.2138C29.2976 17.2138 29.0195 17.1115 29.0195 16.5586V13.858H30.0263V13.0909Z" fill="black"/>
</svg>
