<svg width="19" height="14" viewBox="0 0 19 14" fill="none" xmlns="http://www.w3.org/2000/svg">
<path d="M0.680176 0H2.68018V6H6.68018V0H8.68018V14H6.68018V8H2.68018V14H0.680176V0ZM18.6802 14H12.6802C12.1497 14 11.641 13.7893 11.266 13.4142C10.8909 13.0391 10.6802 12.5304 10.6802 12C10.6802 11.47 10.8802 11 11.2202 10.64L16.0902 5.41C16.4602 5.05 16.6802 4.55 16.6802 4C16.6802 3.46957 16.4695 2.96086 16.0944 2.58579C15.7193 2.21071 15.2106 2 14.6802 2C14.1497 2 13.641 2.21071 13.266 2.58579C12.8909 2.96086 12.6802 3.46957 12.6802 4H10.6802C10.6802 2.93913 11.1016 1.92172 11.8517 1.17157C12.6019 0.421427 13.6193 0 14.6802 0C15.741 0 16.7585 0.421427 17.5086 1.17157C18.2587 1.92172 18.6802 2.93913 18.6802 4C18.6802 5.1 18.2302 6.1 17.5102 6.83L12.6802 12H18.6802V14Z" fill="black"/>
</svg>
