<svg xmlns="http://www.w3.org/2000/svg" xmlns:xlink="http://www.w3.org/1999/xlink" width="100" height="100" viewBox="0 0 100 100"><rect width="100%" height="100%" fill="#FFFFFF"></rect><g transform="translate(50 50) scale(0.69 0.69) rotate(0) translate(-50 -50)" style="fill:#1A1A1A"><svg fill="#1A1A1A" xmlns="http://www.w3.org/2000/svg" xmlns:xlink="http://www.w3.org/1999/xlink" version="1.1" x="0px" y="0px" viewBox="0 0 64 64" style="enable-background:new 0 0 64 64;" xml:space="preserve"><path d="M42,22c-5.679,0-10.801,2.391-14.445,6.205L25,23.734V16.92c2.551-1.474,4.102-4.239,3.995-7.214  c-0.15-4.179-3.676-7.636-7.859-7.705c-2.191-0.034-4.204,0.78-5.745,2.295C13.849,5.812,13,7.838,13,10c0,2.85,1.551,5.5,4,6.92  v6.814L13.419,30H7c-2.757,0-5,2.243-5,5v4c0,0.552,0.448,1,1,1h1v3c0,0.552,0.448,1,1,1h17.101C23.108,54.092,31.647,62,42,62  c11.028,0,20-8.972,20-20S53.028,22,42,22z M4,35c0-1.654,1.346-3,3-3h7c0.359,0,0.69-0.192,0.868-0.504l4-7  C18.955,24.345,19,24.174,19,24v-7.683c0-0.386-0.222-0.737-0.57-0.903C16.346,14.423,15,12.297,15,10  c0-1.622,0.637-3.141,1.793-4.278c1.156-1.137,2.684-1.751,4.309-1.721c3.137,0.052,5.781,2.644,5.894,5.777  c0.086,2.393-1.258,4.605-3.425,5.636c-0.348,0.166-0.57,0.517-0.57,0.903V24c0,0.174,0.045,0.345,0.132,0.496l3.027,5.297  c-0.607,0.787-1.145,1.623-1.625,2.491c-0.056,0.1-0.114,0.198-0.168,0.298c-0.227,0.427-0.435,0.863-0.63,1.306  c-0.105,0.235-0.204,0.471-0.299,0.711c-0.093,0.236-0.178,0.475-0.262,0.714c-0.17,0.476-0.321,0.959-0.455,1.451  c-0.026,0.096-0.05,0.193-0.075,0.289c-0.081,0.315-0.176,0.625-0.241,0.946H5H4V35z M6,42v-2h16.101  c-0.014,0.135-0.01,0.275-0.021,0.411C22.031,40.96,22,41.492,22,42H6z M43,59.949V57h-2v2.949  C31.874,59.444,24.556,52.126,24.051,43H27v-2h-2.949c0.008-0.152,0.011-0.306,0.023-0.457c0.041-0.442,0.096-0.899,0.173-1.386  c0.177-1.112,0.461-2.197,0.835-3.245c0.05-0.138,0.098-0.276,0.151-0.412c0.104-0.272,0.214-0.541,0.332-0.807  c0.181-0.405,0.368-0.807,0.577-1.196c0.049-0.092,0.105-0.18,0.156-0.271c0.22-0.393,0.452-0.778,0.701-1.152  c0.052-0.078,0.104-0.156,0.157-0.234c3.069-4.47,8.103-7.471,13.844-7.789V27h2v-2.949C52.126,24.556,59.444,31.874,59.949,41H57v2  h2.949C59.444,52.126,52.126,59.444,43,59.949z"></path><path d="M49.466,53.846l1.068,1.69c2.193-1.385,4.037-3.304,5.333-5.548l-1.732-1C53,50.953,51.386,52.632,49.466,53.846z"></path><path d="M55.497,45.734c-0.175,0.634-0.397,1.261-0.662,1.866l1.833,0.801c0.302-0.691,0.556-1.41,0.756-2.134L55.497,45.734z"></path><path d="M44.805,40.964l9.836-8.196l-1.28-1.536l-9.837,8.198C43.075,39.163,42.558,39,42,39c-0.759,0-1.446,0.293-1.975,0.759  l-6.54-3.633l-0.972,1.748l6.536,3.631C39.023,41.667,39,41.831,39,42c0,1.654,1.346,3,3,3s3-1.346,3-3  C45,41.635,44.925,41.288,44.805,40.964z M42,43c-0.551,0-1-0.449-1-1c0-0.551,0.449-1,1-1s1,0.449,1,1C43,42.551,42.551,43,42,43z"></path><rect x="41" y="49" width="2" height="2"></rect><rect x="37" y="49" width="2" height="2"></rect><rect x="45" y="49" width="2" height="2"></rect></svg></g></svg>