<svg xmlns="http://www.w3.org/2000/svg" data-name="Livello 1" viewBox="0 0 90 90" x="0px" y="0px"><defs><style>.cls-1{fill:none;}</style></defs><title>Senza titolo-2</title><path class="cls-1" d="M75.394,16.822c-0.312.031-.615,0.068-0.91,0.11-0.266.038-.529,0.079-0.781,0.127-0.278.052-.547,0.111-0.809,0.174-0.24.057-.477,0.116-0.7,0.182-0.247.072-.483,0.15-0.714,0.231-0.214.075-.426,0.15-0.628,0.232-0.217.089-.423,0.184-0.627,0.28s-0.379.18-.556,0.276-0.368.213-.545,0.323-0.333.206-.488,0.314-0.318.237-.471,0.359-0.289.227-.423,0.346-0.271.257-.4,0.388-0.249.245-.362,0.372-0.228.272-.337,0.41-0.211.26-.306,0.393-0.188.283-.279,0.426-0.176.269-.254,0.406-0.154.292-.228,0.438-0.143.273-.205,0.41-0.123.3-.182,0.446-0.112.27-.16,0.405c-0.053.151-.1,0.3-0.142,0.45-0.04.131-.085,0.264-0.12,0.394-0.041.153-.072,0.3-0.106,0.453-0.028.123-.061,0.248-0.084,0.368-0.032.163-.054,0.32-0.079,0.478-0.016.1-.037,0.208-0.05,0.309-0.032.245-.057,0.483-0.075,0.711V28.6l0,0.015,0,3.433a5.579,5.579,0,1,1-11.157,0V31.571a4.44,4.44,0,0,1-6.869-3.7V25.746c-0.022-.266-0.319-3.207-3.1-3.207a3.088,3.088,0,0,0-2.3.807,3.668,3.668,0,0,0-.87,2.371V40.695a4.871,4.871,0,0,1-4.879,4.852h-0.35a4.829,4.829,0,0,1-2.853-.929v4.508a4.838,4.838,0,0,1-9.676,0V34.634c0-.028,0-0.073-0.01-0.128L22.3,34.453c0-.045-0.01-0.094-0.017-0.151,0-.029-0.01-0.065-0.014-0.1-0.008-.056-0.016-0.112-0.028-0.176-0.007-.04-0.016-0.085-0.025-0.127-0.013-.064-0.026-0.13-0.042-0.2-0.011-.049-0.025-0.1-0.038-0.153-0.018-.071-0.037-0.143-0.059-0.218-0.016-.056-0.035-0.114-0.053-0.172C22,33.082,21.975,33,21.946,32.926c-0.022-.061-0.046-0.123-0.071-0.185-0.032-.08-0.066-0.16-0.1-0.241q-0.043-.1-0.091-0.192c-0.04-.081-0.085-0.162-0.13-0.243-0.036-.065-0.073-0.129-0.113-0.194-0.05-.081-0.106-0.161-0.162-0.242-0.044-.063-0.087-0.126-0.135-0.187-0.063-.081-0.132-0.159-0.2-0.237-0.051-.058-0.1-0.117-0.156-0.173-0.078-.079-0.165-0.154-0.251-0.229-0.058-.051-0.112-0.1-0.173-0.152-0.1-.08-0.215-0.153-0.327-0.227-0.057-.037-0.108-0.078-0.168-0.113a4.637,4.637,0,0,0-.571-0.286c-0.021-.009-0.046-0.014-0.067-0.023a5.109,5.109,0,0,0-.588-0.2c-0.08-.021-0.171-0.034-0.255-0.052-0.138-.03-0.277-0.059-0.424-0.08v27.88a1.7,1.7,0,0,0,1.694,1.694H75.058a1.7,1.7,0,0,0,1.693-1.694V16.736c-0.164.006-.333,0.009-0.493,0.019C75.964,16.773,75.675,16.794,75.394,16.822Z"></path><path class="cls-1" d="M19.1,27.867c0.188,0.049.375,0.1,0.551,0.158,0.1,0.034.19,0.076,0.286,0.114,0.151,0.06.3,0.119,0.443,0.187,0.1,0.047.186,0.1,0.278,0.149,0.128,0.07.257,0.139,0.378,0.216,0.09,0.057.174,0.118,0.259,0.179,0.112,0.079.223,0.158,0.327,0.242,0.081,0.066.158,0.134,0.235,0.2,0.1,0.087.193,0.174,0.284,0.265,0.072,0.073.141,0.147,0.209,0.222,0.085,0.093.167,0.187,0.246,0.283,0.063,0.078.124,0.157,0.184,0.236,0.073,0.1.143,0.2,0.21,0.3,0.055,0.082.108,0.163,0.159,0.246,0.063,0.1.121,0.2,0.178,0.308,0.046,0.083.091,0.166,0.133,0.249,0.053,0.106.1,0.211,0.149,0.317,0.037,0.083.075,0.165,0.108,0.247,0.044,0.107.083,0.214,0.122,0.321,0.029,0.081.06,0.161,0.086,0.241,0.036,0.109.066,0.216,0.1,0.323,0.021,0.076.045,0.152,0.064,0.226,0.028,0.111.05,0.218,0.073,0.326,0.014,0.068.031,0.138,0.044,0.2,0.021,0.116.037,0.227,0.052,0.339,0.007,0.053.018,0.109,0.024,0.161,0.019,0.161.031,0.316,0.038,0.462V49.125a2.838,2.838,0,0,0,5.676,0V40.695a1,1,0,0,1,2,0,2.855,2.855,0,0,0,2.853,2.852h0.35a2.868,2.868,0,0,0,2.879-2.852V25.746a5.676,5.676,0,0,1,1.423-3.78,4.988,4.988,0,0,1,3.747-1.426c3.767,0,4.98,3.363,5.1,5.142l0,2.193a2.435,2.435,0,0,0,4.869,0,1,1,0,1,1,2,0v4.175a3.579,3.579,0,1,0,7.157,0V28.632c0-.032-0.005-0.083-0.008-0.145l0-.037,0-.079c0-.054,0-0.116-0.006-0.186V28.179c0-.14,0-0.31,0-0.506V27.627c0-.079,0-0.164.006-0.25,0-.028,0-0.054,0-0.083q0.006-.174.016-0.364c0.009-.114.019-0.232,0.032-0.355,0-.031.008-0.065,0.011-0.1,0.01-.092.02-0.184,0.032-0.28,0.007-.053.015-0.108,0.023-0.162,0.011-.079.021-0.156,0.034-0.238,0.01-.064.022-0.13,0.033-0.2s0.024-.148.038-0.225,0.027-.137.041-0.206,0.03-.156.048-0.235,0.032-.14.048-0.21,0.037-.162.058-0.245,0.038-.147.058-0.22,0.044-.165.068-0.248,0.046-.155.07-0.233,0.049-.163.076-0.245,0.054-.159.081-0.239,0.058-.167.089-0.252,0.061-.16.092-0.241,0.066-.169.1-0.254,0.07-.164.106-0.246,0.075-.169.114-0.253,0.079-.166.12-0.249,0.084-.168.128-0.252,0.089-.167.135-0.25,0.094-.168.142-0.251,0.1-.166.15-0.248,0.1-.167.159-0.25,0.109-.164.165-0.246,0.115-.165.175-0.247,0.12-.162.182-0.243,0.128-.163.193-0.243,0.13-.159.2-0.238,0.14-.159.212-0.238,0.143-.156.217-0.233,0.153-.155.232-0.232,0.153-.15.233-0.223,0.169-.153.256-0.228,0.164-.143.25-0.214,0.184-.147.278-0.219,0.177-.137.268-0.2,0.2-.141.3-0.211,0.189-.13.287-0.193,0.217-.134.328-0.2,0.2-.122.307-0.181,0.235-.126.355-0.188,0.214-.114.325-0.168,0.258-.119.389-0.178c0.112-.05.222-0.1,0.338-0.151,0.138-.058.283-0.111,0.427-0.166,0.117-.045.231-0.091,0.351-0.134,0.153-.054.314-0.1,0.473-0.154,0.118-.038.232-0.078,0.353-0.113,0.181-.053.371-0.1,0.559-0.149,0.108-.028.211-0.058,0.321-0.084q0.437-.1.9-0.19l0.033-.007q0.481-.089.99-0.157c0.107-.014.221-0.024,0.33-0.037,0.236-.028.471-0.057,0.716-0.079,0.141-.012.289-0.019,0.433-0.029,0.2-.014.4-0.032,0.613-0.042a1.69,1.69,0,0,0-1.387-.723H19.653A1.7,1.7,0,0,0,17.959,15.7V27.652a8.112,8.112,0,0,1,.887.145C18.934,27.817,19.014,27.845,19.1,27.867Z"></path><path d="M75.058,12.005H59.008a2.019,2.019,0,0,0,.023-0.229V11.631a2.07,2.07,0,0,0-2.068-2.068H48.351V6.972a1,1,0,1,0-2,0V9.563H37.739a2.07,2.07,0,0,0-2.067,2.068v0.145a2.019,2.019,0,0,0,.023.229H19.653A3.7,3.7,0,0,0,15.959,15.7V57.556a3.7,3.7,0,0,0,3.694,3.694h4.024v2.467a1.7,1.7,0,0,0,1.7,1.7h9.08L30.365,85.284a1,1,0,0,0,.778,1.181,0.986,0.986,0,0,0,.2.021,1,1,0,0,0,.979-0.8L36.5,65.413H58.206l4.171,20.274a1,1,0,0,0,.979.8,0.986,0.986,0,0,0,.2-0.021,1,1,0,0,0,.778-1.181L60.248,65.413h9.08a1.7,1.7,0,0,0,1.7-1.7V61.249h4.033a3.7,3.7,0,0,0,3.693-3.694V15.7A3.7,3.7,0,0,0,75.058,12.005ZM17.959,15.7a1.7,1.7,0,0,1,1.694-1.693H75.058a1.69,1.69,0,0,1,1.387.723c-0.21.01-.409,0.027-0.613,0.042-0.144.01-.292,0.017-0.433,0.029-0.245.022-.48,0.05-0.716,0.079-0.109.013-.223,0.023-0.33,0.037q-0.509.069-.99,0.157l-0.033.007q-0.462.086-.9,0.19c-0.11.026-.213,0.057-0.321,0.084-0.188.048-.378,0.1-0.559,0.149-0.121.036-.235,0.076-0.353,0.113-0.159.051-.32,0.1-0.473,0.154-0.12.042-.234,0.089-0.351,0.134-0.143.055-.288,0.108-0.427,0.166-0.116.048-.225,0.1-0.338,0.151-0.131.059-.263,0.116-0.389,0.178S69,16.509,68.9,16.566s-0.24.124-.355,0.188-0.205.12-.307,0.181-0.221.132-.328,0.2-0.192.128-.287,0.193-0.2.139-.3,0.211-0.18.136-.268,0.2-0.188.145-.278,0.219-0.168.142-.25,0.214-0.173.151-.256,0.228-0.156.148-.233,0.223-0.157.154-.232,0.232-0.146.155-.217,0.233-0.143.158-.212,0.238-0.133.158-.2,0.238-0.13.162-.193,0.243-0.123.162-.182,0.243-0.118.164-.175,0.247-0.112.164-.165,0.246-0.107.166-.159,0.25-0.1.165-.15,0.248-0.1.167-.142,0.251-0.091.167-.135,0.25-0.086.168-.128,0.252-0.081.166-.12,0.249-0.077.169-.114,0.253-0.072.164-.106,0.246-0.068.169-.1,0.254-0.063.161-.092,0.241-0.06.168-.089,0.252-0.056.16-.081,0.239-0.051.164-.076,0.245-0.048.156-.07,0.233-0.046.166-.068,0.248-0.04.148-.058,0.22-0.039.164-.058,0.245-0.033.141-.048,0.21-0.032.157-.048,0.235-0.028.139-.041,0.206-0.026.15-.038,0.225-0.023.132-.033,0.2c-0.013.081-.023,0.159-0.034,0.238-0.007.054-.016,0.109-0.023,0.162-0.012.1-.022,0.188-0.032,0.28,0,0.032-.008.066-0.011,0.1-0.012.123-.023,0.241-0.032,0.355s-0.012.248-.016,0.364c0,0.029,0,.055,0,0.083,0,0.086,0,.171-0.006.25v0.046c0,0.2,0,.367,0,0.506v0.006c0,0.071,0,.133.006,0.186l0,0.079,0,0.037c0,0.061.006,0.113,0.008,0.145v3.416a3.579,3.579,0,1,1-7.157,0V27.873a1,1,0,1,0-2,0,2.435,2.435,0,0,1-4.869,0l0-2.193c-0.116-1.778-1.33-5.142-5.1-5.142A4.988,4.988,0,0,0,39.5,21.965a5.676,5.676,0,0,0-1.423,3.78V40.695a2.868,2.868,0,0,1-2.879,2.852h-0.35a2.855,2.855,0,0,1-2.853-2.852,1,1,0,0,0-2,0v8.431a2.838,2.838,0,0,1-5.676,0V34.59c-0.007-.146-0.019-0.3-0.038-0.462-0.006-.052-0.016-0.108-0.024-0.161-0.015-.111-0.031-0.223-0.052-0.339-0.012-.067-0.029-0.136-0.044-0.2-0.023-.108-0.045-0.215-0.073-0.326-0.019-.075-0.042-0.151-0.064-0.226-0.03-.107-0.061-0.214-0.1-0.323-0.026-.08-0.057-0.16-0.086-0.241-0.039-.107-0.078-0.213-0.122-0.321-0.034-.083-0.071-0.165-0.108-0.247-0.048-.106-0.1-0.211-0.149-0.317-0.042-.084-0.087-0.166-0.133-0.249-0.057-.1-0.116-0.206-0.178-0.308-0.051-.083-0.1-0.165-0.159-0.246-0.067-.1-0.137-0.2-0.21-0.3-0.059-.08-0.12-0.158-0.184-0.236-0.078-.1-0.161-0.19-0.246-0.283-0.068-.075-0.137-0.149-0.209-0.222-0.091-.091-0.187-0.178-0.284-0.265-0.077-.069-0.154-0.137-0.235-0.2-0.1-.084-0.215-0.163-0.327-0.242-0.086-.06-0.169-0.122-0.259-0.179-0.12-.077-0.249-0.146-0.378-0.216-0.092-.05-0.182-0.1-0.278-0.149-0.141-.068-0.293-0.127-0.443-0.187-0.1-.038-0.187-0.08-0.286-0.114-0.176-.061-0.363-0.109-0.551-0.158-0.086-.022-0.166-0.05-0.255-0.07a8.112,8.112,0,0,0-.887-0.145V15.7ZM76.752,57.556a1.7,1.7,0,0,1-1.693,1.694H19.653a1.7,1.7,0,0,1-1.694-1.694V29.675c0.147,0.021.286,0.05,0.424,0.08,0.084,0.018.174,0.031,0.255,0.052a5.109,5.109,0,0,1,.588.2c0.021,0.008.046,0.014,0.067,0.023a4.637,4.637,0,0,1,.571.286c0.06,0.035.111,0.076,0.168,0.113,0.113,0.073.226,0.147,0.327,0.227,0.062,0.048.116,0.1,0.173,0.152,0.086,0.075.173,0.15,0.251,0.229,0.055,0.056.1,0.115,0.156,0.173,0.069,0.078.139,0.157,0.2,0.237,0.048,0.062.091,0.125,0.135,0.187,0.056,0.08.112,0.16,0.162,0.242,0.04,0.064.077,0.129,0.113,0.194,0.046,0.081.09,0.162,0.13,0.243q0.048,0.1.091,0.192c0.037,0.081.071,0.161,0.1,0.241,0.025,0.062.049,0.124,0.071,0.185C21.975,33,22,33.082,22.025,33.158c0.019,0.058.037,0.116,0.053,0.172,0.022,0.075.041,0.147,0.059,0.218,0.013,0.052.027,0.1,0.038,0.153,0.016,0.07.029,0.136,0.042,0.2,0.008,0.043.018,0.087,0.025,0.127,0.011,0.063.02,0.12,0.028,0.176,0,0.032.011,0.068,0.014,0.1,0.007,0.058.013,0.106,0.017,0.151l0.006,0.053c0.005,0.055.008,0.1,0.01,0.128V49.125a4.838,4.838,0,0,0,9.676,0V44.618a4.829,4.829,0,0,0,2.853.929h0.35a4.871,4.871,0,0,0,4.879-4.852V25.717a3.668,3.668,0,0,1,.87-2.371,3.088,3.088,0,0,1,2.3-.807c2.779,0,3.076,2.94,3.1,3.207v2.128a4.44,4.44,0,0,0,6.869,3.7v0.478a5.579,5.579,0,1,0,11.157,0l0-3.433,0-.015V27.034c0.018-.229.042-0.466,0.075-0.711,0.013-.1.034-0.206,0.05-0.309,0.025-.158.047-0.315,0.079-0.478,0.024-.121.057-0.246,0.084-0.368,0.034-.151.065-0.3,0.106-0.453,0.035-.13.08-0.262,0.12-0.394,0.046-.15.088-0.3,0.142-0.45,0.047-.135.106-0.27,0.16-0.405s0.115-.3.182-0.446,0.136-.273.205-0.41,0.145-.293.228-0.438,0.168-.271.254-0.406,0.179-.285.279-0.426,0.2-.262.306-0.393,0.217-.276.337-0.41,0.239-.249.362-0.372,0.26-.262.4-0.388,0.279-.232.423-0.346,0.306-.243.471-0.359,0.322-.211.488-0.314,0.355-.219.545-0.323,0.367-.186.556-0.276,0.409-.192.627-0.28c0.2-.082.414-0.157,0.628-0.232,0.232-.081.468-0.159,0.714-0.231,0.227-.066.464-0.125,0.7-0.182,0.262-.063.531-0.122,0.809-0.174,0.253-.048.515-0.089,0.781-0.127,0.295-.042.6-0.08,0.91-0.11,0.281-.028.57-0.049,0.865-0.067,0.16-.009.329-0.012,0.493-0.019V57.556Z"></path></svg>