<svg fill="#143F5B" xmlns="http://www.w3.org/2000/svg" xmlns:xlink="http://www.w3.org/1999/xlink" version="1.1" x="0px" y="0px" viewBox="0 0 100 100" style="enable-background:new 0 0 100 100;" xml:space="preserve"><path d="M62.6,51.3h19.5c0.6,3,3.2,5.2,6.4,5.2c3.6,0,6.5-2.9,6.5-6.5s-2.9-6.5-6.5-6.5c-3.1,0-5.8,2.2-6.4,5.2H62.6  c-0.1-1.4-0.5-2.7-1.1-3.9l16.9-9.7c0.8,1,1.9,1.6,3.2,2c0.6,0.2,1.1,0.2,1.7,0.2c1.1,0,2.2-0.3,3.2-0.9c3.1-1.8,4.2-5.8,2.4-8.9  c-0.9-1.5-2.3-2.6-3.9-3c-1.7-0.4-3.4-0.2-4.9,0.6c-1.5,0.9-2.6,2.3-3,3.9c-0.3,1.3-0.3,2.6,0.1,3.8l-16.9,9.7  c-0.8-1.1-1.8-2.1-2.9-2.9l9.8-16.9c0.7,0.2,1.4,0.4,2.1,0.4c0.6,0,1.1-0.1,1.7-0.2c1.7-0.4,3.1-1.5,3.9-3s1.1-3.3,0.6-4.9  c-0.4-1.7-1.5-3.1-3-3.9c-1.5-0.9-3.3-1.1-4.9-0.6c-1.7,0.4-3.1,1.5-3.9,3c-1.6,2.7-0.9,6.1,1.3,8.1l-9.7,16.9  c-1.2-0.5-2.5-0.9-3.9-1.1V17.9c3-0.6,5.2-3.2,5.2-6.4C56.5,7.9,53.6,5,50,5s-6.5,2.9-6.5,6.5c0,3.1,2.2,5.8,5.2,6.4v19.5  c-1.4,0.1-2.7,0.5-3.9,1.1l-9.7-16.9c2.3-2,2.9-5.4,1.3-8.1c-1.8-3.1-5.8-4.2-8.9-2.4c-1.5,0.9-2.6,2.3-3,3.9  c-0.4,1.7-0.2,3.4,0.6,4.9c0.9,1.5,2.3,2.6,3.9,3c0.6,0.2,1.1,0.2,1.7,0.2c0.7,0,1.4-0.1,2.1-0.4l9.8,16.9c-1.1,0.8-2.1,1.8-2.9,2.9  l-16.9-9.7c0.4-1.2,0.5-2.5,0.1-3.8c-0.4-1.7-1.5-3.1-3-3.9c-1.5-0.9-3.3-1.1-4.9-0.6c-1.7,0.4-3.1,1.5-3.9,3  c-1.8,3.1-0.7,7.1,2.4,8.9c1,0.6,2.1,0.9,3.2,0.9c1.8,0,3.6-0.8,4.9-2.2l16.9,9.8c-0.5,1.2-0.9,2.5-1.1,3.9H17.9  c-0.6-3-3.2-5.2-6.4-5.2C7.9,43.5,5,46.4,5,50s2.9,6.5,6.5,6.5c3.1,0,5.8-2.2,6.4-5.2h19.5c0.1,1.4,0.5,2.7,1.1,3.9l-16.9,9.7  c-0.8-1-1.9-1.6-3.2-2c-1.7-0.4-3.4-0.2-4.9,0.6c-1.5,0.9-2.6,2.3-3,3.9c-0.4,1.7-0.2,3.4,0.6,4.9c0.9,1.5,2.3,2.6,3.9,3  c0.6,0.1,1.1,0.2,1.7,0.2c1.1,0,2.2-0.3,3.2-0.9c1.5-0.9,2.6-2.3,3-3.9c0.3-1.3,0.3-2.6-0.1-3.8l16.9-9.7c0.8,1.1,1.8,2.1,2.9,2.9  L32.9,77c-2.9-1-6.1,0.2-7.7,2.9c-0.9,1.5-1.1,3.3-0.6,4.9c0.4,1.7,1.5,3.1,3,3.9c1,0.6,2.1,0.9,3.2,0.9c2.2,0,4.4-1.2,5.6-3.3  c0.9-1.5,1.1-3.3,0.6-4.9c-0.3-1.3-1-2.4-2-3.2l9.7-16.9c1.2,0.5,2.5,0.9,3.9,1.1v19.5c-3,0.6-5.2,3.2-5.2,6.4  c0,3.6,2.9,6.5,6.5,6.5s6.5-2.9,6.5-6.5c0-3.1-2.2-5.8-5.2-6.4V62.6c1.4-0.1,2.7-0.5,3.9-1.1l9.7,16.9c-1,0.8-1.6,1.9-2,3.2  c-0.4,1.7-0.2,3.4,0.6,4.9c0.9,1.5,2.3,2.6,3.9,3c0.6,0.1,1.1,0.2,1.7,0.2c1.1,0,2.2-0.3,3.2-0.9c1.5-0.9,2.6-2.3,3-3.9  c0.4-1.7,0.2-3.4-0.6-4.9c-0.9-1.5-2.3-2.6-3.9-3c-1.3-0.3-2.6-0.3-3.8,0.1l-9.7-16.9c1.1-0.8,2.1-1.8,2.9-2.9L77,67  c-0.4,1.2-0.5,2.5-0.1,3.8c0.4,1.7,1.5,3.1,3,3.9c1,0.6,2.1,0.9,3.2,0.9c0.6,0,1.1-0.1,1.7-0.2c1.7-0.4,3.1-1.5,3.9-3  c0.9-1.5,1.1-3.3,0.6-4.9c-0.4-1.7-1.5-3.1-3-3.9c-1.5-0.9-3.3-1.1-4.9-0.6c-1.3,0.3-2.4,1-3.2,2l-16.9-9.7  C62.1,54,62.5,52.7,62.6,51.3z M88.5,46.1c2.2,0,3.9,1.8,3.9,3.9c0,2.2-1.8,3.9-3.9,3.9c-2.2,0-3.9-1.8-3.9-3.9  C84.6,47.8,86.3,46.1,88.5,46.1z M79.5,29.7c0.3-1,0.9-1.9,1.8-2.4c0.6-0.3,1.3-0.5,2-0.5c0.3,0,0.7,0,1,0.1c1,0.3,1.9,0.9,2.4,1.8  c1.1,1.9,0.4,4.3-1.4,5.4c-0.9,0.5-2,0.7-3,0.4s-1.9-0.9-2.4-1.8C79.4,31.8,79.3,30.7,79.5,29.7z M65.8,14.7  c0.5-0.9,1.4-1.6,2.4-1.8c0.3-0.1,0.7-0.1,1-0.1c0.7,0,1.4,0.2,2,0.5c0.9,0.5,1.6,1.4,1.8,2.4c0.3,1,0.1,2.1-0.4,3s-1.4,1.6-2.4,1.8  c-1,0.3-2.1,0.1-3-0.4C65.4,19,64.8,16.6,65.8,14.7z M29.7,20.5c-1-0.3-1.9-0.9-2.4-1.8s-0.7-2-0.4-3c0.3-1,0.9-1.9,1.8-2.4  c0.6-0.3,1.3-0.5,2-0.5c0.3,0,0.7,0,1,0.1c1,0.3,1.9,0.9,2.4,1.8c1.1,1.9,0.4,4.3-1.4,5.4C31.8,20.6,30.7,20.7,29.7,20.5z   M14.7,34.2c-1.9-1.1-2.5-3.5-1.4-5.4c0.5-0.9,1.4-1.6,2.4-1.8c0.3-0.1,0.7-0.1,1-0.1c0.7,0,1.4,0.2,2,0.5c0.9,0.5,1.6,1.4,1.8,2.4  c0.3,1,0.1,2.1-0.4,3C19,34.6,16.6,35.2,14.7,34.2z M11.5,53.9c-2.2,0-3.9-1.8-3.9-3.9c0-2.2,1.8-3.9,3.9-3.9c2.2,0,3.9,1.8,3.9,3.9  C15.4,52.2,13.7,53.9,11.5,53.9z M20.5,70.3c-0.3,1-0.9,1.9-1.8,2.4s-2,0.7-3,0.4c-1-0.3-1.9-0.9-2.4-1.8s-0.7-2-0.4-3  s0.9-1.9,1.8-2.4l0,0c0.6-0.3,1.3-0.5,2-0.5c0.3,0,0.7,0,1,0.1c1,0.3,1.9,0.9,2.4,1.8S20.7,69.3,20.5,70.3z M34.2,85.3  c-0.5,0.9-1.4,1.6-2.4,1.8c-1,0.3-2.1,0.1-3-0.4s-1.6-1.4-1.8-2.4c-0.3-1-0.1-2.1,0.4-3c0.7-1.3,2-2,3.4-2c0.7,0,1.3,0.2,2,0.5  c0.9,0.5,1.6,1.4,1.8,2.4C34.8,83.3,34.7,84.4,34.2,85.3z M69.2,79.4c1.4,0,2.7,0.7,3.4,2c0.5,0.9,0.7,2,0.4,3  c-0.3,1-0.9,1.9-1.8,2.4c-1.9,1.1-4.3,0.4-5.4-1.4c-0.5-0.9-0.7-2-0.4-3c0.3-1,0.9-1.9,1.8-2.4C67.9,79.6,68.6,79.4,69.2,79.4z   M82.3,65.5c0.3-0.1,0.7-0.1,1-0.1c0.7,0,1.4,0.2,2,0.5c0.9,0.5,1.6,1.4,1.8,2.4c0.3,1,0.1,2.1-0.4,3s-1.4,1.6-2.4,1.8  c-1,0.3-2.1,0.1-3-0.4c-1.9-1.1-2.5-3.5-1.4-5.4C80.5,66.4,81.3,65.7,82.3,65.5z M46.1,11.5c0-2.2,1.8-3.9,3.9-3.9  c2.2,0,3.9,1.8,3.9,3.9c0,2.2-1.8,3.9-3.9,3.9C47.8,15.4,46.1,13.7,46.1,11.5z M53.9,88.5c0,2.2-1.8,3.9-3.9,3.9  c-2.2,0-3.9-1.8-3.9-3.9c0-2.2,1.8-3.9,3.9-3.9C52.2,84.6,53.9,86.3,53.9,88.5z M50,60.1c-5.6,0-10.1-4.5-10.1-10.1  S44.4,39.9,50,39.9S60.1,44.4,60.1,50S55.6,60.1,50,60.1z"></path></svg>