<svg xmlns="http://www.w3.org/2000/svg" xmlns:xlink="http://www.w3.org/1999/xlink" version="1.1" x="0px" y="0px" viewBox="0 0 30 30" xml:space="preserve"><g transform="translate(-450 -140)"><g xmlns="http://www.w3.org/2000/svg" xmlns:xlink="http://www.w3.org/1999/xlink"><polygon style="" points="465,159 464,159 459,164 459,165   " fill="none"/><path d="M478.5,145c-1.381,0-3.619,1.119-5,2.5c-1.381,1.381-1.381,2.5,0,2.5c1.381,0,3.619-1.119,5-2.5    C479.881,146.119,479.881,145,478.5,145z"/><polygon points="460,159 460,160 459,160 459,164 464,159 465,159 459,165 459,168 466,161 467,161 477,151 468,151   "/><circle cx="454.5" cy="143.5" r="2.5" fill="#2c9e76"/><polygon points="458,159 459,159 459,147 450,147 450,159 451,159 451,169 454,169 454,157 455,157 455,169 458,169   " fill="#143F5B"/></g></g></svg>