<svg xmlns="http://www.w3.org/2000/svg" xmlns:xlink="http://www.w3.org/1999/xlink" version="1.1" x="0px" y="0px" viewBox="0 0 32 32" style="enable-background:new 0 0 32 32;" xml:space="preserve"><g><g><rect x="0" y="26.9" width="32" height="2" fill="#143F5B"/></g><g><rect x="2.7" y="17.7" width="2" height="10.2" fill="#143F5B"/></g><g><rect x="10.9" y="9.5" width="2" height="18.4" fill="#143F5B"/></g><g><rect x="19.1" y="17.7" width="2" height="10.2" fill="#143F5B"/></g><g><path d="M20.1,18.7c-2.1,0-3.7-1.7-3.7-3.7s1.7-3.7,3.7-3.7c2.1,0,3.7,1.7,3.7,3.7S22.1,18.7,20.1,18.7z     M20.1,13.3c-1,0-1.7,0.8-1.7,1.7s0.8,1.7,1.7,1.7c1,0,1.7-0.8,1.7-1.7S21,13.3,20.1,13.3z" fill="#2c9e76"/></g><g><rect x="27.3" y="9.5" width="2" height="18.4" fill="#143F5B"/></g><g><path d="M28.3,10.5c-2.1,0-3.7-1.7-3.7-3.7c0-2.1,1.7-3.7,3.7-3.7c2.1,0,3.7,1.7,3.7,3.7    C32,8.9,30.3,10.5,28.3,10.5z M28.3,5.1c-1,0-1.7,0.8-1.7,1.7c0,1,0.8,1.7,1.7,1.7c1,0,1.7-0.8,1.7-1.7C30,5.9,29.2,5.1,28.3,5.1z    " fill="#2c9e76"/></g><g><path d="M11.9,10.5c-2.1,0-3.7-1.7-3.7-3.7c0-2.1,1.7-3.7,3.7-3.7c2.1,0,3.7,1.7,3.7,3.7    C15.6,8.9,14,10.5,11.9,10.5z M11.9,5.1c-1,0-1.7,0.8-1.7,1.7c0,1,0.8,1.7,1.7,1.7c1,0,1.7-0.8,1.7-1.7    C13.6,5.9,12.9,5.1,11.9,5.1z" fill="#2c9e76"/></g><g><path d="M3.7,18.7C1.7,18.7,0,17.1,0,15s1.7-3.7,3.7-3.7c2.1,0,3.7,1.7,3.7,3.7S5.8,18.7,3.7,18.7z M3.7,13.3    C2.8,13.3,2,14,2,15s0.8,1.7,1.7,1.7c1,0,1.7-0.8,1.7-1.7S4.7,13.3,3.7,13.3z" fill="#2c9e76"/></g><g><rect x="23.2" y="7.9" transform="matrix(0.7071 0.7071 -0.7071 0.7071 14.7976 -13.9044)" width="2" height="6.1" fill="#2c9e76"/></g><g><rect x="12.9" y="9.9" transform="matrix(0.707 0.7072 -0.7072 0.707 12.4024 -8.1189)" width="6.1" height="2" fill="#2c9e76"/></g><g><rect x="6.8" y="7.9" transform="matrix(0.7071 0.7071 -0.7071 0.7071 10.0037 -2.3328)" width="2" height="6.1" fill="#2c9e76"/></g></g></svg>