<svg xmlns:dc="http://purl.org/dc/elements/1.1/" xmlns:cc="http://creativecommons.org/ns#" xmlns:rdf="http://www.w3.org/1999/02/22-rdf-syntax-ns#" xmlns:svg="http://www.w3.org/2000/svg" xmlns="http://www.w3.org/2000/svg" xmlns:sodipodi="http://sodipodi.sourceforge.net/DTD/sodipodi-0.dtd" xmlns:inkscape="http://www.inkscape.org/namespaces/inkscape" version="1.1" x="0px" y="0px" viewBox="0 0 100 100"><g transform="translate(0,-952.36218)"><path transform="translate(34.381811,1001.8668)" style="" d="m 28.30683,19.21567 c 0,0.356927 -0.289347,0.646274 -0.646275,0.646274 -0.356928,0 -0.646275,-0.289347 -0.646275,-0.646274 0,-0.356928 0.289347,-0.646275 0.646275,-0.646275 0.356928,0 0.646275,0.289347 0.646275,0.646275 z M -20.163768,4.73913 c 0,0.356927 -0.289347,0.646274 -0.646275,0.646274 -0.356928,0 -0.646275,-0.289347 -0.646275,-0.646274 0,-0.356928 0.289347,-0.646275 0.646275,-0.646275 0.356928,0 0.646275,0.289347 0.646275,0.646275 z m 18.6127096,8.53088 c 0,0.356927 -0.289347,0.646274 -0.646275,0.646274 -0.356928,0 -0.646275,-0.289347 -0.646275,-0.646274 0,-0.356928 0.289347,-0.646275 0.646275,-0.646275 0.356928,0 0.646275,0.289347 0.646275,0.646275 z M 12.925493,36.27737 c 0,0.356927 -0.289347,0.646274 -0.646275,0.646274 -0.356928,0 -0.646275,-0.289347 -0.646275,-0.646274 0,-0.356928 0.289347,-0.646275 0.646275,-0.646275 0.356928,0 0.646275,0.289347 0.646275,0.646275 z M 51.960482,6.29019 c 0,0.356927 -0.289347,0.646274 -0.646275,0.646274 -0.356928,0 -0.646275,-0.289347 -0.646275,-0.646274 0,-0.356928 0.289347,-0.646275 0.646275,-0.646275 0.356928,0 0.646275,0.289347 0.646275,0.646275 z M 29.470124,-16.9757 c 0,0.356927 -0.289347,0.646274 -0.646275,0.646274 -0.356928,0 -0.646275,-0.289347 -0.646275,-0.646274 0,-0.356928 0.289347,-0.646275 0.646275,-0.646275 0.356928,0 0.646275,0.289347 0.646275,0.646275 z M -6.4627458,-29.25491 c 0,0.356927 -0.289347,0.646274 -0.646275,0.646274 -0.356928,0 -0.646275,-0.289347 -0.646275,-0.646274 0,-0.356928 0.289347,-0.646275 0.646275,-0.646275 0.356928,0 0.646275,0.289347 0.646275,0.646275 z M 16.051764,0.0282 c 6.843884,43.0158 6.902716,43.1284 6.902716,43.1284 l 0,0 M 16.085069,0.6501 c 42.958423,-7.19523 43.070563,-7.25498 43.070563,-7.25498 l 0,0 M 15.756144,0.2083 c 6.081403,-43.13017 6.058215,-43.2551 6.058215,-43.2551 l 0,0 M -8.392747,36.9646 C 15.319858,0.4283 15.35155,0.3052 15.35155,0.3052 l 0,0 m 0.198726,0.1332 c -41.296061,-13.85005 -41.423125,-13.85005 -41.423125,-13.85005 l 0,0 M 30.279531,0.41672074 C 30.32297,8.5139562 23.794079,15.113277 15.696843,15.156717 7.5996075,15.200157 1.0002867,8.6712653 0.95684741,0.57402983 0.91340816,-7.5232053 7.4423001,-14.122526 15.539536,-14.165966 c 8.097235,-0.04344 14.696556,6.4854516 14.739995,14.58268674 z M 45.122673,0.33709684 C 45.21009,16.631974 32.071349,29.912447 15.776473,29.999865 -0.51840409,30.087282 -13.798878,16.948541 -13.886295,0.6536642 c -0.08742,-16.2948762 13.05132356,-29.5753492 29.3462,-29.6627672 16.294877,-0.08742 29.57535,13.051324 29.662768,29.34619984 z M 60.162079,0.25641279 C 60.294056,24.857325 40.458066,44.907292 15.857155,45.03927 -8.7437571,45.171247 -28.793725,25.335256 -28.925702,0.73434451 -29.057679,-23.866566 -9.2216888,-43.916534 15.379223,-44.048511 39.980134,-44.180488 60.030102,-24.344498 60.162079,0.25641279 z" fill-opacity="0" stroke="#143F5B" stroke-width="5" stroke-linecap="round" stroke-linejoin="miter" stroke-miterlimit="4" stroke-opacity="1"></path></g></svg>