<svg xmlns="http://www.w3.org/2000/svg" viewBox="0 0 96 96" x="0px" y="0px"><title>Arrows-right - Bolder</title><g data-name="Layer 1"><path fill="#143F5B" d="M58,34A10,10,0,1,1,48,24,10,10,0,0,1,58,34Zm16,0c0,5.52-1.54,11.37-3.69,17.22A132,132,0,0,1,62.51,68,199.91,199.91,0,0,1,51.26,86.31l-3.21,4.52-3.28-4.47c0-.06-3.2-4.36-7.15-10.83A141.06,141.06,0,0,1,25.68,51.63C23.53,45.73,22,39.73,22,34a26,26,0,0,1,52,0Zm-8,0a18,18,0,1,0-36,0c0,4.2,1.18,9.36,3.1,14.62a115.14,115.14,0,0,0,7.15,15.49C43,69.23,45.87,73.72,48,76.88c.66-1,1.4-2.19,2.19-3.47A168.08,168.08,0,0,0,60.34,54.47a75.27,75.27,0,0,0,4.82-13.74A31,31,0,0,0,66,34Z"></path></g></svg>