<svg fill="#143F5B" xmlns:dc="http://purl.org/dc/elements/1.1/" xmlns:cc="http://creativecommons.org/ns#" xmlns:rdf="http://www.w3.org/1999/02/22-rdf-syntax-ns#" xmlns:svg="http://www.w3.org/2000/svg" xmlns="http://www.w3.org/2000/svg" xmlns:sodipodi="http://sodipodi.sourceforge.net/DTD/sodipodi-0.dtd" xmlns:inkscape="http://www.inkscape.org/namespaces/inkscape" version="1.1" x="0px" y="0px" viewBox="0 0 100 100"><g transform="translate(0,-952.36218)"><path style="font-size:medium;font-style:normal;font-variant:normal;font-weight:normal;font-stretch:normal;text-indent:0;text-align:start;text-decoration:none;line-height:normal;letter-spacing:normal;word-spacing:normal;text-transform:none;direction:ltr;block-progression:tb;writing-mode:lr-tb;text-anchor:start;baseline-shift:baseline;opacity:1;color:#000000;fill:#143F5B;fill-opacity:1;stroke:none;stroke-width:4;marker:none;visibility:visible;display:inline;overflow:visible;enable-background:accumulate;font-family:Sans;-inkscape-font-specification:Sans" d="M 57 11 C 39.350577 11 25 25.35058 25 43 C 25 48.93643 26.61099 54.51178 29.4375 59.28125 L 12.78125 75.9375 C 10.455387 78.2633 10.45525 82.08055 12.78125 84.40625 L 15.59375 87.21875 C 17.919573 89.54445 21.736744 89.54455 24.0625 87.21875 L 31.875 79.4375 A 2.0108526 2.0108526 0 1 0 29.03125 76.59375 L 21.25 84.40625 C 20.441964 85.21435 19.214395 85.21435 18.40625 84.40625 L 15.59375 81.59375 C 14.785784 80.78595 14.785717 79.558 15.59375 78.75 L 31.75 62.59375 C 37.609018 70.12688 46.735942 75 57 75 C 74.649423 75 89 60.6494 89 43 C 89 25.35058 74.649423 11 57 11 z M 57 15 C 72.487662 15 85 27.51234 85 43 C 85 58.4877 72.487662 71 57 71 C 41.512338 71 29 58.4877 29 43 C 29 27.51234 41.512338 15 57 15 z M 45.75 34.96875 A 2.0002 2.0002 0 0 0 44.59375 35.5625 L 38.59375 41.5625 A 2.0002 2.0002 0 0 0 38.59375 44.40625 L 44.59375 50.40625 A 2.0002 2.0002 0 1 0 47.40625 47.5625 L 42.8125 43 L 47.40625 38.40625 A 2.0002 2.0002 0 0 0 45.75 34.96875 z M 67.78125 34.96875 A 2.0002 2.0002 0 0 0 66.59375 38.40625 L 71.1875 43 L 66.59375 47.5625 A 2.0002 2.0002 0 1 0 69.40625 50.40625 L 75.40625 44.40625 A 2.0002 2.0002 0 0 0 75.40625 41.5625 L 69.40625 35.5625 A 2.0002 2.0002 0 0 0 67.78125 34.96875 z M 36 71 C 34.895431 71 34 71.895431 34 73 C 34 74.104569 34.895431 75 36 75 C 37.104569 75 38 74.104569 38 73 C 38 71.895431 37.104569 71 36 71 z " transform="translate(0,952.36218)"></path></g></svg>