<svg xmlns:dc="http://purl.org/dc/elements/1.1/" xmlns:cc="http://creativecommons.org/ns#" xmlns:rdf="http://www.w3.org/1999/02/22-rdf-syntax-ns#" xmlns:svg="http://www.w3.org/2000/svg" xmlns="http://www.w3.org/2000/svg" xmlns:sodipodi="http://sodipodi.sourceforge.net/DTD/sodipodi-0.dtd" xmlns:inkscape="http://www.inkscape.org/namespaces/inkscape" fill="#143F5B" version="1.1" x="0px" y="0px" viewBox="0 0 100 100"><path style="font-size:medium;font-style:normal;font-variant:normal;font-weight:normal;font-stretch:normal;text-indent:0;text-align:start;text-decoration:none;line-height:normal;letter-spacing:normal;word-spacing:normal;text-transform:none;direction:ltr;block-progression:tb;writing-mode:lr-tb;text-anchor:start;baseline-shift:baseline;opacity:1;color:#000000;fill:#143F5B;fill-opacity:1;stroke:none;stroke-width:3.99999976000000010;marker:none;visibility:visible;display:inline;overflow:visible;enable-background:accumulate;font-family:Sans;-inkscape-font-specification:Sans" d="M 50 6 C 45.053127 6 41 10.053127 41 15 C 41 19.946873 45.053127 24 50 24 C 54.946873 24 59 19.946873 59 15 C 59 10.053127 54.946873 6 50 6 z M 50 10 C 52.785113 10 55 12.214887 55 15 C 55 17.785113 52.785113 20 50 20 C 47.214887 20 45 17.785113 45 15 C 45 12.214887 47.214887 10 50 10 z M 25 16 C 20.053127 16 16 20.053127 16 25 C 16 29.946873 20.053127 34 25 34 C 29.946873 34 34 29.946873 34 25 C 34 20.053127 29.946873 16 25 16 z M 75 16 C 70.053127 16 66 20.053127 66 25 C 66 29.946873 70.053127 34 75 34 C 79.946873 34 84 29.946873 84 25 C 84 20.053127 79.946873 16 75 16 z M 25 20 C 27.785113 20 30 22.214887 30 25 C 30 27.785113 27.785113 30 25 30 C 22.214887 30 20 27.785113 20 25 C 20 22.214887 22.214887 20 25 20 z M 75 20 C 77.785113 20 80 22.214887 80 25 C 80 27.785113 77.785113 30 75 30 C 72.214887 30 70 27.785113 70 25 C 70 22.214887 72.214887 20 75 20 z M 15 41 C 10.053127 41 6 45.053127 6 50 C 6 54.946873 10.053127 59 15 59 C 19.946873 59 24 54.946873 24 50 C 24 45.053127 19.946873 41 15 41 z M 85 41 C 80.053127 41 76 45.053127 76 50 C 76 54.946873 80.053127 59 85 59 C 89.946873 59 94 54.946873 94 50 C 94 45.053127 89.946873 41 85 41 z M 15 45 C 17.785113 45 20 47.214887 20 50 C 20 52.785113 17.785113 55 15 55 C 12.214887 55 10 52.785113 10 50 C 10 47.214887 12.214887 45 15 45 z M 85 45 C 87.785113 45 90 47.214887 90 50 C 90 52.785113 87.785113 55 85 55 C 82.214887 55 80 52.785113 80 50 C 80 47.214887 82.214887 45 85 45 z M 25 66 C 20.053127 66 16 70.053127 16 75 C 16 79.946873 20.053127 84 25 84 C 29.946873 84 34 79.946873 34 75 C 34 70.053127 29.946873 66 25 66 z M 75 66 C 70.053127 66 66 70.053127 66 75 C 66 79.946873 70.053127 84 75 84 C 79.946873 84 84 79.946873 84 75 C 84 70.053127 79.946873 66 75 66 z M 25 70 C 27.785113 70 30 72.214887 30 75 C 30 77.785113 27.785113 80 25 80 C 22.214887 80 20 77.785113 20 75 C 20 72.214887 22.214887 70 25 70 z M 75 70 C 77.785113 70 80 72.214887 80 75 C 80 77.785113 77.785113 80 75 80 C 72.214887 80 70 77.785113 70 75 C 70 72.214887 72.214887 70 75 70 z M 50 76 C 45.053127 76 41 80.053127 41 85 C 41 89.946873 45.053127 94 50 94 C 54.946873 94 59 89.946873 59 85 C 59 80.053127 54.946873 76 50 76 z M 50 80 C 52.785113 80 55 82.214887 55 85 C 55 87.785113 52.785113 90 50 90 C 47.214887 90 45 87.785113 45 85 C 45 82.214887 47.214887 80 50 80 z "></path></svg>