<svg xmlns="http://www.w3.org/2000/svg" viewBox="0 0 96 96" x="0px" y="0px"><title>icons_</title><g>

<path d="M88.96881,33.99976H7.03131a3,3,0,0,0-3,3V45a3.00015,3.00015,0,0,0,3,3H46.394a2.9515,2.9515,0,0,0-.99719,1.02667L30.22876,75.50885a3,3,0,0,0,2.60321,4.491H63.16833a3,3,0,0,0,2.60321-4.491L50.60327,49.02667A2.9515,2.9515,0,0,0,49.60608,48H88.96881a3,3,0,0,0,3-3V36.99976A2.99991,2.99991,0,0,0,88.96881,33.99976Z" fill="#143F5B"/>

<path d="M60.58051,75.49988H35.4198L48.00006,53.53583Z" fill="#2c9e76"/>

<path d="M87.46881,43.5H8.53131V38.49976h78.9375Z" fill="#2c9e76"/>

</g></svg>