<svg xmlns="http://www.w3.org/2000/svg" viewBox="0 0 100 100" x="0px" y="0px"><title>radar-solid</title><path d="M49.56,50.56V27.62a1.25,1.25,0,0,1-.25-.09L29,43.42a1.26,1.26,0,0,1,.07.36,1.22,1.22,0,0,1,0,.13Z" fill="#2c9e76"/><path d="M50.19,50.56l26.62-8.63v0a1.23,1.23,0,0,1,.05-.25L50.65,27.43a1.25,1.25,0,0,1-.47.21Z" fill="#2c9e76"/><path d="M35.73,71a1.27,1.27,0,0,1,.29.66L67.57,76.4a1.29,1.29,0,0,1,.18-.26L49.88,51.52Z" fill="#2c9e76"/><path d="M78.1,40.62a1.27,1.27,0,0,1,1,.56l6.14-2L50.19,13.69V25.16a1.27,1.27,0,0,1,1,1.14L77.69,40.7A1.27,1.27,0,0,1,78.1,40.62Z" fill="#143F5B"/><path d="M68.26,75.79a1.28,1.28,0,0,1,.43-.09L77.38,43a1.27,1.27,0,0,1-.4-.43L50.38,51.16Z" fill="#2c9e76"/><path d="M28.49,44.85l6.34,25.71a1.29,1.29,0,0,1,.4.08L49.37,51.16,28.85,44.5A1.26,1.26,0,0,1,28.49,44.85Z" fill="#2c9e76"/><path d="M26.7,43.15a1.28,1.28,0,0,1,1.1-.66,1.24,1.24,0,0,1,.31.06L48.63,26.48s0-.05,0-.08a1.28,1.28,0,0,1,.95-1.22V13.69L14.47,39.19Z" fill="#143F5B"/><path d="M69.22,78.17a1.25,1.25,0,0,1-1.59-.5l-32.1-4.81a1.26,1.26,0,0,1-.76.28,1.29,1.29,0,0,1-.5-.1L28.19,81.4H71.56Z" fill="#143F5B"/><path d="M85.47,39.78l-6.11,2a1.22,1.22,0,0,1,0,.15,1.29,1.29,0,0,1-.76,1.17L69.8,76.36a1.18,1.18,0,0,1-.1,1.42L72.07,81Z" fill="#143F5B"/><path d="M27.69,81l6.09-8.38a1.19,1.19,0,0,1-.08-1.49L27.23,44.93a1.28,1.28,0,0,1-.72-1.14s0,0,0,0l-12.24-4Z" fill="#143F5B"/></svg>