<svg xmlns:dc="http://purl.org/dc/elements/1.1/" xmlns:cc="http://creativecommons.org/ns#" xmlns:rdf="http://www.w3.org/1999/02/22-rdf-syntax-ns#" xmlns:svg="http://www.w3.org/2000/svg" xmlns="http://www.w3.org/2000/svg" xmlns:sodipodi="http://sodipodi.sourceforge.net/DTD/sodipodi-0.dtd" xmlns:inkscape="http://www.inkscape.org/namespaces/inkscape" viewBox="0 0 400.65801 412.95699" version="1.1" x="0px" y="0px"><g transform="translate(-149.17553,-330.21016)"><path style="" d="m 276.68753,330.21016 c -26.595,0 -48.222,21.627 -48.222,48.223 l 0,155.101 -46.926,0 c -17.855,0 -32.364,14.509 -32.364,32.363 l 0,66.507 c 0,17.854 14.55,32.444 32.364,32.444 l 46.926,0 0,30.098 c 0,26.595 21.627,48.221 48.222,48.221 l 224.925,0 c 26.595,0 48.221,-21.626 48.221,-48.221 l 0,-242.158 c 0,-67.648 -55.012,-122.578 -122.576,-122.578 l -150.57,0 z m 0.08,15.131 150.57,0 0.08,0 0,107.365 107.285,0 0,242.159 c 0,18.186 -14.825,33.011 -33.01,33.011 l -224.926,0 c -18.185,0 -33.01,-14.825 -33.01,-33.011 l 0,-30.098 167.237,0 c 17.854,0 32.363,-14.589 32.363,-32.444 l 0,-66.507 c 0,-17.854 -14.55,-32.363 -32.363,-32.363 l -167.237,0 0,-155.102 c 0,-18.185 14.825,-33.01 33.01,-33.01 z m -95.23,203.323 54.371,0 c 0.08,0 0.159,0.07 0.243,0.07 0.08,0 0.08,-0.07 0.161,-0.07 l 174.601,0 c 9.444,0 17.152,7.747 17.152,17.233 l 0,66.507 c 0,9.486 -7.708,17.153 -17.152,17.153 l -174.681,0 -0.08,0 -0.08,0 -54.532,0 c -9.445,0 -17.153,-7.667 -17.153,-17.153 l 0,-66.507 c 0,-9.486 7.708,-17.233 17.153,-17.233 z m 54.289,14.968 c -17.274,0 -26.294,8.857 -26.294,21.036 0,16.777 14.41,18.58 26.133,19.823 8.036,0.872 15.13,2.271 15.13,8.899 0,6.918 -5.392,9.952 -15.292,9.952 -7.498,0 -12.484,-3.27 -14.887,-8.899 -0.952,-2.32 -1.971,-2.731 -4.207,-1.944 l -5.259,1.86 c -2.321,0.787 -2.813,1.805 -1.942,4.207 3.935,10.356 11.424,16.101 26.295,16.101 17.647,0 27.347,-8.763 27.347,-21.522 0.04,-16.031 -12.963,-18.822 -24.272,-20.065 -8.699,-0.951 -16.587,-2.224 -16.587,-9.143 0,-5.965 4.556,-8.819 13.836,-8.819 7.581,0 11.468,3.037 14.078,8.091 1.119,2.194 1.932,2.614 4.046,1.618 l 5.259,-2.344 c 2.32,-1.035 2.938,-2.173 1.86,-4.369 -4.515,-9.486 -11.531,-14.482 -25.243,-14.482 z m 120.392,0 c -17.647,0 -27.427,9.631 -27.427,25 l 0,20.955 c 0,15.411 9.78,25.082 27.427,25.082 17.523,0 27.348,-9.646 27.348,-22.653 l 0,-12.865 c 0.08,-2.527 -0.751,-3.318 -3.237,-3.318 l -22.978,0 c -2.402,0 -3.236,0.832 -3.236,3.318 l 0,4.611 c 0,2.527 0.875,3.318 3.236,3.318 l 14.483,0 0,5.016 c 0,6.504 -5.759,11.328 -15.535,11.328 -9.9,0 -15.372,-4.849 -15.372,-13.755 l 0,-21.117 c 0,-8.824 5.389,-13.674 15.372,-13.674 7.953,0 12.532,2.979 14.644,8.82 0.871,2.402 1.808,2.891 4.127,2.019 l 5.259,-1.783 c 2.32,-0.871 2.812,-1.929 1.942,-4.207 -3.647,-10.356 -11.969,-16.101 -26.053,-16.101 z m -88.432,1.459 c -2.321,0 -2.85,1.042 -2.104,3.156 l 22.977,62.299 c 0.705,2.115 1.81,2.673 4.047,2.673 l 5.096,0 c 2.197,0 3.176,-0.518 4.046,-2.673 l 22.898,-62.218 c 0.869,-2.111 0.299,-3.234 -2.105,-3.234 l -4.692,0 c -4.019,0 -5.12,0.595 -5.906,2.913 l -13.917,40.939 c -1.45,4.475 -2.342,9.744 -2.508,10.034 l -0.566,0 c -0.08,-0.292 -0.976,-5.68 -2.508,-10.196 l -13.997,-40.777 c -0.788,-2.318 -1.889,-2.913 -5.907,-2.913 l -4.854,0 z" fill="#000000"></path></g></svg>