<svg xmlns="http://www.w3.org/2000/svg" xmlns:xlink="http://www.w3.org/1999/xlink" width="100" height="100" viewBox="0 0 100 100"><g><g transform="translate(50 50) scale(0.69 0.69) rotate(0) translate(-50 -50)" style="fill:#143f5b;"><svg fill="#143f5b" xmlns="http://www.w3.org/2000/svg" xmlns:xlink="http://www.w3.org/1999/xlink" version="1.1" x="0px" y="0px" viewBox="0 0 64 64" enable-background="new 0 0 64 64" xml:space="preserve"><path d="M56.783,64H7.22c-3.98,0-7.218-3.238-7.218-7.219V7.219C0.002,3.239,3.24,0,7.22,0h49.563c3.98,0,7.219,3.238,7.219,7.218  v49.563C64.002,60.762,60.764,64,56.783,64z M7.22,3C4.894,3,3.002,4.893,3.002,7.219v49.562C3.002,59.107,4.894,61,7.22,61h49.563  c2.326,0,4.219-1.893,4.219-4.219V7.219C61.002,4.893,59.109,3,56.783,3H7.22z"></path><path d="M49.229,29.162c0.007-0.015,0.009-0.03,0.015-0.044c0.02-0.047,0.034-0.096,0.049-0.146  c0.014-0.046,0.028-0.092,0.038-0.139c0.009-0.046,0.012-0.093,0.017-0.14c0.005-0.05,0.012-0.099,0.011-0.149  c0-0.046-0.006-0.092-0.01-0.138c-0.005-0.051-0.009-0.101-0.019-0.151c-0.009-0.043-0.022-0.086-0.035-0.129  c-0.016-0.053-0.031-0.105-0.053-0.156c-0.006-0.014-0.008-0.028-0.014-0.041c-0.013-0.027-0.03-0.05-0.044-0.077  c-0.025-0.048-0.052-0.096-0.082-0.141c-0.026-0.04-0.056-0.076-0.086-0.112c-0.031-0.038-0.063-0.076-0.098-0.111  c-0.036-0.036-0.074-0.068-0.113-0.1c-0.035-0.029-0.071-0.058-0.11-0.084c-0.046-0.03-0.094-0.056-0.142-0.082  c-0.026-0.014-0.05-0.032-0.077-0.044L16.754,12.901c-0.287-0.129-0.591-0.161-0.878-0.109h0c-0.003,0-0.005,0.002-0.008,0.002  c-0.094,0.017-0.186,0.043-0.274,0.078c-0.036,0.014-0.069,0.034-0.104,0.051c-0.053,0.025-0.105,0.049-0.155,0.08  c-0.038,0.024-0.071,0.054-0.107,0.082c-0.041,0.032-0.083,0.061-0.122,0.097c-0.037,0.035-0.067,0.075-0.1,0.113  c-0.03,0.035-0.063,0.068-0.09,0.106c-0.049,0.068-0.089,0.142-0.126,0.218c-0.006,0.012-0.014,0.021-0.02,0.034  c0,0,0,0.001,0,0.002c-0.041,0.091-0.073,0.187-0.096,0.285c-0.006,0.027-0.005,0.055-0.01,0.083  c-0.011,0.069-0.024,0.138-0.025,0.209c-0.002,0.1,0.005,0.198,0.022,0.295c0,0.002,0,0.003,0,0.005l6.09,34.251  c0.002,0.015,0.012,0.025,0.015,0.04c0.032,0.154,0.084,0.305,0.164,0.443c0.01,0.017,0.021,0.03,0.031,0.046  c0.077,0.123,0.171,0.235,0.286,0.335c0.012,0.011,0.022,0.023,0.035,0.033c0.005,0.005,0.009,0.011,0.015,0.015  c0.066,0.053,0.143,0.078,0.214,0.117c0.073,0.041,0.139,0.092,0.217,0.119c0.157,0.056,0.321,0.085,0.484,0.086  c0.005,0.001,0.009,0.003,0.014,0.003h0h0c0.001,0,0.002,0,0.004,0c0.086-0.001,0.172-0.008,0.26-0.023  c0.011-0.002,0.021-0.007,0.032-0.009c0.043-0.009,0.085-0.024,0.127-0.036c0.061-0.019,0.121-0.036,0.178-0.062  c0.039-0.017,0.075-0.037,0.112-0.058c0.057-0.031,0.112-0.064,0.164-0.102c0.034-0.024,0.066-0.051,0.099-0.078  c0.052-0.046,0.1-0.094,0.146-0.146c0.017-0.02,0.038-0.034,0.055-0.055l9.206-11.604l9.977,12.805  c0.296,0.38,0.738,0.578,1.185,0.578c0.322,0,0.647-0.104,0.921-0.316c0.653-0.51,0.771-1.452,0.262-2.105l-9.978-12.805  l13.502-6.092c0.046-0.021,0.085-0.049,0.127-0.074c0.029-0.017,0.06-0.032,0.088-0.051c0.105-0.07,0.201-0.151,0.283-0.243  c0.015-0.016,0.026-0.035,0.04-0.052c0.072-0.088,0.133-0.184,0.183-0.285C49.208,29.191,49.222,29.179,49.229,29.162z   M32.004,34.055c-0.007,0.003-0.013,0.009-0.02,0.012c-0.018,0.008-0.035,0.017-0.052,0.025c-0.041,0.021-0.08,0.048-0.119,0.073  c-0.031,0.02-0.063,0.037-0.092,0.06c-0.007,0.005-0.016,0.008-0.022,0.014c-0.006,0.005-0.011,0.012-0.018,0.017  c-0.032,0.025-0.06,0.056-0.09,0.084c-0.031,0.029-0.063,0.058-0.09,0.089c-0.013,0.014-0.025,0.028-0.037,0.043  c-0.006,0.007-0.013,0.012-0.019,0.019l-8.323,10.489l-5.01-28.177l26.098,11.746L32.004,34.055z"></path></svg></g></g></svg>