<?xml version="1.0" standalone="no"?>
<!DOCTYPE svg PUBLIC "-//W3C//DTD SVG 20010904//EN"
 "http://www.w3.org/TR/2001/REC-SVG-20010904/DTD/svg10.dtd">
<svg version="1.0" xmlns="http://www.w3.org/2000/svg"
 width="324.000000pt" height="303.000000pt" viewBox="0 0 324.000000 303.000000"
 preserveAspectRatio="xMidYMid meet">
<metadata>
Created by potrace 1.15, written by Peter Selinger 2001-2017
</metadata>
<g transform="translate(0.000000,303.000000) scale(0.100000,-0.100000)"
fill="#000000" stroke="none">
<path d="M281 2899 c-46 -14 -127 -97 -140 -145 -15 -56 -15 -2413 0 -2469 15
-53 91 -129 144 -144 28 -8 418 -11 1335 -11 1231 0 1297 1 1335 19 51 23 111
89 124 138 15 55 15 2413 0 2468 -15 53 -91 129 -144 144 -52 14 -2604 14
-2654 0z m2642 -94 c18 -9 41 -28 52 -43 19 -25 20 -45 23 -337 3 -310 3 -311
-20 -345 -50 -75 56 -70 -1368 -70 -1424 0 -1318 -5 -1368 70 -23 34 -23 35
-20 345 3 292 4 312 23 337 45 61 -41 58 1363 58 1134 0 1288 -2 1315 -15z
m-2630 -872 c32 -11 251 -13 1335 -11 1213 3 1299 4 1329 21 18 9 35 17 38 17
3 0 4 -372 3 -827 -3 -810 -3 -829 -23 -855 -45 -62 39 -58 -1365 -58 -1404 0
-1320 -4 -1365 58 -20 26 -20 45 -23 856 -2 789 -1 828 15 821 10 -4 35 -14
56 -22z"/>
<path d="M502 2448 c-17 -17 -15 -44 4 -62 14 -14 67 -16 434 -16 l420 0 15
24 c13 19 14 29 5 45 -11 21 -16 21 -438 21 -320 0 -431 -3 -440 -12z"/>
<path d="M512 1554 c-12 -8 -22 -24 -22 -34 0 -10 10 -26 22 -34 20 -14 102
-16 690 -16 409 0 677 4 692 10 37 14 37 66 0 80 -15 6 -283 10 -692 10 -588
0 -670 -2 -690 -16z"/>
<path d="M506 1104 c-19 -18 -21 -45 -4 -62 9 -9 120 -12 440 -12 422 0 427 0
438 21 9 16 8 26 -5 45 l-15 24 -420 0 c-367 0 -420 -2 -434 -16z"/>
<path d="M506 654 c-19 -18 -21 -45 -4 -62 9 -9 151 -12 575 -12 l564 0 8 23
c6 14 5 29 -4 42 -12 20 -25 20 -568 23 -495 2 -557 0 -571 -14z"/>
</g>
</svg>
