<svg xmlns="http://www.w3.org/2000/svg" xmlns:xlink="http://www.w3.org/1999/xlink" version="1.1" x="0px" y="0px" viewBox="0 0 90 90" style="enable-background:new 0 0 90 90;" xml:space="preserve"><g><g><path fill="#143F5B" d="M74.6,13.7H47.4c-1.9,0-3.4,1.5-3.4,3.4v27.4H16.5c-1.9,0-3.4,1.5-3.4,3.4v27.2c0,1.9,1.5,3.4,3.4,3.4h41    c1.9,0,3.4-1.5,3.4-3.4V61.6h13.6c1.9,0,3.4-1.5,3.4-3.4v-41C78,15.3,76.5,13.7,74.6,13.7z M55.3,72.9H18.8V50.3h36.5V72.9z     M72.3,55.9H61V48c0-1.9-1.5-3.4-3.4-3.4h-7.9V19.4h22.7V55.9z M32,29.8h-6.6c0-5.9,4.8-10.7,10.7-10.7v-5.4    c-8.9,0-16.1,7.2-16.1,16.1h-6.9l9.5,9.5L32,29.8z"></path></g></g></svg>