<svg fill="#143F5B" xmlns="http://www.w3.org/2000/svg" xmlns:xlink="http://www.w3.org/1999/xlink" version="1.1" x="0px" y="0px" viewBox="0 0 48 48" style="enable-background:new 0 0 48 48;" xml:space="preserve"><path d="M39.1669922,36c-0.5078125,0-0.9814453,0.1318359-1.4082031,0.3447266l-5.8808594-5.8808594  c0.2128906-0.4267578,0.3447266-0.9003906,0.3447266-1.4082031c0-1.7460938-1.4208984-3.1669922-3.1669922-3.1669922  c-0.5078125,0-0.9814453,0.1318359-1.4082031,0.3447266l-5.8813477-5.8813477  c0.2138672-0.4257812,0.3452148-0.8999023,0.3452148-1.4077148s-0.1313477-0.980957-0.3447266-1.4067383l5.8818359-5.8828125  C28.0742188,11.8686523,28.5478516,12,29.0556641,12s0.9814453-0.1313477,1.4082031-0.3452148l5.8808594,5.8818359  C36.1318359,17.9624023,36,18.4365234,36,18.9443359c0,1.7460938,1.4208984,3.1669922,3.1669922,3.1669922  s3.1669922-1.4208984,3.1669922-3.1669922s-1.4208984-3.1669922-3.1669922-3.1669922  c-0.5078125,0-0.9814453,0.1313477-1.4082031,0.3452148l-5.8808594-5.8818359  c0.2128906-0.4257812,0.3447266-0.8999023,0.3447266-1.4077148c0-1.7460938-1.4208984-3.1669922-3.1669922-3.1669922  s-3.1669922,1.4208984-3.1669922,3.1669922c0,0.5083008,0.1318359,0.9819336,0.3457031,1.4077148l-5.8813477,5.8823242  c-0.4262695-0.2138672-0.9003906-0.3457031-1.4086914-0.3457031c-1.7460938,0-3.1669922,1.4208984-3.1669922,3.1669922  c0,0.5078125,0.1313477,0.9819336,0.3452148,1.4077148l-5.8818359,5.8813477  c-0.4257812-0.2128906-0.8999023-0.3447266-1.4077148-0.3447266c-1.7460938,0-3.1669922,1.4208984-3.1669922,3.1669922  s1.4208984,3.1669922,3.1669922,3.1669922S12,30.8017578,12,29.0556641c0-0.5078125-0.1313477-0.9814453-0.3452148-1.4082031  l5.8818359-5.8813477c0.4257812,0.2138672,0.8999023,0.3452148,1.4077148,0.3452148s0.9819336-0.1313477,1.4077148-0.3452148  l5.8813477,5.8813477c-0.2128906,0.4267578-0.3447266,0.9003906-0.3447266,1.4082031  c0,0.5087891,0.1318359,0.9824219,0.3457031,1.4082031l-5.8823242,5.8808594C19.9262695,36.1318359,19.4521484,36,18.9443359,36  c-1.7460938,0-3.1669922,1.4208984-3.1669922,3.1669922s1.4208984,3.1669922,3.1669922,3.1669922  s3.1669922-1.4208984,3.1669922-3.1669922c0-0.5078125-0.1313477-0.9814453-0.3452148-1.4082031l5.8823242-5.8808594  c0.4257812,0.2128906,0.8994141,0.3447266,1.4072266,0.3447266s0.9814453-0.1318359,1.4082031-0.3447266l5.8808594,5.8808594  C36.1318359,38.1855469,36,38.6591797,36,39.1669922c0,1.7460938,1.4208984,3.1669922,3.1669922,3.1669922  s3.1669922-1.4208984,3.1669922-3.1669922S40.9130859,36,39.1669922,36z M40.3339844,18.9443359  c0,0.6435547-0.5234375,1.1669922-1.1669922,1.1669922S38,19.5878906,38,18.9443359s0.5234375-1.1669922,1.1669922-1.1669922  S40.3339844,18.3007812,40.3339844,18.9443359z M29.0556641,7.6660156c0.6435547,0,1.1669922,0.5234375,1.1669922,1.1669922  S29.6992188,10,29.0556641,10s-1.1669922-0.5234375-1.1669922-1.1669922S28.4121094,7.6660156,29.0556641,7.6660156z   M8.8330078,30.2226562c-0.6435547,0-1.1669922-0.5234375-1.1669922-1.1669922s0.5234375-1.1669922,1.1669922-1.1669922  S10,28.4121094,10,29.0556641S9.4765625,30.2226562,8.8330078,30.2226562z M17.7773438,18.9443359  c0-0.6435547,0.5234375-1.1669922,1.1669922-1.1669922s1.1669922,0.5234375,1.1669922,1.1669922  s-0.5234375,1.1669922-1.1669922,1.1669922S17.7773438,19.5878906,17.7773438,18.9443359z M18.9443359,40.3339844  c-0.6435547,0-1.1669922-0.5234375-1.1669922-1.1669922S18.3007812,38,18.9443359,38s1.1669922,0.5234375,1.1669922,1.1669922  S19.5878906,40.3339844,18.9443359,40.3339844z M27.8886719,29.0556641c0-0.6435547,0.5234375-1.1669922,1.1669922-1.1669922  s1.1669922,0.5234375,1.1669922,1.1669922s-0.5234375,1.1669922-1.1669922,1.1669922S27.8886719,29.6992188,27.8886719,29.0556641z   M39.1669922,40.3339844C38.5234375,40.3339844,38,39.8105469,38,39.1669922S38.5234375,38,39.1669922,38  s1.1669922,0.5234375,1.1669922,1.1669922S39.8105469,40.3339844,39.1669922,40.3339844z"></path></svg>