<svg xmlns="http://www.w3.org/2000/svg" xmlns:xlink="http://www.w3.org/1999/xlink" version="1.1" x="0px" y="0px" viewBox="0 0 100 100" style="enable-background:new 0 0 100 100;" xml:space="preserve"><path d="M75.3,60.5c-4.5,0-8,2.5-8,5.6v10.8c0,3.1,3.5,5.6,8,5.6s8-2.5,8-5.6V66.1C83.3,62.9,79.8,60.5,75.3,60.5z M71.3,71  c1.2,0.5,2.5,0.7,4,0.7s2.8-0.3,4-0.7v0.5c0,0.5-1.5,1.6-4,1.6s-4-1.1-4-1.6V71z M75.3,64.5c2.5,0,4,1.1,4,1.6s-1.5,1.6-4,1.6  s-4-1.1-4-1.6S72.8,64.5,75.3,64.5z M75.3,78.5c-2.5,0-4-1.1-4-1.6v-0.5c1.2,0.5,2.5,0.7,4,0.7s2.8-0.3,4-0.7v0.5  C79.3,77.4,77.8,78.5,75.3,78.5z M86.2,50C86.2,50,86.2,50,86.2,50C86.2,50,86.2,50,86.2,50c0-9.7-3.8-18.8-10.7-25.7  C68.7,17.5,59.7,13.7,50,13.8c-9.7,0-18.8,3.8-25.7,10.7c-0.4,0.4-0.8,0.8-1.1,1.2c0,0,0,0,0,0c-6.1,6.7-9.4,15.3-9.4,24.4  c0,9.2,3.5,17.7,9.2,24.1c0,0,0,0,0,0c0.1,0.2,0.3,0.4,0.6,0.6c6.6,7.1,16,11.5,26.5,11.5c0,0,0,0,0,0c0,0,0,0,0,0c0,0,0,0,0,0  s0,0,0,0c0,0,0,0,0,0c0,0,0,0,0,0c5.5,0,10.9-1.2,15.8-3.6c1-0.5,1.4-1.7,0.9-2.7c-0.5-1-1.7-1.4-2.7-0.9c-3.3,1.6-6.8,2.6-10.4,3  l2.9-4.8c4.7-7.8,7.3-16.5,7.6-25.2h18c-0.1,1.1-0.2,2.2-0.3,3.3c-0.2,1.1-0.4,2.1-0.7,3.2c-0.3,1.1,0.3,2.2,1.4,2.5  c1.1,0.3,2.2-0.3,2.5-1.4c0.3-1.2,0.6-2.4,0.8-3.6C86.1,54,86.2,52,86.2,50C86.2,50,86.2,50,86.2,50z M46.9,75.1  c-1.3-2.1-2.3-4.2-3.3-6.5c4.3-0.6,8.6-0.6,12.7,0c-0.9,2.2-2,4.4-3.3,6.5L50,80.3L46.9,75.1z M43.5,77.2l2.9,4.8  c-7-0.8-13.4-3.9-18.3-8.5c3.6-1.9,7.6-3.2,11.5-4.1C40.7,72.1,42,74.7,43.5,77.2z M25.2,70.5C21,65.4,18.3,59,17.8,52h18.1  c0.2,4.6,1,9.2,2.4,13.6C33.7,66.7,29.3,68.3,25.2,70.5z M25.1,29.5c4.2,2.2,8.6,3.9,13.1,4.9c-1.4,4.5-2.2,9.1-2.4,13.7H17.8  C18.2,41.2,20.8,34.7,25.1,29.5z M50,19.7l3.1,5.2c1.3,2.1,2.3,4.2,3.3,6.4c-4.2,0.5-8.5,0.5-12.7,0c0.9-2.2,2-4.4,3.3-6.4L50,19.7z   M56.5,22.8L53.6,18c6.9,0.8,13.3,3.7,18.4,8.5c-3.7,1.9-7.6,3.3-11.6,4.1C59.3,27.9,58,25.3,56.5,22.8z M43.5,22.8  c-1.5,2.5-2.8,5.1-3.9,7.8c-4-0.9-7.9-2.2-11.6-4.1c5.1-4.8,11.5-7.7,18.4-8.5L43.5,22.8z M42.2,35.1c2.6,0.4,5.2,0.6,7.8,0.6  c2.6,0,5.2-0.2,7.7-0.6c1.4,4.2,2.1,8.5,2.3,12.9H39.9C40.1,43.7,40.9,39.3,42.2,35.1z M61.7,34.4c4.5-1,8.9-2.7,13.1-4.9  c4.4,5.3,6.9,11.7,7.3,18.5H64.1C63.9,43.4,63.1,38.8,61.7,34.4z M57.8,64.8c-5-0.8-10.3-0.8-15.5,0c-1.4-4.2-2.1-8.5-2.3-12.8h20.1  C59.9,56.3,59.1,60.7,57.8,64.8z"></path></svg>