<svg width="36" height="36" viewBox="0 0 36 36" fill="none" xmlns="http://www.w3.org/2000/svg">
<path d="M13 13.2409H15.6361V12.5969H13.7683V9H13V13.2409Z" fill="#975FE4"/>
<path d="M17.8102 13.3031C18.7421 13.3031 19.3343 12.6466 19.3343 11.663C19.3343 10.6773 18.7421 10.0188 17.8102 10.0188C16.8784 10.0188 16.2861 10.6773 16.2861 11.663C16.2861 12.6466 16.8784 13.3031 17.8102 13.3031ZM17.8144 12.7025C17.2987 12.7025 17.0461 12.2428 17.0461 11.6609C17.0461 11.0791 17.2987 10.6131 17.8144 10.6131C18.3217 10.6131 18.5743 11.0791 18.5743 11.6609C18.5743 12.2428 18.3217 12.7025 17.8144 12.7025Z" fill="#975FE4"/>
<path d="M20.1236 13.2409H20.8732V11.371C20.8732 10.9672 21.1776 10.6815 21.5897 10.6815C21.716 10.6815 21.8734 10.7042 21.9376 10.7249V10.0354C21.8693 10.023 21.7512 10.0147 21.6684 10.0147C21.304 10.0147 20.9996 10.2218 20.8836 10.5903H20.8505V10.0602H20.1236V13.2409Z" fill="#975FE4"/>
<path d="M24.616 11.9032C24.616 12.3878 24.2702 12.628 23.9388 12.628C23.5785 12.628 23.3383 12.3733 23.3383 11.9695V10.0602H22.5887V12.0854C22.5887 12.8496 23.0236 13.2823 23.6489 13.2823C24.1252 13.2823 24.4607 13.0318 24.6056 12.6756H24.6388V13.2409H25.3656V10.0602H24.616V11.9032Z" fill="#975FE4"/>
<path d="M26.2895 13.2409H27.0391V11.3068C27.0391 10.9155 27.3001 10.6504 27.6231 10.6504C27.9399 10.6504 28.1574 10.8637 28.1574 11.1909V13.2409H28.8925V11.2571C28.8925 10.8989 29.1058 10.6504 29.4681 10.6504C29.7705 10.6504 30.0107 10.8285 30.0107 11.2219V13.2409H30.7624V11.106C30.7624 10.3957 30.3524 10.0188 29.7684 10.0188C29.3066 10.0188 28.9546 10.2466 28.8138 10.6007H28.7807C28.6585 10.2404 28.3499 10.0188 27.9213 10.0188C27.4947 10.0188 27.1758 10.2383 27.0433 10.6007H27.006V10.0602H26.2895V13.2409Z" fill="#975FE4"/>
<path d="M3 27.0697H5.10887V26.5545H3.6146V23.677H3V27.0697Z" fill="#975FE4"/>
<path d="M6.87879 27.1194C7.62427 27.1194 8.09806 26.5943 8.09806 25.8074C8.09806 25.0189 7.62427 24.4921 6.87879 24.4921C6.13332 24.4921 5.65953 25.0189 5.65953 25.8074C5.65953 26.5943 6.13332 27.1194 6.87879 27.1194ZM6.88211 26.639C6.46961 26.639 6.2675 26.2713 6.2675 25.8058C6.2675 25.3402 6.46961 24.9675 6.88211 24.9675C7.28798 24.9675 7.49009 25.3402 7.49009 25.8058C7.49009 26.2713 7.28798 26.639 6.88211 26.639Z" fill="#975FE4"/>
<path d="M8.76013 27.0697H9.35982V25.5738C9.35982 25.2508 9.60334 25.0222 9.93301 25.0222C10.0341 25.0222 10.16 25.0404 10.2113 25.057V24.5053C10.1567 24.4954 10.0622 24.4887 9.99596 24.4887C9.7044 24.4887 9.46088 24.6544 9.3681 24.9493H9.3416V24.5252H8.76013V27.0697Z" fill="#975FE4"/>
<path d="M12.3846 25.9996C12.3846 26.3872 12.108 26.5794 11.8429 26.5794C11.5547 26.5794 11.3625 26.3756 11.3625 26.0526V24.5252H10.7628V26.1454C10.7628 26.7566 11.1107 27.1029 11.611 27.1029C11.992 27.1029 12.2604 26.9024 12.3764 26.6175H12.4029V27.0697H12.9843V24.5252H12.3846V25.9996Z" fill="#975FE4"/>
<path d="M13.7541 27.0697H14.3538V25.5225C14.3538 25.2094 14.5625 24.9973 14.8209 24.9973C15.0744 24.9973 15.2483 25.168 15.2483 25.4297V27.0697H15.8364V25.4827C15.8364 25.1961 16.0071 24.9973 16.297 24.9973C16.5388 24.9973 16.731 25.1398 16.731 25.4545V27.0697H17.3324V25.3618C17.3324 24.7936 17.0043 24.4921 16.5372 24.4921C16.1678 24.4921 15.8861 24.6743 15.7735 24.9576H15.747C15.6492 24.6693 15.4024 24.4921 15.0595 24.4921C14.7182 24.4921 14.4631 24.6677 14.3571 24.9576H14.3273V24.5252H13.7541V27.0697Z" fill="#975FE4"/>
<path d="M9 7.36719H10.4714V7.00772H9.42882V5H9V7.36719Z" fill="#17C1C1"/>
<path d="M11.7063 7.40187C12.2265 7.40187 12.557 7.03546 12.557 6.48643C12.557 5.93624 12.2265 5.56868 11.7063 5.56868C11.1862 5.56868 10.8556 5.93624 10.8556 6.48643C10.8556 7.03546 11.1862 7.40187 11.7063 7.40187ZM11.7086 7.06667C11.4208 7.06667 11.2798 6.81007 11.2798 6.48527C11.2798 6.16048 11.4208 5.90041 11.7086 5.90041C11.9918 5.90041 12.1328 6.16048 12.1328 6.48527C12.1328 6.81007 11.9918 7.06667 11.7086 7.06667Z" fill="#17C1C1"/>
<path d="M13.019 7.36719H13.4374V6.32345C13.4374 6.09806 13.6073 5.93855 13.8373 5.93855C13.9078 5.93855 13.9957 5.95127 14.0315 5.96283V5.57793C13.9934 5.57099 13.9275 5.56637 13.8812 5.56637C13.6778 5.56637 13.5079 5.68195 13.4432 5.8877H13.4247V5.5918H13.019V7.36719Z" fill="#17C1C1"/>
<path d="M15.5479 6.62051C15.5479 6.89098 15.3548 7.02506 15.1699 7.02506C14.9688 7.02506 14.8347 6.88289 14.8347 6.6575V5.5918H14.4163V6.72222C14.4163 7.14874 14.659 7.39031 15.0081 7.39031C15.2739 7.39031 15.4612 7.25045 15.5421 7.05164H15.5606V7.36719H15.9663V5.5918H15.5479V6.62051Z" fill="#17C1C1"/>
<path d="M16.5034 7.36719H16.9218V6.28762C16.9218 6.06917 17.0674 5.92122 17.2477 5.92122C17.4246 5.92122 17.5459 6.04027 17.5459 6.2229V7.36719H17.9563V6.25988C17.9563 6.05992 18.0753 5.92122 18.2776 5.92122C18.4463 5.92122 18.5804 6.02062 18.5804 6.24023V7.36719H19V6.17551C19 5.77905 18.7711 5.56868 18.4452 5.56868C18.1874 5.56868 17.9909 5.69583 17.9123 5.89348H17.8938C17.8257 5.69236 17.6534 5.56868 17.4142 5.56868C17.1761 5.56868 16.9981 5.6912 16.9241 5.89348H16.9033V5.5918H16.5034V7.36719Z" fill="#17C1C1"/>
<path d="M13 31.3927H15.1089V30.8775H13.6146V28H13V31.3927Z" fill="#17C1C1"/>
<path d="M16.8788 31.4424C17.6243 31.4424 18.0981 30.9173 18.0981 30.1304C18.0981 29.3419 17.6243 28.8151 16.8788 28.8151C16.1333 28.8151 15.6595 29.3419 15.6595 30.1304C15.6595 30.9173 16.1333 31.4424 16.8788 31.4424ZM16.8821 30.962C16.4696 30.962 16.2675 30.5943 16.2675 30.1287C16.2675 29.6632 16.4696 29.2905 16.8821 29.2905C17.288 29.2905 17.4901 29.6632 17.4901 30.1287C17.4901 30.5943 17.288 30.962 16.8821 30.962Z" fill="#17C1C1"/>
<path d="M18.7601 31.3927H19.3598V29.8968C19.3598 29.5738 19.6033 29.3452 19.933 29.3452C20.0341 29.3452 20.16 29.3634 20.2113 29.38V28.8283C20.1567 28.8184 20.0622 28.8117 19.996 28.8117C19.7044 28.8117 19.4609 28.9774 19.3681 29.2723H19.3416V28.8482H18.7601V31.3927Z" fill="#17C1C1"/>
<path d="M22.3846 30.3226C22.3846 30.7102 22.108 30.9024 21.8429 30.9024C21.5547 30.9024 21.3625 30.6986 21.3625 30.3756V28.8482H20.7628V30.4684C20.7628 31.0796 21.1107 31.4259 21.611 31.4259C21.992 31.4259 22.2604 31.2254 22.3764 30.9405H22.4029V31.3927H22.9843V28.8482H22.3846V30.3226Z" fill="#17C1C1"/>
<path d="M23.7541 31.3927H24.3538V29.8455C24.3538 29.5324 24.5625 29.3203 24.8209 29.3203C25.0744 29.3203 25.2483 29.491 25.2483 29.7527V31.3927H25.8364V29.8057C25.8364 29.5191 26.0071 29.3203 26.297 29.3203C26.5388 29.3203 26.731 29.4628 26.731 29.7775V31.3927H27.3324V29.6848C27.3324 29.1166 27.0043 28.8151 26.5372 28.8151C26.1678 28.8151 25.8861 28.9973 25.7735 29.2806H25.747C25.6492 28.9923 25.4024 28.8151 25.0595 28.8151C24.7182 28.8151 24.4631 28.9907 24.3571 29.2806H24.3273V28.8482H23.7541V31.3927Z" fill="#17C1C1"/>
<path d="M5.22429 14H4V21.0244H5.22429V14Z" fill="#40A0FF"/>
<path d="M6.70053 23H7.89512V20.1944H7.94462C8.13271 20.5785 8.52541 21.117 9.3966 21.117C10.5912 21.117 11.4855 20.1326 11.4855 18.3971C11.4855 16.641 10.5648 15.6875 9.3933 15.6875C8.49901 15.6875 8.12611 16.2466 7.94462 16.6273H7.87532V15.7561H6.70053V23ZM7.87202 18.3902C7.87202 17.3681 8.29441 16.7062 9.0633 16.7062C9.8586 16.7062 10.2678 17.4093 10.2678 18.3902C10.2678 19.378 9.852 20.0983 9.0633 20.0983C8.30101 20.0983 7.87202 19.4123 7.87202 18.3902Z" fill="#40A0FF"/>
<path d="M16.7179 17.1486C16.5529 16.2569 15.8665 15.6875 14.6785 15.6875C13.4575 15.6875 12.6259 16.3117 12.6292 17.2858C12.6259 18.0541 13.0813 18.5617 14.0548 18.771L14.9194 18.9596C15.3847 19.0659 15.6025 19.2614 15.6025 19.5598C15.6025 19.92 15.2263 20.1909 14.6587 20.1909C14.1109 20.1909 13.7545 19.944 13.6522 19.4707L12.4873 19.5873C12.6358 20.5545 13.4179 21.1273 14.662 21.1273C15.9292 21.1273 16.8235 20.4447 16.8268 19.4466C16.8235 18.6955 16.3582 18.2359 15.4012 18.0198L14.5366 17.8277C14.0218 17.7077 13.8172 17.5225 13.8205 17.2172C13.8172 16.8605 14.1967 16.6136 14.695 16.6136C15.2461 16.6136 15.5365 16.9257 15.6289 17.2721L16.7179 17.1486Z" fill="#40A0FF"/>
<path d="M21.2458 18.8087C21.2458 19.6113 20.6947 20.0091 20.1667 20.0091C19.5925 20.0091 19.2097 19.5873 19.2097 18.9184V15.7561H18.0151V19.1105C18.0151 20.3761 18.7081 21.093 19.7047 21.093C20.4637 21.093 20.9983 20.678 21.2293 20.088H21.2821V21.0244H22.4404V15.7561H21.2458V18.8087Z" fill="#40A0FF"/>
<path d="M23.8721 21.0244H25.0667V17.8209C25.0667 17.1726 25.4825 16.7336 25.9972 16.7336C26.5021 16.7336 26.8486 17.0869 26.8486 17.6288V21.0244H28.0201V17.7386C28.0201 17.1452 28.36 16.7336 28.9375 16.7336C29.4193 16.7336 29.8021 17.0286 29.8021 17.6803V21.0244H31V17.4882C31 16.3117 30.3466 15.6875 29.416 15.6875C28.6801 15.6875 28.1191 16.0648 27.8947 16.6513H27.8419C27.6472 16.0545 27.1555 15.6875 26.4724 15.6875C25.7927 15.6875 25.2845 16.0511 25.0733 16.6513H25.0139V15.7561H23.8721V21.0244Z" fill="#40A0FF"/>
<path d="M21.461 24H21V26.5446H21.461V24Z" fill="#40A0FF"/>
<path d="M22.0933 27.2602H22.5431V26.2439H22.5617C22.6325 26.383 22.7804 26.5781 23.1084 26.5781C23.5582 26.5781 23.8949 26.2215 23.8949 25.5928C23.8949 24.9567 23.5482 24.6113 23.1072 24.6113C22.7704 24.6113 22.63 24.8138 22.5617 24.9517H22.5356V24.6361H22.0933V27.2602ZM22.5344 25.5903C22.5344 25.2201 22.6934 24.9803 22.9829 24.9803C23.2823 24.9803 23.4364 25.235 23.4364 25.5903C23.4364 25.9482 23.2799 26.2091 22.9829 26.2091C22.6959 26.2091 22.5344 25.9606 22.5344 25.5903Z" fill="#40A0FF"/>
<path d="M25.9415 25.1406C25.8793 24.8175 25.6209 24.6113 25.1736 24.6113C24.7139 24.6113 24.4008 24.8374 24.402 25.1903C24.4008 25.4686 24.5723 25.6525 24.9388 25.7283L25.2643 25.7966C25.4395 25.8351 25.5215 25.9059 25.5215 26.014C25.5215 26.1445 25.3799 26.2426 25.1662 26.2426C24.9599 26.2426 24.8257 26.1532 24.7872 25.9817L24.3486 26.024C24.4045 26.3743 24.699 26.5818 25.1674 26.5818C25.6445 26.5818 25.9812 26.3346 25.9825 25.973C25.9812 25.7009 25.806 25.5344 25.4457 25.4562L25.1202 25.3866C24.9264 25.3431 24.8493 25.276 24.8506 25.1654C24.8493 25.0362 24.9922 24.9468 25.1798 24.9468C25.3873 24.9468 25.4966 25.0598 25.5314 25.1853L25.9415 25.1406Z" fill="#40A0FF"/>
<path d="M27.7228 25.7419C27.7228 26.0327 27.5153 26.1768 27.3165 26.1768C27.1003 26.1768 26.9562 26.024 26.9562 25.7817V24.6361H26.5064V25.8513C26.5064 26.3097 26.7673 26.5694 27.1425 26.5694C27.4283 26.5694 27.6296 26.4191 27.7166 26.2054H27.7364V26.5446H28.1725V24.6361H27.7228V25.7419Z" fill="#40A0FF"/>
<path d="M28.7881 26.5446H29.2379V25.3841C29.2379 25.1493 29.3944 24.9902 29.5883 24.9902C29.7784 24.9902 29.9088 25.1182 29.9088 25.3145V26.5446H30.3499V25.3543C30.3499 25.1393 30.4779 24.9902 30.6953 24.9902C30.8767 24.9902 31.0208 25.0971 31.0208 25.3332V26.5446H31.4718V25.2636C31.4718 24.8374 31.2258 24.6113 30.8754 24.6113C30.5984 24.6113 30.3872 24.748 30.3027 24.9604H30.2828C30.2095 24.7442 30.0244 24.6113 29.7672 24.6113C29.5112 24.6113 29.3199 24.743 29.2404 24.9604H29.218V24.6361H28.7881V26.5446Z" fill="#40A0FF"/>
<path d="M21.461 5H21V7.54456H21.461V5Z" fill="#40A0FF"/>
<path d="M22.0933 8.26022H22.5431V7.24388H22.5617C22.6325 7.38304 22.7804 7.5781 23.1084 7.5781C23.5582 7.5781 23.8949 7.22152 23.8949 6.59283C23.8949 5.95669 23.5482 5.61129 23.1072 5.61129C22.7704 5.61129 22.63 5.81381 22.5617 5.95172H22.5356V5.63614H22.0933V8.26022ZM22.5344 6.59035C22.5344 6.2201 22.6934 5.9803 22.9829 5.9803C23.2823 5.9803 23.4364 6.23501 23.4364 6.59035C23.4364 6.94818 23.2799 7.20909 22.9829 7.20909C22.6959 7.20909 22.5344 6.9606 22.5344 6.59035Z" fill="#40A0FF"/>
<path d="M25.9415 6.14058C25.8793 5.81754 25.6209 5.61129 25.1736 5.61129C24.7139 5.61129 24.4008 5.83742 24.402 6.19028C24.4008 6.46859 24.5723 6.65247 24.9388 6.72826L25.2643 6.7966C25.4395 6.83511 25.5215 6.90593 25.5215 7.01403C25.5215 7.14449 25.3799 7.24264 25.1662 7.24264C24.9599 7.24264 24.8257 7.15318 24.7872 6.98172L24.3486 7.02397C24.4045 7.37434 24.699 7.58183 25.1674 7.58183C25.6445 7.58183 25.9812 7.33458 25.9825 6.97303C25.9812 6.70093 25.806 6.53444 25.4457 6.45616L25.1202 6.38659C24.9264 6.3431 24.8493 6.27601 24.8506 6.16543C24.8493 6.03621 24.9922 5.94675 25.1798 5.94675C25.3873 5.94675 25.4966 6.05982 25.5314 6.18531L25.9415 6.14058Z" fill="#40A0FF"/>
<path d="M27.7228 6.74193C27.7228 7.03267 27.5153 7.17679 27.3165 7.17679C27.1003 7.17679 26.9562 7.02397 26.9562 6.78169V5.63614H26.5064V6.85127C26.5064 7.30973 26.7673 7.56941 27.1425 7.56941C27.4283 7.56941 27.6296 7.41907 27.7166 7.20537H27.7364V7.54456H28.1725V5.63614H27.7228V6.74193Z" fill="#40A0FF"/>
<path d="M28.7881 7.54456H29.2379V6.3841C29.2379 6.14928 29.3944 5.99024 29.5883 5.99024C29.7784 5.99024 29.9088 6.11821 29.9088 6.31452V7.54456H30.3499V6.35428C30.3499 6.13934 30.4779 5.99024 30.6953 5.99024C30.8767 5.99024 31.0208 6.09709 31.0208 6.33316V7.54456H31.4718V6.26358C31.4718 5.83742 31.2258 5.61129 30.8754 5.61129C30.5984 5.61129 30.3872 5.74796 30.3027 5.96042H30.2828C30.2095 5.74423 30.0244 5.61129 29.7672 5.61129C29.5112 5.61129 29.3199 5.74299 29.2404 5.96042H29.218V5.63614H28.7881V7.54456Z" fill="#40A0FF"/>
</svg>
