<svg width="22" height="22" viewBox="0 0 22 22" fill="none" xmlns="http://www.w3.org/2000/svg">
<path d="M21.5 5.16667V0.5H16.8333V1.66667H5.16667V0.5H0.5V5.16667H1.66667V16.8333H0.5V21.5H5.16667V20.3333H16.8333V21.5H21.5V16.8333H20.3333V5.16667H21.5ZM18 1.66667H20.3333V4H18V1.66667ZM1.66667 1.66667H4V4H1.66667V1.66667ZM4 20.3333H1.66667V18H4V20.3333ZM20.3333 20.3333H18V18H20.3333V20.3333ZM18 16.8333H16.8333V18H5.16667V16.8333H4V5.16667H5.16667V4H16.8333V5.16667H18V16.8333ZM15.6667 6.33333V8.66667H12.1667V15.6667H9.83333V8.66667H6.33333V6.33333H15.6667Z" fill="#40A0FF"/>
</svg>
