<?xml version="1.0" encoding="utf-8"?>
<!-- Generator: Adobe Illustrator 16.0.3, SVG Export Plug-In . SVG Version: 6.00 Build 0)  -->
<!DOCTYPE svg PUBLIC "-//W3C//DTD SVG 1.1//EN" "http://www.w3.org/Graphics/SVG/1.1/DTD/svg11.dtd">
<svg version="1.1" id="Layer_1" xmlns="http://www.w3.org/2000/svg" xmlns:xlink="http://www.w3.org/1999/xlink" x="0px" y="0px"
	 width="150px" height="101.917px" viewBox="351 381.083 150 101.917" enable-background="new 351 381.083 150 101.917"
	 xml:space="preserve">
<path fill="none" stroke="#CCCCCC" stroke-width="1.5" stroke-miterlimit="10" d="M365.053,461.398
	c0-22.063,10.062-39.891,22.24-39.891"/>
<polygon fill="#CCCCCC" stroke="#CCCCCC" stroke-miterlimit="10" points="387.47,424.332 385.175,418.507 391.705,419.566 "/>
<path fill="none" stroke="#CCCCCC" stroke-width="1.5" stroke-miterlimit="10" d="M371.054,464.399
	c0,3.706,19.063,6.707,42.715,6.707"/>
<polygon fill="#CCCCCC" stroke="#CCCCCC" stroke-miterlimit="10" points="411.828,474.637 411.828,467.399 418.183,471.106 "/>
<path fill="none" stroke="#CCCCCC" stroke-width="1.5" stroke-miterlimit="10" d="M370.348,463.164
	c0-13.238,24.889-24.005,55.777-24.005"/>
<polygon fill="#CCCCCC" stroke="#CCCCCC" stroke-miterlimit="10" points="423.301,442.512 423.301,435.805 428.949,439.335 "/>
<circle fill="#244863" stroke="#244863" stroke-miterlimit="10" cx="365.053" cy="465.635" r="9.002"/>
<path fill="none" stroke="#CCCCCC" stroke-width="1.5" stroke-miterlimit="10" d="M403.885,418.507
	c0-11.474,21.888-20.651,49.069-20.651"/>
<polygon fill="#CCCCCC" stroke="#CCCCCC" stroke-miterlimit="10" points="450.483,401.032 449.776,394.325 455.778,396.973 "/>
<circle fill="#116AA9" stroke="#116AA9" stroke-miterlimit="10" cx="402.12" cy="416.918" r="9.178"/>
<path fill="none" stroke="#CCCCCC" stroke-width="1.5" stroke-miterlimit="10" d="M442.011,441.453
	c0-19.592,6.354-35.479,14.121-35.479"/>
<polygon fill="#CCCCCC" stroke="#CCCCCC" stroke-miterlimit="10" points="455.426,408.446 451.189,403.504 457.543,402.268 "/>
<circle fill="#116AA9" stroke="#116AA9" stroke-miterlimit="10" cx="440.246" cy="437.923" r="9.179"/>
<circle fill="#38B449" stroke="#38B449" stroke-miterlimit="10" cx="466.898" cy="396.09" r="9.178"/>
<path fill="none" stroke="#CCCCCC" stroke-width="1.5" stroke-miterlimit="10" d="M426.479,470.931c0,0,20.651,0,46.068,0"/>
<polygon fill="#CCCCCC" stroke="#CCCCCC" stroke-miterlimit="10" points="472.193,473.755 470.958,467.224 477.136,469.341 "/>
<circle fill="#116AA9" stroke="#116AA9" stroke-miterlimit="10" cx="428.596" cy="471.107" r="9.178"/>
<circle fill="#38B449" stroke="#38B449" stroke-miterlimit="10" cx="488.079" cy="467.4" r="9.178"/>
</svg>
