<?xml version="1.0" encoding="utf-8"?>
<!-- Generator: Adobe Illustrator 16.0.3, SVG Export Plug-In . SVG Version: 6.00 Build 0)  -->
<!DOCTYPE svg PUBLIC "-//W3C//DTD SVG 1.1//EN" "http://www.w3.org/Graphics/SVG/1.1/DTD/svg11.dtd">
<svg version="1.1" id="Layer_1" xmlns="http://www.w3.org/2000/svg" xmlns:xlink="http://www.w3.org/1999/xlink" x="0px" y="0px"
	 width="406px" height="289px" viewBox="11.5 20 406 289" enable-background="new 11.5 20 406 289" xml:space="preserve">
<line fill="none" stroke="#9B9B9B" stroke-width="7" stroke-miterlimit="10" x1="147.342" y1="89.309" x2="230.065" y2="89.309"/>
<line fill="none" stroke="#9B9B9B" stroke-width="7" stroke-miterlimit="10" x1="227.922" y1="51.158" x2="227.922" y2="127.46"/>
<line fill="none" stroke="#9B9B9B" stroke-width="7" stroke-miterlimit="10" x1="105.927" y1="167.743" x2="144.66" y2="167.743"/>
<line fill="none" stroke="#9B9B9B" stroke-width="7" stroke-miterlimit="10" x1="230.611" y1="278.841" x2="326.053" y2="278.841"/>
<line fill="none" stroke="#9B9B9B" stroke-width="7" stroke-miterlimit="10" x1="227.922" y1="127.46" x2="326.053" y2="127.46"/>
<line fill="none" stroke="#9B9B9B" stroke-width="7" stroke-miterlimit="10" x1="227.922" y1="51.158" x2="326.053" y2="51.158"/>
<line fill="none" stroke="#9B9B9B" stroke-width="7" stroke-miterlimit="10" x1="146.414" y1="243.24" x2="230.994" y2="243.24"/>
<line fill="none" stroke="#9B9B9B" stroke-width="7" stroke-miterlimit="10" x1="144.66" y1="88" x2="144.66" y2="246.24"/>
<line fill="none" stroke="#9B9B9B" stroke-width="7" stroke-miterlimit="10" x1="232.08" y1="207.639" x2="232.08" y2="278.841"/>
<line fill="none" stroke="#9B9B9B" stroke-width="7" stroke-miterlimit="10" x1="230.611" y1="207.639" x2="326.053" y2="207.639"/>
<path fill="none" stroke="#0C4BA2" stroke-width="10" stroke-miterlimit="10" d="M105.927,167.743
	c0,9.684-10.975,16.784-24.532,16.784H51.053c-13.557,0-24.532-7.747-24.532-16.784l0,0c0-9.686,10.975-16.785,24.532-16.785h30.342
	C94.952,150.313,105.927,158.059,105.927,167.743L105.927,167.743z"/>
<path fill="none" stroke="#0C4BA2" stroke-width="10" stroke-miterlimit="10" d="M405.327,278.841
	c0,9.684-10.975,16.785-24.532,16.785h-30.342c-13.557,0-24.531-7.747-24.531-16.785l0,0c0-9.686,10.977-16.785,24.531-16.785
	h30.342C394.352,262.057,405.327,269.803,405.327,278.841L405.327,278.841z"/>
<path fill="none" stroke="#0C4BA2" stroke-width="10" stroke-miterlimit="10" d="M405.327,127.46
	c0,9.685-10.975,16.785-24.532,16.785h-30.342c-13.557,0-24.531-7.746-24.531-16.785l0,0c0-9.685,10.977-16.784,24.531-16.784
	h30.342C394.352,110.676,405.327,117.778,405.327,127.46L405.327,127.46z"/>
<path fill="none" stroke="#0C4BA2" stroke-width="10" stroke-miterlimit="10" d="M405.327,51.158
	c0,9.684-10.975,16.785-24.532,16.785h-30.342c-13.557,0-24.531-7.747-24.531-16.785l0,0c0-9.684,10.977-16.784,24.531-16.784
	h30.342C394.352,34.373,405.327,42.12,405.327,51.158L405.327,51.158z"/>
<path fill="none" stroke="#0C4BA2" stroke-width="10" stroke-miterlimit="10" d="M405.327,207.639
	c0,9.684-10.975,16.785-24.532,16.785h-30.342c-13.557,0-24.531-7.747-24.531-16.785l0,0c0-9.684,10.977-16.785,24.531-16.785
	h30.342C394.352,190.208,405.327,197.955,405.327,207.639L405.327,207.639z"/>
</svg>
