<?xml version="1.0" encoding="utf-8"?>
<!-- Generator: Adobe Illustrator 19.1.1, SVG Export Plug-In . SVG Version: 6.00 Build 0)  -->
<svg version="1.1" id="Layer_1" xmlns="http://www.w3.org/2000/svg" xmlns:xlink="http://www.w3.org/1999/xlink" x="0px" y="0px"
	 viewBox="296 -302 612 645" style="enable-background:new 296 -302 612 645;" xml:space="preserve">
<style type="text/css">
	.st0{fill:#05142A;stroke:#000000;stroke-miterlimit:10;}
	.st1{fill:#5BE8C3;}
	.st2{fill:#239DF9;}
	.st3{fill:#94D9F8;}
</style>
<circle class="st0" cx="602" cy="20.5" r="305.4"/>
<circle class="st1" cx="545.9" cy="-148.7" r="127.7"/>
<ellipse class="st1" cx="502.1" cy="132.8" rx="151.9" ry="149.2"/>
<circle class="st1" cx="754.7" cy="5.1" r="127.7"/>
<circle class="st2" cx="517" cy="-219.5" r="47.8"/>
<circle class="st2" cx="513" cy="-122.6" r="47.8"/>
<circle class="st2" cx="545.9" cy="-52" r="27"/>
<circle class="st2" cx="589" cy="-66.3" r="16.1"/>
<circle class="st2" cx="593.8" cy="-169.9" r="36.4"/>
<circle class="st2" cx="611.5" cy="-82.4" r="10.5"/>
<circle class="st3" cx="497.5" cy="-107.4" r="10.5"/>
<circle class="st3" cx="502.1" cy="-128.4" r="10.5"/>
<circle class="st3" cx="519" cy="-112.1" r="10.5"/>
<circle class="st3" cx="529.4" cy="-133.5" r="10.5"/>
<circle class="st3" cx="508.5" cy="-148.7" r="10.5"/>
<circle class="st3" cx="500.3" cy="-203.8" r="10.5"/>
<circle class="st3" cx="504.8" cy="-224.8" r="10.5"/>
<circle class="st3" cx="521.7" cy="-208.5" r="10.5"/>
<circle class="st3" cx="525.8" cy="-234.7" r="10.5"/>
<circle class="st3" cx="545.9" cy="-52" r="10.5"/>
<circle class="st3" cx="589" cy="-66.3" r="10.5"/>
<circle class="st3" cx="578.6" cy="-165.5" r="10.5"/>
<circle class="st3" cx="602" cy="-159.2" r="10.5"/>
<circle class="st3" cx="593.8" cy="-182.8" r="10.5"/>
<circle class="st2" cx="493.6" cy="62.4" r="66.8"/>
<circle class="st2" cx="488" cy="198" r="66.8"/>
<circle class="st3" cx="466.3" cy="219.3" r="14.7"/>
<circle class="st3" cx="472.7" cy="190" r="14.7"/>
<circle class="st3" cx="496.3" cy="212.7" r="14.7"/>
<circle class="st3" cx="511" cy="182.8" r="14.7"/>
<circle class="st3" cx="481.6" cy="161.5" r="14.7"/>
<circle class="st3" cx="470.1" cy="84.4" r="14.7"/>
<circle class="st3" cx="476.6" cy="55" r="14.7"/>
<circle class="st3" cx="500.1" cy="77.8" r="14.7"/>
<circle class="st3" cx="505.9" cy="41.2" r="14.7"/>
<circle class="st2" cx="705.8" cy="-47.3" r="47.8"/>
<circle class="st2" cx="701.8" cy="49.6" r="47.8"/>
<circle class="st3" cx="686.2" cy="64.8" r="10.5"/>
<circle class="st3" cx="690.8" cy="43.8" r="10.5"/>
<circle class="st3" cx="707.7" cy="60.1" r="10.5"/>
<circle class="st3" cx="718.2" cy="38.7" r="10.5"/>
<circle class="st3" cx="697.2" cy="23.5" r="10.5"/>
<circle class="st3" cx="689" cy="-31.6" r="10.5"/>
<circle class="st3" cx="693.6" cy="-52.6" r="10.5"/>
<circle class="st3" cx="710.4" cy="-36.3" r="10.5"/>
<circle class="st3" cx="714.5" cy="-62.5" r="10.5"/>
<circle class="st2" cx="812.7" cy="1.8" r="66.8"/>
<circle class="st3" cx="796" cy="-36.3" r="10.5"/>
<circle class="st3" cx="789.4" cy="-10.5" r="10.5"/>
<circle class="st3" cx="812.7" cy="1.8" r="10.5"/>
<circle class="st3" cx="812.7" cy="-21" r="10.5"/>
<circle class="st3" cx="789.4" cy="12.3" r="10.5"/>
<circle class="st3" cx="834.8" cy="15.3" r="10.5"/>
<circle class="st3" cx="811.5" cy="25.7" r="10.5"/>
<circle class="st3" cx="844.1" cy="-32" r="10.5"/>
<circle class="st3" cx="833.7" cy="-11.1" r="10.5"/>
<circle class="st3" cx="822" cy="-42.1" r="10.5"/>
<circle class="st3" cx="854.6" cy="0.4" r="10.5"/>
</svg>
