<?xml version="1.0" encoding="utf-8"?>
<!-- Generator: Adobe Illustrator 16.0.3, SVG Export Plug-In . SVG Version: 6.00 Build 0)  -->
<!DOCTYPE svg PUBLIC "-//W3C//DTD SVG 1.1//EN" "http://www.w3.org/Graphics/SVG/1.1/DTD/svg11.dtd">
<svg version="1.1" id="Layer_1" xmlns="http://www.w3.org/2000/svg" xmlns:xlink="http://www.w3.org/1999/xlink" x="0px" y="0px"
	 width="612px" height="792px" viewBox="0 0 612 792" enable-background="new 0 0 612 792" xml:space="preserve">
<path opacity="0.7" fill="#CCCCCC" enable-background="new    " d="M66.722,533.479v47.771h484.177V462.466
	C390.152,482.479,228.76,542.517,66.722,533.479z"/>
<path fill="#0C4BA2" d="M551.545,395.326v1.291c0.646,0,1.291,0,1.937,0c-0.646,0-1.291,0-1.937,0v183.988h19.367V394.682
	L551.545,395.326L551.545,395.326z"/>
<rect x="48" y="166.795" fill="#0C4BA2" width="19.367" height="176.24"/>
<rect x="551.545" y="166.149" fill="#244863" width="19.367" height="126.532"/>
<path fill="#15B994" d="M56.393,423.086c3.874-0.646,7.102-1.291,10.975-1.937v-17.431c-5.81,0-11.62,0-17.43,0
	c5.81,0,11.62,0,17.43,0v-31.633H48V581.25h19.367V421.149C63.494,421.795,59.621,422.44,56.393,423.086z"/>
<path fill="#15B994" d="M551.545,301.073v32.278c2.582-0.646,5.81-0.646,8.393-1.291c-2.583,0.646-5.811,0.646-8.393,1.291v45.19
	h19.367v-77.469H551.545z"/>
<path opacity="0.7" fill="#CCCCCC" enable-background="new    " d="M450.19,403.719c-13.558,3.229-26.469,7.102-39.38,11.62
	c45.836-13.557,93.607-24.531,140.734-37.442v-1.291C516.038,374.022,485.696,391.453,450.19,403.719z"/>
<path opacity="0.7" fill="#CCCCCC" enable-background="new    " d="M66.722,422.44v103.937
	c72.304-1.291,140.734-29.051,208.519-57.455c0,0,0,0,0.646,0c41.962-22.596,87.797-38.734,134.924-52.938
	c12.911-4.519,26.469-8.393,39.38-11.62c36.151-12.266,66.493-29.696,101.354-27.114v-42.607c-2.582,0.646-5.165,0.646-7.102,1.291
	C386.924,377.896,224.241,397.264,66.722,422.44z"/>
<path opacity="0.7" fill="#CCCCCC" enable-background="new    " d="M551.545,252.655v-85.86H67.367v50.354
	C226.823,223.605,390.798,259.111,551.545,252.655z"/>
<path opacity="0.7" fill="#CCCCCC" enable-background="new    " d="M551.545,303.655c-161.393-19.366-322.785-48.417-484.178-78.759
	v81.987c159.456,6.455,324.722,18.075,484.178,24.531V303.655z"/>
<path opacity="0.7" fill="#CCCCCC" enable-background="new    " d="M551.545,456.01V399.2
	c-165.266,18.075-318.912-69.076-484.178-84.569v27.759C226.178,380.479,380.469,463.111,551.545,456.01z"/>
<path opacity="0.7" fill="#CCCCCC" enable-background="new    " d="M327.532,332.706c-82.633,25.177-171.076,25.823-260.165,44.544
	v38.734C182.279,391.453,303,396.617,411.456,339.162c42.607-24.531,91.025-37.443,140.089-49.709v-34.861
	C470.849,252.655,402.418,307.529,327.532,332.706z"/>
</svg>
