<?xml version="1.0" encoding="utf-8"?>
<!-- Generator: Adobe Illustrator 16.0.3, SVG Export Plug-In . SVG Version: 6.00 Build 0)  -->
<!DOCTYPE svg PUBLIC "-//W3C//DTD SVG 1.1//EN" "http://www.w3.org/Graphics/SVG/1.1/DTD/svg11.dtd">
<svg version="1.1" id="Layer_1" xmlns="http://www.w3.org/2000/svg" xmlns:xlink="http://www.w3.org/1999/xlink" x="0px" y="0px"
	 width="521.973px" height="473.977px" viewBox="0 0 521.973 473.977" enable-background="new 0 0 521.973 473.977"
	 xml:space="preserve">
<rect x="41.228" y="17.759" fill="#FFFFFF" stroke="#A0A0A0" stroke-width="5" stroke-miterlimit="10" width="114.495" height="111.087"/>
<rect x="210.925" y="17.759" fill="#FFFFFF" stroke="#A0A0A0" stroke-width="5" stroke-miterlimit="10" width="114.496" height="111.087"/>
<rect x="386.756" y="17.759" fill="#FFFFFF" stroke="#A0A0A0" stroke-width="5" stroke-miterlimit="10" width="114.494" height="111.087"/>
<rect x="37.82" y="176.552" fill="#FFFFFF" stroke="#A0A0A0" stroke-width="5" stroke-miterlimit="10" width="114.494" height="111.087"/>
<rect x="211.136" y="176.552" fill="#FFFFFF" stroke="#A0A0A0" stroke-width="5" stroke-miterlimit="10" width="114.496" height="111.087"/>
<rect x="384.03" y="176.552" fill="#FFFFFF" stroke="#A0A0A0" stroke-width="5" stroke-miterlimit="10" width="114.494" height="111.087"/>
<rect x="37.82" y="334.663" fill="#FFFFFF" stroke="#A0A0A0" stroke-width="5" stroke-miterlimit="10" width="114.494" height="111.088"/>
<rect x="210.925" y="334.663" fill="#FFFFFF" stroke="#A0A0A0" stroke-width="5" stroke-miterlimit="10" width="114.494" height="111.088"/>
<rect x="384.03" y="334.663" fill="#FFFFFF" stroke="#A0A0A0" stroke-width="5" stroke-miterlimit="10" width="114.494" height="111.088"/>
<circle fill="#0C4BA2" cx="301.081" cy="260.662" r="15.168"/>
<circle fill="#0C4BA2" cx="418.524" cy="247.704" r="15.169"/>
<circle fill="#0C4BA2" cx="418.524" cy="208.096" r="15.168"/>
<circle fill="#0C4BA2" cx="445.267" cy="377.567" r="15.168"/>
<circle fill="#0C4BA2" cx="464.032" cy="262.873" r="15.168"/>
<circle fill="#0C4BA2" cx="120.428" cy="250.654" r="15.17"/>
<circle fill="#0C4BA2" cx="85.035" cy="265.72" r="15.168"/>
<circle fill="#0C4BA2" cx="70.708" cy="208.096" r="15.168"/>
<circle fill="#0C4BA2" cx="236.505" cy="260.662" r="15.168"/>
<circle fill="#0C4BA2" cx="273.271" cy="213.471" r="15.168"/>
<circle fill="#0C4BA2" cx="479.505" cy="412.118" r="15.17"/>
<circle fill="#0C4BA2" cx="301.08" cy="103.18" r="15.168"/>
<circle fill="#0C4BA2" cx="406.502" cy="368.295" r="15.169"/>
<circle fill="#0C4BA2" cx="113.208" cy="406.95" r="15.169"/>
<circle fill="#0C4BA2" cx="68.544" cy="406.95" r="15.169"/>
<circle fill="#0C4BA2" cx="98.882" cy="368.185" r="15.169"/>
<circle fill="#0C4BA2" cx="239.731" cy="418.118" r="15.169"/>
<circle fill="#0C4BA2" cx="269.227" cy="83.799" r="15.168"/>
<circle fill="#0C4BA2" cx="254.057" cy="382.625" r="15.168"/>
<circle fill="#0C4BA2" cx="297.036" cy="373.353" r="15.169"/>
<circle fill="#0C4BA2" cx="79.898" cy="103.18" r="15.168"/>
<circle fill="#0C4BA2" cx="128.378" cy="99.426" r="15.17"/>
<circle fill="#0C4BA2" cx="453.078" cy="47.179" r="15.168"/>
<circle fill="#0C4BA2" cx="468.245" cy="103.179" r="15.168"/>
<circle fill="#0C4BA2" cx="417.682" cy="99.426" r="15.168"/>
<circle fill="#0C4BA2" cx="238.89" cy="45.877" r="15.168"/>
<circle fill="#0C4BA2" cx="120.428" cy="61.046" r="15.168"/>
</svg>
