<svg width="390" height="436" viewBox="0 0 390 436" fill="none" xmlns="http://www.w3.org/2000/svg">
<g clip-path="url(#clip0)">
<path d="M64.5403 168.13V243.46H106.15V168.13C126.343 163.055 143.984 150.773 155.753 133.597C167.522 116.421 172.606 95.5361 170.049 74.8728C167.492 54.2094 157.47 35.1935 141.87 21.4045C126.269 7.61548 106.166 0.00463867 85.3453 0.00463867C64.5244 0.00463867 44.4215 7.61548 28.821 21.4045C13.2205 35.1935 3.19843 54.2094 0.641408 74.8728C-1.91562 95.5361 3.16878 116.421 14.9375 133.597C26.7062 150.773 44.3474 163.055 64.5403 168.13V168.13Z" fill="white"/>
<path d="M202.28 256.85L148.69 292.85C134.746 277.41 115.641 267.597 94.9688 265.255C74.2966 262.913 53.4809 268.204 36.4361 280.133C19.3914 292.062 7.29187 309.807 2.41295 330.032C-2.46598 350.256 0.211817 371.566 9.94278 389.954C19.6737 408.343 35.7874 422.543 55.2537 429.884C74.7199 437.225 96.1975 437.201 115.648 429.818C135.098 422.434 151.18 408.199 160.871 389.789C170.562 371.379 173.193 350.064 168.27 329.85L225.66 291.24L202.28 256.85Z" fill="white"/>
<path d="M304.55 130.98C282.552 130.961 261.404 139.47 245.55 154.72L186.64 119.23L165.17 154.87L223.37 189.94C217.808 207.082 217.815 225.544 223.39 242.682C228.965 259.819 239.823 274.752 254.407 285.34C268.99 295.927 286.551 301.626 304.573 301.62C322.594 301.614 340.151 295.903 354.728 285.305C369.304 274.707 380.151 259.767 385.715 242.626C391.278 225.484 391.273 207.022 385.699 189.884C380.124 172.746 369.268 157.813 354.685 147.224C340.102 136.635 322.542 130.935 304.52 130.94L304.55 130.98Z" fill="white"/>
</g>
<defs>
<clipPath id="clip0">
<rect width="389.91" height="435.38" fill="white"/>
</clipPath>
</defs>
</svg>
