<svg height='100px' width='100px'  fill="#000000" xmlns="http://www.w3.org/2000/svg" xmlns:xlink="http://www.w3.org/1999/xlink" version="1.1" x="0px" y="0px" viewBox="0 0 24 24" style="enable-background:new 0 0 24 24;" xml:space="preserve"><g><g><g><g><g><g><path d="M18.5,24c-3.032,0-5.5-2.467-5.5-5.5s2.468-5.5,5.5-5.5s5.5,2.467,5.5,5.5S21.532,24,18.5,24z M18.5,14        c-2.481,0-4.5,2.019-4.5,4.5s2.019,4.5,4.5,4.5s4.5-2.019,4.5-4.5S20.981,14,18.5,14z"></path></g></g><g><path d="M21.5,21h-6c-0.276,0-0.5-0.224-0.5-0.5s0.224-0.5,0.5-0.5h6c0.276,0,0.5,0.224,0.5,0.5S21.776,21,21.5,21z"></path></g><g><path d="M21.5,19h-6c-0.202,0-0.385-0.122-0.462-0.309s-0.034-0.402,0.108-0.545l3-3c0.195-0.195,0.512-0.195,0.707,0l3,3       c0.143,0.143,0.186,0.358,0.108,0.545S21.702,19,21.5,19z M16.707,18h3.586L18.5,16.207L16.707,18z"></path></g></g></g></g><g><g><g><g><path d="M11.5,22h-11C0.224,22,0,21.776,0,21.5v-15c0-0.133,0.053-0.26,0.146-0.354l6-6C6.24,0.053,6.367,0,6.5,0h11       C17.776,0,18,0.224,18,0.5v11c0,0.276-0.224,0.5-0.5,0.5S17,11.776,17,11.5V1H6.707L1,6.707V21h10.5c0.276,0,0.5,0.224,0.5,0.5       S11.776,22,11.5,22z"></path></g><g><path d="M6.5,7h-6C0.224,7,0,6.776,0,6.5S0.224,6,0.5,6H6V0.5C6,0.224,6.224,0,6.5,0S7,0.224,7,0.5v6C7,6.776,6.776,7,6.5,7z"></path></g></g></g></g></g></svg>