<svg width="36" height="39" viewBox="0 0 36 39" fill="none" xmlns="http://www.w3.org/2000/svg">
    <path d="M7.03206 16.3063V21.9548H10.1513V16.3063C12.928 15.6074 14.991 13.0897 14.991 10.0984C14.991 6.56973 12.1203 3.69849 8.59098 3.69849C5.06167 3.69849 2.19238 6.56973 2.19238 10.0984C2.19238 13.0897 4.25529 15.6074 7.03206 16.3063Z" fill="#5CB649"/>
    <path d="M26.0335 22.6615V17.013H29.1527V22.6615C31.9295 23.3603 33.9924 25.878 33.9924 28.8694C33.9924 32.398 31.1217 35.2693 27.5924 35.2693C24.0631 35.2693 21.1938 32.398 21.1938 28.8694C21.1938 25.878 23.2568 23.3603 26.0335 22.6615Z" fill="#5CB649"/>
    <path d="M24.0466 4.06056C22.5726 4.94504 21.5752 6.33348 21.1404 7.87399L16.0011 7.86404L15.9627 10.9938L21.0409 11.0035C21.1808 11.6453 21.4193 12.2744 21.7673 12.8684C23.5452 15.9037 27.4612 16.8917 30.4959 15.0707C33.5306 13.2497 34.5532 9.29819 32.7753 6.2629C30.9973 3.22762 27.0813 2.23956 24.0466 4.06056Z" fill="#26890D"/>
    <path d="M11.9973 34.9095C13.4662 34.0164 14.4556 32.6221 14.8815 31.079L20.0208 31.0587L20.0412 27.9287L14.963 27.949C14.8194 27.3081 14.5773 26.6803 14.2259 26.0884C12.4305 23.0637 8.5089 22.0987 5.48476 23.9376C2.46061 25.7764 1.46076 29.734 3.25614 32.7587C5.05151 35.7834 8.97315 36.7484 11.9973 34.9095Z" fill="#26890D"/>
</svg>
    