<?xml version="1.0" encoding="utf-8"?>
<!-- Generator: Adobe Illustrator 16.0.3, SVG Export Plug-In . SVG Version: 6.00 Build 0)  -->
<!DOCTYPE svg PUBLIC "-//W3C//DTD SVG 1.1//EN" "http://www.w3.org/Graphics/SVG/1.1/DTD/svg11.dtd">
<svg version="1.1" id="Layer_1" xmlns="http://www.w3.org/2000/svg" xmlns:xlink="http://www.w3.org/1999/xlink" x="0px" y="0px"
	 width="93.25px" height="74.375px" viewBox="0 0 93.25 74.375" enable-background="new 0 0 93.25 74.375" xml:space="preserve">
<path fill="#1BB793" d="M85.12,7.708c-4.421,4.54-6.908,11.369-13.856,11.369c-4.935,0.395-8.211,3.71-11.094,7.382
	c-2.407,2.409-5.961,2.843-8.053,5.566H85.12V7.708L85.12,7.708z"/>
<path fill="#0F4D9F" d="M59.815,25.748c2.882-3.71,6.158-6.987,11.094-7.421c6.908,0,9.396-6.869,13.855-11.369V6.681H51.723v24.634
	h0.039C53.815,28.59,57.367,28.156,59.815,25.748z"/>
<line fill="none" stroke="#CECCCC" stroke-width="2" stroke-miterlimit="10" x1="68.619" y1="19.195" x2="68.619" y2="25.077"/>
<ellipse fill="#193647" cx="68.619" cy="16.905" rx="3.474" ry="3.395"/>
<g>
	<path fill="#FFFFFF" d="M70.869,16.273c0,0-0.04-0.04-0.078-0.119c-0.04-0.039-0.08-0.079-0.08-0.118
		c0-0.039-0.039-0.039-0.039-0.079s0-0.04-0.04-0.079c0-0.04-0.04-0.119-0.04-0.158c0-0.079-0.039-0.118-0.078-0.197
		c-0.04-0.079-0.04-0.158-0.118-0.197l-0.158-0.198c-0.04-0.079-0.118-0.118-0.158-0.158c-0.039-0.04-0.118-0.079-0.196-0.118
		c-0.079-0.04-0.118-0.079-0.198-0.118c-0.079,0-0.118-0.04-0.197-0.079c-0.04,0-0.119-0.04-0.158-0.079
		c-0.039-0.04-0.079-0.079-0.118-0.079c-0.079-0.039-0.118-0.079-0.118-0.079s0.039-0.039,0.118-0.079
		c0.039,0,0.079-0.039,0.157-0.078c0.04,0,0.079-0.04,0.119-0.04s0.079,0.04,0.118,0.04c0.079,0.039,0.159,0.039,0.237,0.078
		c0.078,0.04,0.158,0.079,0.236,0.119c0.079,0.039,0.158,0.078,0.237,0.157c0.079,0.08,0.157,0.119,0.197,0.198
		c0.078,0.079,0.118,0.158,0.197,0.236c0.08,0.079,0.08,0.158,0.118,0.237c0.04,0.079,0.08,0.158,0.118,0.237
		c0.04,0.079,0.04,0.158,0.08,0.237c0,0.04,0.039,0.079,0.039,0.119c0,0.04-0.039,0.079-0.039,0.079
		c-0.04,0.04-0.04,0.118-0.08,0.158C70.869,16.234,70.869,16.273,70.869,16.273z"/>
</g>
<rect x="21.825" y="50.188" fill="#1BB793" width="11.336" height="18.421"/>
<rect x="8.958" y="44.292" fill="#0F4D9F" width="11.336" height="24.317"/>
<rect x="34.692" y="44.292" fill="#0F4D9F" width="11.337" height="24.317"/>
<rect x="47.56" y="50.188" fill="#1BB793" width="11.336" height="18.421"/>
<rect x="60.877" y="44.292" fill="#0F4D9F" width="11.337" height="24.317"/>
<rect x="73.744" y="50.188" fill="#1BB793" width="11.336" height="18.421"/>
<circle fill="#1FB894" cx="25.2" cy="19.164" r="11.457"/>
<g>
	<defs>
		<circle id="SVGID_1_" cx="25.2" cy="19.164" r="11.457"/>
	</defs>
	<clipPath id="SVGID_2_">
		<use xlink:href="#SVGID_1_"  overflow="visible"/>
	</clipPath>
	<rect x="25.2" y="6.55" clip-path="url(#SVGID_2_)" fill="#104E9F" width="11.928" height="12.614"/>
</g>
</svg>
