<?xml version="1.0" encoding="utf-8"?>
<!-- Generator: Adobe Illustrator 16.0.3, SVG Export Plug-In . SVG Version: 6.00 Build 0)  -->
<!DOCTYPE svg PUBLIC "-//W3C//DTD SVG 1.1//EN" "http://www.w3.org/Graphics/SVG/1.1/DTD/svg11.dtd">
<svg version="1.1" id="Layer_1" xmlns="http://www.w3.org/2000/svg" xmlns:xlink="http://www.w3.org/1999/xlink" x="0px" y="0px"
	 width="612px" height="445px" viewBox="0 150.5 612 445" enable-background="new 0 150.5 612 445" xml:space="preserve">
<line fill="none" stroke="#CCCBCB" stroke-width="9" stroke-miterlimit="10" x1="89" y1="178.9" x2="89" y2="569.5"/>
<circle fill="#0C4BA2" cx="89" cy="283.5" r="30.5"/>
<circle fill="#15B994" cx="89" cy="454.1" r="30.5"/>
<line fill="none" stroke="#CCCBCB" stroke-width="9" stroke-miterlimit="10" x1="247.3" y1="178.9" x2="247.3" y2="569.5"/>
<circle fill="#0C4BA2" cx="247.3" cy="454.1" r="30.5"/>
<circle fill="#15B994" cx="247.3" cy="283.5" r="30.5"/>
<line fill="none" stroke="#CCCBCB" stroke-width="9" stroke-miterlimit="10" x1="390.3" y1="178.9" x2="390.3" y2="569.5"/>
<circle fill="#0C4BA2" cx="390.3" cy="406.2" r="30.5"/>
<circle fill="#15B994" cx="390.3" cy="283.5" r="30.5"/>
<line fill="none" stroke="#CCCBCB" stroke-width="9" stroke-miterlimit="10" x1="539.2" y1="178.9" x2="539.2" y2="569.5"/>
<circle fill="#0C4BA2" cx="539.2" cy="283.5" r="30.5"/>
<circle fill="#15B994" cx="539.2" cy="454.1" r="30.5"/>
<line fill="none" stroke="#15B994" stroke-width="5" stroke-miterlimit="10" x1="89" y1="454.1" x2="247.3" y2="283.5"/>
<line fill="none" stroke="#15B994" stroke-width="5" stroke-miterlimit="10" x1="247.3" y1="283.5" x2="404.9" y2="283.5"/>
<line fill="none" stroke="#15B994" stroke-width="5" stroke-miterlimit="10" x1="539.2" y1="454.1" x2="390.3" y2="283.5"/>
<line fill="none" stroke="#0C4BA2" stroke-width="5" stroke-miterlimit="10" x1="85.4" y1="283.5" x2="246.6" y2="449.7"/>
<line fill="none" stroke="#0C4BA2" stroke-width="5" stroke-miterlimit="10" x1="247.3" y1="454.1" x2="390.3" y2="406.2"/>
<line fill="none" stroke="#0C4BA2" stroke-width="5" stroke-miterlimit="10" x1="390.3" y1="406.2" x2="539.2" y2="283.5"/>
</svg>
