<svg xmlns="http://www.w3.org/2000/svg" data-name="Layer 1" viewBox="0 0 100 100" x="0px" y="0px"><title>Artboard 19</title><path d="M39.29,81.6a4.5,4.5,0,0,0,4.5-4.5v-9a1.5,1.5,0,0,0-3,0v9a1.5,1.5,0,0,1-1.5,1.5H12a1.5,1.5,0,0,1-1.5-1.5v-39a1.5,1.5,0,0,1,1.5-1.5H30.54v7.75a2.5,2.5,0,0,0,2.5,2.5h7.75v9.25a1.5,1.5,0,0,0,3,0V45.33a1.5,1.5,0,0,0,0-.28h0a1.48,1.48,0,0,0-.13-.37l0-.08a1.5,1.5,0,0,0-.24-.32L33.1,34a1.5,1.5,0,0,0-.32-.24l-.08,0a1.48,1.48,0,0,0-.37-.13h0l-.28,0H12a4.5,4.5,0,0,0-4.5,4.5v39A4.5,4.5,0,0,0,12,81.6ZM33.54,38.7l5.13,5.13H33.54Z" style="&#10;    fill: #143F5B;&#10;"/><path d="M93.76,45a1.48,1.48,0,0,0-.13-.37l0-.08a1.5,1.5,0,0,0-.24-.32L83.1,34a1.5,1.5,0,0,0-.32-.24l-.08,0a1.48,1.48,0,0,0-.37-.13h0l-.28,0H62a4.5,4.5,0,0,0-4.5,4.5v18a1.5,1.5,0,0,0,3,0v-18a1.5,1.5,0,0,1,1.5-1.5H80.54v7.75a2.5,2.5,0,0,0,2.5,2.5h7.75V77.1a1.5,1.5,0,0,1-1.5,1.5H62a1.5,1.5,0,0,1-1.5-1.5v-9a1.5,1.5,0,0,0-3,0v9A4.5,4.5,0,0,0,62,81.6H89.29a4.5,4.5,0,0,0,4.5-4.5V45.33a1.5,1.5,0,0,0,0-.28ZM83.54,43.83V38.7l5.13,5.13Z" style="&#10;    fill: #2c9e76;&#10;"/><path d="M24.15,62.08a1.5,1.5,0,0,0,1.5,1.5H72.25L70.94,64.9A1.5,1.5,0,1,0,73.06,67l3.87-3.87a1.5,1.5,0,0,0,0-2.12l-3.87-3.87a1.5,1.5,0,1,0-2.12,2.12l1.31,1.31H25.65A1.5,1.5,0,0,0,24.15,62.08Z"/></svg>