<svg xmlns="http://www.w3.org/2000/svg" xmlns:xlink="http://www.w3.org/1999/xlink" version="1.1" x="0px" y="0px" viewBox="0 0 16 16" style="enable-background:new 0 0 16 16;" xml:space="preserve"><g><path d="M12.237,12.237C11.152,13.325,9.655,14,8,14c-3.309,0-6-2.691-6-6H0c0,4.418,3.582,8,8,8c2.209,0,4.199-0.905,5.647-2.353   L16,16v-6h-6L12.237,12.237z"></path><path d="M3.763,3.763C4.848,2.675,6.345,2,8,2c3.309,0,6,2.691,6,6h2c0-4.418-3.582-8-8-8C5.791,0,3.801,0.905,2.353,2.353L0,0v6h6   L3.763,3.763z"></path><rect style="" width="16" height="16" fill="none"></rect></g></svg>