<svg xmlns="http://www.w3.org/2000/svg" xmlns:xlink="http://www.w3.org/1999/xlink" width="100" height="100" viewBox="0 0 100 100"><g><g transform="translate(50 50) scale(0.69 0.69) rotate(0) translate(-50 -50)" style="fill:#143f5b"><svg fill="#143f5b" xmlns:dc="http://purl.org/dc/elements/1.1/" xmlns:cc="http://creativecommons.org/ns#" xmlns:rdf="http://www.w3.org/1999/02/22-rdf-syntax-ns#" xmlns:svg="http://www.w3.org/2000/svg" xmlns="http://www.w3.org/2000/svg" xmlns:sodipodi="http://sodipodi.sourceforge.net/DTD/sodipodi-0.dtd" xmlns:inkscape="http://www.inkscape.org/namespaces/inkscape" viewBox="0 0 100 100" version="1.1" x="0px" y="0px"><g transform="translate(0,-952.36216)"><path style="opacity:1;fill:#143f5b;fill-opacity:1;stroke:none;stroke-width:3;stroke-linecap:butt;stroke-linejoin:miter;stroke-miterlimit:4;stroke-dasharray:none;stroke-opacity:1" d="m 14.792339,957.36216 -9.660868,16.7353 6.855218,0 0,59.64754 a 7.1018077,7.1018077 0 0 0 -4.29616,6.5156 7.1018077,7.1018077 0 0 0 7.10181,7.1016 7.1018077,7.1018077 0 0 0 7.01961,-6.0771 l 57.61998,-15.4363 1.76997,6.6195 13.66663,-13.6611 -18.66418,-5.0031 1.77544,6.6249 -42.47932,11.3817 c -2.39057,-8.3018 -9.48318,-14.2984 -17.90248,-15.4037 l 0,-42.30954 6.85522,0 -9.66087,-16.7353 z m 2.80565,61.88354 c 7.1541,1.0783 13.11267,6.2118 15.17354,13.2993 l -12.40076,3.3208 a 7.1018077,7.1018077 0 0 0 -2.77278,-2.1318 l 0,-14.4883 z"></path></g></svg></g></g></svg>