<svg height='100px' width='100px'  fill="#000000" xmlns="http://www.w3.org/2000/svg" xmlns:xlink="http://www.w3.org/1999/xlink" version="1.1" x="0px" y="0px" viewBox="0 0 161.492 162.732" enable-background="new 0 0 161.492 162.732" xml:space="preserve"><g><path d="M128.254,27.583H35.736c-7.359,0-13.301,5.489-13.301,12.265v85.276c0,6.78,5.942,12.265,13.301,12.265h92.518   c7.342,0,13.295-5.484,13.295-12.265V39.848C141.549,33.076,135.601,27.583,128.254,27.583z M60.809,126.074   c0,1.6-1.405,2.894-3.138,2.894H35.848c-1.736,0-3.138-1.294-3.138-2.894v-20.115c0-1.599,1.402-2.894,3.138-2.894h21.824   c1.734,0,3.138,1.296,3.138,2.894V126.074z M60.809,92.546c0,1.6-1.405,2.894-3.138,2.894H35.848c-1.736,0-3.138-1.294-3.138-2.894   V72.429c0-1.599,1.402-2.894,3.138-2.894h21.824c1.734,0,3.138,1.296,3.138,2.894V92.546z M60.809,59.017   c0,1.6-1.405,2.894-3.138,2.894H35.848c-1.736,0-3.138-1.294-3.138-2.894V38.9c0-1.599,1.402-2.894,3.138-2.894h21.824   c1.734,0,3.138,1.296,3.138,2.894V59.017z M96.042,126.074c0,1.6-1.404,2.894-3.136,2.894H71.081c-1.736,0-3.137-1.294-3.137-2.894   v-20.115c0-1.599,1.401-2.894,3.137-2.894h21.825c1.732,0,3.136,1.296,3.136,2.894V126.074z M96.042,92.546   c0,1.6-1.404,2.894-3.136,2.894H71.081c-1.736,0-3.137-1.294-3.137-2.894V72.429c0-1.599,1.401-2.894,3.137-2.894h21.825   c1.732,0,3.136,1.296,3.136,2.894V92.546z M96.042,59.017c0,1.6-1.404,2.894-3.136,2.894H71.081c-1.736,0-3.137-1.294-3.137-2.894   V38.9c0-1.599,1.401-2.894,3.137-2.894h21.825c1.732,0,3.136,1.296,3.136,2.894V59.017z M131.276,126.074   c0,1.6-1.404,2.894-3.137,2.894h-21.824c-1.736,0-3.139-1.294-3.139-2.894v-20.115c0-1.599,1.402-2.894,3.139-2.894h21.824   c1.733,0,3.137,1.296,3.137,2.894V126.074z M131.276,92.546c0,1.6-1.404,2.894-3.137,2.894h-21.824   c-1.736,0-3.139-1.294-3.139-2.894V72.429c0-1.599,1.402-2.894,3.139-2.894h21.824c1.733,0,3.137,1.296,3.137,2.894V92.546z    M131.276,59.017c0,1.6-1.404,2.894-3.137,2.894h-21.824c-1.736,0-3.139-1.294-3.139-2.894V38.9c0-1.599,1.402-2.894,3.139-2.894   h21.824c1.733,0,3.137,1.296,3.137,2.894V59.017z"></path><rect x="71.278" y="39.341" width="21.43" height="19.235"></rect><rect x="36.044" y="72.87" width="21.431" height="19.234"></rect><rect x="106.511" y="72.87" width="21.432" height="19.234"></rect><rect x="106.511" y="106.4" width="21.432" height="19.233"></rect></g></svg>