<svg xmlns="http://www.w3.org/2000/svg" xmlns:xlink="http://www.w3.org/1999/xlink" width="100" height="100" viewBox="0 0 100 100"><g><g transform="translate(50 50) rotate(0) translate(-50 -50)" style="fill:#1A1A1A"><svg xmlns="http://www.w3.org/2000/svg" xmlns:xlink="http://www.w3.org/1999/xlink" fill="#1A1A1A" viewBox="0 0 100 100" version="1.1" xml:space="preserve" style="" x="0px" y="0px" fill-rule="evenodd" clip-rule="evenodd" stroke-linejoin="round" stroke-miterlimit="1.41421"><path d="M94,95.25L6,95.25C5.827,95.236 5.78,95.243 5.614,95.189C5.236,95.066 4.934,94.764 4.811,94.386C4.757,94.22 4.764,94.173 4.75,94L4.75,6C4.764,5.827 4.757,5.78 4.811,5.614C4.934,5.236 5.236,4.934 5.614,4.811C5.78,4.757 5.827,4.764 6,4.75L28,4.75C28.065,4.755 28.13,4.76 28.196,4.765C28.364,4.806 28.411,4.807 28.567,4.886C28.861,5.036 29.087,5.301 29.189,5.614C29.243,5.78 29.236,5.827 29.25,6L29.25,70.75L94,70.75L94.196,70.765C94.364,70.806 94.411,70.807 94.567,70.886C94.861,71.036 95.087,71.301 95.189,71.614C95.243,71.78 95.236,71.827 95.25,72L95.25,94C95.236,94.173 95.243,94.22 95.189,94.386C95.066,94.764 94.764,95.066 94.386,95.189C94.22,95.243 94.173,95.236 94,95.25ZM26.75,11.222L26.75,7.25L7.25,7.25C7.25,35.75 7.25,64.25 7.25,92.75L92.75,92.75L92.75,73.25L88.778,73.25L88.778,77.778L88.222,77.778L88.222,73.25L84.25,73.25L84.25,84.25L81.75,84.25L81.75,73.25L77.778,73.25L77.778,77.778L77.222,77.778L77.222,73.25L73.25,73.25L73.25,84.25L70.75,84.25L70.75,73.25L66.778,73.25L66.778,77.778L66.222,77.778L66.222,73.25L62.25,73.25L62.25,84.25L59.75,84.25L59.75,73.25L55.778,73.25L55.778,77.778L55.222,77.778L55.222,73.25L51.25,73.25L51.25,84.25L48.75,84.25L48.75,73.25L44.778,73.25L44.778,77.778L44.222,77.778L44.222,73.25L40.25,73.25L40.25,84.25L37.75,84.25L37.75,73.25L33.778,73.25L33.778,77.778L33.222,77.778L33.222,73.25L29.25,73.25L29.25,84.25L26.75,84.25L26.75,73.25L15.75,73.25L15.75,70.75L26.75,70.75L26.75,66.778L22.222,66.778L22.222,66.222L26.75,66.222L26.75,62.25L15.75,62.25L15.75,59.75L26.75,59.75L26.75,55.778L22.222,55.778L22.222,55.222L26.75,55.222L26.75,51.25L15.75,51.25L15.75,48.75L26.75,48.75L26.75,44.778L22.222,44.778L22.222,44.222L26.75,44.222L26.75,40.25L15.75,40.25L15.75,37.75L26.75,37.75L26.75,33.778L22.222,33.778L22.222,33.222L26.75,33.222L26.75,29.25L15.75,29.25L15.75,26.75L26.75,26.75L26.75,22.778L22.222,22.778L22.222,22.222L26.75,22.222L26.75,18.25L15.75,18.25L15.75,15.75L26.75,15.75L26.75,11.778L22.222,11.778L22.222,11.222L26.75,11.222Z" style="" fill="black"/></svg></g></g></svg>