<svg xmlns="http://www.w3.org/2000/svg" xmlns:xlink="http://www.w3.org/1999/xlink" version="1.1" x="0px" y="0px" viewBox="0 0 100 100" enable-background="new 0 0 100 100" xml:space="preserve"><path fill="#143F5B" d="M16.1,52.7c-5.7,0-10.3,4.6-10.3,10.3s4.6,10.3,10.3,10.3c5.7,0,10.3-4.6,10.3-10.3S21.8,52.7,16.1,52.7z M14.8,71.2  c-0.9-0.1-1.7-0.4-2.5-0.8l11.2-11.2c0.4,0.8,0.7,1.6,0.8,2.5L14.8,71.2z M17.5,54.8c0.8,0.1,1.6,0.4,2.4,0.8L8.7,66.7  C8.3,66,8,65.2,7.9,64.4L17.5,54.8z M15.5,54.7l-7.7,7.7C8.1,58.3,11.4,55,15.5,54.7z M9.5,68l11.6-11.6c0.6,0.4,1.1,0.9,1.5,1.5  L11,69.5C10.4,69.1,9.9,68.6,9.5,68z M16.9,71.2l7.5-7.5C24,67.7,20.8,70.9,16.9,71.2z M50.4,52.7c-5.7,0-10.3,4.6-10.3,10.3  s4.6,10.3,10.3,10.3S60.7,68.7,60.7,63S56.1,52.7,50.4,52.7z M50.4,71.3c-4.6,0-8.3-3.7-8.3-8.3c0-4.6,3.7-8.3,8.3-8.3  s8.3,3.7,8.3,8.3C58.7,67.6,54.9,71.3,50.4,71.3z M94.7,63c0,5.7-4.6,10.3-10.3,10.3c-5.7,0-10.3-4.6-10.3-10.3s4.6-10.3,10.3-10.3  C90.1,52.7,94.7,57.3,94.7,63z M16.1,27.2c-5.7,0-10.3,4.6-10.3,10.3c0,5.7,4.6,10.3,10.3,10.3c5.7,0,10.3-4.6,10.3-10.3  C26.4,31.8,21.8,27.2,16.1,27.2z M14.8,45.7c-0.9-0.1-1.7-0.4-2.5-0.8l11.2-11.2c0.4,0.8,0.7,1.6,0.8,2.5L14.8,45.7z M17.5,29.3  c0.8,0.1,1.6,0.4,2.4,0.8L8.7,41.3c-0.4-0.7-0.6-1.5-0.8-2.4L17.5,29.3z M15.5,29.2l-7.7,7.7C8.1,32.8,11.4,29.5,15.5,29.2z   M9.5,42.6l11.6-11.6c0.6,0.4,1.1,0.9,1.5,1.5L11,44.1C10.4,43.6,9.9,43.1,9.5,42.6z M16.9,45.8l7.5-7.5  C24,42.2,20.8,45.4,16.9,45.8z M50.4,27.2c-5.7,0-10.3,4.6-10.3,10.3c0,5.7,4.6,10.3,10.3,10.3s10.3-4.6,10.3-10.3  C60.7,31.8,56.1,27.2,50.4,27.2z M50.4,45.8c-4.6,0-8.3-3.7-8.3-8.3c0-4.6,3.7-8.3,8.3-8.3s8.3,3.7,8.3,8.3  C58.7,42.1,54.9,45.8,50.4,45.8z M74.1,37.5c0-5.7,4.6-10.3,10.3-10.3c5.7,0,10.3,4.6,10.3,10.3c0,5.7-4.6,10.3-10.3,10.3  C78.7,47.8,74.1,43.2,74.1,37.5z"></path></svg>