<?xml version="1.0" encoding="utf-8"?>
<!-- Generator: Adobe Illustrator 19.1.1, SVG Export Plug-In . SVG Version: 6.00 Build 0)  -->
<svg version="1.1" id="Layer_1" xmlns="http://www.w3.org/2000/svg" xmlns:xlink="http://www.w3.org/1999/xlink" x="0px" y="0px"
	 viewBox="180 -109.5 612 362.5" style="enable-background:new 180 -109.5 612 362.5;" xml:space="preserve">
<style type="text/css">
	.st0{fill:#15B994;}
	.st1{fill:#629FE8;}
	.st2{fill:#40BDC6;}
	.st3{fill:none;stroke:#05142A;stroke-width:16;stroke-miterlimit:10;}
	.st4{fill:#05142A;}
	.st5{fill:#0C4BA2;}
</style>
<path class="st0" d="M781.5,194c-184,0-368,0-552,0C258,130.2,286.5,66.3,315,2.5c33.8,14.7,67.7,29.3,101.5,44
	c49.6-47.9,99.2-95.7,148.8-143.6C608.2-50.2,651.1-3.3,694,43.6C723.2,93.7,752.3,143.9,781.5,194z"/>
<path class="st1" d="M822.5,177"/>
<path class="st0" d="M833.5,121"/>
<path class="st2" d="M156.5,194"/>
<line class="st3" x1="204.5" y1="-97.1" x2="204.5" y2="230"/>
<line class="st3" x1="783.5" y1="222" x2="203.5" y2="222"/>
<path class="st4" d="M588-1.5"/>
<path class="st5" d="M781.5,195c-184,0-368,0-552,0c29-26,58-51.9,87-77.9c36.3,4.4,72.6,8.8,108.9,13.2
	C472,95.5,518.6,60.8,565.3,26c42.9,27.2,85.8,54.5,128.7,81.7C723.2,136.8,752.3,165.9,781.5,195z"/>
<path class="st4" d="M330.5,155.5"/>
</svg>
