<svg xmlns="http://www.w3.org/2000/svg" xmlns:xlink="http://www.w3.org/1999/xlink" version="1.1" x="0px" y="0px" viewBox="0 0 20 20" xml:space="preserve"><g transform="translate(-330 -2120)" fill="#143F5B"><g xmlns="http://www.w3.org/2000/svg" xmlns:xlink="http://www.w3.org/1999/xlink"><polygon points="331.222,2122.637 335.465,2126.879 333.344,2129 339,2129 339,2123.344 336.879,2125.465 332.636,2121.223   "></polygon><polygon points="348.778,2137.365 344.535,2133.121 346.657,2131 341,2131 341,2136.658 343.121,2134.535 347.364,2138.779   "></polygon><polygon points="332.637,2138.779 336.879,2134.535 339,2136.656 339,2131 333.344,2131 335.465,2133.121 331.222,2137.365   "></polygon><polygon points="347.364,2121.223 343.121,2125.465 341,2123.344 341,2129 346.657,2129 344.535,2126.879 348.778,2122.637   "></polygon></g></g></svg>