<svg fill="#143F5B" xmlns="http://www.w3.org/2000/svg" xmlns:xlink="http://www.w3.org/1999/xlink" viewBox="0 0 60 57" version="1.1" x="0px" y="0px"><title>3D GUI - Outline - 060 - Move from Orgin</title><desc>Created with Sketch.</desc><g stroke="none" stroke-width="1" fill="none" fill-rule="evenodd"><g fill-rule="nonzero" fill="#143F5B"><path d="M56.0332,45.86035 C55.86496,45.5257671 55.5238925,45.3132131 55.14941,45.30957 C54.7714224,45.2934478 54.4199546,45.5033313 54.25488,45.84375 L52.3916,49.37891 L36.96606,41.24158 C36.9872315,41.1627487 36.9986304,41.0816133 37,41 L37,34 C36.9986724,33.9010696 36.9825437,33.8028952 36.95215,33.70874 C36.94483,33.68518 36.93384,33.66443 36.92505,33.64148 C36.8904642,33.5523728 36.843226,33.4687107 36.78479,33.39307 C36.77002,33.37407 36.75891,33.35419 36.74279,33.33619 C36.6796825,33.2637984 36.6064578,33.2008933 36.52538,33.14942 C36.50878,33.13911 36.4901,33.13483 36.47313,33.12562 C36.46313,33.12025 36.45751,33.11054 36.44725,33.10548 L31,30.38184 L31,9 L35,9 C35.3747391,9.00044544 35.7182232,8.79117165 35.8896709,8.45795206 C36.0611187,8.12473247 36.0317029,7.7235947 35.81348,7.41895 L30.81348,0.41895 C30.6168711,0.170068005 30.3171508,0.0248793811 29.99998,0.0248793811 C29.6828092,0.0248793811 29.3830889,0.170068005 29.18648,0.41895 L24.18648,7.41895 C23.9682529,7.72360055 23.9388405,8.12474731 24.1102982,8.45796988 C24.2817559,8.79119245 24.6252537,9.00046046 25,9 L29,9 L29,30.38184 L23.55273,33.10547 C23.5426,33.11054 23.53686,33.12018 23.52697,33.12555 C23.50997,33.13483 23.4912,33.1391 23.4746,33.14941 C23.3935529,33.2008291 23.3203658,33.2636961 23.25731,33.33606 C23.2412,33.35419 23.22972,33.37421 23.21507,33.39331 C23.1566923,33.4687476 23.1095712,33.5522579 23.07518,33.64123 C23.06618,33.66436 23.05518,33.68523 23.04784,33.70892 C23.0173909,33.8029997 23.0012639,33.9011237 23,34 L23,41 C23.0013696,41.0816133 23.0127685,41.1627487 23.03394,41.24158 L7.6084,49.37891 L5.74512,45.84375 C5.57240971,45.5150788 5.23163631,45.3093368 4.86035,45.30957 L4.85059,45.30957 C4.4761075,45.3132131 4.13504002,45.5257671 3.9668,45.86035 L0.10645,53.541 C-0.0384759484,53.8296804 -0.0351399531,54.1705651 0.115407913,54.4563539 C0.26595578,54.7421427 0.54519897,54.937685 0.86524,54.98143 L9.38477,56.1416 C9.42945568,56.1474444 9.47447375,56.1503806 9.51954,56.15039 C9.86983612,56.1503865 10.1945892,55.9670786 10.3756085,55.6671796 C10.5566277,55.3672806 10.5675157,54.9945236 10.40431,54.68457 L8.541,51.14844 L24.85228,42.54431 L29.55272,44.89453 C29.56139,44.89886 29.57152,44.89691 29.58031,44.901 C29.84457,45.0329994 30.15553,45.0329994 30.41979,44.901 C30.42846,44.897 30.43859,44.89886 30.44726,44.89453 L35.1477,42.54431 L51.459,51.14844 L49.5957,54.68457 C49.4324943,54.9945236 49.4433823,55.3672806 49.6244015,55.6671796 C49.8054208,55.9670786 50.1301739,56.1503865 50.48047,56.15039 C50.5255363,56.1503806 50.5705543,56.1474444 50.61524,56.1416 L59.13477,54.98144 C59.454811,54.937695 59.7340542,54.7421527 59.8846021,54.4563639 C60.03515,54.1705751 60.0384859,53.8296904 59.89356,53.54101 L56.0332,45.86035 Z M2.52246,53.18848 L4.88184,48.49414 L6.30469,51.19434 L6.30569,51.19634 L7.72854,53.89751 L2.52246,53.18848 Z M30,32.11816 L33.76367,34 L30,35.88184 L26.23633,34 L30,32.11816 Z M25,40.38183 L25,35.61816 L29,37.61816 L29,42.38183 L25,40.38183 Z M31,38 L31,37.61816 L35,35.61816 L35,40.38183 L31,42.38183 L31,38 Z M26.94336,7 L30,2.7207 L33.05664,7 L26.94336,7 Z M52.27148,53.89746 L53.69433,51.19629 L53.69533,51.19429 L55.11818,48.49409 L57.47756,53.18843 L52.27148,53.89746 Z"></path></g></g></svg>