<?xml version="1.0" encoding="utf-8"?>
<!-- Generator: Adobe Illustrator 19.1.1, SVG Export Plug-In . SVG Version: 6.00 Build 0)  -->
<svg version="1.1" id="Layer_1" xmlns="http://www.w3.org/2000/svg" xmlns:xlink="http://www.w3.org/1999/xlink" x="0px" y="0px"
	 viewBox="416 -616 1792 1792" style="enable-background:new 416 -616 1792 1792;" xml:space="preserve">
<path d="M2208,824c0,9.3-3,17-9,23l-320,320c-6,6-13.7,9-23,9c-8.7,0-16.2-3.2-22.5-9.5c-6.3-6.3-9.5-13.8-9.5-22.5V952H448
	c-8.7,0-16.2-3.2-22.5-9.5S416,928.7,416,920V728c0-8.7,3.2-16.2,9.5-22.5s13.8-9.5,22.5-9.5h1376V504c0-9.3,3-17,9-23s13.7-9,23-9
	c8,0,16,3.3,24,10l319,319C2205,807,2208,814.7,2208,824z"/>
<path d="M768-616c9.3,0,17,3,23,9l320,320c6,6,9,13.7,9,23c0,8.7-3.2,16.2-9.5,22.5c-6.3,6.3-13.8,9.5-22.5,9.5H896v1376
	c0,8.7-3.2,16.2-9.5,22.5s-13.8,9.5-22.5,9.5H672c-8.7,0-16.2-3.2-22.5-9.5s-9.5-13.8-9.5-22.5V-232H448c-9.3,0-17-3-23-9
	s-9-13.7-9-23c0-8,3.3-16,10-24l319-319C751-613,758.7-616,768-616z"/>
<rect x="1258.7" y="-185.9" transform="matrix(0.6142 0.7892 -0.7892 0.6142 600.3301 -1419.6493)" width="986.6" height="180"/>
<rect x="1258.7" y="-185.9" transform="matrix(0.6176 -0.7865 0.7865 0.6176 745.2921 1341.2179)" width="986.6" height="180"/>
</svg>
