<svg xmlns:dc="http://purl.org/dc/elements/1.1/" xmlns:cc="http://creativecommons.org/ns#" xmlns:rdf="http://www.w3.org/1999/02/22-rdf-syntax-ns#" xmlns:svg="http://www.w3.org/2000/svg" xmlns="http://www.w3.org/2000/svg" xmlns:sodipodi="http://sodipodi.sourceforge.net/DTD/sodipodi-0.dtd" xmlns:inkscape="http://www.inkscape.org/namespaces/inkscape" version="1.1" x="0px" y="0px" viewBox="0 0 16 16" style="enable-background:new 0 0 16 16;" xml:space="preserve"><style type="text/css">
	.st0{fill:none;stroke:#231F20;stroke-miterlimit:10;}
	.st1{fill:none;stroke:#231F20;stroke-linecap:round;stroke-linejoin:round;stroke-miterlimit:10;}
	.st2{fill:#231F20;}
</style><path style="" d="m 4.597,14.712958 2.92,-2.345896 c 0.253,-0.202374 0.713,-0.202374 0.965,0 l 2.922,2.345896 C 11.639,14.902943 11.888,15 12.124,15 c 0.127,0 0.249,-0.02891 0.363,-0.0857 C 12.813,14.749097 13,14.381518 13,13.906557 L 13,2.5487868 C 13,1.694889 12.327,1 11.5,1 l -7,0 C 3.673,1 3,1.694889 3,2.5487868 L 3,13.906557 c 0,0.474961 0.187,0.841507 0.512,1.006711 0.324,0.164171 0.72,0.09086 1.085,-0.20031 z M 4,2.5487868 C 4,2.26381 4.224,2.0325245 4.5,2.0325245 l 7,0 c 0.275,0 0.5,0.2312855 0.5,0.5162623 L 12,13.883841 9.096,11.551368 c -0.613,-0.492514 -1.577,-0.492514 -2.192,0 L 4,13.883841 4,2.5487868 Z" class="st2" fill="#000000" stroke="none"></path></svg>