<svg xmlns:dc="http://purl.org/dc/elements/1.1/" xmlns:cc="http://creativecommons.org/ns#" xmlns:rdf="http://www.w3.org/1999/02/22-rdf-syntax-ns#" xmlns:svg="http://www.w3.org/2000/svg" xmlns="http://www.w3.org/2000/svg" xmlns:sodipodi="http://sodipodi.sourceforge.net/DTD/sodipodi-0.dtd" xmlns:inkscape="http://www.inkscape.org/namespaces/inkscape" fill="#000000" version="1.1" x="0px" y="0px" viewBox="0 0 100 100"><path style="font-size:medium;font-style:normal;font-variant:normal;font-weight:normal;font-stretch:normal;text-indent:0;text-align:start;text-decoration:none;line-height:normal;letter-spacing:normal;word-spacing:normal;text-transform:none;direction:ltr;block-progression:tb;writing-mode:lr-tb;text-anchor:start;baseline-shift:baseline;opacity:1;color:#000000;fill:#000000;fill-opacity:1;stroke:none;stroke-width:3.99999951999999980;marker:none;visibility:visible;display:inline;overflow:visible;enable-background:accumulate;font-family:Sans;-inkscape-font-specification:Sans" d="M 26 15 C 23.903585 15 21.538161 15.52014 19.53125 16.9375 C 17.524339 18.35486 16 20.834919 16 24 L 16 40 C 16 42.985194 15.106122 44.495174 13.6875 45.65625 C 12.268878 46.817326 10.114184 47.539023 7.625 48.03125 A 2.0001998 2.0001998 0 0 0 7.625 51.96875 C 10.114184 52.460977 12.268878 53.182674 13.6875 54.34375 C 15.106122 55.504826 16 57.014806 16 60 L 16 76 C 16 79.165081 17.524339 81.64514 19.53125 83.0625 C 21.538161 84.47986 23.903585 85 26 85 A 2.0001998 2.0001998 0 1 0 26 81 C 24.603095 81 22.963509 80.603318 21.84375 79.8125 C 20.723991 79.021682 20 78.002207 20 76 L 20 60 C 20 56.095552 18.518878 53.106971 16.25 51.25 C 15.570141 50.693567 14.76213 50.390378 14 50 C 14.76213 49.609622 15.570141 49.306433 16.25 48.75 C 18.518878 46.893029 20 43.904448 20 40 L 20 24 C 20 21.997793 20.723991 20.978318 21.84375 20.1875 C 22.963509 19.396682 24.603095 19 26 19 A 2.0001998 2.0001998 0 1 0 26 15 z M 73.8125 15 A 2.0021961 2.0021961 0 1 0 74 19 C 75.396905 19 77.036491 19.396682 78.15625 20.1875 C 79.276009 20.978318 80 21.997793 80 24 L 80 40 C 80 43.904448 81.481122 46.893029 83.75 48.75 C 84.429859 49.306433 85.23787 49.609622 86 50 C 85.23787 50.390378 84.429859 50.693567 83.75 51.25 C 81.481122 53.106971 80 56.095552 80 60 L 80 76 C 80 78.002207 79.276009 79.021682 78.15625 79.8125 C 77.036491 80.603318 75.396905 81 74 81 A 2.0001998 2.0001998 0 1 0 74 85 C 76.096415 85 78.461839 84.47986 80.46875 83.0625 C 82.475661 81.64514 84 79.165081 84 76 L 84 60 C 84 57.014806 84.893878 55.504826 86.3125 54.34375 C 87.731122 53.182674 89.885816 52.460977 92.375 51.96875 A 2.0001998 2.0001998 0 0 0 92.375 48.03125 C 89.885816 47.539023 87.731122 46.817326 86.3125 45.65625 C 84.893878 44.495174 84 42.985194 84 40 L 84 24 C 84 20.834919 82.475661 18.35486 80.46875 16.9375 C 78.461839 15.52014 76.096415 15 74 15 A 2.0001998 2.0001998 0 0 0 73.8125 15 z "></path></svg>