<svg xmlns="http://www.w3.org/2000/svg" xmlns:xlink="http://www.w3.org/1999/xlink" version="1.1" x="0px" y="0px" viewBox="0 0 100 100" style="enable-background:new 0 0 100 100;" xml:space="preserve"><title>95all</title><path d="M89.4,11H10.5c-2.5,0-4.6,2.1-4.6,4.6s2.1,4.6,4.6,4.6h79.1c2.5,0,4.6-2.1,4.6-4.6S92.1,11,89.4,11z" fill="#143F5B"/><path d="M89.4,33.9H38c-2.5,0-4.6,2.1-4.6,4.6s2.1,4.6,4.6,4.6h51.6c2.5,0,4.6-2.1,4.6-4.6S92.1,33.9,89.4,33.9z" fill="#2c9e76"/><path d="M89.4,56.9H10.5c-2.5,0-4.6,2.1-4.6,4.6s2.1,4.6,4.6,4.6h79.1c2.5,0,4.6-2.1,4.6-4.6S92.1,56.9,89.4,56.9z" fill="#143F5B"/><path d="M89.4,79.8H38c-2.5,0-4.6,2.1-4.6,4.6c0,2.5,2.1,4.6,4.6,4.6h51.6c2.5,0,4.6-2.1,4.6-4.6C94.2,81.9,92.1,79.8,89.4,79.8z" fill="#2c9e76"/></svg>