<?xml version="1.0" encoding="utf-8"?>
<!-- Generator: Adobe Illustrator 19.1.1, SVG Export Plug-In . SVG Version: 6.00 Build 0)  -->
<svg version="1.1" id="Layer_1" xmlns="http://www.w3.org/2000/svg" xmlns:xlink="http://www.w3.org/1999/xlink" x="0px" y="0px"
	 viewBox="296 -267 612 573" style="enable-background:new 296 -267 612 573;" xml:space="preserve">
<style type="text/css">
	.st0{clip-path:url(#SVGID_2_);fill:#1C3A4C;}
	.st1{clip-path:url(#SVGID_4_);fill:#0C4BA2;}
	.st2{clip-path:url(#SVGID_6_);fill:#15B994;}
	.st3{clip-path:url(#SVGID_8_);fill:#05142A;}
	.st4{clip-path:url(#SVGID_10_);fill:#5BE8C3;}
	.st5{fill:#FFFFFF;}
	.st6{fill:#05142A;}
	.st7{fill:#0C4BA2;}
	.st8{fill:#1C3A4C;}
	.st9{fill:#5BE8C3;}
	.st10{fill:#15B994;}
</style>
<g>
	<g>
		<defs>
			<polygon id="SVGID_1_" points="119.7,19.5 360.8,-398.2 602,19.5 			"/>
		</defs>
		<clipPath id="SVGID_2_">
			<use xlink:href="#SVGID_1_"  style="overflow:visible;"/>
		</clipPath>
		<path class="st0" d="M604.6-224.7c-144.2,0-261.2,114.3-261.2,255.2c0,141,116.9,255.2,261.2,255.2
			c144.2,0,261.2-114.3,261.2-255.2C865.7-110.4,748.8-224.7,604.6-224.7z M602,182.5c-83.9,0-152-68.1-152-152
			c0-3.5,0.1-7,0.4-10.5c-2.9-1.7-3.1-6.3-0.6-8.4c-1.2-1.5-1.4-3.6-0.8-5.3c-0.4-1-0.5-2.1-0.2-3.2c-0.6-2.8,1-6.2,4.7-6.2
			c0.1,0,0.2,0,0.2,0C469-70.8,529.6-121.5,602-121.5c83.9,0,152,68.1,152,152S685.9,182.5,602,182.5z"/>
	</g>
</g>
<g>
	<g>
		<defs>
			<polygon id="SVGID_3_" points="593.2,32 340.8,-379 823,-392.1 			"/>
		</defs>
		<clipPath id="SVGID_4_">
			<use xlink:href="#SVGID_3_"  style="overflow:visible;"/>
		</clipPath>
		<path class="st1" d="M602-223.2c144.2,0,261.2,114.3,261.2,255.2c0,141-116.9,255.2-261.2,255.2C457.8,287.2,340.8,173,340.8,32
			C340.8-108.9,457.8-223.2,602-223.2z M599.4-120c-83.9,0-152,68.1-152,152s68.1,152,152,152s152-68.1,152-152S683.4-120,599.4-120
			z"/>
	</g>
</g>
<g>
	<g>
		<defs>
			<polygon id="SVGID_5_" points="1035.4,185.7 589.2,38.3 1220.8,-1125.3 			"/>
		</defs>
		<clipPath id="SVGID_6_">
			<use xlink:href="#SVGID_5_"  style="overflow:visible;"/>
		</clipPath>
		<path class="st2" d="M604-222.2c144.2,0,261.2,114.3,261.2,255.2c0,141-116.9,255.2-261.2,255.2C459.8,288.2,342.8,174,342.8,33
			C342.8-107.9,459.8-222.2,604-222.2z M601.4-119c-83.9,0-152,68.1-152,152s68.1,152,152,152s152-68.1,152-152S685.4-119,601.4-119
			z"/>
	</g>
</g>
<g>
	<g>
		<defs>
			<polygon id="SVGID_7_" points="1052.6,189.9 280.7,390.5 599.6,32 			"/>
		</defs>
		<clipPath id="SVGID_8_">
			<use xlink:href="#SVGID_7_"  style="overflow:visible;"/>
		</clipPath>
		<path class="st3" d="M604.5-223.2c-144.2,0-261.2,114.3-261.2,255.2c0,141,116.9,255.2,261.2,255.2
			C748.7,287.2,865.6,173,865.6,32C865.6-108.9,748.7-223.2,604.5-223.2z M601.9,184c-36.7,0-70.4-13.1-96.7-34.8
			c-0.3-0.1-0.5-0.3-0.7-0.5c-0.5-0.3-0.9-0.6-1.2-1c-0.6-0.3-1.1-0.7-1.5-1.2c-0.1-0.1-0.2-0.1-0.2-0.2c-0.1-0.1-0.2-0.2-0.3-0.3
			c-0.2-0.1-0.5-0.2-0.7-0.4c-0.5,0.2-1.1,0.3-1.7,0.3c-4,0-5.5-3.8-4.6-6.7c-27.4-27.5-44.4-65.4-44.4-107.3
			c0-83.9,68.1-152,152-152s152,68.1,152,152S685.8,184,601.9,184z"/>
	</g>
</g>
<g>
	<g>
		<defs>
			<polygon id="SVGID_9_" points="607,33.6 103.1,565.4 -105.6,-136.9 			"/>
		</defs>
		<clipPath id="SVGID_10_">
			<use xlink:href="#SVGID_9_"  style="overflow:visible;"/>
		</clipPath>
		<path class="st4" d="M604-223.2c144.2,0,261.2,114.3,261.2,255.2c0,141-116.9,255.2-261.2,255.2C459.8,287.2,342.8,173,342.8,32
			C342.8-108.9,459.8-223.2,604-223.2z M601.4-120c-83.9,0-152,68.1-152,152s68.1,152,152,152c83.9,0,152-68.1,152-152
			C753.4-51.9,685.4-120,601.4-120z"/>
	</g>
</g>
<ellipse class="st5" cx="605" cy="30.5" rx="237.6" ry="232.2"/>
<path class="st6" d="M549,4"/>
<path class="st7" d="M507,242c-8-3-16.8-7-26-12c-14.3-7.8-25.9-16.3-35-24c18.6-20.7,63.7-76.7,75-162
	c14.1-106.9-34.8-186.2-48.5-206.9c8.3-6.2,18.7-13,31.5-19.1c17-8.2,32.7-12.6,45-15c14.3,45.4,32.6,123.2,24,220
	C564,123.8,530,199.7,507,242z"/>
<path class="st7" d="M966,12"/>
<path class="st8" d="M672,254c-18.2,5.1-45.2,10.5-78,9c-38.2-1.7-68.3-11.9-87-20c4.4-4.3,72.7-73.2,51-146
	c-10.6-35.5-38-56.6-58-72c-50.1-38.7-103.7-46.2-129-48c7.7-30.7,15.3-61.3,23-92c38.3,13.6,100.6,41.8,158,100
	C653.9,88.5,668.9,214.5,672,254z"/>
<path class="st8" d="M502,232"/>
<path class="st9" d="M747,215c-9.7,7.9-22.7,17-39,25c-13.7,6.7-26.3,11.1-37,14c7.3-6.2,53.3-46.7,54-113
	c0.7-64.6-42.1-104.8-53-115c-58.5-54.9-133.8-46.2-143-45c-66.5,8.8-123.4,56.1-149,122c-5.6-8.1-37.1-55-20-102
	c2.4-6.6,6.1-14.2,12-22C489.6-74,619.6-50.6,691,31C753.2,102.1,748.8,192.1,747,215z"/>
<path class="st10" d="M705.3-180c17.2,8.4,25.7,12.6,25.7,12.6c0,0-0.4-0.2-1.1-0.5c-77.4,26.1-125.6,94.6-120,156
	c7.2,79.8,105.9,154.4,218,125c-5.9,15.3-15.7,35.7-32,57c-17.8,23.3-36.9,39.1-51,49C618.5,128.3,570-6.1,612-95
	C619.8-111.5,642.5-151.3,705.3-180z"/>
<path class="st7" d="M547-197c11.1-4.2,27.2-8.8,47-10c22.9-1.4,41.7,2.5,54,6c-0.9,11.8-6.8,111.1,70,178
	c49.7,43.3,106.2,49,126,50c0,10.7-0.7,23.2-3,37c-3.1,18.7-8.1,34.4-13.1,46.8C791.8,76.7,755.1,40.1,718,1
	C654-66.5,597.2-133.1,547-197z"/>
</svg>
