<svg width="36" height="36" viewBox="0 0 36 36" fill="none" xmlns="http://www.w3.org/2000/svg">
<g clip-path="url(#clip0)">
<g filter="url(#filter0_d)">
<path fill-rule="evenodd" clip-rule="evenodd" d="M16.3423 13.658C16.3774 13.6511 16.7437 13.699 16.7788 13.6106C16.8141 13.5226 16.5042 13.3258 16.5393 13.305C16.5745 13.2849 16.5885 13.0678 16.6447 13.0678C16.7012 13.0678 17.2155 13.0814 17.2435 13.0678C17.2717 13.0542 17.3703 12.8779 17.4548 12.8712C17.4934 12.8681 17.5537 12.9134 17.6082 12.9632C17.703 12.8785 17.7366 12.688 17.7546 12.5332C17.7763 12.3437 17.7107 12.2804 17.8129 12.1751C17.9151 12.0695 18.0244 12.0626 17.9952 11.9148C17.966 11.7674 17.8274 11.9148 17.7107 11.8447C17.594 11.7744 17.4919 11.8238 17.1926 11.8658C16.8935 11.9077 16.7549 12.0274 16.7694 12.2308C16.784 12.4349 16.6674 12.3436 16.6747 12.519C16.6818 12.6947 16.4412 12.7018 16.4557 12.8074C16.4703 12.9127 16.2659 12.8074 16.2076 12.772C16.1493 12.7368 15.5217 12.9198 15.4343 12.9334C15.3467 12.9475 15.186 12.758 15.0622 12.7652C14.9382 12.772 14.8871 12.5895 14.8725 12.4417C14.8578 12.2942 14.6244 12.1606 14.5222 12.0273C14.42 11.8937 14.4055 11.5983 14.3982 11.4086C14.3908 11.2191 14.3689 10.8958 14.5077 10.5236C14.5263 10.4736 14.5349 10.4301 14.5371 10.3913C14.4866 10.3612 14.4374 10.3398 14.4002 10.3419C14.2755 10.3496 13.9948 10.1843 13.9402 10.1843C13.8858 10.1843 13.8935 10.0568 13.8468 9.98926C13.8 9.92145 13.8311 9.79381 13.7688 9.74888C13.7064 9.70408 13.5195 9.53137 13.4571 9.32103C13.3947 9.1107 13.0126 9.0058 12.8724 8.99849C12.7322 8.99077 12.6541 9.27623 12.6151 9.29085C12.5763 9.30601 12.3111 9.14101 12.2333 9.10339C12.1552 9.06589 12.1163 8.99077 12.1163 8.90076C12.1163 8.81049 11.9526 8.66796 11.9058 8.65321C11.859 8.63791 11.5316 8.33012 11.5316 8.33012H11.017L10.908 8.46493L9.97256 8.47278C9.97256 8.47278 9.25544 8.21751 9.1229 8.18773C8.9905 8.15782 8.75647 8 8.75647 8L8 8.09556C8.03879 8.17555 8.09291 8.26218 8.17401 8.35949C8.32735 8.54222 8.43671 8.86517 8.45146 8.97764C8.46594 9.08999 8.67762 9.18148 8.86006 9.2941C9.0425 9.40603 9.0425 9.65224 9.02057 9.71531C8.99865 9.77852 8.77249 9.67322 8.75802 9.73643C8.7434 9.79963 9.04981 10.0454 9.16661 10.0318C9.28341 10.0176 9.34174 10.0878 9.52404 10.2425C9.70649 10.3971 9.69201 10.5797 9.61892 10.6358C9.54597 10.6921 9.76482 10.8115 9.99842 10.9591C10.2317 11.1067 10.3266 11.2893 10.3485 11.3666C10.3703 11.4439 10.4725 11.3738 10.5092 11.2682C10.5456 11.1629 10.4362 11.1347 10.4362 11.0152C10.4362 10.8958 10.2464 10.9167 10.1588 10.903C10.0712 10.8888 10.1661 10.7061 10.0787 10.6219C9.99097 10.5374 9.91085 10.3267 9.867 10.1723C9.82329 10.0176 9.59713 9.86325 9.50226 9.69474C9.40752 9.52568 9.30534 9.3925 9.23956 9.35013C9.17392 9.30804 9.33429 9.24483 9.27596 9.18162C9.21763 9.11841 9.12993 9.12545 9.02057 9.07618C8.91108 9.02705 8.83813 8.94286 8.83813 8.83038C8.83813 8.71777 8.76504 8.45099 8.72878 8.35963C8.69224 8.26827 8.80904 8.28248 8.84544 8.3243C8.88199 8.36653 8.91108 8.40876 8.96224 8.38074C9.01327 8.35259 9.10083 8.37344 9.13738 8.45099C9.17378 8.52814 9.29789 8.45789 9.35622 8.49322C9.41455 8.52828 9.2248 8.57051 9.41455 8.89359C9.6043 9.21695 9.47302 9.03409 9.47302 9.252C9.47302 9.46978 9.58982 9.37152 9.62623 9.33619C9.66263 9.301 9.76482 9.4063 9.85969 9.51905C9.95457 9.63166 10.1369 9.6383 10.1369 9.7015C10.1369 9.76498 10.1734 9.89154 10.2975 9.91252C10.4215 9.9335 10.4434 10.0671 10.5237 10.0812C10.6039 10.0952 10.6186 10.1797 10.5747 10.2707C10.531 10.3623 10.5747 10.4394 10.7791 10.5167C10.9834 10.594 10.8886 10.6081 11.0491 10.7556C11.2096 10.9033 11.6619 11.3808 11.7568 11.5144C11.8516 11.6479 11.8809 11.7603 11.9173 11.8585C11.9538 11.957 11.8443 12.0063 11.9027 12.0906C11.961 12.1751 11.7932 12.1399 11.8005 12.2029C11.8078 12.2664 11.9027 12.5826 12.0632 12.5965C12.2237 12.6106 12.406 12.8001 12.5374 12.9057C12.6688 13.011 12.8658 12.9899 13.0628 13.0603C13.2599 13.1304 13.4276 13.2991 13.7122 13.3766C13.9967 13.4539 14.2741 13.5732 14.4564 13.6856C14.6387 13.7979 14.865 13.7491 15.1204 13.6505C15.3758 13.552 15.5727 13.6784 15.7186 13.7347C15.7906 13.7625 15.9317 13.8789 16.0728 14C16.202 13.822 16.3258 13.6614 16.3423 13.658Z" fill="#40A0FF"/>
<path fill-rule="evenodd" clip-rule="evenodd" d="M16.3423 13.658C16.3774 13.6511 16.7437 13.699 16.7788 13.6106C16.8141 13.5226 16.5042 13.3258 16.5393 13.305C16.5745 13.2849 16.5885 13.0678 16.6447 13.0678C16.7012 13.0678 17.2155 13.0814 17.2435 13.0678C17.2717 13.0542 17.3703 12.8779 17.4548 12.8712C17.4934 12.8681 17.5537 12.9134 17.6082 12.9632C17.703 12.8785 17.7366 12.688 17.7546 12.5332C17.7763 12.3437 17.7107 12.2804 17.8129 12.1751C17.9151 12.0695 18.0244 12.0626 17.9952 11.9148C17.966 11.7674 17.8274 11.9148 17.7107 11.8447C17.594 11.7744 17.4919 11.8238 17.1926 11.8658C16.8935 11.9077 16.7549 12.0274 16.7694 12.2308C16.784 12.4349 16.6674 12.3436 16.6747 12.519C16.6818 12.6947 16.4412 12.7018 16.4557 12.8074C16.4703 12.9127 16.2659 12.8074 16.2076 12.772C16.1493 12.7368 15.5217 12.9198 15.4343 12.9334C15.3467 12.9475 15.186 12.758 15.0622 12.7652C14.9382 12.772 14.8871 12.5895 14.8725 12.4417C14.8578 12.2942 14.6244 12.1606 14.5222 12.0273C14.42 11.8937 14.4055 11.5983 14.3982 11.4086C14.3908 11.2191 14.3689 10.8958 14.5077 10.5236C14.5263 10.4736 14.5349 10.4301 14.5371 10.3913C14.4866 10.3612 14.4374 10.3398 14.4002 10.3419C14.2755 10.3496 13.9948 10.1843 13.9402 10.1843C13.8858 10.1843 13.8935 10.0568 13.8468 9.98926C13.8 9.92145 13.8311 9.79381 13.7688 9.74888C13.7064 9.70408 13.5195 9.53137 13.4571 9.32103C13.3947 9.1107 13.0126 9.0058 12.8724 8.99849C12.7322 8.99077 12.6541 9.27623 12.6151 9.29085C12.5763 9.30601 12.3111 9.14101 12.2333 9.10339C12.1552 9.06589 12.1163 8.99077 12.1163 8.90076C12.1163 8.81049 11.9526 8.66796 11.9058 8.65321C11.859 8.63791 11.5316 8.33012 11.5316 8.33012H11.017L10.908 8.46493L9.97256 8.47278C9.97256 8.47278 9.25544 8.21751 9.1229 8.18773C8.9905 8.15782 8.75647 8 8.75647 8L8 8.09556C8.03879 8.17555 8.09291 8.26218 8.17401 8.35949C8.32735 8.54222 8.43671 8.86517 8.45146 8.97764C8.46594 9.08999 8.67762 9.18148 8.86006 9.2941C9.0425 9.40603 9.0425 9.65224 9.02057 9.71531C8.99865 9.77852 8.77249 9.67322 8.75802 9.73643C8.7434 9.79963 9.04981 10.0454 9.16661 10.0318C9.28341 10.0176 9.34174 10.0878 9.52404 10.2425C9.70649 10.3971 9.69201 10.5797 9.61892 10.6358C9.54597 10.6921 9.76482 10.8115 9.99842 10.9591C10.2317 11.1067 10.3266 11.2893 10.3485 11.3666C10.3703 11.4439 10.4725 11.3738 10.5092 11.2682C10.5456 11.1629 10.4362 11.1347 10.4362 11.0152C10.4362 10.8958 10.2464 10.9167 10.1588 10.903C10.0712 10.8888 10.1661 10.7061 10.0787 10.6219C9.99097 10.5374 9.91085 10.3267 9.867 10.1723C9.82329 10.0176 9.59713 9.86325 9.50226 9.69474C9.40752 9.52568 9.30534 9.3925 9.23956 9.35013C9.17392 9.30804 9.33429 9.24483 9.27596 9.18162C9.21763 9.11841 9.12993 9.12545 9.02057 9.07618C8.91108 9.02705 8.83813 8.94286 8.83813 8.83038C8.83813 8.71777 8.76504 8.45099 8.72878 8.35963C8.69224 8.26827 8.80904 8.28248 8.84544 8.3243C8.88199 8.36653 8.91108 8.40876 8.96224 8.38074C9.01327 8.35259 9.10083 8.37344 9.13738 8.45099C9.17378 8.52814 9.29789 8.45789 9.35622 8.49322C9.41455 8.52828 9.2248 8.57051 9.41455 8.89359C9.6043 9.21695 9.47302 9.03409 9.47302 9.252C9.47302 9.46978 9.58982 9.37152 9.62623 9.33619C9.66263 9.301 9.76482 9.4063 9.85969 9.51905C9.95457 9.63166 10.1369 9.6383 10.1369 9.7015C10.1369 9.76498 10.1734 9.89154 10.2975 9.91252C10.4215 9.9335 10.4434 10.0671 10.5237 10.0812C10.6039 10.0952 10.6186 10.1797 10.5747 10.2707C10.531 10.3623 10.5747 10.4394 10.7791 10.5167C10.9834 10.594 10.8886 10.6081 11.0491 10.7556C11.2096 10.9033 11.6619 11.3808 11.7568 11.5144C11.8516 11.6479 11.8809 11.7603 11.9173 11.8585C11.9538 11.957 11.8443 12.0063 11.9027 12.0906C11.961 12.1751 11.7932 12.1399 11.8005 12.2029C11.8078 12.2664 11.9027 12.5826 12.0632 12.5965C12.2237 12.6106 12.406 12.8001 12.5374 12.9057C12.6688 13.011 12.8658 12.9899 13.0628 13.0603C13.2599 13.1304 13.4276 13.2991 13.7122 13.3766C13.9967 13.4539 14.2741 13.5732 14.4564 13.6856C14.6387 13.7979 14.865 13.7491 15.1204 13.6505C15.3758 13.552 15.5727 13.6784 15.7186 13.7347C15.7906 13.7625 15.9317 13.8789 16.0728 14C16.202 13.822 16.3258 13.6614 16.3423 13.658Z" stroke="white"/>
</g>
<g filter="url(#filter1_d)">
<path fill-rule="evenodd" clip-rule="evenodd" d="M25.3847 26.8516C25.5733 26.7097 25.5262 26.6249 25.6135 26.4549C25.7012 26.2847 25.6271 26.214 25.7753 26.0651C25.9235 25.9164 25.7484 25.8172 25.9368 25.7251C26.1256 25.6329 26.0986 25.8102 25.9437 26.0155C25.7888 26.2213 25.7619 26.2778 25.9638 26.1219C26.1658 25.966 26.2398 25.7462 26.3544 25.4982C26.4688 25.2502 26.5565 25.1724 26.6574 25.158C26.7582 25.144 26.7582 24.8819 26.7448 24.6978C26.7313 24.5132 26.6775 24.3433 26.7514 24.2227C26.8255 24.1023 26.7514 23.9892 26.8459 23.9892C26.9402 23.9892 27.0815 23.8401 27.2295 23.6842C27.3778 23.5285 27.4721 23.5143 27.6268 23.5C27.7817 23.4858 27.6943 23.429 27.7952 23.4009C27.8961 23.3726 27.9636 23.2732 28.0309 23.2093C28.0982 23.1457 28.3742 23.2166 28.5359 23.2166C28.6976 23.2166 28.8051 23.2308 28.8051 23.1246C28.8051 23.0182 28.8792 22.9331 28.9736 22.9331C29.0677 22.9331 29.1083 22.9051 29.1083 22.7631C29.1083 22.6216 29.1486 22.5364 29.2293 22.4725C29.3102 22.4089 29.3237 22.2672 29.3507 22.1751C29.3777 22.0829 29.465 22.1393 29.465 22.0051C29.465 21.8704 29.5122 21.7217 29.5122 21.6153C29.5122 21.5092 29.6198 21.523 29.6671 21.4451C29.7143 21.3673 29.6266 21.2683 29.7007 21.0484C29.7747 20.8288 29.7007 20.6233 29.7007 20.425C29.7007 20.2265 29.7007 20.0209 29.7681 19.9569C29.8356 19.8933 29.8018 19.8579 29.748 19.8293C29.694 19.8012 29.7547 19.7232 29.8018 19.7376C29.8489 19.7515 29.9027 19.8579 29.9904 19.8012C30.078 19.7444 30.1587 19.5035 30.2327 19.3051C30.3069 19.1066 30.4281 19.1139 30.5222 19.0714C30.6167 19.0287 30.8188 18.7879 30.9465 18.4405C31.0744 18.0934 30.9397 17.7534 30.8858 17.5126C30.8319 17.2712 30.7578 17.3209 30.6234 17.328C30.4887 17.3353 30.2327 17.2998 29.8961 16.917C29.5595 16.5343 29.2294 16.5627 29.0074 16.6265C28.785 16.6904 28.5562 16.5131 28.408 16.4778C28.2598 16.4423 28.1184 16.6406 28.0108 16.6832C27.9029 16.7256 28.0646 16.5131 28.0714 16.3785C28.0781 16.2438 27.6673 16.0526 27.3576 15.9251C27.0479 15.7974 26.9132 15.8613 26.9132 16.0667C26.9132 16.2723 26.792 16.0029 26.6977 16.2229C26.6033 16.4424 26.4282 16.3006 26.5428 16.2299C26.6573 16.159 26.7649 15.9958 26.8054 15.8614C26.8459 15.7269 26.361 15.6201 26.1928 15.6914C26.0243 15.7622 26.1319 16.0173 25.9974 15.9394C25.8626 15.8614 25.9704 15.6698 26.0782 15.6772C26.186 15.6843 26.3073 15.4504 26.3812 15.2804C26.4553 15.1101 26.2533 15.0816 26.1321 14.9402C26.0123 14.8 26.0371 14.3912 25.9143 14.3265C25.7824 14.4638 25.6053 14.6784 25.5554 14.8359C25.4914 15.0374 25.4094 14.922 25.2363 14.9799C25.0631 15.0374 24.981 14.9603 24.9355 14.884C24.8899 14.8067 24.7165 14.884 24.5982 14.8743C24.4797 14.8646 24.5524 15.0277 24.4705 15.076C24.3885 15.1238 24.1787 14.9801 24.1058 15.0665C24.0329 15.1527 23.9874 15.0665 23.951 15.1432C23.9144 15.2198 23.7868 15.172 23.7503 15.2198C23.7137 15.2678 23.5863 15.2965 23.422 15.1045C23.258 14.9132 23.2853 14.5962 23.3583 14.5387C23.4311 14.4813 23.4311 14.318 23.3308 14.2698C23.2306 14.2222 23.3308 14.0204 23.2034 14.0015C23.0757 13.9824 23.094 14.1549 23.012 14.1836C22.93 14.2124 22.7293 14.3565 22.6382 14.3373C22.547 14.3179 22.4284 14.3565 22.4284 14.4618C22.4284 14.5674 22.3283 14.5386 22.31 14.4525C22.2918 14.3661 22.1004 14.4138 22.0458 14.3565C21.991 14.2989 21.7358 14.3276 21.8451 14.3947C21.9545 14.4618 21.9637 14.5289 21.9637 14.6346C21.9637 14.7402 22.0458 14.7111 22.0458 14.8362C22.0458 14.9605 22.1368 14.8744 22.2006 14.8744C22.2645 14.8744 22.2645 14.9899 22.1643 15.0086C22.0641 15.0278 22.0184 15.0852 21.991 15.1817C21.9637 15.2775 21.8726 15.2101 21.7906 15.2869C21.7085 15.3639 21.6356 15.4405 21.5808 15.402C21.5261 15.364 21.4806 15.3927 21.4168 15.4309C21.353 15.4691 21.3256 15.4309 21.2344 15.3542C21.1662 15.2966 21.1234 15.1579 21.0024 15.0317C20.9303 15.0677 20.7838 15.1234 20.7051 15.1234C20.5987 15.1234 20.2646 15.0977 20.2464 15.1587C20.2283 15.2192 20.2708 15.3216 20.3254 15.334C20.3802 15.3471 20.4955 15.3822 20.3863 15.4653C20.2769 15.548 20.1796 15.4367 20.1796 15.6377C20.1796 15.8392 20.425 15.9698 20.3741 16.1557C20.3477 16.2514 20.3117 16.4973 20.3117 16.5916C20.3117 16.6861 20.276 17.0072 20.1952 17.0258C20.1144 17.0451 20.0425 16.9507 19.9347 17.0451C19.8269 17.1395 19.6924 17.0827 19.5667 17.187C19.441 17.2906 19.3064 17.2528 19.2975 17.3758C19.2884 17.4987 19.1719 17.5649 19.1987 17.6782C19.2257 17.7914 19.1448 17.7632 19.064 17.8482C18.9833 17.9333 19.0729 17.9898 19.019 18.0561C18.965 18.1223 19.037 18.2259 19.0998 18.3299C19.1626 18.434 19.2345 18.5093 19.2256 18.604C19.2165 18.6984 19.2882 18.7365 19.3781 18.7266C19.4679 18.7173 19.3959 18.9063 19.5398 18.9063C19.6833 18.9063 19.8269 18.9441 19.863 18.8592C19.8989 18.774 19.9976 18.7079 19.9976 18.8308C19.9976 18.9534 19.9707 19.2844 20.0694 19.2466C20.1682 19.2087 20.3658 19.2178 20.4646 19.2557C20.5632 19.2935 20.6619 19.2557 20.7248 19.1896C20.7877 19.1237 20.8594 19.124 20.985 19.0482C21.1108 18.9723 21.2274 18.8781 21.3444 18.8781C21.461 18.8781 21.6586 18.8022 21.6315 18.8967C21.6045 18.9913 21.5867 19.341 21.7303 19.5204C21.8739 19.6999 21.9546 19.7661 22.0894 19.7472C22.2241 19.7281 22.2061 19.8036 22.3049 19.7946C22.4036 19.7852 22.3409 19.9078 22.4308 19.9078C22.5204 19.9078 22.6819 19.9267 22.6819 20.0305C22.6819 20.1346 22.9514 20.0496 23.0143 20.1062C23.0771 20.1628 23.1488 20.2101 23.1309 20.3234C23.1128 20.437 23.2656 20.522 23.1759 20.5691C23.0859 20.6164 23.2028 20.7108 23.2117 20.8337C23.2206 20.9564 23.3464 21.0037 23.5439 20.9942C23.7414 20.9852 23.7954 21.0037 23.7954 21.1551C23.7954 21.306 23.93 21.3251 23.9748 21.4669C24.0198 21.6084 23.921 21.769 23.939 21.8825C23.9527 21.9696 23.9027 22.0618 23.8465 22.0999C23.9158 22.1928 23.9215 22.2346 23.8594 22.2706C23.7775 22.3185 23.9598 22.4527 23.9143 22.6636C23.8687 22.8751 23.8596 22.9131 24.0694 22.9227C24.2787 22.9324 24.2606 22.9994 24.3335 22.9514C24.4065 22.9033 24.5157 23.1145 24.5431 23.2205C24.5705 23.3258 24.6524 23.5749 24.6889 23.5749C24.7256 23.5749 24.8348 23.4597 24.9442 23.5176C25.0459 23.5709 24.9191 23.9313 24.9155 24.0892C24.9915 24.0864 25.0845 24.0866 25.1152 24.1029C25.1699 24.132 25.1971 24.5194 25.17 24.5913C25.1426 24.6628 24.9173 24.7274 24.8015 24.8064C24.6856 24.8854 24.4059 25.1654 24.2761 25.3881C24.1995 25.52 24.0873 25.629 24.0084 25.7241C24.0459 25.7298 24.0776 25.7283 24.0988 25.7184C24.1602 25.6894 24.2558 25.6894 24.3581 25.8186C24.4606 25.948 24.4537 26.0486 24.4946 26.0415C24.5356 26.034 24.5834 25.8691 24.6652 25.9913C24.747 26.1131 24.9584 26.2065 25.0062 26.264C25.0539 26.3214 25.2108 26.3646 25.2108 26.5153C25.2108 26.6231 25.1625 26.8272 25.2428 27C25.2814 26.947 25.3254 26.8961 25.3847 26.8516Z" fill="#C6E3FF"/>
</g>
<g filter="url(#filter2_d)">
<path fill-rule="evenodd" clip-rule="evenodd" d="M22.586 33.8586C22.4183 33.8519 22.0893 33.5435 21.9886 33.4628C21.8879 33.3822 21.9618 33.3015 21.841 33.322C21.7201 33.3419 21.8007 33.2279 21.8678 33.1944C21.9295 33.1634 21.8437 33.049 21.7616 33.0304C21.7527 33.2106 21.7152 34.0191 21.7637 34.0269C21.8127 34.0352 22.169 33.9854 22.2738 34.0538C22.3143 34.0668 22.3695 34.0994 22.4116 34.0533C22.4788 33.9795 22.68 34.0196 22.7876 33.9526C22.8949 33.8855 22.754 33.8656 22.586 33.8586ZM26.3052 23.2643C26.2746 23.249 26.1818 23.2488 26.106 23.2514C26.1058 23.2627 26.106 23.2731 26.1072 23.2823C26.1255 23.4094 26.0437 23.7363 25.9528 23.7273C25.8619 23.7183 25.7893 23.8635 25.7165 23.8454C25.6438 23.827 25.5437 23.9543 25.4528 23.8997C25.362 23.8454 25.2349 23.918 25.1622 23.8723C25.0894 23.827 24.8803 23.8635 24.8803 23.8091C24.8803 23.7545 24.9804 23.7726 24.9804 23.609C24.9804 23.4456 25.2528 23.2639 25.2167 23.2006C25.1805 23.1367 24.7169 23.0006 24.6534 22.9189C24.5896 22.8371 24.4988 22.7642 24.317 22.7464C24.1352 22.728 24.1445 22.6373 23.9807 22.5374C23.8442 22.4539 23.6322 22.2317 23.5604 22.1074C23.4496 22.096 23.2927 22.0726 23.2614 22.1101C23.2167 22.1637 23.1451 22.4144 23.0824 22.2891C23.0198 22.1637 22.8675 22.1637 22.7334 22.1458C22.5992 22.1281 22.6082 22.003 22.4648 22.155C22.401 22.2225 22.3182 22.2895 22.2432 22.338C22.2342 22.4825 22.2078 22.6453 22.1812 22.6917C22.1449 22.7554 21.845 22.8917 21.8359 22.9642C21.8267 23.0368 21.8723 23.1367 21.8177 23.1823C21.7631 23.2276 21.9448 23.4544 21.845 23.5091C21.7449 23.5639 21.9177 23.6546 21.854 23.709C21.7904 23.7633 21.6723 23.7907 21.6723 23.854C21.6723 23.918 21.6633 24.0722 21.5814 24.1088C21.4996 24.1451 21.445 24.2812 21.445 24.3813C21.445 24.481 21.3178 24.4172 21.3634 24.5446C21.4087 24.6718 21.4632 24.8266 21.3634 24.8537C21.2633 24.8808 21.2906 25.0899 21.236 25.0899C21.1815 25.0899 21.1542 25.3077 21.236 25.4165C21.3179 25.5257 21.3361 25.6165 21.3361 25.7164C21.3361 25.816 21.445 25.8707 21.4087 25.9797C21.3723 26.0887 21.3906 26.1887 21.3269 26.2342C21.2633 26.2795 21.3178 26.4156 21.2359 26.4521C21.1542 26.4886 21.2995 26.7791 21.2359 26.8336C21.1723 26.8884 21.0088 26.9335 21.0088 27.1335C21.0088 27.3334 21.0396 27.4461 21.0179 27.5331C20.9998 27.6059 21.1088 27.5873 21.0907 27.7058C21.0724 27.8235 20.927 27.751 20.9182 27.8235C20.9091 27.8962 20.9545 28.0416 20.8999 28.0507C20.8454 28.0598 20.8181 28.1142 20.8181 28.2415C20.8181 28.3684 20.7453 28.3868 20.7365 28.4505C20.7273 28.514 20.8 28.5869 20.8 28.6591C20.8 28.732 20.8452 28.9771 20.7817 28.9862C20.7181 28.9953 20.6819 29.2679 20.7365 29.3042C20.7908 29.3404 20.7908 29.4133 20.7635 29.4678C20.7365 29.5221 20.8906 29.5764 20.8089 29.6586C20.7272 29.7403 20.7921 29.8451 20.8999 29.8128C20.9908 29.7858 21.0453 29.9489 20.9453 29.9489C20.8454 29.9489 20.7453 29.9489 20.8271 30.0127C20.909 30.0761 20.9907 30.1669 20.8726 30.2125C20.7544 30.2579 20.8544 30.3395 20.8271 30.4485C20.7998 30.5576 20.909 30.6575 20.8181 30.6848C20.7272 30.7118 20.8544 30.8756 20.7272 30.8938C20.6 30.9118 20.6818 31.0299 20.6 31.0938C20.5181 31.1571 20.7091 31.2662 20.609 31.3295C20.5091 31.3928 20.5818 31.5382 20.4818 31.5382C20.3818 31.5382 20.3273 31.6749 20.3183 31.7382C20.3092 31.8015 20.2456 31.9292 20.3273 32.0198C20.409 32.1105 20.3091 32.1836 20.3816 32.2198C20.4546 32.2561 20.6999 32.2014 20.6634 32.3105C20.6271 32.4197 20.6362 32.6558 20.6818 32.6558C20.7272 32.6558 20.7544 32.7918 20.8271 32.7828C20.8999 32.7737 21.227 32.7375 21.3634 32.7737C21.4308 32.7916 21.4869 32.8318 21.5266 32.8677C21.6045 32.8334 21.7749 32.9445 21.8136 32.9061C21.8606 32.859 21.6458 32.6847 21.6526 32.6244C21.6593 32.5638 21.6189 32.463 21.6189 32.3961C21.6189 32.329 21.5853 32.1815 21.6795 32.114C21.7735 32.047 21.7801 31.98 21.8406 31.9936C21.901 32.0069 22.0218 31.9397 22.0285 31.7786C22.0351 31.6176 22.109 31.5574 22.2434 31.443C22.3895 31.319 22.6325 31.2018 22.599 31.1478C22.5654 31.0944 22.6527 30.9198 22.6527 30.8528C22.6527 30.7855 22.4245 30.7991 22.3506 30.7722C22.2768 30.7453 22.0083 30.5575 22.1425 30.3095C22.2768 30.0609 22.5587 30.034 22.6394 30.0273C22.7199 30.0207 22.646 29.9066 22.7131 29.8664C22.7802 29.8262 22.7937 29.7593 22.7937 29.6585C22.7937 29.5445 22.7937 29.3632 22.9144 29.3497C23.0354 29.3362 23.0688 29.2692 22.9951 29.2494C22.9213 29.229 22.8875 29.142 23.0086 29.1284C23.1294 29.115 23.0892 29.2288 23.1763 29.2288C23.2636 29.2288 23.4113 29.0812 23.2972 28.994C23.183 28.9067 23.1494 29.0343 23.0892 29.0479C23.0286 29.0612 22.9816 28.9675 22.9213 28.9675C22.8608 28.9675 22.9013 28.7995 22.8744 28.7392C22.8475 28.6786 22.8072 28.5313 22.8609 28.4573C22.9147 28.3835 23.1429 28.5713 23.3444 28.5848C23.5458 28.5984 23.6935 28.4845 23.6935 28.4103C23.6935 28.3364 23.5993 28.2021 23.7202 28.122C23.8411 28.0413 23.7405 28.0143 23.7069 27.9071C23.6733 27.7999 23.7606 27.7324 23.8144 27.7863C23.868 27.8401 24.264 27.8066 24.593 27.7396C24.9218 27.6723 25.1503 27.5516 25.1703 27.4577C25.1904 27.3635 25.3986 27.1422 25.4456 27.0619C25.4927 26.9812 25.4523 26.8804 25.3181 26.8605C25.1837 26.8405 25.1906 26.6859 25.2644 26.5988C25.3382 26.5116 25.2241 26.431 25.0966 26.4176C24.969 26.4041 24.7676 26.3171 24.8816 26.21C24.9367 26.1578 24.9636 26.1685 24.9904 26.1919C25.0095 26.1406 25.028 26.08 25.0128 26.065C24.9857 26.0377 24.9177 26.0718 24.9246 25.8813C24.9313 25.6911 24.9992 25.7319 25.0063 25.487C25.0128 25.2423 25.1081 25.0997 25.1081 24.9704C25.1081 24.8414 25.3395 24.6921 25.4686 24.481C25.5979 24.2702 25.8767 24.0051 25.9923 23.9303C26.1079 23.8555 26.3324 23.7943 26.3597 23.7266C26.3868 23.6585 26.3596 23.2918 26.3052 23.2643Z" fill="#C6E3FF"/>
</g>
<g filter="url(#filter3_d)">
<path fill-rule="evenodd" clip-rule="evenodd" d="M20.8056 32.5472C20.695 32.5557 20.6538 32.426 20.5849 32.426C20.5158 32.426 20.502 32.2006 20.557 32.0964C20.6124 31.9922 20.24 32.0444 20.1292 32.0098C20.0191 31.9752 20.1707 31.9055 20.0468 31.8189C19.9227 31.7324 20.0193 31.6106 20.033 31.5501C20.0468 31.4895 20.1294 31.3592 20.2814 31.3592C20.4329 31.3592 20.3226 31.2204 20.4744 31.16C20.6263 31.0995 20.3364 30.9954 20.4608 30.9349C20.5849 30.874 20.4608 30.7612 20.6538 30.7441C20.847 30.7266 20.6538 30.5704 20.7918 30.5446C20.9298 30.5186 20.7641 30.4232 20.8056 30.3191C20.847 30.2149 20.695 30.137 20.8747 30.0938C21.0539 30.0502 20.9298 29.9635 20.8056 29.9031C20.6813 29.8421 20.833 29.8421 20.985 29.8421C21.1367 29.8421 21.0541 29.6864 20.9161 29.7122C20.7524 29.743 20.654 29.6429 20.7779 29.565C20.9019 29.4866 20.6677 29.4347 20.709 29.3829C20.7504 29.3309 20.7504 29.2614 20.6679 29.2267C20.5851 29.1921 20.6401 28.9319 20.7366 28.9232C20.833 28.9145 20.7643 28.6806 20.7643 28.611C20.7643 28.5419 20.654 28.4724 20.6679 28.4119C20.6813 28.351 20.7918 28.3335 20.7918 28.2124C20.7918 28.091 20.8332 28.039 20.9161 28.0303C20.9987 28.0215 20.9298 27.8827 20.9438 27.8134C20.9573 27.7441 21.1782 27.8134 21.2057 27.701C21.2333 27.5879 21.0676 27.6056 21.0951 27.5362C21.1281 27.4532 21.0814 27.3456 21.0814 27.1547C21.0814 26.9639 21.3297 26.9208 21.4261 26.8685C21.5227 26.8164 21.302 26.5392 21.4261 26.5043C21.5504 26.4696 21.4675 26.3396 21.5643 26.2963C21.6609 26.2529 21.6332 26.1575 21.6884 26.0534C21.7436 25.9494 21.5783 25.8971 21.5783 25.8021C21.5783 25.7067 21.5504 25.62 21.4263 25.5159C21.302 25.4118 21.3435 25.2041 21.4263 25.2041C21.5092 25.2041 21.4677 25.0045 21.6197 24.9786C21.7712 24.9528 21.6884 24.8051 21.6197 24.6836C21.5504 24.5621 21.7436 24.623 21.7436 24.5276C21.7436 24.4322 21.8264 24.3022 21.9507 24.2676C22.0749 24.2328 22.0887 24.0855 22.0887 24.0244C22.0887 23.964 22.2679 23.9378 22.3645 23.886C22.4611 23.8341 22.1988 23.7474 22.3508 23.6951C22.5023 23.6429 22.2265 23.4263 22.3094 23.3833C22.392 23.3397 22.3231 23.2443 22.337 23.175C22.3508 23.1057 22.806 22.9758 22.8612 22.9149C22.9014 22.8706 22.9417 22.7152 22.9552 22.5773C22.8131 22.6353 22.6892 22.6665 22.6665 22.633C22.6258 22.5734 22.6802 22.3938 22.5579 22.3171C22.4356 22.2401 22.5171 22.0866 22.3948 22.0524C22.2724 22.0183 22.1232 21.8647 22.2316 21.8131C22.3402 21.7619 22.2316 21.6598 22.3268 21.6084C22.4218 21.5572 22.2724 21.5485 22.1364 21.446C22.0007 21.3437 22.1908 21.2156 22.0276 21.1386C21.8647 21.0618 21.8647 20.968 21.8239 21.0107C21.7832 21.0536 21.7697 21.1986 21.6338 21.2413C21.6114 21.2482 21.5763 21.2648 21.5339 21.2867C21.5349 21.3574 21.4944 21.4769 21.5386 21.5465C21.5997 21.6426 21.6301 22.1101 21.569 22.2893C21.5078 22.4689 21.4465 22.6159 21.3857 22.7246C21.3244 22.8339 21.5284 22.8402 21.4467 22.8914C21.3655 22.9427 21.3959 23.0709 21.3959 23.2757C21.3959 23.4807 21.2021 23.8264 21.1919 23.9353C21.1819 24.0442 21.0492 24.1146 21.0698 24.2362C21.0902 24.358 20.9781 24.4286 20.8658 24.4859C20.7537 24.5437 21.0492 24.7295 21.0392 24.8319C21.029 24.9343 20.8148 24.9792 20.8658 25.1459C20.9296 25.3537 20.8658 25.7092 20.8658 25.78C20.8658 25.8502 20.7333 25.8439 20.7639 25.9781C20.7946 26.1128 20.6314 26.1449 20.6008 26.3369C20.5702 26.5292 20.3358 26.8045 20.2443 26.9516C20.1524 27.0988 20.1524 27.1822 20.0303 27.1822C19.9076 27.1822 19.8774 27.2655 19.9688 27.3938C20.0605 27.5217 19.9076 27.6306 20.0303 27.7587C20.1524 27.8868 20.1116 27.9315 20.0505 28.0534C19.9893 28.1748 19.9076 28.1814 19.9076 28.2966C19.9076 28.4121 19.7649 28.5083 19.8465 28.6362C19.9284 28.7643 19.9076 28.8092 19.8057 28.8092C19.7038 28.8092 19.6528 28.9115 19.6121 29.1229C19.5713 29.3341 19.5815 29.3279 19.8261 29.3151C20.0707 29.3025 19.8772 28.7963 20.0301 28.7963C20.1828 28.7963 20.0503 28.713 20.2031 28.6875C20.356 28.6619 20.2235 28.777 20.3256 28.7963C20.4274 28.8154 20.4987 28.8667 20.3562 28.9242C20.2135 28.9821 20.3866 29.0973 20.3153 29.1679C20.2441 29.2382 20.142 29.3151 20.2031 29.3985C20.2643 29.4819 20.1316 29.4753 20.1216 29.5841C20.1114 29.693 20.2133 29.6996 20.142 29.725C20.0707 29.7507 20.2337 29.834 20.1316 29.8468C20.0299 29.8594 20.091 29.9428 20.152 30.0195C20.2133 30.0963 20.0197 30.0515 19.9176 30.1029C19.8157 30.154 20.0197 30.2243 19.9584 30.2951C19.8974 30.3656 19.7342 30.2565 19.663 30.2183C19.5917 30.1798 19.7753 30.1029 19.867 30.0261C19.9586 29.9491 19.7753 29.7764 19.6223 29.8145C19.4694 29.853 19.7753 29.9617 19.7753 30.0451C19.7753 30.1285 19.5205 30.0261 19.5305 30.1155C19.5407 30.2053 19.3573 30.1732 19.2656 30.2373C19.174 30.3012 19.3879 30.3588 19.2861 30.3783C19.1842 30.3974 19.0108 30.4872 19.0006 30.5511C18.9904 30.615 19.1127 30.6279 19.1127 30.5638C19.1127 30.4998 19.2756 30.4807 19.3265 30.5638C19.3775 30.6472 19.449 30.5638 19.5915 30.5831C19.7342 30.6022 19.714 30.7369 19.6324 30.7304C19.5507 30.724 19.4692 30.8138 19.4896 30.9096C19.5101 31.0059 19.7953 30.9096 19.9176 30.9354C20.0401 30.9611 19.9995 31.0954 19.928 31.0505C19.8566 31.006 19.6934 30.9288 19.622 31.006C19.5507 31.0826 19.4386 31.0445 19.3469 31.0187C19.2552 30.9932 18.9291 31.1279 19.0412 31.1788C19.1531 31.2299 19.1431 31.3133 19.2146 31.307C19.2859 31.3005 19.398 31.2684 19.4388 31.2172C19.4796 31.1659 19.6221 31.1147 19.6324 31.2299C19.6426 31.3455 19.4388 31.2878 19.398 31.3517C19.3571 31.416 19.2755 31.467 19.1531 31.5247C19.0308 31.5823 19.1531 31.6784 19.2552 31.6463C19.3573 31.6141 19.2248 31.7229 19.3673 31.7359C19.4989 31.7478 19.5405 31.6847 19.5101 31.6206C19.4796 31.5566 19.5813 31.4158 19.7038 31.4862C19.8261 31.5566 19.6426 31.6272 19.6426 31.6911C19.6426 31.7554 19.5711 31.8385 19.5711 31.9087C19.5711 31.9792 19.4386 31.9408 19.4488 32.0178C19.459 32.0946 19.1634 32.0434 19.2961 32.0946C19.4284 32.1458 19.2146 32.2162 19.2859 32.2676C19.3573 32.3185 19.4184 32.197 19.5305 32.2227C19.6428 32.2482 19.6221 32.2676 19.7649 32.2291C19.9076 32.1906 19.9891 32.2996 19.8567 32.3251C19.7242 32.3506 19.5815 32.4467 19.6428 32.4598C19.704 32.4725 19.8772 32.3958 19.9178 32.4788C19.9586 32.5622 20.0605 32.5365 20.0707 32.4467C20.0807 32.3573 20.3256 32.4339 20.3662 32.5109C20.407 32.5876 20.1114 32.6325 19.9584 32.6135C19.8057 32.594 19.7242 32.7031 19.8261 32.7863C19.9282 32.8696 20.0503 32.7863 20.1624 32.7158C20.2745 32.6456 20.825 32.6646 20.8656 32.7415C20.9063 32.8182 20.611 32.7543 20.5804 32.799C20.5498 32.8439 20.3256 32.8824 20.2949 32.8312C20.2643 32.78 20.0503 32.8503 20.0401 32.9337C20.0301 33.0167 19.8668 33.0167 20.0503 33.049C20.2339 33.081 20.1828 32.9273 20.4683 32.9401C20.7535 32.9527 20.9063 32.7733 20.9877 32.8761C21.0694 32.9786 20.7535 33.0619 20.6412 32.9975C20.5293 32.9336 20.3966 33.0422 20.4068 33.1385C20.4168 33.2346 20.0806 33.1128 19.9176 33.1C19.7547 33.0872 19.8259 33.1962 19.9687 33.2921C20.1114 33.3883 20.1928 33.2795 20.366 33.3499C20.5393 33.4204 20.5393 33.4974 20.6615 33.4268C20.7842 33.3561 20.6615 33.3629 20.5802 33.3307C20.4985 33.2986 20.57 33.1898 20.7635 33.2473C20.9571 33.305 21.1813 33.1963 21.1203 33.0424C21.059 32.8888 21.2934 32.8183 21.528 32.767C21.7624 32.7159 21.6401 32.8631 21.467 32.9079C21.2936 32.9527 21.263 32.985 21.3955 33.0746C21.528 33.1644 21.7014 33.0168 21.8133 33.0874C21.9254 33.1578 21.6095 33.145 21.5586 33.2156C21.5076 33.2858 21.7522 33.3692 21.579 33.4205C21.4059 33.4718 21.4874 33.2089 21.3855 33.1834C21.2834 33.1578 21.1917 33.2156 21.2936 33.363C21.3955 33.5099 21.1713 33.3819 21.0694 33.3116C20.9673 33.2412 20.8248 33.3436 20.9469 33.4205C21.0694 33.4975 20.7127 33.414 20.7127 33.5357C20.7127 33.6573 20.8654 33.555 21.0488 33.5808C21.2324 33.6062 21.1509 33.773 21.2832 33.8369C21.4157 33.9008 21.3036 33.6317 21.4461 33.6127C21.5889 33.5935 21.4565 33.8175 21.7724 33.8817C22.0883 33.9458 21.7928 33.8432 21.9354 33.779C22.0781 33.715 22.2615 33.9712 22.4144 33.9969C22.5671 34.0227 22.4652 33.8817 22.3529 33.8046C22.241 33.7281 22.465 33.773 22.618 33.8046C22.7709 33.837 22.8932 33.8495 22.9238 33.779C22.9352 33.7527 22.9637 33.7532 23 33.7606C22.8408 33.6954 22.2999 33.7429 22.2255 33.735C22.1521 33.7276 22.2088 32.9597 22.2226 32.7838C22.2116 32.7819 22.2008 32.7802 22.19 32.7802C22.0577 32.7802 21.762 32.7992 21.8129 32.6713C21.8217 32.6486 21.8413 32.6354 21.8665 32.6282C21.8062 32.594 21.721 32.5555 21.6187 32.5385C21.4126 32.5041 20.9161 32.5385 20.8056 32.5472Z" fill="#C6E3FF"/>
</g>
<g filter="url(#filter4_d)">
<path fill-rule="evenodd" clip-rule="evenodd" d="M24.9548 22.0932C24.8297 22.0519 24.7045 22.1341 24.6627 22.1341C24.621 22.1341 24.5271 21.9563 24.4958 21.8812C24.4645 21.8056 24.3395 21.655 24.2559 21.6892C24.1725 21.7234 24.1934 21.6756 23.9537 21.6687C23.7136 21.6619 23.724 21.6346 23.7761 21.4838C23.8282 21.3333 23.6196 21.2376 23.7133 21.2034C23.7844 21.1777 23.7779 21.1479 23.6986 21.0816C23.6792 21.0898 23.659 21.0952 23.6401 21.0952C23.5579 21.0952 23.455 21.0005 23.3113 21.0005C23.1673 21.0005 23.0132 20.9939 22.9105 21.0275C22.8076 21.0615 22.6124 21.0208 22.489 21.0748C22.3656 21.1287 22.2117 21.2433 22.2219 21.2905C22.2322 21.3378 22.1808 21.6275 22.1192 21.641C22.1007 21.645 22.0546 21.6429 22 21.639C22.0822 21.7327 22.3257 21.9002 22.4825 21.963C22.6704 22.0383 22.6597 22.1068 22.8686 22.1205C23.0773 22.134 23.1815 22.1889 23.2547 22.2506C23.3276 22.3121 23.8598 22.4147 23.9014 22.4628C23.943 22.5105 23.6302 22.6475 23.6302 22.7706C23.6302 22.8939 23.5153 22.8803 23.5153 22.9214C23.5153 22.9624 23.7553 22.935 23.8389 22.969C23.9223 23.0035 24.0683 22.9487 24.1725 22.9896C24.2768 23.0308 24.3917 22.9349 24.4752 22.9487C24.5588 22.9624 24.642 22.853 24.7464 22.8597C24.8508 22.8664 24.9446 22.6202 24.9237 22.5244C24.9027 22.4284 25.0801 22.134 24.9548 22.0932Z" fill="#C6E3FF"/>
</g>
<g filter="url(#filter5_d)">
<path fill-rule="evenodd" clip-rule="evenodd" d="M17.6241 15.9072C17.717 15.9457 17.8491 15.9348 17.8802 15.9072C17.9112 15.8797 17.9963 15.94 18.1206 16.0391C18.1261 16.0435 18.1305 16.0469 18.1357 16.051C18.2399 16.035 18.3716 16.021 18.4248 16.0446C18.5179 16.0858 18.4947 16.2345 18.6232 16.2427C18.7517 16.2509 18.8451 16.342 18.8335 16.3913C18.8216 16.4412 18.9736 16.4658 18.962 16.5402C18.9504 16.6146 19.3009 16.598 19.3475 16.5734C19.3941 16.5484 19.4876 16.5321 19.546 16.5567C19.6045 16.5814 19.7096 16.5321 19.7681 16.5484C19.8266 16.565 20.0603 16.6313 20.0134 16.6889C19.9666 16.7469 19.8032 16.8376 19.8382 16.8875C19.866 16.9265 19.988 16.9509 20.0379 17C20.0434 16.9998 20.0488 17 20.0543 16.999C20.1436 16.9852 20.183 16.7467 20.183 16.6764C20.183 16.6063 20.2229 16.4237 20.252 16.3526C20.3083 16.2145 20.037 16.1174 20.037 15.9677C20.037 15.8183 20.1446 15.9012 20.2654 15.8396C20.3862 15.7779 20.2587 15.7518 20.1982 15.7421C20.1378 15.7328 20.0908 15.6568 20.1109 15.6119C20.1311 15.5666 20.5003 15.5856 20.6179 15.5856C20.7352 15.5856 20.9904 15.5096 20.9937 15.4977C20.9971 15.4859 21.0239 15.4264 20.9332 15.3767C20.8425 15.327 20.8762 15.2557 20.9466 15.1986C21.0172 15.1416 20.9031 15.0847 20.8157 15.016C20.7286 14.947 20.7957 14.6976 20.8962 14.5814C20.9968 14.4652 20.6914 14.4912 20.5035 14.5078C20.3156 14.5244 20.1545 14.4722 20.0336 14.3631C19.9129 14.2537 19.7483 14.3227 19.4597 14.3273C19.171 14.332 19.2281 14.1017 19.2414 14.0138C19.2548 13.926 19.0938 13.9141 19.0938 13.8571C19.0938 13.8001 19.01 13.8001 18.9359 13.8049C18.8621 13.8096 18.9359 13.7409 18.9864 13.6958C19.0367 13.6505 19.0333 13.615 19.0367 13.52C19.0401 13.425 19.2347 13.3447 19.3321 13.2517C19.356 13.2294 19.3924 13.2149 19.434 13.2057C19.4459 13.1836 19.4697 13.1661 19.5156 13.1596C19.6644 13.1385 19.739 13.0701 19.5973 13.012C19.4561 12.9542 19.3741 13.1228 19.2179 13.1385C19.0616 13.1544 19.0317 13.2227 18.9274 13.2595C18.8232 13.2964 18.6298 13.2647 18.6225 13.328C18.6143 13.397 18.5554 13.328 18.4662 13.3123C18.3767 13.2965 18.146 13.4385 18.1535 13.5176C18.1608 13.5964 18.1981 13.6702 18.0343 13.7439C17.8706 13.8175 17.7738 13.9546 17.6994 14.0177C17.6766 14.0368 17.6522 14.0384 17.6263 14.0297C17.6165 14.0644 17.6023 14.0922 17.58 14.1041C17.539 14.1252 17.4397 14.1966 17.3537 14.2593C17.3956 14.2877 17.4347 14.3132 17.4612 14.3333C17.5653 14.4122 17.4982 14.4755 17.5282 14.5177C17.5579 14.5597 17.5877 14.6229 17.5282 14.6492C17.4686 14.6755 17.5206 14.9651 17.5877 15.0177C17.6547 15.0703 17.5877 15.1179 17.5133 15.2228C17.4387 15.3283 17.3718 15.3757 17.2379 15.3809C17.1038 15.3863 17.1113 15.5337 17.0668 15.5337C17.0311 15.5337 17.0053 15.5869 17 15.6328C17.125 15.7071 17.3496 15.797 17.4144 15.797C17.4843 15.7973 17.5309 15.8688 17.6241 15.9072Z" fill="#C6E3FF"/>
</g>
<g filter="url(#filter6_d)">
<path fill-rule="evenodd" clip-rule="evenodd" d="M23.9871 20.8044C23.9383 20.7066 23.7925 20.6935 23.7925 20.5895C23.7925 20.4852 23.7338 20.4723 23.5196 20.4785C23.3055 20.4851 23.169 20.4526 23.1592 20.3679C23.1495 20.2832 23.0227 20.218 23.1204 20.1855C23.2176 20.1531 23.052 20.0944 23.0716 20.0161C23.0909 19.938 23.0132 19.9054 22.9451 19.8664C22.8768 19.8274 22.5844 19.886 22.5844 19.8142C22.5844 19.7426 22.4092 19.7296 22.3119 19.7296C22.2146 19.7296 22.2827 19.6451 22.1754 19.6516C22.0684 19.6578 22.0878 19.6059 21.9416 19.619C21.7953 19.6319 21.7078 19.5863 21.552 19.4626C21.3963 19.3389 21.4155 19.0978 21.4448 19.0326C21.4741 18.9676 21.2599 19.0198 21.1334 19.0198C21.0066 19.0198 20.8799 19.0848 20.7434 19.1371C20.6072 19.1893 20.5294 19.1891 20.4611 19.2346C20.3928 19.2801 20.2858 19.3063 20.1789 19.2801C20.1489 19.273 20.1103 19.2672 20.0685 19.2635C20.1261 19.3594 20.2648 19.5166 20.2957 19.5733C20.3346 19.645 20.247 19.6645 20.208 19.6905C20.169 19.7164 20.2273 19.9509 20.2371 20.0031C20.2468 20.0551 20.1006 20.153 20.159 20.1854C20.2176 20.218 20.0812 20.3159 20.0812 20.3744C20.0812 20.4331 20.2078 20.4331 20.2078 20.4785C20.2078 20.5242 20.1005 20.6284 20.0325 20.6543C19.9966 20.6681 19.9959 20.7049 20.0046 20.7448C20.025 20.7403 20.0394 20.7996 20.1394 20.8497C20.2564 20.9084 20.12 21.0061 20.2174 21.0841C20.3148 21.1623 20.422 21.1689 20.3539 21.208C20.2857 21.2471 20.3635 21.3251 20.2857 21.3641C20.2078 21.4034 20.3149 21.5207 20.4026 21.5467C20.4903 21.5726 20.4319 21.6898 20.5195 21.7485C20.6072 21.8069 20.5682 21.9439 20.5974 21.9895C20.6266 22.035 20.8896 21.9246 21.0456 21.8137C21.2015 21.703 21.1918 21.7941 21.3379 21.807C21.4839 21.8202 21.6496 21.8202 21.7177 21.9114C21.7859 22.0026 21.8637 21.8201 21.9124 21.7811C21.9613 21.7421 22.2922 21.7941 22.3508 21.7811C22.4092 21.768 22.4579 21.4882 22.4482 21.4424C22.4385 21.3968 22.5844 21.2861 22.7013 21.2341C22.8183 21.1817 23.0033 21.2211 23.1008 21.1883C23.1981 21.1558 23.3443 21.1623 23.4808 21.1623C23.617 21.1623 23.7145 21.2537 23.7925 21.2537C23.8703 21.2537 23.9678 21.169 23.9483 21.0908C23.9287 21.0126 24.036 20.902 23.9871 20.8044Z" fill="#C6E3FF"/>
</g>
<g filter="url(#filter7_d)">
<path fill-rule="evenodd" clip-rule="evenodd" d="M20.7765 20.693C20.7795 20.6864 20.7822 20.6834 20.7846 20.6824C20.7784 20.6243 20.7789 20.5705 20.8046 20.5505C20.8532 20.5126 20.9301 20.3608 20.9301 20.2942C20.9301 20.2281 20.8394 20.2281 20.8394 20.1425C20.8394 20.0572 20.937 19.9146 20.8952 19.8672C20.8533 19.8199 20.958 19.6773 20.9511 19.6014C20.944 19.5253 20.9023 19.1836 20.9302 19.1459C20.958 19.108 21.0209 19.0796 20.993 18.9752C20.9709 18.8925 20.8716 18.6635 20.8304 18.5236C20.7527 18.5086 20.6577 18.511 20.6023 18.5385C20.5256 18.5765 20.5466 18.2441 20.5466 18.1208C20.5466 17.9974 20.4699 18.0638 20.442 18.1494C20.414 18.2347 20.3025 18.1967 20.1908 18.1967C20.0791 18.1967 20.135 18.0067 20.0653 18.0162C19.9955 18.0259 19.9397 17.9878 19.9468 17.8931C19.9536 17.798 19.8978 17.7222 19.849 17.6177C19.8002 17.5132 19.7443 17.4091 19.7862 17.3426C19.8281 17.276 19.7585 17.2192 19.8212 17.1338C19.884 17.0484 19.9469 17.0767 19.9259 16.9629C19.905 16.8491 19.9955 16.7827 20.0026 16.6592C20.0095 16.5358 20.1141 16.5736 20.2118 16.4695C20.3094 16.3648 20.414 16.4218 20.4977 16.3269C20.5764 16.2378 20.6303 16.3149 20.6886 16.309C20.6535 16.2426 20.5677 16.2094 20.5482 16.1569C20.5236 16.0894 20.6385 15.9667 20.6713 15.8882C20.7042 15.8105 20.5399 15.7208 20.4989 15.6983C20.4578 15.6762 20.3839 15.7429 20.3428 15.7096C20.3018 15.6762 20.2361 15.6983 20.2033 15.7321C20.1706 15.7654 19.9241 15.7879 19.9323 15.6872C19.9405 15.5867 19.8338 15.5534 19.842 15.4859C19.8503 15.4193 19.7845 15.296 19.6942 15.285C19.6039 15.2739 19.6203 15.0727 19.5547 15.0171C19.5173 14.9851 19.4248 15.0039 19.3516 15.0257C19.4304 15.1468 19.4585 15.1973 19.4063 15.2543C19.337 15.3299 19.4063 15.3432 19.2755 15.5805C19.1446 15.8184 18.921 15.8774 18.8118 15.9223C18.7029 15.9667 18.6591 16.2408 18.5992 16.4342C18.5392 16.627 18.4901 16.5602 18.4302 16.4488C18.3702 16.3373 18.321 16.471 18.2501 16.3822C18.1792 16.2935 18.212 16.2935 18.2501 16.219C18.2707 16.1791 18.2479 16.1152 18.2044 16.0539C18.1266 16.0757 18.0478 16.2224 18.0091 16.3342C17.9672 16.4554 18.0824 16.6902 18.0981 16.7755C18.1138 16.861 18.0353 16.7827 18.0248 16.861C18.0144 16.9391 18.1975 17.053 18.2811 17.1383C18.365 17.2239 18.4381 17.4662 18.5165 17.5799C18.595 17.6938 18.6004 17.7934 18.684 18.0711C18.7678 18.3486 18.9352 18.8186 19.0502 19.0178C19.1654 19.217 19.2176 19.3738 19.1915 19.4308C19.1654 19.4879 19.1968 19.6445 19.2804 19.7228C19.3642 19.8008 19.4321 19.9292 19.6519 20.0788C19.8716 20.2282 20.2744 20.5128 20.332 20.6483C20.3896 20.7832 20.5779 20.9114 20.6145 20.9401C20.6245 20.9479 20.6276 20.9702 20.6278 21C20.6495 20.9757 20.6676 20.9571 20.6791 20.9495C20.7486 20.902 20.7556 20.7407 20.7765 20.693Z" fill="#C6E3FF"/>
</g>
<g filter="url(#filter8_d)">
<path fill-rule="evenodd" clip-rule="evenodd" d="M19.4627 13.1249C19.3573 13.1927 19.1466 13.2513 19.1429 13.3205C19.1393 13.3898 19.1429 13.4155 19.0884 13.4485C19.0338 13.4814 18.9538 13.5315 19.0338 13.528C19.1139 13.5245 19.2047 13.5245 19.2047 13.5661C19.2047 13.6076 19.379 13.6162 19.3646 13.6802C19.3501 13.7443 19.2884 13.9121 19.6008 13.9086C19.9133 13.9052 20.0915 13.855 20.2222 13.9347C20.3531 14.0142 20.5275 14.0522 20.7309 14.0401C20.9344 14.0281 21.265 14.0091 21.1561 14.0938C21.0472 14.1784 20.9746 14.3601 21.069 14.4104C21.1634 14.4605 21.2871 14.5019 21.2107 14.5435C21.1345 14.5851 21.098 14.637 21.1961 14.6732C21.2945 14.7094 21.2653 14.7528 21.2616 14.7614C21.2608 14.7636 21.241 14.769 21.2104 14.7758C21.3551 14.8442 21.4063 14.9192 21.4881 14.9504C21.5972 14.9919 21.63 15.0126 21.7063 14.9919C21.7826 14.9712 21.837 14.9557 21.9026 14.9762C21.9681 14.9971 22.0553 14.9557 22.1537 14.9139C22.2518 14.8723 22.3608 14.9089 22.3935 14.857C22.4263 14.8047 22.4809 14.7737 22.6009 14.7633C22.7208 14.7531 22.7208 14.6906 22.6444 14.6906C22.568 14.6906 22.459 14.7373 22.459 14.67C22.459 14.6023 22.3608 14.618 22.3608 14.5608C22.3608 14.5036 22.3498 14.4673 22.2189 14.431C22.0881 14.3946 22.3935 14.3791 22.459 14.4103C22.5244 14.4413 22.7535 14.4155 22.7752 14.4623C22.7971 14.509 22.917 14.5245 22.917 14.4673C22.917 14.4103 23.0589 14.3894 23.168 14.3999C23.2773 14.4103 23.5172 14.3323 23.6153 14.3167C23.6666 14.3086 23.6852 14.2794 23.7131 14.2546C23.6414 14.2081 23.5269 14.136 23.475 14.1151C23.3968 14.0841 23.5273 14.0655 23.5141 14.0221C23.5011 13.9786 23.5141 13.9475 23.684 13.9413C23.8536 13.9351 23.8275 13.8728 23.7361 13.8479C23.6447 13.823 23.7752 13.7547 23.8667 13.7299C23.9041 13.7197 23.9542 13.6891 24 13.647C23.8263 13.6157 23.5775 13.6186 23.473 13.6214C23.3361 13.6252 23.5616 13.5488 23.5697 13.4795C23.5776 13.4105 23.1829 13.399 23.0297 13.3836C22.8766 13.3683 22.9168 13.2916 23.0781 13.2879C23.2394 13.2839 22.9893 13.2303 22.772 13.2455C22.5544 13.2608 22.2481 13.3185 22.0708 13.3645C21.8934 13.4105 21.5873 13.2303 21.3858 13.2685C21.1843 13.3069 20.9023 13.3069 20.9103 13.2302C20.9184 13.1534 20.8298 13.0882 20.6283 13.096C20.427 13.1036 20.4752 13 20.3222 13C20.169 13 20.3222 13.0882 20.2174 13.1112C20.1126 13.1343 19.75 13.1765 19.7258 13.2455C19.7016 13.3145 19.9194 13.4296 19.8467 13.4987C19.7741 13.5678 19.5324 13.5101 19.4599 13.4374C19.3872 13.3645 19.6693 13.2533 19.621 13.2111C19.5875 13.1818 19.5443 13.1273 19.5729 13.0913C19.5282 13.0981 19.4886 13.1087 19.4627 13.1249Z" fill="#C6E3FF"/>
</g>
<g filter="url(#filter9_d)">
<path fill-rule="evenodd" clip-rule="evenodd" d="M25.06 14.4556C25.1178 14.571 25.1178 14.7733 25.0947 14.8119C25.0832 14.8311 25.0402 14.8863 25 14.9372C25.0522 14.9867 25.1365 15.0226 25.2856 14.9832C25.4681 14.9347 25.5545 15.0314 25.6218 14.8624C25.6743 14.7302 25.861 14.5501 26 14.435L25.9955 14.4327C25.8606 14.3849 25.6548 14.1114 25.4491 14.0758C25.3593 14.0602 25.2686 14.029 25.1803 14C25.1546 14.0749 25.1324 14.1274 25.1178 14.1375C25.0489 14.1859 25.0025 14.34 25.06 14.4556Z" fill="#C6E3FF"/>
</g>
<g filter="url(#filter10_d)">
<path fill-rule="evenodd" clip-rule="evenodd" d="M18.2687 15.9107C18.1565 15.7844 18.0797 15.7076 18.0518 15.7425C18.0237 15.7777 17.9046 15.7917 17.8208 15.7425C17.7368 15.6937 17.6947 15.6026 17.6318 15.6026C17.5732 15.6026 17.3708 15.4879 17.258 15.3933C17.2569 15.408 17.2565 15.4225 17.2578 15.4348C17.2645 15.495 17.1638 15.5354 17.0497 15.5419C16.9356 15.5488 16.9491 15.6764 16.9491 15.7632C16.9491 15.8506 16.855 15.8506 16.8147 15.9446C16.7745 16.0384 16.8282 16.0587 16.7342 16.1057C16.6402 16.1524 16.6134 16.2333 16.6669 16.3137C16.7206 16.3939 16.6602 16.4679 16.6469 16.5148C16.6336 16.5618 16.7276 16.5821 16.8215 16.6691C16.9156 16.7565 16.9289 16.6355 16.9693 16.7026C17.0095 16.7699 16.9424 16.8908 16.8349 16.8908C16.8268 16.8908 16.8185 16.893 16.8102 16.8948C16.8659 16.9526 16.8953 17.0128 16.8688 17.0504C16.8199 17.1206 16.7779 17.1206 16.8688 17.2042C16.9598 17.288 17.0229 17.1621 17.0999 17.267C17.1768 17.372 17.2398 17.4349 17.3167 17.2532C17.3937 17.071 17.4498 16.8126 17.5896 16.7707C17.7297 16.7284 18.0166 16.6729 18.1846 16.4486C18.3525 16.225 18.2636 16.2124 18.3525 16.1411C18.4227 16.0856 18.3808 16.0366 18.2687 15.9107Z" fill="#C6E3FF"/>
</g>
<g filter="url(#filter11_d)">
<path fill-rule="evenodd" clip-rule="evenodd" d="M23.7388 3.80886C23.7298 3.72614 23.4546 3.79212 23.3262 3.70127C23.1978 3.60995 22.9777 4.02403 22.9318 4.19772C22.8858 4.37141 22.5466 4.56171 22.5466 4.56171C22.5466 4.56171 21.5651 4.56996 21.4825 4.56996C21.4253 4.56996 21.1997 4.74545 21.0673 4.85255C21.0714 4.85721 21.0754 4.862 21.079 4.86761C21.1783 5.02923 20.8176 5.12833 20.4737 5.14076C20.3679 5.14447 20.2883 5.15427 20.2269 5.16204C20.239 5.20005 20.2483 5.24189 20.2446 5.27309C20.2419 5.29293 20.2051 5.31744 20.1526 5.34266C20.1 5.43889 19.6779 5.62453 19.4419 5.73678C19.1805 5.86086 18.8228 5.79882 18.8228 5.61258C18.8228 5.42658 19.0155 5.46363 19.0567 5.55054C19.0722 5.58293 19.1187 5.55939 19.1815 5.51862C19.1162 5.46124 19.1173 5.36956 19.1313 5.29915C19.0525 5.26795 19.1753 4.99026 19.0155 4.94245C18.8504 4.8926 18.6577 5.15343 18.6851 4.99181C18.7127 4.83044 18.9604 4.69404 18.809 4.48306C18.6577 4.27207 18.3826 4.27207 18.3275 4.43333C18.2725 4.59483 18.0798 4.52035 18.0112 4.64443C17.9424 4.76852 17.8735 5.04154 17.9286 5.24034C17.9835 5.43877 17.9148 5.53799 17.7085 5.64976C17.5021 5.76141 17.3941 5.47894 17.4745 5.11614C17.5296 4.86761 17.681 4.63212 17.5433 4.63212C17.4056 4.63212 17.7222 4.33411 18.011 4.27207C18.2999 4.20979 18.6577 4.23489 18.6577 4.1603C18.6577 4.14512 18.6708 4.1352 18.6927 4.12827C18.6339 4.08619 18.5684 4.04686 18.5159 4.01745C18.5105 4.03323 18.4994 4.04817 18.4788 4.06085C18.3655 4.13209 18.3963 3.94896 18.1899 3.94896C17.9833 3.94896 17.7772 4.12265 17.612 4.04853C17.4469 3.97394 17.5295 3.87472 17.3782 3.87472C17.2267 3.87472 17.4883 3.61401 17.268 3.72578C17.0479 3.83755 16.7177 4.11057 16.5665 3.98649C16.415 3.86241 16.2775 4.02379 16.1674 3.92433C16.0573 3.82488 16.5525 3.55209 16.7865 3.5644C16.8441 3.56727 16.8966 3.54456 16.9458 3.50882C16.8228 3.46817 16.569 3.37876 16.5021 3.45263C16.4196 3.5436 16.3004 3.48539 16.2362 3.41115C16.172 3.33668 16.0895 3.4359 15.9793 3.3203C15.8692 3.20411 15.7592 3.28707 15.695 3.3117C15.6308 3.33668 15.5483 3.27034 15.4289 3.22921C15.3098 3.18761 15.4015 3.08015 15.3005 3.01392C15.1996 2.9477 15.1938 3.1392 15.1938 3.1392L6.64375 3.1808C6.65343 3.19383 6.6631 3.2065 6.6741 3.2169C6.77719 3.31624 6.69464 3.39047 6.72909 3.50858C6.76354 3.62644 6.73598 3.79392 6.63275 3.79392C6.52966 3.79392 6.51588 3.6886 6.59141 3.65119C6.66707 3.61401 6.62586 3.4775 6.5502 3.4775C6.50607 3.4775 6.48818 3.43076 6.49004 3.37601C6.3497 3.41103 6.1883 3.39501 6 3.37481C6.00305 3.38198 6.00596 3.38904 6.00663 3.39693C6.01352 3.47128 6.05473 3.63875 6.16485 3.76905C6.27497 3.89947 6.19917 3.98016 6.3024 4.02977C6.40562 4.07937 6.39873 4.13532 6.3024 4.12265C6.20606 4.11045 6.27483 4.19114 6.24064 4.3775C6.20619 4.56375 6.21308 4.94806 6.19241 5.06641C6.17174 5.18403 6.02027 5.37661 6.10985 5.50069C6.19917 5.62477 6.26118 5.79846 6.21295 5.95362C6.16485 6.10879 6.17161 6.20167 6.24727 6.31965C6.32294 6.43764 6.26105 6.64241 6.34374 6.6858C6.4263 6.72943 6.50196 6.8161 6.57763 6.92775C6.65329 7.03964 6.72207 6.97126 6.73572 7.08303C6.7495 7.19468 6.7495 7.21333 6.85948 7.25672C6.96974 7.30011 6.90083 7.41164 6.90083 7.4738C6.90083 7.53572 7.04527 7.64773 7.22416 7.79034C7.40292 7.93295 7.25159 8.05081 7.38225 8.05081C7.51304 8.05081 7.63681 8.11919 7.76747 8.19366C7.89813 8.26814 7.93947 8.2245 8.02892 8.24315C8.11823 8.2618 8.28348 8.43561 8.3178 8.55348C8.33396 8.60894 8.35503 8.66728 8.3875 8.73015L9.10069 8.64576C9.10069 8.64576 9.32132 8.78514 9.44615 8.81156C9.57111 8.83798 10.2472 9.06331 10.2472 9.06331L11.1291 9.05638L11.2319 8.93732H11.717C11.717 8.93732 12.0257 9.20903 12.0698 9.22265C12.1139 9.23568 12.2683 9.36156 12.2683 9.44129C12.2683 9.52078 12.305 9.58713 12.3785 9.62024C12.452 9.65335 12.7019 9.79919 12.7386 9.7858C12.7753 9.77289 12.849 9.52078 12.9811 9.5276C13.1135 9.53405 13.4735 9.6267 13.5323 9.81246C13.591 9.99822 13.7673 10.1508 13.8263 10.1903C13.885 10.23 13.8557 10.3427 13.8998 10.4026C13.9438 10.4623 13.9365 10.5749 13.9878 10.5749C14.0395 10.5749 14.304 10.7208 14.4215 10.714C14.4566 10.7122 14.5029 10.7312 14.5506 10.7575C14.5649 10.5359 14.3119 10.4985 14.4609 10.3966C14.6329 10.2785 14.454 10.1793 14.5365 10.1297C14.6192 10.0801 14.7635 10.0304 14.7635 9.95603C14.7635 9.88155 14.8392 9.88155 14.9492 9.89398C15.0593 9.90618 15.2656 9.73237 15.2518 9.66423C15.2381 9.59597 15.2724 9.58378 15.4032 9.60829C15.5338 9.63327 15.5133 9.47165 15.5958 9.49664C15.6784 9.52138 15.7473 9.56489 15.7541 9.50907C15.7608 9.45324 15.8435 9.46568 15.9054 9.54015C15.9673 9.6145 16.146 9.63327 16.1598 9.54649C16.1736 9.45958 16.2768 9.54648 16.3663 9.63339C16.4556 9.72029 16.4969 9.69531 16.6276 9.70153C16.7584 9.70786 16.7584 9.67666 16.7651 9.60231C16.772 9.52796 16.9096 9.76357 17.0404 9.776C17.171 9.78855 17.0679 9.70153 16.9716 9.63339C16.8753 9.56513 16.9921 9.53393 16.9096 9.47823C16.827 9.42228 17.0127 9.34769 17.1778 9.35427C17.3429 9.36024 17.336 9.39766 17.398 9.31075C17.4599 9.22361 17.5218 9.31075 17.5218 9.38511C17.5218 9.4597 17.7901 9.34183 17.9346 9.34183C18.079 9.34183 18.2097 9.45336 18.2235 9.52808C18.2372 9.60243 18.3336 9.63973 18.4368 9.55892C18.5399 9.47835 18.6294 9.38523 18.7257 9.47189C18.822 9.55892 18.9182 9.67678 19.0352 9.78234C19.1521 9.88765 18.9802 10.0183 19.0421 10.0988C19.1041 10.1794 19.0352 10.2912 19.1728 10.3781C19.3103 10.465 19.1866 10.6449 19.2967 10.6698C19.4068 10.6945 19.4961 10.8496 19.5099 10.9116C19.5237 10.9737 19.73 11.0543 19.7438 10.9489C19.7576 10.8435 19.8678 10.7192 19.8815 10.6201C19.8953 10.5208 19.7989 10.167 19.7095 10.0554C19.6202 9.94359 19.7301 9.91861 19.6202 9.78867C19.51 9.65802 19.4413 9.4285 19.4482 9.24238C19.455 9.05614 19.6958 8.75215 19.8127 8.65891C19.9297 8.56615 20.0604 8.61564 20.0879 8.5163C20.1155 8.41708 20.2599 8.29312 20.3424 8.29312C20.4249 8.29312 20.5142 8.31153 20.528 8.23108C20.5418 8.15039 20.6793 8.05081 20.8582 8.02619C21.0371 8.00133 20.9339 7.91418 20.8858 7.83995C20.8377 7.76548 20.9271 7.691 20.9615 7.74049C20.9959 7.79034 21.106 7.79644 21.1747 7.75292C21.2435 7.70953 21.4018 7.59179 21.2503 7.58557C21.0989 7.57935 21.0646 7.52341 21.154 7.49233C21.2433 7.46149 21.1678 7.31254 21.0439 7.30011C20.92 7.28768 20.9613 7.23209 21.037 7.16336C21.1127 7.09522 20.9269 6.98369 20.8376 6.92763C20.7481 6.8718 20.8926 6.84084 20.9613 6.82841C21.0301 6.81598 20.9751 6.5304 21.0096 6.46226C21.0439 6.39413 21.1609 6.39413 21.1128 6.46226C21.0646 6.53028 20.9958 6.64217 21.0852 6.73517C21.1747 6.82829 21.2022 6.92751 21.1678 7.07036C21.1333 7.21321 21.2022 7.17603 21.3053 6.98955C21.4086 6.80343 21.4222 6.64217 21.3536 6.6234C21.2847 6.60499 21.2916 6.41875 21.3674 6.50554C21.4429 6.59256 21.4704 6.60499 21.5875 6.4931C21.7043 6.38145 21.8282 6.18936 21.7526 6.14572C21.6769 6.10233 21.787 6.0587 21.9246 6.06527C22.0621 6.07137 22.3579 5.99044 22.3786 5.95339C22.4457 5.83217 21.9039 6.00921 21.9039 5.94095C21.9039 5.87258 22.2479 5.80432 22.4061 5.79834C22.5643 5.79213 22.4888 5.59979 22.5575 5.68036C22.6262 5.76105 22.7295 5.7485 22.8188 5.69901C22.9084 5.6494 22.8396 5.50667 22.7364 5.48204C22.6333 5.45694 22.812 5.3949 22.7777 5.33919C22.7432 5.28325 22.8466 5.05983 22.9771 5.03521C23.1079 5.01046 23.046 4.93575 23.156 4.93575C23.266 4.93575 23.2867 4.81789 23.3829 4.7311C23.4792 4.64408 23.6169 4.86737 23.7682 4.74341C23.8301 4.69261 23.914 4.63619 24 4.5867C23.6475 4.1664 23.7473 3.88524 23.7388 3.80886Z" fill="#40A0FF"/>
<path fill-rule="evenodd" clip-rule="evenodd" d="M23.7388 3.80886C23.7298 3.72614 23.4546 3.79212 23.3262 3.70127C23.1978 3.60995 22.9777 4.02403 22.9318 4.19772C22.8858 4.37141 22.5466 4.56171 22.5466 4.56171C22.5466 4.56171 21.5651 4.56996 21.4825 4.56996C21.4253 4.56996 21.1997 4.74545 21.0673 4.85255C21.0714 4.85721 21.0754 4.862 21.079 4.86761C21.1783 5.02923 20.8176 5.12833 20.4737 5.14076C20.3679 5.14447 20.2883 5.15427 20.2269 5.16204C20.239 5.20005 20.2483 5.24189 20.2446 5.27309C20.2419 5.29293 20.2051 5.31744 20.1526 5.34266C20.1 5.43889 19.6779 5.62453 19.4419 5.73678C19.1805 5.86086 18.8228 5.79882 18.8228 5.61258C18.8228 5.42658 19.0155 5.46363 19.0567 5.55054C19.0722 5.58293 19.1187 5.55939 19.1815 5.51862C19.1162 5.46124 19.1173 5.36956 19.1313 5.29915C19.0525 5.26795 19.1753 4.99026 19.0155 4.94245C18.8504 4.8926 18.6577 5.15343 18.6851 4.99181C18.7127 4.83044 18.9604 4.69404 18.809 4.48306C18.6577 4.27207 18.3826 4.27207 18.3275 4.43333C18.2725 4.59483 18.0798 4.52035 18.0112 4.64443C17.9424 4.76852 17.8735 5.04154 17.9286 5.24034C17.9835 5.43877 17.9148 5.53799 17.7085 5.64976C17.5021 5.76141 17.3941 5.47894 17.4745 5.11614C17.5296 4.86761 17.681 4.63212 17.5433 4.63212C17.4056 4.63212 17.7222 4.33411 18.011 4.27207C18.2999 4.20979 18.6577 4.23489 18.6577 4.1603C18.6577 4.14512 18.6708 4.1352 18.6927 4.12827C18.6339 4.08619 18.5684 4.04686 18.5159 4.01745C18.5105 4.03323 18.4994 4.04817 18.4788 4.06085C18.3655 4.13209 18.3963 3.94896 18.1899 3.94896C17.9833 3.94896 17.7772 4.12265 17.612 4.04853C17.4469 3.97394 17.5295 3.87472 17.3782 3.87472C17.2267 3.87472 17.4883 3.61401 17.268 3.72578C17.0479 3.83755 16.7177 4.11057 16.5665 3.98649C16.415 3.86241 16.2775 4.02379 16.1674 3.92433C16.0573 3.82488 16.5525 3.55209 16.7865 3.5644C16.8441 3.56727 16.8966 3.54456 16.9458 3.50882C16.8228 3.46817 16.569 3.37876 16.5021 3.45263C16.4196 3.5436 16.3004 3.48539 16.2362 3.41115C16.172 3.33668 16.0895 3.4359 15.9793 3.3203C15.8692 3.20411 15.7592 3.28707 15.695 3.3117C15.6308 3.33668 15.5483 3.27034 15.4289 3.22921C15.3098 3.18761 15.4015 3.08015 15.3005 3.01392C15.1996 2.9477 15.1938 3.1392 15.1938 3.1392L6.64375 3.1808C6.65343 3.19383 6.6631 3.2065 6.6741 3.2169C6.77719 3.31624 6.69464 3.39047 6.72909 3.50858C6.76354 3.62644 6.73598 3.79392 6.63275 3.79392C6.52966 3.79392 6.51588 3.6886 6.59141 3.65119C6.66707 3.61401 6.62586 3.4775 6.5502 3.4775C6.50607 3.4775 6.48818 3.43076 6.49004 3.37601C6.3497 3.41103 6.1883 3.39501 6 3.37481C6.00305 3.38198 6.00596 3.38904 6.00663 3.39693C6.01352 3.47128 6.05473 3.63875 6.16485 3.76905C6.27497 3.89947 6.19917 3.98016 6.3024 4.02977C6.40562 4.07937 6.39873 4.13532 6.3024 4.12265C6.20606 4.11045 6.27483 4.19114 6.24064 4.3775C6.20619 4.56375 6.21308 4.94806 6.19241 5.06641C6.17174 5.18403 6.02027 5.37661 6.10985 5.50069C6.19917 5.62477 6.26118 5.79846 6.21295 5.95362C6.16485 6.10879 6.17161 6.20167 6.24727 6.31965C6.32294 6.43764 6.26105 6.64241 6.34374 6.6858C6.4263 6.72943 6.50196 6.8161 6.57763 6.92775C6.65329 7.03964 6.72207 6.97126 6.73572 7.08303C6.7495 7.19468 6.7495 7.21333 6.85948 7.25672C6.96974 7.30011 6.90083 7.41164 6.90083 7.4738C6.90083 7.53572 7.04527 7.64773 7.22416 7.79034C7.40292 7.93295 7.25159 8.05081 7.38225 8.05081C7.51304 8.05081 7.63681 8.11919 7.76747 8.19366C7.89813 8.26814 7.93947 8.2245 8.02892 8.24315C8.11823 8.2618 8.28348 8.43561 8.3178 8.55348C8.33396 8.60894 8.35503 8.66728 8.3875 8.73015L9.10069 8.64576C9.10069 8.64576 9.32132 8.78514 9.44615 8.81156C9.57111 8.83798 10.2472 9.06331 10.2472 9.06331L11.1291 9.05638L11.2319 8.93732H11.717C11.717 8.93732 12.0257 9.20903 12.0698 9.22265C12.1139 9.23568 12.2683 9.36156 12.2683 9.44129C12.2683 9.52078 12.305 9.58713 12.3785 9.62024C12.452 9.65335 12.7019 9.79919 12.7386 9.7858C12.7753 9.77289 12.849 9.52078 12.9811 9.5276C13.1135 9.53405 13.4735 9.6267 13.5323 9.81246C13.591 9.99822 13.7673 10.1508 13.8263 10.1903C13.885 10.23 13.8557 10.3427 13.8998 10.4026C13.9438 10.4623 13.9365 10.5749 13.9878 10.5749C14.0395 10.5749 14.304 10.7208 14.4215 10.714C14.4566 10.7122 14.5029 10.7312 14.5506 10.7575C14.5649 10.5359 14.3119 10.4985 14.4609 10.3966C14.6329 10.2785 14.454 10.1793 14.5365 10.1297C14.6192 10.0801 14.7635 10.0304 14.7635 9.95603C14.7635 9.88155 14.8392 9.88155 14.9492 9.89398C15.0593 9.90618 15.2656 9.73237 15.2518 9.66423C15.2381 9.59597 15.2724 9.58378 15.4032 9.60829C15.5338 9.63327 15.5133 9.47165 15.5958 9.49664C15.6784 9.52138 15.7473 9.56489 15.7541 9.50907C15.7608 9.45324 15.8435 9.46568 15.9054 9.54015C15.9673 9.6145 16.146 9.63327 16.1598 9.54649C16.1736 9.45958 16.2768 9.54648 16.3663 9.63339C16.4556 9.72029 16.4969 9.69531 16.6276 9.70153C16.7584 9.70786 16.7584 9.67666 16.7651 9.60231C16.772 9.52796 16.9096 9.76357 17.0404 9.776C17.171 9.78855 17.0679 9.70153 16.9716 9.63339C16.8753 9.56513 16.9921 9.53393 16.9096 9.47823C16.827 9.42228 17.0127 9.34769 17.1778 9.35427C17.3429 9.36024 17.336 9.39766 17.398 9.31075C17.4599 9.22361 17.5218 9.31075 17.5218 9.38511C17.5218 9.4597 17.7901 9.34183 17.9346 9.34183C18.079 9.34183 18.2097 9.45336 18.2235 9.52808C18.2372 9.60243 18.3336 9.63973 18.4368 9.55892C18.5399 9.47835 18.6294 9.38523 18.7257 9.47189C18.822 9.55892 18.9182 9.67678 19.0352 9.78234C19.1521 9.88765 18.9802 10.0183 19.0421 10.0988C19.1041 10.1794 19.0352 10.2912 19.1728 10.3781C19.3103 10.465 19.1866 10.6449 19.2967 10.6698C19.4068 10.6945 19.4961 10.8496 19.5099 10.9116C19.5237 10.9737 19.73 11.0543 19.7438 10.9489C19.7576 10.8435 19.8678 10.7192 19.8815 10.6201C19.8953 10.5208 19.7989 10.167 19.7095 10.0554C19.6202 9.94359 19.7301 9.91861 19.6202 9.78867C19.51 9.65802 19.4413 9.4285 19.4482 9.24238C19.455 9.05614 19.6958 8.75215 19.8127 8.65891C19.9297 8.56615 20.0604 8.61564 20.0879 8.5163C20.1155 8.41708 20.2599 8.29312 20.3424 8.29312C20.4249 8.29312 20.5142 8.31153 20.528 8.23108C20.5418 8.15039 20.6793 8.05081 20.8582 8.02619C21.0371 8.00133 20.9339 7.91418 20.8858 7.83995C20.8377 7.76548 20.9271 7.691 20.9615 7.74049C20.9959 7.79034 21.106 7.79644 21.1747 7.75292C21.2435 7.70953 21.4018 7.59179 21.2503 7.58557C21.0989 7.57935 21.0646 7.52341 21.154 7.49233C21.2433 7.46149 21.1678 7.31254 21.0439 7.30011C20.92 7.28768 20.9613 7.23209 21.037 7.16336C21.1127 7.09522 20.9269 6.98369 20.8376 6.92763C20.7481 6.8718 20.8926 6.84084 20.9613 6.82841C21.0301 6.81598 20.9751 6.5304 21.0096 6.46226C21.0439 6.39413 21.1609 6.39413 21.1128 6.46226C21.0646 6.53028 20.9958 6.64217 21.0852 6.73517C21.1747 6.82829 21.2022 6.92751 21.1678 7.07036C21.1333 7.21321 21.2022 7.17603 21.3053 6.98955C21.4086 6.80343 21.4222 6.64217 21.3536 6.6234C21.2847 6.60499 21.2916 6.41875 21.3674 6.50554C21.4429 6.59256 21.4704 6.60499 21.5875 6.4931C21.7043 6.38145 21.8282 6.18936 21.7526 6.14572C21.6769 6.10233 21.787 6.0587 21.9246 6.06527C22.0621 6.07137 22.3579 5.99044 22.3786 5.95339C22.4457 5.83217 21.9039 6.00921 21.9039 5.94095C21.9039 5.87258 22.2479 5.80432 22.4061 5.79834C22.5643 5.79213 22.4888 5.59979 22.5575 5.68036C22.6262 5.76105 22.7295 5.7485 22.8188 5.69901C22.9084 5.6494 22.8396 5.50667 22.7364 5.48204C22.6333 5.45694 22.812 5.3949 22.7777 5.33919C22.7432 5.28325 22.8466 5.05983 22.9771 5.03521C23.1079 5.01046 23.046 4.93575 23.156 4.93575C23.266 4.93575 23.2867 4.81789 23.3829 4.7311C23.4792 4.64408 23.6169 4.86737 23.7682 4.74341C23.8301 4.69261 23.914 4.63619 24 4.5867C23.6475 4.1664 23.7473 3.88524 23.7388 3.80886Z" stroke="white"/>
</g>
</g>
<defs>
<filter id="filter0_d" x="4" y="6" width="18" height="14" filterUnits="userSpaceOnUse" color-interpolation-filters="sRGB">
<feFlood flood-opacity="0" result="BackgroundImageFix"/>
<feColorMatrix in="SourceAlpha" type="matrix" values="0 0 0 0 0 0 0 0 0 0 0 0 0 0 0 0 0 0 127 0"/>
<feOffset dy="2"/>
<feGaussianBlur stdDeviation="2"/>
<feColorMatrix type="matrix" values="0 0 0 0 0 0 0 0 0 0 0 0 0 0 0 0 0 0 0.01 0"/>
<feBlend mode="normal" in2="BackgroundImageFix" result="effect1_dropShadow"/>
<feBlend mode="normal" in="SourceGraphic" in2="effect1_dropShadow" result="shape"/>
</filter>
<filter id="filter1_d" x="15" y="12" width="20" height="21" filterUnits="userSpaceOnUse" color-interpolation-filters="sRGB">
<feFlood flood-opacity="0" result="BackgroundImageFix"/>
<feColorMatrix in="SourceAlpha" type="matrix" values="0 0 0 0 0 0 0 0 0 0 0 0 0 0 0 0 0 0 127 0"/>
<feOffset dy="2"/>
<feGaussianBlur stdDeviation="2"/>
<feColorMatrix type="matrix" values="0 0 0 0 0 0 0 0 0 0 0 0 0 0 0 0 0 0 0.01 0"/>
<feBlend mode="normal" in2="BackgroundImageFix" result="effect1_dropShadow"/>
<feBlend mode="normal" in="SourceGraphic" in2="effect1_dropShadow" result="shape"/>
</filter>
<filter id="filter2_d" x="16.2861" y="20.0806" width="14.0842" height="19.9966" filterUnits="userSpaceOnUse" color-interpolation-filters="sRGB">
<feFlood flood-opacity="0" result="BackgroundImageFix"/>
<feColorMatrix in="SourceAlpha" type="matrix" values="0 0 0 0 0 0 0 0 0 0 0 0 0 0 0 0 0 0 127 0"/>
<feOffset dy="2"/>
<feGaussianBlur stdDeviation="2"/>
<feColorMatrix type="matrix" values="0 0 0 0 0 0 0 0 0 0 0 0 0 0 0 0 0 0 0.01 0"/>
<feBlend mode="normal" in2="BackgroundImageFix" result="effect1_dropShadow"/>
<feBlend mode="normal" in="SourceGraphic" in2="effect1_dropShadow" result="shape"/>
</filter>
<filter id="filter3_d" x="15" y="19" width="12" height="21" filterUnits="userSpaceOnUse" color-interpolation-filters="sRGB">
<feFlood flood-opacity="0" result="BackgroundImageFix"/>
<feColorMatrix in="SourceAlpha" type="matrix" values="0 0 0 0 0 0 0 0 0 0 0 0 0 0 0 0 0 0 127 0"/>
<feOffset dy="2"/>
<feGaussianBlur stdDeviation="2"/>
<feColorMatrix type="matrix" values="0 0 0 0 0 0 0 0 0 0 0 0 0 0 0 0 0 0 0.01 0"/>
<feBlend mode="normal" in2="BackgroundImageFix" result="effect1_dropShadow"/>
<feBlend mode="normal" in="SourceGraphic" in2="effect1_dropShadow" result="shape"/>
</filter>
<filter id="filter4_d" x="18" y="19" width="11" height="10" filterUnits="userSpaceOnUse" color-interpolation-filters="sRGB">
<feFlood flood-opacity="0" result="BackgroundImageFix"/>
<feColorMatrix in="SourceAlpha" type="matrix" values="0 0 0 0 0 0 0 0 0 0 0 0 0 0 0 0 0 0 127 0"/>
<feOffset dy="2"/>
<feGaussianBlur stdDeviation="2"/>
<feColorMatrix type="matrix" values="0 0 0 0 0 0 0 0 0 0 0 0 0 0 0 0 0 0 0.01 0"/>
<feBlend mode="normal" in2="BackgroundImageFix" result="effect1_dropShadow"/>
<feBlend mode="normal" in="SourceGraphic" in2="effect1_dropShadow" result="shape"/>
</filter>
<filter id="filter5_d" x="13" y="11" width="12" height="12" filterUnits="userSpaceOnUse" color-interpolation-filters="sRGB">
<feFlood flood-opacity="0" result="BackgroundImageFix"/>
<feColorMatrix in="SourceAlpha" type="matrix" values="0 0 0 0 0 0 0 0 0 0 0 0 0 0 0 0 0 0 127 0"/>
<feOffset dy="2"/>
<feGaussianBlur stdDeviation="2"/>
<feColorMatrix type="matrix" values="0 0 0 0 0 0 0 0 0 0 0 0 0 0 0 0 0 0 0.01 0"/>
<feBlend mode="normal" in2="BackgroundImageFix" result="effect1_dropShadow"/>
<feBlend mode="normal" in="SourceGraphic" in2="effect1_dropShadow" result="shape"/>
</filter>
<filter id="filter6_d" x="16" y="17" width="12" height="11" filterUnits="userSpaceOnUse" color-interpolation-filters="sRGB">
<feFlood flood-opacity="0" result="BackgroundImageFix"/>
<feColorMatrix in="SourceAlpha" type="matrix" values="0 0 0 0 0 0 0 0 0 0 0 0 0 0 0 0 0 0 127 0"/>
<feOffset dy="2"/>
<feGaussianBlur stdDeviation="2"/>
<feColorMatrix type="matrix" values="0 0 0 0 0 0 0 0 0 0 0 0 0 0 0 0 0 0 0.01 0"/>
<feBlend mode="normal" in2="BackgroundImageFix" result="effect1_dropShadow"/>
<feBlend mode="normal" in="SourceGraphic" in2="effect1_dropShadow" result="shape"/>
</filter>
<filter id="filter7_d" x="14" y="13" width="11" height="14" filterUnits="userSpaceOnUse" color-interpolation-filters="sRGB">
<feFlood flood-opacity="0" result="BackgroundImageFix"/>
<feColorMatrix in="SourceAlpha" type="matrix" values="0 0 0 0 0 0 0 0 0 0 0 0 0 0 0 0 0 0 127 0"/>
<feOffset dy="2"/>
<feGaussianBlur stdDeviation="2"/>
<feColorMatrix type="matrix" values="0 0 0 0 0 0 0 0 0 0 0 0 0 0 0 0 0 0 0.01 0"/>
<feBlend mode="normal" in2="BackgroundImageFix" result="effect1_dropShadow"/>
<feBlend mode="normal" in="SourceGraphic" in2="effect1_dropShadow" result="shape"/>
</filter>
<filter id="filter8_d" x="15" y="11" width="13" height="10" filterUnits="userSpaceOnUse" color-interpolation-filters="sRGB">
<feFlood flood-opacity="0" result="BackgroundImageFix"/>
<feColorMatrix in="SourceAlpha" type="matrix" values="0 0 0 0 0 0 0 0 0 0 0 0 0 0 0 0 0 0 127 0"/>
<feOffset dy="2"/>
<feGaussianBlur stdDeviation="2"/>
<feColorMatrix type="matrix" values="0 0 0 0 0 0 0 0 0 0 0 0 0 0 0 0 0 0 0.01 0"/>
<feBlend mode="normal" in2="BackgroundImageFix" result="effect1_dropShadow"/>
<feBlend mode="normal" in="SourceGraphic" in2="effect1_dropShadow" result="shape"/>
</filter>
<filter id="filter9_d" x="21" y="12" width="9" height="9" filterUnits="userSpaceOnUse" color-interpolation-filters="sRGB">
<feFlood flood-opacity="0" result="BackgroundImageFix"/>
<feColorMatrix in="SourceAlpha" type="matrix" values="0 0 0 0 0 0 0 0 0 0 0 0 0 0 0 0 0 0 127 0"/>
<feOffset dy="2"/>
<feGaussianBlur stdDeviation="2"/>
<feColorMatrix type="matrix" values="0 0 0 0 0 0 0 0 0 0 0 0 0 0 0 0 0 0 0.01 0"/>
<feBlend mode="normal" in2="BackgroundImageFix" result="effect1_dropShadow"/>
<feBlend mode="normal" in="SourceGraphic" in2="effect1_dropShadow" result="shape"/>
</filter>
<filter id="filter10_d" x="12.6396" y="13.3933" width="9.7472" height="9.97507" filterUnits="userSpaceOnUse" color-interpolation-filters="sRGB">
<feFlood flood-opacity="0" result="BackgroundImageFix"/>
<feColorMatrix in="SourceAlpha" type="matrix" values="0 0 0 0 0 0 0 0 0 0 0 0 0 0 0 0 0 0 127 0"/>
<feOffset dy="2"/>
<feGaussianBlur stdDeviation="2"/>
<feColorMatrix type="matrix" values="0 0 0 0 0 0 0 0 0 0 0 0 0 0 0 0 0 0 0.01 0"/>
<feBlend mode="normal" in2="BackgroundImageFix" result="effect1_dropShadow"/>
<feBlend mode="normal" in="SourceGraphic" in2="effect1_dropShadow" result="shape"/>
</filter>
<filter id="filter11_d" x="2" y="1" width="26" height="16" filterUnits="userSpaceOnUse" color-interpolation-filters="sRGB">
<feFlood flood-opacity="0" result="BackgroundImageFix"/>
<feColorMatrix in="SourceAlpha" type="matrix" values="0 0 0 0 0 0 0 0 0 0 0 0 0 0 0 0 0 0 127 0"/>
<feOffset dy="2"/>
<feGaussianBlur stdDeviation="2"/>
<feColorMatrix type="matrix" values="0 0 0 0 0 0 0 0 0 0 0 0 0 0 0 0 0 0 0.01 0"/>
<feBlend mode="normal" in2="BackgroundImageFix" result="effect1_dropShadow"/>
<feBlend mode="normal" in="SourceGraphic" in2="effect1_dropShadow" result="shape"/>
</filter>
<clipPath id="clip0">
<rect width="36" height="36" fill="white"/>
</clipPath>
</defs>
</svg>
