<svg height='100px' width='100px'  fill="#000000" xmlns="http://www.w3.org/2000/svg" xmlns:xlink="http://www.w3.org/1999/xlink" version="1.2" baseProfile="tiny" x="0px" y="0px" viewBox="0 0 100 100" xml:space="preserve"><path d="M50,5C25.187,5,5,25.187,5,50s20.187,45,45,45s45-20.187,45-45S74.813,5,50,5z M50,87.5c-20.678,0-37.5-16.822-37.5-37.5  S29.322,12.5,50,12.5S87.5,29.322,87.5,50S70.678,87.5,50,87.5z"></path><polygon points="67.5,63.965 36.035,32.5 42.5,32.5 42.5,27.5 27.5,27.5 27.5,42.5 32.5,42.5 32.5,36.035 63.965,67.5 57.5,67.5   57.5,72.5 72.5,72.5 72.5,57.5 67.5,57.5 "></polygon></svg>