<?xml version="1.0" encoding="utf-8"?>
<!-- Generator: Adobe Illustrator 16.0.3, SVG Export Plug-In . SVG Version: 6.00 Build 0)  -->
<!DOCTYPE svg PUBLIC "-//W3C//DTD SVG 1.1//EN" "http://www.w3.org/Graphics/SVG/1.1/DTD/svg11.dtd">
<svg version="1.1" id="Layer_1" xmlns="http://www.w3.org/2000/svg" xmlns:xlink="http://www.w3.org/1999/xlink" x="0px" y="0px"
	 width="612px" height="572.971px" viewBox="0 0 612 572.971" enable-background="new 0 0 612 572.971" xml:space="preserve">
<line fill="none" stroke="#CDCCCC" stroke-width="8" stroke-miterlimit="10" x1="310.559" y1="289.22" x2="310.559" y2="386.956"/>
<path fill="#52DBA9" d="M308.573,42.289c144.233,0,261.159,114.267,261.159,255.224c0,140.96-116.926,255.224-261.159,255.224
	c-144.235,0-261.161-114.264-261.161-255.224C47.413,156.556,164.338,42.289,308.573,42.289z"/>
<ellipse fill="#15B994" cx="262.637" cy="157.953" rx="90.982" ry="88.915"/>
<path fill="#15B994" d="M238.814,253.038c71.333,0,129.161,56.512,129.161,126.224c0,69.715-57.826,126.225-129.161,126.225
	c-71.334,0-129.16-56.51-129.16-126.225C109.654,309.55,167.479,253.038,238.814,253.038z"/>
<path fill="#15B994" d="M375.652,205.033c27.13,0,49.124,21.492,49.124,48.004c0,26.516-21.994,48.007-49.124,48.007
	c-27.129,0-49.12-21.491-49.12-48.007C326.532,226.525,348.523,205.033,375.652,205.033z"/>
<path fill="#15B994" d="M453.18,289.22c42.818,0,77.531,33.921,77.531,75.765c0,41.851-34.713,75.771-77.531,75.771
	c-42.815,0-77.525-33.92-77.525-75.771C375.654,323.141,410.363,289.22,453.18,289.22z"/>
<path fill="#15B994" d="M413.488,99.65c28.646,0,51.872,22.694,51.872,50.69c0,28-23.226,50.693-51.872,50.693
	c-28.647,0-51.869-22.693-51.869-50.693C361.619,122.344,384.841,99.65,413.488,99.65z"/>
<ellipse fill="#FFFFFF" cx="181.667" cy="434.373" rx="39.076" ry="38.186"/>
<path fill="#FFFFFF" d="M283.982,369.277c30.692,0,55.575,24.313,55.575,54.312s-24.883,54.311-55.575,54.311
	c-30.693,0-55.574-24.313-55.574-54.311C228.408,393.592,253.29,369.277,283.982,369.277z"/>
<ellipse fill="#FFFFFF" cx="150.73" cy="363.365" rx="29.593" ry="28.92"/>
<ellipse fill="#FFFFFF" cx="212.958" cy="373.035" rx="22.679" ry="22.163"/>
<path fill="#FFFFFF" d="M212.958,264.967c21.913,0,39.68,17.36,39.68,38.777c0,21.419-17.767,38.777-39.68,38.777
	c-21.915,0-39.681-17.358-39.681-38.777C173.277,282.327,191.043,264.967,212.958,264.967z"/>
<path fill="#FFFFFF" d="M298.333,285.44c19.711,0,35.694,15.616,35.694,34.882c0,19.27-15.982,34.885-35.694,34.885
	c-19.715,0-35.696-15.615-35.696-34.885C262.637,301.057,278.618,285.44,298.333,285.44z"/>
<ellipse fill="#FFFFFF" cx="472.137" cy="332.445" rx="33.17" ry="32.414"/>
<ellipse fill="#FFFFFF" cx="417.992" cy="379.262" rx="30.658" ry="29.96"/>
<ellipse fill="#FFFFFF" cx="481.388" cy="396.187" rx="23.494" ry="22.96"/>
<ellipse fill="#FFFFFF" cx="308.572" cy="141.712" rx="32.018" ry="31.288"/>
<ellipse fill="#FFFFFF" cx="224.746" cy="155.323" rx="44.321" ry="43.314"/>
<ellipse fill="#FFFFFF" cx="289.818" cy="198.537" rx="22.679" ry="22.163"/>
<path fill="#FFFFFF" d="M269.131,75.385c12.341,0,22.348,9.779,22.348,21.837c0,12.067-10.007,21.846-22.348,21.846
	c-12.34,0-22.347-9.779-22.347-21.846C246.784,85.164,256.791,75.385,269.131,75.385z"/>
<ellipse fill="#FFFFFF" cx="435.215" cy="156.042" rx="22.679" ry="22.163"/>
<ellipse fill="#FFFFFF" cx="391.933" cy="141.342" rx="16.438" ry="16.063"/>
<ellipse fill="#FFFFFF" cx="356.615" cy="271.74" rx="14.02" ry="13.701"/>
<ellipse fill="#FFFFFF" cx="395.313" cy="254.049" rx="22.68" ry="22.163"/>
</svg>
