<svg xmlns="http://www.w3.org/2000/svg" xmlns:xlink="http://www.w3.org/1999/xlink" width="100" height="100" viewBox="0 0 100 100"><g><g transform="translate(50 50) scale(0.69 0.69) rotate(0) translate(-50 -50)" style="fill:#143f5b"><svg fill="#143f5b" xmlns="http://www.w3.org/2000/svg" xmlns:xlink="http://www.w3.org/1999/xlink" version="1.1" x="0px" y="0px" viewBox="0 0 100 100" style="enable-background:new 0 0 100 100;" xml:space="preserve"><style type="text/css">
	.st0{fill:none;stroke:#143f5b;stroke-width:0.1;stroke-miterlimit:10;}
	.st1{fill:none;stroke:#143f5b;stroke-width:0.1;stroke-miterlimit:10;}
	.st2{fill:none;stroke:#143f5b;stroke-width:0.1;stroke-miterlimit:10;}
	.st3{fill:none;stroke:#143f5b;stroke-width:0.1;stroke-miterlimit:10;}
	.st4{fill:none;stroke:#143f5b;stroke-width:0.1;stroke-miterlimit:10;}
	.st5{fill:none;stroke:#143f5b;stroke-width:0.1;stroke-miterlimit:10;}
	.st6{fill:none;stroke:#143f5b;stroke-width:0.1;stroke-miterlimit:10;}
	.st7{fill:none;stroke:#143f5b;stroke-width:0.1;stroke-miterlimit:10;}
	.st8{fill:none;stroke:#143f5b;stroke-width:0.1;stroke-miterlimit:10;}
	.st9{fill:none;stroke:#143f5b;stroke-width:0.1;stroke-miterlimit:10;}
	.st10{fill:none;stroke:#143f5b;stroke-width:2;stroke-miterlimit:10;}
	.st11{fill:none;stroke:#143f5b;stroke-width:4;stroke-miterlimit:10;}
</style><path d="M8.4,94.4c0.8,0.8,2,0.8,2.8,0l25.7-25.7v14.3c0,1.1,0.9,2,2,2h4c1.1,0,2-0.9,2-2v-20c0-4.4-3.6-8-8-8h-20c-1.1,0-2,0.9-2,2  v4c0,1.1,0.9,2,2,2h14.3L5.6,88.8c-0.8,0.8-0.8,2,0,2.8L8.4,94.4z"></path><path d="M8.4,5.6L5.6,8.4c-0.8,0.8-0.8,2,0,2.8l25.7,25.7H16.9c-1.1,0-2,0.9-2,2v4c0,1.1,0.9,2,2,2h20c4.4,0,8-3.6,8-8v-20  c0-1.1-0.9-2-2-2h-4c-1.1,0-2,0.9-2,2v14.3L11.2,5.6C10.5,4.8,9.2,4.8,8.4,5.6z"></path><path d="M85.1,42.9v-4c0-1.1-0.9-2-2-2H68.7l25.7-25.7c0.8-0.8,0.8-2,0-2.8l-2.8-2.8c-0.8-0.8-2-0.8-2.8,0L63.1,31.3V16.9  c0-1.1-0.9-2-2-2h-4c-1.1,0-2,0.9-2,2v20c0,4.4,3.6,8,8,8h20C84.2,44.9,85.1,44,85.1,42.9z"></path><path d="M91.6,94.4l2.8-2.8c0.8-0.8,0.8-2,0-2.8L68.7,63.1h14.3c1.1,0,2-0.9,2-2v-4c0-1.1-0.9-2-2-2h-20c-4.4,0-8,3.6-8,8v20  c0,1.1,0.9,2,2,2h4c1.1,0,2-0.9,2-2V68.7l25.7,25.7C89.5,95.2,90.8,95.2,91.6,94.4z"></path></svg></g></g></svg>