<svg width="36" height="36" viewBox="0 0 36 36" fill="none" xmlns="http://www.w3.org/2000/svg">
<g clip-path="url(#clip0)">
<path d="M26.6893 18.931C27.7082 18.931 28.7171 19.1317 29.6584 19.5216C30.5997 19.9115 31.455 20.483 32.1755 21.2035C32.8959 21.9239 33.4674 22.7792 33.8573 23.7206C34.2472 24.6619 34.4479 25.6708 34.4479 26.6897C34.4479 28.7474 33.6305 30.7208 32.1755 32.1758C30.7204 33.6308 28.747 34.4483 26.6893 34.4483C25.6704 34.4483 24.6615 34.2476 23.7202 33.8577C22.7789 33.4678 21.9236 32.8963 21.2031 32.1758C19.7481 30.7208 18.9307 28.7474 18.9307 26.6897C18.9307 24.6319 19.7481 22.6585 21.2031 21.2035C22.6581 19.7485 24.6316 18.931 26.6893 18.931ZM27.0772 25.9138C26.7686 25.9138 26.4725 26.0364 26.2543 26.2547C26.036 26.4729 25.9134 26.7689 25.9134 27.0776C25.9134 27.3862 26.036 27.6823 26.2543 27.9005C26.4725 28.1188 26.7686 28.2414 27.0772 28.2414C27.3859 28.2414 27.6819 28.1188 27.9001 27.9005C28.1184 27.6823 28.241 27.3862 28.241 27.0776C28.241 26.7689 28.1184 26.4729 27.9001 26.2547C27.6819 26.0364 27.3859 25.9138 27.0772 25.9138ZM26.6893 21.2586C26.2777 21.2586 25.8831 21.4221 25.5921 21.7131C25.301 22.0041 25.1376 22.3988 25.1376 22.8103C25.1376 23.2219 25.301 23.6166 25.5921 23.9076C25.8831 24.1986 26.2777 24.3621 26.6893 24.3621C27.1008 24.3621 27.4955 24.1986 27.7865 23.9076C28.0775 23.6166 28.241 23.2219 28.241 22.8103C28.241 22.3988 28.0775 22.0041 27.7865 21.7131C27.4955 21.4221 27.1008 21.2586 26.6893 21.2586ZM21.9798 23.9741C21.5531 24.7112 21.8091 25.6578 22.5462 26.0845C23.291 26.519 24.2376 26.2629 24.672 25.5259C25.0988 24.7733 24.8427 23.8267 24.0979 23.4C23.3608 22.9733 22.422 23.2215 21.9798 23.9741Z" fill="#FF8A65"/>
<path d="M11.1716 20.4828C9.94894 20.4828 8.73826 20.242 7.60867 19.7741C6.47909 19.3062 5.45273 18.6204 4.58818 17.7559C3.72364 16.8913 3.03784 15.8649 2.56995 14.7354C2.10206 13.6058 1.86124 12.3951 1.86124 11.1724C1.86124 8.70319 2.84215 6.33506 4.58818 4.58904C6.33421 2.84301 8.70233 1.8621 11.1716 1.8621C12.3942 1.8621 13.6049 2.10292 14.7345 2.57081C15.8641 3.03869 16.8905 3.72449 17.755 4.58904C19.501 6.33506 20.4819 8.70319 20.4819 11.1724C20.4819 13.6417 19.501 16.0098 17.755 17.7559C16.009 19.5019 13.6408 20.4828 11.1716 20.4828ZM10.7061 12.1035C11.0765 12.1035 11.4317 11.9563 11.6936 11.6944C11.9555 11.4325 12.1026 11.0773 12.1026 10.7069C12.1026 10.3365 11.9555 9.98132 11.6936 9.71941C11.4317 9.45751 11.0765 9.31038 10.7061 9.31038C10.3357 9.31038 9.98046 9.45751 9.71856 9.71941C9.45666 9.98132 9.30952 10.3365 9.30952 10.7069C9.30952 11.0773 9.45666 11.4325 9.71856 11.6944C9.98046 11.9563 10.3357 12.1035 10.7061 12.1035ZM11.1716 17.6897C11.6654 17.6897 12.1391 17.4935 12.4883 17.1443C12.8375 16.7951 13.0337 16.3215 13.0337 15.8276C13.0337 15.3338 12.8375 14.8601 12.4883 14.5109C12.1391 14.1617 11.6654 13.9655 11.1716 13.9655C10.6777 13.9655 10.2041 14.1617 9.85491 14.5109C9.5057 14.8601 9.30952 15.3338 9.30952 15.8276C9.30952 16.3215 9.5057 16.7951 9.85491 17.1443C10.2041 17.4935 10.6777 17.6897 11.1716 17.6897ZM16.823 14.4311C17.335 13.5466 17.0278 12.4107 16.1433 11.8987C15.2495 11.3773 14.1137 11.6845 13.5923 12.569C13.0802 13.4721 13.3875 14.608 14.2812 15.12C15.1657 15.6321 16.2923 15.3342 16.823 14.4311Z" fill="#17C1C1"/>
</g>
<defs>
<clipPath id="clip0">
<rect width="36" height="36" fill="white"/>
</clipPath>
</defs>
</svg>
