<svg xmlns="http://www.w3.org/2000/svg" xmlns:xlink="http://www.w3.org/1999/xlink" xmlns:sketch="http://www.bohemiancoding.com/sketch/ns" viewBox="0 0 30 30" version="1.1" x="0px" y="0px"><title>content_049-collapse-fullscreen-view-editor</title><desc>Created with Sketch.</desc><g stroke="none" stroke-width="1" fill="none" fill-rule="evenodd" sketch:type="MSPage"><g sketch:type="MSArtboardGroup" transform="translate(-405.000000, -225.000000)" fill="#000000"><path d="M416,244.707107 L416,247.5 C416,247.776142 416.223858,248 416.5,248 C416.776142,248 417,247.776142 417,247.5 L417,243.5 C417,243.223858 416.776142,243 416.5,243 L412.5,243 C412.223858,243 412,243.223858 412,243.5 C412,243.776142 412.223858,244 412.5,244 L415.292893,244 L411.146447,248.146447 C410.951184,248.341709 410.951184,248.658291 411.146447,248.853553 C411.341709,249.048816 411.658291,249.048816 411.853553,248.853553 L416,244.707107 Z M424,235.292893 L424,232.5 C424,232.223858 423.776142,232 423.5,232 C423.223858,232 423,232.223858 423,232.5 L423,236.5 C423,236.776142 423.223858,237 423.5,237 L427.5,237 C427.776142,237 428,236.776142 428,236.5 C428,236.223858 427.776142,236 427.5,236 L424.707107,236 L428.853553,231.853553 C429.048816,231.658291 429.048816,231.341709 428.853553,231.146447 C428.658291,230.951184 428.341709,230.951184 428.146447,231.146447 L424,235.292893 Z M408,228.5 L408,251.5 C408,251.776142 408.223858,252 408.5,252 L431.5,252 C431.776142,252 432,251.776142 432,251.5 L432,228.5 C432,228.223858 431.776142,228 431.5,228 L408.5,228 C408.223858,228 408,228.223858 408,228.5 Z M409,229 L431,229 L431,251 L409,251 L409,229 Z" sketch:type="MSShapeGroup"></path></g></g></svg>