<?xml version="1.0" encoding="utf-8"?>
<!-- Generator: Adobe Illustrator 16.0.3, SVG Export Plug-In . SVG Version: 6.00 Build 0)  -->
<!DOCTYPE svg PUBLIC "-//W3C//DTD SVG 1.1//EN" "http://www.w3.org/Graphics/SVG/1.1/DTD/svg11.dtd">
<svg version="1.1" id="Layer_1" xmlns="http://www.w3.org/2000/svg" xmlns:xlink="http://www.w3.org/1999/xlink" x="0px" y="0px"
	 width="612px" height="524px" viewBox="0 85.5 612 524" enable-background="new 0 85.5 612 524" xml:space="preserve">
<line fill="none" stroke="#0E69A9" stroke-miterlimit="10" x1="52.519" y1="480.058" x2="153.874" y2="370.956"/>
<line fill="none" stroke="#0E69A9" stroke-miterlimit="10" x1="296.544" y1="349.652" x2="386.278" y2="246.361"/>
<line fill="none" stroke="#0E69A9" stroke-miterlimit="10" x1="386.278" y1="246.361" x2="475.367" y2="160.5"/>
<line fill="none" stroke="#0E69A9" stroke-miterlimit="10" x1="475.367" y1="160.5" x2="570.911" y2="213.437"/>
<line fill="none" stroke="#0E69A9" stroke-miterlimit="10" x1="153.874" y1="370.956" x2="296.544" y2="349.652"/>
<circle fill="#0E69A9" cx="57.038" cy="475.538" r="9.038"/>
<circle fill="#0E69A9" cx="153.874" cy="370.956" r="9.038"/>
<circle fill="#0E69A9" cx="296.544" cy="346.424" r="9.038"/>
<circle fill="#0E69A9" cx="386.278" cy="246.361" r="9.038"/>
<circle fill="#0E69A9" cx="475.367" cy="160.5" r="9.038"/>
<circle fill="#0E69A9" cx="570.911" cy="213.437" r="9.038"/>
<line fill="none" stroke="#38B449" stroke-miterlimit="10" x1="60.266" y1="345.778" x2="154.519" y2="305.108"/>
<line fill="none" stroke="#38B449" stroke-miterlimit="10" x1="150.646" y1="304.462" x2="296.544" y2="290.905"/>
<line fill="none" stroke="#38B449" stroke-miterlimit="10" x1="296.544" y1="290.905" x2="386.278" y2="312.854"/>
<line fill="none" stroke="#38B449" stroke-miterlimit="10" x1="386.278" y1="314.146" x2="475.367" y2="308.336"/>
<line fill="none" stroke="#38B449" stroke-miterlimit="10" x1="475.367" y1="307.69" x2="567.038" y2="282.513"/>
<circle fill="#38B449" cx="57.038" cy="348.361" r="9.038"/>
<circle fill="#38B449" cx="152.582" cy="305.753" r="9.038"/>
<circle fill="#38B449" cx="296.544" cy="290.905" r="9.038"/>
<circle fill="#38B449" cx="386.278" cy="314.146" r="9.038"/>
<circle fill="#38B449" cx="475.367" cy="305.753" r="9.038"/>
<circle fill="#38B449" cx="567.038" cy="281.867" r="9.038"/>
<rect x="182.924" y="431.64" fill="#38B449" width="78.76" height="125.886"/>
<rect x="94.481" y="480.058" fill="#0E69A9" width="79.405" height="77.468"/>
<rect x="273.949" y="480.058" fill="#0E69A9" width="80.051" height="77.468"/>
<rect x="366.911" y="431.64" fill="#38B449" width="80.051" height="124.595"/>
<rect x="460.52" y="480.058" fill="#0E69A9" width="80.05" height="77.468"/>
</svg>
