<svg xmlns="http://www.w3.org/2000/svg" xmlns:xlink="http://www.w3.org/1999/xlink" version="1.1" x="0px" y="0px" viewBox="7.5 7.5 50 50" enable-background="new 7.5 7.5 50 50" xml:space="preserve"><path d="M52.432,45.744v-6.299c0-0.276-0.224-0.5-0.5-0.5H33v-8.104c5.94-0.264,10.695-5.166,10.695-11.17  c0-6.173-5.022-11.195-11.195-11.195c-6.173,0-11.196,5.022-11.196,11.195c0,6.004,4.755,10.906,10.696,11.17v8.104H13.067  c-0.276,0-0.5,0.224-0.5,0.5v6.3c-2.745,0.254-4.902,2.566-4.902,5.376c0,2.979,2.424,5.403,5.403,5.403  c2.979,0,5.402-2.424,5.402-5.403c0-2.81-2.157-5.123-4.902-5.376v-5.8H32v5.799c-2.746,0.253-4.904,2.567-4.904,5.377  c0,2.979,2.424,5.403,5.404,5.403s5.403-2.424,5.403-5.403c0-2.81-2.157-5.124-4.903-5.377v-5.799h18.432v5.799  c-2.745,0.254-4.902,2.567-4.902,5.377c0,2.979,2.424,5.403,5.402,5.403c2.979,0,5.403-2.424,5.403-5.403  C57.335,48.312,55.178,45.997,52.432,45.744z"></path></svg>