<svg height='100px' width='100px'  fill="#000000" xmlns="http://www.w3.org/2000/svg" xmlns:xlink="http://www.w3.org/1999/xlink" version="1.1" x="0px" y="0px" viewBox="0 0 32 32" enable-background="new 0 0 32 32" xml:space="preserve"><g display="none"><g display="inline"><g><path fill="#000000" d="M26.082,32H5.917c-1.1,0-2-0.9-2-2V2c0-1.1,0.9-2,2-2h20.165c1.1,0,2,0.9,2,2v28     C28.082,31.1,27.182,32,26.082,32z"></path><g><g><defs><polygon id="c" points="21.394,0 28.082,6.689 28.082,32 3.918,32 3.918,0       "></polygon></defs><clipPath><use xlink:href="#c" overflow="visible"></use></clipPath></g></g><g><defs><path id="b" d="M26.082,32H5.917c-1.1,0-2-0.9-2-2V2c0-1.1,0.9-2,2-2h20.165c1.1,0,2,0.9,2,2v28       C28.082,31.1,27.182,32,26.082,32z"></path></defs><clipPath id="a"><use xlink:href="#b" overflow="visible"></use></clipPath><polyline clip-path="url(#a)" fill="#000000" points="21.344,-0.234 28.406,-0.234 28.406,6.828     "></polyline></g><polygon fill="#000000" points="21.021,0 28.083,7.061 28.083,6.354 21.729,0    "></polygon></g><g><g><path fill="#000000" d="M24.229,17.932c0.874,0,1.585,0.711,1.585,1.585v5.733c0,0.874-0.711,1.585-1.585,1.585H7.771      c-0.874,0-1.585-0.711-1.585-1.585v-5.733c0-0.874,0.711-1.585,1.585-1.585H24.229 M24.229,17.432H7.771      c-1.147,0-2.085,0.938-2.085,2.085v5.733c0,1.147,0.938,2.085,2.085,2.085h16.459c1.147,0,2.085-0.938,2.085-2.085v-5.733      C26.314,18.37,25.376,17.432,24.229,17.432L24.229,17.432z"></path></g></g></g><g display="inline"><path fill="#000000" d="M12.747,23.08h0.938v0.169c0,0.686-0.125,1.128-0.375,1.329s-0.803,0.301-1.658,0.301    c-0.972,0-1.569-0.158-1.793-0.476c-0.223-0.317-0.335-1.166-0.335-2.546c0-0.812,0.151-1.347,0.454-1.604    c0.304-0.256,0.937-0.384,1.9-0.384c0.702,0,1.171,0.105,1.406,0.315c0.236,0.211,0.354,0.628,0.354,1.254l0.004,0.111h-0.938    v-0.126c0-0.322-0.061-0.528-0.183-0.619c-0.121-0.09-0.398-0.135-0.831-0.135c-0.579,0-0.927,0.071-1.044,0.213    c-0.116,0.142-0.175,0.562-0.175,1.262c0,0.942,0.053,1.5,0.157,1.674c0.104,0.173,0.442,0.26,1.015,0.26    c0.464,0,0.766-0.049,0.903-0.145c0.139-0.097,0.208-0.308,0.208-0.635L12.747,23.08z"></path><path fill="#000000" d="M17.926,21.348h-0.912c-0.005-0.046-0.008-0.079-0.008-0.101c-0.021-0.276-0.083-0.45-0.184-0.521    c-0.101-0.07-0.339-0.106-0.714-0.106c-0.442,0-0.731,0.041-0.867,0.123s-0.204,0.254-0.204,0.516c0,0.31,0.056,0.496,0.166,0.559    s0.477,0.111,1.097,0.145c0.732,0.041,1.207,0.146,1.422,0.313c0.216,0.169,0.323,0.519,0.323,1.05    c0,0.653-0.126,1.076-0.379,1.268c-0.252,0.19-0.809,0.286-1.67,0.286c-0.773,0-1.287-0.094-1.541-0.281s-0.381-0.567-0.381-1.14    l-0.003-0.18h0.908l0.004,0.104c0,0.344,0.06,0.554,0.18,0.631c0.121,0.077,0.449,0.115,0.985,0.115    c0.418,0,0.685-0.044,0.8-0.133s0.174-0.295,0.174-0.617c0-0.238-0.044-0.396-0.132-0.474s-0.277-0.126-0.568-0.143l-0.516-0.033    c-0.778-0.045-1.276-0.153-1.493-0.324c-0.216-0.171-0.324-0.537-0.324-1.1c0-0.574,0.131-0.958,0.392-1.148    c0.261-0.191,0.781-0.287,1.562-0.287c0.741,0,1.239,0.088,1.497,0.264c0.257,0.176,0.386,0.518,0.386,1.027V21.348z"></path><path fill="#000000" d="M22.347,21.348h-0.912c-0.005-0.046-0.008-0.079-0.008-0.101c-0.021-0.276-0.083-0.45-0.184-0.521    c-0.102-0.07-0.339-0.106-0.714-0.106c-0.442,0-0.731,0.041-0.867,0.123s-0.204,0.254-0.204,0.516c0,0.31,0.056,0.496,0.166,0.559    s0.477,0.111,1.096,0.145c0.733,0.041,1.208,0.146,1.423,0.313c0.215,0.169,0.323,0.519,0.323,1.05    c0,0.653-0.127,1.076-0.379,1.268c-0.253,0.19-0.81,0.286-1.67,0.286c-0.773,0-1.287-0.094-1.541-0.281s-0.381-0.567-0.381-1.14    l-0.003-0.18h0.908l0.004,0.104c0,0.344,0.06,0.554,0.18,0.631c0.121,0.077,0.449,0.115,0.984,0.115    c0.419,0,0.686-0.044,0.801-0.133s0.173-0.295,0.173-0.617c0-0.238-0.044-0.396-0.131-0.474c-0.088-0.078-0.277-0.126-0.568-0.143    l-0.516-0.033c-0.778-0.045-1.276-0.153-1.493-0.324c-0.216-0.171-0.324-0.537-0.324-1.1c0-0.574,0.131-0.958,0.392-1.148    c0.261-0.191,0.781-0.287,1.562-0.287c0.74,0,1.239,0.088,1.497,0.264c0.257,0.176,0.386,0.518,0.386,1.027V21.348z"></path></g></g><g display="none"><rect x="-42.167" y="-121.505" display="inline" fill="#000000" width="400.796" height="199.346"></rect></g><g display="none"><g display="inline"><path d="M12.755,23.299c0,0.327-0.069,0.538-0.208,0.635c-0.138,0.096-0.439,0.145-0.903,0.145c-0.572,0-0.91-0.087-1.015-0.26    c-0.104-0.174-0.157-0.731-0.157-1.674c0-0.699,0.059-1.12,0.175-1.262c0.117-0.142,0.465-0.213,1.044-0.213    c0.433,0,0.71,0.045,0.831,0.135c0.122,0.091,0.183,0.297,0.183,0.619v0.126h0.938l-0.004-0.111c0-0.626-0.117-1.043-0.354-1.254    c-0.235-0.21-0.704-0.315-1.406-0.315c-0.964,0-1.597,0.128-1.9,0.384c-0.303,0.257-0.454,0.791-0.454,1.604    c0,1.38,0.112,2.229,0.335,2.546c0.224,0.317,0.821,0.476,1.793,0.476c0.855,0,1.408-0.1,1.658-0.301s0.375-0.644,0.375-1.329    V23.08h-0.938L12.755,23.299z"></path><path d="M16.3,21.962c-0.62-0.033-0.986-0.082-1.097-0.145s-0.166-0.249-0.166-0.559c0-0.262,0.068-0.434,0.204-0.516    s0.425-0.123,0.867-0.123c0.375,0,0.613,0.036,0.714,0.106c0.101,0.071,0.162,0.245,0.184,0.521c0,0.021,0.003,0.055,0.008,0.101    h0.912v-0.188c0-0.51-0.129-0.852-0.386-1.027c-0.258-0.176-0.756-0.264-1.497-0.264c-0.781,0-1.302,0.096-1.562,0.287    c-0.261,0.19-0.392,0.574-0.392,1.148c0,0.562,0.108,0.929,0.324,1.1c0.217,0.171,0.715,0.279,1.493,0.324l0.516,0.033    c0.291,0.017,0.48,0.064,0.568,0.143s0.132,0.235,0.132,0.474c0,0.322-0.059,0.528-0.174,0.617s-0.382,0.133-0.8,0.133    c-0.536,0-0.864-0.038-0.985-0.115c-0.12-0.077-0.18-0.287-0.18-0.631l-0.004-0.104h-0.908l0.003,0.18    c0,0.572,0.127,0.952,0.381,1.14s0.768,0.281,1.541,0.281c0.861,0,1.418-0.096,1.67-0.286c0.253-0.191,0.379-0.614,0.379-1.268    c0-0.531-0.107-0.881-0.323-1.05C17.507,22.107,17.032,22.003,16.3,21.962z"></path><path d="M22.143,22.275c-0.215-0.168-0.689-0.272-1.423-0.313c-0.619-0.033-0.985-0.082-1.096-0.145s-0.166-0.249-0.166-0.559    c0-0.262,0.068-0.434,0.204-0.516s0.425-0.123,0.867-0.123c0.375,0,0.612,0.036,0.714,0.106c0.101,0.071,0.162,0.245,0.184,0.521    c0,0.021,0.003,0.055,0.008,0.101h0.912v-0.188c0-0.51-0.129-0.852-0.386-1.027c-0.258-0.176-0.757-0.264-1.497-0.264    c-0.781,0-1.302,0.096-1.562,0.287c-0.261,0.19-0.392,0.574-0.392,1.148c0,0.562,0.108,0.929,0.324,1.1    c0.217,0.171,0.715,0.279,1.493,0.324l0.516,0.033c0.291,0.017,0.48,0.064,0.568,0.143c0.087,0.078,0.131,0.235,0.131,0.474    c0,0.322-0.058,0.528-0.173,0.617s-0.382,0.133-0.801,0.133c-0.535,0-0.863-0.038-0.984-0.115c-0.12-0.077-0.18-0.287-0.18-0.631    l-0.004-0.104h-0.908l0.003,0.18c0,0.572,0.127,0.952,0.381,1.14s0.768,0.281,1.541,0.281c0.86,0,1.417-0.096,1.67-0.286    c0.252-0.191,0.379-0.614,0.379-1.268C22.466,22.794,22.358,22.444,22.143,22.275z"></path><path d="M2.917,2.989V32h23.176c1.644,0,2.989-1.345,2.989-2.989V0H5.907C4.263,0,2.917,1.345,2.917,2.989z M3.917,17.432h24.165    v9.9H3.917V17.432z M26.093,31H3.917v-2.667h24.165v0.678C28.083,30.108,27.19,31,26.093,31z M28.083,16.432H3.917V2.989    C3.917,1.892,4.81,1,5.907,1h22.176V16.432z"></path><rect x="8.938" y="6.521" width="14.125" height="1"></rect><rect x="11.506" y="10.406" width="8.988" height="1"></rect></g></g><g display="none"><g display="inline"><path d="M2.917,32h23.176c1.644,0,2.989-1.345,2.989-2.989v-0.431H2.917V32z"></path><path d="M2.917,2.989v13.18h26.165V0H5.907C4.263,0,2.917,1.345,2.917,2.989z M20.494,10.529h-8.988v-1h8.988V10.529z     M8.938,5.644h14.125v1H8.938V5.644z"></path><path d="M2.917,27.579h26.165v-10.41H2.917V27.579z M21.411,22.905c-0.088-0.078-0.277-0.126-0.568-0.143l-0.516-0.033    c-0.778-0.045-1.276-0.153-1.493-0.324c-0.216-0.171-0.324-0.537-0.324-1.1c0-0.574,0.131-0.958,0.392-1.148    c0.261-0.191,0.781-0.287,1.562-0.287c0.74,0,1.239,0.088,1.497,0.264c0.257,0.176,0.386,0.518,0.386,1.027v0.188h-0.912    c-0.005-0.046-0.008-0.079-0.008-0.101c-0.021-0.276-0.083-0.45-0.184-0.521c-0.102-0.07-0.339-0.106-0.714-0.106    c-0.442,0-0.731,0.041-0.867,0.123s-0.204,0.254-0.204,0.516c0,0.31,0.056,0.496,0.166,0.559s0.477,0.111,1.096,0.145    c0.733,0.041,1.208,0.146,1.423,0.313c0.215,0.169,0.323,0.519,0.323,1.05c0,0.653-0.127,1.076-0.379,1.268    c-0.253,0.19-0.81,0.286-1.67,0.286c-0.773,0-1.287-0.094-1.541-0.281s-0.381-0.567-0.381-1.14l-0.003-0.18h0.908l0.004,0.104    c0,0.344,0.06,0.554,0.18,0.631c0.121,0.077,0.449,0.115,0.984,0.115c0.419,0,0.686-0.044,0.801-0.133s0.173-0.295,0.173-0.617    C21.542,23.14,21.498,22.983,21.411,22.905z M16.99,22.905c-0.088-0.078-0.277-0.126-0.568-0.143l-0.516-0.033    c-0.778-0.045-1.276-0.153-1.493-0.324c-0.216-0.171-0.324-0.537-0.324-1.1c0-0.574,0.131-0.958,0.392-1.148    c0.261-0.191,0.781-0.287,1.562-0.287c0.741,0,1.239,0.088,1.497,0.264c0.257,0.176,0.386,0.518,0.386,1.027v0.188h-0.912    c-0.005-0.046-0.008-0.079-0.008-0.101c-0.021-0.276-0.083-0.45-0.184-0.521c-0.101-0.07-0.339-0.106-0.714-0.106    c-0.442,0-0.731,0.041-0.867,0.123s-0.204,0.254-0.204,0.516c0,0.31,0.056,0.496,0.166,0.559s0.477,0.111,1.097,0.145    c0.732,0.041,1.207,0.146,1.422,0.313c0.216,0.169,0.323,0.519,0.323,1.05c0,0.653-0.126,1.076-0.379,1.268    c-0.252,0.19-0.809,0.286-1.67,0.286c-0.773,0-1.287-0.094-1.541-0.281s-0.381-0.567-0.381-1.14l-0.003-0.18h0.908l0.004,0.104    c0,0.344,0.06,0.554,0.18,0.631c0.121,0.077,0.449,0.115,0.985,0.115c0.418,0,0.685-0.044,0.8-0.133s0.174-0.295,0.174-0.617    C17.122,23.14,17.078,22.983,16.99,22.905z M9.978,20.254c0.304-0.256,0.937-0.384,1.9-0.384c0.702,0,1.171,0.105,1.406,0.315    c0.236,0.211,0.354,0.628,0.354,1.254l0.004,0.111h-0.938v-0.126c0-0.322-0.061-0.528-0.183-0.619    c-0.121-0.09-0.398-0.135-0.831-0.135c-0.579,0-0.927,0.071-1.044,0.213c-0.116,0.142-0.175,0.562-0.175,1.262    c0,0.942,0.053,1.5,0.157,1.674c0.104,0.173,0.442,0.26,1.015,0.26c0.464,0,0.766-0.049,0.903-0.145    c0.139-0.097,0.208-0.308,0.208-0.635l-0.008-0.22h0.938v0.169c0,0.686-0.125,1.128-0.375,1.329s-0.803,0.301-1.658,0.301    c-0.972,0-1.569-0.158-1.793-0.476c-0.223-0.317-0.335-1.166-0.335-2.546C9.524,21.045,9.675,20.51,9.978,20.254z"></path></g></g><g display="none"><g display="inline"><path d="M12.755,23.299c0,0.327-0.069,0.538-0.208,0.635c-0.138,0.096-0.439,0.145-0.903,0.145c-0.572,0-0.91-0.087-1.015-0.26    c-0.104-0.174-0.157-0.731-0.157-1.674c0-0.699,0.059-1.12,0.175-1.262c0.117-0.142,0.465-0.213,1.044-0.213    c0.433,0,0.71,0.045,0.831,0.135c0.122,0.091,0.183,0.297,0.183,0.619v0.126h0.938l-0.004-0.111c0-0.626-0.117-1.043-0.354-1.254    c-0.235-0.21-0.704-0.315-1.406-0.315c-0.964,0-1.597,0.128-1.9,0.384c-0.303,0.257-0.454,0.791-0.454,1.604    c0,1.38,0.112,2.229,0.335,2.546c0.224,0.317,0.821,0.476,1.793,0.476c0.855,0,1.408-0.1,1.658-0.301s0.375-0.644,0.375-1.329    V23.08h-0.938L12.755,23.299z"></path><path d="M16.3,21.962c-0.62-0.033-0.986-0.082-1.097-0.145s-0.166-0.249-0.166-0.559c0-0.262,0.068-0.434,0.204-0.516    s0.425-0.123,0.867-0.123c0.375,0,0.613,0.036,0.714,0.106c0.101,0.071,0.162,0.245,0.184,0.521c0,0.021,0.003,0.055,0.008,0.101    h0.912v-0.188c0-0.51-0.129-0.852-0.386-1.027c-0.258-0.176-0.756-0.264-1.497-0.264c-0.781,0-1.302,0.096-1.562,0.287    c-0.261,0.19-0.392,0.574-0.392,1.148c0,0.562,0.108,0.929,0.324,1.1c0.217,0.171,0.715,0.279,1.493,0.324l0.516,0.033    c0.291,0.017,0.48,0.064,0.568,0.143s0.132,0.235,0.132,0.474c0,0.322-0.059,0.528-0.174,0.617s-0.382,0.133-0.8,0.133    c-0.536,0-0.864-0.038-0.985-0.115c-0.12-0.077-0.18-0.287-0.18-0.631l-0.004-0.104h-0.908l0.003,0.18    c0,0.572,0.127,0.952,0.381,1.14s0.768,0.281,1.541,0.281c0.861,0,1.418-0.096,1.67-0.286c0.253-0.191,0.379-0.614,0.379-1.268    c0-0.531-0.107-0.881-0.323-1.05C17.507,22.107,17.032,22.003,16.3,21.962z"></path><path d="M20.72,21.962c-0.619-0.033-0.985-0.082-1.096-0.145s-0.166-0.249-0.166-0.559c0-0.262,0.068-0.434,0.204-0.516    s0.425-0.123,0.867-0.123c0.375,0,0.612,0.036,0.714,0.106c0.101,0.071,0.162,0.245,0.184,0.521c0,0.021,0.003,0.055,0.008,0.101    h0.912v-0.188c0-0.51-0.129-0.852-0.386-1.027c-0.258-0.176-0.757-0.264-1.497-0.264c-0.781,0-1.302,0.096-1.562,0.287    c-0.261,0.19-0.392,0.574-0.392,1.148c0,0.562,0.108,0.929,0.324,1.1c0.217,0.171,0.715,0.279,1.493,0.324l0.516,0.033    c0.291,0.017,0.48,0.064,0.568,0.143c0.087,0.078,0.131,0.235,0.131,0.474c0,0.322-0.058,0.528-0.173,0.617    s-0.382,0.133-0.801,0.133c-0.535,0-0.863-0.038-0.984-0.115c-0.12-0.077-0.18-0.287-0.18-0.631l-0.004-0.104h-0.908l0.003,0.18    c0,0.572,0.127,0.952,0.381,1.14s0.768,0.281,1.541,0.281c0.86,0,1.417-0.096,1.67-0.286c0.252-0.191,0.379-0.614,0.379-1.268    c0-0.531-0.108-0.881-0.323-1.05C21.928,22.107,21.453,22.003,20.72,21.962z"></path><path d="M2.917,2.989V32h23.176c1.644,0,2.989-1.345,2.989-2.989V0H5.907C4.263,0,2.917,1.345,2.917,2.989z M28.583,29.011    c0,1.373-1.117,2.489-2.489,2.489H3.417v-3.417h25.134v-0.5H3.417v-10.4h25.134v-0.5H3.417V2.989c0-1.373,1.117-2.489,2.489-2.489    h22.676V29.011z"></path><rect x="8.938" y="6.771" width="14.125" height="0.5"></rect><rect x="11.506" y="10.656" width="8.988" height="0.5"></rect></g></g><g><g><path d="M12.755,23.299c0,0.327-0.069,0.538-0.208,0.635c-0.138,0.096-0.439,0.145-0.903,0.145c-0.572,0-0.91-0.087-1.015-0.26    c-0.104-0.174-0.157-0.731-0.157-1.674c0-0.699,0.059-1.12,0.175-1.262c0.117-0.142,0.465-0.213,1.044-0.213    c0.433,0,0.71,0.045,0.831,0.135c0.122,0.091,0.183,0.297,0.183,0.619v0.126h0.938l-0.004-0.111c0-0.626-0.117-1.043-0.354-1.254    c-0.235-0.21-0.704-0.315-1.406-0.315c-0.964,0-1.597,0.128-1.9,0.384c-0.303,0.257-0.454,0.791-0.454,1.604    c0,1.38,0.112,2.229,0.335,2.546c0.224,0.317,0.821,0.476,1.793,0.476c0.855,0,1.408-0.1,1.658-0.301s0.375-0.644,0.375-1.329    V23.08h-0.938L12.755,23.299z"></path><path d="M16.3,21.962c-0.62-0.033-0.986-0.082-1.097-0.145s-0.166-0.249-0.166-0.559c0-0.262,0.068-0.434,0.204-0.516    s0.425-0.123,0.867-0.123c0.375,0,0.613,0.036,0.714,0.106c0.101,0.071,0.162,0.245,0.184,0.521c0,0.021,0.003,0.055,0.008,0.101    h0.912v-0.188c0-0.51-0.129-0.852-0.386-1.027c-0.258-0.176-0.756-0.264-1.497-0.264c-0.781,0-1.302,0.096-1.562,0.287    c-0.261,0.19-0.392,0.574-0.392,1.148c0,0.562,0.108,0.929,0.324,1.1c0.217,0.171,0.715,0.279,1.493,0.324l0.516,0.033    c0.291,0.017,0.48,0.064,0.568,0.143s0.132,0.235,0.132,0.474c0,0.322-0.059,0.528-0.174,0.617s-0.382,0.133-0.8,0.133    c-0.536,0-0.864-0.038-0.985-0.115c-0.12-0.077-0.18-0.287-0.18-0.631l-0.004-0.104h-0.908l0.003,0.18    c0,0.572,0.127,0.952,0.381,1.14s0.768,0.281,1.541,0.281c0.861,0,1.418-0.096,1.67-0.286c0.253-0.191,0.379-0.614,0.379-1.268    c0-0.531-0.107-0.881-0.323-1.05C17.507,22.107,17.032,22.003,16.3,21.962z"></path><path d="M22.143,22.275c-0.215-0.168-0.689-0.272-1.423-0.313c-0.619-0.033-0.985-0.082-1.096-0.145s-0.166-0.249-0.166-0.559    c0-0.262,0.068-0.434,0.204-0.516s0.425-0.123,0.867-0.123c0.375,0,0.612,0.036,0.714,0.106c0.101,0.071,0.162,0.245,0.184,0.521    c0,0.021,0.003,0.055,0.008,0.101h0.912v-0.188c0-0.51-0.129-0.852-0.386-1.027c-0.258-0.176-0.757-0.264-1.497-0.264    c-0.781,0-1.302,0.096-1.562,0.287c-0.261,0.19-0.392,0.574-0.392,1.148c0,0.562,0.108,0.929,0.324,1.1    c0.217,0.171,0.715,0.279,1.493,0.324l0.516,0.033c0.291,0.017,0.48,0.064,0.568,0.143c0.087,0.078,0.131,0.235,0.131,0.474    c0,0.322-0.058,0.528-0.173,0.617s-0.382,0.133-0.801,0.133c-0.535,0-0.863-0.038-0.984-0.115c-0.12-0.077-0.18-0.287-0.18-0.631    l-0.004-0.104h-0.908l0.003,0.18c0,0.572,0.127,0.952,0.381,1.14s0.768,0.281,1.541,0.281c0.86,0,1.417-0.096,1.67-0.286    c0.252-0.191,0.379-0.614,0.379-1.268C22.466,22.794,22.358,22.444,22.143,22.275z"></path><path d="M2.917,2.989V32h23.176c1.644,0,2.989-1.345,2.989-2.989V0H5.907C4.263,0,2.917,1.345,2.917,2.989z M4.917,17.932h22.165    v8.9H4.917V17.932z M26.093,30H4.917v-1.167h22.165v0.178C27.083,29.547,26.629,30,26.093,30z M27.083,15.932H4.917V2.989    C4.917,2.453,5.371,2,5.907,2h21.176V15.932z"></path><rect x="8.938" y="6.021" width="14.125" height="2"></rect><rect x="11.506" y="9.906" width="8.988" height="2"></rect></g></g></svg>