<svg xmlns:dc="http://purl.org/dc/elements/1.1/" xmlns:cc="http://creativecommons.org/ns#" xmlns:rdf="http://www.w3.org/1999/02/22-rdf-syntax-ns#" xmlns:svg="http://www.w3.org/2000/svg" xmlns="http://www.w3.org/2000/svg" xmlns:sodipodi="http://sodipodi.sourceforge.net/DTD/sodipodi-0.dtd" xmlns:inkscape="http://www.inkscape.org/namespaces/inkscape" version="1.1" x="0px" y="0px" viewBox="0 0 100 100"><g transform="translate(0,-952.36218)"><path style="text-indent:0;text-transform:none;direction:ltr;block-progression:tb;baseline-shift:baseline;color:#000000;enable-background:accumulate;" d="m 27.141711,992.89432 c -7.785204,-0.0306 -15.644103,2.82055 -20.7660044,9.93778 a 2.000005,2.000005 0 1 0 3.246301,2.3363 c 4.2982004,-5.97275 10.6741994,-8.30157 17.5041034,-8.2747 6.8298,0.0269 14.0035,2.55755 19.1159,6.2306 a 2.000005,2.000005 0 0 0 0,3e-4 c 8.348,5.9956 17.7828,8.9632 26.3831,8.6882 8.6004,-0.2751 16.4536,-3.8987 21.0538,-11.0285 a 2.000005,2.000005 0 1 0 -3.3607,-2.1681 c -3.8197,5.9202 -10.2413,8.9566 -17.8209,9.1991 -7.5795,0.2424 -16.2299,-2.4148 -23.9219,-7.9391 0,-1e-4 0,-2.3e-4 0,-3.1e-4 -5.8275,-4.18679 -13.6488,-6.95094 -21.4337,-6.98157 z" fill="#143F5B" fill-opacity="1" fill-rule="evenodd" stroke="none" marker="none" visibility="visible" display="inline" overflow="visible"></path></g></svg>