<svg xmlns="http://www.w3.org/2000/svg" xmlns:xlink="http://www.w3.org/1999/xlink" version="1.1" x="0px" y="0px" viewBox="0 0 100 100" enable-background="new 0 0 100 100" xml:space="preserve"><path d="M92.715,19.41c0-9.015-18.763-16.076-42.715-16.076S7.285,10.396,7.285,19.41v14.052c0,1.71,0.679,3.35,1.937,4.885  c-1.286,1.569-1.937,3.22-1.937,4.92v14.052c0,1.601,0.602,3.139,1.71,4.588c-1.135,1.483-1.71,3.038-1.71,4.633V80.59  c0,9.015,18.763,16.076,42.715,16.076s42.715-7.062,42.715-16.076V66.539c0-1.595-0.575-3.15-1.71-4.633  c1.107-1.449,1.71-2.986,1.71-4.588V43.267c0-1.701-0.651-3.352-1.937-4.92c1.258-1.535,1.937-3.174,1.937-4.884V19.41z M50,5.334  c22.069,0,40.715,6.446,40.715,14.076S72.069,33.486,50,33.486c-22.07,0-40.715-6.446-40.715-14.076S27.93,5.334,50,5.334z   M90.715,80.59c0,7.63-18.646,14.076-40.715,14.076c-22.07,0-40.715-6.446-40.715-14.076v-9.095  C14.716,78.011,30.664,82.614,50,82.614s35.283-4.604,40.715-11.119V80.59z M50,80.614c-22.07,0-40.715-6.445-40.715-14.075  c0-1.04,0.375-2.085,1.09-3.115c6.267,5.901,21.447,9.971,39.625,9.971s33.357-4.069,39.624-9.971  c0.716,1.03,1.091,2.074,1.091,3.115C90.715,74.169,72.069,80.614,50,80.614z M90.715,57.318c0,7.63-18.646,14.076-40.715,14.076  c-22.07,0-40.715-6.446-40.715-14.076v-9.095c5.431,6.516,21.379,11.12,40.715,11.12s35.283-4.604,40.715-11.12V57.318z M50,57.343  c-22.07,0-40.715-6.446-40.715-14.076c0-1.159,0.455-2.319,1.339-3.462c6.417,5.773,21.441,9.732,39.375,9.732  s32.958-3.959,39.376-9.732c0.884,1.142,1.339,2.303,1.339,3.462C90.715,50.896,72.069,57.343,50,57.343z M50,47.537  c-22.07,0-40.715-6.446-40.715-14.075v-9.095c5.431,6.517,21.379,11.12,40.715,11.12s35.283-4.603,40.715-11.12v9.095  C90.715,41.091,72.069,47.537,50,47.537z"></path></svg>