<svg xmlns="http://www.w3.org/2000/svg" xmlns:xlink="http://www.w3.org/1999/xlink" xml:space="preserve" version="1.1" style="shape-rendering:geometricPrecision;text-rendering:geometricPrecision;image-rendering:optimizeQuality;" viewBox="0 0 847 847" x="0px" y="0px" fill-rule="evenodd" clip-rule="evenodd"><defs><style type="text/css">
   
    .fil1 {fill:black}
    .fil0 {fill:black;fill-rule:nonzero}
   
  </style></defs><g><path class="fil0" d="M136 429l180 0 0 -158 -180 0 0 158zm394 175l181 0 0 -159 -181 0 0 159zm197 0l0 8 0 8 0 167 0 8 -8 0 -189 0 -8 0 -8 0 -181 0 -8 0 -9 0 -188 0 -9 0 0 -8 0 -167 0 -8 0 -8 0 -159 0 -8 0 -8 0 -167 0 -8 9 0 188 0 9 0 8 0 181 0 8 0 8 0 189 0 8 0 0 8 0 167 0 8 0 8 0 159zm-213 174l0 -158 -181 0 0 158 181 0zm-181 -174l181 0 0 -159 -181 0 0 159zm-17 174l0 -158 -180 0 0 158 180 0zm-180 -174l180 0 0 -159 -180 0 0 159zm197 -175l181 0 0 -158 -181 0 0 158zm197 0l181 0 0 -158 -181 0 0 158zm181 191l-181 0 0 158 181 0 0 -158z"></path><path class="fil1" d="M567 106c14,5 24,18 24,33 0,20 -16,36 -36,36 -19,0 -35,-16 -35,-36 0,-15 10,-28 24,-33l0 23c0,6 5,12 11,12l0 0c7,0 12,-6 12,-12l0 -23z"></path><path class="fil1" d="M303 106c14,5 24,18 24,33 0,20 -16,36 -36,36 -19,0 -35,-16 -35,-36 0,-15 10,-28 23,-33l0 23c0,6 6,12 12,12l0 0c7,0 12,-6 12,-12l0 -23z"></path><path class="fil0" d="M84 52l187 0 0 -23c0,-5 2,-10 6,-14l0 0c4,-4 9,-6 14,-6l0 0c6,0 11,2 14,6 4,4 6,9 6,14l0 23 224 0 0 -23c0,-5 3,-10 6,-14l0 0c4,-4 9,-6 14,-6l0 0c6,0 11,2 15,6 3,4 6,9 6,14l0 23 187 0 11 0 0 11 0 764 0 11 -11 0 -679 0 -11 0 0 -11 0 -764 0 -11 11 0zm187 22l-176 0 0 742 657 0 0 -742 -176 0 0 55c0,5 -3,10 -6,14l0 0c-4,4 -9,6 -15,6l0 0c-5,0 -10,-2 -14,-6l0 0c-3,-4 -6,-9 -6,-14l0 -55 -224 0 0 55c0,5 -2,10 -6,14l0 0c-3,4 -8,6 -14,6l0 0c-5,0 -10,-2 -14,-6l0 0c-4,-4 -6,-9 -6,-14l0 -55zm20 -48l0 0c-1,0 -2,0 -2,1l0 0c-1,0 -1,1 -1,2l0 100c0,1 0,2 1,2l0 0c0,1 1,1 2,1l0 0c1,0 2,0 3,-1l0 0c0,0 1,-1 1,-2l0 -100c0,-1 -1,-2 -1,-2 -1,-1 -2,-1 -3,-1zm264 0l0 0c0,0 -1,0 -2,1l0 0c-1,0 -1,1 -1,2l0 100c0,1 0,2 1,2l0 0c1,1 2,1 2,1l0 0c1,0 2,0 3,-1l0 0c1,0 1,-1 1,-2l0 -100c0,-1 0,-2 -1,-2 -1,-1 -2,-1 -3,-1z"></path></g></svg>