<svg xmlns="http://www.w3.org/2000/svg" xmlns:xlink="http://www.w3.org/1999/xlink" version="1.1" x="0px" y="0px" viewBox="0 0 50 21.5" enable-background="new 0 0 50 17.2" xml:space="preserve"><g><path d="M38,8c-0.1,0-0.2,0.1-0.1,0.2l1,1.2c0.1,0.1,0.2,0.1,0.3,0l1-1.2C40.2,8.1,40.1,8,40,8H38z"/><path d="M42.5,3.9H7.1c-0.8,0-1.5,0.7-1.5,1.5V12c0,0.8,0.7,1.5,1.5,1.5h35.4c0.8,0,1.5-0.7,1.5-1.5V5.4C44,4.6,43.3,3.9,42.5,3.9z    M34.1,12.6H7.1c-0.3,0-0.5-0.2-0.5-0.5V5.4c0-0.3,0.2-0.5,0.5-0.5h27.1V12.6z M43,12c0,0.3-0.2,0.5-0.5,0.5h-7.3V4.9h7.3   c0.3,0,0.5,0.2,0.5,0.5V12z"/></g></svg>