<svg fill="#033669" xmlns="http://www.w3.org/2000/svg" xmlns:xlink="http://www.w3.org/1999/xlink" version="1.1" x="0px" y="0px" viewBox="0 0 100 100" enable-background="new 0 0 100 100" xml:space="preserve"><path fill-rule="evenodd" clip-rule="evenodd" d="M71.599,66.795H45.201c-6.627,0-12-5.373-12-12V28.405c0-6.627,5.372-12,12-12  h26.399c6.628,0,12,5.373,12,12v26.389C83.6,61.422,78.227,66.795,71.599,66.795z M76.431,28.436c0-2.651-2.149-4.8-4.8-4.8H45.222  c-2.651,0-4.8,2.149-4.8,4.8v26.402c0,2.651,2.149,4.8,4.8,4.8h26.409c2.651,0,4.8-2.149,4.8-4.8V28.436z M69.211,45.249h-7.246  v7.193c0,1.312-1.064,2.377-2.377,2.377h-2.4c-1.313,0-2.377-1.064-2.377-2.377v-7.193h-7.246c-1.313,0-2.376-1.064-2.376-2.377  v-2.454c0-1.313,1.064-2.377,2.376-2.377h7.246v-7.246c0-1.313,1.064-2.377,2.377-2.377h2.4c1.313,0,2.377,1.064,2.377,2.377v7.246  h7.246c1.313,0,2.377,1.064,2.377,2.377v2.454C71.588,44.185,70.524,45.249,69.211,45.249z M28.422,76.438h21.556  c2.624,0,4.749-2.108,4.792-4.722h7.217C61.92,78.286,56.585,83.595,50,83.595H28.401c-6.627,0-12-5.373-12-12V50.006  c0-6.625,5.369-11.995,11.993-11.999v7.287c-2.637,0.016-4.771,2.156-4.771,4.797v21.548C23.622,74.289,25.771,76.438,28.422,76.438  z"></path></svg>