<svg width="592" height="634" viewBox="0 0 592 634" fill="none" xmlns="http://www.w3.org/2000/svg">
<path fill-rule="evenodd" clip-rule="evenodd" d="M469 83.143V128.857C469 169.143 368.667 202 245 202C121.333 202 21 169.143 21 128.857V83.143C21 42.857 121.333 10 245 10C368.667 10 469 42.857 469 83.143ZM469 186V264.155C466.013 264.052 463.012 264 460 264C378.3 264 305.539 302.272 258.667 361.866C254.146 361.955 249.589 362 245 362C121.333 362 21 329.143 21 288.857V186C69.125 219.143 157.208 234.572 245 234.572C332.792 234.572 420.874 219.143 469 186ZM204 520C204 474.411 215.917 431.605 236.806 394.527C151.765 393.595 67.6276 378.112 21 346V448.857C21 484.581 99.8981 514.464 204.001 520.773C204 520.516 204 520.258 204 520ZM466.875 529.25C523.829 529.25 570 483.08 570 426.126C570 369.003 523.997 322.999 466.874 323C409.92 323.001 363.75 369.171 363.75 426.125C363.75 437.417 365.571 448.282 368.924 458.45L274.119 553.256C271.482 555.893 270 559.47 270 563.2V608.938C270 616.704 276.296 623 284.062 623H349.688C357.454 623 363.75 616.704 363.75 608.938V585.5H387.188C394.954 585.5 401.25 579.204 401.25 571.438V548H423.06C425.046 548 427.01 547.58 428.821 546.766C430.633 545.953 432.252 544.765 433.571 543.28L447.64 527.452C453.873 528.628 460.301 529.25 466.875 529.25ZM495 426.125C479.467 426.125 466.875 413.533 466.875 398C466.875 382.467 479.467 369.875 495 369.875C510.533 369.875 523.125 382.467 523.125 398C523.125 413.533 510.533 426.125 495 426.125Z" fill="black"/>
</svg>
