<svg xmlns="http://www.w3.org/2000/svg" xmlns:xlink="http://www.w3.org/1999/xlink" version="1.1" x="0px" y="0px" viewBox="0 0 100 125" enable-background="new 0 0 100 100" xml:space="preserve"><path fill="#000000" d="M93.6,57.2L69.8,67.8c-0.5,0.2-0.9,0.6-1.2,1.2L58.1,92.9c-1,2.3-4.7,1.6-5.7-1.2L31.7,34.4  c-0.8-2.3,1-4.2,3.3-3.3l57.4,20.5C95.2,52.5,95.9,56.2,93.6,57.2z"/><g><path fill="#000000" d="M21.3,25.9L5.5,10.1C4.7,9.3,4.9,7.8,6,6.7s2.6-1.3,3.4-0.5L25.1,22c0.8,0.8,0.6,2.3-0.5,3.4   C23.6,26.4,22.1,26.7,21.3,25.9z"/></g><g><path fill="#000000" d="M25.2,49.8L10.4,64.7c-0.8,0.8-2.3,0.6-3.4-0.5c-1.1-1.1-1.3-2.6-0.5-3.4L21.4,46c0.8-0.8,2.3-0.6,3.4,0.5   C25.8,47.5,26,49,25.2,49.8z"/></g><g><path fill="#000000" d="M32.3,19V9.1c0-1.1,1.2-2,2.7-2c1.5,0,2.7,0.9,2.7,2V19c0,1.1-1.2,2-2.7,2C33.5,21,32.3,20.1,32.3,19z"/></g><g><path fill="#000000" d="M18.1,33.1H8.2c-1.1,0-2,1.2-2,2.7s0.9,2.7,2,2.7h9.9c1.1,0,2-1.2,2-2.7S19.2,33.1,18.1,33.1z"/></g><g><path fill="#000000" d="M45,21.9L60.7,6.3c0.8-0.8,2.3-0.6,3.4,0.5c1.1,1.1,1.3,2.6,0.5,3.4L48.9,25.8c-0.8,0.8-2.3,0.6-3.4-0.5   C44.4,24.2,44.2,22.7,45,21.9z"/></g></svg>