<svg xmlns="http://www.w3.org/2000/svg" xmlns:xlink="http://www.w3.org/1999/xlink" version="1.1" x="0px" y="0px" viewBox="0 0 66 66" style="enable-background:new 0 0 66 66;" xml:space="preserve"><g><path d="M53.5,18.9c4.1-16.3-19.1-25.1-27-10.4c-8-2.9-16.3,4.2-14.6,12.6C5.7,21.2,1,26.3,1,32.2c0,6.1,5,11,11,11   h6.2v15.9C18.2,63,25.7,65,33,65c7.3,0,14.8-2,14.8-5.9V43.2h5C59.5,43.2,65,37.7,65,31C65,24.7,60.2,19.3,53.5,18.9z M20.2,37.6   c2.7,1.8,7.8,2.8,12.8,2.8c5,0,10.1-0.9,12.8-2.8v5.1c0,1.6-5,3.9-12.8,3.9c-7.8,0-12.8-2.3-12.8-3.9V37.6z M33,38.4   c-7.8,0-12.8-2.3-12.8-3.9c0-1.6,5-3.9,12.8-3.9c7.8,0,12.8,2.3,12.8,3.9C45.8,36.1,40.8,38.4,33,38.4z M33,63   c-7.8,0-12.8-2.3-12.8-3.9V54c2.7,1.8,7.8,2.8,12.8,2.8c5,0,10.1-0.9,12.8-2.8v5.1C45.8,60.7,40.8,63,33,63z M33,54.8   c-7.8,0-12.8-2.3-12.8-3.9v-5.1c2.7,1.8,7.8,2.8,12.8,2.8c5,0,10.1-0.9,12.8-2.8v5.1C45.8,52.5,40.8,54.8,33,54.8z M52.8,41.2h-5   v-6.7c0-3.9-7.4-5.9-14.8-5.9c-7.3,0-14.8,2-14.8,5.9v6.7H12c-5,0-9-4.1-9-9c0-5.2,4.4-9.6,10.1-9c0.3,0,0.7-0.1,0.9-0.4   c0.2-0.3,0.3-0.6,0.2-0.9c-2.5-7.6,5.3-14.4,12.4-11.2c0.5,0.2,1.1,0,1.3-0.5c6.6-14,28.4-5.8,23.3,9.3c-0.1,0.3,0,0.7,0.2,0.9   c0.2,0.3,0.5,0.4,0.8,0.4C58.3,20.6,63,25.3,63,31C63,36.6,58.4,41.2,52.8,41.2z"></path></g></svg>