<svg xmlns="http://www.w3.org/2000/svg" xmlns:xlink="http://www.w3.org/1999/xlink" version="1.1" x="0px" y="0px" viewBox="0 0 56 65" style="enable-background:new 0 0 64 64;" xml:space="preserve"><g><path d="M52.9,40.8c-0.9,0-1.7,0.3-2.3,0.8l-7.5-4.3V26.7l7.5-4.3c0.6,0.5,1.4,0.8,2.3,0.8c2.1,0,3.8-1.7,3.8-3.8s-1.7-3.8-3.8-3.8   c-2.1,0-3.8,1.7-3.8,3.8c0,0.5,0.1,1,0.3,1.5L42.1,25L33,19.7v-7.2c1.6-0.4,2.8-1.9,2.8-3.7C35.8,6.7,34.1,5,32,5   c-2.1,0-3.8,1.7-3.8,3.8c0,1.8,1.2,3.2,2.8,3.7v7.2L21.9,25l-7.2-4.2c0.2-0.5,0.3-1,0.3-1.5c0-2.1-1.7-3.8-3.8-3.8   c-2.1,0-3.8,1.7-3.8,3.8s1.7,3.8,3.8,3.8c0.9,0,1.6-0.3,2.3-0.8l7.5,4.3v10.6l-7.5,4.3c-0.6-0.5-1.4-0.8-2.3-0.8   c-2.1,0-3.8,1.7-3.8,3.8s1.7,3.8,3.8,3.8c2.1,0,3.8-1.7,3.8-3.8c0-0.5-0.1-1-0.3-1.4l7.2-4.2l9.1,5.3v7.4c-1.6,0.4-2.8,1.9-2.8,3.7   c0,2.1,1.7,3.8,3.8,3.8c2.1,0,3.8-1.7,3.8-3.8c0-1.8-1.2-3.3-2.8-3.7v-7.4l9.1-5.3l7.2,4.2c-0.2,0.4-0.3,0.9-0.3,1.4   c0,2.1,1.7,3.8,3.8,3.8c2.1,0,3.8-1.7,3.8-3.8S55,40.8,52.9,40.8z M41.1,37.2C41.1,37.2,41.1,37.2,41.1,37.2   c-0.1,0.1-0.1,0.1-0.1,0.1L33,42v-9.4l8.1-4.7V37.2z M52.9,17.5c1,0,1.8,0.8,1.8,1.8c0,1-0.8,1.8-1.8,1.8s-1.8-0.8-1.8-1.8   C51.1,18.3,51.9,17.5,52.9,17.5z M30.2,8.8C30.2,7.8,31,7,32,7s1.8,0.8,1.8,1.8S33,10.7,32,10.7S30.2,9.9,30.2,8.8z M32,21.5   C32,21.5,32,21.5,32,21.5C32,21.5,32,21.5,32,21.5l8.2,4.7L32,30.8l-8.1-4.7L32,21.5z M9.2,19.3c0-1,0.8-1.8,1.8-1.8   s1.8,0.8,1.8,1.8c0,1-0.8,1.8-1.8,1.8S9.2,20.3,9.2,19.3z M31,32.6V42l-8.1-4.7v-9.4L31,32.6z M11.1,46.5c-1,0-1.8-0.8-1.8-1.8   s0.8-1.8,1.8-1.8c0.5,0,1,0.2,1.3,0.5c0,0,0,0,0,0c0.1,0.1,0.1,0.2,0.2,0.2c0.2,0.3,0.3,0.7,0.3,1.1C12.9,45.6,12.1,46.5,11.1,46.5   z M33.8,55.3c0,1-0.8,1.8-1.8,1.8s-1.8-0.8-1.8-1.8s0.8-1.8,1.8-1.8S33.8,54.3,33.8,55.3z M52.9,46.5c-1,0-1.8-0.8-1.8-1.8   s0.8-1.8,1.8-1.8s1.8,0.8,1.8,1.8S53.9,46.5,52.9,46.5z"/></g></svg>