<svg height='100px' width='100px'  fill="#000000" xmlns="http://www.w3.org/2000/svg" xmlns:xlink="http://www.w3.org/1999/xlink" version="1.1" x="0px" y="0px" viewBox="-255 347 100 100" style="enable-background:new -255 347 100 100;" xml:space="preserve"><path d="M-165,357h-80c-2.8,0-5,2.3-5,5v70c0,2.8,2.3,5,5,5h80c2.8,0,5-2.3,5-5v-70C-160,359.3-162.3,357-165,357z M-245,360h80  c1.1,0,2,0.9,2,2v10h-84v-10C-247,360.9-246.1,360-245,360z M-247,432v-57h20v59h-18C-246.1,434-247,433.1-247,432z M-165,434h-59  v-59h61v57C-163,433.1-163.9,434-165,434z"></path><g><path d="M-235.8,382h-6.9c-0.8,0-1.5-0.7-1.5-1.5s0.7-1.5,1.5-1.5h6.9c0.8,0,1.5,0.7,1.5,1.5S-234.9,382-235.8,382z"></path></g><g><path d="M-235.8,388h-6.9c-0.8,0-1.5-0.7-1.5-1.5s0.7-1.5,1.5-1.5h6.9c0.8,0,1.5,0.7,1.5,1.5S-234.9,388-235.8,388z"></path></g><g><path d="M-230.8,394h-6.9c-0.8,0-1.5-0.7-1.5-1.5s0.7-1.5,1.5-1.5h6.9c0.8,0,1.5,0.7,1.5,1.5S-229.9,394-230.8,394z"></path></g><g><path d="M-230.8,400h-6.9c-0.8,0-1.5-0.7-1.5-1.5s0.7-1.5,1.5-1.5h6.9c0.8,0,1.5,0.7,1.5,1.5S-229.9,400-230.8,400z"></path></g><g><path d="M-230.8,406h-6.9c-0.8,0-1.5-0.7-1.5-1.5s0.7-1.5,1.5-1.5h6.9c0.8,0,1.5,0.7,1.5,1.5S-229.9,406-230.8,406z"></path></g><g><path d="M-235.8,412h-6.9c-0.8,0-1.5-0.7-1.5-1.5s0.7-1.5,1.5-1.5h6.9c0.8,0,1.5,0.7,1.5,1.5S-234.9,412-235.8,412z"></path></g><g><path d="M-235.8,418h-6.9c-0.8,0-1.5-0.7-1.5-1.5s0.7-1.5,1.5-1.5h6.9c0.8,0,1.5,0.7,1.5,1.5S-234.9,418-235.8,418z"></path></g><g><path d="M-235.8,424h-6.9c-0.8,0-1.5-0.7-1.5-1.5s0.7-1.5,1.5-1.5h6.9c0.8,0,1.5,0.7,1.5,1.5S-234.9,424-235.8,424z"></path></g><g><path d="M-235.8,430h-6.9c-0.8,0-1.5-0.7-1.5-1.5s0.7-1.5,1.5-1.5h6.9c0.8,0,1.5,0.7,1.5,1.5S-234.9,430-235.8,430z"></path></g><g><path d="M-202.1,382H-220c-0.8,0-1.5-0.7-1.5-1.5s0.7-1.5,1.5-1.5h17.9c0.8,0,1.5,0.7,1.5,1.5S-201.3,382-202.1,382z"></path></g><g><path d="M-202.1,388H-220c-0.8,0-1.5-0.7-1.5-1.5s0.7-1.5,1.5-1.5h17.9c0.8,0,1.5,0.7,1.5,1.5S-201.3,388-202.1,388z"></path></g><g><path d="M-202.1,394H-220c-0.8,0-1.5-0.7-1.5-1.5s0.7-1.5,1.5-1.5h17.9c0.8,0,1.5,0.7,1.5,1.5S-201.3,394-202.1,394z"></path></g><g><path d="M-202.1,400H-220c-0.8,0-1.5-0.7-1.5-1.5s0.7-1.5,1.5-1.5h17.9c0.8,0,1.5,0.7,1.5,1.5S-201.3,400-202.1,400z"></path></g><g><path d="M-202.1,406H-220c-0.8,0-1.5-0.7-1.5-1.5s0.7-1.5,1.5-1.5h17.9c0.8,0,1.5,0.7,1.5,1.5S-201.3,406-202.1,406z"></path></g><g><path d="M-202.1,412H-220c-0.8,0-1.5-0.7-1.5-1.5s0.7-1.5,1.5-1.5h17.9c0.8,0,1.5,0.7,1.5,1.5S-201.3,412-202.1,412z"></path></g><g><path d="M-202.1,418H-220c-0.8,0-1.5-0.7-1.5-1.5s0.7-1.5,1.5-1.5h17.9c0.8,0,1.5,0.7,1.5,1.5S-201.3,418-202.1,418z"></path></g><g><path d="M-202.1,424H-220c-0.8,0-1.5-0.7-1.5-1.5s0.7-1.5,1.5-1.5h17.9c0.8,0,1.5,0.7,1.5,1.5S-201.3,424-202.1,424z"></path></g><g><path d="M-202.1,430H-220c-0.8,0-1.5-0.7-1.5-1.5s0.7-1.5,1.5-1.5h17.9c0.8,0,1.5,0.7,1.5,1.5S-201.3,430-202.1,430z"></path></g><g><path d="M-186.1,382h-6.4c-0.8,0-1.5-0.7-1.5-1.5s0.7-1.5,1.5-1.5h6.4c0.8,0,1.5,0.7,1.5,1.5S-185.3,382-186.1,382z"></path></g><g><path d="M-186.1,388h-6.4c-0.8,0-1.5-0.7-1.5-1.5s0.7-1.5,1.5-1.5h6.4c0.8,0,1.5,0.7,1.5,1.5S-185.3,388-186.1,388z"></path></g><g><path d="M-186.1,394h-6.4c-0.8,0-1.5-0.7-1.5-1.5s0.7-1.5,1.5-1.5h6.4c0.8,0,1.5,0.7,1.5,1.5S-185.3,394-186.1,394z"></path></g><g><path d="M-186.1,400h-6.4c-0.8,0-1.5-0.7-1.5-1.5s0.7-1.5,1.5-1.5h6.4c0.8,0,1.5,0.7,1.5,1.5S-185.3,400-186.1,400z"></path></g><g><path d="M-186.1,406h-6.4c-0.8,0-1.5-0.7-1.5-1.5s0.7-1.5,1.5-1.5h6.4c0.8,0,1.5,0.7,1.5,1.5S-185.3,406-186.1,406z"></path></g><g><path d="M-186.1,412h-6.4c-0.8,0-1.5-0.7-1.5-1.5s0.7-1.5,1.5-1.5h6.4c0.8,0,1.5,0.7,1.5,1.5S-185.3,412-186.1,412z"></path></g><g><path d="M-186.1,418h-6.4c-0.8,0-1.5-0.7-1.5-1.5s0.7-1.5,1.5-1.5h6.4c0.8,0,1.5,0.7,1.5,1.5S-185.3,418-186.1,418z"></path></g><g><path d="M-186.1,424h-6.4c-0.8,0-1.5-0.7-1.5-1.5s0.7-1.5,1.5-1.5h6.4c0.8,0,1.5,0.7,1.5,1.5S-185.3,424-186.1,424z"></path></g><g><path d="M-186.1,430h-6.4c-0.8,0-1.5-0.7-1.5-1.5s0.7-1.5,1.5-1.5h6.4c0.8,0,1.5,0.7,1.5,1.5S-185.3,430-186.1,430z"></path></g><g><path d="M-167.8,382h-8.8c-0.8,0-1.5-0.7-1.5-1.5s0.7-1.5,1.5-1.5h8.8c0.8,0,1.5,0.7,1.5,1.5S-166.9,382-167.8,382z"></path></g><g><path d="M-167.8,388h-8.8c-0.8,0-1.5-0.7-1.5-1.5s0.7-1.5,1.5-1.5h8.8c0.8,0,1.5,0.7,1.5,1.5S-166.9,388-167.8,388z"></path></g><g><path d="M-167.8,394h-8.8c-0.8,0-1.5-0.7-1.5-1.5s0.7-1.5,1.5-1.5h8.8c0.8,0,1.5,0.7,1.5,1.5S-166.9,394-167.8,394z"></path></g><g><path d="M-167.8,400h-8.8c-0.8,0-1.5-0.7-1.5-1.5s0.7-1.5,1.5-1.5h8.8c0.8,0,1.5,0.7,1.5,1.5S-166.9,400-167.8,400z"></path></g><g><path d="M-167.8,406h-8.8c-0.8,0-1.5-0.7-1.5-1.5s0.7-1.5,1.5-1.5h8.8c0.8,0,1.5,0.7,1.5,1.5S-166.9,406-167.8,406z"></path></g><g><path d="M-167.8,412h-8.8c-0.8,0-1.5-0.7-1.5-1.5s0.7-1.5,1.5-1.5h8.8c0.8,0,1.5,0.7,1.5,1.5S-166.9,412-167.8,412z"></path></g><g><path d="M-167.8,418h-8.8c-0.8,0-1.5-0.7-1.5-1.5s0.7-1.5,1.5-1.5h8.8c0.8,0,1.5,0.7,1.5,1.5S-166.9,418-167.8,418z"></path></g><g><path d="M-167.8,424h-8.8c-0.8,0-1.5-0.7-1.5-1.5s0.7-1.5,1.5-1.5h8.8c0.8,0,1.5,0.7,1.5,1.5S-166.9,424-167.8,424z"></path></g><g><path d="M-167.8,430h-8.8c-0.8,0-1.5-0.7-1.5-1.5s0.7-1.5,1.5-1.5h8.8c0.8,0,1.5,0.7,1.5,1.5S-166.9,430-167.8,430z"></path></g><g><path d="M-242,363.5L-242,363.5c-1.4,0-2.5,1.1-2.5,2.5l0,0c0,1.4,1.1,2.5,2.5,2.5l0,0c1.4,0,2.5-1.1,2.5-2.5l0,0   C-239.5,364.6-240.6,363.5-242,363.5z"></path></g><g><path d="M-234.5,363.5L-234.5,363.5c-1.4,0-2.5,1.1-2.5,2.5l0,0c0,1.4,1.1,2.5,2.5,2.5l0,0c1.4,0,2.5-1.1,2.5-2.5l0,0   C-232,364.6-233.1,363.5-234.5,363.5z"></path></g><g><path d="M-227,363.5L-227,363.5c-1.4,0-2.5,1.1-2.5,2.5l0,0c0,1.4,1.1,2.5,2.5,2.5l0,0c1.4,0,2.5-1.1,2.5-2.5l0,0   C-224.5,364.6-225.6,363.5-227,363.5z"></path></g></svg>