<svg xmlns="http://www.w3.org/2000/svg" xmlns:xlink="http://www.w3.org/1999/xlink" width="100" height="100" viewBox="0 0 100 100"><g><g transform="translate(50 50) scale(0.69 0.69) rotate(0) translate(-50 -50)" style="fill:#143f5b"><svg fill="#143f5b" xmlns="http://www.w3.org/2000/svg" xmlns:xlink="http://www.w3.org/1999/xlink" version="1.1" x="0px" y="0px" viewBox="0 0 52 52" enable-background="new 0 0 52 52" xml:space="preserve"><g><g><path d="M24.8749657,50.0000877c-0.8242188,0-1.6513672-0.0585938-2.4599609-0.1733398    c-5.0761719-0.7207031-9.3271484-3.9956055-11.3701172-8.7597656c-2.1601563-5.0371094-1.5458984-10.7153301,1.6445313-15.1894512    C22.6874657,11.8560467,23.872036,2.9668863,23.8827782,2.8785074c0.0488281-0.4003906,0.3330078-0.7319336,0.7216797-0.8408203    c0.3867188-0.1103516,0.8037109,0.0263672,1.0537109,0.3408203c0.6767578,0.8530273,16.5703125,20.9951172,16.5703125,30.2685528    C42.2284813,42.2154198,34.443325,50.0000877,24.8749657,50.0000877z M25.4042625,5.3277264    c-0.9287109,3.5610352-3.6142578,11.2314453-11.0859375,21.7109375c-2.78125,3.9008789-3.3183594,8.8500957-1.4355469,13.2397442    c1.7919922,4.1787109,5.3691406,6.9370117,9.8134766,7.5678711c0.7158203,0.1020508,1.4492188,0.1538086,2.1787109,0.1538086    c8.4658203,0,15.3535156-6.887207,15.3535156-15.3530273C40.2284813,25.5347576,29.2528954,10.4112225,25.4042625,5.3277264z"></path></g><g><path d="M25.0429344,49.675869c-1.1689453,0-3.7939453-0.2192383-5.7822266-1.9960938    c-1.5722656-1.4052734-2.3876953-3.4414063-2.421875-6.0507813c-0.0136719-0.1098633-0.3779297-4.6274414,3.7548828-10.9243145    c0.1484375-0.2260742,0.3828125-0.3828125,0.6484375-0.4335938c0.2666016-0.050293,0.5410156,0.0083008,0.7626953,0.1645508    c0.1005859,0.0703125,1.9394531,1.390625,2.875,3.8007793c1.2490234-2.1088867,2.8251953-5.7592754,1.5585938-9.3164043    c-0.1503906-0.4233398,0-0.8945313,0.3662109-1.152832c0.3681641-0.2587891,0.8613281-0.2412109,1.2089844,0.043457    c0.1074219,0.0878906,10.703125,8.9208965,5.921875,19.5493145c-0.0800781,0.2050781-2.4443359,6.012207-8.2900391,6.2929688    C25.6210594,49.6553612,25.3993797,49.675869,25.0429344,49.675869z M21.6405907,32.7998924    c-3.0566406,5.1293945-2.8085938,8.6914063-2.8056641,8.7290039c0.0302734,2.1000977,0.6210938,3.6430664,1.7587891,4.659668    c1.9501953,1.7421875,4.8769531,1.4726563,4.9052734,1.4702148c4.6220703-0.2231445,6.5751953-5.0283203,6.5947266-5.0771484    c2.8564453-6.3510742-0.6484375-12.0332012-3.1816406-15.0161114c0.0742188,5.194334-3.5576172,9.5527325-3.7441406,9.772459    c-0.2646484,0.3125-0.6933594,0.4306641-1.0791016,0.3022461c-0.3876953-0.1293945-0.6582031-0.4819336-0.6816406-0.8901367    C23.2997704,34.925869,22.3515282,33.5704002,21.6405907,32.7998924z"></path></g></g></svg></g></g></svg>