<svg xmlns="http://www.w3.org/2000/svg" xmlns:xlink="http://www.w3.org/1999/xlink" version="1.1" x="0px" y="0px" viewBox="0 0 144.083 144" enable-background="new 0 0 144.083 144" xml:space="preserve"><rect x="44.029" y="69.001" width="6.225" height="6"/><rect x="56.478" y="69.001" width="6.226" height="6"/><rect x="31.578" y="69.001" width="6.227" height="6"/><rect x="93.829" y="69.001" width="6.225" height="6"/><rect x="106.278" y="69.001" width="6.227" height="6"/><rect x="68.929" y="69.001" width="6.224" height="6"/><rect x="81.377" y="69.001" width="6.227" height="6"/><path d="M98.633,32.95H45.449c-1.254,0-2.376,0.78-2.813,1.956s-0.095,2.499,0.855,3.317l26.592,22.894  c0.563,0.484,1.26,0.727,1.957,0.727c0.697,0,1.394-0.242,1.957-0.727l26.594-22.894c0.951-0.818,1.293-2.142,0.855-3.317  C101.01,33.73,99.887,32.95,98.633,32.95z M72.04,54.885L53.531,38.95h37.02L72.04,54.885z" fill="#2c9e76"/><path d="M73.997,82.883c-1.125-0.969-2.789-0.969-3.914,0l-26.592,22.894c-0.95,0.818-1.292,2.142-0.855,3.317  s1.558,1.956,2.813,1.956h53.185c1.254,0,2.377-0.78,2.813-1.956c0.438-1.176,0.096-2.499-0.855-3.317L73.997,82.883z   M53.531,105.05L72.04,89.115l18.511,15.935H53.531z" fill="#143F5B"/></svg>