<svg height='100px' width='100px'  fill="#000000" xmlns="http://www.w3.org/2000/svg" xmlns:xlink="http://www.w3.org/1999/xlink" version="1.1" x="0px" y="0px" viewBox="0 0 100 100" style="enable-background:new 0 0 100 100;" xml:space="preserve"><g><g><path d="M80.1,44.5v29c0,3.6-2.9,6.5-6.5,6.5H26.4c-3.6,0-6.5-2.9-6.5-6.5V26.4c0-3.6,2.9-6.5,6.5-6.5h35l8.9-8.9    c0.8-0.8,0.2-2-0.8-2H26.4C16.8,9,9,16.8,9,26.4v47.1C9,83.2,16.8,91,26.4,91h47.1C83.2,91,91,83.2,91,73.6V37.1    c0-1.3-1.6-1.9-2.5-1L80.1,44.5z"></path></g><g><path d="M90.8,11.9L90.8,11.9c-3-3-8-3-11,0l-4.2,4.2l11,11l4.2-4.2C93.8,19.9,93.8,14.9,90.8,11.9z"></path><rect x="74.9" y="17.6" transform="matrix(0.7071 -0.7071 0.7071 0.7071 4.6174 62.0318)" width="4.6" height="15.6"></rect><path d="M54.3,59.4l24.3-24.3l-11-11L34,57.6l-3.9,14.5L45,68.6l0,0l0,0l8.4-8.4L54.3,59.4L54.3,59.4z M34.5,65.2l2.1-5.5l6.6,6.7    L37.4,68L34.5,65.2z"></path></g></g></svg>