<svg xmlns:dc="http://purl.org/dc/elements/1.1/" xmlns:cc="http://creativecommons.org/ns#" xmlns:rdf="http://www.w3.org/1999/02/22-rdf-syntax-ns#" xmlns:svg="http://www.w3.org/2000/svg" xmlns="http://www.w3.org/2000/svg" xmlns:sodipodi="http://sodipodi.sourceforge.net/DTD/sodipodi-0.dtd" xmlns:inkscape="http://www.inkscape.org/namespaces/inkscape" version="1.1" x="0px" y="0px" viewBox="0 0 100 100"><g transform="translate(0,-952.36218)"><path style="font-size:medium;font-style:normal;font-variant:normal;font-weight:normal;font-stretch:normal;text-indent:0;text-align:start;text-decoration:none;line-height:normal;letter-spacing:normal;word-spacing:normal;text-transform:none;direction:ltr;block-progression:tb;writing-mode:lr-tb;text-anchor:start;baseline-shift:baseline;opacity:1;color:#000000;fill:#143F5B;fill-opacity:1;stroke:none;stroke-width:4;marker:none;visibility:visible;display:inline;overflow:visible;enable-background:accumulate;font-family:Sans;-inkscape-font-specification:Sans" d="M 24.71875 30.96875 A 2.0002 2.0002 0 0 0 23.34375 31.59375 L 6.5625 48.59375 A 2.0002 2.0002 0 0 0 6.5625 51.40625 L 23.34375 68.40625 A 2.0109214 2.0109214 0 1 0 26.21875 65.59375 L 12.78125 52 L 41 52 L 41 62 A 2.0002 2.0002 0 1 0 45 62 L 45 38 A 2.0002 2.0002 0 0 0 42.78125 35.96875 A 2.0002 2.0002 0 0 0 41 38 L 41 48 L 12.78125 48 L 26.21875 34.40625 A 2.0002 2.0002 0 0 0 24.71875 30.96875 z" transform="translate(0,952.36218)"></path>

<path fill="#143F5B" d="M 75 30.96875 A 2.0002 2.0002 0 0 0 73.78125 34.40625 L 87.21875 48 L 59 48 L 59 38 A 2.0002 2.0002 0 0 0 56.78125 35.96875 A 2.0002 2.0002 0 0 0 55 38 L 55 62 A 2.0002 2.0002 0 1 0 59 62 L 59 52 L 87.21875 52 L 73.78125 65.59375 A 2.0109214 2.0109214 0 1 0 76.65625 68.40625 L 93.4375 51.40625 A 2.0002 2.0002 0 0 0 93.4375 48.59375 L 76.65625 31.59375 A 2.0002 2.0002 0 0 0 75 30.96875 z " transform="translate(0,952.36218)"></path></g></svg>