<svg xmlns="http://www.w3.org/2000/svg" xmlns:xlink="http://www.w3.org/1999/xlink" version="1.1" x="0px" y="0px" viewBox="0 0 96 96" enable-background="new 0 0 96 96" xml:space="preserve"><path d="M-0.26,42.616C-0.26,54,12.172,54,16.264,54c2.208,0,4-1.788,4-4V28.368c0-1,0.056-1.96,0.104-2.86  c0.168-3.22,0.356-6.548-1.976-9.012c-1.456-1.532-3.556-2.308-6.244-2.308c-3.696,0-6.3,1.636-7.744,4.864  C3.5,21.072,4.34,23.4,6.356,24.296c2.024,0.912,4.316-0.04,5.216-2.056c0,0,0.456-0.08,0.868-0.048  c0.048,0.7-0.008,1.808-0.056,2.724C4.46,27.164-0.26,36.016-0.26,42.616L-0.26,42.616z M12.26,45.808  c-4.112-0.472-4.524-1.776-4.524-3.192c0-2.504,1.68-6.632,4.524-8.804V45.808z" fill="#143F5B"/><path d="M28.26,54h6.444c4.084,0,13.652,0,13.652-11.384c0-6.608-7.588-15.436-16.096-17.696V10c0-2.208-1.792-4-4-4s-4,1.792-4,4  v40C24.26,52.212,26.056,54,28.26,54z M32.26,33.36c4.468,2.132,8.096,7.148,8.096,9.256c0,2.736,0,3.384-5.652,3.384H32.26V33.36z" fill="#143F5B"/><path d="M59.582,65.252L49.23,54.9l25.172-25.173l10.353,10.352L59.582,65.252z" fill="#2c9e76"/><path d="M91.396,33.212c1.592-1.584,2.611-3.596,2.855-5.656c0.256-2.204-0.408-4.276-1.832-5.712  c-2.855-2.852-7.96-2.4-11.372,1.021l-4.063,4.056l10.352,10.352L91.396,33.212z" fill="#2c9e76"/><path d="M45.18,58.729c-0.144,0.14-0.264,0.304-0.36,0.483l-8.192,15.724c-0.404,0.769-0.256,1.725,0.36,2.336  c0.384,0.389,0.9,0.584,1.416,0.584c0.316,0,0.632-0.076,0.92-0.228l15.72-8.192c0.181-0.088,0.345-0.216,0.492-0.359l0.972-0.977  L46.156,57.748L45.18,58.729z" fill="#ecaf42"/><path d="M92.26,82h-88c-2.208,0-4,1.792-4,4c0,2.212,1.792,4,4,4h88c2.208,0,4-1.788,4-4C96.26,83.792,94.468,82,92.26,82z" fill="#143F5B"/></svg>