<svg xmlns="http://www.w3.org/2000/svg" xmlns:xlink="http://www.w3.org/1999/xlink" version="1.1" x="0px" y="0px" viewBox="0 0 16 20" style="enable-background:new 0 0 16 16;" xml:space="preserve"><g><rect fill="#143F5B" y="15" width="1" height="1"/><rect fill="#143F5B" x="2" y="15" width="1" height="1"/><rect fill="#143F5B" x="4" y="15" width="1" height="1"/><rect fill="#143F5B" x="6" y="15" width="1" height="1"/><rect fill="#143F5B" x="8" y="15" width="1" height="1"/><rect fill="#143F5B" x="10" y="15" width="1" height="1"/><rect fill="#143F5B" y="5" width="1" height="1"/><rect fill="#143F5B" x="2" y="5" width="1" height="1"/><rect fill="#143F5B" x="4" y="5" width="1" height="1"/><rect fill="#143F5B" x="6" y="5" width="1" height="1"/><rect fill="#143F5B" x="8" y="5" width="1" height="1"/><rect fill="#143F5B" x="10" y="5" width="1" height="1"/><rect fill="#143F5B" x="10" y="7" width="1" height="1"/><rect fill="#143F5B" x="10" y="9" width="1" height="1"/><rect fill="#143F5B" x="10" y="11" width="1" height="1"/><rect fill="#143F5B" x="10" y="13" width="1" height="1"/><rect fill="#143F5B" y="7" width="1" height="1"/><rect fill="#143F5B" y="9" width="1" height="1"/><rect fill="#143F5B" y="11" width="1" height="1"/><rect fill="#143F5B" y="13" width="1" height="1"/><polygon fill="#2c9e76" points="9,1 2,1 2,0 0,1.5 2,3 2,2 9,2 9,3 11,1.5 9,0  "/><polygon fill="#2c9e76" points="15,7 16,7 14.5,5 13,7 14,7 14,14 13,14 14.5,16 16,14 15,14  "/></g></svg>