<svg width="36" height="36" viewBox="0 0 36 36" fill="none" xmlns="http://www.w3.org/2000/svg">
<path d="M27.3333 6H8.66667C7.2 6 6 7.2 6 8.66667V27.3333C6 28.8 7.2 30 8.66667 30H27.3333C28.8 30 30 28.8 30 27.3333V8.66667C30 7.2 28.8 6 27.3333 6ZM16.6667 12.6667H14V15.3333C14 16.8 12.8 18 11.3333 18C12.8 18 14 19.2 14 20.6667V23.3333H16.6667V26H14C12.5333 26 11.3333 24.8 11.3333 23.3333V22C11.3333 20.5333 10.1333 19.3333 8.66667 19.3333V16.6667C10.1333 16.6667 11.3333 15.4667 11.3333 14V12.6667C11.3333 11.2 12.5333 10 14 10H16.6667V12.6667ZM27.3333 19.3333C25.8667 19.3333 24.6667 20.5333 24.6667 22V23.3333C24.6667 24.8 23.4667 26 22 26H19.3333V23.3333H22V20.6667C22 19.2 23.2 18 24.6667 18C23.2 18 22 16.8 22 15.3333V12.6667H19.3333V10H22C23.4667 10 24.6667 11.2 24.6667 12.6667V14C24.6667 15.4667 25.8667 16.6667 27.3333 16.6667V19.3333Z" fill="#FF8A65"/>
</svg>
