<svg height='100px' width='100px'  fill="#000000" xmlns="http://www.w3.org/2000/svg" viewBox="0 0 32 32" x="0px" y="0px"><title>picture, image, photo, camera, photography</title><g data-name="Layer 2"><path d="M29,5H3A1,1,0,0,0,2,6V26a1,1,0,0,0,1,1H29a1,1,0,0,0,1-1V6A1,1,0,0,0,29,5ZM28,25H4V7H28Z"></path><path d="M7,23H25a1,1,0,0,0,.79-1.61l-7-9A1.06,1.06,0,0,0,18,12a1,1,0,0,0-.79.4l-3.92,5.27-1.61-1.42a1,1,0,0,0-.75-.25,1,1,0,0,0-.69.37l-4,5A1,1,0,0,0,7,23Zm4.13-4.56,1.64,1.45a1,1,0,0,0,1.46-.15L18,14.65,23,21H9.08Z"></path><circle cx="10" cy="11" r="2"></circle></g></svg>