<svg height='100px' width='100px'  fill="#000000" xmlns="http://www.w3.org/2000/svg" xmlns:xlink="http://www.w3.org/1999/xlink" version="1.1" x="0px" y="0px" viewBox="0 0 95 95" enable-background="new 0 0 95 95" xml:space="preserve"><circle fill="none" stroke="#000000" stroke-width="5" stroke-miterlimit="10" cx="61" cy="41.2" r="28.4"></circle><path d="M15.7,87.4L15.7,87.4c1.5,1.5,3.9,1.5,5.4,0l21.6-21.6c1.5-1.5,1.5-3.9,0-5.4l0,0c-1.5-1.5-3.9-1.5-5.4,0L15.7,82  C14.2,83.5,14.2,85.9,15.7,87.4z"></path><path d="M33.5,54.6H9c-0.6,0-1-0.5-1-1v0c0-0.6,0.5-1,1-1h24.5c0.6,0,1,0.5,1,1v0C34.5,54.1,34.1,54.6,33.5,54.6z"></path><rect x="10.7" y="43.9" width="7.2" height="8.6"></rect><rect x="43.7" y="26.5" width="15.8" height="23.2"></rect><rect x="20.9" y="36.8" width="7.2" height="15.8"></rect><path d="M33.4,53.2L33.4,53.2c0.6,0.8,1.7,1.3,2.8,1.3h24.6c1.8,0,3.3-1.1,3.3-2.5v0c0-1.4-1.5-2.5-3.3-2.5H36.3  C33.8,49.5,32.2,51.6,33.4,53.2z"></path></svg>