<?xml version="1.0" encoding="utf-8"?>
<!-- Generator: Adobe Illustrator 22.0.1, SVG Export Plug-In . SVG Version: 6.00 Build 0)  -->
<svg version="1.1" xmlns="http://www.w3.org/2000/svg" xmlns:xlink="http://www.w3.org/1999/xlink" x="0px" y="0px"
	 viewBox="0 0 90 90" style="enable-background:new 0 0 90 90;" xml:space="preserve">
<style type="text/css">
	.st0{fill:#4FA4DE;}
	.st1{fill:#5E61E3;}
</style>
<g id="Layer_2">
</g>
<g id="Layer_1">
	<g>
		<g>
			<rect y="5.4" class="st0" width="51.2" height="8.1"/>
			<path class="st0" d="M0,24.7v8.1h29.1c2.4-3.3,5.5-6.1,9.1-8.1C38.2,24.7,0,24.7,0,24.7z"/>
			<path class="st0" d="M0,43.4v8.1h23.5c0-0.4-0.1-0.9-0.1-1.3c0-2.3,0.3-4.6,0.8-6.8C24.2,43.4,0,43.4,0,43.4z"/>
			<path class="st1" d="M60.6,25.9c-5.3,0-10.3,1.4-14.6,3.9c-3.6,2-6.6,4.8-9.1,8.1c-2.3,3.1-4,6.7-4.9,10.6
				c-0.5,2.2-0.8,4.4-0.8,6.8c0,0.4,0,0.9,0.1,1.3c0.7,15.6,13.5,28,29.3,28C76.9,84.6,90,71.5,90,55.3C90,39,76.9,25.9,60.6,25.9z
				 M56.8,33.7c1-1.1,2.5-1.7,4.3-1.7c1.8,0,3.3,0.6,4.4,1.7c1.1,1.1,1.7,2.5,1.7,4.1c0,1.6-0.6,3-1.7,4c-1.1,1-2.6,1.6-4.4,1.6
				c-1.8,0-3.2-0.5-4.3-1.6c-1-1-1.5-2.4-1.5-4C55.2,36.2,55.8,34.8,56.8,33.7z M71.7,76.5H51.2v-7.8h5.5V53.5h-5.5v-7.8h14.5v23h6
				V76.5z"/>
		</g>
	</g>
</g>
</svg>
