<svg xmlns="http://www.w3.org/2000/svg" data-name="Layer 1" viewBox="0 0 100 100" x="0px" y="0px"><title>All</title>

<path fill="#143F5B" d="M50.16,0c27.45,0.09,50,22.66,49.84,49.92A50.14,50.14,0,0,1,49.8,100C22.33,100.05-.13,77.31,0,49.56A50,50,0,0,1,50.16,0Zm0.23,9.46A40.42,40.42,0,0,0,9.58,49.91C9.33,72,27.66,90.44,49.81,90.49a40.48,40.48,0,0,0,40.57-40.7C90.25,27.64,72.25,9.49,50.39,9.46Z"></path>

<path fill="#2c9e76" d="M47.89,78.34H44.21A0.88,0.88,0,0,0,44,78.21a4.76,4.76,0,0,1-2.84-5.7c1.67-6.89,3.39-13.77,5.06-20.66a21.61,21.61,0,0,0,.5-2.9,0.67,0.67,0,0,0-.9-0.8,5.43,5.43,0,0,0-1.15.39c-0.84.35-1.65,0.76-2.49,1.09a1.41,1.41,0,0,1-1.81-.36V47.92a15.21,15.21,0,0,1,1.93-2.22c2.52-2,5.11-3.89,7.71-5.79a8.67,8.67,0,0,1,1.78-.9,4.33,4.33,0,0,1,2.61-.27,5.06,5.06,0,0,1,4.17,6.53q-2.45,10-4.9,19.9a26.73,26.73,0,0,0-.58,3.28,0.64,0.64,0,0,0,.93.72c0.62-.19,1.2-0.49,1.8-0.73s1.47-.61,2.22-0.86a1.06,1.06,0,0,1,1.21.35,1.11,1.11,0,0,1,.12,1.3,4.84,4.84,0,0,1-.69,1.07,18.8,18.8,0,0,1-2,1.9A56.41,56.41,0,0,1,47.89,78.34Z"></path>

<path fill="#2c9e76" d="M52.65,35.62a7,7,0,1,1,6.94-7A6.95,6.95,0,0,1,52.65,35.62Z"></path>

</svg>