<svg xmlns:dc="http://purl.org/dc/elements/1.1/" xmlns:cc="http://creativecommons.org/ns#" xmlns:rdf="http://www.w3.org/1999/02/22-rdf-syntax-ns#" xmlns:svg="http://www.w3.org/2000/svg" xmlns="http://www.w3.org/2000/svg" xmlns:sodipodi="http://sodipodi.sourceforge.net/DTD/sodipodi-0.dtd" xmlns:inkscape="http://www.inkscape.org/namespaces/inkscape" viewBox="0 0 32 32.000001" version="1.1" x="0px" y="0px"><g transform="translate(0,-1020.3622)"><path style="color:#000000;font-style:normal;font-variant:normal;font-weight:normal;font-stretch:normal;font-size:medium;line-height:normal;font-family:sans-serif;text-indent:0;text-align:start;text-decoration:none;text-decoration-line:none;text-decoration-style:solid;text-decoration-color:#000000;letter-spacing:normal;word-spacing:normal;text-transform:none;direction:ltr;block-progression:tb;writing-mode:lr-tb;baseline-shift:baseline;text-anchor:start;white-space:normal;clip-rule:nonzero;display:inline;overflow:visible;visibility:visible;opacity:1;isolation:auto;mix-blend-mode:normal;color-interpolation:sRGB;color-interpolation-filters:linearRGB;solid-color:#000000;solid-opacity:1;fill:#000000;fill-opacity:1;fill-rule:evenodd;stroke:none;stroke-width:1.02252817;stroke-linecap:round;stroke-linejoin:round;stroke-miterlimit:4;stroke-dasharray:none;stroke-dashoffset:0;stroke-opacity:1;color-rendering:auto;image-rendering:auto;shape-rendering:auto;text-rendering:auto;enable-background:accumulate" d="M 6.0800781 1.0039062 C 4.9484679 1.0039062 4 1.8959719 4 3.0136719 L 4 22.533203 L 4 24.800781 L 4 27.068359 L 4 28.201172 L 4 28.994141 C 4 30.111741 4.9484679 31.003906 6.0800781 31.003906 L 24.916016 31.003906 C 26.047626 31.003906 26.996094 30.111741 26.996094 28.994141 L 26.996094 28.244141 C 26.9963 28.229539 27 28.215816 27 28.201172 L 27 27.068359 L 27 24.800781 L 27 22.533203 A 0.53169262 0.53169262 0 0 0 26.996094 22.464844 L 26.996094 7.5117188 A 0.51131521 0.51131521 0 0 0 26.837891 7.140625 L 20.560547 1.1464844 A 0.51131521 0.51131521 0 0 0 20.207031 1.0039062 L 6.0800781 1.0039062 z M 6.0800781 2.0273438 L 20.001953 2.0273438 L 20.042969 2.0664062 L 20.042969 6.0039062 C 20.042969 6.4439063 20.057269 6.8805625 20.259766 7.2890625 C 20.462263 7.6975625 20.946401 8.0039062 21.496094 8.0039062 L 25.974609 8.0039062 L 25.974609 22 L 24.474609 22 L 6.5253906 22 L 5.0234375 22 L 5.0234375 3.0136719 C 5.0234375 2.4707719 5.472631 2.0273438 6.0800781 2.0273438 z M 21.042969 3.0214844 L 25.212891 7.0039062 L 21.496094 7.0039062 C 21.214796 7.0039062 21.222558 6.97785 21.15625 6.84375 C 21.08994 6.70995 21.042969 6.3949062 21.042969 6.0039062 L 21.042969 3.0214844 z M 13.507812 10.001953 L 13.507812 10.003906 C 12.408461 10.003906 11.507813 10.904606 11.507812 12.003906 L 11.507812 12.958984 L 11.507812 13.003906 C 11.507812 13.566606 11.070462 14.003906 10.507812 14.003906 A 0.50005 0.50005 0 0 0 10.009766 14.410156 A 0.50005 0.50005 0 0 0 10.158203 14.865234 A 0.50005 0.50005 0 0 0 10.236328 14.925781 A 0.50005 0.50005 0 0 0 10.375 14.984375 A 0.50005 0.50005 0 0 0 10.472656 15.001953 A 0.50005 0.50005 0 0 0 10.507812 15.001953 C 11.070462 15.001953 11.507812 15.439353 11.507812 16.001953 L 11.507812 16.048828 L 11.507812 17.001953 C 11.507812 18.101353 12.408463 19.001953 13.507812 19.001953 A 0.50005 0.50005 0 1 0 13.507812 18.001953 C 12.945165 18.001953 12.507812 17.564653 12.507812 17.001953 L 12.507812 16.048828 L 12.507812 16.001953 C 12.507812 15.403653 12.234841 14.869453 11.814453 14.501953 C 12.235381 14.134453 12.507813 13.600753 12.507812 13.001953 L 12.507812 12.957031 L 12.507812 12.001953 C 12.507812 11.439353 12.945165 11.001953 13.507812 11.001953 A 0.50005 0.50005 0 1 0 13.507812 10.001953 z M 17.441406 10.003906 A 0.50064429 0.50064429 0 0 0 17.492188 11.003906 C 18.054834 11.003906 18.492188 11.441306 18.492188 12.003906 L 18.492188 12.958984 L 18.492188 13.003906 C 18.492188 13.602706 18.764619 14.136406 19.185547 14.503906 C 18.765159 14.871406 18.492188 15.405606 18.492188 16.003906 L 18.492188 16.050781 L 18.492188 17.003906 C 18.492188 17.566606 18.054834 18.003906 17.492188 18.003906 A 0.50005 0.50005 0 1 0 17.492188 19.003906 C 18.591538 19.003906 19.492188 18.103306 19.492188 17.003906 L 19.492188 16.050781 L 19.492188 16.003906 C 19.492188 15.441306 19.929537 15.003906 20.492188 15.003906 A 0.50005 0.50005 0 0 0 20.816406 14.890625 A 0.50005 0.50005 0 0 0 20.853516 14.855469 A 0.50005 0.50005 0 0 0 20.492188 14.003906 C 19.929537 14.003906 19.492188 13.566606 19.492188 13.003906 L 19.492188 12.958984 L 19.492188 12.003906 C 19.492188 10.904606 18.591538 10.003906 17.492188 10.003906 A 0.50005 0.50005 0 0 0 17.441406 10.003906 z M 15.5 12 A 0.5 0.5 0 0 0 15 12.5 A 0.5 0.5 0 0 0 15.5 13 A 0.5 0.5 0 0 0 16 12.5 A 0.5 0.5 0 0 0 15.5 12 z M 15.492188 13.994141 A 0.50005 0.50005 0 0 0 15 14.5 L 15 17.5 A 0.50005 0.50005 0 1 0 16 17.5 L 16 14.5 A 0.50005 0.50005 0 0 0 15.492188 13.994141 z M 5.0625 23.064453 L 6.5253906 23.064453 L 24.474609 23.064453 L 25.9375 23.064453 L 25.9375 24.800781 L 25.9375 27.068359 L 25.9375 28.201172 C 25.9375 29.206472 25.254989 29.9375 24.474609 29.9375 L 6.5253906 29.9375 C 5.745011 29.9375 5.0625 29.206472 5.0625 28.201172 L 5.0625 27.068359 L 5.0625 24.800781 L 5.0625 23.064453 z M 21.519531 24 L 21.519531 24.005859 A 0.50005 0.50005 0 0 0 21.46875 24.005859 A 0.50005 0.50005 0 0 0 21 24.546875 L 21 28.509766 A 0.50005 0.50005 0 1 0 22 28.509766 L 22 26.009766 L 24.082031 28.789062 A 0.50005 0.50005 0 0 0 24.083984 28.789062 L 24.097656 28.806641 A 0.50005 0.50005 0 0 0 25 28.505859 L 25 24.517578 A 0.50005 0.50005 0 0 0 24.492188 24.009766 A 0.50005 0.50005 0 0 0 24 24.517578 L 24 27.007812 L 21.902344 24.207031 A 0.50005 0.50005 0 0 0 21.519531 24 z M 8.4941406 24.015625 L 8.4941406 24.017578 A 0.50005 0.50005 0 0 0 8.0019531 24.525391 L 8.0019531 27.517578 C 8.0019531 27.803278 7.7875839 28.017578 7.5019531 28.017578 C 7.2163238 28.017578 7.0019531 27.803278 7.0019531 27.517578 A 0.50005 0.50005 0 0 0 6.4941406 27.011719 A 0.50005 0.50005 0 0 0 6.0019531 27.517578 C 6.0019531 28.339978 6.6796084 29.017578 7.5019531 29.017578 C 8.2758923 29.017578 8.9129841 28.414403 8.9863281 27.658203 A 0.50005 0.50005 0 0 0 9.0019531 27.525391 C 9.0019671 27.525391 9.0019531 27.515625 9.0019531 27.515625 L 9.0019531 24.523438 A 0.50005 0.50005 0 0 0 8.4941406 24.015625 z M 11.443359 24.017578 A 0.50005 0.50005 0 0 0 11.380859 24.029297 C 10.611362 24.089297 9.9941396 24.733978 9.9941406 25.517578 C 9.9941406 26.307978 10.621693 26.957913 11.400391 27.007812 A 0.50005 0.50005 0 0 0 11.494141 27.017578 L 12.494141 27.017578 C 12.779789 27.017578 12.994141 27.231978 12.994141 27.517578 C 12.994141 27.803278 12.779789 28.017578 12.494141 28.017578 L 10.494141 28.017578 A 0.50005 0.50005 0 1 0 10.494141 29.017578 L 12.494141 29.017578 A 0.50005 0.50005 0 0 0 12.597656 29.005859 C 13.371725 28.950859 13.99414 28.304578 13.994141 27.517578 C 13.994141 26.731978 13.373875 26.084144 12.601562 26.027344 A 0.50005 0.50005 0 0 0 12.494141 26.017578 L 11.529297 26.017578 A 0.50005 0.50005 0 0 0 11.494141 26.017578 C 11.208492 26.017578 10.994141 25.803278 10.994141 25.517578 C 10.994141 25.231978 11.208492 25.017578 11.494141 25.017578 L 13.494141 25.017578 A 0.50005 0.50005 0 1 0 13.494141 24.017578 L 11.529297 24.017578 A 0.50005 0.50005 0 0 0 11.494141 24.017578 A 0.50005 0.50005 0 0 0 11.443359 24.017578 z M 17.501953 24.017578 C 16.127164 24.017578 15.001953 25.142778 15.001953 26.517578 C 15.001953 27.892378 16.127164 29.017578 17.501953 29.017578 C 18.876742 29.017578 20.001953 27.892378 20.001953 26.517578 C 20.001953 25.142778 18.876742 24.017578 17.501953 24.017578 z M 17.501953 25.017578 C 18.336302 25.017578 19.001953 25.683278 19.001953 26.517578 C 19.001953 27.351978 18.336302 28.017578 17.501953 28.017578 C 16.667604 28.017578 16.001953 27.351978 16.001953 26.517578 C 16.001953 25.683278 16.667604 25.017578 17.501953 25.017578 z " transform="translate(0,1020.3622)"></path></g></svg>