<svg height='100px' width='100px'  fill="#000000" xmlns="http://www.w3.org/2000/svg" xmlns:xlink="http://www.w3.org/1999/xlink" version="1.1" x="0px" y="0px" viewBox="0 0 52 52" enable-background="new 0 0 52 52" xml:space="preserve"><g><path d="M11.3818,43.8784h5.1924c0.5527,0,1-0.4478,1-1V31.9951c0-0.5523-0.4473-1-1-1h-5.1924c-0.5527,0-1,0.4477-1,1v10.8833   C10.3818,43.4306,10.8291,43.8784,11.3818,43.8784z M12.3818,32.9951h3.1924v8.8833h-3.1924V32.9951z"></path><path d="M20.8769,21.6479c-0.5527,0-1,0.4478-1,1v20.2305c0,0.5522,0.4473,1,1,1h5.1934c0.5527,0,1-0.4478,1-1V22.6479   c0-0.5522-0.4473-1-1-1H20.8769z M25.0703,41.8784h-3.1934V23.6479h3.1934V41.8784z"></path><path d="M35.5664,28.6211H30.373c-0.5527,0-1,0.4477-1,1v13.2573c0,0.5522,0.4473,1,1,1h5.1934c0.5527,0,1-0.4478,1-1V29.6211   C36.5664,29.0688,36.1191,28.6211,35.5664,28.6211z M34.5664,41.8784H31.373V30.6211h3.1934V41.8784z"></path><path d="M39.8691,14.6743c-0.5527,0-1,0.4477-1,1v27.2041c0,0.5522,0.4473,1,1,1h5.19342c0.55268,0,1-0.4478,1-1V15.6743   c0-0.5523-0.44732-1-1-1H39.8691z M44.06252,41.8784H40.8691V16.6743h3.19342V41.8784z"></path><path d="M44.3076,1.5009C44.1289,1.1909,43.7978,1,43.4404,1h-2.252c-0.3574,0-0.706,0.2265-0.8847,0.5361l-1.1035,1.9141   c-0.17868,0.309-0.17868,0.6899,0,0.999l0.8449,1.468l-6.4503,12.0955h-1.0607l-5.7043-9.8621l0.8079-1.406   c0.1767-0.3086,0.1767-0.688,0-0.9966l-1.1211-1.9497c-0.1787-0.3101-0.5098-0.5015-0.8672-0.5015h-2.25288   c-0.35752,0-0.68852,0.1914-0.86722,0.5015L21.4082,5.748c-0.1778,0.3091-0.1768,0.689,0.0009,0.9981l0.6813,1.1845   l-7.3495,10.1353h-1.74c-0.35738,0-0.6875,0.1904-0.8662,0.5l-1.1259,1.9497c-0.1788,0.3096-0.1788,0.6904,0,1l1.1259,1.9497   c0.1787,0.3096,0.50882,0.5,0.8662,0.5h2.251c0.3574,0,0.6875-0.1904,0.8662-0.5l1.126-1.9497c0.1787-0.3096,0.1787-0.6904,0-1   l-0.8021-1.3889l7.2009-9.9304h1.4823l5.6988,9.8525l-0.8152,1.4141c-0.1788,0.309-0.1788,0.6899,0,0.999l1.1162,1.9404   c0.1767,0.3145,0.5097,0.5093,0.8711,0.5093h2.2529c0.3584,0,0.7148-0.2359,0.89352-0.5459l1.09478-1.9053   c0.1767-0.3081,0.1767-0.688,0-0.9966l-0.8727-1.5177L41.789,6.8994h1.6514c0.3574,0,0.7148-0.2359,0.8936-0.5459l1.0957-1.9053   c0.1767-0.3086,0.1767-0.6885,0-0.9975L44.3076,1.5009z M14.6748,21.9653h-1.0967l-0.5488-0.9497l0.5488-0.9497h1.0967   l0.5488,0.9497L14.6748,21.9653z M25.0713,7.1963h-1.09478L23.4297,6.2461l0.5449-0.9493h1.0967l0.5459,0.9497L25.0713,7.1963z    M33.6709,21.9116h-1.0948l-0.5468-0.9492l0.5478-0.9497h1.0938l0.5459,0.9497L33.6709,21.9116z M42.8633,4.8994h-1.09578   L41.2207,3.9492L41.7656,3h1.0967l0.5468,0.9497L42.8633,4.8994z"></path><path d="M5.8564,7.6621v37.6338H2.4121c-0.5528,0-1,0.4477-1,1c0,0.5522,0.4472,1,1,1h3.4443V50c0,0.5522,0.4473,1,1,1   s1-0.4478,1-1v-2.7041h41.7315c0.5527,0,1-0.4478,1-1c0-0.5523-0.4473-1-1-1H7.8564V7.6621c0-0.5523-0.4473-1-1-1   S5.8564,7.1098,5.8564,7.6621z"></path></g></svg>