<svg height='100px' width='100px'  fill="#143f5b" xmlns="http://www.w3.org/2000/svg" xmlns:xlink="http://www.w3.org/1999/xlink" version="1.1" x="0px" y="0px" viewBox="0 0 100 100" enable-background="new 0 0 100 100" xml:space="preserve"><g><path fill-rule="evenodd" clip-rule="evenodd" fill="#143f5b" d="M54.21,40.64c-2.192,0-4.378,0.843-6.05,2.516   c-3.344,3.344-5.214,13.349-13.227,17.979c9.567,0.7,18.173,0.535,25.332-5.878c3.52-3.155,3.345-8.757,0-12.101   c-1.672-1.673-3.861-2.516-6.05-2.516H54.21z"></path><path fill="#143f5b" d="M84,30.314V74.73c0,0.92-1.088,2.27-2.008,2.27H13.131C12.211,77,11,75.65,11,74.73V40.403l14.454-0.092   c3.021-0.02,4.508-1.101,4.541-4.122L30.27,22h40.926l6.465-6.744l-49.408-0.053L5,37.202v37.528C5,79.221,8.641,83,13.131,83   h68.861C86.483,83,90,79.221,90,74.729v-50.88L84,30.314z"></path><g><line fill-rule="evenodd" clip-rule="evenodd" fill="#143f5b" x1="90.662" y1="12.643" x2="64.982" y2="38.324"></line><path fill-rule="evenodd" clip-rule="evenodd" fill="#143f5b" d="M64.981,42.634c-1.103,0-2.206-0.421-3.048-1.262    c-1.683-1.684-1.683-4.413,0-6.096l25.681-25.68c1.685-1.682,4.413-1.682,6.096,0c1.683,1.684,1.683,4.413,0,6.096l-25.681,25.68    C67.187,42.213,66.084,42.634,64.981,42.634z"></path></g></g></svg>