<?xml version="1.0" encoding="utf-8"?>
<!-- Generator: Adobe Illustrator 16.0.3, SVG Export Plug-In . SVG Version: 6.00 Build 0)  -->
<!DOCTYPE svg PUBLIC "-//W3C//DTD SVG 1.1//EN" "http://www.w3.org/Graphics/SVG/1.1/DTD/svg11.dtd">
<svg version="1.1" id="Layer_1" xmlns="http://www.w3.org/2000/svg" xmlns:xlink="http://www.w3.org/1999/xlink" x="0px" y="0px"
	 width="612px" height="362.5px" viewBox="0 0 612 362.5" enable-background="new 0 0 612 362.5" xml:space="preserve">
<line fill="none" stroke="#0C4BA2" stroke-width="4" stroke-miterlimit="10" x1="51.5" y1="319.603" x2="139.451" y2="282.103"/>
<line fill="none" stroke="#0C4BA2" stroke-width="4" stroke-miterlimit="10" x1="287.35" y1="246.603" x2="379.65" y2="138.802"/>
<line fill="none" stroke="#0C4BA2" stroke-width="4" stroke-miterlimit="10" x1="379.65" y1="138.802" x2="471.951" y2="48.401"/>
<line fill="none" stroke="#0C4BA2" stroke-width="4" stroke-miterlimit="10" x1="486.5" y1="41.796" x2="571.951" y2="103.901"/>
<line fill="none" stroke="#0C4BA2" stroke-width="4" stroke-miterlimit="10" x1="33.55" y1="110.401" x2="139.451" y2="176.901"/>
<line fill="none" stroke="#0C4BA2" stroke-width="4" stroke-miterlimit="10" x1="139.451" y1="176.901" x2="287.35" y2="318.901"/>
<line fill="none" stroke="#0C4BA2" stroke-width="4" stroke-miterlimit="10" x1="139.451" y1="282.103" x2="287.35" y2="246.603"/>
<line fill="none" stroke="#0C4BA2" stroke-width="4" stroke-miterlimit="10" x1="287.35" y1="318.901" x2="379.65" y2="301.502"/>
<line fill="none" stroke="#0C4BA2" stroke-width="4" stroke-miterlimit="10" x1="379.65" y1="299.603" x2="471.951" y2="326.002"/>
<line fill="none" stroke="#0C4BA2" stroke-width="4" stroke-miterlimit="10" x1="471.951" y1="326.002" x2="571.951" y2="309.901"/>
<ellipse fill="#2A95D3" cx="287.35" cy="318.302" rx="9" ry="9.7"/>
<ellipse fill="#0C4BA2" cx="42.099" cy="114.37" rx="19.094" ry="19.094"/>
<ellipse fill="#2A95D3" cx="379.65" cy="299.602" rx="9" ry="9.7"/>
<ellipse fill="#2A95D3" cx="471.951" cy="326.002" rx="9" ry="9.7"/>
<ellipse fill="#2A95D3" cx="566.85" cy="309.902" rx="9" ry="9.7"/>
<ellipse fill="#2A95D3" cx="139.451" cy="282.102" rx="9" ry="9.7"/>
<ellipse fill="#2A95D3" cx="287.35" cy="243.401" rx="9" ry="9.7"/>
<ellipse fill="#2A95D3" cx="379.65" cy="138.803" rx="9" ry="9.7"/>
<ellipse fill="#2A95D3" cx="471.951" cy="48.401" rx="9" ry="9.7"/>
<ellipse fill="#2A95D3" cx="571.951" cy="103.901" rx="9" ry="9.7"/>
<ellipse fill="#0C4BA2" cx="140.327" cy="173.004" rx="19.094" ry="19.094"/>
<ellipse fill="#0C4BA2" cx="291.957" cy="240.906" rx="19.094" ry="19.094"/>
<ellipse fill="#0C4BA2" cx="386.203" cy="134.103" rx="19.094" ry="19.094"/>
<ellipse fill="#0C4BA2" cx="480.449" cy="41.796" rx="19.094" ry="19.094"/>
<ellipse fill="#0C4BA2" cx="577.348" cy="103.901" rx="19.094" ry="19.094"/>
<ellipse fill="#0C4BA2" cx="577.348" cy="307.48" rx="19.095" ry="19.095"/>
<ellipse fill="#0C4BA2" cx="479.733" cy="325.248" rx="19.094" ry="19.094"/>
<ellipse fill="#0C4BA2" cx="386.203" cy="298.291" rx="19.094" ry="19.094"/>
<ellipse fill="#0C4BA2" cx="291.957" cy="315.343" rx="19.094" ry="19.094"/>
<ellipse fill="#0C4BA2" cx="140.94" cy="280.422" rx="19.095" ry="19.095"/>
<ellipse fill="#0C4BA2" cx="42.099" cy="326.575" rx="19.093" ry="19.093"/>
</svg>
