<?xml version="1.0" encoding="utf-8"?>
<!-- Generator: Adobe Illustrator 19.1.1, SVG Export Plug-In . SVG Version: 6.00 Build 0)  -->
<svg version="1.1" id="Layer_1" xmlns="http://www.w3.org/2000/svg" xmlns:xlink="http://www.w3.org/1999/xlink" x="0px" y="0px"
	 viewBox="180 -109.5 612 362.5" style="enable-background:new 180 -109.5 612 362.5;" xml:space="preserve">
<style type="text/css">
	.st0{fill:none;stroke:#ecaf42;stroke-width:19;stroke-miterlimit:10;}
	.st1{fill:none;stroke:#2c9e76;stroke-width:19;stroke-miterlimit:10;}
	.st2{fill:none;stroke:#143F5B;stroke-width:19;stroke-miterlimit:10;}
</style>
<path class="st0" d="M198,93.5C256.8,9.3,306.8-11,344-11.5c108.9-1.4,158.3,167,274,170c61.6,1.6,114.2-44.3,152-89"/>
<path class="st1" d="M198,95.3C273.6-72.3,323.2-101.6,354.3-98.3c31.3,3.3,44.9,40,124,166.9c98.2,157.6,121.5,172,142.2,173.8
	c63.5,5.6,124.1-105.1,155.3-171.9"/>
<path class="st2" d="M192,100.5c66.2-30.5,120.5-37.7,156.4-39c117.2-4.3,172.1,49,287.4,43c63.9-3.3,114.5-23.3,145.2-38"/>
</svg>
