<svg xmlns="http://www.w3.org/2000/svg" xmlns:xlink="http://www.w3.org/1999/xlink" xmlns:sketch="http://www.bohemiancoding.com/sketch/ns" viewBox="0 0 16 16" version="1.1" x="0px" y="0px"><title>lowercase</title><desc>Created with Sketch.</desc><g stroke="none" stroke-width="1" fill="none" fill-rule="evenodd" sketch:type="MSPage"><g sketch:type="MSArtboardGroup" fill="#000000">

<path d="M5.4417238,8.15130435 C5.80280951,8.1049273 6.06105048,8.04695687 6.21645446,7.9773913 C6.49526747,7.85681099 6.63467189,7.66898678 6.63467189,7.41391304 C6.63467189,7.10318685 6.52840459,6.88869624 6.3158668,6.77043478 C6.10332901,6.65217332 5.79138306,6.59304348 5.38001959,6.59304348 C4.91837836,6.59304348 4.59157785,6.70898435 4.39960823,6.94086957 C4.26248707,7.11246463 4.17107434,7.34434637 4.12536729,7.63652174 L2.23996082,7.63652174 C2.28109717,6.97333002 2.46392263,6.42840793 2.7884427,6.00173913 C3.30493239,5.3339097 4.1916359,5 5.44857982,5 C6.26673605,5 6.99346728,5.16463603 7.6287953,5.49391304 C8.26412332,5.82319005 8.58178257,6.44463311 8.58178257,7.35826087 L8.58178257,10.8365217 C8.58178257,11.0776824 8.5863532,11.3698534 8.59549461,11.7130435 C8.60920673,11.9727549 8.64805714,12.148985 8.71204701,12.2417391 C8.77603689,12.3344932 8.87202025,12.4110142 9,12.4713043 L9,12.7634783 L6.87463271,12.7634783 C6.81521355,12.610434 6.77407782,12.4666673 6.75122429,12.3321739 C6.72837076,12.1976805 6.71008822,12.0446385 6.6963761,11.8730435 C6.4267045,12.1698566 6.1159012,12.4226077 5.7639569,12.6313043 C5.34345203,12.8771027 4.86810582,13 4.33790402,13 C3.66143965,13 3.10267932,12.8040599 2.66160627,12.4121739 C2.22053322,12.0202879 2,11.4649311 2,10.746087 C2,9.81390838 2.35422434,9.13913252 3.06268364,8.72173913 C3.45119358,8.49449162 4.02252316,8.3321744 4.77668952,8.23478261 L5.4417238,8.15130435 Z M6.62781587,9.07652174 C6.50440683,9.15536271 6.37985698,9.21913019 6.25416259,9.26782609 C6.12846819,9.31652198 5.95592666,9.36173892 5.73653281,9.40347826 L5.29774731,9.48695652 C4.88638384,9.56115979 4.59157778,9.65159367 4.41332027,9.75826087 C4.11165373,9.93913134 3.96082272,10.2197082 3.96082272,10.6 C3.96082272,10.9385524 4.05337811,11.1831877 4.23849167,11.333913 C4.42360524,11.4846384 4.64870909,11.56 4.91380999,11.56 C5.33431487,11.56 5.72167632,11.4347839 6.07590597,11.1843478 C6.43013563,10.9339118 6.61410375,10.4771048 6.62781587,9.81391304 L6.62781587,9.07652174 Z" sketch:type="MSShapeGroup" style="fill&quot;:;;&#10;;;;;;;;;fill: #143F5B;;;;;;;;;">

</path>

<g sketch:type="MSLayerGroup" transform="translate(12.000000, 9.000000) rotate(-180.000000) translate(-12.000000, -9.000000) translate(9.000000, 6.000000)" style="&#10;    fill: #2c9e76;&#10;">

<path d="M6,3 L3,-1.77635684e-15 L1.77635684e-15,3 L2,3 L2,6 L4,6 L4,3 L6,3 Z" sketch:type="MSShapeGroup"/>
</g>
</g>
</g>
</svg>