<svg xmlns="http://www.w3.org/2000/svg" data-name="Layer 1" viewBox="0 0 32 32" x="0px" y="0px"><title>noun project 1</title><path d="M11.28,14.92h-.19a1.1,1.1,0,0,0,0,2.2h.19a1.1,1.1,0,1,0,0-2.2"></path><path d="M15.91,14.92h-.19a1.1,1.1,0,1,0,0,2.2h.19a1.1,1.1,0,0,0,0-2.2"></path><path d="M20.55,14.92h-.19a1.1,1.1,0,0,0,0,2.2h.19a1.1,1.1,0,1,0,0-2.2"></path><path d="M15.82,2.32A13.7,13.7,0,1,0,29.52,16a13.72,13.72,0,0,0-13.7-13.7m0,25.49A11.79,11.79,0,1,1,27.61,16,11.8,11.8,0,0,1,15.82,27.82"></path></svg>