<svg xmlns="http://www.w3.org/2000/svg" xmlns:xlink="http://www.w3.org/1999/xlink" version="1.1" x="0px" y="0px" viewBox="0 0 100 100" style="enable-background:new 0 0 100 100;" xml:space="preserve"><g><path fill="#143F5B" d="M86.4,82.8L61.5,57.9c-0.3-0.3-0.4-0.6-0.4-1V31.7c0-0.8,0.6-1.4,1.4-1.4h6.2c1.2,0,1.8-1.3,1.2-2.2   l-18-25.6c-0.6-0.8-1.8-0.8-2.3,0L31.6,28c-0.7,0.9,0,2.2,1.2,2.2h6.1c0.8,0,1.4,0.6,1.4,1.4v24.8c0,0.4-0.2,0.7-0.4,1L14.6,82.8   c-0.6,0.6-0.6,1.5,0,2l12.6,12.6c0.6,0.6,1.5,0.6,2,0l20.2-20.2c0.6-0.6,1.5-0.6,2,0l20.2,20.2c0.6,0.6,1.5,0.6,2,0l12.6-12.6   C87,84.3,87,83.4,86.4,82.8z"></path></g></svg>