<svg height='100px' width='100px'  fill="#000000" xmlns="http://www.w3.org/2000/svg" xmlns:xlink="http://www.w3.org/1999/xlink" version="1.0" x="0px" y="0px" viewBox="0 0 100 100" enable-background="new 0 0 100 100" xml:space="preserve"><path d="M71.1397934,53.9356232c6.3454514-4.8081436,10.4945602-11.8113937,10.8607254-19.6507568  C82.7325211,18.710577,68.4553452,5.54036,50.151001,5.0177355C32.7009354,4.5996361,17.9353161,16.3065033,17.0810394,31.253643  c-0.1219463,2.1950226,0,4.3900452,0.4881115,6.4805412c0.2442207,0.9407234,0,1.9859734-0.6100578,2.8221741  c-1.5862799,2.5085945-5.0033884,7.839447-6.4673939,12.2294922c-0.976223,3.0312195,2.1963367,3.135746,9.0298977,3.3447952  l0.7323303,9.6163712c0.1219463,6.8986435,4.1487846,9.929863,12.690897,8.9891357l2.4405594-0.1045227  c1.3423882-0.1045227,2.4405556,0.8361969,2.3186111,1.9859772l5.394207,17.9389954l31.6388206-11.4438324  c0,0-5.7935638-13.3938065-6.2816772-18.4110031C66.885498,57.7345123,71.1397934,53.9356232,71.1397934,53.9356232z   M66.3566284,48.2990875c-10.0633125,8.7981682-16.8692627-0.4002686-16.8692627-0.4002686  c-1.4866867,0.9721146-3.4881058,0.7433434-5.2035637,0.5146523c-1.9442291-0.2287712-3.8884583-0.9721146-5.0891762-2.5732651  c-0.6291237-0.8577309-0.9722786-1.8298454-1.0866661-2.8591499c-5.0895081,2.0014191-12.4088764,0.571846-14.7534561-4.7462692  c-1.7726498-3.9456482-1.0291424-11.4366798,3.2596645-13.7239838c0.3431568-2.5161572,1.0291424-4.7462673,3.144949-6.4046135  c2.1158085-1.6011543,4.6891556-2.5160751,7.376564-2.3444967c3.6600151-4.2316141,10.8078079-4.7462673,15.7826004-2.6304607  c2.7449265-1.3151894,5.6042404-1.143693,8.4632263,0.1143856c3.2024689,1.3723822,5.3182755,3.0879221,6.4046173,5.8898783  c5.2038879,2.1730003,7.6056595,7.3194523,6.9765396,12.9807224c-0.228775,2.1729202-0.6863174,4.2887268-1.9442291,5.9470711  C73.2184601,42.752285,70.5310516,46.755127,66.3566284,48.2990875z"></path><path d="M54.8906937,30.4020977c0.5569801-1.230875,0.8513832-2.576088,0.8513832-3.9673729  c0-5.3131962-4.322525-9.6361485-9.6360054-9.6363277c-5.3135185,0.0001793-9.6372604,4.3231316-9.6366501,9.6363277  c-0.0006104,2.574297,1.0019836,4.9943428,2.8223076,6.8144855c1.8203583,1.8203583,4.2398987,2.822628,6.8137321,2.8224869  c1.3909645,0.0001411,2.7366066-0.2953682,3.9675179-0.8514175l8.5287399,8.5283089l4.818325-4.8175735L54.8906937,30.4020977z   M50.7040253,31.0333214c-1.2284431,1.2279739-2.8614693,1.9046631-4.5979538,1.9044838  c-1.7370949,0.0001793-3.370121-0.6765099-4.5979881-1.9044838c-1.2284431-1.2278328-1.9054146-2.8613262-1.9054146-4.5985966  c0-3.5855885,2.9178123-6.5024376,6.5034027-6.5024376c3.5855865,0,6.5021515,2.9168491,6.502758,6.5024376  C52.608223,28.1719952,51.9324646,29.8054886,50.7040253,31.0333214z"></path></svg>