<svg xmlns="http://www.w3.org/2000/svg" xmlns:xlink="http://www.w3.org/1999/xlink" version="1.1" x="0px" y="0px" viewBox="0 0 24 30" fill="#35689a" enable-background="new 0 0 24 24" xml:space="preserve"><path d="M22.707,1.293c-0.391-0.391-1.023-0.391-1.414,0L16.9,5.686C15.546,4.633,13.849,4,12,4c-4.418,0-8,3.582-8,8  c0,1.849,0.633,3.546,1.686,4.9l-4.393,4.393c-0.391,0.391-0.391,1.023,0,1.414C1.488,22.902,1.744,23,2,23s0.512-0.098,0.707-0.293  L7.1,18.314C8.455,19.367,10.151,20,12,20c4.418,0,8-3.582,8-8c0-1.849-0.633-3.545-1.686-4.9l4.393-4.393  C23.098,2.316,23.098,1.684,22.707,1.293z M6,12c0-3.309,2.691-6,6-6c1.294,0,2.49,0.416,3.471,1.115l-8.356,8.356  C6.416,14.49,6,13.294,6,12z M18,12c0,3.309-2.691,6-6,6c-1.294,0-2.49-0.416-3.471-1.115l8.356-8.356C17.584,9.51,18,10.706,18,12z"/></svg>