<svg xmlns="http://www.w3.org/2000/svg" xmlns:xlink="http://www.w3.org/1999/xlink" version="1.1" viewBox="0 0 24 24" x="0px" y="0px">

<path fill="#143F5B" d="M18.667 15.334c-0 0-0.001 0-0.002 0-0.219 0-0.434-0.021-0.641-0.061l0.021 0.009-3.606-0.691c-0.12-0.033-0.257-0.052-0.399-0.052-0.014 0-0.028 0-0.042 0.001-0.826-0-1.498 0.672-1.498 1.5 0.008 1.189 1.149 1.324 1.661 2.21 0.211 0.359 0.335 0.79 0.335 1.251 0 0.921-0.498 1.725-1.239 2.159-0.377 0.217-0.815 0.341-1.282 0.341-0.019 0-0.039-0-0.058-0.001-5.486-0.045-9.918-4.505-9.918-10 0-5.523 4.477-10 10-10 5.517 0 9.991 4.468 10 9.983v0.017c0 0 0 0.001 0 0.001 0 1.841-1.492 3.333-3.333 3.333 0 0 0 0 0 0z"/>

<path d="M4.009 12.5c0.006 0.824 0.675 1.49 1.5 1.49 0.828 0 1.5-0.672 1.5-1.5s-0.672-1.5-1.5-1.5c-0 0-0 0-0 0-0.828 0-1.5 0.672-1.5 1.5 0 0.004 0 0.007 0 0.011z" fill="#FFFFFF"/>

<path d="M7.509 5.989c-0.003-0-0.006-0-0.010-0-0.834 0-1.51 0.676-1.51 1.51s0.676 1.51 1.51 1.51c0.834 0 1.51-0.676 1.51-1.51 0-0.003 0-0.006 0-0.009 0-0.828-0.672-1.5-1.5-1.5-0.003 0-0.006 0-0.010 0z" fill="#2c9e76"/>

<path d="M12.509 4.008c-0.828 0-1.5 0.672-1.5 1.5s0.672 1.5 1.5 1.5c0.828 0 1.5-0.672 1.5-1.5s-0.672-1.499-1.5-1.499c-0.001 0-0.003 0-0.004 0z" fill="#ecaf42"/>

<path d="M17.509 6.999c-0.825 0.005-1.491 0.675-1.491 1.5 0 0.828 0.672 1.5 1.5 1.5s1.5-0.672 1.5-1.5c-0.001-0.828-0.672-1.499-1.5-1.499-0.006 0-0.013 0-0.019 0z" fill="#993333"/>

</svg>