<?xml version="1.0" standalone="no"?>
<!DOCTYPE svg PUBLIC "-//W3C//DTD SVG 20010904//EN"
 "http://www.w3.org/TR/2001/REC-SVG-20010904/DTD/svg10.dtd">
<svg version="1.0" xmlns="http://www.w3.org/2000/svg"
 width="203.000000pt" height="248.000000pt" viewBox="0 0 203.000000 248.000000"
 preserveAspectRatio="xMidYMid meet">

<g transform="translate(0.000000,248.000000) scale(0.100000,-0.100000)"
fill="#000000" stroke="none">
<path d="M156 2465 c-75 -26 -126 -81 -146 -156 -7 -24 -9 -401 -8 -1091 3
-1006 4 -1055 22 -1088 26 -49 55 -79 101 -103 l40 -22 850 0 850 0 40 22 c46
24 75 54 101 103 18 33 19 77 22 881 l3 846 -283 312 -283 311 -635 0 c-519
-1 -642 -3 -674 -15z m1084 -386 c0 -244 3 -296 16 -324 29 -62 48 -65 373
-65 l291 0 -2 -755 -3 -755 -33 -32 -32 -33 -835 0 -835 0 -32 33 -33 32 0
1059 0 1059 25 27 c14 15 34 31 45 35 11 5 253 9 538 9 l517 1 0 -291z m417
15 c136 -152 250 -280 251 -285 2 -5 -115 -9 -277 -9 l-281 0 0 285 0 285 29
0 c25 0 61 -35 278 -276z"/>
<path d="M553 1123 l-43 -4 0 -220 0 -219 45 0 44 0 3 78 3 77 57 6 c32 4 69
14 83 23 88 58 84 195 -6 242 -34 17 -115 25 -186 17z m145 -89 c52 -36 10
-124 -59 -124 l-29 0 0 70 0 70 33 0 c18 0 43 -7 55 -16z"/>
<path d="M893 1123 l-43 -4 0 -219 0 -219 36 -7 c109 -20 247 21 291 88 69
104 47 262 -45 322 -60 40 -120 49 -239 39z m190 -111 c24 -25 31 -41 35 -85
9 -108 -47 -177 -143 -177 l-35 0 0 143 c0 79 3 147 8 151 4 4 29 6 55 3 38
-3 56 -11 80 -35z"/>
<path d="M1300 900 l0 -220 45 0 45 0 0 90 0 90 75 0 75 0 0 40 0 40 -75 0
-75 0 0 50 0 50 80 0 80 0 0 40 0 40 -125 0 -125 0 0 -220z"/>
</g>
</svg>
