<svg xmlns="http://www.w3.org/2000/svg" data-name="Layer 1" viewBox="0 0 79.05 79.05" x="0px" y="0px"><title>022</title>
<polygon fill="#2c9e76" points="40.51 23.95 38.48 23.95 38.48 38.67 24.08 38.67 24.08 40.71 38.48 40.71 38.48 55.1 40.51 55.1 40.51 40.71 55.24 40.71 55.24 38.67 40.51 38.67 40.51 23.95"></polygon>
<path fill="#143F5B" d="M50,10.4A39.53,39.53,0,1,0,89.54,49.93,39.57,39.57,0,0,0,50,10.4Zm0,77A37.49,37.49,0,1,1,87.51,49.93,37.54,37.54,0,0,1,50,87.42Z" transform="translate(-10.49 -10.4)"></path></svg>