<svg width="36" height="36" viewBox="0 0 36 36" fill="none" xmlns="http://www.w3.org/2000/svg">
<path fill-rule="evenodd" clip-rule="evenodd" d="M10.8979 14.5676C10.3262 15.5818 10 16.7528 10 18C10 21.866 13.134 25 17 25C20.866 25 24 21.866 24 18C24 14.134 20.866 11 17 11V13C19.7614 13 22 15.2386 22 18C22 20.7614 19.7614 23 17 23C14.2386 23 12 20.7614 12 18C12 17.1091 12.233 16.2727 12.6414 15.5483L10.8979 14.5676Z" fill="#975FE4" fill-opacity="0.8"/>
<path fill-rule="evenodd" clip-rule="evenodd" d="M17.0028 5.02096C24.1825 5.01095 30.0109 10.8231 30.0209 18.0028C30.0309 25.1825 24.2188 31.0109 17.0391 31.0209C9.85938 31.0309 4.03097 25.2188 4.02096 18.0391L6.02096 18.0363C6.02943 24.1114 10.9612 29.0294 17.0363 29.0209C23.1114 29.0125 28.0294 24.0807 28.0209 18.0056C28.0125 11.9305 23.0807 7.01248 17.0056 7.02095L17.0028 5.02096Z" fill="#9FCFFF"/>
<path fill-rule="evenodd" clip-rule="evenodd" d="M17.0088 9.02097C21.9793 9.01404 26.0144 13.0379 26.0213 18.0084C26.0282 22.979 22.0044 27.014 17.0338 27.021C14.5017 27.0245 12.2123 25.9819 10.5745 24.301L9.14191 25.6966C11.1436 27.751 13.9417 29.0253 17.0366 29.0209C23.1118 29.0125 28.0298 24.0808 28.0213 18.0056C28.0128 11.9305 23.0811 7.0125 17.006 7.02097L17.0088 9.02097Z" fill="#40A0FF"/>
<path fill-rule="evenodd" clip-rule="evenodd" d="M17.0113 11.0209C20.8773 11.0155 24.0157 14.1451 24.0211 18.0111C24.0242 20.2414 22.984 22.2295 21.3609 23.5136L22.7555 24.9578C24.7535 23.3043 26.025 20.8043 26.0211 18.0083C26.0142 13.0378 21.9791 9.01396 17.0085 9.02089L17.0113 11.0209Z" fill="#9FCFFF"/>
<path fill-rule="evenodd" clip-rule="evenodd" d="M17.042 33.0209C25.3263 33.0094 32.0326 26.2843 32.0211 18C32.0095 9.71575 25.2844 3.00939 17.0002 3.02094L17.003 5.02094C24.1827 5.01093 30.0111 10.8231 30.0211 18.0028C30.0311 25.1825 24.2189 31.0109 17.0392 31.0209L17.042 33.0209Z" fill="#975FE4" fill-opacity="0.8"/>
</svg>
