<svg xmlns="http://www.w3.org/2000/svg" xmlns:xlink="http://www.w3.org/1999/xlink" version="1.1" x="0px" y="0px" viewBox="0 0 24 24" style="enable-background:new 0 0 24 24;" xml:space="preserve"><g style="transform: scale(0.9) translate(1px, 1px); "><g><path d="M4.5,24c-0.128,0-0.256-0.049-0.354-0.146c-0.195-0.195-0.195-0.512,0-0.707C6.293,21,6.293,19,4.146,16.854    c-0.195-0.195-0.195-0.512,0-0.707c0.195-0.195,0.512-0.195,0.707,0c2.521,2.521,2.521,5.186,0,7.707    C4.756,23.951,4.628,24,4.5,24z" stroke="#000"/></g><g><path d="M4.5,17c-1.103,0-2-0.897-2-2s0.897-2,2-2s2,0.897,2,2S5.603,17,4.5,17z M4.5,14c-0.551,0-1,0.449-1,1s0.449,1,1,1    s1-0.449,1-1S5.051,14,4.5,14z" stroke="#000"/></g><path d="M23.743,15.063l-9-5c-0.185-0.103-0.414-0.078-0.573,0.062c-0.159,0.14-0.212,0.364-0.134,0.561l4,10   c0.075,0.188,0.256,0.312,0.458,0.314c0.002,0,0.004,0,0.006,0c0.2,0,0.381-0.119,0.459-0.303l1.421-3.316l3.316-1.421   c0.175-0.075,0.293-0.244,0.303-0.434S23.91,15.156,23.743,15.063z" stroke="#000"/><g><path d="M3.987,13.955c0.104,0.061,0.224,0.083,0.342,0.063c0.412-0.072,0.856,0.14,1.057,0.531    c0.054,0.106,0.144,0.189,0.253,0.235c0.274,0.114,0.566,0.203,0.852,0.301C6.492,15.057,6.5,15.029,6.5,15    c0-0.396-0.119-0.763-0.319-1.074c-0.001,0-0.002,0-0.002-0.001c-0.094-0.148-0.209-0.28-0.337-0.397    c-0.016-0.014-0.033-0.027-0.049-0.041c-0.107-0.092-0.225-0.17-0.348-0.238c-0.034-0.019-0.067-0.039-0.102-0.056    c-0.136-0.065-0.278-0.115-0.425-0.147c-0.044-0.01-0.091-0.011-0.137-0.017c-0.124-0.018-0.25-0.028-0.376-0.019    c-0.442,0.021-0.843,0.186-1.165,0.449C3.48,13.63,3.724,13.798,3.987,13.955z"/><path d="M7.423,14.346C7.47,14.557,7.5,14.775,7.5,15c0,0.134-0.022,0.262-0.04,0.391C8.898,15.784,10.434,16,12,16    c1.01,0,2.007-0.092,2.981-0.259l-0.38-0.95C12.207,15.164,9.663,15.001,7.423,14.346z" stroke="#000"/><path d="M12,0C5.383,0,0,3.589,0,8c0,1.756,0.877,3.448,2.443,4.827c0.252-0.239,0.543-0.438,0.867-0.578    C1.834,11.029,1,9.534,1,8c0-3.86,4.935-7,11-7s11,3.14,11,7c0,1.55-0.807,3.02-2.284,4.237l0.927,0.515    C23.155,11.387,24,9.722,24,8C24,3.589,18.617,0,12,0z" stroke="#000"/></g></g></svg>