<svg xmlns="http://www.w3.org/2000/svg" xmlns:xlink="http://www.w3.org/1999/xlink" width="100" height="100" viewBox="0 0 100 100"><g><g transform="translate(50 50) scale(0.69 0.69) rotate(0) translate(-50 -50)" style="fill:#143f5b"><svg fill="#143f5b" xmlns="http://www.w3.org/2000/svg" xmlns:xlink="http://www.w3.org/1999/xlink" version="1.1" x="0px" y="0px" viewBox="0 0 97.179 100" enable-background="new 0 0 97.179 100" xml:space="preserve"><path d="M96.201,16.12L83.727,3.6c-1.719-1.738-5.149-1.133-7.624,1.335L64.677,16.322L48.958,0H0v100h77.035V41.471L94.84,23.73  C97.308,21.27,97.926,17.852,96.201,16.12z M50.27,13.047l8.665,8.998l-4.739,4.727H50.27V13.047z M52.067,61.517l-17.233,6.979  l-3.705-3.718l7.041-17.213L52.067,61.517z M68.922,91.895H8.105V8.105h36.084v24.746h3.903l-4.613,4.596H16.758v4.056h22.653  l-3.652,3.639l-3.737,9.127H16.758v4.057h13.604l-5.225,12.767h-8.379v4.056H60.29v-4.056H36.816l17.666-7.155l5.625-5.611h0.183  v-0.176l8.633-8.601V91.895z"></path></svg></g></g></svg>