<svg width="36" height="36" viewBox="0 0 36 36" fill="none" xmlns="http://www.w3.org/2000/svg">
<g clip-path="url(#clip0)">
<ellipse cx="18" cy="15.7014" rx="11" ry="10.5" fill="#17C1C1" fill-opacity="0.3"/>
<path d="M7 29.9844L19 15.2014V34.2014C14.4627 34.2014 10.2914 32.6237 7 29.9844Z" fill="#17C1C1"/>
<path d="M20.6963 1.78275L18.7324 16.4279L11.0283 3.88979C14.0373 2.04091 17.4433 1.38229 20.6963 1.78275Z" fill="#17C1C1"/>
<path d="M27.6519 11.298L18.5719 15.5092L22.9279 6.54318C25.0796 7.58858 26.6961 9.29416 27.6519 11.298Z" fill="#40A0FF"/>
<path d="M29.5493 25.4282L17.4487 15.5639L32.9967 15.5585C32.998 19.2898 31.7082 22.7206 29.5493 25.4282Z" fill="#40A0FF"/>
<path d="M8.97949 7.80223L19.3997 16.3141L5.99988 16.3053C6.00199 13.0895 7.11661 10.1338 8.97949 7.80223Z" fill="#40A0FF"/>
</g>
<defs>
<clipPath id="clip0">
<rect width="36" height="36" fill="white"/>
</clipPath>
</defs>
</svg>
