<?xml version="1.0" standalone="no"?>
<!DOCTYPE svg PUBLIC "-//W3C//DTD SVG 20010904//EN"
 "http://www.w3.org/TR/2001/REC-SVG-20010904/DTD/svg10.dtd">
<svg version="1.0" xmlns="http://www.w3.org/2000/svg"
 width="355.000000pt" height="338.000000pt" viewBox="0 0 355.000000 338.000000"
 preserveAspectRatio="xMidYMid meet">
<metadata>
Created by potrace 1.15, written by Peter Selinger 2001-2017
</metadata>
<g transform="translate(0.000000,338.000000) scale(0.100000,-0.100000)"
fill="#000000" stroke="none">
<path d="M1610 3240 c-634 -88 -1122 -531 -1266 -1150 -65 -276 -31 -630 85
-899 195 -454 579 -766 1075 -873 145 -32 427 -32 571 0 205 44 353 105 515
209 346 224 574 565 656 978 28 137 25 395 -4 543 -119 595 -565 1046 -1160
1172 -111 24 -366 35 -472 20z m437 -289 c350 -74 662 -317 824 -641 196 -393
166 -850 -81 -1218 -256 -383 -733 -590 -1190 -517 -187 30 -388 115 -536 226
-121 90 -255 243 -332 380 -153 271 -193 623 -106 928 124 432 522 787 954
850 41 6 86 13 100 15 54 10 280 -4 367 -23z"/>
<path d="M1690 2299 c-86 -15 -206 -78 -273 -145 -67 -66 -101 -120 -133 -210
-135 -372 189 -764 583 -705 227 34 415 218 454 445 39 228 -84 463 -296 566
-113 55 -211 69 -335 49z"/>
</g>
</svg>
