<svg xmlns="http://www.w3.org/2000/svg" xmlns:xlink="http://www.w3.org/1999/xlink" version="1.1" x="0px" y="0px" viewBox="0 0 100 100" enable-background="new 0 0 100 100" xml:space="preserve"><path d="M42.448,5.927c0.929,0,1.714,0.785,1.714,1.714v36.625c0,0.929-0.785,1.714-1.714,1.714H5.823  c-0.929,0-1.714-0.785-1.714-1.714V7.642c0-0.929,0.785-1.714,1.714-1.714H42.448 M42.448,1.819H5.823C2.62,1.819,0,4.439,0,7.642  v36.625c0,3.202,2.62,5.822,5.823,5.822h36.625c3.202,0,5.823-2.621,5.823-5.822V7.642C48.271,4.439,45.65,1.819,42.448,1.819  L42.448,1.819z" style="&#10;    fill: #143F5B;&#10;"/><path d="M94.178,49.911h-7.189v4.107h7.189V49.911L94.178,49.911L94.178,49.911z M79.799,49.911h-7.189v4.107h7.189V49.911  L79.799,49.911z M65.42,49.911h-7.188v4.107h7.188V49.911L65.42,49.911z M52.316,53.191c-0.052,0.105-0.102,0.215-0.146,0.324l0,0  c-0.002,0.004-0.003,0.006-0.004,0.01l0,0c-0.001,0.004-0.002,0.006-0.004,0.01l0,0c-0.002,0.004-0.004,0.01-0.006,0.014  c0,0,0,0-0.001,0.002s-0.001,0.004-0.002,0.006c-0.001,0-0.001,0.002-0.001,0.002c-0.001,0.002-0.002,0.004-0.002,0.006  c-0.001,0-0.001,0.002-0.002,0.002c0,0.002,0,0.002-0.001,0.006c-0.001,0-0.001,0.002-0.002,0.004s-0.001,0.002-0.002,0.004  s-0.001,0.002-0.001,0.004c-0.002,0.002-0.002,0.004-0.002,0.006c-0.001,0-0.002,0-0.002,0.002s-0.001,0.002-0.002,0.006  c0,0-0.001,0.002-0.002,0.004v0.002c-0.002,0.002-0.002,0.004-0.004,0.006c0,0.002,0,0.002,0,0.004  c-0.001,0-0.002,0.002-0.002,0.004c-0.001,0.002-0.002,0.002-0.002,0.004s0,0.004-0.001,0.006c-0.001,0-0.001,0.002-0.001,0.002  c-0.001,0.002-0.002,0.004-0.003,0.006c-0.001,0-0.001,0.002-0.001,0.002c-0.001,0.002-0.002,0.004-0.003,0.006l-0.001,0.002  c0,0.002-0.002,0.006-0.002,0.006c0,0.002,0,0.002,0,0.004c-0.002,0.002-0.002,0.004-0.002,0.006c-0.001,0-0.002,0.002-0.002,0.002  c0,0.002-0.001,0.004-0.002,0.006c0,0,0,0,0,0.002c-0.002,0.002-0.002,0.004-0.004,0.006c0,0.002,0,0.002,0,0.002  c-0.002,0.002-0.002,0.006-0.004,0.008c0,0,0,0,0,0.002s-0.001,0.004-0.002,0.006l0,0c-0.002,0.004-0.002,0.006-0.003,0.008  l-0.001,0.002c0,0.002-0.002,0.004-0.002,0.006c-0.001,0.002-0.001,0.002-0.002,0.002c0,0.002-0.001,0.006-0.002,0.008  c0,0,0,0,0,0.002c-0.001,0-0.002,0.002-0.002,0.006c0,0-0.001,0-0.001,0.002c-0.001,0.002-0.002,0.004-0.003,0.006  c0,0.002,0,0.002,0,0.002c-0.002,0.002-0.002,0.004-0.003,0.008H52.08c-0.001,0.002-0.002,0.004-0.002,0.008  c-0.001,0-0.001,0-0.001,0.002c-0.001,0.002-0.001,0.004-0.003,0.006l0,0c0,0.004-0.002,0.008-0.002,0.01l0,0  c-0.002,0.002-0.002,0.004-0.004,0.008l0,0c-0.002,0.004-0.002,0.006-0.004,0.008l0,0c-0.002,0.01-0.005,0.016-0.008,0.025  c0,0,0,0,0,0.002c-0.001,0.002-0.002,0.004-0.003,0.008h-0.001c-0.002,0.006-0.005,0.016-0.008,0.025l0,0  c-0.001,0.002-0.002,0.004-0.003,0.006l0,0c-0.005,0.014-0.007,0.023-0.012,0.035l0,0c-0.149,0.445-0.247,0.914-0.284,1.398l0,0  c-0.001,0.014-0.002,0.025-0.003,0.037l0,0c-0.001,0.004-0.001,0.008-0.001,0.01l0,0c0,0.01-0.001,0.018-0.002,0.027l0,0  c0,0.004,0,0.008,0,0.01l0,0c-0.001,0.008-0.001,0.018-0.002,0.027l0,0c0,0.004,0,0.006,0,0.008s0,0.002,0,0.002  c0,0.004,0,0.006,0,0.01l0,0c-0.001,0.006-0.001,0.012-0.002,0.018l0,0c0,0.004,0,0.006,0,0.01l0,0c0,0.004,0,0.006,0,0.01l0,0  c0,0.006-0.001,0.012-0.001,0.018l0,0c-0.001,0.004-0.001,0.006-0.001,0.008s0,0.002,0,0.002c0,0.002,0,0.006,0,0.01l0,0  c0,0.006-0.001,0.012-0.001,0.016c0,0,0,0,0,0.002c-0.001,0.004-0.001,0.006-0.001,0.01l0,0c0,0.004,0,0.006,0,0.01l0,0  c0,0.004,0,0.012,0,0.018l0,0c0,0.004,0,0.006-0.002,0.01l0,0c0,0.002,0,0.006,0,0.01l0,0c0,0.004,0,0.006,0,0.008v0.002  c0,0.002,0,0.004,0,0.008l0,0c0,0.004,0,0.008,0,0.01c0,0,0,0,0,0.002s0,0.004,0,0.008l0,0c0,0.004,0,0.006,0,0.008l0,0  c-0.001,0.004-0.001,0.008-0.001,0.01l0,0c0,0.004,0,0.008,0,0.01c0,0,0,0,0,0.002s0,0.004,0,0.006  c-0.001,0-0.001,0.002-0.001,0.002c0,0.004,0,0.006,0,0.01l0,0c0,0.002,0,0.006,0,0.008l0,0c0,0.004,0,0.006,0,0.01v0.002  c0,0.002,0,0.006,0,0.008c0,0,0,0,0,0.002s0,0.004,0,0.008l0,0c0,0.002,0,0.004,0,0.008v0.002c0,0.004,0,0.006,0,0.008  s0,0.002,0,0.002c0,0.002,0,0.006,0,0.006c0,0.002,0,0.002,0,0.002c0,0.004,0,0.006,0,0.01c0,0,0,0,0,0.002s0,0.004,0,0.008v4.557  h4.109v-4.557c0-0.258,0.057-0.506,0.17-0.736L52.316,53.191L52.316,53.191z M55.838,67.479h-4.109v7.189h4.109V67.479  L55.838,67.479z M55.838,81.857h-4.109v7.189h4.109V81.857L55.838,81.857z M56.205,93.408l-3.226,2.545  c0.009,0.01,0.017,0.021,0.024,0.031l0.001,0.002c0.002,0,0.003,0.004,0.005,0.006l0,0c0.007,0.008,0.012,0.014,0.018,0.02l0,0  c0.002,0.004,0.004,0.006,0.006,0.01l0,0c0.006,0.006,0.01,0.012,0.016,0.018l0,0c0.003,0.002,0.005,0.004,0.007,0.008l0,0  c0.003,0.006,0.006,0.01,0.009,0.014l0,0c0.002,0.002,0.004,0.004,0.007,0.006c0.001,0,0.001,0,0.001,0  c0.001,0.002,0.003,0.004,0.006,0.008l0,0c0.001,0.002,0.002,0.004,0.003,0.004s0.001,0.002,0.001,0.002  c0.002,0.002,0.003,0.004,0.004,0.006c0.001,0,0.002,0,0.002,0.002c0.002,0.002,0.004,0.004,0.006,0.004  c0,0.002,0,0.002,0.001,0.002c0.002,0.002,0.003,0.006,0.005,0.008l0,0c0.002,0.002,0.002,0.004,0.004,0.004l0.001,0.002  c0.003,0.002,0.004,0.004,0.006,0.006c0,0,0,0,0.001,0.002c0.001,0,0.003,0.002,0.005,0.004c0.001,0,0.001,0,0.001,0.002  c0.002,0,0.002,0.002,0.003,0.004s0.003,0.004,0.003,0.004c0.001,0.002,0.002,0.002,0.003,0.004c0.001,0,0.001,0.002,0.002,0.002  c0.002,0.002,0.003,0.004,0.005,0.004c0,0.002,0.001,0.002,0.002,0.002c0.001,0.002,0.002,0.004,0.003,0.004  c0.001,0.002,0.001,0.002,0.003,0.004c0,0,0.002,0.002,0.002,0.004c0.002,0,0.003,0.002,0.004,0.002  c0.001,0.002,0.002,0.004,0.003,0.004c0,0.002,0.001,0.002,0.001,0.002c0.002,0.004,0.004,0.004,0.006,0.006  c0,0.002,0,0.002,0.001,0.002c0.001,0.002,0.003,0.002,0.003,0.004c0.002,0,0.002,0.002,0.004,0.002  c0,0.002,0.001,0.004,0.002,0.004c0.002,0.002,0.002,0.004,0.004,0.004c0,0.002,0.002,0.002,0.002,0.004  c0.001,0,0.002,0.002,0.003,0.002c0.001,0.002,0.001,0.004,0.003,0.004c0.001,0.002,0.002,0.002,0.004,0.002  c0,0.002,0.001,0.002,0.002,0.002c0.001,0.002,0.002,0.004,0.004,0.008c0,0,0,0.002,0.002,0.002c0,0.002,0.002,0.002,0.002,0.004  c0.002,0,0.003,0.002,0.004,0.002c0.001,0.002,0.002,0.002,0.002,0.004c0.002,0,0.004,0.002,0.004,0.004  c0.001,0,0.002,0,0.002,0.002c0.002,0,0.002,0.002,0.004,0.002c0,0.002,0.002,0.004,0.004,0.006c0,0,0.001,0.002,0.002,0.002  c0,0.002,0.001,0.002,0.002,0.004c0.001,0,0.002,0.002,0.004,0.004c0.001,0,0.002,0.002,0.003,0.002  c0.001,0.002,0.002,0.004,0.003,0.004s0.002,0.002,0.002,0.002c0.002,0.002,0.002,0.002,0.003,0.004  c0.001,0,0.003,0.002,0.004,0.004s0.002,0.002,0.003,0.004c0.001,0,0.002,0.002,0.003,0.002c0.001,0.002,0.001,0.002,0.003,0.004  l0.002,0.002c0.002,0.002,0.002,0.002,0.004,0.004c0.001,0.002,0.002,0.002,0.003,0.002c0.001,0.002,0.001,0.004,0.002,0.004  c0.001,0.002,0.003,0.002,0.004,0.006c0.001,0,0.002,0.002,0.003,0.002c0.001,0.002,0.002,0.002,0.003,0.004  c0.001,0,0.002,0.002,0.003,0.002c0,0.002,0.002,0.002,0.002,0.004c0.001,0,0.002,0.002,0.004,0.002  c0,0.002,0.002,0.002,0.004,0.004l0.002,0.002c0.001,0.002,0.002,0.002,0.004,0.006c0,0,0.001,0,0.002,0.002  c0.001,0,0.002,0.002,0.004,0.004c0,0,0,0.002,0.001,0.002c0.001,0.002,0.003,0.004,0.005,0.004c0,0.002,0,0.002,0.002,0.002  c0.001,0.002,0.003,0.002,0.004,0.004s0.002,0.002,0.002,0.002c0.002,0.002,0.003,0.004,0.004,0.006c0,0,0.001,0.002,0.002,0.002  c0.001,0.002,0.002,0.002,0.004,0.004c0.001,0,0.002,0,0.002,0.002c0.002,0.002,0.003,0.002,0.004,0.004  c0.001,0,0.001,0.002,0.002,0.002c0.002,0.002,0.003,0.004,0.005,0.006c0.001,0,0.001,0,0.001,0  c0.002,0.002,0.003,0.004,0.004,0.004c0.002,0.002,0.002,0.004,0.002,0.004c0.002,0.002,0.003,0.002,0.004,0.004  c0.001,0,0.002,0.002,0.002,0.002c0.002,0.002,0.004,0.002,0.005,0.004s0.001,0.002,0.002,0.002  c0.001,0.002,0.003,0.002,0.004,0.004c0.001,0,0.002,0.002,0.003,0.002c0.001,0.002,0.002,0.002,0.004,0.004  c0,0,0,0.002,0.001,0.002c0.001,0.004,0.003,0.006,0.004,0.006c0.001,0.002,0.001,0.002,0.001,0.002  c0.002,0.002,0.004,0.004,0.006,0.004c0,0.002,0.002,0.002,0.002,0.002c0.002,0.002,0.002,0.004,0.004,0.004  c0,0.002,0.001,0.002,0.002,0.002c0.002,0.002,0.003,0.002,0.004,0.004c0,0,0.001,0.002,0.002,0.002  c0.001,0.002,0.002,0.004,0.004,0.006c0,0,0.001,0,0.002,0.002c0.002,0,0.004,0.002,0.005,0.004c0.001,0,0.001,0.002,0.002,0.002  c0.001,0.002,0.003,0.004,0.004,0.004s0.001,0.002,0.001,0.002c0.002,0.002,0.003,0.002,0.005,0.004  c0.001,0,0.001,0.002,0.001,0.002c0.002,0.002,0.004,0.004,0.006,0.006c0,0,0,0,0.001,0.002c0.001,0,0.003,0.002,0.005,0.004  c0.001,0,0.001,0.002,0.002,0.002c0.002,0.002,0.003,0.002,0.004,0.004c0.001,0,0.001,0,0.001,0  c0.002,0.002,0.003,0.004,0.005,0.006c0.001,0,0.002,0,0.002,0c0.002,0.004,0.004,0.006,0.005,0.008c0.001,0,0.001,0,0.001,0  c0.002,0.002,0.003,0.004,0.005,0.006c0.001,0,0.001,0,0.003,0.002c0.001,0,0.002,0.002,0.004,0.004c0,0,0,0,0.001,0  c0.001,0.002,0.003,0.004,0.005,0.004c0,0.002,0.001,0.002,0.002,0.002c0.001,0.002,0.002,0.004,0.004,0.006  c0.001,0,0.001,0.002,0.002,0.002c0.002,0.002,0.003,0.004,0.005,0.004l0.001,0.002c0.002,0.002,0.004,0.004,0.005,0.006  c0.001,0,0.001,0,0.001,0c0.002,0.002,0.003,0.002,0.005,0.004c0.001,0,0.001,0.002,0.001,0.002  c0.003,0.002,0.004,0.004,0.006,0.006c0,0,0.001,0,0.002,0.002c0.001,0,0.002,0.002,0.004,0.004h0.001  c0.003,0.002,0.004,0.004,0.005,0.006c0.001,0,0.002,0,0.002,0c0.002,0.002,0.003,0.004,0.005,0.004  c0.001,0.002,0.001,0.002,0.001,0.002c0.002,0.002,0.004,0.004,0.006,0.008c0,0,0,0,0.001,0c0.001,0.002,0.003,0.004,0.005,0.006  l0,0c0.003,0.002,0.005,0.004,0.007,0.006h0.001c0.002,0.002,0.003,0.004,0.004,0.004s0.002,0,0.002,0.002  c0.002,0.002,0.004,0.002,0.006,0.004c0,0,0,0.002,0.001,0.002s0.003,0.004,0.005,0.006l0,0c0.002,0.002,0.004,0.004,0.006,0.006  c0,0,0.001,0,0.002,0.002c0.002,0.002,0.003,0.002,0.005,0.004h0.001c0.002,0.002,0.004,0.004,0.006,0.006l0,0  c0.002,0.002,0.004,0.004,0.006,0.006c0,0,0,0,0,0.002c0.002,0,0.004,0.002,0.007,0.004c0,0,0.001,0,0.001,0.002  c0.002,0,0.004,0.002,0.005,0.004c0,0,0.001,0,0.001,0.002c0.004,0.002,0.008,0.006,0.012,0.012c0,0,0,0,0.001,0  c0.001,0.002,0.004,0.004,0.006,0.006h0.001c0.002,0.002,0.004,0.004,0.005,0.006h0.001c0.004,0.004,0.008,0.006,0.012,0.01  c0,0,0,0,0.001,0c0.001,0.004,0.005,0.006,0.006,0.008c0.001,0,0.001,0,0.001,0c0.002,0.002,0.004,0.004,0.006,0.006l0,0  c0.002,0.002,0.004,0.004,0.007,0.006l0,0c0.002,0,0.004,0.002,0.005,0.004c0,0,0.001,0,0.001,0.002  c0.002,0,0.005,0.002,0.007,0.006l0,0c0.004,0.004,0.008,0.008,0.013,0.012c0,0,0,0,0.001,0c0.002,0.002,0.004,0.004,0.006,0.006  l0,0c0.002,0.002,0.004,0.004,0.006,0.006h0.001c0.004,0.004,0.008,0.008,0.013,0.012l0,0c0.002,0.002,0.004,0.004,0.006,0.006l0,0  c0.008,0.004,0.014,0.012,0.02,0.018h0.001c0.002,0.002,0.004,0.004,0.006,0.006c0.001,0,0.001,0,0.001,0  c0.006,0.004,0.012,0.012,0.02,0.016l0,0c0.002,0.002,0.004,0.004,0.006,0.008l0,0c0.008,0.004,0.014,0.01,0.021,0.016l0,0  c0.002,0.002,0.004,0.004,0.006,0.006l0,0c0.005,0.004,0.01,0.008,0.014,0.01l0,0c0.003,0.002,0.005,0.006,0.007,0.008l0,0  c0.003,0.002,0.004,0.004,0.006,0.006l0,0c0.006,0.004,0.01,0.008,0.014,0.012l0,0c0.01,0.006,0.019,0.014,0.027,0.021l0,0  c0.002,0.002,0.004,0.004,0.007,0.006l0,0c0.007,0.004,0.014,0.012,0.021,0.016l0,0c0.033,0.029,0.068,0.057,0.102,0.082  c0.001,0,0,0,0.001,0c0.007,0.006,0.014,0.012,0.021,0.018l0,0c0.01,0.008,0.018,0.014,0.027,0.021l0,0  c0.002,0.002,0.005,0.004,0.008,0.006l0,0c0.006,0.004,0.014,0.01,0.02,0.014l0,0c0.01,0.008,0.02,0.016,0.029,0.023l0,0  c0.006,0.004,0.014,0.01,0.02,0.014c0,0.002,0,0.002,0.001,0.002c0.002,0,0.005,0.002,0.007,0.004l0,0  c0.008,0.006,0.014,0.01,0.021,0.016c0.001,0,0.001,0,0.001,0c0.002,0.002,0.005,0.004,0.008,0.006l0,0  c0.006,0.006,0.014,0.01,0.021,0.014l0,0c0.003,0.002,0.005,0.004,0.007,0.006l0,0c0.008,0.006,0.014,0.012,0.021,0.016l0,0  c0.003,0.002,0.004,0.004,0.007,0.004l0,0c0.005,0.004,0.01,0.008,0.015,0.012l0,0c0.01,0.006,0.02,0.014,0.028,0.02  c0.001,0.002,0.001,0.002,0.001,0.002c0.002,0,0.004,0.002,0.006,0.004l0,0c0.008,0.006,0.015,0.01,0.022,0.014l0,0  c0.007,0.006,0.015,0.01,0.021,0.016h0.001c0.002,0.002,0.004,0.004,0.006,0.006l0,0c0.002,0.002,0.005,0.002,0.008,0.004l0,0  c0.002,0.002,0.005,0.002,0.007,0.004l0,0c0.003,0.002,0.005,0.004,0.007,0.006h0.001c0.002,0.002,0.005,0.004,0.007,0.006l0,0  c0.006,0.002,0.01,0.006,0.016,0.01l0,0c0.002,0,0.004,0.002,0.006,0.004c0,0,0,0,0.001,0c0.001,0.002,0.004,0.004,0.007,0.006l0,0  c0.006,0.004,0.01,0.006,0.015,0.01l0,0c0.003,0.002,0.005,0.002,0.007,0.004l0,0c0.008,0.004,0.015,0.008,0.022,0.016  c0.001,0,0.001,0,0.001,0c0.01,0.006,0.02,0.012,0.027,0.018h0.001c0.011,0.008,0.02,0.014,0.03,0.02l0,0  c0.007,0.004,0.015,0.008,0.021,0.014l0,0c0.002,0.002,0.006,0.004,0.008,0.006l0,0c0.008,0.004,0.015,0.008,0.022,0.014  c0,0,0,0,0.001,0c0.002,0,0.004,0.004,0.006,0.004l0,0c0.008,0.006,0.016,0.01,0.023,0.014l0,0c0.002,0.002,0.004,0.002,0.008,0.004  l0,0c0.004,0.004,0.009,0.008,0.015,0.01l0,0c0.003,0.002,0.005,0.004,0.007,0.004l0,0c0.002,0.004,0.006,0.004,0.008,0.006l0,0  c0.005,0.004,0.01,0.006,0.016,0.008l0,0c0.002,0.002,0.004,0.004,0.008,0.006l0,0c0.002,0.002,0.005,0.002,0.006,0.004l0,0  c0.006,0.004,0.011,0.006,0.016,0.008c0,0.002,0,0.002,0,0.002c0.004,0,0.006,0.002,0.008,0.002l0,0  c0.002,0.004,0.005,0.004,0.008,0.006l0,0c0.006,0.002,0.01,0.006,0.015,0.01c0.001,0,0.001,0,0.001,0  c0.002,0.002,0.005,0.002,0.007,0.004l0,0c0.006,0.004,0.011,0.006,0.015,0.008h0.001c0.003,0.002,0.005,0.002,0.007,0.004  c0.001,0,0.001,0,0.001,0c0.007,0.006,0.015,0.01,0.022,0.016l0,0c0.003,0,0.005,0.002,0.008,0.004l0,0  c0.008,0.004,0.016,0.008,0.022,0.012h0.001c0.002,0.002,0.005,0.004,0.007,0.004c0.001,0,0.001,0,0.001,0.002  c0.005,0.002,0.01,0.004,0.015,0.008c0.001,0,0.001,0,0.001,0c0.002,0,0.004,0.002,0.008,0.004l0,0  c0.002,0.002,0.004,0.002,0.006,0.004h0.001c0.005,0.004,0.011,0.006,0.015,0.008c0,0.002,0,0.002,0.001,0.002  c0.003,0,0.005,0.002,0.007,0.004c0,0,0.001,0,0.002,0s0.004,0.002,0.007,0.004c0,0,0,0,0.001,0  c0.004,0.002,0.008,0.004,0.014,0.006c0.001,0,0.001,0.002,0.002,0.002c0.002,0,0.004,0.002,0.006,0.004l0,0  c0.006,0.004,0.01,0.006,0.016,0.01h0.001c0.003,0,0.005,0.002,0.007,0.004l0,0c0.003,0,0.006,0.002,0.008,0.002  c0,0,0.001,0,0.002,0c0.002,0.002,0.004,0.004,0.006,0.004l0,0c0.003,0.002,0.006,0.004,0.008,0.004l0,0  c0.003,0.004,0.005,0.004,0.008,0.006h0.001c0.003,0.002,0.005,0.002,0.007,0.004l0,0c0.006,0.002,0.012,0.006,0.016,0.008l0,0  c0.003,0.002,0.006,0.002,0.008,0.004c0.001,0,0.001,0,0.002,0c0.002,0.002,0.004,0.002,0.006,0.004h0.001  c0.005,0.004,0.01,0.006,0.015,0.008c0.001,0,0.001,0.002,0.001,0.002c0.003,0,0.005,0.002,0.007,0.002v0.002  c0.006,0.002,0.012,0.004,0.017,0.006l0,0c0.003,0.002,0.005,0.002,0.007,0.004h0.001c0.003,0.002,0.005,0.004,0.008,0.006h0.001  c0.004,0.002,0.01,0.004,0.015,0.008c0.001,0,0.001,0,0.001,0c0.002,0,0.004,0.002,0.007,0.004h0.001  c0.002,0,0.005,0.002,0.007,0.004h0.001c0.005,0.002,0.01,0.004,0.014,0.006c0.002,0,0.002,0,0.002,0  c0.002,0.002,0.005,0.004,0.007,0.004c0.001,0,0.001,0.002,0.001,0.002c0.002,0,0.005,0.002,0.008,0.002v0.002  c0.004,0,0.005,0.002,0.008,0.002l0,0c0.003,0.002,0.005,0.004,0.008,0.006l0,0c0.002,0,0.006,0.002,0.008,0.002  c0,0,0.001,0,0.002,0c0.002,0.002,0.004,0.002,0.006,0.004l0,0c0.003,0.002,0.006,0.002,0.008,0.004c0,0,0.001,0,0.002,0  c0.002,0.002,0.004,0.004,0.006,0.004c0,0,0,0,0.001,0c0.003,0.002,0.005,0.004,0.007,0.004c0.001,0,0.002,0,0.002,0  c0.002,0.002,0.005,0.002,0.008,0.004l0,0c0.002,0.002,0.004,0.002,0.006,0.004c0,0,0.001,0,0.002,0  c0.002,0.002,0.005,0.002,0.008,0.002l0,0c0.002,0.002,0.005,0.004,0.008,0.006l0,0c0.003,0,0.006,0.002,0.008,0.002v0.002  c0.002,0.002,0.006,0.002,0.008,0.004c0,0,0,0,0.001,0c0.002,0,0.004,0.002,0.007,0.004c0,0,0,0,0.001,0  c0.003,0,0.005,0.002,0.007,0.002c0.001,0.002,0.002,0.002,0.002,0.002c0.002,0,0.004,0.002,0.006,0.002c0,0,0.001,0,0.002,0  c0.002,0.002,0.004,0.002,0.006,0.004c0,0,0.001,0,0.002,0c0.002,0,0.004,0.002,0.007,0.002c0.001,0,0.001,0.002,0.001,0.002  c0.002,0,0.004,0.002,0.008,0.002c0,0,0,0,0.001,0c0.002,0.002,0.004,0.004,0.006,0.004c0.001,0,0.001,0.002,0.001,0.002  c0.002,0,0.006,0.002,0.008,0.002c0,0,0,0,0.002,0.002s0.004,0.002,0.006,0.004h0.001c0.003,0,0.005,0.002,0.008,0.002l0,0  c0.002,0.002,0.005,0.004,0.007,0.004c0.001,0,0.002,0,0.002,0c0.002,0,0.004,0.002,0.006,0.002c0.001,0,0.002,0.002,0.002,0.002  c0.002,0,0.006,0.002,0.008,0.002c0,0,0,0,0.001,0c0.001,0.002,0.004,0.004,0.007,0.004v0.002c0.003,0,0.005,0.002,0.008,0.002  c0,0,0,0,0.001,0c0.003,0.002,0.005,0.002,0.007,0.004c0.001,0,0.001,0,0.002,0c0.002,0.002,0.004,0.002,0.006,0.004  c0,0,0.001,0,0.002,0c0.002,0,0.004,0.002,0.006,0.002c0.001,0,0.002,0,0.002,0.002c0.002,0,0.004,0.002,0.006,0.002  s0.002,0,0.003,0c0.002,0.002,0.004,0.002,0.007,0.004c0,0,0,0,0.001,0c0.003,0.002,0.005,0.002,0.007,0.004h0.001  c0.002,0.002,0.004,0.002,0.007,0.004h0.002c0.002,0,0.004,0.002,0.006,0.002c0,0.002,0.001,0.002,0.002,0.002  c0.002,0,0.005,0.002,0.007,0.002c0.001,0,0.001,0,0.002,0.002c0.002,0,0.004,0,0.006,0.002c0.001,0,0.001,0,0.001,0  c0.003,0.002,0.006,0.002,0.008,0.002l0,0c0.003,0.002,0.006,0.002,0.008,0.004c0.001,0,0.002,0,0.002,0  c0.002,0.002,0.004,0.002,0.006,0.002c0.001,0.002,0.002,0.002,0.002,0.002c0.002,0,0.005,0.002,0.007,0.004  c0.001,0,0.001,0,0.001,0c0.002,0,0.004,0.002,0.008,0.004c0,0,0,0,0.001,0c0.002,0,0.004,0.002,0.007,0.002  c0,0,0,0.002,0.002,0.002s0.004,0.002,0.007,0.002h0.001c0.002,0.002,0.004,0.002,0.006,0.004c0.001,0,0.002,0,0.002,0  c0.002,0,0.005,0.002,0.006,0.002s0.002,0,0.002,0c0.002,0.002,0.006,0.002,0.008,0.002c0,0.002,0.001,0.002,0.002,0.002  c0.002,0,0.004,0.002,0.006,0.002h0.002c0.002,0.002,0.004,0.004,0.006,0.004h0.001c0.003,0.002,0.006,0.002,0.008,0.004  c0.001,0,0.001,0,0.002,0c0.002,0.002,0.004,0.002,0.006,0.002c0.001,0.002,0.001,0.002,0.002,0.002  c0.003,0,0.005,0.002,0.007,0.002h0.001c0.002,0.002,0.004,0.002,0.007,0.004h0.002c0.002,0.002,0.004,0.002,0.006,0.002  c0.001,0,0.002,0,0.002,0.002c0.003,0,0.006,0,0.008,0.002c0,0,0.001,0,0.002,0c0.001,0.002,0.003,0.002,0.006,0.002  c0,0,0,0.002,0.001,0.002c0.003,0.002,0.005,0.002,0.007,0.002c0,0.002,0.001,0.002,0.002,0.002c0.002,0,0.004,0.002,0.007,0.002  c0.001,0,0.001,0,0.001,0c0.002,0.002,0.006,0.002,0.008,0.004c0,0,0.001,0,0.002,0c0.002,0,0.004,0.002,0.006,0.002  c0,0,0,0,0.001,0c0.002,0.002,0.005,0.002,0.007,0.004c0.001,0,0.002,0,0.002,0c0.003,0,0.004,0.002,0.006,0.002s0.002,0,0.003,0  c0.002,0,0.005,0.002,0.007,0.002c0,0,0,0,0.001,0.002c0.002,0,0.005,0,0.007,0.002c0,0,0.001,0,0.002,0  c0.002,0,0.004,0.002,0.006,0.004c0,0,0.001,0,0.002,0.002c0.003,0,0.006,0,0.008,0.002l0,0c0.003,0.002,0.005,0.002,0.008,0.002  c0,0,0,0,0.001,0.002c0.002,0,0.005,0,0.007,0.002c0,0,0.001,0,0.002,0c0.002,0.002,0.004,0.002,0.007,0.002  c0.001,0,0.001,0.002,0.002,0.002s0.005,0,0.007,0.002c0.001,0,0.001,0,0.002,0c0.002,0,0.004,0,0.006,0.002c0,0,0,0,0.001,0  c0.002,0,0.005,0.002,0.007,0.002s0.002,0,0.002,0.002c0.002,0,0.004,0,0.008,0.002c0,0,0,0,0.002,0  c0.002,0.002,0.004,0.002,0.006,0.004c0.001,0,0.001,0,0.002,0c0.002,0,0.004,0.002,0.006,0.002c0.001,0,0.002,0,0.002,0  c0.002,0.002,0.004,0.002,0.006,0.004c0.001,0,0.002,0,0.003,0c0.003,0,0.005,0.002,0.007,0.002c0,0,0.001,0,0.002,0  c0.002,0.002,0.004,0.004,0.006,0.004c0.001,0,0.002,0,0.002,0c0.002,0.002,0.004,0.002,0.006,0.002  c0.001,0.002,0.002,0.002,0.003,0.002c0.002,0,0.004,0,0.007,0c0,0,0,0.002,0.001,0.002c0.003,0,0.005,0,0.008,0.002  c0.001,0,0.001,0,0.002,0c0.002,0.002,0.003,0.002,0.005,0.002c0.001,0,0.002,0,0.002,0c0.002,0.002,0.005,0.004,0.008,0.004  c0,0,0,0,0.001,0c0.003,0.002,0.005,0.002,0.007,0.004c0.001,0,0.002,0,0.002,0c0.002,0,0.004,0.002,0.008,0.002c0,0,0,0,0.002,0  c0.002,0.002,0.004,0.002,0.006,0.002c0,0,0,0,0.001,0.002c0.002,0,0.004,0,0.007,0.002h0.002c0.003,0,0.004,0.002,0.007,0.002  c0.001,0,0.001,0,0.002,0C55.77,97.9,55.771,97.9,55.773,97.9h0.001c0.003,0.002,0.005,0.002,0.007,0.002  c0.001,0,0.002,0,0.002,0.002c0.002,0,0.004,0.002,0.006,0.002c0.001,0,0.002,0,0.002,0.002c0.004,0,0.006,0.002,0.008,0.002  c0.001,0,0.002,0,0.002,0c0.002,0.002,0.004,0.002,0.006,0.002c0.001,0,0.002,0.002,0.002,0.002c0.002,0,0.004,0,0.006,0.002  c0.002,0,0.002,0,0.003,0c0.003,0,0.005,0.002,0.007,0.002h0.002c0.002,0.002,0.004,0.002,0.008,0.002  c0,0.002,0.001,0.002,0.002,0.002c0.002,0,0.004,0,0.005,0.002c0.001,0,0.001,0,0.001,0c0.004,0,0.006,0.002,0.008,0.002h0.002  c0.002,0,0.004,0,0.007,0.002c0.001,0,0.001,0,0.003,0c0.002,0.002,0.004,0.002,0.006,0.002c0,0,0,0,0.001,0  c0.003,0.002,0.005,0.002,0.007,0.002c0.001,0,0.002,0.002,0.002,0.002c0.002,0,0.004,0,0.007,0.002c0.001,0,0.001,0,0.002,0  c0.003,0.002,0.005,0.002,0.007,0.004h0.002c0.003,0,0.005,0,0.007,0.002c0.001,0,0.001,0,0.002,0s0.004,0.002,0.007,0.002  c0,0.002,0.001,0.002,0.002,0.002c0.002,0,0.004,0,0.006,0.002h0.002c0.003,0,0.005,0.002,0.008,0.002c0,0,0.001,0,0.002,0  c0.002,0.002,0.004,0.002,0.006,0.002c0,0,0.001,0,0.002,0c0.002,0,0.004,0.002,0.006,0.002c0.001,0,0.002,0,0.002,0  c0.003,0.002,0.006,0.002,0.008,0.002l0.002,0.002c0.002,0,0.004,0,0.007,0.002c0.001,0,0.001,0,0.002,0  c0.002,0,0.005,0,0.005,0.002c0.002,0,0.002,0,0.002,0c0.003,0.002,0.006,0.002,0.008,0.002c0,0.002,0.002,0.002,0.002,0.002  c0.002,0,0.004,0,0.008,0.002c0,0,0,0,0.002,0s0.004,0.002,0.006,0.002c0,0,0.001,0,0.002,0c0.002,0,0.004,0.002,0.006,0.002  s0.002,0,0.002,0c0.002,0.002,0.004,0.002,0.008,0.002c0,0,0.001,0,0.002,0.002c0.002,0,0.004,0,0.006,0.002  c0.001,0,0.002,0,0.002,0c0.003,0,0.005,0,0.008,0.002c0,0,0,0,0.001,0c0.002,0,0.005,0.002,0.007,0.002c0.001,0,0.002,0,0.002,0  c0.002,0,0.005,0.002,0.007,0.002c0.001,0,0.001,0,0.001,0c0.004,0.002,0.006,0.002,0.008,0.002s0.002,0,0.002,0  c0.002,0.002,0.004,0.004,0.007,0.004c0.001,0,0.001,0,0.001,0c0.002,0,0.005,0.002,0.008,0.002c0,0,0,0,0.001,0  c0.003,0,0.005,0.002,0.008,0.002c0.001,0,0.001,0,0.002,0c0.001,0.002,0.004,0.002,0.007,0.002c0.001,0,0.002,0,0.002,0  c0.002,0.002,0.004,0.002,0.006,0.002c0,0,0.001,0,0.002,0.002c0.002,0,0.004,0,0.007,0C56.109,98,56.109,98,56.11,98  c0.003,0,0.005,0,0.007,0.002c0.001,0,0.002,0,0.002,0c0.003,0,0.005,0,0.008,0.002l0,0c0.004,0,0.006,0,0.008,0h0.002  c0.002,0.002,0.004,0.002,0.007,0.002c0.001,0,0.001,0.002,0.002,0.002c0.003,0,0.005,0,0.007,0.002h0.002  c0.002,0,0.005,0,0.008,0.002l0,0c0.002,0.002,0.005,0.002,0.008,0.002c0,0,0.001,0,0.002,0c0.002,0.002,0.004,0.002,0.006,0.002  c0.001,0,0.002,0,0.002,0c0.003,0.002,0.006,0.004,0.008,0.004c0.001,0,0.001,0,0.002,0c0.002,0,0.005,0.002,0.007,0.002  c0.001,0,0.001,0,0.001,0c0.002,0,0.004,0.002,0.008,0.002c0,0,0,0,0.001,0c0.003,0,0.005,0.002,0.008,0.002  c0.001,0,0.001,0,0.001,0c0.002,0,0.006,0.002,0.008,0.002c0.001,0,0.002,0,0.002,0c0.002,0,0.004,0.002,0.006,0.002h0.002  c0.002,0,0.005,0,0.008,0c0,0.002,0.001,0.002,0.002,0.002c0.002,0,0.004,0,0.007,0.002c0.001,0,0.001,0,0.002,0  c0.002,0,0.005,0,0.007,0.002c0,0,0.001,0,0.002,0c0.002,0,0.004,0,0.006,0c0,0.002,0.002,0.002,0.002,0.002  c0.002,0,0.005,0,0.008,0c0,0.002,0.001,0.002,0.002,0.002c0.002,0,0.004,0.002,0.008,0.002c0,0,0,0,0.001,0  c0.002,0,0.005,0.002,0.007,0.002c0,0,0,0,0.001,0c0.003,0,0.005,0.002,0.008,0.002c0.001,0,0.001,0,0.002,0  s0.004,0.002,0.006,0.002c0.001,0,0.003,0,0.003,0c0.003,0,0.005,0.002,0.007,0.002c0.001,0,0.001,0,0.002,0  c0.003,0,0.005,0.002,0.007,0.002c0,0,0,0,0.002,0c0.001,0,0.004,0,0.007,0.002c0.001,0,0.001,0,0.002,0  c0.003,0,0.005,0,0.007,0.002c0,0,0.001,0,0.002,0c0.002,0,0.006,0,0.008,0.002h0.001c0.003,0,0.004,0,0.007,0.002  c0,0,0.001,0,0.002,0c0.002,0,0.004,0,0.007,0c0.001,0.002,0.001,0.002,0.002,0.002c0.003,0,0.005,0,0.007,0  c0.001,0,0.002,0.002,0.002,0.002c0.002,0,0.006,0,0.008,0c0,0,0.001,0,0.002,0.002c0.002,0,0.004,0,0.006,0.002  c0,0,0.001,0,0.002,0c0.002,0,0.005,0,0.008,0.002c0,0,0,0,0.002,0s0.004,0,0.007,0.002c0.001,0,0.001,0,0.002,0  c0.003,0,0.004,0,0.006,0c0.001,0,0.001,0,0.003,0.002c0.002,0,0.004,0,0.006,0c0.001,0,0.002,0,0.002,0  c0.002,0.002,0.006,0.002,0.008,0.002h0.002c0.002,0.002,0.005,0.002,0.007,0.002c0.001,0,0.002,0,0.003,0  c0.002,0,0.004,0.002,0.006,0.002c0,0,0,0,0.001,0c0.003,0,0.006,0,0.008,0.002c0.001,0,0.001,0,0.002,0  c0.002,0,0.005,0,0.007,0.002c0.001,0,0.002,0,0.002,0c0.004,0,0.006,0,0.008,0c0,0,0,0,0.001,0c0.003,0,0.005,0,0.007,0.002  c0.001,0,0.002,0,0.002,0c0.002,0,0.005,0,0.008,0c0,0.002,0.001,0.002,0.002,0.002c0.002,0,0.004,0,0.007,0  c0.001,0,0.001,0,0.001,0.002c0.004,0,0.006,0,0.008,0c0.001,0,0.002,0,0.002,0c0.002,0,0.004,0.002,0.008,0.002v0.002  c0.003,0,0.006,0.002,0.008,0.002c0.001,0,0.002,0,0.002,0c0.003,0,0.006,0,0.008,0.002c0,0,0,0,0.001,0c0.003,0,0.005,0,0.008,0  c0.001,0,0.001,0,0.001,0c0.002,0.002,0.005,0.002,0.008,0.002c0,0,0.001,0,0.002,0c0.002,0,0.005,0.002,0.007,0.002  c0.001,0,0.001,0,0.002,0c0.002,0,0.005,0,0.008,0.002c0.001,0,0.001,0,0.001,0c0.002,0,0.004,0,0.008,0c0,0,0,0,0.001,0  c0.003,0.002,0.005,0.002,0.007,0.002h0.002c0.003,0,0.006,0.002,0.008,0.002c0.001,0,0.002,0,0.002,0c0.002,0,0.004,0,0.008,0.002  c0,0,0,0,0.001,0c0.002,0,0.004,0,0.007,0c0,0,0.001,0,0.002,0c0.002,0,0.005,0,0.008,0c0,0.002,0,0.002,0.001,0.002  c0.003,0,0.005,0,0.009,0c0,0,0,0,0.001,0c0.003,0.002,0.005,0.002,0.007,0.002c0,0,0,0,0.002,0s0.004,0,0.006,0.002  c0.002,0,0.002,0,0.002,0c0.003,0,0.006,0,0.008,0c0.001,0,0.002,0,0.002,0c0.002,0.002,0.005,0.002,0.008,0.002  c0.001,0.002,0.002,0.002,0.002,0.002c0.002,0,0.005,0,0.006,0s0.002,0,0.002,0c0.002,0,0.006,0.002,0.008,0.002  c0,0,0.001,0,0.002,0c0.002,0,0.004,0,0.008,0c0,0.002,0.001,0.002,0.002,0.002c0.002,0,0.004,0,0.006,0c0.001,0,0.002,0,0.002,0  c0.003,0,0.006,0.002,0.008,0.002h0.001c0.002,0,0.005,0,0.008,0c0.001,0,0.001,0,0.002,0.002c0.003,0,0.005,0,0.007,0  c0.001,0,0.002,0,0.002,0c0.003,0,0.006,0.002,0.008,0.002l0,0c0.004,0,0.006,0,0.009,0c0.001,0,0.001,0,0.001,0  c0.003,0.002,0.005,0.002,0.008,0.002c0.001,0,0.002,0,0.002,0.002c0.003,0,0.006,0,0.008,0c0,0,0,0,0.001,0  c0.003,0,0.005,0,0.008,0.002c0.001,0,0.001,0,0.001,0c0.002,0,0.005,0,0.008,0h0.002c0.002,0,0.005,0,0.007,0  c0.001,0,0.001,0,0.002,0c0.003,0.002,0.006,0.002,0.009,0.002l0,0c0.002,0,0.005,0,0.008,0h0.001  c0.003,0.002,0.005,0.002,0.008,0.002c0.001,0,0.001,0,0.002,0c0.003,0,0.005,0,0.007,0.002c0.001,0,0.002,0,0.002,0  c0.002,0,0.006,0,0.009,0h0.001c0.002,0,0.004,0,0.008,0.002l0,0c0.003,0,0.006,0,0.008,0c0.001,0,0.002,0,0.002,0  c0.003,0,0.006,0.002,0.008,0.002h0.002c0.002,0,0.005,0.002,0.008,0.002c0,0,0,0,0.001,0c0.003,0,0.005,0,0.007,0  c0,0,0.001,0,0.002,0c0.002,0,0.006,0.002,0.008,0.002c0.001,0,0.001,0,0.002,0c0.002,0,0.005,0,0.008,0c0,0,0.001,0,0.002,0  c0.002,0,0.004,0.002,0.006,0.002c0.001,0,0.001,0,0.002,0c0.002,0,0.005,0,0.007,0c0.001,0,0.001,0,0.002,0  c0.003,0,0.006,0.002,0.009,0.002c0,0,0.001,0,0.002,0c0.002,0,0.004,0,0.007,0c0.001,0,0.001,0,0.002,0  c0.002,0,0.005,0,0.007,0.002c0,0,0,0,0.001,0c0.003,0,0.006,0,0.009,0c0,0,0,0,0.001,0c0.003,0,0.005,0,0.009,0.002  c0,0,0,0,0.001,0c0.003,0,0.005,0,0.007,0c0.001,0,0.001,0,0.002,0c0.002,0,0.005,0,0.008,0l0,0  c0.003,0.002,0.006,0.002,0.009,0.002c0.001,0,0.001,0,0.002,0c0.002,0,0.005,0,0.008,0c0.001,0,0.001,0,0.001,0  c0.003,0,0.006,0.002,0.008,0.002l0,0c0.004,0,0.006,0,0.01,0c0,0,0,0,0.001,0c0.002,0,0.005,0,0.007,0c0.001,0,0.002,0,0.002,0  c0.003,0,0.006,0,0.008,0c0,0,0.001,0,0.002,0c0.002,0.002,0.005,0.002,0.008,0.002l0,0c0.002,0,0.006,0,0.009,0  c0.001,0,0.001,0,0.001,0c0.003,0,0.005,0,0.008,0c0.001,0.002,0.002,0.002,0.002,0.002c0.002,0,0.006,0,0.008,0h0.001  c0.003,0,0.005,0,0.008,0c0.001,0,0.001,0,0.001,0c0.002,0,0.005,0,0.008,0.002c0.002,0,0.002,0,0.002,0c0.003,0,0.005,0,0.008,0  c0,0,0.001,0,0.002,0c0.002,0.002,0.005,0.002,0.008,0.002l0,0c0.003,0,0.006,0,0.009,0c0.001,0,0.001,0,0.001,0  c0.003,0,0.005,0,0.008,0c0.001,0,0.002,0,0.002,0c0.003,0.002,0.006,0.002,0.008,0.002c0,0,0,0,0.001,0  c0.003,0,0.006,0,0.009,0.002l0,0c0.002,0,0.006,0,0.008,0c0.001,0,0.002,0,0.002,0c0.003,0,0.005,0,0.008,0c0,0,0.001,0,0.002,0  c0.003,0,0.006,0,0.008,0l0,0c0.007,0.002,0.013,0.002,0.018,0.002c0.001,0,0.002,0,0.002,0c0.003,0,0.006,0,0.008,0  c0,0,0.001,0,0.002,0c0.002,0,0.006,0,0.008,0h0.001c0.003,0.002,0.005,0.002,0.009,0.002l0,0c0.003,0,0.006,0,0.008,0  c0,0,0.001,0,0.002,0c0.003,0,0.006,0,0.008,0c0,0,0.001,0,0.002,0c0.002,0,0.006,0,0.008,0l0,0c0.004,0,0.006,0.002,0.01,0.002l0,0  c0.004,0,0.006,0,0.008,0c0,0,0.001,0,0.002,0c0.003,0,0.006,0,0.009,0h0.001c0.002,0,0.004,0,0.008,0l0,0c0.004,0,0.006,0,0.009,0  c0.001,0,0.001,0,0.002,0c0.003,0,0.005,0.002,0.007,0.002c0.001,0,0.002,0,0.002,0c0.002,0,0.006,0,0.009,0h0.001  c0.002,0,0.005,0,0.008,0l0,0c0.004,0,0.006,0,0.009,0c0.001,0,0.001,0,0.001,0c0.004,0,0.006,0,0.009,0c0.001,0,0.001,0,0.001,0  c0.003,0,0.006,0,0.009,0c0.001,0,0.001,0,0.001,0c0.002,0,0.004,0,0.008,0.002l0,0c0.004,0,0.006,0,0.009,0  c0.001,0,0.001,0,0.001,0c0.004,0,0.006,0,0.009,0c0.001,0,0.001,0,0.001,0c0.003,0,0.006,0,0.01,0l0,0c0.002,0,0.005,0,0.008,0  c0,0,0,0,0.001,0c0.003,0,0.005,0,0.009,0c0,0,0,0,0.001,0c0.003,0,0.006,0,0.009,0c0,0,0,0,0.001,0c0.003,0,0.005,0,0.009,0l0,0  c0.003,0,0.006,0,0.008,0c0,0,0,0,0.001,0c0.003,0,0.006,0,0.009,0c0.001,0,0.001,0,0.002,0c0.002,0,0.004,0,0.008,0.002  c0,0,0,0,0.001,0c0.003,0,0.005,0,0.008,0c0.001,0,0.001,0,0.001,0c0.003,0,0.006,0,0.008,0c0.001,0,0.001,0,0.002,0  c0.002,0,0.006,0,0.008,0c0.001,0,0.002,0,0.002,0c0.002,0,0.005,0,0.008,0h0.001c0.003,0,0.005,0,0.008,0c0.001,0,0.001,0,0.001,0  c0.004,0,0.006,0,0.009,0c0.001,0,0.001,0,0.001,0c0.003,0,0.006,0,0.009,0c0.001,0,0.001,0,0.001,0c0.004,0,0.006,0,0.008,0l0,0  h1.926v-4.109h-1.926C57.029,94.072,56.538,93.832,56.205,93.408L56.205,93.408z M73.856,94.072h-7.19v4.109h7.19V94.072  L73.856,94.072z M88.235,94.072h-7.189v4.109h7.189V94.072L88.235,94.072z M95.879,92.566c-0.086,0.709-0.638,1.314-1.342,1.469  l0.876,4.012c1.458-0.316,2.714-1.184,3.541-2.371c0,0,0,0,0.001,0c0.006-0.01,0.014-0.02,0.02-0.027l0,0  c0.007-0.01,0.014-0.021,0.021-0.029l0,0c0.006-0.01,0.012-0.02,0.019-0.029l0,0c0.006-0.008,0.011-0.016,0.016-0.023  c0.001,0,0.001,0,0.001,0c0-0.002,0.001-0.004,0.002-0.004c0-0.002,0.001-0.002,0.001-0.002c0.005-0.008,0.011-0.014,0.015-0.021  c0.001,0,0.001,0,0.001,0c0.001-0.002,0.002-0.004,0.003-0.006c0.001,0,0.001,0,0.001,0c0.005-0.01,0.01-0.016,0.015-0.023  c0.001,0,0.001,0,0.001-0.002c0.001,0,0.002-0.002,0.003-0.006c0.001,0,0.001,0,0.001,0c0.004-0.006,0.007-0.012,0.01-0.016v-0.002  c0.001,0,0.002-0.002,0.003-0.004c0,0,0.001,0,0.001-0.002c0.001-0.002,0.002-0.004,0.003-0.006h0.003  c0.003-0.004,0.007-0.01,0.01-0.016c0,0,0-0.002,0.001-0.002c0.001-0.002,0.002-0.002,0.003-0.006c0,0,0,0,0.001,0  c0.001-0.002,0.001-0.004,0.002-0.006c0,0,0,0,0.001,0c0.003-0.006,0.006-0.01,0.01-0.016c0.001,0,0.001,0,0.001,0  c0.001-0.004,0.002-0.006,0.003-0.006c0-0.002,0.001-0.002,0.001-0.004c0.001-0.002,0.002-0.002,0.003-0.004h0.002  c0.003-0.006,0.005-0.01,0.008-0.016c0.001-0.002,0.001-0.002,0.002-0.002c0.001-0.002,0.001-0.004,0.002-0.006  c0.001,0,0.001,0,0.003,0c0.001-0.002,0.001-0.004,0.002-0.004c0.001-0.002,0.001-0.002,0.001-0.002  c0.003-0.006,0.007-0.012,0.01-0.018c0,0,0,0,0.001-0.002c0.001,0,0.002-0.002,0.002-0.002c0-0.002,0-0.002,0.001-0.002  c0.001-0.002,0.002-0.004,0.002-0.006c0.001,0,0.001,0,0.001,0c0.003-0.004,0.005-0.008,0.008-0.012l0.001-0.002  c0.001-0.002,0.002-0.002,0.002-0.004c0.001,0,0.001,0,0.002-0.002c0.001,0,0.002-0.002,0.002-0.004  c0.001,0,0.001-0.002,0.002-0.002c0.001-0.002,0.001-0.002,0.002-0.004c0.001,0,0.001-0.002,0.001-0.002  c0.002-0.004,0.003-0.006,0.005-0.01c0,0,0,0,0.001,0c0.001-0.002,0.001-0.004,0.002-0.004c0.001-0.002,0.001-0.004,0.002-0.004  c0.001-0.002,0.001-0.004,0.003-0.004c0.001-0.002,0.001-0.002,0.002-0.004c0.001,0,0.001-0.004,0.002-0.004  c0.001-0.002,0.001-0.002,0.002-0.004c0.002-0.002,0.004-0.004,0.005-0.004c0-0.002,0.001-0.004,0.002-0.004  c0-0.002,0.001-0.002,0.002-0.004l0.001-0.002c0-0.002,0.001-0.004,0.002-0.004c0-0.002,0.001-0.004,0.001-0.006  c0.001,0,0.002-0.002,0.003-0.004s0.002-0.002,0.004-0.004c0.001-0.002,0.002-0.002,0.002-0.004  c0.001-0.002,0.002-0.002,0.002-0.004c0.001,0,0.002-0.002,0.002-0.004c0.001,0,0.002-0.002,0.002-0.002  c0.001-0.002,0.001-0.004,0.002-0.004c0.001-0.002,0.002-0.004,0.002-0.004c0.001-0.002,0.002-0.002,0.003-0.004  s0.002-0.004,0.002-0.006c0,0,0.002-0.002,0.003-0.002c0-0.002,0.001-0.004,0.002-0.004c0-0.002,0.001-0.002,0.002-0.006  c0,0,0.001-0.002,0.003-0.002c0-0.002,0.001-0.002,0.001-0.004c0.001,0,0.002-0.002,0.003-0.004c0.001,0,0.001-0.002,0.001-0.002  c0.002-0.002,0.003-0.004,0.004-0.006s0.001-0.004,0.002-0.004c0-0.002,0.001-0.004,0.002-0.006c0,0,0.001-0.002,0.002-0.002  c0-0.002,0.001-0.004,0.001-0.004s0.001-0.002,0.002-0.002c0-0.002,0.001-0.004,0.002-0.006c0.001,0,0.002-0.002,0.002-0.004  c0.001,0,0.002-0.002,0.003-0.004c0.002,0,0.002-0.002,0.003-0.004c0-0.002,0.001-0.002,0.003-0.004  c0-0.002,0.001-0.002,0.002-0.002c0-0.002,0.001-0.004,0.002-0.006c0,0,0.001,0,0.002-0.002s0.002-0.004,0.003-0.006  c0,0,0.001-0.002,0.002-0.004c0-0.002,0.001-0.002,0.001-0.004c0.001-0.002,0.001-0.002,0.002-0.004c0,0,0.001-0.002,0.002-0.002  c0-0.002,0.001-0.002,0.002-0.004c0-0.002,0.001-0.002,0.002-0.004c0-0.002,0.002-0.002,0.002-0.004  c0.001-0.002,0.003-0.006,0.004-0.008c0,0,0.001,0,0.001-0.002c0.001-0.002,0.002-0.002,0.003-0.004l0.001-0.002  c0.001-0.002,0.002-0.004,0.002-0.004c0.001-0.002,0.002-0.002,0.002-0.004c0.001,0,0.003-0.002,0.003-0.004  c0,0,0-0.002,0.001-0.004s0.002-0.004,0.004-0.008c0,0,0,0,0.001,0c0.001-0.002,0.001-0.004,0.002-0.006  c0.002,0,0.002-0.002,0.003-0.002c0.001-0.002,0.001-0.002,0.002-0.004s0.001-0.002,0.002-0.004s0.001-0.004,0.002-0.006  c0.001,0,0.001,0,0.001-0.002c0.001-0.002,0.003-0.002,0.004-0.006c0,0,0.001,0,0.001-0.002c0.001-0.002,0.002-0.004,0.003-0.006  v-0.002c0.001-0.002,0.002-0.004,0.002-0.006c0.001,0,0.001-0.002,0.002-0.002c0.001-0.002,0.002-0.004,0.003-0.004  c0-0.002,0-0.002,0.001-0.002c0.001-0.002,0.004-0.004,0.005-0.008c0.001,0,0.001,0,0.001-0.002  c0.001-0.002,0.002-0.002,0.003-0.004c0-0.004,0.001-0.004,0.001-0.004c0.001-0.002,0.002-0.004,0.003-0.006  c0,0,0.001,0,0.001-0.002c0.002-0.004,0.005-0.008,0.006-0.014c0.001,0,0.001,0,0.001-0.002c0.001-0.002,0.002-0.004,0.003-0.006  l0.001-0.002c0.001-0.002,0.002-0.002,0.003-0.006c0,0,0,0,0.002-0.002c0.001-0.002,0.002-0.004,0.003-0.006  c0.001,0,0.001,0,0.001,0c0.001-0.004,0.002-0.006,0.003-0.008c0-0.002,0.001-0.002,0.001-0.002  c0.001-0.002,0.002-0.004,0.004-0.006c0,0,0,0,0.001-0.002s0.002-0.002,0.003-0.004c0-0.002,0-0.002,0-0.002  c0.001-0.004,0.002-0.006,0.003-0.01l0,0c0.002-0.002,0.003-0.006,0.004-0.006c0-0.002,0-0.002,0.001-0.002  c0.002-0.002,0.003-0.004,0.003-0.006c0.001,0,0.001-0.002,0.001-0.002c0.001-0.002,0.003-0.004,0.004-0.006c0,0,0,0,0-0.002  c0.001-0.002,0.002-0.004,0.004-0.008l0,0c0.001-0.002,0.002-0.004,0.003-0.006s0.001-0.002,0.001-0.002  c0.001-0.002,0.002-0.004,0.002-0.006l0.001-0.002c0.001-0.004,0.002-0.006,0.003-0.008l0,0c0.003-0.004,0.004-0.004,0.006-0.008  h0.001c0.001-0.002,0.002-0.004,0.003-0.008c0,0,0,0,0.001-0.002c0-0.002,0.001-0.004,0.002-0.006c0.001,0,0.001-0.002,0.001-0.002  c0.002-0.004,0.005-0.008,0.007-0.014c0,0,0.001,0,0.001-0.002s0.001-0.004,0.002-0.006c0,0,0-0.002,0.001-0.002  c0.001-0.004,0.001-0.006,0.002-0.006s0.001-0.002,0.001-0.002c0.003-0.004,0.006-0.01,0.008-0.014c0-0.002,0-0.002,0.001-0.002  c0.001-0.002,0.002-0.006,0.003-0.008l0,0c0.003-0.002,0.003-0.004,0.004-0.006c0.001,0,0.001-0.002,0.001-0.002  c0.002-0.006,0.004-0.012,0.006-0.016c0-0.002,0-0.002,0.001-0.002c0-0.002,0.002-0.004,0.002-0.006c0.001,0,0.001,0,0.001,0  c0.001-0.004,0.002-0.006,0.003-0.008h0.002c0.001-0.002,0.002-0.008,0.003-0.01l0,0c0.001-0.002,0.002-0.004,0.004-0.006  c0-0.002,0-0.002,0-0.002c0.001-0.002,0.002-0.004,0.003-0.006c0,0,0-0.002,0.001-0.002c0.001-0.002,0.002-0.004,0.003-0.008l0,0  c0.001-0.002,0.002-0.006,0.003-0.008l0,0c0.002-0.004,0.003-0.006,0.004-0.008c0,0,0,0,0.001-0.002s0.001-0.004,0.004-0.006  c0-0.002,0-0.002,0-0.002c0.002-0.006,0.005-0.01,0.007-0.014l0,0c0.001-0.004,0.002-0.006,0.003-0.01c0,0,0.001,0,0.001-0.002  c0.001-0.002,0.002-0.004,0.003-0.006c0,0,0,0,0-0.002c0.002-0.004,0.004-0.008,0.006-0.014l0,0  c0.001-0.004,0.002-0.006,0.003-0.008l0.001-0.002c0.002-0.002,0.003-0.004,0.004-0.006v-0.002c0.002-0.004,0.006-0.01,0.008-0.016  c0,0,0,0,0-0.002c0.001-0.002,0.002-0.002,0.003-0.004c0-0.002,0.001-0.002,0.001-0.002c0.001-0.002,0.002-0.004,0.002-0.008l0,0  c0.002-0.008,0.004-0.012,0.007-0.016v-0.002c0.001-0.002,0.002-0.004,0.004-0.006v-0.002c0.004-0.008,0.007-0.016,0.01-0.023  v-0.002c0.001-0.002,0.002-0.004,0.003-0.008c0.001,0,0.001,0,0.001,0c0.003-0.008,0.006-0.016,0.009-0.023c0.001,0,0.001,0,0.001,0  c0.001-0.004,0.003-0.006,0.004-0.01l0,0c0.003-0.006,0.006-0.014,0.01-0.023c0-0.002,0-0.002,0-0.002  c0.001-0.002,0.002-0.004,0.003-0.006l0,0c0.002-0.008,0.005-0.018,0.009-0.023c0-0.002,0-0.002,0-0.002  c0.006-0.012,0.01-0.021,0.014-0.033l0,0c0.005-0.012,0.008-0.021,0.012-0.033l0,0c0.005-0.012,0.009-0.021,0.013-0.033l0,0  c0.005-0.012,0.008-0.023,0.012-0.033l0,0c0.146-0.402,0.248-0.822,0.302-1.26L95.879,92.566L95.879,92.566z M100,78.684h-4.108  v7.189H100V78.684L100,78.684z M100,64.307h-4.108v7.188H100V64.307L100,64.307z M97.333,50.845l-2.237,3.446  c0.497,0.324,0.796,0.863,0.796,1.441v1.385H100v-1.385c0-0.004,0-0.006,0-0.008s0-0.002,0-0.002c0-0.004,0-0.008,0-0.01  c0,0,0,0,0-0.002c0,0,0-0.004,0-0.006c0,0,0,0,0-0.002s0-0.004,0-0.008v-0.002c0-0.004,0-0.006,0-0.008l0,0c0-0.004,0-0.006,0-0.008  s0-0.002,0-0.002c0-0.004,0-0.006,0-0.008c0,0,0,0,0-0.002s0-0.006,0-0.008v-0.002c-0.001-0.004-0.001-0.006-0.001-0.008  c0,0,0,0,0-0.002s0-0.004,0-0.006s0-0.002,0-0.004s0-0.004,0-0.006s0-0.002,0-0.002c0-0.002,0-0.006,0-0.008v-0.002  c0-0.002,0-0.006,0-0.01l0,0c0-0.002,0-0.006,0-0.008l0,0c-0.001-0.002-0.001-0.006-0.001-0.008s0-0.002,0-0.002  c0-0.004,0-0.006,0-0.01l0,0c0-0.004,0-0.006,0-0.008v-0.002c0-0.002,0-0.006,0-0.008c0,0,0,0,0-0.002  c-0.001-0.002-0.001-0.006-0.001-0.006c0-0.002,0-0.002,0-0.002c0-0.002,0-0.006,0-0.01l0,0c0-0.004,0-0.006,0-0.008  s0-0.002,0-0.002c0-0.004,0-0.004-0.002-0.008c0,0,0,0,0-0.002s0-0.004,0-0.008l0,0c0-0.002,0-0.006,0-0.008s0-0.004,0-0.004  c0-0.002-0.001-0.004-0.001-0.006s0-0.002,0-0.002c0-0.002,0-0.006,0-0.008c0,0,0,0,0-0.002s0-0.006,0-0.008v-0.002  c-0.001-0.002-0.001-0.004-0.001-0.008l0,0c0-0.004,0-0.006,0-0.008s0-0.002,0-0.002c0-0.004-0.001-0.006-0.001-0.008l0,0  c0-0.004,0-0.006,0-0.008s0-0.002,0-0.002c0-0.004,0-0.006-0.001-0.01c0,0,0,0,0-0.002s0-0.004,0-0.006v-0.002  c0-0.002,0-0.006-0.001-0.008v-0.002c0-0.002,0-0.004,0-0.008l0,0c0-0.004,0-0.006-0.001-0.01l0,0c0-0.006,0-0.012-0.001-0.018  c0-0.002,0-0.002,0-0.002c0-0.002,0-0.004,0-0.008l0,0c0-0.002-0.001-0.006-0.001-0.01l0,0c0-0.004,0-0.008,0-0.01l0,0  c0-0.002,0-0.006,0-0.008l0,0c0-0.004,0-0.006-0.001-0.01l0,0c0-0.006,0-0.012-0.001-0.018v-0.002c0-0.002,0-0.006-0.001-0.008l0,0  c0-0.004,0-0.006,0-0.008v-0.002c-0.001-0.002-0.001-0.006-0.001-0.008s0-0.002,0-0.002c0-0.002,0-0.006-0.001-0.01l0,0  c0-0.002,0-0.004,0-0.008c0,0,0,0-0.002,0c0-0.006,0-0.012-0.001-0.02l0,0c0-0.002,0-0.006-0.001-0.008l0,0c0-0.004,0-0.006,0-0.008  s-0.001-0.002-0.001-0.002c0-0.002,0-0.006,0-0.01l0,0c-0.001-0.002-0.001-0.004-0.001-0.008l0,0c0-0.004-0.001-0.006-0.001-0.01  l0,0c-0.001-0.008-0.001-0.012-0.002-0.018l0,0c0-0.004,0-0.006,0-0.01l0,0c-0.001-0.004-0.001-0.008-0.001-0.01l0,0  c-0.001-0.002-0.001-0.006-0.001-0.008c0,0,0,0,0-0.002c-0.002-0.002-0.002-0.004-0.002-0.008l0,0c0-0.004-0.001-0.006-0.001-0.008  v-0.002c-0.001-0.006-0.001-0.012-0.002-0.018v-0.002c-0.001-0.004-0.001-0.01-0.002-0.016l0,0c0-0.004-0.001-0.008-0.001-0.012l0,0  c0-0.002-0.001-0.004-0.001-0.008l0,0c0-0.002-0.001-0.006-0.001-0.008c0,0,0,0,0-0.002c-0.001-0.006-0.001-0.012-0.001-0.018l0,0  c-0.001-0.006-0.002-0.012-0.002-0.018l0,0c-0.001-0.004-0.001-0.006-0.001-0.008s0-0.002,0-0.002  c-0.001-0.004-0.001-0.006-0.001-0.01l0,0c-0.001-0.004-0.001-0.006-0.002-0.008l0,0c0-0.006-0.001-0.012-0.002-0.018l0,0  c-0.001-0.008-0.001-0.014-0.002-0.02l0,0c-0.001-0.01-0.003-0.018-0.004-0.027l0,0c-0.001-0.006-0.001-0.012-0.002-0.018l0,0  c-0.003-0.006-0.004-0.012-0.005-0.02l0,0c-0.002-0.014-0.004-0.027-0.005-0.043l0,0c-0.001-0.008-0.002-0.012-0.003-0.018l0,0  C99.675,53.176,98.698,51.732,97.333,50.845L97.333,50.845z" style="&#10;    fill: #2c9e76;&#10;"/><g><path d="M82.165,35.738h-4.109c0-6.257-1.801-11.137-5.356-14.5c-6.144-5.815-15.658-5.361-15.752-5.359l-0.238-4.101   c0.461-0.024,11.329-0.582,18.786,6.451C79.921,22.401,82.165,28.292,82.165,35.738z"/><path d="M85.683,37.004c0.182-0.18,0.271-0.359,0.271-0.629V32.42c0-0.27-0.271-0.359-0.452-0.181l-3.234,3.236v-0.323h-4.315   v0.234l-3.236-3.147c-0.18-0.179-0.448-0.089-0.448,0.181v3.955c0,0.27,0.09,0.449,0.269,0.629l5.395,5.393   c0.089,0.091,0.27,0.091,0.359,0L85.683,37.004z"/></g><g><path d="M40.508,87.863c-2.801,0-11.582-0.508-17.907-6.471c-4.425-4.172-6.668-10.064-6.668-17.512h4.108   c0,6.26,1.803,11.137,5.357,14.502c6.146,5.816,15.66,5.367,15.753,5.359l0.238,4.1C41.319,87.848,41.009,87.863,40.508,87.863z"/><path d="M12.415,62.615c-0.18,0.182-0.271,0.359-0.271,0.631v3.953c0,0.271,0.271,0.359,0.451,0.182l3.236-3.236v0.322h4.314   v-0.232l3.236,3.146c0.18,0.178,0.449,0.09,0.449-0.182v-3.953c0-0.271-0.09-0.449-0.269-0.631l-5.394-5.391   c-0.09-0.092-0.271-0.092-0.359,0L12.415,62.615z"/></g></svg>