<svg xmlns="http://www.w3.org/2000/svg" xmlns:xlink="http://www.w3.org/1999/xlink" version="1.1" baseProfile="tiny" x="0px" y="0px" viewBox="0 0 100 100" xml:space="preserve"><path d="M60,23c7,0.4,14,3.3,19.4,8.1L60,50.7V23x" fill="#143F5B"/>
<path d="M63.2,53h19.1c-0.4-4-2.4-9.8-5.6-13.6L63.2,53x" fill="#2c9e76"/>
<path d="M80.9,74.8  c4.3-5,6.9-10.8,7.3-17.8h-25L80.9,74.8x" fill="#ecaf42"/>
<path d="M60,90.7c8-0.5,15.3-3.5,21.2-8.9L60,60.5V90.7x" fill="#143F5B"/>
<path d="M56,95.1V60.5L31.7,84.9  C38.5,91.1,47,94.6,56,95.1x" fill="#ecaf42"/>
<path d="M15.3,57c0.5,10,4.4,19.7,11.2,27.3L53.5,57H15.3x" fill="#143F5B"/>
<path d="M23.9,23.1C16.4,31.4,12.1,43,11.7,53h41.9  L23.9,23.1x" fill="#2c9e76"/>
<path d="M56,5.1c-11,0.5-23.2,5.2-32,13.4l32,32.2V5.1x" fill="#143F5B"/></svg>