<svg height='100px' width='100px'  fill="#000000" xmlns="http://www.w3.org/2000/svg" xmlns:xlink="http://www.w3.org/1999/xlink" version="1.1" x="0px" y="0px" viewBox="0 0 64 64" style="enable-background:new 0 0 64 64;" xml:space="preserve"><g><path d="M35,18c0-9.374-7.626-17-17-17S1,8.626,1,18s7.626,17,17,17S35,27.374,35,18z M3,18C3,9.729,9.729,3,18,3s15,6.729,15,15   s-6.729,15-15,15S3,26.271,3,18z"></path><path d="M12,16c1.654,0,3-1.346,3-3s-1.346-3-3-3s-3,1.346-3,3S10.346,16,12,16z M12,12c0.552,0,1,0.448,1,1s-0.448,1-1,1   s-1-0.448-1-1S11.448,12,12,12z"></path><path d="M24,16c1.654,0,3-1.346,3-3s-1.346-3-3-3s-3,1.346-3,3S22.346,16,24,16z M24,12c0.552,0,1,0.448,1,1s-0.448,1-1,1   s-1-0.448-1-1S23.448,12,24,12z"></path><path d="M29,18h-2c0,4.963-4.037,9-9,9s-9-4.037-9-9H7c0,6.065,4.935,11,11,11S29,24.065,29,18z"></path><path d="M46,29c-9.374,0-17,7.626-17,17s7.626,17,17,17s17-7.626,17-17S55.374,29,46,29z M46,61c-8.271,0-15-6.729-15-15   s6.729-15,15-15s15,6.729,15,15S54.271,61,46,61z"></path><path d="M40,44c1.654,0,3-1.346,3-3s-1.346-3-3-3s-3,1.346-3,3S38.346,44,40,44z M40,40c0.552,0,1,0.448,1,1s-0.448,1-1,1   s-1-0.448-1-1S39.448,40,40,40z"></path><path d="M52,38c-1.654,0-3,1.346-3,3s1.346,3,3,3s3-1.346,3-3S53.654,38,52,38z M52,42c-0.552,0-1-0.448-1-1s0.448-1,1-1   s1,0.448,1,1S52.552,42,52,42z"></path><path d="M46,46c-4.963,0-9,4.037-9,9h2c0-3.859,3.141-7,7-7s7,3.141,7,7h2C55,50.037,50.963,46,46,46z"></path><path d="M38,15h2c2.968,0,5.439,2.166,5.917,5H44c-0.404,0-0.77,0.243-0.924,0.617c-0.155,0.374-0.069,0.804,0.217,1.09l5,5   C48.488,26.902,48.744,27,49,27s0.512-0.098,0.707-0.293l5-5c0.286-0.286,0.372-0.716,0.217-1.09C54.77,20.243,54.404,20,54,20   h-2.041C51.449,13.85,46.28,9,40,9h-2c-0.553,0-1,0.447-1,1v4C37,14.553,37.447,15,38,15z M39,11h1c5.514,0,10,4.486,10,10   c0,0.553,0.447,1,1,1h0.586L49,24.586L46.414,22H47c0.553,0,1-0.447,1-1c0-4.411-3.589-8-8-8h-1V11z"></path><path d="M26,49h-2c-2.968,0-5.439-2.166-5.917-5H20c0.404,0,0.77-0.243,0.924-0.617c0.155-0.374,0.069-0.804-0.217-1.09l-5-5   c-0.391-0.391-1.023-0.391-1.414,0l-5,5c-0.286,0.286-0.372,0.716-0.217,1.09C9.23,43.757,9.596,44,10,44h2.041   C12.551,50.15,17.72,55,24,55h2c0.553,0,1-0.447,1-1v-4C27,49.447,26.553,49,26,49z M25,53h-1c-5.514,0-10-4.486-10-10   c0-0.553-0.447-1-1-1h-0.586L15,39.414L17.586,42H17c-0.553,0-1,0.447-1,1c0,4.411,3.589,8,8,8h1V53z"></path></g></svg>