<?xml version="1.0" standalone="no"?>
<!DOCTYPE svg PUBLIC "-//W3C//DTD SVG 20010904//EN"
 "http://www.w3.org/TR/2001/REC-SVG-20010904/DTD/svg10.dtd">
<svg version="1.0" xmlns="http://www.w3.org/2000/svg"
 width="536.000000pt" height="679.000000pt" viewBox="0 0 536.000000 679.000000"
 preserveAspectRatio="xMidYMid meet">
<metadata>
Created by potrace 1.15, written by Peter Selinger 2001-2017
</metadata>
<g transform="translate(0.000000,679.000000) scale(0.100000,-0.100000)"
fill="#000000" stroke="none">
<path d="M172 6771 c-61 -21 -104 -58 -135 -116 l-22 -40 0 -3215 0 -3215 22
-40 c25 -47 64 -85 113 -111 34 -18 115 -19 2540 -19 l2505 0 40 22 c47 25 86
65 109 110 15 29 16 309 16 3253 0 2944 -1 3224 -16 3253 -23 45 -62 85 -109
110 l-40 22 -2485 2 c-2389 2 -2487 2 -2538 -16z m5013 -166 l25 -24 0 -3185
0 -3185 -26 -20 -27 -21 -2469 0 -2469 0 -24 25 -25 24 0 3181 0 3181 25 24
24 25 2471 0 2471 0 24 -25z"/>
<path d="M2577 6229 c-10 -6 -187 -213 -393 -460 -245 -293 -379 -447 -387
-442 -7 3 -100 66 -207 138 -108 73 -205 135 -218 139 -29 9 -73 -12 -91 -45
-22 -40 -1 -81 63 -120 28 -18 116 -78 196 -133 80 -56 169 -116 198 -134 59
-36 109 -41 140 -14 17 15 730 869 790 946 30 39 28 72 -7 107 -31 30 -54 35
-84 18z"/>
<path d="M737 6146 c-20 -8 -45 -20 -54 -27 -42 -36 -43 -46 -43 -746 0 -635
1 -670 19 -710 38 -82 -3 -78 769 -81 777 -3 738 -7 774 76 25 56 19 108 -17
140 -14 12 -32 22 -40 22 -29 0 -64 -24 -76 -51 l-11 -29 -629 0 -629 0 0 630
0 630 444 0 c433 0 444 0 470 21 32 25 35 75 7 110 l-19 24 -464 2 c-369 2
-471 0 -501 -11z"/>
<path d="M3299 5510 c-382 -5 -408 -6 -428 -24 -30 -27 -28 -76 5 -107 l26
-24 776 -3 c786 -3 927 0 957 22 27 19 31 87 7 116 l-20 25 -459 0 c-252 1
-641 -2 -864 -5z"/>
<path d="M745 4175 c-48 -17 -80 -52 -94 -103 -16 -56 -14 -1336 2 -1381 7
-19 25 -44 40 -55 28 -21 34 -21 737 -21 703 0 709 0 737 21 15 11 33 36 40
55 14 41 18 1341 3 1403 -5 22 -20 51 -35 65 l-25 26 -683 2 c-570 2 -689 0
-722 -12z m1315 -775 l0 -630 -630 0 -630 0 0 630 0 630 630 0 630 0 0 -630z"/>
<path d="M2893 3550 c-55 -22 -65 -88 -21 -130 22 -20 32 -20 878 -20 l857 0
27 25 c33 30 33 65 2 102 l-24 28 -849 2 c-479 1 -858 -2 -870 -7z"/>
<path d="M723 2201 c-82 -38 -78 4 -78 -773 0 -678 0 -687 21 -714 11 -15 33
-37 48 -48 27 -21 36 -21 716 -21 680 0 689 0 716 21 15 11 37 33 48 48 21 27
21 36 21 714 0 655 -1 688 -19 718 -10 17 -33 40 -50 50 -29 18 -65 19 -706
21 -646 3 -677 2 -717 -16z m1337 -771 l0 -630 -630 0 -630 0 0 630 0 630 630
0 630 0 0 -630z"/>
<path d="M2893 1580 c-55 -22 -65 -88 -21 -130 22 -20 32 -20 878 -20 l857 0
27 25 c33 30 33 65 2 102 l-24 28 -849 2 c-479 1 -858 -2 -870 -7z"/>
</g>
</svg>
