<?xml version="1.0" standalone="no"?>
<!DOCTYPE svg PUBLIC "-//W3C//DTD SVG 20010904//EN"
 "http://www.w3.org/TR/2001/REC-SVG-20010904/DTD/svg10.dtd">
<svg version="1.0" xmlns="http://www.w3.org/2000/svg"
 width="313.000000pt" height="137.000000pt" viewBox="0 0 313.000000 137.000000"
 preserveAspectRatio="xMidYMid meet">
<metadata>
Created by potrace 1.15, written by Peter Selinger 2001-2017
</metadata>
<g transform="translate(0.000000,137.000000) scale(0.100000,-0.100000)"
fill="#000000" stroke="none">
<path d="M887 946 c-103 -29 -195 -117 -233 -223 l-19 -53 -111 0 c-122 0
-144 -10 -144 -62 0 -48 26 -58 146 -58 l109 0 19 -52 c70 -198 293 -292 481
-203 72 35 148 118 176 195 l22 60 767 0 c730 0 768 1 783 18 22 24 21 65 -1
85 -17 16 -86 17 -784 17 l-765 0 -22 60 c-29 78 -103 160 -178 195 -68 32
-174 42 -246 21z m218 -141 c104 -65 138 -200 77 -307 -68 -122 -227 -155
-339 -71 -88 65 -116 201 -60 295 30 51 79 94 124 108 15 5 56 8 89 7 48 -2
72 -9 109 -32z"/>
</g>
</svg>
