<svg height='100px' width='100px'  fill="#000000" xmlns="http://www.w3.org/2000/svg" xmlns:xlink="http://www.w3.org/1999/xlink" version="1.1" x="0px" y="0px" viewBox="0 0 64 64" enable-background="new 0 0 64 64" xml:space="preserve"><g><path fill="#000000" d="M54.775,25.982c-2.668-5.333-7.217-9.578-12.807-11.954c-2.247-0.955-4.599-1.565-6.977-1.86V9.235h1.911   c1.239,0,2.243-1.004,2.243-2.243V5.811c0-2.89-2.343-5.234-5.234-5.234h-3.821c-2.89,0-5.234,2.343-5.234,5.234v1.181   c0,1.239,1.004,2.243,2.243,2.243h1.828v2.887c-1.462,0.168-2.911,0.465-4.327,0.89l-0.002,0.001   c-1.006,0.302-2.003,0.672-2.963,1.099c-6.07,2.7-10.528,7.163-13.248,13.264c-1.114,2.498-1.779,5.047-1.976,7.576   c-0.076,0.969,0.446,2.278,1.45,2.79c0.769,0.393,1.708,0.333,2.33,0.146c0.253-0.076,0.487-0.179,0.694-0.307   c0.945-0.583,1.221-1.751,1.301-2.395c0.977-7.81,6.495-14.324,14.056-16.595c1.221-0.367,2.486-0.615,3.756-0.737   c5.325-0.509,10.522,1.104,14.632,4.542c4.125,3.45,6.641,8.304,7.083,13.667c0.712,8.634-4.516,17.063-12.431,20.04   c-0.533,0.201-1.069,0.382-1.594,0.54c-5.99,1.799-11.764,0.875-17.161-2.747c-1.012-0.679-1.928-1.446-2.79-2.338l3.285-1.004   c0.468-0.203,0.76-0.646,0.762-1.156c0.002-0.51-0.286-0.956-0.752-1.163L9.935,43.309c-0.418-0.185-0.867-0.215-1.298-0.085   c-0.864,0.259-1.426,1.098-1.335,1.992l1.222,12.079c0.039,0.384,0.235,0.711,0.551,0.922c0.511,0.341,1.21,0.299,1.676-0.234   l2.168-3.081c1.977,2.183,4.092,3.86,6.454,5.122c6.554,3.499,13.113,4.301,19.498,2.383c2.237-0.672,4.473-1.691,6.642-3.029   c5.52-3.403,9.492-8.674,11.183-14.844C58.377,38.405,57.694,31.816,54.775,25.982z"></path><path fill="#000000" d="M46.246,29.483c-0.17-0.15-0.375-0.173-0.646-0.086l-0.347,0.105c-0.293,0.09-0.557,0.178-0.803,0.269   c-2.758,1.02-5.934,2.199-9.12,3.409c-0.893-0.736-2.022-1.197-3.27-1.197c-2.854,0-5.167,2.314-5.167,5.167   s2.314,5.167,5.167,5.167s5.167-2.314,5.167-5.167c0-0.065-0.017-0.124-0.019-0.188c2.353-1.656,4.831-3.422,7.566-5.39   c0.366-0.265,0.697-0.561,1.017-0.849c0.147-0.132,0.289-0.26,0.464-0.411c0.104-0.099,0.17-0.258,0.168-0.426   C46.422,29.725,46.358,29.582,46.246,29.483z"></path></g></svg>