<svg width="36" height="36" viewBox="0 0 36 36" fill="none" xmlns="http://www.w3.org/2000/svg">
<path fill-rule="evenodd" clip-rule="evenodd" d="M18 8.17069C12.5254 8.43168 8.16699 12.9529 8.16699 18.4921C8.16699 21.2527 9.24955 23.7605 11.0133 25.6141L14.5209 21.7876C13.7794 20.8932 13.3337 19.7448 13.3337 18.4922C13.3337 15.8075 15.3813 13.6011 18 13.3494V8.17069ZM15.2309 22.493L11.7368 26.3047C13.5493 27.8752 15.9138 28.8255 18.5003 28.8255C24.0397 28.8255 28.561 24.4668 28.8218 18.992H23.6431C23.3917 21.611 21.1852 23.6588 18.5003 23.6588C17.2599 23.6588 16.1215 23.2217 15.2309 22.493ZM19 8.17065C24.3092 8.42343 28.5688 12.6829 28.8218 17.992H23.6431C23.4073 15.5377 21.4544 13.5849 19 13.3494V8.17065Z" fill="#17C1C1" fill-opacity="0.5"/>
<path fill-rule="evenodd" clip-rule="evenodd" d="M18 3C12.1359 3.18584 7.09361 6.62898 4.6228 11.5799L9.24502 13.891C10.8675 10.6336 14.1591 8.35363 18 8.17064V3ZM19 8.17064C24.3091 8.42357 28.5685 12.683 28.8214 17.9921H33.9921C33.7334 9.82911 27.163 3.25869 19 3V8.17064ZM18.5 28.8254C24.0393 28.8254 28.5606 24.4668 28.8214 18.9921H33.9921C33.7281 27.3211 26.8931 33.9921 18.5 33.9921C14.5676 33.9921 10.9773 32.5277 8.24454 30.1145L11.7367 26.3049C13.5492 27.8752 15.9136 28.8254 18.5 28.8254ZM11.0132 25.6143C9.24931 23.7607 8.16667 21.2528 8.16667 18.4921C8.16667 17.1942 8.40594 15.9523 8.84277 14.8079L4.20527 12.4891C3.42901 14.3354 3 16.3637 3 18.4921C3 22.7604 4.72528 26.6258 7.51651 29.4289L11.0132 25.6143Z" fill="#17C1C1"/>
</svg>
