<svg width="30" height="19" viewBox="0 0 30 19" fill="none" xmlns="http://www.w3.org/2000/svg">
<path d="M1.52046 5.7983C2.2971 5.7983 2.92671 5.16868 2.92671 4.39205C2.92671 3.61541 2.2971 2.9858 1.52046 2.9858C0.74383 2.9858 0.114213 3.61541 0.114213 4.39205C0.114213 5.16868 0.74383 5.7983 1.52046 5.7983ZM8.98717 7H12.9407V6.14986H9.97474V0.454545H8.98717V7ZM14.1218 7H15.0774V2.09091H14.1218V7ZM14.6044 1.33345C14.9336 1.33345 15.2084 1.07777 15.2084 0.764559C15.2084 0.451349 14.9336 0.192471 14.6044 0.192471C14.272 0.192471 14.0003 0.451349 14.0003 0.764559C14.0003 1.07777 14.272 1.33345 14.6044 1.33345ZM20.1729 3.28942C19.9747 2.52557 19.3771 2.02699 18.316 2.02699C17.207 2.02699 16.4207 2.61186 16.4207 3.48118C16.4207 4.17791 16.8426 4.64134 17.7631 4.84588L18.594 5.02805C19.0671 5.13352 19.2876 5.34446 19.2876 5.65128C19.2876 6.03161 18.8817 6.32884 18.2553 6.32884C17.6832 6.32884 17.3156 6.08274 17.2006 5.60014L16.2769 5.74077C16.4367 6.61009 17.159 7.09908 18.2617 7.09908C19.4474 7.09908 20.2688 6.46946 20.2688 5.58097C20.2688 4.88743 19.8277 4.45916 18.9264 4.25142L18.1466 4.07244C17.6065 3.9446 17.3732 3.76243 17.3764 3.43004C17.3732 3.05291 17.7823 2.78445 18.3256 2.78445C18.92 2.78445 19.1949 3.11364 19.3068 3.44283L20.1729 3.28942ZM23.7422 2.09091H22.7355V0.914773H21.7799V2.09091H21.0608V2.85795H21.7799V5.75675C21.7767 6.64844 22.4574 7.0799 23.2117 7.06392C23.5153 7.06072 23.7199 7.0032 23.8317 6.96165L23.6592 6.17223C23.5952 6.18501 23.477 6.21378 23.3236 6.21378C23.0136 6.21378 22.7355 6.11151 22.7355 5.55859V2.85795H23.7422V2.09091ZM27.4011 0.454545H26.4391L24.8059 1.52202V2.46804L26.372 1.44531H26.4103V7H27.4011V0.454545ZM1.52046 16.7983C2.2971 16.7983 2.92671 16.1687 2.92671 15.392C2.92671 14.6154 2.2971 13.9858 1.52046 13.9858C0.74383 13.9858 0.114213 14.6154 0.114213 15.392C0.114213 16.1687 0.74383 16.7983 1.52046 16.7983ZM8.98717 18H12.9407V17.1499H9.97474V11.4545H8.98717V18ZM14.1218 18H15.0774V13.0909H14.1218V18ZM14.6044 12.3335C14.9336 12.3335 15.2084 12.0778 15.2084 11.7646C15.2084 11.4513 14.9336 11.1925 14.6044 11.1925C14.272 11.1925 14.0003 11.4513 14.0003 11.7646C14.0003 12.0778 14.272 12.3335 14.6044 12.3335ZM20.1729 14.2894C19.9747 13.5256 19.3771 13.027 18.316 13.027C17.207 13.027 16.4207 13.6119 16.4207 14.4812C16.4207 15.1779 16.8426 15.6413 17.7631 15.8459L18.594 16.0281C19.0671 16.1335 19.2876 16.3445 19.2876 16.6513C19.2876 17.0316 18.8817 17.3288 18.2553 17.3288C17.6832 17.3288 17.3156 17.0827 17.2006 16.6001L16.2769 16.7408C16.4367 17.6101 17.159 18.0991 18.2617 18.0991C19.4474 18.0991 20.2688 17.4695 20.2688 16.581C20.2688 15.8874 19.8277 15.4592 18.9264 15.2514L18.1466 15.0724C17.6065 14.9446 17.3732 14.7624 17.3764 14.43C17.3732 14.0529 17.7823 13.7844 18.3256 13.7844C18.92 13.7844 19.1949 14.1136 19.3068 14.4428L20.1729 14.2894ZM23.7422 13.0909H22.7355V11.9148H21.7799V13.0909H21.0608V13.858H21.7799V16.7567C21.7767 17.6484 22.4574 18.0799 23.2117 18.0639C23.5153 18.0607 23.7199 18.0032 23.8317 17.9616L23.6592 17.1722C23.5952 17.185 23.477 17.2138 23.3236 17.2138C23.0136 17.2138 22.7355 17.1115 22.7355 16.5586V13.858H23.7422V13.0909ZM24.9178 18H29.226V17.1531H26.2793V17.1051L27.5801 15.7436C28.7786 14.5323 29.1206 13.9538 29.1206 13.2219C29.1206 12.1705 28.264 11.3651 27.0304 11.3651C25.8063 11.3651 24.9114 12.1577 24.9114 13.353H25.8542C25.851 12.6499 26.3049 12.1896 27.0112 12.1896C27.676 12.1896 28.1809 12.5987 28.1809 13.2507C28.1809 13.8292 27.8358 14.2447 27.1326 14.9893L24.9178 17.2841V18Z" fill="black"/>
</svg>
