<svg xmlns="http://www.w3.org/2000/svg" xmlns:xlink="http://www.w3.org/1999/xlink" version="1.1" id="Layer_1" x="0px" y="0px" viewBox="0 0 1792 1792" style="enable-background:new 0 0 1792 1792;" xml:space="preserve">
<style xmlns="http://www.w3.org/2000/svg" type="text/css">
	.st0{fill:#5E61E3;}
	.st1{fill:#F9A825;}
	.st2{fill:#F9A825;}
</style>
<path class="st0" d="M1596,380c18.7,18.7,34.7,44,48,76s20,61.3,20,88v1152c0,26.7-9.3,49.3-28,68s-41.3,28-68,28H224  c-26.7,0-49.3-9.3-68-28s-28-41.3-28-68V96c0-26.7,9.3-49.3,28-68s41.3-28,68-28h896c26.7,0,56,6.7,88,20s57.3,29.3,76,48L1596,380z   M1152,136v376h376c-6.7-19.3-14-33-22-41l-313-313C1185,150,1171.3,142.7,1152,136z M1536,1664V640h-416c-26.7,0-49.3-9.3-68-28  s-28-41.3-28-68V128H256v1536H1536z"/>
<path class="st1" d="M884,954.8H359.9c-6.6,0-12-5.4-12-12V791.6c0-6.6,5.4-12,12-12H884c6.6,0,12,5.4,12,12v151.2  C896,949.4,890.6,954.8,884,954.8z"/>
<path class="st1" d="M1140,1248.8H359.9c-6.6,0-12-5.4-12-12v-151.2c0-6.6,5.4-12,12-12H1140c6.6,0,12,5.4,12,12v151.2  C1152,1243.4,1146.6,1248.8,1140,1248.8z"/>
<path class="st1" d="M1328,1554.9H359.9c-6.6,0-12-5.4-12-12v-151.2c0-6.6,5.4-12,12-12H1328c6.6,0,12,5.4,12,12v151.2  C1340,1549.5,1334.6,1554.9,1328,1554.9z"/>
<path class="st2" d="M812.6,599.6H354.8c-6.6,0-12-5.4-12-12V436.4c0-6.6,5.4-12,12-12h457.8c6.6,0,12,5.4,12,12v151.2  C824.6,594.2,819.2,599.6,812.6,599.6z"/>
</svg> 