<svg xmlns="http://www.w3.org/2000/svg" xmlns:xlink="http://www.w3.org/1999/xlink" version="1.1" x="0px" y="0px" viewBox="0 0 110 110" enable-background="new 0 0 110 110" xml:space="preserve"><g><rect x="34.601" y="40.902" fill="none" width="15.287" height="8.195"></rect><rect x="60.113" y="79.568" fill="none" width="15.286" height="8.195"></rect><rect x="60.113" y="60.568" fill="none" width="15.286" height="8.195"></rect><rect x="34.601" y="60.568" fill="none" width="15.287" height="8.195"></rect><rect x="9.088" y="79.568" fill="none" width="15.287" height="8.195"></rect><rect x="9.088" y="40.902" fill="none" width="15.287" height="8.195"></rect><rect x="34.601" y="79.568" fill="none" width="15.287" height="8.195"></rect><rect x="60.113" y="40.902" fill="none" width="15.286" height="8.195"></rect><rect x="9.088" y="60.568" fill="none" width="15.287" height="8.195"></rect><rect x="85.625" y="79.568" fill="none" width="15.287" height="8.195"></rect><rect x="85.625" y="60.568" fill="none" width="15.287" height="8.195"></rect><rect x="85.625" y="40.902" fill="none" width="15.287" height="8.195"></rect><rect x="6.088" y="19.236" width="21.287" height="14.195"></rect><rect x="31.601" y="19.236" width="21.287" height="14.195"></rect><rect x="57.113" y="19.236" width="21.286" height="14.195"></rect><rect x="82.625" y="19.236" width="21.287" height="14.195"></rect><path d="M6.088,52.097h21.287V37.902H6.088V52.097z M9.088,40.902h15.287v8.195H9.088V40.902z"></path><path d="M31.601,52.097h21.287V37.902H31.601V52.097z M34.601,40.902h15.287v8.195H34.601V40.902z"></path><path d="M57.113,52.097h21.286V37.902H57.113V52.097z M60.113,40.902h15.286v8.195H60.113V40.902z"></path><path d="M82.625,52.097h21.287V37.902H82.625V52.097z M85.625,40.902h15.287v8.195H85.625V40.902z"></path><path d="M6.088,71.764h21.287V57.568H6.088V71.764z M9.088,60.568h15.287v8.195H9.088V60.568z"></path><path d="M31.601,71.764h21.287V57.568H31.601V71.764z M34.601,60.568h15.287v8.195H34.601V60.568z"></path><path d="M57.113,71.764h21.286V57.568H57.113V71.764z M60.113,60.568h15.286v8.195H60.113V60.568z"></path><path d="M82.625,71.764h21.287V57.568H82.625V71.764z M85.625,60.568h15.287v8.195H85.625V60.568z"></path><path d="M6.088,90.764h21.287V76.568H6.088V90.764z M9.088,79.568h15.287v8.195H9.088V79.568z"></path><path d="M31.601,90.764h21.287V76.568H31.601V90.764z M34.601,79.568h15.287v8.195H34.601V79.568z"></path><path d="M57.113,90.764h21.286V76.568H57.113V90.764z M60.113,79.568h15.286v8.195H60.113V79.568z"></path><path d="M82.625,90.764h21.287V76.568H82.625V90.764z M85.625,79.568h15.287v8.195H85.625V79.568z"></path></g></svg>