<?xml version="1.0" encoding="UTF-8" standalone="no"?>
<!DOCTYPE svg PUBLIC "-//W3C//DTD SVG 1.1//EN" "http://www.w3.org/Graphics/SVG/1.1/DTD/svg11.dtd">
<svg version="1.1" xmlns="http://www.w3.org/2000/svg" xmlns:xlink="http://www.w3.org/1999/xlink" preserveAspectRatio="xMidYMid meet" viewBox="0 0 640 640" width="1000" height="1000"><defs><path d="M356.3 5.04L368.55 6.29L380.65 8.01L392.6 10.21L404.38 12.87L415.99 15.98L427.41 19.53L438.64 23.51L449.67 27.91L460.48 32.72L471.07 37.94L481.42 43.55L491.53 49.53L501.39 55.89L510.98 62.62L520.3 69.69L529.33 77.11L538.07 84.85L546.51 92.92L554.63 101.3L562.43 109.99L569.89 118.96L577.01 128.22L583.77 137.75L590.17 147.54L596.2 157.59L601.84 167.88L607.09 178.4L611.94 189.14L616.37 200.1L620.37 211.26L623.95 222.61L627.08 234.14L629.75 245.85L631.96 257.72L633.7 269.74L634.95 281.91L635.71 294.21L635.97 306.64L635.71 319.06L634.95 331.36L633.7 343.53L631.96 355.55L629.75 367.42L627.08 379.13L623.95 390.67L620.37 402.02L616.37 413.18L611.94 424.13L607.09 434.87L601.84 445.4L596.2 455.68L590.17 465.73L583.77 475.52L577.01 485.05L569.89 494.31L562.43 503.29L554.63 511.97L546.51 520.35L538.07 528.42L529.33 536.17L520.3 543.58L510.98 550.66L501.39 557.38L491.53 563.74L481.42 569.73L471.07 575.33L460.48 580.55L449.67 585.36L438.64 589.77L427.41 593.75L415.99 597.3L404.38 600.41L392.6 603.06L380.65 605.26L368.55 606.99L356.3 608.23L343.92 608.99L331.42 609.24L328.91 609.23L326.41 609.21L323.91 609.16L321.42 609.1L318.93 609.02L316.45 608.93L313.97 608.82L311.5 608.68L309.04 608.53L306.58 608.37L304.13 608.18L301.68 607.97L299.24 607.75L296.8 607.51L294.38 607.25L291.95 606.96L289.53 606.66L287.12 606.34L284.71 606.01L282.31 605.65L279.92 605.27L277.53 604.87L275.14 604.45L272.76 604.01L270.39 603.55L268.03 603.07L265.66 602.57L263.31 602.05L260.96 601.51L258.61 600.94L256.28 600.36L253.94 599.75L251.62 599.12L249.3 598.47L246.98 597.8L244.67 597.11L242.37 596.39L240.07 595.65L237.78 594.89L235.49 594.11L233.64 595.8L231.77 597.46L229.85 599.09L227.91 600.68L225.94 602.25L223.93 603.79L221.89 605.29L219.82 606.76L217.72 608.19L215.6 609.59L213.44 610.96L211.26 612.29L209.05 613.58L206.81 614.84L204.55 616.05L202.26 617.23L199.94 618.37L197.6 619.46L195.24 620.52L192.85 621.53L190.44 622.5L188.01 623.43L185.56 624.32L183.08 625.16L180.59 625.95L178.07 626.7L175.54 627.4L172.98 628.05L170.41 628.66L167.82 629.22L165.21 629.72L162.59 630.18L159.95 630.59L157.3 630.94L154.63 631.24L151.94 631.49L149.25 631.68L146.54 631.82L143.81 631.91L141.08 631.94L135.4 631.82L129.78 631.49L124.22 630.93L118.74 630.17L113.33 629.19L108 628L102.75 626.62L97.59 625.04L92.52 623.26L87.54 621.3L82.67 619.15L77.9 616.82L73.24 614.32L68.69 611.64L64.26 608.8L59.95 605.79L55.76 602.63L51.71 599.31L47.79 595.84L44 592.22L40.36 588.46L36.87 584.56L33.53 580.54L30.35 576.38L27.32 572.09L24.46 567.69L21.76 563.17L19.24 558.54L16.9 553.8L14.74 548.96L12.76 544.01L10.98 538.98L9.38 533.85L7.99 528.63L6.8 523.33L5.81 517.96L5.04 512.51L4.48 506.99L4.15 501.41L4.03 495.76L4.06 493.05L4.13 490.34L4.26 487.65L4.44 484.97L4.67 482.3L4.95 479.65L5.28 477.01L5.65 474.39L6.08 471.78L6.55 469.19L7.08 466.62L7.65 464.06L8.27 461.53L8.94 459.01L9.65 456.51L10.42 454.03L11.22 451.57L12.08 449.13L12.98 446.72L13.93 444.32L14.92 441.95L15.96 439.6L17.05 437.28L18.18 434.98L19.35 432.7L20.57 430.45L21.83 428.23L23.13 426.03L24.48 423.86L25.87 421.72L27.31 419.61L28.79 417.52L30.31 415.47L31.87 413.44L33.47 411.45L35.11 409.49L36.8 407.55L38.53 405.66L40.29 403.79L42.1 401.96L41.31 399.68L40.55 397.4L39.8 395.1L39.08 392.79L38.39 390.48L37.71 388.15L37.06 385.82L36.42 383.47L35.81 381.12L35.22 378.76L34.66 376.4L34.11 374.03L33.59 371.65L33.08 369.27L32.6 366.88L32.14 364.48L31.69 362.08L31.27 359.68L30.87 357.27L30.49 354.86L30.13 352.45L29.79 350.04L29.47 347.62L29.16 345.2L28.88 342.78L28.62 340.36L28.37 337.94L28.15 335.52L27.94 333.1L27.75 330.68L27.58 328.26L27.43 325.85L27.3 323.43L27.19 321.02L27.09 318.61L27.01 316.21L26.95 313.81L26.91 311.41L26.88 309.02L26.87 306.64L27.13 294.21L27.89 281.91L29.14 269.74L30.88 257.72L33.09 245.85L35.76 234.14L38.89 222.61L42.47 211.26L46.47 200.1L50.9 189.14L55.75 178.4L61 167.88L66.64 157.59L72.67 147.54L79.07 137.75L85.83 128.22L92.95 118.96L100.42 109.99L108.21 101.3L116.33 92.92L124.77 84.85L133.51 77.11L142.54 69.69L151.86 62.62L161.45 55.89L171.31 49.53L181.42 43.55L191.77 37.94L202.36 32.72L213.17 27.91L224.2 23.51L235.43 19.53L246.85 15.98L258.46 12.87L270.24 10.21L282.19 8.01L294.29 6.29L306.54 5.04L318.92 4.29L331.42 4.03L343.92 4.29L356.3 5.04ZM139.73 435.29L139.08 435.34L138.43 435.42L137.8 435.52L137.18 435.64L136.58 435.78L135.99 435.94L135.41 436.13L134.84 436.33L134.3 436.55L133.76 436.8L133.24 437.06L132.74 437.34L132.25 437.64L131.77 437.95L131.31 438.29L130.87 438.64L130.45 439.02L130.04 439.4L129.65 439.81L129.27 440.23L128.92 440.67L128.58 441.13L128.26 441.6L127.96 442.08L127.68 442.58L127.41 443.1L127.17 443.63L126.95 444.18L126.74 444.74L126.56 445.31L126.39 445.9L126.25 446.5L126.13 447.12L126.03 447.74L125.95 448.38L125.9 449.03L125.86 449.7L125.85 450.37L125.85 480.63L95.4 480.63L94.72 480.64L94.05 480.68L93.39 480.73L92.75 480.81L92.12 480.91L91.5 481.03L90.9 481.17L90.3 481.34L89.73 481.52L89.16 481.72L88.61 481.94L88.08 482.19L87.56 482.45L87.05 482.73L86.56 483.03L86.09 483.34L85.63 483.68L85.19 484.03L84.76 484.41L84.36 484.79L83.97 485.2L83.59 485.62L83.24 486.06L82.9 486.52L82.58 486.99L82.28 487.47L81.99 487.98L81.73 488.49L81.49 489.02L81.26 489.57L81.06 490.13L80.88 490.7L80.71 491.29L80.57 491.89L80.45 492.51L80.35 493.13L80.27 493.77L80.21 494.43L80.18 495.09L80.17 495.76L80.18 496.44L80.21 497.1L80.27 497.75L80.35 498.39L80.45 499.02L80.57 499.63L80.71 500.24L80.88 500.82L81.06 501.4L81.26 501.96L81.49 502.5L81.73 503.04L81.99 503.55L82.28 504.05L82.58 504.54L82.9 505.01L83.24 505.47L83.59 505.91L83.97 506.33L84.36 506.73L84.76 507.12L85.19 507.49L85.63 507.85L86.09 508.18L86.56 508.5L87.05 508.8L87.56 509.08L88.08 509.34L88.61 509.58L89.16 509.81L89.73 510.01L90.3 510.19L90.9 510.35L91.5 510.5L92.12 510.62L92.75 510.72L93.39 510.79L94.05 510.85L94.72 510.88L95.4 510.89L125.85 510.89L125.85 541.15L125.86 541.83L125.9 542.49L125.95 543.14L126.03 543.78L126.13 544.41L126.25 545.02L126.39 545.63L126.56 546.21L126.74 546.79L126.95 547.35L127.17 547.89L127.41 548.43L127.68 548.94L127.96 549.44L128.26 549.93L128.58 550.4L128.92 550.86L129.27 551.3L129.65 551.72L130.04 552.12L130.45 552.51L130.87 552.88L131.31 553.24L131.77 553.57L132.25 553.89L132.74 554.19L133.24 554.47L133.76 554.73L134.3 554.97L134.84 555.2L135.41 555.4L135.99 555.58L136.58 555.74L137.18 555.89L137.8 556.01L138.43 556.11L139.08 556.18L139.73 556.24L140.4 556.27L141.08 556.28L141.76 556.27L142.43 556.24L143.08 556.18L143.73 556.11L144.36 556.01L144.97 555.89L145.58 555.74L146.17 555.58L146.75 555.4L147.31 555.2L147.86 554.97L148.4 554.73L148.92 554.47L149.42 554.19L149.91 553.89L150.39 553.57L150.84 553.24L151.29 552.88L151.71 552.51L152.12 552.12L152.51 551.72L152.88 551.3L153.24 550.86L153.58 550.4L153.9 549.93L154.2 549.44L154.48 548.94L154.74 548.43L154.99 547.89L155.21 547.35L155.42 546.79L155.6 546.21L155.76 545.63L155.91 545.02L156.03 544.41L156.13 543.78L156.2 543.14L156.26 542.49L156.29 541.83L156.31 541.15L156.31 510.89L186.76 510.89L187.44 510.88L188.11 510.85L188.76 510.79L189.41 510.72L190.04 510.62L190.66 510.5L191.26 510.35L191.85 510.19L192.43 510.01L192.99 509.81L193.54 509.58L194.08 509.34L194.6 509.08L195.1 508.8L195.59 508.5L196.07 508.18L196.53 507.85L196.97 507.49L197.39 507.12L197.8 506.73L198.19 506.33L198.57 505.91L198.92 505.47L199.26 505.01L199.58 504.54L199.88 504.05L200.16 503.55L200.43 503.04L200.67 502.5L200.89 501.96L201.1 501.4L201.28 500.82L201.44 500.24L201.59 499.63L201.71 499.02L201.81 498.39L201.89 497.75L201.94 497.1L201.98 496.44L201.99 495.76L201.98 495.09L201.94 494.43L201.89 493.77L201.81 493.13L201.71 492.51L201.59 491.89L201.44 491.29L201.28 490.7L201.1 490.13L200.89 489.57L200.67 489.02L200.43 488.49L200.16 487.98L199.88 487.47L199.58 486.99L199.26 486.52L198.92 486.06L198.57 485.62L198.19 485.2L197.8 484.79L197.39 484.41L196.97 484.03L196.53 483.68L196.07 483.34L195.59 483.03L195.1 482.73L194.6 482.45L194.08 482.19L193.54 481.94L192.99 481.72L192.43 481.52L191.85 481.34L191.26 481.17L190.66 481.03L190.04 480.91L189.41 480.81L188.76 480.73L188.11 480.68L187.44 480.64L186.76 480.63L156.31 480.63L156.31 450.37L156.29 449.7L156.26 449.03L156.2 448.38L156.13 447.74L156.03 447.12L155.91 446.5L155.76 445.9L155.6 445.31L155.42 444.74L155.21 444.18L154.99 443.63L154.74 443.1L154.48 442.58L154.2 442.08L153.9 441.6L153.58 441.13L153.24 440.67L152.88 440.23L152.51 439.81L152.12 439.4L151.71 439.02L151.29 438.64L150.84 438.29L150.39 437.95L149.91 437.64L149.42 437.34L148.92 437.06L148.4 436.8L147.86 436.55L147.31 436.33L146.75 436.13L146.17 435.94L145.58 435.78L144.97 435.64L144.36 435.52L143.73 435.42L143.08 435.34L142.43 435.29L141.76 435.25L141.08 435.24L140.4 435.25L139.73 435.29ZM311.51 65.36L301.72 66.36L292.04 67.74L282.48 69.49L273.05 71.62L263.77 74.11L254.63 76.95L245.64 80.13L236.82 83.65L228.17 87.51L219.7 91.68L211.42 96.16L203.33 100.95L195.44 106.04L187.77 111.42L180.32 117.08L173.09 123.01L166.1 129.21L159.35 135.66L152.85 142.37L146.62 149.32L140.65 156.5L134.95 163.9L129.54 171.53L124.42 179.36L119.6 187.4L115.08 195.63L110.88 204.05L107.01 212.64L103.46 221.4L100.26 230.33L97.4 239.41L94.9 248.64L92.76 258.01L90.99 267.5L89.6 277.12L88.59 286.86L87.99 296.7L87.78 306.64L87.79 308.11L87.81 309.6L87.83 311.09L87.87 312.58L87.92 314.08L87.98 315.58L88.05 317.09L88.14 318.6L88.23 320.11L88.33 321.62L88.44 323.14L88.56 324.67L88.7 326.19L88.84 327.72L88.99 329.24L89.15 330.77L89.32 332.3L89.49 333.83L89.68 335.36L89.88 336.9L90.08 338.43L90.29 339.96L90.51 341.49L90.74 343.02L90.98 344.55L91.22 346.08L91.48 347.6L91.74 349.13L92 350.65L92.28 352.17L92.56 353.68L92.85 355.2L93.15 356.71L93.45 358.21L93.76 359.72L94.07 361.21L94.39 362.71L94.72 364.2L95.06 365.68L95.4 367.16L96.43 366.82L97.47 366.49L98.53 366.16L99.59 365.84L100.67 365.53L101.75 365.22L102.85 364.92L103.95 364.63L105.06 364.34L106.17 364.06L107.3 363.79L108.43 363.52L109.57 363.26L110.71 363.01L111.86 362.77L113.01 362.53L114.17 362.31L115.33 362.09L116.5 361.88L117.67 361.67L118.84 361.48L120.01 361.29L121.19 361.12L122.37 360.95L123.55 360.79L124.73 360.64L125.91 360.5L127.09 360.37L128.27 360.25L129.44 360.14L130.62 360.03L131.8 359.94L132.97 359.86L134.14 359.79L135.31 359.73L136.47 359.68L137.63 359.64L138.78 359.61L139.93 359.6L141.08 359.59L146.76 359.7L152.38 360.04L157.93 360.59L163.42 361.36L168.83 362.34L174.16 363.52L179.41 364.91L184.57 366.49L189.64 368.27L194.61 370.23L199.49 372.38L204.26 374.71L208.92 377.21L213.47 379.89L217.9 382.73L222.21 385.74L226.39 388.9L230.45 392.22L234.37 395.69L238.15 399.31L241.79 403.07L245.29 406.96L248.63 410.99L251.81 415.15L254.84 419.43L257.7 423.84L260.39 428.36L262.91 432.99L265.26 437.73L267.42 442.57L269.39 447.51L271.18 452.55L272.77 457.68L274.17 462.9L275.36 468.19L276.34 473.57L277.12 479.02L277.67 484.54L278.01 490.12L278.12 495.76L278.12 497.01L278.1 498.25L278.07 499.48L278.03 500.71L277.98 501.93L277.92 503.15L277.85 504.36L277.77 505.57L277.68 506.77L277.58 507.96L277.47 509.15L277.34 510.33L277.21 511.51L277.07 512.68L276.92 513.85L276.76 515.01L276.59 516.16L276.41 517.31L276.23 518.46L276.03 519.59L275.83 520.73L275.61 521.85L275.39 522.97L275.16 524.09L274.93 525.2L274.68 526.3L274.43 527.4L274.17 528.49L273.9 529.58L273.63 530.66L273.35 531.73L273.06 532.8L272.76 533.87L272.46 534.92L272.15 535.98L271.83 537.02L271.51 538.06L271.18 539.1L270.85 540.13L270.51 541.15L272 541.49L273.48 541.82L274.97 542.15L276.45 542.47L277.94 542.78L279.42 543.09L280.91 543.39L282.4 543.68L283.89 543.97L285.38 544.25L286.87 544.52L288.37 544.79L289.86 545.05L291.36 545.3L292.86 545.54L294.36 545.78L295.87 546.01L297.37 546.22L298.88 546.44L300.39 546.64L301.91 546.83L303.43 547.02L304.95 547.2L306.47 547.36L308 547.52L309.53 547.67L311.07 547.81L312.6 547.94L314.15 548.06L315.69 548.18L317.24 548.28L318.8 548.37L320.36 548.45L321.92 548.52L323.49 548.58L325.07 548.63L326.65 548.67L328.23 548.7L329.82 548.71L331.42 548.72L341.42 548.52L351.33 547.91L361.12 546.92L370.8 545.54L380.36 543.78L389.79 541.65L399.08 539.16L408.22 536.32L417.2 533.14L426.02 529.62L434.67 525.77L443.14 521.59L451.42 517.11L459.51 512.32L467.4 507.23L475.07 501.85L482.52 496.19L489.75 490.26L496.74 484.06L503.49 477.61L509.99 470.9L516.22 463.96L522.19 456.77L527.89 449.37L533.3 441.74L538.42 433.91L543.24 425.87L547.76 417.64L551.96 409.23L555.83 400.63L559.38 391.87L562.58 382.94L565.44 373.86L567.95 364.63L570.09 355.27L571.85 345.77L573.24 336.15L574.25 326.42L574.85 316.58L575.06 306.64L574.85 296.7L574.25 286.86L573.24 277.12L571.85 267.5L570.09 258.01L567.95 248.64L565.44 239.41L562.58 230.33L559.38 221.4L555.83 212.64L551.96 204.05L547.76 195.63L543.24 187.4L538.42 179.36L533.3 171.53L527.89 163.9L522.19 156.5L516.22 149.32L509.99 142.37L503.49 135.66L496.74 129.21L489.75 123.01L482.52 117.08L475.07 111.42L467.4 106.04L459.51 100.95L451.42 96.16L443.14 91.68L434.67 87.51L426.02 83.65L417.2 80.13L408.22 76.95L399.08 74.11L389.79 71.62L380.36 69.49L370.8 67.74L361.12 66.36L351.33 65.36L341.42 64.76L331.42 64.55L321.42 64.76L311.51 65.36Z" id="a2IcbxOXs0"></path><path d="M341.14 112.85C347.8 112.85 353.2 118.25 353.2 124.91C353.2 167.71 353.2 284.03 353.2 326.83C353.2 333.49 347.8 338.89 341.14 338.89C334.55 338.89 326.85 338.89 320.26 338.89C313.6 338.89 308.2 333.49 308.2 326.83C308.2 284.03 308.2 167.71 308.2 124.91C308.2 118.25 313.6 112.85 320.26 112.85C326.85 112.85 334.55 112.85 341.14 112.85Z" id="eIGIILDI"></path><path d="M313.2 327.5C313.18 333.53 318.07 338.44 324.1 338.45C362.63 338.54 467.3 338.8 505.84 338.89C511.87 338.9 516.78 334.02 516.79 327.98C516.81 321.17 516.83 311.66 516.85 304.84C516.86 298.81 511.98 293.9 505.95 293.89C467.41 293.8 362.74 293.55 324.21 293.45C318.17 293.44 313.27 298.32 313.25 304.36C313.24 311.17 313.22 320.68 313.2 327.5Z" id="bIUuNESSq"></path></defs><g><g><g><use xlink:href="#a2IcbxOXs0" opacity="1" fill="#1a1a1a" fill-opacity="1"></use><g><use xlink:href="#a2IcbxOXs0" opacity="1" fill-opacity="0" stroke="#000000" stroke-width="17" stroke-opacity="0"></use></g></g><g><use xlink:href="#eIGIILDI" opacity="1" fill="#000000" fill-opacity="1"></use></g><g><use xlink:href="#bIUuNESSq" opacity="1" fill="#000000" fill-opacity="1"></use></g></g></g></svg>