<?xml version="1.0" encoding="UTF-8" standalone="no"?>
<!DOCTYPE svg PUBLIC "-//W3C//DTD SVG 1.1//EN" "http://www.w3.org/Graphics/SVG/1.1/DTD/svg11.dtd">
<svg version="1.1" xmlns="http://www.w3.org/2000/svg" xmlns:xlink="http://www.w3.org/1999/xlink" preserveAspectRatio="xMidYMid meet" viewBox="0 0 640 640" width="1000" height="1000"><defs><path d="M341.14 112.85C347.8 112.85 353.2 118.25 353.2 124.91C353.2 167.71 353.2 284.03 353.2 326.83C353.2 333.49 347.8 338.89 341.14 338.89C334.55 338.89 326.85 338.89 320.26 338.89C313.6 338.89 308.2 333.49 308.2 326.83C308.2 284.03 308.2 167.71 308.2 124.91C308.2 118.25 313.6 112.85 320.26 112.85C326.85 112.85 334.55 112.85 341.14 112.85Z" id="i502kPBxFD"></path><path d="M313.2 327.5C313.18 333.53 318.07 338.44 324.1 338.45C362.63 338.54 467.3 338.8 505.84 338.89C511.87 338.9 516.78 334.02 516.79 327.98C516.81 321.17 516.83 311.66 516.85 304.84C516.86 298.81 511.98 293.9 505.95 293.89C467.41 293.8 362.74 293.55 324.21 293.45C318.17 293.44 313.27 298.32 313.25 304.36C313.24 311.17 313.22 320.68 313.2 327.5Z" id="b6qFqIaUSR"></path><path d="M358.2 8.64L370.41 9.9L382.48 11.63L394.4 13.85L406.15 16.52L417.73 19.66L429.12 23.23L440.32 27.24L451.32 31.67L462.1 36.52L472.66 41.78L482.99 47.42L493.07 53.45L502.9 59.86L512.46 66.63L521.76 73.75L530.77 81.22L539.48 89.02L547.9 97.15L556 105.59L563.77 114.34L571.22 123.38L578.32 132.7L585.06 142.3L591.45 152.16L597.46 162.28L603.08 172.64L608.32 183.23L613.15 194.05L617.57 205.09L621.57 216.33L625.13 227.76L628.25 239.37L630.92 251.17L633.12 263.12L634.86 275.23L636.11 287.48L636.86 299.87L637.12 312.39L636.86 324.9L636.11 337.29L634.86 349.54L633.12 361.65L630.92 373.6L628.25 385.4L625.13 397.01L621.57 408.44L617.57 419.68L613.15 430.72L608.32 441.54L603.08 452.13L597.46 462.49L591.45 472.61L585.06 482.47L578.32 492.07L571.22 501.39L563.77 510.43L556 519.18L547.9 527.62L539.48 535.75L530.77 543.55L521.76 551.02L512.46 558.14L502.9 564.91L493.07 571.32L482.99 577.35L472.66 583L462.1 588.25L451.32 593.1L440.32 597.53L429.12 601.54L417.73 605.11L406.15 608.25L394.4 610.92L382.48 613.14L370.41 614.87L358.2 616.13L345.85 616.89L333.38 617.14L330.88 617.13L328.38 617.11L325.89 617.07L323.4 617L320.92 616.93L318.45 616.83L315.98 616.71L313.52 616.58L311.06 616.43L308.61 616.26L306.16 616.07L303.72 615.87L301.29 615.64L298.86 615.4L296.43 615.13L294.02 614.85L291.61 614.55L289.2 614.23L286.8 613.89L284.4 613.52L282.01 613.14L279.63 612.74L277.25 612.32L274.88 611.88L272.52 611.41L270.16 610.93L267.8 610.43L265.45 609.9L263.11 609.35L260.77 608.79L258.44 608.2L256.11 607.59L253.79 606.95L251.48 606.3L249.17 605.62L246.86 604.92L244.56 604.2L242.27 603.46L239.99 602.69L237.7 601.91L235.87 603.61L233.99 605.28L232.09 606.92L230.15 608.53L228.18 610.1L226.18 611.65L224.14 613.16L222.08 614.64L219.99 616.09L217.87 617.5L215.72 618.88L213.54 620.21L211.33 621.51L209.1 622.78L206.84 624L204.56 625.19L202.25 626.33L199.92 627.44L197.56 628.5L195.18 629.52L192.78 630.5L190.35 631.44L187.91 632.33L185.44 633.17L182.95 633.97L180.44 634.73L177.91 635.43L175.37 636.09L172.8 636.7L170.22 637.26L167.62 637.77L165 638.23L162.37 638.64L159.72 639L157.06 639.3L154.38 639.55L151.69 639.75L148.99 639.89L146.27 639.97L143.55 640L137.88 639.89L132.28 639.55L126.74 638.99L121.27 638.22L115.87 637.23L110.55 636.04L105.32 634.65L100.17 633.05L95.12 631.26L90.15 629.29L85.29 627.12L80.54 624.78L75.89 622.26L71.35 619.56L66.93 616.7L62.63 613.67L58.46 610.48L54.41 607.14L50.5 603.64L46.73 600L43.1 596.22L39.62 592.29L36.28 588.23L33.11 584.05L30.09 579.73L27.24 575.3L24.55 570.75L22.04 566.08L19.7 561.31L17.54 556.43L15.57 551.45L13.79 546.38L12.2 541.21L10.81 535.96L9.62 530.63L8.64 525.21L7.87 519.73L7.31 514.17L6.98 508.54L6.86 502.86L6.89 500.12L6.97 497.4L7.09 494.68L7.27 491.99L7.5 489.3L7.78 486.63L8.1 483.97L8.48 481.33L8.91 478.71L9.38 476.1L9.9 473.51L10.47 470.93L11.09 468.38L11.76 465.84L12.47 463.32L13.23 460.83L14.04 458.35L14.89 455.89L15.79 453.46L16.74 451.05L17.73 448.66L18.76 446.3L19.84 443.96L20.97 441.64L22.14 439.35L23.35 437.08L24.61 434.84L25.91 432.63L27.26 430.45L28.65 428.29L30.08 426.16L31.55 424.06L33.07 421.99L34.62 419.95L36.22 417.94L37.86 415.97L39.54 414.02L41.27 412.11L43.03 410.23L44.83 408.38L44.05 406.09L43.28 403.79L42.54 401.48L41.82 399.15L41.13 396.82L40.45 394.48L39.8 392.13L39.17 389.77L38.56 387.4L37.97 385.03L37.41 382.65L36.86 380.26L36.34 377.86L35.84 375.46L35.35 373.05L34.89 370.64L34.45 368.23L34.03 365.81L33.63 363.38L33.25 360.96L32.89 358.53L32.55 356.09L32.23 353.66L31.93 351.22L31.65 348.79L31.38 346.35L31.14 343.91L30.92 341.47L30.71 339.04L30.52 336.6L30.35 334.16L30.2 331.73L30.07 329.3L29.96 326.87L29.86 324.45L29.78 322.03L29.72 319.61L29.68 317.2L29.65 314.79L29.64 312.39L29.9 299.87L30.66 287.48L31.91 275.23L33.64 263.12L35.84 251.17L38.51 239.37L41.63 227.76L45.2 216.33L49.19 205.09L53.61 194.05L58.44 183.23L63.68 172.64L69.31 162.28L75.32 152.16L81.7 142.3L88.45 132.7L95.55 123.38L102.99 114.34L110.77 105.59L118.87 97.15L127.28 89.02L136 81.22L145.01 73.75L154.3 66.63L163.86 59.86L173.69 53.45L183.78 47.42L194.1 41.78L204.66 36.52L215.45 31.67L226.44 27.24L237.64 23.23L249.04 19.66L260.62 16.52L272.37 13.85L284.28 11.63L296.35 9.9L308.56 8.64L320.91 7.88L333.38 7.63L345.85 7.88L358.2 8.64ZM313.53 69.39L303.76 70.39L294.1 71.78L284.57 73.55L275.17 75.7L265.91 78.2L256.79 81.06L247.83 84.27L239.03 87.82L230.41 91.7L221.96 95.9L213.7 100.41L205.63 105.24L197.77 110.36L190.12 115.78L182.68 121.48L175.47 127.45L168.5 133.7L161.77 140.2L155.29 146.95L149.07 153.95L143.11 161.18L137.43 168.64L132.04 176.32L126.93 184.21L122.12 192.3L117.62 200.59L113.43 209.06L109.57 217.72L106.03 226.55L102.83 235.54L99.98 244.68L97.49 253.98L95.35 263.41L93.59 272.97L92.2 282.66L91.2 292.46L90.6 302.38L90.39 312.39L90.4 313.87L90.41 315.37L90.44 316.87L90.48 318.37L90.53 319.88L90.59 321.39L90.66 322.91L90.74 324.43L90.84 325.95L90.94 327.48L91.05 329.01L91.17 330.54L91.3 332.08L91.44 333.61L91.59 335.15L91.75 336.69L91.92 338.23L92.1 339.78L92.29 341.32L92.48 342.86L92.68 344.4L92.9 345.95L93.12 347.49L93.34 349.03L93.58 350.57L93.82 352.11L94.08 353.64L94.34 355.18L94.6 356.71L94.88 358.24L95.16 359.77L95.45 361.29L95.74 362.81L96.04 364.33L96.35 365.84L96.67 367.35L96.99 368.86L97.31 370.35L97.65 371.85L97.99 373.34L99.02 373L100.06 372.66L101.11 372.33L102.17 372.01L103.24 371.7L104.33 371.39L105.42 371.08L106.51 370.79L107.62 370.5L108.73 370.22L109.86 369.94L110.98 369.68L112.12 369.41L113.26 369.16L114.4 368.92L115.55 368.68L116.71 368.45L117.87 368.23L119.03 368.02L120.2 367.81L121.37 367.62L122.54 367.43L123.71 367.25L124.88 367.08L126.06 366.92L127.24 366.77L128.41 366.63L129.59 366.5L130.77 366.38L131.94 366.27L133.12 366.16L134.29 366.07L135.46 365.99L136.62 365.92L137.79 365.86L138.95 365.81L140.11 365.77L141.26 365.74L142.4 365.72L143.55 365.72L149.21 365.83L154.82 366.17L160.36 366.73L165.83 367.5L171.22 368.49L176.54 369.68L181.77 371.07L186.92 372.67L191.98 374.45L196.94 376.43L201.8 378.6L206.56 380.94L211.21 383.46L215.74 386.16L220.16 389.02L224.46 392.05L228.64 395.24L232.68 398.58L236.59 402.08L240.36 405.72L243.99 409.5L247.48 413.43L250.81 417.48L253.98 421.67L257 425.98L259.86 430.42L262.54 434.97L265.06 439.64L267.39 444.41L269.55 449.29L271.52 454.27L273.3 459.34L274.89 464.5L276.28 469.76L277.47 475.09L278.45 480.5L279.22 485.99L279.78 491.55L280.11 497.17L280.23 502.86L280.22 504.11L280.21 505.36L280.18 506.6L280.14 507.84L280.09 509.07L280.03 510.3L279.96 511.52L279.88 512.73L279.78 513.94L279.68 515.14L279.57 516.34L279.45 517.53L279.32 518.72L279.18 519.9L279.03 521.07L278.87 522.24L278.7 523.4L278.52 524.56L278.33 525.71L278.14 526.86L277.94 528L277.72 529.13L277.5 530.26L277.28 531.38L277.04 532.5L276.79 533.61L276.54 534.72L276.28 535.82L276.02 536.91L275.74 538L275.46 539.08L275.17 540.16L274.88 541.23L274.58 542.3L274.27 543.36L273.95 544.41L273.63 545.46L273.31 546.5L272.97 547.54L272.63 548.57L274.12 548.91L275.6 549.25L277.08 549.57L278.56 549.9L280.04 550.21L281.52 550.52L283.01 550.82L284.49 551.12L285.98 551.41L287.47 551.69L288.95 551.97L290.44 552.23L291.94 552.49L293.43 552.75L294.93 552.99L296.42 553.23L297.92 553.46L299.43 553.68L300.93 553.89L302.44 554.1L303.95 554.29L305.46 554.48L306.98 554.66L308.5 554.83L310.02 554.99L311.55 555.14L313.08 555.28L314.62 555.41L316.15 555.53L317.7 555.64L319.24 555.75L320.79 555.84L322.35 555.92L323.91 555.99L325.48 556.05L327.05 556.1L328.62 556.14L330.2 556.17L331.79 556.19L333.38 556.19L343.36 555.99L353.24 555.38L363.01 554.38L372.66 552.99L382.19 551.22L391.59 549.07L400.86 546.57L409.97 543.71L418.93 540.5L427.73 536.95L436.36 533.08L444.8 528.87L453.07 524.36L461.13 519.53L469 514.41L476.65 508.99L484.08 503.29L491.29 497.32L498.26 491.07L504.99 484.57L511.47 477.82L517.69 470.82L523.65 463.59L529.33 456.13L534.73 448.45L539.83 440.56L544.64 432.47L549.14 424.18L553.33 415.71L557.2 407.05L560.73 398.22L563.93 389.23L566.78 380.09L569.28 370.79L571.41 361.36L573.18 351.8L574.56 342.11L575.56 332.31L576.17 322.4L576.37 312.39L576.17 302.38L575.56 292.46L574.56 282.66L573.18 272.97L571.41 263.41L569.28 253.98L566.78 244.68L563.93 235.54L560.73 226.55L557.2 217.72L553.33 209.06L549.14 200.59L544.64 192.3L539.83 184.21L534.73 176.32L529.33 168.64L523.65 161.18L517.69 153.95L511.47 146.95L504.99 140.2L498.26 133.7L491.29 127.45L484.08 121.48L476.65 115.78L469 110.36L461.13 105.24L453.07 100.41L444.8 95.9L436.36 91.7L427.73 87.82L418.93 84.27L409.97 81.06L400.86 78.2L391.59 75.7L382.19 73.55L372.66 71.78L363.01 70.39L353.24 69.39L343.36 68.78L333.38 68.58L323.41 68.78L313.53 69.39ZM97.31 487.63L96.64 487.67L95.99 487.72L95.35 487.8L94.72 487.9L94.1 488.02L93.5 488.16L92.91 488.33L92.33 488.51L91.77 488.72L91.22 488.94L90.69 489.18L90.17 489.45L89.66 489.73L89.18 490.03L88.7 490.35L88.25 490.69L87.81 491.05L87.38 491.42L86.98 491.81L86.58 492.22L86.21 492.65L85.86 493.09L85.52 493.55L85.2 494.02L84.9 494.51L84.62 495.02L84.36 495.54L84.11 496.07L83.89 496.62L83.69 497.19L83.5 497.76L83.34 498.36L83.2 498.96L83.08 499.58L82.98 500.21L82.9 500.85L82.84 501.51L82.81 502.18L82.8 502.86L82.81 503.54L82.84 504.21L82.9 504.86L82.98 505.51L83.08 506.14L83.2 506.76L83.34 507.36L83.5 507.95L83.69 508.53L83.89 509.1L84.11 509.65L84.36 510.18L84.62 510.7L84.9 511.21L85.2 511.7L85.52 512.17L85.86 512.63L86.21 513.07L86.58 513.5L86.98 513.91L87.38 514.3L87.81 514.67L88.25 515.03L88.7 515.37L89.18 515.69L89.66 515.99L90.17 516.27L90.69 516.53L91.22 516.78L91.77 517L92.33 517.21L92.91 517.39L93.5 517.55L94.1 517.7L94.72 517.82L95.35 517.92L95.99 518L96.64 518.05L97.31 518.09L97.99 518.1L189.11 518.1L189.78 518.09L190.45 518.05L191.1 518L191.75 517.92L192.38 517.82L192.99 517.7L193.6 517.55L194.19 517.39L194.76 517.21L195.32 517L195.87 516.78L196.41 516.53L196.92 516.27L197.43 515.99L197.92 515.69L198.39 515.37L198.85 515.03L199.29 514.67L199.71 514.3L200.12 513.91L200.51 513.5L200.88 513.07L201.23 512.63L201.57 512.17L201.89 511.7L202.19 511.21L202.47 510.7L202.74 510.18L202.98 509.65L203.2 509.1L203.41 508.53L203.59 507.95L203.75 507.36L203.89 506.76L204.01 506.14L204.11 505.51L204.19 504.86L204.25 504.21L204.28 503.54L204.29 502.86L204.28 502.18L204.25 501.51L204.19 500.85L204.11 500.21L204.01 499.58L203.89 498.96L203.75 498.36L203.59 497.76L203.41 497.19L203.2 496.62L202.98 496.07L202.74 495.54L202.47 495.02L202.19 494.51L201.89 494.02L201.57 493.55L201.23 493.09L200.88 492.65L200.51 492.22L200.12 491.81L199.71 491.42L199.29 491.05L198.85 490.69L198.39 490.35L197.92 490.03L197.43 489.73L196.92 489.45L196.41 489.18L195.87 488.94L195.32 488.72L194.76 488.51L194.19 488.33L193.6 488.16L192.99 488.02L192.38 487.9L191.75 487.8L191.1 487.72L190.45 487.67L189.78 487.63L189.11 487.62L97.99 487.62L97.31 487.63Z" id="a59nKBpWAu"></path></defs><g><g><g><use xlink:href="#i502kPBxFD" opacity="1" fill="#000000" fill-opacity="1"></use></g><g><use xlink:href="#b6qFqIaUSR" opacity="1" fill="#000000" fill-opacity="1"></use></g><g><use xlink:href="#a59nKBpWAu" opacity="1" fill="#1a1a1a" fill-opacity="1"></use><g><use xlink:href="#a59nKBpWAu" opacity="1" fill-opacity="0" stroke="#000000" stroke-width="1" stroke-opacity="0"></use></g></g></g></g></svg>