<svg xmlns="http://www.w3.org/2000/svg" xmlns:xlink="http://www.w3.org/1999/xlink" version="1.1" x="0px" y="0px" viewBox="0 0 95.272 95.2715" enable-background="new 0 0 95.272 95.2715" xml:space="preserve"><path fill="#143F5B
" d="  M30.2964,23.4155c-0.711,0.5498-1.7334,0.419-2.2833-0.2929l0,0c-0.5498-0.71-0.4194-1.7334,0.292-2.2832l5.4888-4.2432  c0.7124-0.5498,1.7344-0.419,2.2847,0.292l0,0c0.5498,0.7109,0.4189,1.7344-0.2925,2.2842L30.2964,23.4155z M47.9116,12.4341  c-0.3233-0.8399-1.2647-1.2588-2.1045-0.9365l0,0c-0.8389,0.3242-1.2578,1.2656-0.9351,2.1054l2.4898,6.4756  c0.3227,0.8389,1.2656,1.2569,2.1045,0.9346l0,0c0.8388-0.3223,1.2578-1.2647,0.9355-2.1035L47.9116,12.4341z M20.9868,67.9038  c-0.3223-0.8389-1.2652-1.2578-2.104-0.9355l0,0c-0.8394,0.3232-1.2578,1.2646-0.9351,2.1045l2.4898,6.4755  c0.3222,0.8389,1.2651,1.2579,2.1049,0.9356l0,0c0.8384-0.3233,1.2574-1.2647,0.9351-2.1045L20.9868,67.9038z M68.52,17.0347  c0.6675-0.6016,0.7197-1.6328,0.1172-2.2998l0,0c-0.6026-0.667-1.6328-0.7188-2.3008-0.1162L61.1889,19.27  c-0.6674,0.6026-0.7192,1.6328-0.1167,2.2998l0,0c0.6031,0.666,1.6319,0.7188,2.2993,0.1162L68.52,17.0347z M62.9321,72.023  c-0.1206-0.8907-0.9404-1.5157-1.832-1.3956l0,0c-0.8911,0.1211-1.5152,0.9415-1.3946,1.8331l0.9307,6.875  c0.1206,0.8916,0.9414,1.5156,1.8325,1.3945l0,0c0.8902-0.1201,1.5152-0.9404,1.3945-1.8311L62.9321,72.023z M51.2944,84.4185  c0.8682,0.2314,1.7607-0.2852,1.9937-1.1534l0,0c0.2304-0.8701-0.2862-1.7607-1.1558-1.9931l-6.7041-1.7862  c-0.8692-0.2314-1.7612,0.2852-1.9922,1.1553l0,0c-0.231,0.8682,0.2861,1.7598,1.1538,1.9912L51.2944,84.4185z M76.8506,50.3765  c0.1206-0.8907-0.5044-1.711-1.3946-1.833l0,0c-0.8911-0.1202-1.7109,0.5039-1.833,1.3955l-0.9316,6.875  c-0.1216,0.8916,0.5039,1.7119,1.3945,1.832l0,0c0.8906,0.1201,1.7109-0.5039,1.8315-1.3945L76.8506,50.3765z M13.1118,40.2437  c0.1211-0.8897-0.5034-1.711-1.3941-1.8321l0,0c-0.8916-0.1211-1.7109,0.5039-1.833,1.3955l-0.9316,6.875  c-0.1211,0.8916,0.5039,1.711,1.394,1.8321l0,0c0.8911,0.1201,1.7115-0.5039,1.8326-1.3946L13.1118,40.2437z M32.7124,74.2622  c-0.6905,0.5762-0.7823,1.6035-0.2056,2.293l0,0c0.5762,0.6904,1.603,0.7822,2.2939,0.206l5.3233-4.4492  c0.6909-0.5762,0.7817-1.6035,0.2056-2.292l0,0c-0.5767-0.6904-1.6031-0.7822-2.293-0.207L32.7124,74.2622z M72.8696,35.2681  c0.7842,0.4394,1.7769,0.1601,2.2168-0.6241l0,0c0.4394-0.7841,0.1597-1.7763-0.6255-2.2168l-6.0518-3.3925  c-0.7836-0.4395-1.7768-0.1602-2.2168,0.625l0,0c-0.4379,0.7832-0.1596,1.7763,0.6246,2.2158L72.8696,35.2681z M21.8203,59.398  c0.7842,0.4394,1.7768,0.1601,2.2168-0.6241l0,0c0.4394-0.7842,0.1592-1.7763-0.625-2.2177l-6.0523-3.3916  c-0.7842-0.4395-1.7763-0.1602-2.2163,0.625l0,0c-0.4385,0.7832-0.1601,1.7763,0.6245,2.2158L21.8203,59.398z M83.6494,39.9478  c0.3349,0.8349,1.2827,1.2402,2.1177,0.9062l0,0c0.8335-0.334,1.2397-1.2822,0.9052-2.1182l-2.5815-6.4384  c-0.3345-0.836-1.2822-1.2412-2.1172-0.9063l0,0c-0.833,0.335-1.2402,1.2822-0.9053,2.1162L83.6494,39.9478z M73.1489,68.4995  c-0.8823,0.1709-1.459,1.0264-1.2876,1.9092l0,0c0.1709,0.8818,1.0264,1.458,1.9102,1.2871l6.81-1.3242  c0.8823-0.1709,1.4585-1.0264,1.2871-1.9092l0,0c-0.1723-0.8818-1.0268-1.459-1.9092-1.2871L73.1489,68.4995z M19.8296,25.0024  c-0.3306-0.8369-1.2764-1.246-2.1133-0.916l0,0c-0.8355,0.3301-1.2456,1.2764-0.9151,2.1133l2.5494,6.4522  c0.3305,0.8359,1.2773,1.247,2.1132,0.915l0,0c0.8345-0.3311,1.2456-1.2764,0.9151-2.1113L19.8296,25.0024z M95.272,47.6353  C95.272,21.3691,73.9023,0,47.6357,0S0,21.3691,0,47.6353c0,26.2666,21.3691,47.6362,47.6357,47.6362S95.272,73.9019,95.272,47.6353  z M91.8315,47.6353c0,24.3696-19.8262,44.1958-44.1958,44.1958c-24.3691,0-44.1953-19.8262-44.1953-44.1958  c0-24.3691,19.8262-44.1948,44.1953-44.1948C72.0054,3.4404,91.8315,23.2661,91.8315,47.6353z M66.5747,47.6353  c0-10.4424-8.4961-18.938-18.939-18.938s-18.9385,8.4956-18.9385,18.938c0,10.4429,8.4956,18.939,18.9385,18.939  S66.5747,58.0781,66.5747,47.6353z M63.1343,47.6353c0,8.5459-6.9526,15.4985-15.4985,15.4985  c-8.5454,0-15.498-6.9526-15.498-15.4985c0-8.5454,6.9526-15.4976,15.498-15.4976C56.1816,32.1377,63.1343,39.0898,63.1343,47.6353z  "></path></svg>