<svg xmlns="http://www.w3.org/2000/svg" data-name="Layer 1" viewBox="0 0 100 100" x="0px" y="0px"><defs><style/></defs><title>58 all</title><path class="cls-1" d="M76.74,45.8a31,31,0,1,0-12.09,24.5L79.47,85.13l5.66-5.66L70.31,64.65A30.77,30.77,0,0,0,76.74,45.8Zm-53.87,0A22.93,22.93,0,1,1,62.64,61.35l-1.29,1.29A22.92,22.92,0,0,1,22.87,45.8Z" fill="#143F5B"/><polygon class="cls-1" points="57.91 41.8 49.8 41.8 49.8 33.7 41.8 33.7 41.8 41.8 33.7 41.8 33.7 49.8 41.8 49.8 41.8 57.91 49.8 57.91 49.8 49.8 57.91 49.8 57.91 41.8" fill="#2c9e76"/></svg>