<svg width="16" height="16" viewBox="0 0 16 16" fill="currentColor" xmlns="http://www.w3.org/2000/svg">
<g clip-path="url(#clip0)">
<rect y="1.0166" width="1.43001" height="20" rx="0.5" transform="rotate(-45.3 0 1.0166)" fill="currentColor"/>
<path fill-rule="evenodd" clip-rule="evenodd" d="M2.05041 1.04804C2.04093 1.06617 2.03191 1.08503 2.02337 1.10463C1.90953 1.37919 1.9564 1.61356 2.16399 1.80776L7.116 6.75977V11.6415C7.116 11.8156 7.17962 11.9662 7.30685 12.0935L9.87828 14.6649C9.99881 14.7921 10.1495 14.8557 10.3303 14.8557C10.4106 14.8557 10.4944 14.839 10.5814 14.8055C10.8426 14.6917 10.9731 14.4941 10.9731 14.2129V9.87781L2.05041 1.04804ZM10.9731 7.86598V6.75977L15.9252 1.80776C16.1327 1.61356 16.1796 1.37919 16.0658 1.10463C15.9519 0.843471 15.7544 0.712891 15.4731 0.712891H3.74475L10.9731 7.86598Z" fill="currentColor"/>
</g>
<defs>
<clipPath id="clip0">
<rect width="16" height="16" fill="white"/>
</clipPath>
</defs>
</svg>
