<svg width="512" height="512" viewBox="0 0 512 512" fill="none" xmlns="http://www.w3.org/2000/svg">
<path d="M162.243 385.323C147.739 385.323 136.665 381.599 129.021 374.151C121.475 366.605 117.702 355.629 117.702 341.223V290.949C117.702 287.519 118.731 284.775 120.789 282.717C122.847 280.659 125.591 279.63 129.021 279.63C132.451 279.63 135.146 280.659 137.106 282.717C139.164 284.775 140.193 287.519 140.193 290.949V342.252C140.193 350.484 142.055 356.756 145.779 361.068C149.601 365.38 155.089 367.536 162.243 367.536C169.397 367.536 174.885 365.38 178.707 361.068C182.529 356.658 184.44 350.386 184.44 342.252V290.949C184.44 287.519 185.42 284.775 187.38 282.717C189.438 280.659 192.182 279.63 195.612 279.63C199.042 279.63 201.786 280.659 203.844 282.717C205.902 284.775 206.931 287.519 206.931 290.949V341.223C206.931 355.531 203.109 366.458 195.465 374.004C187.821 381.55 176.747 385.323 162.243 385.323ZM311.927 369.447C313.397 371.603 314.132 373.71 314.132 375.768C314.132 378.512 313.005 380.766 310.751 382.53C308.595 384.294 306.047 385.176 303.107 385.176C301.245 385.176 299.432 384.735 297.668 383.853C295.904 382.971 294.434 381.599 293.258 379.737L273.854 350.925C272.188 348.377 270.424 346.564 268.562 345.486C266.7 344.31 264.348 343.722 261.506 343.722H249.599V373.416C249.599 376.944 248.57 379.737 246.512 381.795C244.552 383.853 241.857 384.882 238.427 384.882C234.899 384.882 232.106 383.853 230.048 381.795C227.99 379.737 226.961 376.944 226.961 373.416V291.096C226.961 287.666 227.892 285.02 229.754 283.158C231.616 281.296 234.262 280.365 237.692 280.365H274.589C286.741 280.365 295.904 283.06 302.078 288.45C308.35 293.742 311.486 301.435 311.486 311.529C311.486 319.467 309.281 326.082 304.871 331.374C300.461 336.666 294.238 340.145 286.202 341.811C289.142 342.399 291.739 343.575 293.993 345.339C296.345 347.005 298.599 349.455 300.755 352.689L311.927 369.447ZM271.208 326.376C277.774 326.376 282.527 325.249 285.467 322.995C288.407 320.643 289.877 317.017 289.877 312.117C289.877 307.119 288.407 303.493 285.467 301.239C282.527 298.985 277.774 297.858 271.208 297.858H249.305V326.376H271.208ZM340.764 384C337.334 384 334.688 383.069 332.826 381.207C330.964 379.345 330.033 376.699 330.033 373.269V290.949C330.033 287.519 331.062 284.775 333.12 282.717C335.178 280.659 337.971 279.63 341.499 279.63C345.027 279.63 347.82 280.659 349.878 282.717C351.936 284.775 352.965 287.519 352.965 290.949V365.331H390.597C397.751 365.331 401.328 368.467 401.328 374.739C401.328 380.913 397.751 384 390.597 384H340.764Z" fill="black"/>
<path d="M73.162 123.53C75.1507 123.53 76.7207 124.106 77.872 125.257C79.0233 126.408 79.599 127.874 79.599 129.653V229.505C79.599 231.389 79.0233 232.907 77.872 234.058C76.7207 235.209 75.1507 235.785 73.162 235.785C71.1733 235.785 69.6033 235.209 68.452 234.058C67.4053 232.907 66.882 231.389 66.882 229.505V221.027C64.5793 225.842 61.1777 229.557 56.677 232.174C52.281 234.791 47.1 236.099 41.134 236.099C34.4353 236.099 28.5217 234.424 23.393 231.075C18.2643 227.726 14.287 223.068 11.461 217.102C8.635 211.031 7.222 204.019 7.222 196.064C7.222 188.214 8.635 181.306 11.461 175.34C14.287 169.374 18.2643 164.769 23.393 161.524C28.5217 158.279 34.4353 156.657 41.134 156.657C47.1 156.657 52.281 157.965 56.677 160.582C61.1777 163.199 64.5793 166.914 66.882 171.729V129.653C66.882 127.769 67.4053 126.304 68.452 125.257C69.6033 124.106 71.1733 123.53 73.162 123.53ZM43.646 225.58C51.0773 225.58 56.7817 223.068 60.759 218.044C64.841 212.915 66.882 205.693 66.882 196.378C66.882 187.063 64.841 179.893 60.759 174.869C56.7817 169.845 51.0773 167.333 43.646 167.333C36.2147 167.333 30.4057 169.845 26.219 174.869C22.137 179.893 20.096 186.958 20.096 196.064C20.096 205.379 22.137 212.654 26.219 217.887C30.4057 223.016 36.2147 225.58 43.646 225.58ZM162.343 217.259C163.494 217.259 164.489 217.73 165.326 218.672C166.163 219.614 166.582 220.818 166.582 222.283C166.582 224.9 164.75 227.307 161.087 229.505C157.319 231.703 153.342 233.378 149.155 234.529C144.968 235.576 140.886 236.099 136.909 236.099C125.082 236.099 115.714 232.593 108.806 225.58C102.003 218.567 98.6009 208.886 98.6009 196.535C98.6009 188.685 100.119 181.777 103.154 175.811C106.189 169.74 110.428 165.03 115.871 161.681C121.418 158.332 127.698 156.657 134.711 156.657C144.654 156.657 152.557 159.902 158.418 166.391C164.279 172.88 167.21 181.672 167.21 192.767C167.21 194.86 166.791 196.378 165.954 197.32C165.117 198.262 163.756 198.733 161.872 198.733H111.318C112.26 216.736 120.79 225.737 136.909 225.737C140.991 225.737 144.497 225.214 147.428 224.167C150.359 223.016 153.499 221.498 156.848 219.614C159.569 218.044 161.401 217.259 162.343 217.259ZM134.868 166.548C128.169 166.548 122.779 168.641 118.697 172.828C114.72 177.015 112.365 182.928 111.632 190.569H156.063C155.854 182.824 153.917 176.91 150.254 172.828C146.591 168.641 141.462 166.548 134.868 166.548ZM217.504 236.099C210.387 236.099 204.054 234.477 198.507 231.232C193.064 227.987 188.825 223.382 185.79 217.416C182.859 211.45 181.394 204.542 181.394 196.692C181.394 188.842 182.912 181.882 185.947 175.811C189.087 169.74 193.431 165.03 198.978 161.681C204.525 158.332 210.91 156.657 218.132 156.657C222.109 156.657 226.034 157.233 229.907 158.384C233.884 159.431 237.338 161.001 240.269 163.094C242.153 164.35 243.461 165.606 244.194 166.862C245.031 168.013 245.45 169.322 245.45 170.787C245.45 172.252 245.031 173.456 244.194 174.398C243.461 175.34 242.467 175.811 241.211 175.811C240.478 175.811 239.693 175.602 238.856 175.183C238.019 174.764 237.286 174.346 236.658 173.927C236.135 173.508 235.768 173.247 235.559 173.142C232.838 171.363 230.221 169.95 227.709 168.903C225.302 167.856 222.319 167.333 218.76 167.333C211.119 167.333 205.153 169.95 200.862 175.183C196.675 180.312 194.582 187.481 194.582 196.692C194.582 205.903 196.675 213.02 200.862 218.044C205.153 223.068 211.119 225.58 218.76 225.58C222.319 225.58 225.354 225.057 227.866 224.01C230.483 222.963 233.099 221.55 235.716 219.771C236.867 219.038 237.966 218.41 239.013 217.887C240.06 217.364 240.949 217.102 241.682 217.102C242.833 217.102 243.775 217.573 244.508 218.515C245.345 219.457 245.764 220.661 245.764 222.126C245.764 223.487 245.398 224.743 244.665 225.894C243.932 226.941 242.572 228.144 240.583 229.505C237.652 231.494 234.094 233.116 229.907 234.372C225.825 235.523 221.691 236.099 217.504 236.099ZM292.788 236.099C285.566 236.099 279.181 234.477 273.634 231.232C268.191 227.987 263.952 223.382 260.917 217.416C257.986 211.345 256.521 204.333 256.521 196.378C256.521 188.423 257.986 181.463 260.917 175.497C263.952 169.426 268.191 164.769 273.634 161.524C279.181 158.279 285.566 156.657 292.788 156.657C300.01 156.657 306.394 158.279 311.942 161.524C317.489 164.769 321.728 169.426 324.659 175.497C327.694 181.463 329.212 188.423 329.212 196.378C329.212 204.333 327.694 211.345 324.659 217.416C321.728 223.382 317.489 227.987 311.942 231.232C306.394 234.477 300.01 236.099 292.788 236.099ZM292.788 225.58C300.324 225.58 306.08 223.12 310.058 218.201C314.14 213.177 316.181 205.903 316.181 196.378C316.181 187.063 314.14 179.893 310.058 174.869C305.976 169.74 300.219 167.176 292.788 167.176C285.356 167.176 279.6 169.74 275.518 174.869C271.436 179.893 269.395 187.063 269.395 196.378C269.395 205.798 271.383 213.02 275.361 218.044C279.443 223.068 285.252 225.58 292.788 225.58ZM409.547 123.53C411.535 123.53 413.105 124.106 414.257 125.257C415.408 126.408 415.984 127.874 415.984 129.653V229.505C415.984 231.389 415.408 232.907 414.257 234.058C413.105 235.209 411.535 235.785 409.547 235.785C407.558 235.785 405.988 235.209 404.837 234.058C403.79 232.907 403.267 231.389 403.267 229.505V221.027C400.964 225.842 397.562 229.557 393.062 232.174C388.666 234.791 383.485 236.099 377.519 236.099C370.82 236.099 364.906 234.424 359.778 231.075C354.649 227.726 350.672 223.068 347.846 217.102C345.02 211.031 343.607 204.019 343.607 196.064C343.607 188.214 345.02 181.306 347.846 175.34C350.672 169.374 354.649 164.769 359.778 161.524C364.906 158.279 370.82 156.657 377.519 156.657C383.485 156.657 388.666 157.965 393.062 160.582C397.562 163.199 400.964 166.914 403.267 171.729V129.653C403.267 127.769 403.79 126.304 404.837 125.257C405.988 124.106 407.558 123.53 409.547 123.53ZM380.031 225.58C387.462 225.58 393.166 223.068 397.144 218.044C401.226 212.915 403.267 205.693 403.267 196.378C403.267 187.063 401.226 179.893 397.144 174.869C393.166 169.845 387.462 167.333 380.031 167.333C372.599 167.333 366.79 169.845 362.604 174.869C358.522 179.893 356.481 186.958 356.481 196.064C356.481 205.379 358.522 212.654 362.604 217.887C366.79 223.016 372.599 225.58 380.031 225.58ZM498.728 217.259C499.879 217.259 500.873 217.73 501.711 218.672C502.548 219.614 502.967 220.818 502.967 222.283C502.967 224.9 501.135 227.307 497.472 229.505C493.704 231.703 489.726 233.378 485.54 234.529C481.353 235.576 477.271 236.099 473.294 236.099C461.466 236.099 452.099 232.593 445.191 225.58C438.387 218.567 434.986 208.886 434.986 196.535C434.986 188.685 436.503 181.777 439.539 175.811C442.574 169.74 446.813 165.03 452.256 161.681C457.803 158.332 464.083 156.657 471.096 156.657C481.039 156.657 488.941 159.902 494.803 166.391C500.664 172.88 503.595 181.672 503.595 192.767C503.595 194.86 503.176 196.378 502.339 197.32C501.501 198.262 500.141 198.733 498.257 198.733H447.703C448.645 216.736 457.175 225.737 473.294 225.737C477.376 225.737 480.882 225.214 483.813 224.167C486.743 223.016 489.883 221.498 493.233 219.614C495.954 218.044 497.786 217.259 498.728 217.259ZM471.253 166.548C464.554 166.548 459.164 168.641 455.082 172.828C451.104 177.015 448.749 182.928 448.017 190.569H492.448C492.238 182.824 490.302 176.91 486.639 172.828C482.975 168.641 477.847 166.548 471.253 166.548Z" fill="black"/>
</svg>
