<svg width="512" height="512" viewBox="0 0 512 512" fill="none" xmlns="http://www.w3.org/2000/svg">
<path d="M162.243 385.323C147.739 385.323 136.665 381.599 129.021 374.151C121.475 366.605 117.702 355.629 117.702 341.223V290.949C117.702 287.519 118.731 284.775 120.789 282.717C122.847 280.659 125.591 279.63 129.021 279.63C132.451 279.63 135.146 280.659 137.106 282.717C139.164 284.775 140.193 287.519 140.193 290.949V342.252C140.193 350.484 142.055 356.756 145.779 361.068C149.601 365.38 155.089 367.536 162.243 367.536C169.397 367.536 174.885 365.38 178.707 361.068C182.529 356.658 184.44 350.386 184.44 342.252V290.949C184.44 287.519 185.42 284.775 187.38 282.717C189.438 280.659 192.182 279.63 195.612 279.63C199.042 279.63 201.786 280.659 203.844 282.717C205.902 284.775 206.931 287.519 206.931 290.949V341.223C206.931 355.531 203.109 366.458 195.465 374.004C187.821 381.55 176.747 385.323 162.243 385.323ZM311.927 369.447C313.397 371.603 314.132 373.71 314.132 375.768C314.132 378.512 313.005 380.766 310.751 382.53C308.595 384.294 306.047 385.176 303.107 385.176C301.245 385.176 299.432 384.735 297.668 383.853C295.904 382.971 294.434 381.599 293.258 379.737L273.854 350.925C272.188 348.377 270.424 346.564 268.562 345.486C266.7 344.31 264.348 343.722 261.506 343.722H249.599V373.416C249.599 376.944 248.57 379.737 246.512 381.795C244.552 383.853 241.857 384.882 238.427 384.882C234.899 384.882 232.106 383.853 230.048 381.795C227.99 379.737 226.961 376.944 226.961 373.416V291.096C226.961 287.666 227.892 285.02 229.754 283.158C231.616 281.296 234.262 280.365 237.692 280.365H274.589C286.741 280.365 295.904 283.06 302.078 288.45C308.35 293.742 311.486 301.435 311.486 311.529C311.486 319.467 309.281 326.082 304.871 331.374C300.461 336.666 294.238 340.145 286.202 341.811C289.142 342.399 291.739 343.575 293.993 345.339C296.345 347.005 298.599 349.455 300.755 352.689L311.927 369.447ZM271.208 326.376C277.774 326.376 282.527 325.249 285.467 322.995C288.407 320.643 289.877 317.017 289.877 312.117C289.877 307.119 288.407 303.493 285.467 301.239C282.527 298.985 277.774 297.858 271.208 297.858H249.305V326.376H271.208ZM340.764 384C337.334 384 334.688 383.069 332.826 381.207C330.964 379.345 330.033 376.699 330.033 373.269V290.949C330.033 287.519 331.062 284.775 333.12 282.717C335.178 280.659 337.971 279.63 341.499 279.63C345.027 279.63 347.82 280.659 349.878 282.717C351.936 284.775 352.965 287.519 352.965 290.949V365.331H390.597C397.751 365.331 401.328 368.467 401.328 374.739C401.328 380.913 397.751 384 390.597 384H340.764Z" fill="black"/>
<path d="M70.964 217.259C72.1153 217.259 73.1097 217.73 73.947 218.672C74.7843 219.614 75.203 220.818 75.203 222.283C75.203 224.9 73.3713 227.307 69.708 229.505C65.94 231.703 61.9627 233.378 57.776 234.529C53.5893 235.576 49.5073 236.099 45.53 236.099C33.7027 236.099 24.335 232.593 17.427 225.58C10.6237 218.567 7.222 208.886 7.222 196.535C7.222 188.685 8.73967 181.777 11.775 175.811C14.8103 169.74 19.0493 165.03 24.492 161.681C30.0393 158.332 36.3193 156.657 43.332 156.657C53.2753 156.657 61.1777 159.902 67.039 166.391C72.9003 172.88 75.831 181.672 75.831 192.767C75.831 194.86 75.4123 196.378 74.575 197.32C73.7377 198.262 72.377 198.733 70.493 198.733H19.939C20.881 216.736 29.4113 225.737 45.53 225.737C49.612 225.737 53.1183 225.214 56.049 224.167C58.9797 223.016 62.1197 221.498 65.469 219.614C68.1903 218.044 70.022 217.259 70.964 217.259ZM43.489 166.548C36.7903 166.548 31.4 168.641 27.318 172.828C23.3407 177.015 20.9857 182.928 20.253 190.569H64.684C64.4747 182.824 62.5383 176.91 58.875 172.828C55.2117 168.641 50.083 166.548 43.489 166.548ZM133.033 156.657C151.35 156.657 160.508 166.757 160.508 186.958V229.505C160.508 231.494 159.932 233.064 158.781 234.215C157.734 235.262 156.217 235.785 154.228 235.785C152.239 235.785 150.669 235.262 149.518 234.215C148.367 233.064 147.791 231.494 147.791 229.505V187.743C147.791 180.626 146.378 175.445 143.552 172.2C140.831 168.955 136.435 167.333 130.364 167.333C123.351 167.333 117.752 169.479 113.565 173.77C109.378 178.061 107.285 183.87 107.285 191.197V229.505C107.285 231.494 106.709 233.064 105.558 234.215C104.511 235.262 102.994 235.785 101.005 235.785C99.0163 235.785 97.4463 235.262 96.295 234.215C95.1436 233.064 94.568 231.494 94.568 229.505V163.251C94.568 161.367 95.1436 159.849 96.295 158.698C97.4463 157.547 99.0163 156.971 101.005 156.971C102.889 156.971 104.354 157.547 105.401 158.698C106.552 159.849 107.128 161.315 107.128 163.094V171.101C109.64 166.391 113.146 162.832 117.647 160.425C122.148 157.913 127.276 156.657 133.033 156.657ZM215.357 236.099C208.24 236.099 201.908 234.477 196.36 231.232C190.918 227.987 186.679 223.382 183.643 217.416C180.713 211.45 179.247 204.542 179.247 196.692C179.247 188.842 180.765 181.882 183.8 175.811C186.94 169.74 191.284 165.03 196.831 161.681C202.379 158.332 208.763 156.657 215.985 156.657C219.963 156.657 223.888 157.233 227.76 158.384C231.738 159.431 235.192 161.001 238.122 163.094C240.006 164.35 241.315 165.606 242.047 166.862C242.885 168.013 243.303 169.322 243.303 170.787C243.303 172.252 242.885 173.456 242.047 174.398C241.315 175.34 240.32 175.811 239.064 175.811C238.332 175.811 237.547 175.602 236.709 175.183C235.872 174.764 235.139 174.346 234.511 173.927C233.988 173.508 233.622 173.247 233.412 173.142C230.691 171.363 228.074 169.95 225.562 168.903C223.155 167.856 220.172 167.333 216.613 167.333C208.973 167.333 203.007 169.95 198.715 175.183C194.529 180.312 192.435 187.481 192.435 196.692C192.435 205.903 194.529 213.02 198.715 218.044C203.007 223.068 208.973 225.58 216.613 225.58C220.172 225.58 223.207 225.057 225.719 224.01C228.336 222.963 230.953 221.55 233.569 219.771C234.721 219.038 235.82 218.41 236.866 217.887C237.913 217.364 238.803 217.102 239.535 217.102C240.687 217.102 241.629 217.573 242.361 218.515C243.199 219.457 243.617 220.661 243.617 222.126C243.617 223.487 243.251 224.743 242.518 225.894C241.786 226.941 240.425 228.144 238.436 229.505C235.506 231.494 231.947 233.116 227.76 234.372C223.678 235.523 219.544 236.099 215.357 236.099ZM290.641 236.099C283.419 236.099 277.035 234.477 271.487 231.232C266.045 227.987 261.806 223.382 258.77 217.416C255.84 211.345 254.374 204.333 254.374 196.378C254.374 188.423 255.84 181.463 258.77 175.497C261.806 169.426 266.045 164.769 271.487 161.524C277.035 158.279 283.419 156.657 290.641 156.657C297.863 156.657 304.248 158.279 309.795 161.524C315.343 164.769 319.582 169.426 322.512 175.497C325.548 181.463 327.065 188.423 327.065 196.378C327.065 204.333 325.548 211.345 322.512 217.416C319.582 223.382 315.343 227.987 309.795 231.232C304.248 234.477 297.863 236.099 290.641 236.099ZM290.641 225.58C298.177 225.58 303.934 223.12 307.911 218.201C311.993 213.177 314.034 205.903 314.034 196.378C314.034 187.063 311.993 179.893 307.911 174.869C303.829 169.74 298.073 167.176 290.641 167.176C283.21 167.176 277.453 169.74 273.371 174.869C269.289 179.893 267.248 187.063 267.248 196.378C267.248 205.798 269.237 213.02 273.214 218.044C277.296 223.068 283.105 225.58 290.641 225.58ZM407.4 123.53C409.389 123.53 410.959 124.106 412.11 125.257C413.262 126.408 413.837 127.874 413.837 129.653V229.505C413.837 231.389 413.262 232.907 412.11 234.058C410.959 235.209 409.389 235.785 407.4 235.785C405.412 235.785 403.842 235.209 402.69 234.058C401.644 232.907 401.12 231.389 401.12 229.505V221.027C398.818 225.842 395.416 229.557 390.915 232.174C386.519 234.791 381.338 236.099 375.372 236.099C368.674 236.099 362.76 234.424 357.631 231.075C352.503 227.726 348.525 223.068 345.699 217.102C342.873 211.031 341.46 204.019 341.46 196.064C341.46 188.214 342.873 181.306 345.699 175.34C348.525 169.374 352.503 164.769 357.631 161.524C362.76 158.279 368.674 156.657 375.372 156.657C381.338 156.657 386.519 157.965 390.915 160.582C395.416 163.199 398.818 166.914 401.12 171.729V129.653C401.12 127.769 401.644 126.304 402.69 125.257C403.842 124.106 405.412 123.53 407.4 123.53ZM377.884 225.58C385.316 225.58 391.02 223.068 394.997 218.044C399.079 212.915 401.12 205.693 401.12 196.378C401.12 187.063 399.079 179.893 394.997 174.869C391.02 169.845 385.316 167.333 377.884 167.333C370.453 167.333 364.644 169.845 360.457 174.869C356.375 179.893 354.334 186.958 354.334 196.064C354.334 205.379 356.375 212.654 360.457 217.887C364.644 223.016 370.453 225.58 377.884 225.58ZM496.581 217.259C497.733 217.259 498.727 217.73 499.564 218.672C500.402 219.614 500.82 220.818 500.82 222.283C500.82 224.9 498.989 227.307 495.325 229.505C491.557 231.703 487.58 233.378 483.393 234.529C479.207 235.576 475.125 236.099 471.147 236.099C459.32 236.099 449.952 232.593 443.044 225.58C436.241 218.567 432.839 208.886 432.839 196.535C432.839 188.685 434.357 181.777 437.392 175.811C440.428 169.74 444.667 165.03 450.109 161.681C455.657 158.332 461.937 156.657 468.949 156.657C478.893 156.657 486.795 159.902 492.656 166.391C498.518 172.88 501.448 181.672 501.448 192.767C501.448 194.86 501.03 196.378 500.192 197.32C499.355 198.262 497.994 198.733 496.11 198.733H445.556C446.498 216.736 455.029 225.737 471.147 225.737C475.229 225.737 478.736 225.214 481.666 224.167C484.597 223.016 487.737 221.498 491.086 219.614C493.808 218.044 495.639 217.259 496.581 217.259ZM469.106 166.548C462.408 166.548 457.017 168.641 452.935 172.828C448.958 177.015 446.603 182.928 445.87 190.569H490.301C490.092 182.824 488.156 176.91 484.492 172.828C480.829 168.641 475.7 166.548 469.106 166.548Z" fill="black"/>
</svg>
