<svg fill="#143F5B" xmlns="http://www.w3.org/2000/svg" xmlns:xlink="http://www.w3.org/1999/xlink" version="1.1" x="0px" y="0px" viewBox="0 0 90 90" style="enable-background:new 0 0 90 90;" xml:space="preserve"><rect x="11" y="52" transform="matrix(0.7071 -0.7071 0.7071 0.7071 -27.3216 44.0398)" width="57" height="6"></rect><polygon points="30.9,30 32.7,42.4 34.2,30 45.9,27.9 34.1,26 32.3,13.6 30.8,26 19.1,28.1 "></polygon><polygon points="68.3,22.2 69.6,29.8 70.7,22.2 79.2,21 70.7,19.8 69.4,12.2 68.3,19.8 59.8,21 "></polygon><polygon points="65.3,50.2 64.4,45.4 63.7,50.2 58.4,51 63.7,51.8 64.6,56.6 65.3,51.8 70.6,51 "></polygon></svg>