<svg fill="#143F5B" xmlns:dc="http://purl.org/dc/elements/1.1/" xmlns:cc="http://creativecommons.org/ns#" xmlns:rdf="http://www.w3.org/1999/02/22-rdf-syntax-ns#" xmlns:svg="http://www.w3.org/2000/svg" xmlns="http://www.w3.org/2000/svg" xmlns:sodipodi="http://sodipodi.sourceforge.net/DTD/sodipodi-0.dtd" xmlns:inkscape="http://www.inkscape.org/namespaces/inkscape" version="1.1" x="0px" y="0px" viewBox="0 0 100 100"><g transform="translate(0,-952.36218)"><path style="text-indent:0;text-transform:none;direction:ltr;block-progression:tb;baseline-shift:baseline;color:#000000;enable-background:accumulate;" d="m 49.7812,957.3659 c -0.7581,0.058 -1.4896,0.42375 -2,1 C 33.064,974.77088 19,994.2546 19,1013.1159 c 0,18.7505 13.7791,34.25 31,34.25 17.221,0 31,-15.4995 31,-34.25 0,-18.8613 -14.0642,-38.34503 -28.7812,-54.75 -0.6085,-0.68665 -1.5338,-1.06622 -2.4376,-1 z M 50,965.1784 c 13.4077,15.43785 25,33.1823 25,47.9375 0,15.7044 -11.3108,28.125 -25,28.125 -13.6891,0 -25,-12.4206 -25,-28.125 0,-14.7552 11.5923,-32.49965 25,-47.9375 z m -20.9062,45.4063 c -0.8171,8.6188 3.4418,18.0572 10.1874,22.7187 1.2904,0.9418 3.3312,0.5952 4.2384,-0.7197 0.9072,-1.315 0.5065,-3.3459 -0.8321,-4.2178 -4.3194,-2.9849 -8.1898,-11.2596 -7.625,-17.2187 0.1777,-1.6925 -1.3613,-3.3571 -3.0625,-3.3125 -1.4764,0.013 -2.7747,1.2962 -2.9062,2.75 z" fill="#143F5B" fill-opacity="1" stroke="none" marker="none" visibility="visible" display="inline" overflow="visible"></path></g></svg>