<svg width="18" height="19" viewBox="0 0 18 19" fill="none" xmlns="http://www.w3.org/2000/svg">
<path d="M12.0001 16.88C12.0401 17.18 11.9401 17.5 11.7101 17.71C11.3201 18.1 10.6901 18.1 10.3001 17.71L6.2901 13.7C6.0601 13.47 5.9601 13.16 6.0001 12.87V7.75L1.2101 1.62C0.870102 1.19 0.950102 0.56 1.3801 0.22C1.5701 0.08 1.7801 0 2.0001 0H16.0001C16.2201 0 16.4301 0.08 16.6201 0.22C17.0501 0.56 17.1301 1.19 16.7901 1.62L12.0001 7.75V16.88ZM4.0401 2L8.0001 7.06V12.58L10.0001 14.58V7.05L13.9601 2H4.0401Z" fill="#40A0FF"/>
</svg>
