<svg width="500" height="512" viewBox="0 0 500 512" fill="none" xmlns="http://www.w3.org/2000/svg">
<path d="M213.388 476.138L197.408 491.213C190.642 497.596 179.701 497.596 173.006 491.213L33.0743 359.272C26.3081 352.889 26.3081 342.567 33.0743 336.252L173.006 204.243C179.773 197.86 190.714 197.86 197.408 204.243L213.388 219.318C220.226 225.769 220.082 236.294 213.1 242.61L126.362 320.565H333.237C342.811 320.565 350.513 327.831 350.513 336.863V358.593C350.513 367.624 342.811 374.89 333.237 374.89H126.362L213.1 452.846C220.154 459.161 220.298 469.687 213.388 476.138Z" fill="black"/>
<path d="M458.105 16H41.8743C34.2435 16 28 22.0314 28 29.4031V56.2094C28 63.5812 34.2435 69.6126 41.8743 69.6126H458.105C465.736 69.6126 471.979 63.5812 471.979 56.2094V29.4031C471.979 22.0314 465.736 16 458.105 16Z" fill="black"/>
<path d="M461.98 320.922H161.979C156.479 320.922 151.979 326.953 151.979 334.325V361.131C151.979 368.503 156.479 374.534 161.979 374.534H461.98C467.48 374.534 471.98 368.503 471.98 361.131V334.325C471.98 326.953 467.48 320.922 461.98 320.922Z" fill="black"/>
<path d="M418.367 27.2043V363.33C418.367 369.492 424.399 374.534 431.77 374.534H458.577C465.948 374.534 471.98 369.492 471.98 363.33V27.2043C471.98 21.042 465.948 16.0001 458.577 16.0001H431.77C424.399 16.0001 418.367 21.042 418.367 27.2043Z" fill="black"/>
</svg>
