<svg xmlns="http://www.w3.org/2000/svg" xmlns:xlink="http://www.w3.org/1999/xlink" version="1.1" x="0px" y="0px" viewBox="0 0 100 100" enable-background="new 0 0 100 100" xml:space="preserve"><g><path d="M21.1,47c1.1,0,2-0.9,2-2c0-12.1,9.8-21.9,21.9-21.9c1.1,0,2-0.9,2-2s-0.9-2-2-2c-14.3,0-25.9,11.6-25.9,25.9   C19.1,46.1,20,47,21.1,47z"></path><path d="M77.3,71c5.7-7.1,9.2-16.1,9.2-26C86.5,22.1,67.9,3.5,45,3.5S3.5,22.1,3.5,45S22.1,86.5,45,86.5c9.8,0,18.9-3.4,26-9.2   l17.8,17.8c0.9,0.9,2,1.3,3.2,1.3s2.3-0.4,3.2-1.3c1.8-1.8,1.8-4.6,0-6.4L77.3,71z M45,12.5c17.9,0,32.5,14.6,32.5,32.5   c0,17.9-14.6,32.5-32.5,32.5S12.5,62.9,12.5,45C12.5,27.1,27.1,12.5,45,12.5z"></path></g></svg>