<svg xmlns="http://www.w3.org/2000/svg" xmlns:xlink="http://www.w3.org/1999/xlink" version="1.1" x="0px" y="0px" viewBox="0 0 100 100" style="enable-background:new 0 0 100 100;" xml:space="preserve"><g><path d="M83.583,6.417v87.165H16.417V25.587l19.17-19.17H83.583 M85,5H35L15,25v70h70V5L85,5z"></path></g><g><path d="M27.592,79.302h3.823v3.586h-3.823V79.302z"></path><path d="M42.393,77.614l3.489,1.055c-0.234,0.979-0.604,1.796-1.107,2.452s-1.129,1.151-1.876,1.485s-1.698,0.501-2.852,0.501   c-1.4,0-2.544-0.203-3.432-0.61s-1.654-1.123-2.298-2.147s-0.967-2.336-0.967-3.935c0-2.132,0.567-3.77,1.701-4.915   c1.134-1.145,2.738-1.717,4.812-1.717c1.623,0,2.899,0.328,3.828,0.984s1.619,1.664,2.07,3.023l-3.516,0.782   c-0.123-0.393-0.252-0.68-0.387-0.861c-0.223-0.305-0.495-0.539-0.817-0.703s-0.683-0.246-1.081-0.246   c-0.902,0-1.594,0.363-2.074,1.089c-0.363,0.538-0.545,1.384-0.545,2.536c0,1.429,0.217,2.407,0.65,2.937   c0.434,0.53,1.043,0.795,1.828,0.795c0.762,0,1.337-0.214,1.727-0.642S42.217,78.429,42.393,77.614z"></path><path d="M47.122,78.625l3.788-0.237c0.082,0.615,0.249,1.084,0.5,1.406c0.41,0.521,0.996,0.782,1.758,0.782   c0.568,0,1.008-0.133,1.314-0.399c0.309-0.267,0.461-0.576,0.461-0.928c0-0.334-0.146-0.633-0.439-0.896s-0.973-0.513-2.039-0.747   c-1.746-0.393-2.991-0.914-3.735-1.564c-0.75-0.65-1.125-1.479-1.125-2.487c0-0.662,0.192-1.287,0.576-1.877   c0.384-0.588,0.961-1.051,1.731-1.389c0.771-0.336,1.826-0.505,3.168-0.505c1.646,0,2.902,0.307,3.768,0.919   c0.863,0.612,1.377,1.586,1.541,2.922l-3.752,0.22c-0.1-0.58-0.311-1.002-0.629-1.266c-0.32-0.264-0.76-0.396-1.322-0.396   c-0.463,0-0.813,0.099-1.047,0.295s-0.352,0.435-0.352,0.716c0,0.205,0.098,0.39,0.291,0.554c0.188,0.17,0.633,0.328,1.336,0.475   c1.74,0.375,2.986,0.755,3.74,1.139c0.752,0.384,1.301,0.859,1.643,1.428c0.344,0.568,0.514,1.204,0.514,1.907   c0,0.826-0.229,1.588-0.686,2.285s-1.096,1.226-1.916,1.587c-0.82,0.359-1.854,0.54-3.102,0.54c-2.192,0-3.709-0.422-4.553-1.266   S47.233,79.926,47.122,78.625z"></path><path d="M59.549,70.003h4.162l2.9,9.272l2.862-9.272h4.041L68.73,82.888h-4.315L59.549,70.003z"></path></g><g><line style="" x1="24" y1="31" x2="34" y2="31" fill="none" stroke="#000000" stroke-width="1.4173" stroke-miterlimit="10"></line><line style="" x1="38" y1="31" x2="48" y2="31" fill="none" stroke="#000000" stroke-width="1.4173" stroke-miterlimit="10"></line><line style="" x1="52" y1="31" x2="62" y2="31" fill="none" stroke="#000000" stroke-width="1.4173" stroke-miterlimit="10"></line><line style="" x1="66" y1="31" x2="76" y2="31" fill="none" stroke="#000000" stroke-width="1.4173" stroke-miterlimit="10"></line></g><g><line style="" x1="24" y1="38" x2="34" y2="38" fill="none" stroke="#000000" stroke-width="1.4173" stroke-miterlimit="10"></line><line style="" x1="38" y1="38" x2="48" y2="38" fill="none" stroke="#000000" stroke-width="1.4173" stroke-miterlimit="10"></line><line style="" x1="52" y1="38" x2="62" y2="38" fill="none" stroke="#000000" stroke-width="1.4173" stroke-miterlimit="10"></line><line style="" x1="66" y1="38" x2="76" y2="38" fill="none" stroke="#000000" stroke-width="1.4173" stroke-miterlimit="10"></line></g><g><line style="" x1="24" y1="45" x2="34" y2="45" fill="none" stroke="#000000" stroke-width="1.4173" stroke-miterlimit="10"></line><line style="" x1="38" y1="45" x2="48" y2="45" fill="none" stroke="#000000" stroke-width="1.4173" stroke-miterlimit="10"></line><line style="" x1="52" y1="45" x2="62" y2="45" fill="none" stroke="#000000" stroke-width="1.4173" stroke-miterlimit="10"></line><line style="" x1="66" y1="45" x2="76" y2="45" fill="none" stroke="#000000" stroke-width="1.4173" stroke-miterlimit="10"></line></g><g><line style="" x1="24" y1="52" x2="34" y2="52" fill="none" stroke="#000000" stroke-width="1.4173" stroke-miterlimit="10"></line><line style="" x1="38" y1="52" x2="48" y2="52" fill="none" stroke="#000000" stroke-width="1.4173" stroke-miterlimit="10"></line><line style="" x1="52" y1="52" x2="62" y2="52" fill="none" stroke="#000000" stroke-width="1.4173" stroke-miterlimit="10"></line><line style="" x1="66" y1="52" x2="76" y2="52" fill="none" stroke="#000000" stroke-width="1.4173" stroke-miterlimit="10"></line></g><g><line style="" x1="24" y1="59" x2="34" y2="59" fill="none" stroke="#000000" stroke-width="1.4173" stroke-miterlimit="10"></line><line style="" x1="38" y1="59" x2="48" y2="59" fill="none" stroke="#000000" stroke-width="1.4173" stroke-miterlimit="10"></line><line style="" x1="52" y1="59" x2="62" y2="59" fill="none" stroke="#000000" stroke-width="1.4173" stroke-miterlimit="10"></line><line style="" x1="66" y1="59" x2="76" y2="59" fill="none" stroke="#000000" stroke-width="1.4173" stroke-miterlimit="10"></line></g></svg>