<?xml version="1.0" encoding="UTF-8"?>
<svg xmlns="http://www.w3.org/2000/svg" viewBox="0 0 1160.58 864.56">
  <defs>
    <style>
      .cls-1 {
        fill: #ccc;
        mix-blend-mode: multiply;
      }

      .cls-1, .cls-2, .cls-3, .cls-4, .cls-5, .cls-6, .cls-7, .cls-8, .cls-9, .cls-10, .cls-11, .cls-12, .cls-13, .cls-14, .cls-15, .cls-16, .cls-17, .cls-18, .cls-19, .cls-20, .cls-21, .cls-22, .cls-23, .cls-24, .cls-25, .cls-26, .cls-27, .cls-28, .cls-29, .cls-30, .cls-31, .cls-32, .cls-33, .cls-34, .cls-35, .cls-36, .cls-37, .cls-38, .cls-39, .cls-40, .cls-41, .cls-42, .cls-43 {
        stroke-width: 0px;
      }

      .cls-2 {
        fill: #a7a9ac;
      }

      .cls-2, .cls-3 {
        mix-blend-mode: screen;
      }

      .cls-3 {
        fill: #58595b;
      }

      .cls-44 {
        isolation: isolate;
      }

      .cls-4 {
        fill: #f5885b;
      }

      .cls-5 {
        fill: #f7c1ce;
      }

      .cls-6 {
        fill: #60a5bd;
      }

      .cls-7 {
        fill: #53bddb;
      }

      .cls-8 {
        fill: #a3aacc;
      }

      .cls-9 {
        fill: #39abcc;
      }

      .cls-10 {
        fill: #2c98b8;
      }

      .cls-11 {
        fill: #282d47;
      }

      .cls-12 {
        fill: #353852;
      }

      .cls-13 {
        fill: #3e3279;
      }

      .cls-14 {
        fill: #0c6a8a;
      }

      .cls-15 {
        fill: #0c5b75;
      }

      .cls-16 {
        fill: #232538;
      }

      .cls-17 {
        fill: #222438;
      }

      .cls-18 {
        fill: #117ca0;
      }

      .cls-19 {
        fill: #defffc;
      }

      .cls-20 {
        fill: #d1d4ed;
      }

      .cls-21 {
        fill: #dde4f0;
      }

      .cls-22 {
        fill: #d94559;
      }

      .cls-23 {
        fill: #c8cbe3;
      }

      .cls-24 {
        fill: #d3d7eb;
      }

      .cls-25 {
        fill: #d2fcf8;
      }

      .cls-26 {
        fill: #c4626e;
      }

      .cls-27 {
        fill: #9ccbff;
      }

      .cls-28 {
        fill: #8c94bd;
      }

      .cls-29 {
        fill: #2fa0c2;
      }

      .cls-30 {
        fill: #30334d;
      }

      .cls-31 {
        fill: #73b4ff;
      }

      .cls-32 {
        fill: #ffd8d9;
      }

      .cls-33 {
        fill: #fff;
      }

      .cls-34 {
        fill: #ffa078;
      }

      .cls-35 {
        fill: #e3e5f2;
      }

      .cls-36 {
        fill: #e3c0c1;
      }

      .cls-37 {
        fill: #f0ac35;
      }

      .cls-38 {
        fill: #ffbc47;
      }

      .cls-39 {
        fill: #eba72f;
      }

      .cls-40 {
        fill: #f5b036;
      }

      .cls-41 {
        fill: #004961;
      }

      .cls-42 {
        fill: #035875;
      }

      .cls-43 {
        fill: #015470;
      }
    </style>
  </defs>
  <g class="cls-44">
    <g id="Layer_2" data-name="Layer 2">
      <g id="Layer_1-2" data-name="Layer 1">
        <g>
          <path class="cls-4" d="M976.26,228.16c1.19-2.13,4.32-2.5,6.44-1.29,2.12,1.21,3.37,3.52,4.18,5.83,1.31,3.73,1.71,7.41,1.95,11.27,1.3-3.43,2.72-6.82,4.25-10.15,1.01-2.2,2.07-4.38,3.17-6.54-4.78-2.71-8.73-6.88-11.16-11.81-.92-1.87-1.61-4.15-.59-5.97,1.19-2.12,4.32-2.49,6.44-1.29,2.12,1.2,3.37,3.5,4.18,5.79,1.36,3.85,1.73,7.65,1.97,11.65,3.48-6.61,7.43-12.98,11.9-18.97-4.2-3.42-7.36-8.1-8.96-13.28-.61-1.99-.94-4.36.36-5.99,1.51-1.91,4.66-1.77,6.56-.25,1.9,1.52,2.77,3.99,3.21,6.38.7,3.88.51,7.56.14,11.4,4.81-6.23,10.38-12.25,17.16-16.29.14-.08.29-.16.43-.24-3.73-4.01-6.24-9.14-7.09-14.55-.32-2.06-.3-4.45,1.21-5.88,1.77-1.67,4.87-1.09,6.53.69,1.66,1.78,2.18,4.34,2.26,6.77.16,4.29-.7,8.18-1.73,12.28,7.97-4.45,16.79-7.45,24.58-12.17-3.84-4.04-6.42-9.25-7.29-14.76-.32-2.06-.3-4.45,1.21-5.88,1.77-1.67,4.87-1.08,6.53.69,1.66,1.78,2.18,4.34,2.26,6.77.16,4.4-.75,8.39-1.81,12.62,1.93-1.21,3.79-2.54,5.55-4.03,3.57-3.03,6.45-6.79,8.66-10.95-4.9-2.91-8.87-7.37-11.17-12.58-.84-1.91-1.44-4.22-.34-5.99,1.28-2.07,4.42-2.3,6.49-1.01,2.07,1.29,3.22,3.64,3.93,5.96,1.31,4.27,1.44,8.41,1.5,12.83,3.43-6.8,5.09-14.59,5.01-22.03-4.09-3.16-7.28-7.48-9.07-12.34-.72-1.96-1.17-4.3.04-6,1.41-1.98,4.56-2.02,6.54-.6,1.98,1.42,2.98,3.83,3.55,6.2.9,3.78.92,7.41.76,11.19.07.12.11.27.12.44.21,6.33-.88,12.67-3.01,18.63-.47,1.31-.99,2.62-1.56,3.9,3.62-3.49,8.21-5.98,13.12-7.08,2.03-.46,4.42-.59,5.94.83,1.78,1.66,1.4,4.79-.26,6.56-1.66,1.78-4.19,2.46-6.61,2.7-4.52.46-8.67-.24-13.1-1.06-1.31,2.64-2.87,5.15-4.76,7.4-2.86,3.41-6.26,6.13-9.94,8.46,4.94-1.58,10.33-1.75,15.36-.45,2.02.52,4.2,1.49,4.91,3.45.83,2.29-.94,4.9-3.23,5.72-2.29.82-4.85.27-7.12-.61-4.34-1.7-7.79-4.31-11.47-7.15-6.18,3.67-13.02,6.38-19.42,9.48-2.01.98-3.98,2-5.89,3.13,5.27-1.99,11.16-2.32,16.61-.91,2.02.52,4.2,1.48,4.91,3.44.83,2.29-.93,4.9-3.22,5.72-2.29.83-4.85.28-7.12-.6-4.45-1.73-7.96-4.42-11.73-7.33-2.02,1.22-3.95,2.57-5.78,4.12-3.33,2.84-6.34,6.05-9.12,9.42-.74.9-1.46,1.81-2.18,2.73,4.59-2.25,9.81-3.21,14.89-2.71,2.07.2,4.38.82,5.38,2.65,1.17,2.13-.17,4.98-2.31,6.15-2.14,1.16-4.75,1.02-7.13.49-4.39-.97-8.09-2.91-12-5.06-4.37,5.84-8.19,12.11-11.58,18.57,4.07-3.45,9.14-5.7,14.43-6.37,2.07-.26,4.45-.17,5.84,1.39,1.62,1.82.94,4.9-.89,6.51-1.83,1.61-4.41,2.04-6.84,2.06-4.62.03-8.75-1.11-13.17-2.37-.44.86-.88,1.72-1.31,2.59-2.35,4.75-4.48,9.63-6.35,14.61,4.01-3.3,8.96-5.45,14.12-6.1,2.07-.26,4.45-.17,5.84,1.39,1.62,1.82.94,4.9-.89,6.51-1.83,1.61-4.41,2.04-6.84,2.06-4.49.03-8.53-1.05-12.81-2.26-2.05,5.7-3.74,11.53-4.93,17.47-.25,1.24-2.15.76-1.9-.47,1.21-5.99,2.92-11.88,4.99-17.63-4.8-2.73-8.76-6.93-11.2-11.91-.92-1.88-1.62-4.18-.6-6Z"/>
          <g>
            <path class="cls-18" d="M964.39,295.05l1.32,33.33c2.93-2.51,6.14-4.74,9.24-7,3.04-2.22,6.06-4.54,8.68-7.27,2.67-2.78,4.62-5.95,6.27-9.41,1.59-3.35,3.03-6.81,5.3-9.79,1.78-2.34,4.06-4.25,6.51-5.85,5.09-3.33,10.87-5.4,16.04-8.57,2.61-1.59,5.04-3.48,6.99-5.84,2.36-2.85,3.96-6.23,5.45-9.59,1.48-3.35,2.86-6.77,4.77-9.92,1.63-2.68,3.65-5.11,5.97-7.21,4.64-4.23,10.34-7.19,16.32-9.02,14.64-4.49,30.13-1.81,44.71,1.55.86.2,1.72.4,2.59.61.47-8.73-12.58-14.55-20.58-15.4-5.47-.59-10.84,1.69-16.33,1.95-27.81,1.31-46.61-6.75-57.14,26.16-1.18,3.68-2.13,7.59-4.62,10.55-11.39,11.71-42.79,6.76-41.48,30.73Z"/>
            <path class="cls-15" d="M991.16,361.1c23.14,6.43,44.48-14.89,27.93-38.97-11.16-12.21,1.31-21.33,12.81-25.18,5.71-1.92,12.8-2.77,15.49-8.16,4.46-12.13-12.01-25.97,12.67-33.92,13.92-4.49,41.3,5.93,44.38-12.84.01-.09.03-.18.04-.27-13.84-3.28-28.32-6.33-42.46-3.36-6.21,1.3-12.25,3.71-17.41,7.43-2.52,1.82-4.82,3.95-6.76,6.39-2.16,2.71-3.76,5.76-5.18,8.92-1.5,3.34-2.84,6.76-4.66,9.94-1.6,2.8-3.6,5.3-6.11,7.35-4.53,3.7-10.03,5.89-15.18,8.56-2.62,1.36-5.2,2.85-7.49,4.75-2.6,2.17-4.56,4.85-6.12,7.85-1.7,3.28-3.02,6.76-4.98,9.9-1.89,3.04-4.37,5.66-7.07,7.99-4.87,4.21-10.46,7.54-15.31,11.79,0,0-.62,24.63,25.42,31.86Z"/>
            <path class="cls-42" d="M965.71,328.39l.04.86c4.85-4.24,10.44-7.57,15.31-11.79,2.7-2.33,5.19-4.94,7.07-7.99,1.96-3.15,3.27-6.62,4.98-9.9,1.56-3,3.51-5.67,6.12-7.85,2.28-1.89,4.87-3.39,7.49-4.75,5.15-2.66,10.65-4.86,15.18-8.56,2.51-2.05,4.51-4.55,6.11-7.35,1.82-3.19,3.16-6.61,4.66-9.94,1.42-3.15,3.02-6.21,5.18-8.92,1.95-2.43,4.24-4.57,6.76-6.39,5.16-3.72,11.21-6.13,17.41-7.43,14.13-2.97,28.61.09,42.46,3.36.03-.23.06-.45.07-.68-.87-.21-1.73-.41-2.59-.61-14.57-3.35-30.07-6.04-44.71-1.55-5.98,1.83-11.68,4.78-16.32,9.02-2.32,2.11-4.34,4.53-5.97,7.21-1.91,3.14-3.29,6.56-4.77,9.92-1.48,3.36-3.09,6.74-5.45,9.59-1.95,2.37-4.38,4.25-6.99,5.84-5.17,3.17-10.95,5.25-16.04,8.57-2.46,1.6-4.74,3.51-6.51,5.85-2.27,2.98-3.71,6.44-5.3,9.79-1.65,3.46-3.6,6.63-6.27,9.41-2.62,2.73-5.64,5.05-8.68,7.27-3.09,2.26-6.3,4.49-9.24,7Z"/>
            <path class="cls-6" d="M965.71,328.39l.04.86c4.85-4.24,10.44-7.57,15.31-11.79,2.7-2.33,5.19-4.94,7.07-7.99,1.96-3.15,3.27-6.62,4.98-9.9,1.56-3,3.51-5.67,6.12-7.85,2.28-1.89,4.87-3.39,7.49-4.75,5.15-2.66,10.65-4.86,15.18-8.56,2.51-2.05,4.51-4.55,6.11-7.35,1.82-3.19,3.16-6.61,4.66-9.94,1.42-3.15,3.02-6.21,5.18-8.92,1.95-2.43,4.24-4.57,6.76-6.39,5.16-3.72,11.21-6.13,17.41-7.43,14.13-2.97,28.61.09,42.46,3.36.03-.23.06-.45.07-.68-.87-.21-1.73-.41-2.59-.61-14.57-3.35-30.07-6.04-44.71-1.55-5.98,1.83-11.68,4.78-16.32,9.02-2.32,2.11-4.34,4.53-5.97,7.21-1.91,3.14-3.29,6.56-4.77,9.92-1.48,3.36-3.09,6.74-5.45,9.59-1.95,2.37-4.38,4.25-6.99,5.84-5.17,3.17-10.95,5.25-16.04,8.57-2.46,1.6-4.74,3.51-6.51,5.85-2.27,2.98-3.71,6.44-5.3,9.79-1.65,3.46-3.6,6.63-6.27,9.41-2.62,2.73-5.64,5.05-8.68,7.27-3.09,2.26-6.3,4.49-9.24,7Z"/>
          </g>
          <g>
            <path class="cls-4" d="M191.74,299.25c7.27,10.41,24.45,11.29,32.47,21.58,4.38,6.1,2.42,12.86,1.98,19.2.22,11.47,1.15,24.32,7.45,35.82,3.26,5.17,8.37,9.71,10.64,15.11-5.24.44-11.62.11-18.01-1.14-.13-.11-.27-.23-.4-.35-5.07-4.65-9.02-10.72-9.47-17.74-.41-6.39,1.7-13.18-.92-19.3-1.43-3.35-4.18-5.86-6.78-8.3-2.68-2.53-5.11-5.12-6.61-8.53-2.5-5.7-2.97-12.69-7.5-17.32-2.77-2.82-6.62-3.94-10.16-5.47-1.98-.85-3.89-1.87-5.45-3.38-1.33-1.29-2.38-2.82-3.27-4.44-1.74-3.19-2.89-6.66-4.59-9.88-1.72-3.27-4.11-6.06-6.95-8.4-6.21-5.11-13.86-7.86-21.03-11.29-6.48-3.11-13.19-7.04-17.19-13.22-.14-.21-.27-.42-.4-.64.61-.92,1.51-1.73,2.73-2.37,10.92-4.07,21.43,10.68,32.02,13.98,12.46,2.6,22.18.14,26.72,14.8,1.28,3.81,2.17,7.77,4.7,11.29Z"/>
            <path class="cls-34" d="M143.16,275.41c7.17,3.43,14.82,6.19,21.03,11.29,2.84,2.34,5.23,5.13,6.95,8.4,1.69,3.22,2.84,6.69,4.59,9.88.88,1.62,1.94,3.15,3.27,4.44,1.56,1.51,3.47,2.53,5.45,3.38,3.53,1.52,7.39,2.64,10.16,5.47,4.53,4.63,5,11.63,7.5,17.32,1.5,3.41,3.93,6.01,6.61,8.53,2.6,2.45,5.35,4.95,6.78,8.3,2.62,6.12.5,12.91.92,19.3.45,7.02,4.4,13.09,9.47,17.74.13.12.26.24.4.35-.32-.06-.65-.13-.97-.2-14.73-3.08-29.12-11.04-28.93-25.57,1.74-6.98,3.86-12.57-6.2-17.29-15.72-9.62-35.24-14.21-33.99-33.32-.03-8.53,3.8-21.27-6.01-28.41-4.27-2.29-9.15-2.42-13.46-4.59-7.92-3.3-14.49-12.73-11.43-18.4.08-.17.18-.33.3-.5.13.22.26.43.4.64,4,6.18,10.71,10.11,17.19,13.22Z"/>
            <path class="cls-33" d="M143.16,275.41c7.17,3.43,14.82,6.19,21.03,11.29,2.84,2.34,5.23,5.13,6.95,8.4,1.69,3.22,2.84,6.69,4.59,9.88.88,1.62,1.94,3.15,3.27,4.44,1.56,1.51,3.47,2.53,5.45,3.38,3.53,1.52,7.39,2.64,10.16,5.47,4.53,4.63,5,11.63,7.5,17.32,1.5,3.41,3.93,6.01,6.61,8.53,2.6,2.45,5.35,4.95,6.78,8.3,2.62,6.12.5,12.91.92,19.3.45,7.02,4.4,13.09,9.47,17.74.13.12.26.24.4.35-.32-.06-.65-.13-.97-.2-1.2-1.12-2.34-2.32-3.42-3.63-1.98-2.41-3.62-5.11-4.68-8.05-1.13-3.12-1.44-6.37-1.33-9.67.12-3.37.59-6.75.37-10.12-.24-3.86-1.65-7.17-4.23-10.06-2.53-2.82-5.62-5.11-7.94-8.13-1.95-2.54-3.08-5.54-4.03-8.57-.99-3.17-1.8-6.43-3.37-9.38-1.9-3.58-4.92-5.67-8.61-7.21-3.56-1.49-7.3-2.72-10-5.62-2.39-2.57-3.79-5.86-5.16-9.05-1.51-3.51-3.09-6.92-5.65-9.81-2.72-3.07-6.12-5.47-9.67-7.47-10.69-6.04-25.67-9.73-32.33-20.81.08-.17.18-.33.3-.5.13.22.26.43.4.64,4,6.18,10.71,10.11,17.19,13.22Z"/>
          </g>
          <g>
            <path class="cls-18" d="M236.25,387.29l9.72,33.04c-3.7-1.49-7.57-2.6-11.35-3.8-3.71-1.17-7.42-2.44-10.89-4.25-3.53-1.84-6.49-4.29-9.24-7.13-2.66-2.75-5.21-5.66-8.42-7.83-2.51-1.7-5.37-2.82-8.3-3.57-6.08-1.57-12.41-1.69-18.52-3.09-3.08-.7-6.07-1.74-8.76-3.41-3.25-2.01-5.93-4.78-8.49-7.58-2.56-2.79-5.04-5.68-7.94-8.13-2.48-2.08-5.25-3.79-8.22-5.09-5.94-2.61-12.49-3.62-18.94-3.43-15.8.44-30.07,8.18-43.22,16.27-.78.48-1.55.96-2.33,1.45-3.34-8.38,7.51-18.38,15.04-21.86,5.16-2.38,11.16-1.92,16.61-3.49,27.64-7.9,43.37-21.99,64.53,6.72,2.37,3.22,4.59,6.72,8,8.8,15.01,7.69,44.08-7.52,50.72,16.36Z"/>
            <path class="cls-15" d="M231.87,460.74c-20.52,13.93-48.42.12-40.18-28.9,6.89-15.62-8.33-20.43-20.85-20.4-6.22,0-13.44,1.51-17.84-2.87-8.37-10.39,3.18-29.37-23.59-29-15.1.2-38.44,19.44-47.65,2.09-.04-.08-.09-.17-.12-.25,12.46-7.77,25.61-15.54,40.42-17.3,6.5-.77,13.21-.41,19.48,1.52,3.07.94,6.02,2.28,8.72,4.01,3.01,1.93,5.58,4.4,8.01,7.01,2.57,2.77,5.01,5.67,7.84,8.19,2.49,2.21,5.28,4,8.4,5.18,5.65,2.12,11.75,2.45,17.67,3.36,3.01.47,6.03,1.07,8.89,2.17,3.27,1.27,6.06,3.24,8.58,5.66,2.75,2.65,5.19,5.61,8.14,8.05,2.85,2.36,6.14,4.09,9.56,5.48,6.16,2.51,12.72,3.93,18.87,6.47,0,0,8.73,23.88-14.35,39.55Z"/>
            <path class="cls-42" d="M245.97,420.33l.25.85c-6.14-2.55-12.71-3.96-18.87-6.47-3.41-1.39-6.71-3.12-9.56-5.48-2.95-2.43-5.39-5.4-8.14-8.05-2.52-2.42-5.31-4.39-8.58-5.66-2.86-1.1-5.88-1.7-8.89-2.17-5.92-.9-12.02-1.23-17.67-3.36-3.13-1.18-5.91-2.96-8.4-5.18-2.83-2.51-5.27-5.42-7.84-8.19-2.43-2.61-5-5.08-8.01-7.01-2.71-1.74-5.66-3.07-8.72-4.01-6.28-1.94-12.98-2.3-19.48-1.52-14.81,1.77-27.96,9.53-40.42,17.3-.11-.21-.21-.43-.29-.64.78-.49,1.55-.97,2.33-1.45,13.15-8.09,27.42-15.83,43.22-16.27,6.45-.18,13.01.82,18.94,3.43,2.96,1.3,5.74,3,8.22,5.09,2.9,2.44,5.38,5.33,7.94,8.13,2.56,2.8,5.25,5.57,8.49,7.58,2.69,1.67,5.69,2.71,8.76,3.41,6.11,1.4,12.44,1.52,18.52,3.09,2.93.75,5.79,1.87,8.3,3.57,3.2,2.16,5.75,5.08,8.42,7.83,2.75,2.84,5.71,5.3,9.24,7.13,3.47,1.81,7.18,3.08,10.89,4.25,3.77,1.19,7.65,2.31,11.35,3.8Z"/>
            <path class="cls-6" d="M245.97,420.33l.25.85c-6.14-2.55-12.71-3.96-18.87-6.47-3.41-1.39-6.71-3.12-9.56-5.48-2.95-2.43-5.39-5.4-8.14-8.05-2.52-2.42-5.31-4.39-8.58-5.66-2.86-1.1-5.88-1.7-8.89-2.17-5.92-.9-12.02-1.23-17.67-3.36-3.13-1.18-5.91-2.96-8.4-5.18-2.83-2.51-5.27-5.42-7.84-8.19-2.43-2.61-5-5.08-8.01-7.01-2.71-1.74-5.66-3.07-8.72-4.01-6.28-1.94-12.98-2.3-19.48-1.52-14.81,1.77-27.96,9.53-40.42,17.3-.11-.21-.21-.43-.29-.64.78-.49,1.55-.97,2.33-1.45,13.15-8.09,27.42-15.83,43.22-16.27,6.45-.18,13.01.82,18.94,3.43,2.96,1.3,5.74,3,8.22,5.09,2.9,2.44,5.38,5.33,7.94,8.13,2.56,2.8,5.25,5.57,8.49,7.58,2.69,1.67,5.69,2.71,8.76,3.41,6.11,1.4,12.44,1.52,18.52,3.09,2.93.75,5.79,1.87,8.3,3.57,3.2,2.16,5.75,5.08,8.42,7.83,2.75,2.84,5.71,5.3,9.24,7.13,3.47,1.81,7.18,3.08,10.89,4.25,3.77,1.19,7.65,2.31,11.35,3.8Z"/>
          </g>
          <g>
            <path class="cls-30" d="M832.71,152.9s-25.72,3.8-25.28,3.55c.44-.26,47.08,23.66,47.08,23.66l45.95-20.59-22.78-6.62h-44.96Z"/>
            <g>
              <path class="cls-32" d="M842.59,187.99c-.13,0-.26,0-.39,0-.08,0-.16,0-.24,0-6.54.08-10.82-.09-10.82-.09,0,0-.31.07-.89.19-5.59,1.16-35.76,6.91-33.19-4.46,2.25-9.98,20.35-8.74,27.61-7.82.03,0,.05,0,.07,0,1.81.23,2.93.44,2.93.44,0,0,3.6-1.55,9.28-3.75.23-.09.47-.19.71-.28,18.72-7.27,58.1-21.04,68.29-12.76h0c.11.09.22.19.33.28,0,0,.02,0,.02.01.11.1.21.21.31.31.09.09.18.18.26.29.03.03.06.07.1.11.11.14.22.29.32.44,0,0,0,0,0,0,.11.16.21.33.3.5.09.17.17.33.24.51.17.37.29.77.38,1.19.09.43.17.84.22,1.26.09.74.13,1.45.1,2.15-.82,18.36-44.62,21.17-65.96,21.45Z"/>
              <path class="cls-17" d="M842.93,190.13l-.72-2.14-.31-.93s0-.01,0-.01l-4.92-14.55-.71-2.09c18.74-7.27,59.34-19.6,69.7-10.97h0c.12.1.23.2.33.3,0,0,.02,0,.02.01.11.1.21.21.31.31.09.09.18.18.26.29.03.03.06.07.1.11.11.14.22.29.32.44,0,0,0,0,0,0,.11.16.21.33.3.5.09.17.17.33.24.51.17.37.29.77.38,1.19.09.43.17.84.22,1.26.09.74.13,1.45.1,2.15-.75,18.58-44.27,23.31-65.62,23.59Z"/>
              <path class="cls-17" d="M827.67,176.31s-34.12-6.67-35.61,7.76c-1.6,15.5,39.08,3.89,39.08,3.89,0,0-15.69,3.43-14.94-5.37.72-8.51,11.47-6.29,11.47-6.29Z"/>
            </g>
            <path class="cls-32" d="M878.38,117.75c-6.7,9.4-.71,35.15-.71,35.15h-44.96c1.24-1.76,4.74-23.95-3.14-36.18-12.72-19.73.98-35.07.98-35.07l18.7-3.4,1.19-5.95.82-4.1.19-.95h8.41l.31,1.79.66,3.9.97,5.75,17.19,3.73s14.72,13.8-.62,35.35Z"/>
            <path class="cls-38" d="M878.37,117.76c-6.7,9.4-.7,35.14-.7,35.14h-44.96c1.06-1.5,3.75-17.82-.34-30.18-.71-2.16-1.64-4.19-2.8-6.01-12.72-19.73.98-35.07.98-35.07l18.71-3.4c.72,4.18,10.92,3.94,12.55.43l17.18,3.74s14.73,13.79-.61,35.35Z"/>
            <path class="cls-26" d="M832.71,152.9c1.06-1.5,3.75-17.82-.34-30.18,8.87-2.58,7.37,22.03,22.14,30.18h-21.79Z"/>
            <path class="cls-32" d="M902.83,137.32c-.47,2.91-2.52,6.07-5.56,9.19-7.77,7.98-23.59,7.62-34.44,10.52l-1.13-5.78s19.37-5.46,23.54-12.26c.44-.73.75-1.4.87-2,1.41-6.77-6.43-15.24-6.43-15.24l-.83-39.32s26.34,40.08,23.98,54.89Z"/>
            <path class="cls-38" d="M903.08,137.31c-.5,2.74-2.15,6.18-4.88,9.19-.29.32-.77.37-1.12.14l-3.33-2.16-8.73-5.66c.44-.72.67-1.45.79-2.06,1.41-6.77-11.15-17.25-11.15-17.25l3.02-37.34c4.05-.18,10.69,9.05,16.21,20.37,0,0,0,.02.02.04,5.97,12.25,10.61,26.92,9.17,34.72Z"/>
            <path class="cls-32" d="M848.51,151.35l.2,3.85c.35-.12.32-.63-.04-.7-9.67-2-25.57.77-33.31-5.81-4.77-4.06-7.37-9.05-7.99-12.9-2.36-14.81,23.33-54.11,23.33-54.11l-.95,39.27s-7.84,8.47-6.43,15.24c.25,1.2,1.2,2.69,2.59,4.31,5.8,6.81,22.59,10.85,22.59,10.85Z"/>
            <path class="cls-38" d="M823.32,136.18c.25,1.2,1.89,2.26,3.28,3.88l-8.11,6.74-3.26,2.71c-4.77-4.06-7.57-9.25-8.62-13-1.62-5.78.69-15.65,4.58-25.45.02-.05.03-.08.03-.08,5.87-14.79,15.32-29.39,20.25-29.51l2.85,39.85s-12.41,8.09-10.99,14.86Z"/>
            <g>
              <path class="cls-32" d="M912.11,182.37c2.71,11.56-28.06,5.95-33.77,4.82-.58-.12-.9-.18-.9-.18,0,0-4.46.21-11.26.18-.13,0-.27,0-.4,0-9.87-.05-24.48-.59-37.56-2.93-16.05-2.86-29.83-8.41-29.81-19.04,0-.02,0-.04,0-.06,0-.43.03-.87.08-1.32,0-.01,0-.02,0-.02.06-.46.13-.93.23-1.41.09-.43.22-.84.38-1.22.07-.18.15-.35.24-.52.09-.18.2-.35.3-.52,0,0,0,0,0,0,.1-.15.21-.31.32-.45.03-.04.06-.08.1-.11.08-.11.17-.21.26-.3.1-.11.21-.22.32-.32,0-.01.01-.02.02-.02,1.24-1.16,2.98-1.94,5.12-2.42,14.68-3.26,47.99,8.16,64.87,14.55.24.09.49.19.73.28,5.81,2.2,9.49,3.75,9.49,3.75,0,0,1.14-.22,2.98-.47.02,0,.05,0,.07-.01,7.38-.99,25.8-2.41,28.19,7.74Z"/>
              <path class="cls-30" d="M872.09,169.24l-.7,2.13-5.21,15.82-.72,2.18c-8.96-.04-21.76-.82-33.77-3.05h0c-17.49-3.24-33.33-9.55-33.27-21.09,0-.02,0-.04,0-.06,0-.43.03-.88.08-1.32,0-.01,0-.02,0-.02.06-.46.13-.93.23-1.41.09-.43.22-.84.38-1.22.07-.18.15-.35.24-.52.09-.18.2-.35.3-.52,0,0,0,0,0,0,.1-.15.21-.31.32-.45.03-.04.06-.08.1-.11.08-.11.17-.21.26-.3.1-.11.21-.22.32-.32,0-.01.01-.02.02-.02,1.28-1.24,3.11-2.1,5.37-2.64,15.09-3.68,49.2,6.54,66.05,12.92Z"/>
              <path class="cls-30" d="M880.88,175.16s34.7-7.08,36.34,7.6c1.76,15.77-39.77,4.29-39.77,4.29,0,0,15.17,2.87,14.34-6.08-.81-8.67-10.9-5.82-10.9-5.82Z"/>
            </g>
            <path class="cls-23" d="M883.03,114.61h-56.54c-1.99,0-3.29,2.02-2.92,4.46l5.57,36.75c.24,1.61,1.71,2.89,3.28,2.89h44.68c1.57,0,3.04-1.28,3.28-2.89l5.57-36.75c.37-2.44-.94-4.46-2.92-4.46Z"/>
            <path class="cls-40" d="M903.08,137.31c-.5,2.74-2.15,6.18-4.88,9.19-.29.32-.77.37-1.12.14l-3.33-2.16c1.75-3.04,4.33-5.44,5.54-10.14,3.25-12.58-4.94-30.65-5.38-31.74,5.97,12.25,10.61,26.92,9.17,34.72Z"/>
            <path class="cls-17" d="M844.07,57.02s-6.74-7.22-1.27-16.81c0,0,1.65,2.99,3.61,2.17,0,0,.1-7.01,14.34-8.46,0,0-1.03,2.78-.52,3.51,4.69-2.06,9.25,3.06,13.82,1.13,0,0,1.26,8.13-4,12.87,0,0,.8,2.81-1.06,5.59-1.86,2.78-24.92,0-24.92,0Z"/>
            <path class="cls-32" d="M846.2,54.84s-3.07-3.01-3.36-.09c-.34,3.45,3.77,6.02,3.77,6.02,0,0,1,10.68,10.01,10.68s10.43-10.72,10.43-10.72c0,0,4.7-1.28,3.7-5.34-.47-1.93-2.92.04-2.92.04v-5.07s-2.51,1.27-7.34-.8c-3.5-1.5-4.75-3.59-7.74-3.47-3.41.14-6.68,3.88-6.54,8.75Z"/>
          </g>
          <g>
            <path class="cls-27" d="M209.07,218.62c-5.58-7.01-4.41-17.22,2.6-22.8,7.01-5.58,17.22-4.41,22.8,2.6,5.58,7.01,4.41,17.22-2.6,22.8-7.01,5.58-17.22,4.41-22.8-2.6Z"/>
            <path class="cls-27" d="M241.04,172.46c-1.37,1.09-3.27,1.44-5.01.75-.72-.27-18.39-6.75-36.35,7.53-18.12,14.41-16.95,33.11-16.9,33.9.21,2.78-1.88,5.22-4.66,5.44-2.78.22-5.22-1.84-5.45-4.62-.08-1-1.81-24.77,20.69-42.66,22.66-18.02,45.41-9.4,46.36-9.03,2.61,1.02,3.89,3.96,2.87,6.57-.34.86-.88,1.58-1.56,2.11Z"/>
            <path class="cls-27" d="M241.48,142.07c-1.37,1.09-3.27,1.44-5.01.75-1.16-.44-29.02-10.78-57.3,11.72-28.45,22.63-26.51,52.04-26.42,53.28.22,2.79-1.87,5.22-4.65,5.45-2.78.22-5.22-1.84-5.46-4.62-.12-1.46-2.62-35.94,30.21-62.05,32.99-26.24,65.93-13.76,67.31-13.22,2.61,1.02,3.89,3.96,2.87,6.57-.34.86-.88,1.58-1.56,2.11Z"/>
            <path class="cls-27" d="M238.42,115.42c-1.37,1.09-3.27,1.44-5.01.75-1.47-.57-36.84-13.74-72.74,14.81-36.06,28.68-33.56,65.99-33.43,67.57.22,2.79-1.86,5.23-4.64,5.46-2.79.23-5.23-1.84-5.46-4.62-.15-1.79-3.22-44.17,37.23-76.34,40.61-32.3,81.05-16.98,82.76-16.31,2.61,1.02,3.89,3.97,2.87,6.57-.34.86-.88,1.58-1.56,2.11Z"/>
            <path class="cls-27" d="M239.17,87.04c-1.37,1.09-3.27,1.44-5.01.75-1.88-.73-46.9-17.56-92.59,18.78-45.84,36.46-42.49,85.44-42.46,85.93.22,2.79-1.85,5.23-4.64,5.46-2.79.23-5.23-1.84-5.47-4.62-.19-2.22-3.99-54.75,46.25-94.71,50.4-40.09,100.5-21.11,102.6-20.28,2.61,1.02,3.89,3.97,2.87,6.57-.34.86-.88,1.58-1.56,2.11Z"/>
          </g>
          <g>
            <rect class="cls-33" x="209.19" y="200.25" width="783.2" height="445.73"/>
            <rect class="cls-8" x="531.79" y="666.36" width="141.71" height="124.66"/>
            <path class="cls-28" d="M673.5,666.36v124.66h-19.13c1.36-12.46,2.88-49.98-23.02-78.74-24-26.6-75.55-29.66-99.55-29.44v-16.49h141.71Z"/>
            <path class="cls-8" d="M744.88,791.02h-284.47c-23.46,0-42.48,19.02-42.48,42.49h369.44c0-23.46-19.02-42.49-42.48-42.49Z"/>
            <path class="cls-24" d="M990.6,183.29H214.68c-6.38,0-11.56,5.48-11.56,12.23v465.5c0,6.75,5.18,12.23,11.56,12.23h775.92c6.39,0,11.56-5.48,11.56-12.23V195.52c0-6.75-5.17-12.23-11.56-12.23ZM989.03,614.13c0,7.2-5.59,13.04-12.48,13.04H224.06c-6.9,0-12.49-5.84-12.49-13.04V213.28c0-7.2,5.6-13.04,12.49-13.04h752.49c6.9,0,12.48,5.84,12.48,13.04v400.85Z"/>
            <path class="cls-28" d="M744.88,791.02h-284.47c-13.2,0-25,6.02-32.79,15.47,5.14-2.21,10.8-3.44,16.75-3.44h284.47c19.28,0,35.54,12.86,40.73,30.45h17.8c0-23.46-19.02-42.49-42.48-42.49Z"/>
            <rect class="cls-35" x="246.81" y="239.47" width="404.94" height="146.51"/>
            <rect class="cls-35" x="891.62" y="485.34" width="35.21" height="35.21"/>
            <rect class="cls-35" x="937.57" y="485.34" width="35.21" height="35.21"/>
            <rect class="cls-35" x="891.62" y="541.3" width="35.21" height="35.21"/>
            <rect class="cls-35" x="937.57" y="541.3" width="35.21" height="35.21"/>
            <path class="cls-35" d="M636.05,425.59H251.13c-2.04,0-3.69-2.25-3.69-5.03h0c0-2.78,1.65-5.03,3.69-5.03h384.92c2.04,0,3.69,2.25,3.69,5.03h0c0,2.78-1.65,5.03-3.69,5.03Z"/>
            <path class="cls-35" d="M636.05,448.86H251.13c-2.04,0-3.69-2.25-3.69-5.03h0c0-2.78,1.65-5.03,3.69-5.03h384.92c2.04,0,3.69,2.25,3.69,5.03h0c0,2.78-1.65,5.03-3.69,5.03Z"/>
            <rect class="cls-35" x="507.77" y="485.34" width="353.05" height="91.17"/>
            <rect class="cls-35" x="713.13" y="241.83" width="103.46" height="77.61"/>
            <rect class="cls-35" x="860.77" y="241.83" width="103.46" height="77.61"/>
            <rect class="cls-35" x="713.13" y="346.4" width="103.46" height="77.61"/>
            <rect class="cls-35" x="860.77" y="346.4" width="103.46" height="77.61"/>
            <g>
              <path class="cls-35" d="M318.68,491.06h-68.56c-1.48,0-2.69-1.28-2.69-2.86h0c0-1.58,1.2-2.86,2.69-2.86h68.56c1.48,0,2.69,1.28,2.69,2.86h0c0,1.58-1.2,2.86-2.69,2.86Z"/>
              <path class="cls-35" d="M439.78,491.06h-106.22c-1.48,0-2.69-1.28-2.69-2.86h0c0-1.58,1.2-2.86,2.69-2.86h106.22c1.48,0,2.69,1.28,2.69,2.86h0c0,1.58-1.2,2.86-2.69,2.86Z"/>
              <path class="cls-35" d="M479.53,491.06h-22.29c-1.29,0-2.34-1.11-2.34-2.49h0c0-1.37,1.05-2.49,2.34-2.49h22.29c1.29,0,2.34,1.11,2.34,2.49h0c0,1.37-1.05,2.49-2.34,2.49Z"/>
              <path class="cls-35" d="M479.18,520.6h-229.05c-1.48,0-2.69-1.28-2.69-2.86h0c0-1.58,1.2-2.86,2.69-2.86h229.05c1.48,0,2.69,1.28,2.69,2.86h0c0,1.58-1.2,2.86-2.69,2.86Z"/>
              <path class="cls-35" d="M318.68,576.51h-68.56c-1.48,0-2.69-1.28-2.69-2.86h0c0-1.58,1.2-2.86,2.69-2.86h68.56c1.48,0,2.69,1.28,2.69,2.86h0c0,1.58-1.2,2.86-2.69,2.86Z"/>
              <path class="cls-35" d="M439.78,576.51h-106.22c-1.48,0-2.69-1.28-2.69-2.86h0c0-1.58,1.2-2.86,2.69-2.86h106.22c1.48,0,2.69,1.28,2.69,2.86h0c0,1.58-1.2,2.86-2.69,2.86Z"/>
              <path class="cls-35" d="M364.1,546.97h-113.98c-1.48,0-2.69-1.28-2.69-2.86h0c0-1.58,1.2-2.86,2.69-2.86h113.98c1.48,0,2.69,1.28,2.69,2.86h0c0,1.58-1.2,2.86-2.69,2.86Z"/>
              <path class="cls-35" d="M479.18,546.97h-87.76c-1.48,0-2.69-1.28-2.69-2.86h0c0-1.58,1.2-2.86,2.69-2.86h87.76c1.48,0,2.69,1.28,2.69,2.86h0c0,1.58-1.2,2.86-2.69,2.86Z"/>
              <path class="cls-35" d="M479.53,576.51h-22.29c-1.29,0-2.34-1.11-2.34-2.49h0c0-1.37,1.05-2.49,2.34-2.49h22.29c1.29,0,2.34,1.11,2.34,2.49h0c0,1.37-1.05,2.49-2.34,2.49Z"/>
            </g>
          </g>
          <g>
            <path class="cls-22" d="M852.33,550.5l-229.88-398.16c-7.23-12.52-25.3-12.52-32.53,0l-229.88,398.16c-7.23,12.52,1.81,28.17,16.26,28.17h459.76c14.46,0,23.49-15.65,16.26-28.17Z"/>
            <path class="cls-33" d="M816.26,537.32l-200.43-347.15c-4.29-7.43-15.01-7.43-19.29,0l-200.43,347.15c-4.29,7.43,1.07,16.71,9.65,16.71h400.86c8.58,0,13.93-9.28,9.65-16.71Z"/>
            <path class="cls-21" d="M816.26,537.32l-200.43-347.15c-4.29-7.43-15.01-7.43-19.29,0l-1.07,1.86,192.71,333.79c4.29,7.43-1.07,16.71-9.65,16.71h-383.9c-.19,5.95,4.5,11.5,11.13,11.5h400.86c8.58,0,13.93-9.28,9.65-16.71Z"/>
            <g>
              <path class="cls-21" d="M606.18,465.22c-10.32,0-19.09-8.06-19.96-18.34l-12.65-149.64c-.47-5.57,1.43-11.12,5.21-15.24,3.78-4.11,9.16-6.48,14.74-6.48h25.29c5.59,0,10.96,2.36,14.75,6.48,3.78,4.12,5.68,9.67,5.21,15.24l-12.65,149.64c-.87,10.28-9.63,18.34-19.96,18.34Z"/>
              <path class="cls-22" d="M618.83,282.02h-25.29c-7.93,0-14.16,6.78-13.49,14.68l12.65,149.64c.59,7.01,6.46,12.4,13.49,12.4s12.9-5.39,13.49-12.4l12.65-149.64c.67-7.9-5.56-14.68-13.49-14.68Z"/>
              <path class="cls-21" d="M606.18,517.91c-12.5,0-22.66-10.17-22.66-22.66s10.17-22.66,22.66-22.66,22.66,10.17,22.66,22.66-10.17,22.66-22.66,22.66Z"/>
              <path class="cls-22" d="M590,495.24c0-8.93,7.24-16.18,16.18-16.18s16.18,7.24,16.18,16.18-7.24,16.18-16.18,16.18-16.18-7.24-16.18-16.18Z"/>
            </g>
          </g>
          <g>
            <circle class="cls-22" cx="243.39" cy="73.15" r="28.34" transform="translate(9.4 172.34) rotate(-39.7)"/>
            <path class="cls-33" d="M252,88.35c1.66-1.55,3.31-3.1,4.97-4.65-3.78-3.5-7.56-7.01-11.34-10.51,4.05-3.19,8.1-6.37,12.15-9.56-1.52-1.68-3.05-3.36-4.57-5.04-3.62,3.7-7.23,7.4-10.85,11.1-3.24-3.98-6.47-7.96-9.71-11.93-1.66,1.55-3.31,3.1-4.97,4.65,3.7,3.5,7.4,7,11.1,10.5-3.97,3.19-7.94,6.38-11.91,9.57,1.52,1.68,3.05,3.36,4.57,5.04,3.55-3.7,7.09-7.41,10.64-11.11,3.3,3.98,6.61,7.96,9.91,11.94Z"/>
          </g>
          <g>
            <path class="cls-5" d="M994.11,586.67c-2.7,2.73-9.75,10.86-8.37,17.35,1.38,6.49,9.73,7.99,9.73,7.99l9.29-16.37-10.64-8.97Z"/>
            <g>
              <path class="cls-5" d="M1069.95,781.32c-.42-4.35-1.72-9.28-2.85-13.27-8.92,2.88-17.04,6.3-26.07,8-9.88,1.86-23.46,6.02-30.58-2.1-15.32-17.46-23.09-41.51-26.97-64.13,6.79-3.74,13.57-7.35,20.4-10.97,29.82,21.89,15.22,34.63,21.37,63.76,7.14.68,13.33.98,20.72.23,6.5-.66,14.36-1.5,21.13-1.81,1.86-.92,3.13-.45,5.04-.15,1.34,5.45,4.53,17.64-2.18,20.44Z"/>
              <path class="cls-12" d="M1067.84,760.55c2.7-.62,5.44-.24,8.06.29.46.09.42.24.4.63-.07,1.31-.28,2.84-.42,4.19-.03.28-.02.29-.32.45-.84.46-.87,1.27-.62,2.46.72,3.47-.23,10.92-1.17,13.53-3.25,9.06-4.66-3.05-4.74-6.69,5.02-5.7,2.89-9.58-1.19-14.88Z"/>
            </g>
            <path class="cls-5" d="M1005.34,821.97c.92,5.05.02,5.02-2.18,7.69-7.64.76-14.52.81-17.86-2.52,5.25-1.62,10.41-3.27,13.22-5.51-.23-11.33-2.72-22.33-6.34-33.31-1.95-5.94-4.22-11.88-6.65-17.86-1.28-3.14-2.12-6.46-2.41-9.85-2.29-25.67-1.27-51.8,2.72-76.2h22c11.98,26.29-9.76,45.54-7.79,82.07,2.46,7.33,4.28,14.61,5.4,21.83,1.65,10.81,1.69,23.07-.11,33.65Z"/>
            <path class="cls-12" d="M1005.56,823.31c1.14,4.59.49,7.24-.54,9.79h-5.29s-.87-2.17-2.01-1.74c-5.23,2-15.23,3.17-16.84.6-1.43-2.28,6.53-5.48,6.53-5.48,2.39,3.89,8.21,2.15,18.15-3.17Z"/>
            <path class="cls-12" d="M1044.91,747.97s-6.19,6.84-12.01,5.43c0,0-6.45,9.77-16.57,3.02-7.67,4.75-15.34,4.75-23.01,0-10.12,6.75-16.57-3.02-16.57-3.02-5.82,1.42-12.01-5.43-12.01-5.43,5.56-26.14,18.36-45.99,19.32-66.22l32.8.55c8.61,8.57,10.35,43.9,28.04,65.68Z"/>
            <path class="cls-5" d="M977.49,627.14l-3.04,19.28s-1.48-1.03-3.78-2.73l5.71-17.48c.37.31.74.62,1.11.93Z"/>
            <path class="cls-5" d="M989.11,635.1s-20.02-13.58-24.2-19.15c-5.04-6.71-8.39-26.47-8.39-26.47-4.89-2.46-7.66-7.54-6.15-12.77,1.01-3.49,4.88,5.56,7.78,6.17,0,0,1.04-7.75,2.71-5.28,1.9,2.82,1.01,9.78,1.01,9.78l12.22,20.55,24.11,15.83-9.09,11.33Z"/>
            <path class="cls-13" d="M1018.41,684.42c-8.2-28.46-3.55-42.1-18.68-57.58-3.29,3.82-8.31,4.08-22.24.3l-3.04,19.28c6.5,9.96,14.69,15.48,11.39,38h32.57Z"/>
            <path class="cls-38" d="M1019.49,686.77c-13.06,1.93-23.78-2.61-32.1-1.72-.88.1-1.73.25-2.56.48-1.73.46-3.53-.87-3.22-2.63,2.79-15.57.76-23.22-2.95-28.25l-.03-.03c-2.49-3.37-5.76-5.57-8.84-8.19l.89-2.74,5.71-17.48.26-.8c17.83,8.25,18.62-1.42,21.91-5.26,6.42,6.57,10.19,14.35,13.02,23.3,2.63,8.32,4.45,17.64,6.85,27.97.93,3.93,1.93,7.99,3.09,12.21.39,1.44-.56,2.91-2.02,3.13Z"/>
            <polygon class="cls-5" points="998.55 620.16 996.81 612.36 988.29 609.57 986.25 624.24 998.55 620.16"/>
            <path class="cls-37" d="M988.79,672.58l-1.41,12.47c-.88.09-1.73.25-2.57.48-1.73.46-3.53-.87-3.22-2.63,2.78-15.57.76-23.22-2.95-28.25l4.62,3.94c4.05,3.46,6.12,8.7,5.53,13.99Z"/>
            <path class="cls-37" d="M1018.42,671.43c-2.29.76-5.06.63-6.42.45-4.93-.67-9.47-6.76-11.11-10.05-2.17-4.35-14.5-2.27-14.99-12.14l25.67-6.23c2.63,8.32,4.45,17.64,6.85,27.97Z"/>
            <path class="cls-12" d="M1030.31,632.77c-.78-2.77-2.07-5.38-2.75-8.18-1.12-4.63-.49-9.53-1.42-14.2-.93-4.67-5.76-8.17-9.35-11.3-2.7-2.36.05-7.43-3.93-13.79-1.48-2.38-6.9-4.39-10.48-3.95s-6.86,2.85-8.35,6.14c-1.42,3.15-.43,10.26-1.63,13.51-1.62,4.37-6.44,4.23-7.41,8.79-1.39,6.57,4.02,12.74,4.21,19.45.13,4.49-2.07,8.68-3.18,13.04-1.11,4.36-.67,9.83,3.18,12.16,3.08,1.87,7.22.99,10.4,2.7,3.71,2.01,4.93,6.88,8.31,9.41,4.28,3.21,11.46.87,13.02-4.25,1.29-4.23-.84-9.15,1.19-13.08,1.72-3.33,5.89-4.79,7.75-8.05,1.42-2.5,1.22-5.62.44-8.39Z"/>
            <g>
              <path class="cls-3" d="M858.05,462.1c.46-23.61,19.97-42.38,43.58-41.92,23.61.46,42.38,19.97,41.92,43.58-.46,23.61-19.97,42.38-43.58,41.92-23.61-.46-42.38-19.97-41.92-43.58Z"/>
              <path class="cls-42" d="M880.66,418.95c-24.35,11.04-35.22,39.75-24.23,63.99,10.99,24.24,39.75,34.98,64.1,23.94,24.35-11.04,35.22-39.75,24.23-63.99-10.99-24.24-39.75-34.98-64.1-23.94ZM917.47,500.12c-20.64,9.36-44.92.29-54.24-20.26-9.32-20.55-.14-44.79,20.5-54.15,20.64-9.36,44.92-.29,54.24,20.26,9.32,20.55.14,44.79-20.5,54.15Z"/>
              <rect class="cls-42" x="916.15" y="503.32" width="10.08" height="10.04" transform="translate(-127.71 425.81) rotate(-24.39)"/>
              <path class="cls-42" d="M969.86,591.58c2.42,4.92.19,10.91-4.93,13.23-5.12,2.32-11.1.06-13.2-5.01l-28.46-68.65-1.59-3.82-1.18-2.87-1.59-3.82-1.98-4.78,12.72-5.77,2.29,4.64,1.83,3.71,1.38,2.78,1.83,3.71,32.89,66.65Z"/>
              <polygon class="cls-33" points="932.95 516.64 919.68 522.66 918.06 518.75 931.09 512.84 932.95 516.64"/>
              <polygon class="cls-33" points="936.22 523.28 922.52 529.49 920.89 525.59 934.36 519.48 936.22 523.28"/>
              <path class="cls-2" d="M873.98,448.08c-5.35,11.64-1.95,22.3-3.09,22.42-1.34.15-8.19-14.44-2.08-26.6,6.01-11.98,21.48-15.41,22.25-14.16.7,1.14-11.24,5.64-17.07,18.34Z"/>
              <path class="cls-2" d="M874.47,475.06c1.78.66,2.67,2.64,2,4.42-.67,1.77-2.66,2.68-4.44,2.01-1.78-.66-2.67-2.64-2-4.42s2.66-2.68,4.44-2.01Z"/>
            </g>
            <path class="cls-5" d="M976.38,626.21l-5.71,17.48c-7.62-5.63-24.31-18.59-26.75-25.71-4.18-12.14-2.65-44.17-2.65-44.17-3.22-3.99-6.22-11.81-2.85-16.93,3.28-5,3.98,5.65,7.75,8.84,0,0,5.32-7.54,4.35-1.45-.97,6.09-3.12,9.35-3.12,9.35,4.26,10.83,5.92,22.51,7.78,35.5,7.29,5.63,14.35,11.32,21.21,17.09Z"/>
          </g>
          <g>
            <path class="cls-9" d="M334.36,720.35c-1.8,63.56-53.67,113.66-115.85,111.9-11.86-.34-23.22-2.53-33.86-6.31-45.13-16.03-76.93-60.52-75.47-111.96.92-32.66,15.08-61.78,37.06-82.11,20.77-19.26,48.57-30.65,78.79-29.8,62.18,1.76,111.13,54.72,109.33,118.28Z"/>
            <path class="cls-29" d="M261.95,609.53c16.4,20.63,25.91,47.14,25.1,75.81-1.8,63.56-53.67,113.66-115.85,111.9-11.86-.34-23.22-2.53-33.86-6.31-1.03-.36-2.04-.75-3.06-1.14,13.02,16.39,30.39,29.06,50.37,36.16,10.64,3.78,22,5.98,33.86,6.31,62.18,1.76,114.05-48.34,115.85-111.9,1.42-50.27-28.91-93.9-72.41-110.82Z"/>
            <path class="cls-10" d="M269.71,612.9c28.92,21.59,47.29,56.89,46.17,96.26-1.8,63.56-53.67,113.66-115.85,111.9-11.86-.34-23.22-2.53-33.86-6.31-3.71-1.32-7.32-2.83-10.84-4.52,8.86,6.62,18.72,11.95,29.31,15.71,10.64,3.78,22,5.98,33.86,6.31,62.18,1.76,114.05-48.34,115.85-111.9,1.34-47.22-25.35-88.59-64.65-107.45Z"/>
            <path class="cls-25" d="M285.88,653.92c-1.64,4.24-.5,5.24-1.95,6.94-2.01,2.38-4.77,1-7.09,3.3-2,1.97-1.96,4.97-1.95,6.94.05,6.71,4.05,7.76,4.85,14.14.27,2.11-.31.9-2.1,12.19-.87,5.47-1.04,7.69-2.1,12.19-.83,3.55-1.25,5.32-1.95,6.94-1.69,3.95-3.26,4.74-9.09,11.99-4.23,5.27-3.66,5.16-5.44,6.84-2.41,2.26-5.2,3.77-10.69,6.7-5.3,2.83-7.94,4.22-10.64,4.95-5.61,1.5-6-.12-10.54,1.45-5.6,1.94-6.32,4.86-10.64,4.95-1.4.03-3.25-.64-6.94-1.95-3.52-1.25-6.09-2.5-8.64-3.74-3.42-1.67-5.11-2.49-6.89-3.7-4.3-2.9-3.93-4.03-6.84-5.44-.9-.43-6.2-2.99-10.49-.3-.41.25-3.17,2.05-3.64,5.15-.45,2.98,1.71,3.79,3.25,8.84,1.17,3.87.19,4.36,1.5,8.79,1.09,3.69,1.63,5.52,3.3,7.09,1.88,1.75,5.32,2.48,12.14,3.85,3.29.65,4.82.83,5.2,1.89.57,1.59-1.86,3.97-3.64,5.15-4.21,2.77-9.19,1.74-10.54,1.45-2.14-.44-1.79-.8-5.2-1.89-4.33-1.4-7.86-1.78-10.44-2.05-2.81-.29-4.79-.28-8.74-.25-8.6.05-9.82.82-10.54,1.45-2.14,1.85-3.11,5.34-1.95,6.94.99,1.38,2.83.31,5.2,1.9,2.42,1.63,3.14,4.52,3.35,5.35.88,3.53-.92,4.45-.2,6.99.97,3.44,4.61,2.96,8.55,7.24,3.34,3.63,1.66,4.99,5,8.9,1.83,2.13,2.74,2.21,10.29,7.29,2.44,1.64,4.03,2.78,5.04,3.54-45.13-16.03-76.93-60.52-75.48-111.96.93-32.66,15.09-61.78,37.06-82.11-2.22,4.78-3.57,9.14-1.8,11.05,1.44,1.56,3.45,1.84,3.45,1.84.67.1,1.25.04,1.81-.1-16.72,18.79-22.48,40.68-12.54,53.84,10.52,13.91,35.23,13.58,59.11.59.47.36.78.72.78,1.31.02,1.74-2.65,2.18-3.64,5.15-.25.76-.86,2.55-.1,3.5,1.88,2.31,9.16-3.97,15.79-1.3.23.09,4.27,1.78,5.1,5.4,1,4.38-3.5,8.42-3.75,8.64-3.86,3.37-7.89,2.3-8.89,5-.81,2.21,1.21,4.79,1.6,5.3,3.02,3.85,8.67,3.85,12.14,3.84.91,0,4.44-.05,8.79-1.5,4.52-1.51,4.26-2.66,7.09-3.29,5.99-1.36,8.35,3.47,13.94,2.15,3.52-.83,6.88-3.78,7.19-6.8.22-2.02-.8-3.87-1.6-5.3-.82-1.46-1.77-3.01-3.4-3.59-2.51-.89-3.82,1.53-7.05,1.55-4.68.02-9.26-5.04-8.55-7.24.26-.78,1.01-.69,1.8-1.7,1.46-1.86,1.25-5.1.2-6.99-2.62-4.75-11.55-2.96-12.09-5.59-.41-2.01,4.75-3.07,5.44-6.85.84-4.59-6.12-7.5-4.95-10.64,1.44-3.86,11.37-3.6,15.83-3.05,3.4.43,5.12.64,6.94,1.95,5.43,3.92,3.64,11.7,6.65,12.44,2.47.59,6.92-3.9,7.24-8.55.32-4.56-3.56-6-3.2-10.59.19-2.4,1.96-4.5,5.49-8.6,3.33-3.88,6.04-6.18,10.79-10.19,6.06-5.11,7.85-6.59,10.69-6.7,1.84-.07,4.56.38,5.2,1.9.49,1.19-.69,2.08-1.9,5.2Z"/>
            <path class="cls-25" d="M189.25,652.25c-.79-2.96-1.13-7.49.23-8,1.51-.58,3.09,4.59,7.85,5.56,2.43.49,3.03-.64,5.34.15,2.2.76,4.71,2.83,5.18,5.49.42,2.33-1.03,3.4-.15,5.34.75,1.65,2.04,1.38,2.59,2.74.96,2.37-2.6,4.12-2.89,7.93-.32,4.15,3.54,6.57,2.44,8.08-.87,1.2-3.87.45-5.34-.15-.38-.16-4.25-1.81-5.19-5.49-.86-3.38,1.6-5.14.23-8-.2-.42-.29-.45-2.59-2.74-2.95-2.94-4.44-4.42-5.18-5.49-.46-.66-1.77-2.62-2.52-5.41Z"/>
            <path class="cls-25" d="M225.88,787.07c-2.57.21-6.17-.61-6.69-2.47-.61-2.21,3.79-3.58,3.68-7.34-.04-1.16-.28-2.41-.19-4.78.02-.49.11-1.04.34-1.71.91-2.68,3.42-5.74,6.64-6.33,2.83-.52,4.14,1.23,6.49.15,2.01-.92,1.67-2.49,3.32-3.17,2.89-1.18,4.99,3.26,9.66,3.48,4.6.21,7.01-3.87,8.99-2.6,1.55,1,1.23,4.27.67,6.08-.85,2.73-3.45,5.51-6.64,6.33-4.1,1.06-6.26-1.92-9.73-.23-.52.25-.55.35-3.32,3.17-3.55,3.6-5.35,5.42-6.64,6.33-2.19,1.56-3.96,2.88-6.57,3.09Z"/>
            <path class="cls-19" d="M196.28,699.09c-23.88,12.98-48.59,13.32-59.11-.59-9.95-13.15-4.19-35.05,12.54-53.84,1.1-.29,2.12-.93,3.48-1.5,0,0,4.02-1.73,8.79-1.5,2.97.14,8.07,1.21,8.64,3.75.48,2.1-2.5,3.52-1.9,5.19.83,2.3,6.7.68,8.64,3.75.96,1.49.73,3.75-.15,5.25-2.68,4.52-11.83,2.39-12.39,4.9-.28,1.27,1.79,2.92,3.4,3.59,1.64.7,3.1.49,5.25.15,8.51-1.39,8.97-2.04,10.54-1.45,2.96,1.11,4.65,4.68,5.05,7.14.37,2.29-.48,2.7-.15,5.25.44,3.41,2.1,3.58,3.3,7.09,1.71,5.07-.84,7.42,1.45,10.54.89,1.22,1.92,1.75,2.61,2.28Z"/>
            <path class="cls-7" d="M209,690.88c-4.16,3.15-8.43,5.89-12.72,8.22-.69-.53-1.72-1.06-2.61-2.28-2.29-3.13.26-5.47-1.45-10.54-1.2-3.52-2.86-3.68-3.3-7.09-.33-2.54.52-2.96.15-5.25-.4-2.46-2.09-6.03-5.05-7.14-1.57-.59-2.03.06-10.54,1.45-2.15.34-3.6.55-5.25-.15-1.61-.68-3.68-2.33-3.4-3.59.56-2.51,9.71-.38,12.39-4.9.88-1.5,1.1-3.75.15-5.25-1.94-3.07-7.82-1.44-8.64-3.75-.6-1.68,2.38-3.1,1.9-5.19-.58-2.54-5.67-3.61-8.64-3.75-4.77-.22-8.79,1.5-8.79,1.5-1.36.57-2.38,1.21-3.48,1.5,4.14-4.66,8.95-9.11,14.36-13.21,27.27-20.62,59.43-24.04,71.84-7.63,12.41,16.41.37,46.42-26.89,67.05Z"/>
          </g>
          <g>
            <path class="cls-30" d="M226.33,476.91s8.67-6.32,2.97-15.61c-5.7-9.29-18.34-6.69-20.71-1.82-4.69-.78-8.34,2.36-10.39,5.29-1.61,2.31-3.53,6.94-1.18,15.98,2.35,9.04-10.57,14.21-12.33,20.32-1.13,3.93.62,8.18,8.61,9.11,7.99.93,29.36-7.74,29.36-7.74,2.54,0,11.99-9.43,3.65-25.52Z"/>
            <path class="cls-36" d="M287.83,687.11c-3.72-18.87-5.76-34.3-5.24-47.9.37-9.97,1.35-19.12,2.15-28.32l-57.82-33.1-18.37-10.52h35.21s50.22,16.28,58.74,30.48c5.73,9.55,4.54,31.08,1.85,50.6-2.84,20.47-7.35,38.76-7.35,38.76h-9.17Z"/>
            <path class="cls-16" d="M287.68,686.7l-2.96,9.69,1.86,15.07,2.98.14,2.72-13.19,4.82,8.76c1.3,2.36,3.24,4.29,5.91,4.63,7.04.91,20.79,1.15,21.36-3.47.59-4.75-12.75-4.95-16.64-10.17-3.77-5.05-8.3-11.66-8.3-11.66l-11.74.2Z"/>
            <path class="cls-16" d="M304.35,648.35l-11.98,1.97-9.79-11.11-43.22-49.01-12.44-12.41-10.54-10.52h27.37s50.22,16.28,58.74,30.48c5.73,9.55,4.54,31.08,1.85,50.6Z"/>
            <path class="cls-32" d="M298.21,687.68c-10.52-9.02-17.51-20.45-22.97-33.46-3.54-8.43-6.3-17.48-8.6-26.89,0,0-53.58-4.53-67.67-25.03-9.6-13.98-1.9-35.02-1.9-35.02,9.15.28,21.16-1.72,28.74.73,28.58,9.24,59.26,21.41,66.39,41.18,4.21,11.67,7.11,24.58,10.02,38.89,2.4,11.82,4.57,25.56,7.75,39.39l-11.74.2Z"/>
            <path class="cls-30" d="M302.21,648.09l-17.87,4.06-9.1,2.07c-3.54-8.43-6.3-17.48-8.6-26.89,0,0-31.55-2.67-52.59-13.16-6.38-3.19-11.81-7.1-15.08-11.87-8.78-12.79-3.09-31.51-2.05-34.59.1-.28.15-.43.15-.43h.07c9.15.27,22.18-2.59,29.74-.13,28.58,9.24,59.56,21.88,66.69,41.65,4.23,11.67,5.75,24.98,8.65,39.3Z"/>
            <path class="cls-1" d="M214.04,614.17c-6.38-3.19-11.81-7.1-15.08-11.87-8.78-12.79-3.09-31.51-2.05-34.59.1-.28.15-.43.15-.43h.07l8.95,3.72c-6.38,16.17-2.74,30.36,7.97,43.17Z"/>
            <path class="cls-38" d="M231.77,530.21c6.01,7.27,16.76,15.69,22.92,22.84,3.04-2.63,6.57-3.93,9.11-7.29-10.34-15.69-21.85-31.52-35.07-44.97,2.46,10.24.16,19.34,3.04,29.42Z"/>
            <path class="cls-38" d="M246.29,568.13c-14.16-1.89-25.79,3.99-40.22,2.87-1.74-.13-3.52-.37-5.34-.72-3.36-.67-5.7-3.74-5.34-7.15l4.76-46.43,4.19-14.28.97-3.27,7.51-4.03,8.25.28c12.31,5.34,20.8,19.81,13.33,35.79-7.25,15.53,11.89,36.92,11.89,36.92Z"/>
            <path class="cls-32" d="M221.43,495.54c0,4.67-4.34,4.67-8.69,0l1.02-5.65.63-3.51,6.54,3.27.48,5.76v.13Z"/>
            <path class="cls-39" d="M210.34,528.45c-3.29,8.95-6.63,30.31-4.26,42.55-1.74-.13-3.52-.37-5.34-.72-3.36-.67-5.7-3.74-5.34-7.15l4.76-46.43,4.19-14.28c3.69,2.91,5.81,6.51,5.81,6.51,0,0,4.23,8.6.19,19.51Z"/>
            <g>
              <path class="cls-32" d="M250.05,552.22c-3.76,5.72-6.06,4.69-11.09,4.99-6.56-.38-13.6.63-20.23.11-8-.62-19.77,1.96-26.28-3.36-6.51-5.32,1.74-31.55,3.66-37.45,2.55-7.83,5.41-11.25,9.18-17.45-1.69,6.01-3.38,11.74-5.07,17.64,1.06,9.14,1.95,18.32,2.9,27.45,6.47.87,11.33,1.45,18.16,2.61,6.03,1.02,14.26,2.43,20.53,4.14,5.54-3.01,11.99-4.42,8.24,1.3Z"/>
              <path class="cls-38" d="M221.5,545.97c-.67,3.65-1.9,8.52-2.85,12.31-8.46.4-18.65,2.07-26.54-4.58-7.89-6.64-2.58-33.55.61-40.91,3.42-7.9,6.28-10.42,12.59-13.76,12.09,12.15-.61,29.03-2.16,45.14,5.99.76,12.39.82,18.35,1.79Z"/>
            </g>
            <path class="cls-1" d="M221.27,493.58c-.45.06-1.89.58-2.41.48-2.71-.48-3.92-1.71-5.09-4.17l.63-3.51,6.54,3.27.33,3.93Z"/>
            <path class="cls-32" d="M226.48,465.13s-3.32,7.03-14.45,9.64c0,0-3.48-3.79-4.98-1.42-1.5,2.37,2.13,6.56,2.13,6.56.42,6.89,5.37,12.35,10.5,11.06,11.67-2.93,6.79-25.83,6.79-25.83Z"/>
            <path class="cls-30" d="M298.21,687.68l-2.96,9.69,1.86,15.07,2.98.15,2.72-13.19,4.82,8.76c1.3,2.36,3.24,4.29,5.91,4.63,7.04.91,20.79,1.15,21.36-3.47.59-4.75-12.75-4.95-16.64-10.17-3.77-5.05-8.3-11.67-8.3-11.67l-11.74.2Z"/>
            <g>
              <path class="cls-23" d="M230.44,573.72l9.77-29.33c1-1.8,2.9-2.92,4.96-2.92h43.66c4.11,0,6.85,4.23,5.18,7.98l-11.35,25.55c-.98,2.21-3.17,3.63-5.58,3.63h-43.11c-2.54,0-4.33-2.49-3.53-4.9Z"/>
              <path class="cls-33" d="M261.15,564.92c-1.62-1.62-1.62-4.24,0-5.86,1.62-1.62,4.24-1.62,5.86,0,1.62,1.62,1.62,4.24,0,5.86-1.62,1.62-4.24,1.62-5.86,0Z"/>
            </g>
          </g>
          <g>
            <path class="cls-31" d="M1119.4,516.84c-18.32-31.94-85-28.61-91.28,13.5-3.04,15.26,10.02,28.19,21.96,35.26,18.47,10.94,1.66,21.68-15.78,19.21,38.51,19.73,109.7-25.06,85.1-67.96Z"/>
            <path class="cls-33" d="M1074.45,550.76c0-2.59.38-5.41,1.14-8.46.76-3.05,1.87-6.77,3.31-11.14l.6-1.84c1.12-3.69,1.69-6.79,1.69-9.29,0-3.94-1.2-5.92-3.61-5.92-1.53,0-2.29.95-2.29,2.86,0,.47.28,1.61.84,3.44,0,.04-.2.17-.6.38-1.37.64-2.37.95-3.01.95-2.25,0-3.37-1.42-3.37-4.26v-.64c0-1.1.22-2.05.66-2.83.44-.78,1.26-1.47,2.47-2.07,1.36-.59,3.05-.89,5.06-.89,1.77,0,3.29.17,4.58.51,1.28.34,2.33.81,3.13,1.4,1.28,1.02,2.09,2.52,2.41,4.52.08.47.12,1.29.12,2.48,0,3.73-1.2,7.81-3.61,12.22-1.04,1.82-1.93,4.13-2.65,6.9-.72,2.78-1.08,5.65-1.08,8.62,0,2.33.04,3.75.12,4.26-1.44,0-2.25.04-2.41.13-.16.04-.36.06-.6.06-1.61,0-2.57-.47-2.89-1.4ZM1074.45,558.58c-.88-.42-1.33-.95-1.33-1.59,0-.59.48-1.16,1.45-1.69.96-.53,2.05-.8,3.25-.8.96,0,1.93.28,2.89.83.96.55,1.45,1.08,1.45,1.59,0,1.61-1.61,2.42-4.82,2.42-1.2,0-2.17-.25-2.89-.76Z"/>
            <path class="cls-31" d="M1135.43,532.24c-.08-2.14-.33-4.28-.74-6.38-.82-4.2-2.29-8.28-4.32-12.04-3.86-7.16-9.87-13.03-17.05-16.83-3.97-2.1-8.23-3.51-12.7-3.98-.49-.05-.57.72-.11.84,7.34,2.01,14.26,5.37,19.81,10.65,5.73,5.46,9.69,12.49,11.4,20.22.49,2.23.8,4.49.93,6.77.12,2.27-.25,4.56-.11,6.81.09,1.41,2.08,1.77,2.51.34.59-1.99.46-4.34.39-6.39Z"/>
            <path class="cls-31" d="M1133.81,546.72c-.02-.18-.04-.36-.07-.53-.03-.19-.14-.3-.21-.47-.07-.19-.36-.34-.52-.14-.09.12-.23.18-.32.31-.09.12-.16.27-.24.41-.16.27-.31.55-.46.84-.34.63-.57,1.31-.85,1.97.06-.13-.11.25-.13.29-.07.15-.14.3-.21.45-.15.3-.3.59-.46.88-.16.29-.33.58-.51.86-.09.14-.19.28-.27.42-.17.29-.22.53-.26.86-.11.96,1.13,1.51,1.86,1.07.67-.4,1.03-1.32,1.35-2.01.32-.68.61-1.37.86-2.08.24-.67.43-1.37.48-2.09.02-.34,0-.7-.03-1.03Z"/>
            <path class="cls-31" d="M1044.92,571.27c-.92-.53-2.04-.77-3.01-1.21-.99-.44-1.95-.95-2.88-1.5-1.83-1.09-3.53-2.38-5.07-3.85-1.55-1.48-2.97-3.08-4.18-4.85-1.2-1.76-2.36-3.65-3.22-5.6-.16-.37-.76-.11-.65.27.64,2.21,1.42,4.24,2.63,6.21,1.19,1.93,2.6,3.77,4.21,5.37,1.59,1.58,3.36,3,5.25,4.2.99.63,2.02,1.2,3.07,1.7,1.04.49,2.16,1.07,3.3,1.22,1.08.14,1.36-1.47.53-1.96Z"/>
          </g>
          <g>
            <path class="cls-4" d="M735.87,27.65c7.35-28.6,59.62-40.26,73.46-9.04,5.61,11.15-1.74,23.93-9.46,31.95-11.94,12.4,3.34,17.12,16.3,11.48-25.57,23.47-90.17,4.03-80.3-34.39Z"/>
            <path class="cls-4" d="M726.77,42.98c-.4-1.67-.66-3.38-.79-5.09-.26-3.42,0-6.89.77-10.23,1.46-6.36,4.85-12.18,9.59-16.65,2.62-2.47,5.62-4.47,8.97-5.79.37-.14.59.43.27.63-5.25,3.12-9.88,7.19-13.05,12.46-3.27,5.44-4.82,11.72-4.5,18.06.09,1.83.34,3.64.73,5.43.39,1.78,1.17,3.47,1.54,5.25.23,1.11-1.23,1.81-1.86.8-.88-1.41-1.28-3.26-1.66-4.86Z"/>
            <path class="cls-4" d="M731.11,53.83c-.02-.14-.04-.28-.06-.43-.02-.16.05-.26.06-.41.01-.16.21-.34.37-.22.1.07.21.09.32.17.1.08.18.18.27.26.18.18.36.36.54.55.39.42.72.89,1.07,1.34-.07-.09.14.17.16.2.09.1.17.2.26.3.18.2.36.39.55.58.19.19.38.37.58.55.1.09.2.17.3.26.2.18.28.36.38.61.29.72-.55,1.41-1.21,1.22-.6-.17-1.07-.8-1.47-1.26-.39-.45-.76-.93-1.11-1.42-.33-.47-.63-.97-.81-1.51-.09-.26-.15-.54-.2-.8Z"/>
            <path class="cls-4" d="M805.07,53.84c.6-.61,1.41-1.03,2.07-1.58.67-.55,1.3-1.15,1.9-1.77,1.18-1.23,2.22-2.59,3.1-4.06.89-1.47,1.64-3.02,2.2-4.64.55-1.62,1.05-3.32,1.29-5.02.05-.32.56-.24.56.07-.03,1.85-.19,3.58-.71,5.36-.51,1.75-1.21,3.47-2.11,5.05-.89,1.56-1.96,3.04-3.17,4.37-.63.7-1.3,1.35-2.01,1.97-.7.6-1.44,1.29-2.29,1.65-.8.34-1.37-.85-.83-1.4Z"/>
          </g>
          <g>
            <path class="cls-4" d="M735.87,27.61c7.35-28.6,59.62-40.26,73.46-9.04,5.61,11.15-1.74,23.93-9.46,31.95-11.94,12.4,3.34,17.12,16.3,11.48-25.57,23.47-90.17,4.03-80.3-34.39Z"/>
            <path class="cls-4" d="M726.77,42.94c-.4-1.67-.66-3.38-.79-5.09-.26-3.42,0-6.89.77-10.23,1.46-6.36,4.85-12.18,9.59-16.65,2.62-2.47,5.62-4.47,8.97-5.79.37-.14.59.43.27.63-5.25,3.12-9.88,7.19-13.05,12.46-3.27,5.44-4.82,11.72-4.5,18.06.09,1.83.34,3.64.73,5.43.39,1.78,1.17,3.47,1.54,5.25.23,1.11-1.23,1.81-1.86.8-.88-1.41-1.28-3.26-1.66-4.86Z"/>
            <path class="cls-4" d="M731.11,53.79c-.02-.14-.04-.28-.06-.43-.02-.16.05-.26.06-.41.01-.16.21-.34.37-.22.1.07.21.09.32.17.1.08.18.18.27.26.18.18.36.36.54.55.39.42.72.89,1.07,1.34-.07-.09.14.17.16.2.09.1.17.2.26.3.18.2.36.39.55.58.19.19.38.37.58.55.1.09.2.17.3.26.2.18.28.36.38.61.29.72-.55,1.41-1.21,1.22-.6-.17-1.07-.8-1.47-1.26-.39-.45-.76-.93-1.11-1.42-.33-.47-.63-.97-.81-1.51-.09-.26-.15-.54-.2-.8Z"/>
            <path class="cls-4" d="M805.07,53.8c.6-.61,1.41-1.03,2.07-1.58.67-.55,1.3-1.15,1.9-1.77,1.18-1.23,2.22-2.59,3.1-4.06.89-1.47,1.64-3.02,2.2-4.64.55-1.62,1.05-3.32,1.29-5.02.05-.32.56-.24.56.07-.03,1.85-.19,3.58-.71,5.36-.51,1.75-1.21,3.47-2.11,5.05-.89,1.56-1.96,3.04-3.17,4.37-.63.7-1.3,1.35-2.01,1.97-.7.6-1.44,1.29-2.29,1.65-.8.34-1.37-.85-.83-1.4Z"/>
          </g>
          <path class="cls-33" d="M779.37,60.49l-.99.12c-.27,0-.8-.19-1.61-.59-.19-.36-.18-.84.03-1.44.21-.6.53-1.01.95-1.24.58-.32,1.15-.38,1.68-.18.54.2.96.58,1.27,1.15.48.89.21,1.64-.81,2.24-.18-.13-.35-.16-.52-.07ZM774.48,51.56l-.18-.04-6.95-12.88-2.22-4.69-2.49-4.62c-.87-1.61-1.75-2.96-2.65-4.05l-1.02-1.32-1.72-2.61c-.19-.36.05-.91.72-1.67.67-.76,1.41-1.35,2.21-1.78,1.04-.56,1.68-.61,1.93-.14,1.7,3.15,3.61,7.64,5.72,13.47,2.35,6.45,4.21,10.96,5.6,13.54l.7,1.01.69,1.29c.81,1.5,1.06,2.73.75,3.68l.5.07-1.56.84-.06-.11Z"/>
          <path class="cls-33" d="M781.59,45.19l-.69-.17c-.18-.06-.49-.33-.92-.8-.04-.29.09-.6.39-.95.3-.34.61-.54.95-.58.47-.06.86.04,1.16.31.31.27.49.63.55,1.09.09.72-.28,1.14-1.11,1.28-.09-.13-.2-.19-.33-.18ZM780.62,38.02l-.11-.07-1.33-10.31-.28-3.68-.48-3.7c-.17-1.29-.41-2.41-.73-3.36l-.34-1.14-.48-2.17c-.04-.29.26-.59.9-.92.64-.33,1.28-.54,1.92-.62.83-.11,1.27.03,1.32.4.33,2.52.45,5.99.37,10.39-.08,4.87,0,8.34.27,10.4l.21.85.13,1.03c.16,1.2,0,2.08-.44,2.63l.32.18-1.25.16v-.09Z"/>
          <g>
            <path class="cls-30" d="M87.1,493.45c-.13,0-.13.2,0,.2s.13-.2,0-.2Z"/>
            <g>
              <path class="cls-22" d="M131.26,450.86c-9.59-7.3-22.1-10.28-34.11-9.27-7.76.65-15.51,2.96-21.83,7.5-6.33,4.55-11.12,11.47-12.21,19.18-1.1,7.71,1.86,16.09,8.12,20.73,6.61,4.9,15.6,5.1,23.74,3.9,10.31-1.52,20.27-4.95,30.6-6.36,4.27-.58,8.78-.79,12.73.95,3.95,1.74,7.08,3.78,8.36,9.53,6.38-24.6-5.8-38.86-15.39-46.16Z"/>
              <path class="cls-33" d="M73.94,467.94c0-2.05,1.66-3.7,3.7-3.7s3.7,1.66,3.7,3.7-1.66,3.7-3.7,3.7-3.7-1.66-3.7-3.7Z"/>
              <path class="cls-33" d="M88.9,467.94c0-2.05,1.66-3.7,3.7-3.7s3.7,1.66,3.7,3.7-1.66,3.7-3.7,3.7-3.7-1.66-3.7-3.7Z"/>
              <path class="cls-33" d="M103.85,467.94c0-2.05,1.66-3.7,3.7-3.7s3.7,1.66,3.7,3.7-1.66,3.7-3.7,3.7-3.7-1.66-3.7-3.7Z"/>
              <path class="cls-33" d="M118.81,467.94c0-2.05,1.66-3.7,3.7-3.7s3.7,1.66,3.7,3.7-1.66,3.7-3.7,3.7-3.7-1.66-3.7-3.7Z"/>
            </g>
            <path class="cls-22" d="M113.97,493.61c-.99.22-1.91.7-2.86,1.06-.96.36-1.93.68-2.9,1-1.95.65-3.89,1.29-5.88,1.81-3.96,1.02-8.03,1.63-12.12,1.7-7.19.12-14.42-1.5-20.61-5.23-3.36-2.03-6.44-4.72-8.82-7.83-.11-.15-.37-.02-.26.15,1.92,2.99,4.3,5.47,7.16,7.57,2.89,2.13,6.12,3.76,9.51,4.93,7.67,2.65,15.88,2.6,23.74.83,2.33-.53,4.65-1.17,6.89-2,1.11-.41,2.19-.88,3.26-1.37,1.1-.51,2.32-.94,3.29-1.67.45-.34.21-1.08-.4-.95Z"/>
            <path class="cls-22" d="M151.49,468.27c-.95-3.98-2.76-7.72-5.26-10.96-1.26-1.63-2.69-3.12-4.27-4.43-.74-.62-1.5-1.2-2.3-1.74-.8-.54-1.75-1.16-2.67-1.44-.22-.07-.41.24-.23.39.69.62,1.54,1.12,2.29,1.68.82.61,1.62,1.25,2.37,1.95,1.42,1.31,2.71,2.76,3.85,4.33,2.31,3.17,3.95,6.78,4.79,10.61.2.93,1.65.54,1.43-.39Z"/>
            <path class="cls-22" d="M123.25,491.08c-.42-.22-1.01-.15-1.48-.1-.47.04-.93.12-1.39.23-.44.11-.87.26-1.28.45-.44.2-.93.42-1.21.83-.23.34.07.93.5.88.17-.02.31-.04.46-.11.09-.05.19-.1.28-.14.17-.08.27-.13.42-.18.38-.15.76-.28,1.16-.38.19-.05.38-.09.58-.12.21-.04.25-.04.48-.06.2-.02.39-.03.59-.03.24,0,.5.05.73-.04.25-.1.45-.27.48-.56.03-.25-.08-.54-.32-.67Z"/>
          </g>
          <g>
            <path class="cls-15" d="M732.52,130.16c-.17,0-.34-.08-.45-.23-.85-1.15-1.78-2.3-2.77-3.43-.2-.23-.18-.58.05-.79.23-.2.58-.18.79.05,1.01,1.15,1.96,2.32,2.83,3.5.18.25.13.6-.12.78-.1.07-.22.11-.33.11Z"/>
            <path class="cls-15" d="M607.56,130.08h-.02c-3.29-.13-6.32-1.08-8.76-2.75-.25-.17-.32-.52-.15-.77.17-.25.52-.32.77-.15,2.24,1.53,5.14,2.44,8.18,2.56.31.01.55.27.53.58-.01.3-.26.54-.56.54ZM616.26,128.22c-.2,0-.4-.11-.5-.3-.14-.27-.03-.61.24-.75,2.72-1.4,4.72-3.51,5.79-6.1.12-.28.45-.42.73-.3.28.12.42.44.3.73-1.17,2.84-3.36,5.14-6.31,6.67-.08.04-.17.06-.26.06ZM482.48,127.01c-.3,0-.55-.24-.56-.55,0-.31.24-.56.55-.56,2.98-.04,5.98-.18,8.94-.42.32,0,.58.2.6.51.03.31-.2.58-.51.6-2.98.24-6.02.39-9.02.43h0ZM473.49,126.81s-.02,0-.03,0c-2.98-.17-6-.44-8.99-.81-.31-.04-.52-.32-.48-.62.04-.3.32-.52.62-.48,2.96.37,5.96.64,8.92.8.31.02.54.28.52.59-.02.3-.26.53-.56.53ZM500.38,125.54c-.27,0-.51-.2-.55-.47-.05-.3.16-.59.47-.63,2.93-.44,5.89-1,8.8-1.65.3-.06.6.12.66.42.07.3-.12.6-.42.67-2.93.66-5.92,1.21-8.87,1.66-.03,0-.06,0-.08,0ZM455.66,124.6s-.07,0-.11,0c-2.94-.57-5.9-1.24-8.8-2-.3-.08-.48-.38-.4-.68.08-.3.39-.48.68-.4,2.88.76,5.81,1.43,8.73,1.99.3.06.5.35.44.65-.05.27-.28.45-.55.45ZM517.92,121.63c-.24,0-.46-.16-.53-.4-.09-.29.08-.61.38-.69,2.83-.84,5.69-1.79,8.49-2.83.29-.11.61.04.72.33.11.29-.04.61-.33.72-2.82,1.05-5.71,2.01-8.56,2.85-.05.02-.11.02-.16.02ZM723.31,120.41c-.13,0-.26-.04-.36-.14-2.16-1.85-4.54-3.69-7.08-5.44-.25-.18-.32-.52-.14-.77.18-.25.52-.32.78-.14,2.57,1.78,4.99,3.64,7.17,5.52.23.2.26.55.06.79-.11.13-.27.19-.42.19ZM594.08,120.22c-.25,0-.48-.17-.54-.43-.27-1.12-.41-2.32-.41-3.56,0-1.76.27-3.64.82-5.6.08-.3.39-.47.69-.39.3.08.47.39.39.69-.52,1.86-.78,3.65-.78,5.31,0,1.15.13,2.26.38,3.3.07.3-.11.6-.41.67-.04,0-.09.02-.13.02ZM438.28,120.03c-.06,0-.12,0-.18-.03-2.86-.96-5.7-2.03-8.45-3.18-.28-.12-.42-.45-.3-.73.12-.28.45-.41.73-.3,2.73,1.14,5.54,2.2,8.38,3.15.29.1.45.41.35.71-.08.23-.3.38-.53.38ZM534.82,115.52c-.22,0-.43-.13-.52-.35-.11-.29.03-.61.32-.72,2.87-1.12,5.67-2.2,8.39-3.24.29-.11.61.04.72.32.11.29-.04.61-.32.72-2.72,1.03-5.51,2.11-8.38,3.23-.07.03-.14.04-.2.04ZM421.7,113.1c-.08,0-.17-.02-.25-.06-2.76-1.4-5.41-2.89-7.88-4.42-.26-.16-.34-.51-.18-.77.16-.26.51-.34.77-.18,2.45,1.52,5.07,2.99,7.8,4.37.27.14.38.48.24.75-.1.19-.29.3-.5.3ZM622.85,113.01c-.26,0-.49-.18-.54-.44-.06-.29-.13-.59-.21-.88-.73-2.79-1.79-5.19-3.16-7.15-.18-.25-.11-.6.14-.78.25-.18.6-.12.78.14,1.44,2.06,2.56,4.59,3.32,7.5.08.31.16.62.22.93.06.3-.13.6-.43.66-.04,0-.08.01-.12.01ZM708.57,110.13c-.09,0-.19-.02-.28-.07-2.51-1.44-5.18-2.85-7.92-4.18-.28-.13-.39-.47-.26-.74.13-.28.47-.39.74-.26,2.77,1.34,5.45,2.76,7.99,4.21.27.15.36.49.21.76-.1.18-.29.28-.48.28ZM551.64,109.15c-.23,0-.44-.14-.52-.37-.11-.29.04-.61.33-.71,2.96-1.08,5.82-2.09,8.49-3,.29-.1.61.06.71.35.1.29-.06.61-.35.71-2.66.91-5.51,1.92-8.47,2.99-.06.02-.13.03-.19.03ZM598.48,103.36c-.12,0-.24-.04-.34-.12-.24-.19-.28-.54-.09-.78,1.59-2.01,3.57-3.82,5.9-5.39-.04,0-.08,0-.12,0-.31-.02-.54-.29-.51-.6.02-.31.29-.53.6-.51,3.4.25,6.39.96,8.89,2.1.28.13.4.46.27.74-.13.28-.46.4-.74.28-1.92-.88-4.16-1.49-6.68-1.82-.04.06-.09.11-.16.15-2.64,1.64-4.86,3.58-6.58,5.76-.11.14-.27.21-.44.21ZM568.65,103.35c-.24,0-.46-.15-.53-.39-.09-.29.07-.61.37-.7,3.04-.95,5.95-1.8,8.65-2.53.29-.08.6.09.68.39.08.3-.1.6-.39.68-2.69.73-5.58,1.57-8.61,2.52-.06.02-.11.03-.17.03ZM692.41,102.27c-.07,0-.14-.01-.21-.04-2.72-1.12-5.54-2.18-8.38-3.16-.29-.1-.45-.42-.34-.71.1-.29.42-.45.71-.35,2.86.99,5.7,2.06,8.44,3.18.28.12.42.44.3.73-.09.22-.3.35-.52.35ZM586.02,98.72c-.26,0-.49-.18-.55-.44-.06-.3.13-.6.43-.66,3.21-.66,6.21-1.15,8.92-1.44.31-.03.58.19.61.5.03.31-.19.58-.5.61-2.67.29-5.64.76-8.82,1.42-.04,0-.08.01-.11.01ZM675.42,96.4c-.05,0-.1,0-.15-.02-2.88-.82-5.81-1.57-8.69-2.23-.3-.07-.49-.37-.42-.67.07-.3.36-.49.67-.42,2.9.66,5.84,1.41,8.75,2.24.3.08.47.39.38.69-.07.24-.29.4-.54.4ZM613.35,93.73c-.23,0-.45-.15-.53-.38-.1-.29.06-.61.35-.71,2.68-.9,5.65-1.62,8.81-2.14.3-.05.59.15.64.46.05.3-.15.59-.46.64-3.11.52-6.01,1.23-8.64,2.1-.06.02-.12.03-.18.03ZM657.88,92.42s-.06,0-.09,0c-2.99-.5-5.97-.91-8.87-1.21-.31-.03-.53-.31-.5-.61s.3-.53.61-.5c2.92.31,5.93.72,8.94,1.22.3.05.51.34.46.64-.05.27-.28.46-.55.46ZM631.01,90.65c-.29,0-.54-.23-.56-.53-.02-.31.22-.57.53-.59,2.9-.15,5.94-.18,9.04-.08.31.01.55.27.54.58,0,.31-.26.55-.58.54-3.06-.1-6.08-.08-8.94.08-.01,0-.02,0-.03,0Z"/>
            <path class="cls-15" d="M406.38,103.51c-.12,0-.24-.04-.34-.12-1.22-.96-2.38-1.93-3.44-2.89-.23-.21-.24-.56-.04-.79.21-.23.56-.24.79-.04,1.04.95,2.18,1.9,3.38,2.84.24.19.29.54.1.78-.11.14-.27.21-.44.21Z"/>
          </g>
          <g>
            <polygon class="cls-41" points="402.3 97.57 378.01 86.94 391.21 78.62 402.3 97.57"/>
            <polygon class="cls-14" points="377.92 91.66 351.85 66.92 390.78 84.66 377.92 91.66"/>
            <polygon class="cls-14" points="351.84 66.87 410.34 69.12 398.01 76.61 351.84 66.87"/>
            <polygon class="cls-43" points="351.85 66.92 390.81 84.81 402.3 97.57 398.1 76.44 351.85 66.92"/>
          </g>
          <g>
            <rect class="cls-11" x="70.42" y="830.91" width="1065.07" height="2.2" rx=".98" ry=".98"/>
            <rect class="cls-30" x="0" y="830.91" width="52.01" height="2.2" rx=".98" ry=".98"/>
            <rect class="cls-30" x="918.53" y="862.36" width="52.01" height="2.2" rx=".98" ry=".98"/>
            <rect class="cls-30" x="677.38" y="862.36" width="206.42" height="2.2" rx=".98" ry=".98"/>
          </g>
          <g>
            <path class="cls-20" d="M37.98,314.91l-21.75-14.41c.78-.4,1.66-.62,2.59-.62h38.32c.93,0,1.81.22,2.59.62l-21.75,14.41Z"/>
            <path class="cls-20" d="M62.88,305.61v21.52c0,3.17-2.57,5.74-5.74,5.74H18.82c-3.17,0-5.74-2.57-5.74-5.74v-21.52c0-1.31.44-2.52,1.18-3.49l23.71,15.71,23.71-15.71c.74.97,1.18,2.18,1.18,3.49Z"/>
          </g>
          <path class="cls-20" d="M987.78,109.86c-3.45-3.18-7.28-2.54-10.38-.15-1.73,1.34-3.97.96-5.82-.21-4.94-3.12-9.53-6.62-12.7-12.22-1.09-1.92-1.72-4.07-.42-5.85,5.65-7.74-3.51-16.97-11.22-10.27,0,0-4.23,4.35-4.23,4.35h0c-3.05,2.69-4.9,5.76-2.51,9.96,6.98,12.26,17.62,22.92,32.68,31.82,6.1,3.6,9.95-1.76,13.52-5.44,0,0,0,0,0,0,3.74-2.97,4.7-8.52,1.08-11.98Z"/>
          <path class="cls-20" d="M1100.67,421.52c0-.18,0-.37-.01-.55-.01-.33-.03-.65-.06-.98,0-.08,0-.16-.01-.24-.06-.62-.13-1.25-.24-1.86-.22-1.36-.56-2.68-1.01-3.95-.13-.38-.27-.74-.41-1.1-.06-.14-.12-.28-.18-.42-.21-.49-.43-.96-.67-1.43l-.22-.42c-.8-1.5-1.77-2.9-2.87-4.19-.12-.15-.25-.29-.38-.44-.33-.38-.68-.74-1.04-1.09-.26-.26-.53-.52-.81-.76-4.25-3.83-9.89-6.17-16.06-6.17s-11.81,2.33-16.06,6.17c-.28.25-.55.5-.81.76-.36.35-.71.72-1.04,1.09-.13.15-.25.29-.38.44-1.1,1.29-2.06,2.69-2.87,4.19l-.22.42c-.24.47-.47.94-.67,1.43-.06.14-.12.28-.18.42-.15.36-.29.73-.42,1.1-.44,1.27-.78,2.59-1.01,3.95-.1.61-.18,1.23-.23,1.86,0,.08-.01.16-.01.24-.03.32-.04.65-.06.98,0,.18-.01.36-.01.55,0,.09,0,.18,0,.27,0,.35,0,.7.02,1.04.03.67.09,1.33.17,1.98.08.62.18,1.25.31,1.86.06.3.13.61.21.91.13.52.28,1.03.44,1.53.25.78.55,1.54.87,2.28.05.11.1.22.15.33.24.52.5,1.03.77,1.52.06.11.12.22.19.33.31.54.64,1.07.99,1.58.35.52.73,1.03,1.13,1.53.55.68,1.13,1.33,1.75,1.95.66.66,1.35,1.28,2.08,1.86,4.09,3.24,9.25,5.17,14.86,5.18.01,0,.03,0,.04,0,.01,0,.03,0,.04,0,5.61-.01,10.77-1.95,14.85-5.18.73-.58,1.43-1.2,2.08-1.86.62-.62,1.2-1.27,1.75-1.95.4-.49.77-1,1.13-1.53.35-.51.68-1.04.99-1.58.07-.11.13-.22.19-.33.27-.49.53-1,.77-1.52.05-.11.1-.22.15-.33.33-.74.62-1.51.87-2.28.16-.5.31-1.01.44-1.53.07-.3.15-.6.21-.91.13-.61.23-1.23.31-1.86.08-.65.14-1.31.17-1.98.02-.34.03-.69.03-1.04,0-.09,0-.18,0-.27ZM1098.05,417.9c.11.61.2,1.23.26,1.86,0,.08.01.16.02.24h-6.51c-.1-2.08-.38-4.11-.81-6.05h5.92c.5,1.26.88,2.58,1.12,3.95ZM1089.69,421.9c0,1.96-.16,3.86-.46,5.67h-4.5c.16-1.85.24-3.77.24-5.72,0-.11,0-.22,0-.33h4.72c0,.13,0,.25,0,.38ZM1063.69,421.9c0-.13,0-.25,0-.38h4.72c0,.11,0,.22,0,.33,0,1.95.08,3.87.24,5.72h-4.5c-.3-1.81-.46-3.71-.46-5.67ZM1083.09,421.85c0,1.98-.09,3.9-.26,5.72h-5.2v-6.05h5.46c0,.11,0,.22,0,.33ZM1070.3,421.85c0-.11,0-.22,0-.33h5.46v6.05h-5.2c-.17-1.83-.26-3.75-.26-5.72ZM1077.62,401.46c.96.47,1.86,1.66,2.63,3.39h-2.63v-3.39ZM1075.76,401.46v3.39h-2.63c.78-1.72,1.68-2.91,2.63-3.39ZM1075.76,406.37v6.05h-4.73c.38-2.29.88-4.35,1.49-6.05h3.24ZM1075.76,413.95v6.05h-5.44c.06-2.11.23-4.15.48-6.05h4.96ZM1075.76,429.1v6.05h-3.91c-.48-1.79-.86-3.83-1.13-6.05h5.04ZM1075.76,436.68v5.56c-1.32-.65-2.52-2.67-3.46-5.56h3.46ZM1077.62,442.24v-5.56h3.46c-.94,2.9-2.14,4.91-3.46,5.56ZM1077.62,435.15v-6.05h5.04c-.27,2.22-.65,4.26-1.13,6.05h-3.91ZM1077.62,420v-6.05h4.96c.25,1.9.42,3.93.48,6.05h-5.44ZM1077.62,412.42v-6.05h3.24c.6,1.7,1.11,3.75,1.49,6.05h-4.73ZM1082.98,406.37h2.69c1.1,1.73,2.01,3.78,2.69,6.05h-4.06c-.33-2.19-.77-4.23-1.32-6.05ZM1082.47,404.85c-.45-1.24-.94-2.32-1.47-3.22,1.3.76,2.51,1.85,3.58,3.22h-2.12ZM1072.38,401.63c-.53.9-1.02,1.98-1.47,3.22h-2.12c1.08-1.37,2.28-2.46,3.58-3.22ZM1070.41,406.37c-.55,1.82-.99,3.86-1.32,6.05h-4.06c.68-2.27,1.59-4.31,2.69-6.05h2.69ZM1068.88,413.95c-.23,1.93-.38,3.96-.44,6.05h-4.7c.11-2.12.41-4.15.87-6.05h4.26ZM1068.81,429.1c.24,2.15.58,4.18,1.02,6.05h-3.36c-.86-1.81-1.55-3.84-2.02-6.05h4.36ZM1070.22,436.68c.14.52.3,1.02.46,1.5.53,1.61,1.14,2.96,1.8,4.05-2-1.14-3.79-3.07-5.21-5.56h2.96ZM1080.91,442.23c.66-1.09,1.26-2.44,1.8-4.05.16-.48.31-.99.46-1.5h2.96c-1.43,2.49-3.21,4.42-5.21,5.56ZM1083.56,435.15c.44-1.87.78-3.9,1.02-6.05h4.36c-.48,2.2-1.16,4.24-2.02,6.05h-3.36ZM1084.94,420c-.06-2.08-.2-4.11-.44-6.05h4.26c.46,1.9.76,3.93.87,6.05h-4.7ZM1095.24,410.57c.09.14.17.28.25.42.27.46.53.94.77,1.43h-5.64c-.6-2.18-1.41-4.22-2.42-6.05h3.7c1.28,1.25,2.41,2.66,3.35,4.19ZM1090.14,404.85h-2.87c-.78-1.19-1.63-2.23-2.53-3.12,1.56.62,3.02,1.41,4.38,2.36.35.24.69.49,1.02.76ZM1064.27,404.08c1.36-.95,2.83-1.74,4.38-2.36-.9.89-1.75,1.93-2.53,3.12h-2.87c.33-.27.68-.52,1.02-.76ZM1057.9,410.99c.08-.14.17-.28.25-.42.94-1.54,2.07-2.94,3.35-4.19h3.69c-1.01,1.83-1.82,3.87-2.42,6.05h-5.64c.24-.49.49-.97.77-1.43ZM1055.08,419.76c.06-.63.15-1.25.26-1.86.25-1.37.63-2.69,1.12-3.95h5.92c-.43,1.93-.71,3.96-.81,6.05h-6.52c0-.08.01-.16.02-.24ZM1055.55,426.66c-.15-.61-.26-1.23-.35-1.86-.09-.65-.15-1.31-.19-1.98-.01-.35-.03-.69-.03-1.04,0-.09,0-.18,0-.27h6.54c0,.13,0,.25,0,.38,0,1.93.15,3.83.43,5.67h-6.18c-.09-.3-.16-.6-.23-.91ZM1058.51,433.57c-.07-.11-.15-.22-.22-.33-.31-.49-.61-1-.87-1.52-.06-.11-.12-.22-.17-.33-.37-.74-.7-1.5-.98-2.28h5.97c.43,2.14,1.05,4.18,1.85,6.05h-4.43c-.41-.51-.78-1.03-1.14-1.58ZM1063.1,438.63c-.75-.6-1.46-1.25-2.12-1.95h3.82c.32.64.67,1.25,1.03,1.84.75,1.21,1.57,2.27,2.45,3.18-.85-.36-1.67-.76-2.46-1.22-.95-.55-1.86-1.17-2.71-1.86ZM1090.29,438.63c-.85.68-1.76,1.31-2.71,1.86-.79.46-1.61.86-2.46,1.22.87-.91,1.7-1.98,2.45-3.18.37-.59.71-1.21,1.03-1.84h3.81c-.66.7-1.37,1.35-2.12,1.95ZM1096.14,431.38c-.06.11-.11.22-.17.33-.27.52-.56,1.03-.87,1.52-.07.11-.14.22-.22.33-.35.54-.73,1.07-1.14,1.58h-4.43c.8-1.87,1.42-3.91,1.85-6.05h5.97c-.28.78-.61,1.54-.98,2.28ZM1091.43,427.57c.28-1.83.43-3.73.43-5.67,0-.13,0-.25,0-.38h6.54c0,.09,0,.18,0,.27,0,.35,0,.69-.02,1.04-.03.67-.09,1.33-.19,1.98-.09.63-.2,1.25-.34,1.86-.07.3-.15.61-.24.91h-6.18Z"/>
          <path class="cls-22" d="M88.61,262.28c.25.41.33.9.21,1.38-.16.64-.62,1.12-1.25,1.31l-6.07,1.77c-.63.18-1.29.02-1.76-.43-.47-.45-.66-1.1-.51-1.74l1.5-6.14c.16-.64.62-1.12,1.25-1.31.63-.18,1.29-.02,1.76.43l4.56,4.37c.11.11.21.23.29.36ZM80.67,265.2s.05.06.06.08c.05.05.18.15.37.09l6.06-1.77c.19-.06.25-.21.26-.28.02-.06.04-.23-.11-.37l-4.56-4.37c-.14-.14-.31-.11-.37-.09-.06.02-.22.08-.26.28l-1.5,6.14c-.03.13,0,.22.04.29Z"/>
          <path class="cls-22" d="M1082.2,350.42c.25.41.33.9.21,1.38-.16.64-.62,1.12-1.25,1.31l-6.07,1.77c-.63.18-1.29.02-1.76-.43-.47-.45-.66-1.1-.51-1.74l1.5-6.14c.16-.64.62-1.12,1.25-1.31.63-.18,1.29-.02,1.76.43l4.56,4.37c.11.11.21.23.29.36ZM1074.26,353.33s.05.06.06.08c.05.05.18.15.37.09l6.07-1.77c.19-.06.25-.21.26-.28.02-.06.04-.23-.11-.37l-4.56-4.37c-.14-.14-.31-.11-.37-.09-.06.02-.22.08-.26.28l-1.5,6.14c-.03.13,0,.22.04.29Z"/>
          <path class="cls-22" d="M713.71,149.87c.25.41.33.9.21,1.38-.16.64-.62,1.12-1.25,1.31l-6.07,1.77c-.63.18-1.29.02-1.76-.43-.47-.45-.66-1.1-.51-1.74l1.5-6.14c.16-.64.62-1.12,1.25-1.31.63-.18,1.29-.02,1.76.43l4.56,4.37c.11.11.21.23.29.36ZM705.77,152.78s.05.06.06.08c.05.05.18.15.37.09l6.07-1.77c.19-.06.25-.21.26-.28.02-.06.04-.23-.11-.37l-4.56-4.37c-.14-.14-.31-.11-.37-.09-.06.02-.22.08-.26.28l-1.5,6.14c-.03.13,0,.22.04.29Z"/>
          <path class="cls-38" d="M116.86,562.27l2.23-2.23c.51-.51.51-1.33,0-1.83-.51-.51-1.33-.51-1.83,0l-2.23,2.23-2.23-2.23c-.51-.51-1.33-.51-1.83,0-.51.51-.51,1.33,0,1.83l2.23,2.23-2.23,2.23c-.51.51-.51,1.33,0,1.83.25.25.59.38.92.38s.66-.13.92-.38l2.23-2.23,2.23,2.23c.25.25.59.38.92.38s.66-.13.92-.38c.51-.51.51-1.33,0-1.83l-2.23-2.23Z"/>
          <path class="cls-38" d="M536.41,66.87l2.23-2.23c.51-.51.51-1.33,0-1.83-.51-.51-1.33-.51-1.83,0l-2.23,2.23-2.23-2.23c-.51-.51-1.33-.51-1.83,0-.51.51-.51,1.33,0,1.83l2.23,2.23-2.23,2.23c-.51.51-.51,1.33,0,1.83.25.25.59.38.92.38s.66-.13.92-.38l2.23-2.23,2.23,2.23c.25.25.59.38.92.38s.66-.13.92-.38c.51-.51.51-1.33,0-1.83l-2.23-2.23Z"/>
          <path class="cls-38" d="M1157.97,450l2.23-2.23c.51-.51.51-1.33,0-1.83-.51-.51-1.33-.51-1.83,0l-2.23,2.23-2.23-2.23c-.51-.51-1.33-.51-1.83,0-.51.51-.51,1.33,0,1.83l2.23,2.23-2.23,2.23c-.51.51-.51,1.33,0,1.83.25.25.58.38.92.38s.66-.13.92-.38l2.23-2.23,2.23,2.23c.25.25.59.38.92.38s.66-.13.92-.38c.51-.51.51-1.33,0-1.83l-2.23-2.23Z"/>
          <path class="cls-15" d="M307.11,154.26c-2.61,0-4.74-2.13-4.74-4.74s2.13-4.74,4.74-4.74,4.74,2.13,4.74,4.74-2.13,4.74-4.74,4.74ZM307.11,146.26c-1.79,0-3.25,1.46-3.25,3.26s1.46,3.25,3.25,3.25,3.25-1.46,3.25-3.25-1.46-3.26-3.25-3.26Z"/>
          <path class="cls-15" d="M1128.55,159.93c-2.61,0-4.74-2.13-4.74-4.74s2.13-4.74,4.74-4.74,4.74,2.13,4.74,4.74-2.13,4.74-4.74,4.74ZM1128.55,151.94c-1.79,0-3.25,1.46-3.25,3.25s1.46,3.25,3.25,3.25,3.25-1.46,3.25-3.25-1.46-3.25-3.25-3.25Z"/>
        </g>
      </g>
    </g>
  </g>
</svg>