<svg width="87" height="70" viewBox="0 0 87 70" fill="none" xmlns="http://www.w3.org/2000/svg">
<path d="M21.8716 26.1969C23.2673 23.8664 26.6442 23.8664 28.0398 26.1969L43.3092 51.6949C44.7441 54.091 43.018 57.1367 40.2251 57.1367H9.68627C6.89341 57.1367 5.1673 54.091 6.60219 51.6949L21.8716 26.1969Z" fill="url(#paint0_linear_5974_12647)"/>
<path d="M51.9548 10.1748C54.0696 7.68813 58.0045 8.02628 59.6641 10.8373L82.7699 49.9749C84.6394 53.1415 82.3566 57.1401 78.6793 57.1401H22.2885C18.2387 57.1401 16.0462 52.3974 18.6699 49.3124L51.9548 10.1748Z" fill="url(#paint1_linear_5974_12647)"/>
<ellipse cx="29.1211" cy="7.27894" rx="7.28033" ry="7.27894" fill="url(#paint2_linear_5974_12647)"/>
<defs>
<linearGradient id="paint0_linear_5974_12647" x1="49.9114" y1="45.1067" x2="0" y2="45.1067" gradientUnits="userSpaceOnUse">
<stop stop-color="#DBDBDB" stop-opacity="0.3"/>
<stop offset="0.5" stop-color="#DBDBDB"/>
</linearGradient>
<linearGradient id="paint1_linear_5974_12647" x1="87.0001" y1="31.1179" x2="12.0127" y2="31.1179" gradientUnits="userSpaceOnUse">
<stop stop-color="#DBDBDB" stop-opacity="0.3"/>
<stop offset="0.5" stop-color="#DBDBDB"/>
</linearGradient>
<linearGradient id="paint2_linear_5974_12647" x1="36.4015" y1="7.27894" x2="21.8408" y2="7.27894" gradientUnits="userSpaceOnUse">
<stop stop-color="#DBDBDB" stop-opacity="0.3"/>
<stop offset="0.5" stop-color="#DBDBDB"/>
</linearGradient>
</defs>
</svg>
