<svg fill="#143F5B" xmlns="http://www.w3.org/2000/svg" xmlns:xlink="http://www.w3.org/1999/xlink" version="1.1" x="0px" y="0px" viewBox="0 0 100 100" enable-background="new 0 0 100 100" xml:space="preserve"><path d="M85,92.5V20c0-0.7-0.3-1.3-0.7-1.8L71.8,5.7C71.3,5.3,70.7,5,70,5H17.5C16.1,5,15,6.1,15,7.5v85c0,1.4,1.1,2.5,2.5,2.5h65  C83.9,95,85,93.9,85,92.5z M70,11l9,9h-9V11z M80,90H20V10h45v12.5c0,1.4,1.1,2.5,2.5,2.5H80V90z"></path><path d="M67.5,45h-35c-1.4,0-2.5,1.1-2.5,2.5s1.1,2.5,2.5,2.5h35c1.4,0,2.5-1.1,2.5-2.5S68.9,45,67.5,45z"></path><path d="M32.5,35c-1.4,0-2.5,1.1-2.5,2.5s1.1,2.5,2.5,2.5h35c1.4,0,2.5-1.1,2.5-2.5S68.9,35,67.5,35H32.5z"></path><path d="M67.5,55h-35c-1.4,0-2.5,1.1-2.5,2.5s1.1,2.5,2.5,2.5h35c1.4,0,2.5-1.1,2.5-2.5S68.9,55,67.5,55z"></path><path d="M67.5,65h-35c-1.4,0-2.5,1.1-2.5,2.5s1.1,2.5,2.5,2.5h35c1.4,0,2.5-1.1,2.5-2.5S68.9,65,67.5,65z"></path><path d="M67.5,75h-35c-1.4,0-2.5,1.1-2.5,2.5s1.1,2.5,2.5,2.5h35c1.4,0,2.5-1.1,2.5-2.5S68.9,75,67.5,75z"></path></svg>