<svg xmlns="http://www.w3.org/2000/svg" xmlns:xlink="http://www.w3.org/1999/xlink" version="1.1" x="0px" y="0px" viewBox="0 0 100 100" style="enable-background:new 0 0 100 100;" xml:space="preserve"><g><path d="M83.583,6.417v87.165H16.417V25.587l19.17-19.17H83.583 M85,5H35L15,25v70h70V5L85,5z"></path></g><g><path d="M28.093,79.302h3.823v3.586h-3.823V79.302z"></path><path d="M33.411,70.003h12.103v3.182h-4.061v9.703h-3.981v-9.703h-4.061V70.003z"></path><path d="M46.621,78.625l3.788-0.237c0.082,0.615,0.249,1.084,0.501,1.406c0.411,0.521,0.997,0.782,1.758,0.782   c0.568,0,1.006-0.133,1.313-0.399c0.309-0.267,0.463-0.576,0.463-0.928c0-0.334-0.146-0.633-0.439-0.896s-0.973-0.513-2.039-0.747   c-1.747-0.393-2.992-0.914-3.736-1.564c-0.75-0.65-1.125-1.479-1.125-2.487c0-0.662,0.192-1.287,0.576-1.877   c0.384-0.588,0.961-1.051,1.731-1.389c0.771-0.336,1.827-0.505,3.169-0.505c1.646,0,2.9,0.307,3.766,0.919   c0.863,0.612,1.379,1.586,1.543,2.922l-3.754,0.22c-0.1-0.58-0.309-1.002-0.629-1.266c-0.318-0.264-0.76-0.396-1.322-0.396   c-0.463,0-0.811,0.099-1.045,0.295c-0.235,0.196-0.352,0.435-0.352,0.716c0,0.205,0.097,0.39,0.29,0.554   c0.188,0.17,0.633,0.328,1.336,0.475c1.74,0.375,2.986,0.755,3.74,1.139c0.752,0.384,1.301,0.859,1.643,1.428   c0.344,0.568,0.516,1.204,0.516,1.907c0,0.826-0.229,1.588-0.686,2.285s-1.096,1.226-1.916,1.587   c-0.82,0.359-1.855,0.54-3.104,0.54c-2.191,0-3.708-0.422-4.552-1.266S46.732,79.926,46.621,78.625z"></path><path d="M59.049,70.003h4.162l2.9,9.272l2.862-9.272h4.041L68.23,82.888h-4.315L59.049,70.003z"></path></g><g><line style="" x1="24" y1="31" x2="34" y2="31" fill="none" stroke="#000000" stroke-width="1.4173" stroke-miterlimit="10"></line><line style="" x1="38" y1="31" x2="48" y2="31" fill="none" stroke="#000000" stroke-width="1.4173" stroke-miterlimit="10"></line><line style="" x1="52" y1="31" x2="62" y2="31" fill="none" stroke="#000000" stroke-width="1.4173" stroke-miterlimit="10"></line><line style="" x1="66" y1="31" x2="76" y2="31" fill="none" stroke="#000000" stroke-width="1.4173" stroke-miterlimit="10"></line></g><g><line style="" x1="24" y1="38" x2="34" y2="38" fill="none" stroke="#000000" stroke-width="1.4173" stroke-miterlimit="10"></line><line style="" x1="38" y1="38" x2="48" y2="38" fill="none" stroke="#000000" stroke-width="1.4173" stroke-miterlimit="10"></line><line style="" x1="52" y1="38" x2="62" y2="38" fill="none" stroke="#000000" stroke-width="1.4173" stroke-miterlimit="10"></line><line style="" x1="66" y1="38" x2="76" y2="38" fill="none" stroke="#000000" stroke-width="1.4173" stroke-miterlimit="10"></line></g><g><line style="" x1="24" y1="45" x2="34" y2="45" fill="none" stroke="#000000" stroke-width="1.4173" stroke-miterlimit="10"></line><line style="" x1="38" y1="45" x2="48" y2="45" fill="none" stroke="#000000" stroke-width="1.4173" stroke-miterlimit="10"></line><line style="" x1="52" y1="45" x2="62" y2="45" fill="none" stroke="#000000" stroke-width="1.4173" stroke-miterlimit="10"></line><line style="" x1="66" y1="45" x2="76" y2="45" fill="none" stroke="#000000" stroke-width="1.4173" stroke-miterlimit="10"></line></g><g><line style="" x1="24" y1="52" x2="34" y2="52" fill="none" stroke="#000000" stroke-width="1.4173" stroke-miterlimit="10"></line><line style="" x1="38" y1="52" x2="48" y2="52" fill="none" stroke="#000000" stroke-width="1.4173" stroke-miterlimit="10"></line><line style="" x1="52" y1="52" x2="62" y2="52" fill="none" stroke="#000000" stroke-width="1.4173" stroke-miterlimit="10"></line><line style="" x1="66" y1="52" x2="76" y2="52" fill="none" stroke="#000000" stroke-width="1.4173" stroke-miterlimit="10"></line></g><g><line style="" x1="24" y1="59" x2="34" y2="59" fill="none" stroke="#000000" stroke-width="1.4173" stroke-miterlimit="10"></line><line style="" x1="38" y1="59" x2="48" y2="59" fill="none" stroke="#000000" stroke-width="1.4173" stroke-miterlimit="10"></line><line style="" x1="52" y1="59" x2="62" y2="59" fill="none" stroke="#000000" stroke-width="1.4173" stroke-miterlimit="10"></line><line style="" x1="66" y1="59" x2="76" y2="59" fill="none" stroke="#000000" stroke-width="1.4173" stroke-miterlimit="10"></line></g></svg>