<?xml version="1.0" encoding="utf-8"?>
<!-- Generator: Adobe Illustrator 16.0.3, SVG Export Plug-In . SVG Version: 6.00 Build 0)  -->
<!DOCTYPE svg PUBLIC "-//W3C//DTD SVG 1.1//EN" "http://www.w3.org/Graphics/SVG/1.1/DTD/svg11.dtd">
<svg version="1.1" id="Layer_1" xmlns="http://www.w3.org/2000/svg" xmlns:xlink="http://www.w3.org/1999/xlink" x="0px" y="0px"
	 width="457.666px" height="307.889px" viewBox="0 0 457.666 307.889" enable-background="new 0 0 457.666 307.889"
	 xml:space="preserve">
<rect x="12.666" y="18" fill="#FFFFFF" stroke="#000000" stroke-miterlimit="10" width="434" height="284"/>
<rect x="12.666" y="18" fill="#1F4173" width="434" height="28"/>
<rect x="12.666" y="61" fill="#CCC7C7" width="15" height="241"/>
<rect x="27.666" y="61" fill="#E6E3E3" width="102" height="241"/>
<rect x="12.666" y="274" fill="#CCC7C7" width="434" height="28"/>
<rect x="404.666" y="279" fill="#1F4173" width="35" height="18"/>
<rect x="28.666" y="279" fill="#E6E3E3" width="35" height="18"/>
<rect x="118.666" y="65" fill="#CCC7C7" width="6" height="164"/>
<rect x="12.666" y="46" fill="#CCC7C7" width="434" height="15"/>
<rect x="31.666" y="54" fill="#595050" width="74" height="2"/>
<rect x="31.666" y="70" fill="#867878" width="63" height="2"/>
<rect x="31.666" y="82" fill="#867878" width="47" height="2"/>
<rect x="31.666" y="94" fill="#867878" width="50" height="2"/>
<rect x="31.666" y="104" fill="#867878" width="37" height="2"/>
<rect x="31.666" y="114" fill="#867878" width="63" height="2"/>
<rect x="31.666" y="126" fill="#867878" width="47" height="2"/>
<rect x="31.666" y="138" fill="#867878" width="50" height="2"/>
<rect x="31.666" y="148" fill="#867878" width="37" height="2"/>
<rect x="31.666" y="158" fill="#867878" width="63" height="2"/>
<rect x="31.666" y="170" fill="#867878" width="47" height="2"/>
<rect x="31.666" y="182" fill="#867878" width="50" height="2"/>
<rect x="31.666" y="192" fill="#867878" width="37" height="2"/>
<line fill="none" stroke="#999999" stroke-miterlimit="10" x1="147.166" y1="71" x2="147.166" y2="158"/>
<line fill="none" stroke="#999999" stroke-miterlimit="10" x1="147.666" y1="157.5" x2="418.666" y2="157.5"/>
<ellipse fill="#1F4173" cx="246.104" cy="139.642" rx="2.938" ry="2.317"/>
<ellipse fill="#1F4173" cx="379.347" cy="94.296" rx="6.18" ry="4.797"/>
<ellipse fill="#565656" cx="322.666" cy="119" rx="14.5" ry="13.5"/>
<ellipse fill="#7F7F7F" cx="170.666" cy="147.5" rx="4.5" ry="5"/>
<ellipse fill="#494949" cx="337.666" cy="106.547" rx="8.5" ry="6.953"/>
<ellipse fill="#7F7F7F" cx="233.604" cy="126" rx="15.438" ry="13.5"/>
<rect x="147.166" y="188.5" fill="none" stroke="#CCCCCC" stroke-miterlimit="10" width="277" height="17"/>
<ellipse fill="#565656" cx="289.666" cy="112.25" rx="8.5" ry="6.75"/>
<ellipse fill="#565656" cx="194.604" cy="128.25" rx="11.438" ry="10.75"/>
<ellipse fill="#494949" cx="256.666" cy="119.625" rx="7.5" ry="7.125"/>
<ellipse fill="#7F7F7F" cx="209.604" cy="138.25" rx="11.438" ry="10.75"/>
<rect x="155.666" y="196" fill="#595050" width="36" height="2"/>
<rect x="203.666" y="196" fill="#595050" width="39" height="2"/>
<rect x="253.666" y="196" fill="#595050" width="36" height="2"/>
<rect x="302.666" y="196" fill="#595050" width="52" height="2"/>
<rect x="367.666" y="196" fill="#595050" width="44" height="2"/>
<rect x="155.666" y="217" fill="#998F8F" width="23" height="2"/>
<rect x="217.666" y="217" fill="#998F8F" width="25" height="2"/>
<rect x="260.666" y="217" fill="#998F8F" width="29" height="2"/>
<rect x="324.666" y="217" fill="#998F8F" width="30" height="2"/>
<rect x="389.666" y="217" fill="#998F8F" width="22" height="2"/>
<rect x="155.666" y="228" fill="#998F8F" width="23" height="2"/>
<rect x="217.666" y="228" fill="#998F8F" width="25" height="2"/>
<rect x="260.666" y="228" fill="#998F8F" width="29" height="2"/>
<rect x="324.666" y="228" fill="#998F8F" width="30" height="2"/>
<rect x="389.666" y="228" fill="#998F8F" width="22" height="2"/>
<rect x="155.666" y="239" fill="#998F8F" width="23" height="2"/>
<rect x="217.666" y="239" fill="#998F8F" width="25" height="2"/>
<rect x="260.666" y="239" fill="#998F8F" width="29" height="2"/>
<rect x="324.666" y="239" fill="#998F8F" width="30" height="2"/>
<rect x="389.666" y="239" fill="#998F8F" width="22" height="2"/>
<rect x="155.666" y="249" fill="#998F8F" width="23" height="2"/>
<rect x="217.666" y="249" fill="#998F8F" width="25" height="2"/>
<rect x="260.666" y="249" fill="#998F8F" width="29" height="2"/>
<rect x="324.666" y="249" fill="#998F8F" width="30" height="2"/>
<rect x="389.666" y="249" fill="#998F8F" width="22" height="2"/>
<rect x="155.666" y="261" fill="#998F8F" width="23" height="2"/>
<rect x="217.666" y="261" fill="#998F8F" width="25" height="2"/>
<rect x="260.666" y="261" fill="#998F8F" width="29" height="2"/>
<rect x="324.666" y="261" fill="#998F8F" width="30" height="2"/>
<rect x="389.666" y="261" fill="#998F8F" width="22" height="2"/>
<rect x="436.666" y="65" fill="#CCC7C7" width="6" height="139"/>
</svg>
